<?xml version="1.0" encoding="UTF-8" standalone="no"?>
<!DOCTYPE svg PUBLIC "-//W3C//DTD SVG 1.1//EN"
 "http://www.w3.org/Graphics/SVG/1.1/DTD/svg11.dtd">
<!-- Generated by graphviz version 12.2.1 (20241206.2353)
 -->
<!-- Title: /github/workspace/src/sgui/Widgets/Aspect.h Pages: 1 -->
<svg width="274pt" height="94pt"
 viewBox="0.00 0.00 274.38 93.75" xmlns="http://www.w3.org/2000/svg" xmlns:xlink="http://www.w3.org/1999/xlink">
<g id="graph0" class="graph" transform="scale(1 1) rotate(0) translate(4 89.75)">
<title>/github/workspace/src/sgui/Widgets/Aspect.h</title>
<!-- Node1 -->
<g id="Node000001" class="node">
<title>Node1</title>
<g id="a_Node000001"><a xlink:title=" ">
<polygon fill="#999999" stroke="#666666" points="188.25,-85.75 71.75,-85.75 71.75,-55.25 188.25,-55.25 188.25,-85.75"/>
<text text-anchor="start" x="79.75" y="-72.25" font-family="Helvetica,sans-Serif" font-size="10.00">/github/workspace/src</text>
<text text-anchor="middle" x="130" y="-61" font-family="Helvetica,sans-Serif" font-size="10.00">/sgui/Widgets/Aspect.h</text>
</a>
</g>
</g>
<!-- Node2 -->
<g id="Node000002" class="node">
<title>Node2</title>
<g id="a_Node000002"><a xlink:href="_widgets_8h.html" target="_top" xlink:title=" ">
<polygon fill="white" stroke="#666666" points="118,-19.25 0,-19.25 0,0 118,0 118,-19.25"/>
<text text-anchor="middle" x="59" y="-5.75" font-family="Helvetica,sans-Serif" font-size="10.00">sgui/Widgets/Widgets.h</text>
</a>
</g>
</g>
<!-- Node1&#45;&gt;Node2 -->
<g id="edge1_Node000001_Node000002" class="edge">
<title>Node1&#45;&gt;Node2</title>
<g id="a_edge1_Node000001_Node000002"><a xlink:title=" ">
<path fill="none" stroke="#63b8ff" d="M112.45,-54.95C102.16,-46.41 89.14,-35.62 78.52,-26.81"/>
<polygon fill="#63b8ff" stroke="#63b8ff" points="81.04,-24.36 71.11,-20.67 76.57,-29.74 81.04,-24.36"/>
</a>
</g>
</g>
<!-- Node3 -->
<g id="Node000003" class="node">
<title>Node3</title>
<g id="a_Node000003"><a xlink:href="_item_states_8h.html" target="_top" xlink:title=" ">
<polygon fill="white" stroke="#666666" points="266.38,-19.25 135.62,-19.25 135.62,0 266.38,0 266.38,-19.25"/>
<text text-anchor="middle" x="201" y="-5.75" font-family="Helvetica,sans-Serif" font-size="10.00">sgui/Widgets/ItemStates.h</text>
</a>
</g>
</g>
<!-- Node1&#45;&gt;Node3 -->
<g id="edge2_Node000001_Node000003" class="edge">
<title>Node1&#45;&gt;Node3</title>
<g id="a_edge2_Node000001_Node000003"><a xlink:title=" ">
<path fill="none" stroke="#63b8ff" d="M147.55,-54.95C157.84,-46.41 170.86,-35.62 181.48,-26.81"/>
<polygon fill="#63b8ff" stroke="#63b8ff" points="183.43,-29.74 188.89,-20.67 178.96,-24.36 183.43,-29.74"/>
</a>
</g>
</g>
</g>
</svg>
