<?xml version="1.0" encoding="UTF-8" standalone="no"?>
<!DOCTYPE svg PUBLIC "-//W3C//DTD SVG 1.1//EN"
 "http://www.w3.org/Graphics/SVG/1.1/DTD/svg11.dtd">
<!-- Generated by graphviz version 12.2.1 (20241206.2353)
 -->
<!-- Title: /github/workspace/src/sgui/Render/ClippingLayers.h Pages: 1 -->
<svg width="606pt" height="327pt"
 viewBox="0.00 0.00 605.62 327.00" xmlns="http://www.w3.org/2000/svg" xmlns:xlink="http://www.w3.org/1999/xlink">
<g id="graph0" class="graph" transform="scale(1 1) rotate(0) translate(4 323)">
<title>/github/workspace/src/sgui/Render/ClippingLayers.h</title>
<!-- Node1 -->
<g id="Node000001" class="node">
<title>Node1</title>
<g id="a_Node000001"><a xlink:title=" ">
<polygon fill="#999999" stroke="#666666" points="309.25,-319 164.25,-319 164.25,-288.5 309.25,-288.5 309.25,-319"/>
<text text-anchor="start" x="172.25" y="-305.5" font-family="Helvetica,sans-Serif" font-size="10.00">/github/workspace/src</text>
<text text-anchor="middle" x="236.75" y="-294.25" font-family="Helvetica,sans-Serif" font-size="10.00">/sgui/Render/ClippingLayers.h</text>
</a>
</g>
</g>
<!-- Node2 -->
<g id="Node000002" class="node">
<title>Node2</title>
<g id="a_Node000002"><a xlink:href="_clipping_layers_8cpp.html" target="_top" xlink:title=" ">
<polygon fill="white" stroke="#666666" points="155.5,-246.88 0,-246.88 0,-216.38 155.5,-216.38 155.5,-246.88"/>
<text text-anchor="start" x="8" y="-233.38" font-family="Helvetica,sans-Serif" font-size="10.00">/github/workspace/src</text>
<text text-anchor="middle" x="77.75" y="-222.12" font-family="Helvetica,sans-Serif" font-size="10.00">/sgui/Render/ClippingLayers.cpp</text>
</a>
</g>
</g>
<!-- Node1&#45;&gt;Node2 -->
<g id="edge1_Node000001_Node000002" class="edge">
<title>Node1&#45;&gt;Node2</title>
<g id="a_edge1_Node000001_Node000002"><a xlink:title=" ">
<path fill="none" stroke="#63b8ff" d="M193.12,-283.51C167.21,-272.08 134.88,-257.82 111.04,-247.31"/>
<polygon fill="#63b8ff" stroke="#63b8ff" points="191.47,-286.61 202.03,-287.44 194.3,-280.2 191.47,-286.61"/>
</a>
</g>
</g>
<!-- Node3 -->
<g id="Node000003" class="node">
<title>Node3</title>
<g id="a_Node000003"><a xlink:href="_gui_render_8h.html" target="_top" xlink:title=" ">
<polygon fill="white" stroke="#666666" points="300.25,-246.88 173.25,-246.88 173.25,-216.38 300.25,-216.38 300.25,-246.88"/>
<text text-anchor="start" x="181.25" y="-233.38" font-family="Helvetica,sans-Serif" font-size="10.00">/github/workspace/src</text>
<text text-anchor="middle" x="236.75" y="-222.12" font-family="Helvetica,sans-Serif" font-size="10.00">/sgui/Render/GuiRender.h</text>
</a>
</g>
</g>
<!-- Node1&#45;&gt;Node3 -->
<g id="edge2_Node000001_Node000003" class="edge">
<title>Node1&#45;&gt;Node3</title>
<g id="a_edge2_Node000001_Node000003"><a xlink:title=" ">
<path fill="none" stroke="#63b8ff" d="M236.75,-276.77C236.75,-266.76 236.75,-255.69 236.75,-247.14"/>
<polygon fill="#63b8ff" stroke="#63b8ff" points="233.25,-276.71 236.75,-286.71 240.25,-276.71 233.25,-276.71"/>
</a>
</g>
</g>
<!-- Node8 -->
<g id="Node000008" class="node">
<title>Node8</title>
<g id="a_Node000008"><a xlink:href="_primitive_shape_render_8h.html" target="_top" xlink:title=" ">
<polygon fill="white" stroke="#666666" points="457.62,-252.5 317.88,-252.5 317.88,-210.75 457.62,-210.75 457.62,-252.5"/>
<text text-anchor="start" x="325.88" y="-239" font-family="Helvetica,sans-Serif" font-size="10.00">/github/workspace/src</text>
<text text-anchor="start" x="325.88" y="-227.75" font-family="Helvetica,sans-Serif" font-size="10.00">/sgui/Render/PrimitiveShape</text>
<text text-anchor="middle" x="387.75" y="-216.5" font-family="Helvetica,sans-Serif" font-size="10.00">Render.h</text>
</a>
</g>
</g>
<!-- Node1&#45;&gt;Node8 -->
<g id="edge7_Node000001_Node000008" class="edge">
<title>Node1&#45;&gt;Node8</title>
<g id="a_edge7_Node000001_Node000008"><a xlink:title=" ">
<path fill="none" stroke="#63b8ff" d="M278.64,-283.29C299.02,-273.83 323.51,-262.46 344.11,-252.89"/>
<polygon fill="#63b8ff" stroke="#63b8ff" points="277.37,-280.03 269.78,-287.41 280.32,-286.37 277.37,-280.03"/>
</a>
</g>
</g>
<!-- Node4 -->
<g id="Node000004" class="node">
<title>Node4</title>
<g id="a_Node000004"><a xlink:href="_gui_8h.html" target="_top" xlink:title=" ">
<polygon fill="white" stroke="#666666" points="252.75,-97 140.75,-97 140.75,-66.5 252.75,-66.5 252.75,-97"/>
<text text-anchor="start" x="148.75" y="-83.5" font-family="Helvetica,sans-Serif" font-size="10.00">/github/workspace/src</text>
<text text-anchor="middle" x="196.75" y="-72.25" font-family="Helvetica,sans-Serif" font-size="10.00">/sgui/Gui.h</text>
</a>
</g>
</g>
<!-- Node3&#45;&gt;Node4 -->
<g id="edge3_Node000003_Node000004" class="edge">
<title>Node3&#45;&gt;Node4</title>
<g id="a_edge3_Node000003_Node000004"><a xlink:title=" ">
<path fill="none" stroke="#63b8ff" d="M196.34,-210.09C183.15,-201.16 170.03,-189.36 162.75,-174.75 154.48,-158.14 157.31,-150.74 162.75,-133 166.82,-119.71 175.74,-106.76 183.41,-97.34"/>
<polygon fill="#63b8ff" stroke="#63b8ff" points="194.27,-212.92 204.6,-215.27 197.99,-206.99 194.27,-212.92"/>
</a>
</g>
</g>
<!-- Node7 -->
<g id="Node000007" class="node">
<title>Node7</title>
<g id="a_Node000007"><a xlink:href="_gui_render_8cpp.html" target="_top" xlink:title=" ">
<polygon fill="white" stroke="#666666" points="309.5,-169.12 172,-169.12 172,-138.62 309.5,-138.62 309.5,-169.12"/>
<text text-anchor="start" x="180" y="-155.62" font-family="Helvetica,sans-Serif" font-size="10.00">/github/workspace/src</text>
<text text-anchor="middle" x="240.75" y="-144.38" font-family="Helvetica,sans-Serif" font-size="10.00">/sgui/Render/GuiRender.cpp</text>
</a>
</g>
</g>
<!-- Node3&#45;&gt;Node7 -->
<g id="edge6_Node000003_Node000007" class="edge">
<title>Node3&#45;&gt;Node7</title>
<g id="a_edge6_Node000003_Node000007"><a xlink:title=" ">
<path fill="none" stroke="#63b8ff" d="M238.12,-204.6C238.75,-192.84 239.46,-179.38 239.98,-169.44"/>
<polygon fill="#63b8ff" stroke="#63b8ff" points="234.63,-204.34 237.6,-214.51 241.62,-204.71 234.63,-204.34"/>
</a>
</g>
</g>
<!-- Node5 -->
<g id="Node000005" class="node">
<title>Node5</title>
<g id="a_Node000005"><a xlink:href="_gui_8cpp.html" target="_top" xlink:title=" ">
<polygon fill="white" stroke="#666666" points="187.75,-30.5 75.75,-30.5 75.75,0 187.75,0 187.75,-30.5"/>
<text text-anchor="start" x="83.75" y="-17" font-family="Helvetica,sans-Serif" font-size="10.00">/github/workspace/src</text>
<text text-anchor="middle" x="131.75" y="-5.75" font-family="Helvetica,sans-Serif" font-size="10.00">/sgui/Gui.cpp</text>
</a>
</g>
</g>
<!-- Node4&#45;&gt;Node5 -->
<g id="edge4_Node000004_Node000005" class="edge">
<title>Node4&#45;&gt;Node5</title>
<g id="a_edge4_Node000004_Node000005"><a xlink:title=" ">
<path fill="none" stroke="#63b8ff" d="M174.01,-58.19C164.86,-49.11 154.58,-38.9 146.44,-30.83"/>
<polygon fill="#63b8ff" stroke="#63b8ff" points="171.36,-60.49 180.93,-65.05 176.29,-55.52 171.36,-60.49"/>
</a>
</g>
</g>
<!-- Node6 -->
<g id="Node000006" class="node">
<title>Node6</title>
<g id="a_Node000006"><a xlink:href="sgui_8h.html" target="_top" xlink:title=" ">
<polygon fill="white" stroke="#666666" points="317.75,-30.5 205.75,-30.5 205.75,0 317.75,0 317.75,-30.5"/>
<text text-anchor="start" x="213.75" y="-17" font-family="Helvetica,sans-Serif" font-size="10.00">/github/workspace/src</text>
<text text-anchor="middle" x="261.75" y="-5.75" font-family="Helvetica,sans-Serif" font-size="10.00">/sgui/sgui.h</text>
</a>
</g>
</g>
<!-- Node4&#45;&gt;Node6 -->
<g id="edge5_Node000004_Node000006" class="edge">
<title>Node4&#45;&gt;Node6</title>
<g id="a_edge5_Node000004_Node000006"><a xlink:title=" ">
<path fill="none" stroke="#63b8ff" d="M219.49,-58.19C228.64,-49.11 238.92,-38.9 247.06,-30.83"/>
<polygon fill="#63b8ff" stroke="#63b8ff" points="217.21,-55.52 212.57,-65.05 222.14,-60.49 217.21,-55.52"/>
</a>
</g>
</g>
<!-- Node9 -->
<g id="Node000009" class="node">
<title>Node9</title>
<g id="a_Node000009"><a xlink:href="_plotter_8h.html" target="_top" xlink:title=" ">
<polygon fill="white" stroke="#666666" points="439.75,-169.12 327.75,-169.12 327.75,-138.62 439.75,-138.62 439.75,-169.12"/>
<text text-anchor="start" x="335.75" y="-155.62" font-family="Helvetica,sans-Serif" font-size="10.00">/github/workspace/src</text>
<text text-anchor="middle" x="383.75" y="-144.38" font-family="Helvetica,sans-Serif" font-size="10.00">/sgui/Render/Plotter.h</text>
</a>
</g>
</g>
<!-- Node8&#45;&gt;Node9 -->
<g id="edge8_Node000008_Node000009" class="edge">
<title>Node8&#45;&gt;Node9</title>
<g id="a_edge8_Node000008_Node000009"><a xlink:title=" ">
<path fill="none" stroke="#63b8ff" d="M386.08,-199.06C385.54,-188.69 384.95,-177.67 384.51,-169.23"/>
<polygon fill="#63b8ff" stroke="#63b8ff" points="382.58,-199.01 386.6,-208.81 389.57,-198.64 382.58,-199.01"/>
</a>
</g>
</g>
<!-- Node11 -->
<g id="Node000011" class="node">
<title>Node11</title>
<g id="a_Node000011"><a xlink:href="_primitive_shape_render_8cpp.html" target="_top" xlink:title=" ">
<polygon fill="white" stroke="#666666" points="597.62,-174.75 457.88,-174.75 457.88,-133 597.62,-133 597.62,-174.75"/>
<text text-anchor="start" x="465.88" y="-161.25" font-family="Helvetica,sans-Serif" font-size="10.00">/github/workspace/src</text>
<text text-anchor="start" x="465.88" y="-150" font-family="Helvetica,sans-Serif" font-size="10.00">/sgui/Render/PrimitiveShape</text>
<text text-anchor="middle" x="527.75" y="-138.75" font-family="Helvetica,sans-Serif" font-size="10.00">Render.cpp</text>
</a>
</g>
</g>
<!-- Node8&#45;&gt;Node11 -->
<g id="edge11_Node000008_Node000011" class="edge">
<title>Node8&#45;&gt;Node11</title>
<g id="a_edge11_Node000008_Node000011"><a xlink:title=" ">
<path fill="none" stroke="#63b8ff" d="M435.23,-204.93C453.14,-195.24 473.25,-184.37 490.13,-175.23"/>
<polygon fill="#63b8ff" stroke="#63b8ff" points="433.73,-201.77 426.6,-209.61 437.06,-207.92 433.73,-201.77"/>
</a>
</g>
</g>
<!-- Node9&#45;&gt;Node4 -->
<g id="edge9_Node000009_Node000004" class="edge">
<title>Node9&#45;&gt;Node4</title>
<g id="a_edge9_Node000009_Node000004"><a xlink:title=" ">
<path fill="none" stroke="#63b8ff" d="M334.05,-134.24C303.32,-122.71 264.44,-108.13 235.9,-97.43"/>
<polygon fill="#63b8ff" stroke="#63b8ff" points="332.54,-137.41 343.13,-137.64 335,-130.85 332.54,-137.41"/>
</a>
</g>
</g>
<!-- Node10 -->
<g id="Node000010" class="node">
<title>Node10</title>
<g id="a_Node000010"><a xlink:href="_plotter_8cpp.html" target="_top" xlink:title=" ">
<polygon fill="white" stroke="#666666" points="443.88,-97 323.62,-97 323.62,-66.5 443.88,-66.5 443.88,-97"/>
<text text-anchor="start" x="331.62" y="-83.5" font-family="Helvetica,sans-Serif" font-size="10.00">/github/workspace/src</text>
<text text-anchor="middle" x="383.75" y="-72.25" font-family="Helvetica,sans-Serif" font-size="10.00">/sgui/Render/Plotter.cpp</text>
</a>
</g>
</g>
<!-- Node9&#45;&gt;Node10 -->
<g id="edge10_Node000009_Node000010" class="edge">
<title>Node9&#45;&gt;Node10</title>
<g id="a_edge10_Node000009_Node000010"><a xlink:title=" ">
<path fill="none" stroke="#63b8ff" d="M383.75,-126.9C383.75,-116.89 383.75,-105.81 383.75,-97.26"/>
<polygon fill="#63b8ff" stroke="#63b8ff" points="380.25,-126.83 383.75,-136.83 387.25,-126.83 380.25,-126.83"/>
</a>
</g>
</g>
</g>
</svg>
