<?xml version="1.0" encoding="UTF-8" standalone="no"?>
<!DOCTYPE svg PUBLIC "-//W3C//DTD SVG 1.1//EN"
 "http://www.w3.org/Graphics/SVG/1.1/DTD/svg11.dtd">
<!-- Generated by graphviz version 12.2.1 (20241206.2353)
 -->
<!-- Title: /github/workspace/src/sgui/Render/ClippingLayers.cpp Pages: 1 -->
<svg width="502pt" height="149pt"
 viewBox="0.00 0.00 502.38 149.00" xmlns="http://www.w3.org/2000/svg" xmlns:xlink="http://www.w3.org/1999/xlink">
<g id="graph0" class="graph" transform="scale(1 1) rotate(0) translate(4 145)">
<title>/github/workspace/src/sgui/Render/ClippingLayers.cpp</title>
<!-- Node1 -->
<g id="Node000001" class="node">
<title>Node1</title>
<g id="a_Node000001"><a xlink:title=" ">
<polygon fill="#999999" stroke="#666666" points="180.25,-141 24.75,-141 24.75,-110.5 180.25,-110.5 180.25,-141"/>
<text text-anchor="start" x="32.75" y="-127.5" font-family="Helvetica,sans-Serif" font-size="10.00">/github/workspace/src</text>
<text text-anchor="middle" x="102.5" y="-116.25" font-family="Helvetica,sans-Serif" font-size="10.00">/sgui/Render/ClippingLayers.cpp</text>
</a>
</g>
</g>
<!-- Node2 -->
<g id="Node000002" class="node">
<title>Node2</title>
<g id="a_Node000002"><a xlink:title=" ">
<polygon fill="#e0e0e0" stroke="#999999" points="43,-74.5 0,-74.5 0,-55.25 43,-55.25 43,-74.5"/>
<text text-anchor="middle" x="21.5" y="-61" font-family="Helvetica,sans-Serif" font-size="10.00">cmath</text>
</a>
</g>
</g>
<!-- Node1&#45;&gt;Node2 -->
<g id="edge1_Node000001_Node000002" class="edge">
<title>Node1&#45;&gt;Node2</title>
<g id="a_edge1_Node000001_Node000002"><a xlink:title=" ">
<path fill="none" stroke="#63b8ff" d="M82.48,-110.2C70.5,-101.49 55.28,-90.43 43.04,-81.53"/>
<polygon fill="#63b8ff" stroke="#63b8ff" points="45.36,-78.89 35.21,-75.84 41.24,-84.55 45.36,-78.89"/>
</a>
</g>
</g>
<!-- Node3 -->
<g id="Node000003" class="node">
<title>Node3</title>
<g id="a_Node000003"><a xlink:title=" ">
<polygon fill="#e0e0e0" stroke="#999999" points="144.25,-74.5 60.75,-74.5 60.75,-55.25 144.25,-55.25 144.25,-74.5"/>
<text text-anchor="middle" x="102.5" y="-61" font-family="Helvetica,sans-Serif" font-size="10.00">spdlog/spdlog.h</text>
</a>
</g>
</g>
<!-- Node1&#45;&gt;Node3 -->
<g id="edge2_Node000001_Node000003" class="edge">
<title>Node1&#45;&gt;Node3</title>
<g id="a_edge2_Node000001_Node000003"><a xlink:title=" ">
<path fill="none" stroke="#63b8ff" d="M102.5,-110.2C102.5,-102.96 102.5,-94.09 102.5,-86.19"/>
<polygon fill="#63b8ff" stroke="#63b8ff" points="106,-86.46 102.5,-76.46 99,-86.46 106,-86.46"/>
</a>
</g>
</g>
<!-- Node4 -->
<g id="Node000004" class="node">
<title>Node4</title>
<g id="a_Node000004"><a xlink:href="_clipping_layers_8h.html" target="_top" xlink:title=" ">
<polygon fill="white" stroke="#666666" points="304.5,-74.5 162.5,-74.5 162.5,-55.25 304.5,-55.25 304.5,-74.5"/>
<text text-anchor="middle" x="233.5" y="-61" font-family="Helvetica,sans-Serif" font-size="10.00">sgui/Render/ClippingLayers.h</text>
</a>
</g>
</g>
<!-- Node1&#45;&gt;Node4 -->
<g id="edge3_Node000001_Node000004" class="edge">
<title>Node1&#45;&gt;Node4</title>
<g id="a_edge3_Node000001_Node000004"><a xlink:title=" ">
<path fill="none" stroke="#63b8ff" d="M135.22,-110.05C156.03,-100.69 182.8,-88.66 203.14,-79.52"/>
<polygon fill="#63b8ff" stroke="#63b8ff" points="204.34,-82.82 212.03,-75.52 201.47,-76.43 204.34,-82.82"/>
</a>
</g>
</g>
<!-- Node5 -->
<g id="Node000005" class="node">
<title>Node5</title>
<g id="a_Node000005"><a xlink:title=" ">
<polygon fill="#e0e0e0" stroke="#999999" points="141,-19.25 98,-19.25 98,0 141,0 141,-19.25"/>
<text text-anchor="middle" x="119.5" y="-5.75" font-family="Helvetica,sans-Serif" font-size="10.00">vector</text>
</a>
</g>
</g>
<!-- Node4&#45;&gt;Node5 -->
<g id="edge4_Node000004_Node000005" class="edge">
<title>Node4&#45;&gt;Node5</title>
<g id="a_edge4_Node000004_Node000005"><a xlink:title=" ">
<path fill="none" stroke="#63b8ff" d="M214.16,-54.84C196.39,-46.54 169.78,-34.11 149.3,-24.54"/>
<polygon fill="#63b8ff" stroke="#63b8ff" points="150.85,-21.4 140.3,-20.34 147.88,-27.75 150.85,-21.4"/>
</a>
</g>
</g>
<!-- Node6 -->
<g id="Node000006" class="node">
<title>Node6</title>
<g id="a_Node000006"><a xlink:title=" ">
<polygon fill="#e0e0e0" stroke="#999999" points="204.12,-19.25 158.88,-19.25 158.88,0 204.12,0 204.12,-19.25"/>
<text text-anchor="middle" x="181.5" y="-5.75" font-family="Helvetica,sans-Serif" font-size="10.00">cstdint</text>
</a>
</g>
</g>
<!-- Node4&#45;&gt;Node6 -->
<g id="edge5_Node000004_Node000006" class="edge">
<title>Node4&#45;&gt;Node6</title>
<g id="a_edge5_Node000004_Node000006"><a xlink:title=" ">
<path fill="none" stroke="#63b8ff" d="M224.91,-55.08C217.66,-47.65 207.05,-36.79 198.13,-27.66"/>
<polygon fill="#63b8ff" stroke="#63b8ff" points="200.82,-25.4 191.33,-20.69 195.81,-30.29 200.82,-25.4"/>
</a>
</g>
</g>
<!-- Node7 -->
<g id="Node000007" class="node">
<title>Node7</title>
<g id="a_Node000007"><a xlink:title=" ">
<polygon fill="#e0e0e0" stroke="#999999" points="348.62,-19.25 222.38,-19.25 222.38,0 348.62,0 348.62,-19.25"/>
<text text-anchor="middle" x="285.5" y="-5.75" font-family="Helvetica,sans-Serif" font-size="10.00">SFML/Graphics/Rect.hpp</text>
</a>
</g>
</g>
<!-- Node4&#45;&gt;Node7 -->
<g id="edge6_Node000004_Node000007" class="edge">
<title>Node4&#45;&gt;Node7</title>
<g id="a_edge6_Node000004_Node000007"><a xlink:title=" ">
<path fill="none" stroke="#63b8ff" d="M242.09,-55.08C249.34,-47.65 259.95,-36.79 268.87,-27.66"/>
<polygon fill="#63b8ff" stroke="#63b8ff" points="271.19,-30.29 275.67,-20.69 266.18,-25.4 271.19,-30.29"/>
</a>
</g>
</g>
<!-- Node8 -->
<g id="Node000008" class="node">
<title>Node8</title>
<g id="a_Node000008"><a xlink:title=" ">
<polygon fill="#e0e0e0" stroke="#999999" points="494.38,-19.25 366.62,-19.25 366.62,0 494.38,0 494.38,-19.25"/>
<text text-anchor="middle" x="430.5" y="-5.75" font-family="Helvetica,sans-Serif" font-size="10.00">SFML/Graphics/View.hpp</text>
</a>
</g>
</g>
<!-- Node4&#45;&gt;Node8 -->
<g id="edge7_Node000004_Node000008" class="edge">
<title>Node4&#45;&gt;Node8</title>
<g id="a_edge7_Node000004_Node000008"><a xlink:title=" ">
<path fill="none" stroke="#63b8ff" d="M266.92,-54.84C299.75,-45.97 350.04,-32.37 386.19,-22.6"/>
<polygon fill="#63b8ff" stroke="#63b8ff" points="386.72,-26.09 395.46,-20.1 384.89,-19.33 386.72,-26.09"/>
</a>
</g>
</g>
</g>
</svg>
