<?xml version="1.0" encoding="UTF-8" standalone="no"?>
<!DOCTYPE svg PUBLIC "-//W3C//DTD SVG 1.1//EN"
 "http://www.w3.org/Graphics/SVG/1.1/DTD/svg11.dtd">
<!-- Generated by graphviz version 12.2.1 (20241206.2353)
 -->
<!-- Title: /github/workspace/src/sgui/Render/ClippingLayers.h Pages: 1 -->
<svg width="583pt" height="327pt"
 viewBox="0.00 0.00 582.75 327.00" xmlns="http://www.w3.org/2000/svg" xmlns:xlink="http://www.w3.org/1999/xlink">
<g id="graph0" class="graph" transform="scale(1 1) rotate(0) translate(4 323)">
<title>/github/workspace/src/sgui/Render/ClippingLayers.h</title>
<!-- Node1 -->
<g id="Node000001" class="node">
<title>Node1</title>
<g id="a_Node000001"><a xlink:title=" ">
<polygon fill="#999999" stroke="#666666" points="309.25,-319 164.25,-319 164.25,-288.5 309.25,-288.5 309.25,-319"/>
<text text-anchor="start" x="172.25" y="-305.5" font-family="Helvetica,sans-Serif" font-size="10.00">/github/workspace/src</text>
<text text-anchor="middle" x="236.75" y="-294.25" font-family="Helvetica,sans-Serif" font-size="10.00">/sgui/Render/ClippingLayers.h</text>
</a>
</g>
</g>
<!-- Node2 -->
<g id="Node000002" class="node">
<title>Node2</title>
<g id="a_Node000002"><a xlink:href="_clipping_layers_8cpp.html" target="_top" xlink:title=" ">
<polygon fill="white" stroke="#666666" points="155.5,-246.88 0,-246.88 0,-216.38 155.5,-216.38 155.5,-246.88"/>
<text text-anchor="start" x="8" y="-233.38" font-family="Helvetica,sans-Serif" font-size="10.00">/github/workspace/src</text>
<text text-anchor="middle" x="77.75" y="-222.12" font-family="Helvetica,sans-Serif" font-size="10.00">/sgui/Render/ClippingLayers.cpp</text>
</a>
</g>
</g>
<!-- Node1&#45;&gt;Node2 -->
<g id="edge1_Node000001_Node000002" class="edge">
<title>Node1&#45;&gt;Node2</title>
<g id="a_edge1_Node000001_Node000002"><a xlink:title=" ">
<path fill="none" stroke="#63b8ff" d="M193.12,-283.51C167.21,-272.08 134.88,-257.82 111.04,-247.31"/>
<polygon fill="#63b8ff" stroke="#63b8ff" points="191.47,-286.61 202.03,-287.44 194.3,-280.2 191.47,-286.61"/>
</a>
</g>
</g>
<!-- Node3 -->
<g id="Node000003" class="node">
<title>Node3</title>
<g id="a_Node000003"><a xlink:href="_gui_render_8h.html" target="_top" xlink:title=" ">
<polygon fill="white" stroke="#666666" points="300.25,-246.88 173.25,-246.88 173.25,-216.38 300.25,-216.38 300.25,-246.88"/>
<text text-anchor="start" x="181.25" y="-233.38" font-family="Helvetica,sans-Serif" font-size="10.00">/github/workspace/src</text>
<text text-anchor="middle" x="236.75" y="-222.12" font-family="Helvetica,sans-Serif" font-size="10.00">/sgui/Render/GuiRender.h</text>
</a>
</g>
</g>
<!-- Node1&#45;&gt;Node3 -->
<g id="edge2_Node000001_Node000003" class="edge">
<title>Node1&#45;&gt;Node3</title>
<g id="a_edge2_Node000001_Node000003"><a xlink:title=" ">
<path fill="none" stroke="#63b8ff" d="M236.75,-276.77C236.75,-266.76 236.75,-255.69 236.75,-247.14"/>
<polygon fill="#63b8ff" stroke="#63b8ff" points="233.25,-276.71 236.75,-286.71 240.25,-276.71 233.25,-276.71"/>
</a>
</g>
</g>
<!-- Node8 -->
<g id="Node000008" class="node">
<title>Node8</title>
<g id="a_Node000008"><a xlink:href="_primitive_shape_render_8h.html" target="_top" xlink:title=" ">
<polygon fill="white" stroke="#666666" points="503.62,-252.5 363.88,-252.5 363.88,-210.75 503.62,-210.75 503.62,-252.5"/>
<text text-anchor="start" x="371.88" y="-239" font-family="Helvetica,sans-Serif" font-size="10.00">/github/workspace/src</text>
<text text-anchor="start" x="371.88" y="-227.75" font-family="Helvetica,sans-Serif" font-size="10.00">/sgui/Render/PrimitiveShape</text>
<text text-anchor="middle" x="433.75" y="-216.5" font-family="Helvetica,sans-Serif" font-size="10.00">Render.h</text>
</a>
</g>
</g>
<!-- Node1&#45;&gt;Node8 -->
<g id="edge7_Node000001_Node000008" class="edge">
<title>Node1&#45;&gt;Node8</title>
<g id="a_edge7_Node000001_Node000008"><a xlink:title=" ">
<path fill="none" stroke="#63b8ff" d="M288.86,-284.2C315.94,-274.56 349.07,-262.77 376.82,-252.89"/>
<polygon fill="#63b8ff" stroke="#63b8ff" points="287.72,-280.89 279.47,-287.54 290.07,-287.49 287.72,-280.89"/>
</a>
</g>
</g>
<!-- Node4 -->
<g id="Node000004" class="node">
<title>Node4</title>
<g id="a_Node000004"><a xlink:href="_gui_8h.html" target="_top" xlink:title=" ">
<polygon fill="white" stroke="#666666" points="398.75,-97 286.75,-97 286.75,-66.5 398.75,-66.5 398.75,-97"/>
<text text-anchor="start" x="294.75" y="-83.5" font-family="Helvetica,sans-Serif" font-size="10.00">/github/workspace/src</text>
<text text-anchor="middle" x="342.75" y="-72.25" font-family="Helvetica,sans-Serif" font-size="10.00">/sgui/Gui.h</text>
</a>
</g>
</g>
<!-- Node3&#45;&gt;Node4 -->
<g id="edge3_Node000003_Node000004" class="edge">
<title>Node3&#45;&gt;Node4</title>
<g id="a_edge3_Node000003_Node000004"><a xlink:title=" ">
<path fill="none" stroke="#63b8ff" d="M236.11,-204.61C236.84,-183.5 240.83,-153.92 255.75,-133 267.09,-117.1 285.17,-105.49 301.9,-97.47"/>
<polygon fill="#63b8ff" stroke="#63b8ff" points="232.61,-204.38 236.01,-214.41 239.61,-204.45 232.61,-204.38"/>
</a>
</g>
</g>
<!-- Node7 -->
<g id="Node000007" class="node">
<title>Node7</title>
<g id="a_Node000007"><a xlink:href="_gui_render_8cpp.html" target="_top" xlink:title=" ">
<polygon fill="white" stroke="#666666" points="208.5,-169.12 71,-169.12 71,-138.62 208.5,-138.62 208.5,-169.12"/>
<text text-anchor="start" x="79" y="-155.62" font-family="Helvetica,sans-Serif" font-size="10.00">/github/workspace/src</text>
<text text-anchor="middle" x="139.75" y="-144.38" font-family="Helvetica,sans-Serif" font-size="10.00">/sgui/Render/GuiRender.cpp</text>
</a>
</g>
</g>
<!-- Node3&#45;&gt;Node7 -->
<g id="edge6_Node000003_Node000007" class="edge">
<title>Node3&#45;&gt;Node7</title>
<g id="a_edge6_Node000003_Node000007"><a xlink:title=" ">
<path fill="none" stroke="#63b8ff" d="M209.01,-208.96C192.78,-196.29 172.74,-180.64 158.4,-169.44"/>
<polygon fill="#63b8ff" stroke="#63b8ff" points="206.82,-211.69 216.85,-215.09 211.13,-206.17 206.82,-211.69"/>
</a>
</g>
</g>
<!-- Node5 -->
<g id="Node000005" class="node">
<title>Node5</title>
<g id="a_Node000005"><a xlink:href="_gui_8cpp.html" target="_top" xlink:title=" ">
<polygon fill="white" stroke="#666666" points="398.75,-30.5 286.75,-30.5 286.75,0 398.75,0 398.75,-30.5"/>
<text text-anchor="start" x="294.75" y="-17" font-family="Helvetica,sans-Serif" font-size="10.00">/github/workspace/src</text>
<text text-anchor="middle" x="342.75" y="-5.75" font-family="Helvetica,sans-Serif" font-size="10.00">/sgui/Gui.cpp</text>
</a>
</g>
</g>
<!-- Node4&#45;&gt;Node5 -->
<g id="edge4_Node000004_Node000005" class="edge">
<title>Node4&#45;&gt;Node5</title>
<g id="a_edge4_Node000004_Node000005"><a xlink:title=" ">
<path fill="none" stroke="#63b8ff" d="M342.75,-54.81C342.75,-46.64 342.75,-37.91 342.75,-30.83"/>
<polygon fill="#63b8ff" stroke="#63b8ff" points="339.25,-54.6 342.75,-64.6 346.25,-54.6 339.25,-54.6"/>
</a>
</g>
</g>
<!-- Node6 -->
<g id="Node000006" class="node">
<title>Node6</title>
<g id="a_Node000006"><a xlink:href="sgui_8h.html" target="_top" xlink:title=" ">
<polygon fill="white" stroke="#666666" points="574.75,-30.5 462.75,-30.5 462.75,0 574.75,0 574.75,-30.5"/>
<text text-anchor="start" x="470.75" y="-17" font-family="Helvetica,sans-Serif" font-size="10.00">/github/workspace/src</text>
<text text-anchor="middle" x="518.75" y="-5.75" font-family="Helvetica,sans-Serif" font-size="10.00">/sgui/sgui.h</text>
</a>
</g>
</g>
<!-- Node4&#45;&gt;Node6 -->
<g id="edge5_Node000004_Node000006" class="edge">
<title>Node4&#45;&gt;Node6</title>
<g id="a_edge5_Node000004_Node000006"><a xlink:title=" ">
<path fill="none" stroke="#63b8ff" d="M393.15,-62.28C420.29,-52.33 453.3,-40.24 478.67,-30.94"/>
<polygon fill="#63b8ff" stroke="#63b8ff" points="392.29,-58.87 384.11,-65.59 394.7,-65.44 392.29,-58.87"/>
</a>
</g>
</g>
<!-- Node8&#45;&gt;Node6 -->
<g id="edge12_Node000008_Node000006" class="edge">
<title>Node8&#45;&gt;Node6</title>
<g id="a_edge12_Node000008_Node000006"><a xlink:title=" ">
<path fill="none" stroke="#63b8ff" d="M511.27,-204.85C524.12,-197.16 535.82,-187.31 543.75,-174.75 569.44,-134.06 557.49,-113.16 545.75,-66.5 542.51,-53.63 535.27,-40.47 529.09,-30.84"/>
<polygon fill="#63b8ff" stroke="#63b8ff" points="509.69,-201.73 502.59,-209.6 513.04,-207.87 509.69,-201.73"/>
</a>
</g>
</g>
<!-- Node9 -->
<g id="Node000009" class="node">
<title>Node9</title>
<g id="a_Node000009"><a xlink:href="_plotter_8h.html" target="_top" xlink:title=" ">
<polygon fill="white" stroke="#666666" points="534.75,-169.12 422.75,-169.12 422.75,-138.62 534.75,-138.62 534.75,-169.12"/>
<text text-anchor="start" x="430.75" y="-155.62" font-family="Helvetica,sans-Serif" font-size="10.00">/github/workspace/src</text>
<text text-anchor="middle" x="478.75" y="-144.38" font-family="Helvetica,sans-Serif" font-size="10.00">/sgui/Render/Plotter.h</text>
</a>
</g>
</g>
<!-- Node8&#45;&gt;Node9 -->
<g id="edge8_Node000008_Node000009" class="edge">
<title>Node8&#45;&gt;Node9</title>
<g id="a_edge8_Node000008_Node000009"><a xlink:title=" ">
<path fill="none" stroke="#63b8ff" d="M451.51,-200.73C457.95,-189.88 464.94,-178.12 470.22,-169.23"/>
<polygon fill="#63b8ff" stroke="#63b8ff" points="448.68,-198.64 446.58,-209.02 454.7,-202.21 448.68,-198.64"/>
</a>
</g>
</g>
<!-- Node11 -->
<g id="Node000011" class="node">
<title>Node11</title>
<g id="a_Node000011"><a xlink:href="_primitive_shape_render_8cpp.html" target="_top" xlink:title=" ">
<polygon fill="white" stroke="#666666" points="404.62,-174.75 264.88,-174.75 264.88,-133 404.62,-133 404.62,-174.75"/>
<text text-anchor="start" x="272.88" y="-161.25" font-family="Helvetica,sans-Serif" font-size="10.00">/github/workspace/src</text>
<text text-anchor="start" x="272.88" y="-150" font-family="Helvetica,sans-Serif" font-size="10.00">/sgui/Render/PrimitiveShape</text>
<text text-anchor="middle" x="334.75" y="-138.75" font-family="Helvetica,sans-Serif" font-size="10.00">Render.cpp</text>
</a>
</g>
</g>
<!-- Node8&#45;&gt;Node11 -->
<g id="edge11_Node000008_Node000011" class="edge">
<title>Node8&#45;&gt;Node11</title>
<g id="a_edge11_Node000008_Node000011"><a xlink:title=" ">
<path fill="none" stroke="#63b8ff" d="M398.22,-203.44C386.06,-194.14 372.68,-183.9 361.35,-175.23"/>
<polygon fill="#63b8ff" stroke="#63b8ff" points="395.95,-206.11 406.02,-209.41 400.2,-200.55 395.95,-206.11"/>
</a>
</g>
</g>
<!-- Node9&#45;&gt;Node4 -->
<g id="edge9_Node000009_Node000004" class="edge">
<title>Node9&#45;&gt;Node4</title>
<g id="a_edge9_Node000009_Node000004"><a xlink:title=" ">
<path fill="none" stroke="#63b8ff" d="M440.24,-133.02C418.29,-121.7 391.25,-107.76 371.22,-97.43"/>
<polygon fill="#63b8ff" stroke="#63b8ff" points="438.4,-136.01 448.89,-137.48 441.61,-129.79 438.4,-136.01"/>
</a>
</g>
</g>
<!-- Node10 -->
<g id="Node000010" class="node">
<title>Node10</title>
<g id="a_Node000010"><a xlink:href="_plotter_8cpp.html" target="_top" xlink:title=" ">
<polygon fill="white" stroke="#666666" points="536.88,-97 416.62,-97 416.62,-66.5 536.88,-66.5 536.88,-97"/>
<text text-anchor="start" x="424.62" y="-83.5" font-family="Helvetica,sans-Serif" font-size="10.00">/github/workspace/src</text>
<text text-anchor="middle" x="476.75" y="-72.25" font-family="Helvetica,sans-Serif" font-size="10.00">/sgui/Render/Plotter.cpp</text>
</a>
</g>
</g>
<!-- Node9&#45;&gt;Node10 -->
<g id="edge10_Node000009_Node000010" class="edge">
<title>Node9&#45;&gt;Node10</title>
<g id="a_edge10_Node000009_Node000010"><a xlink:title=" ">
<path fill="none" stroke="#63b8ff" d="M478.01,-126.9C477.72,-116.89 477.41,-105.81 477.16,-97.26"/>
<polygon fill="#63b8ff" stroke="#63b8ff" points="474.51,-126.94 478.29,-136.83 481.51,-126.74 474.51,-126.94"/>
</a>
</g>
</g>
</g>
</svg>
