<?xml version="1.0" encoding="UTF-8" standalone="no"?>
<!DOCTYPE svg PUBLIC "-//W3C//DTD SVG 1.1//EN"
 "http://www.w3.org/Graphics/SVG/1.1/DTD/svg11.dtd">
<!-- Generated by graphviz version 12.2.1 (20241206.2353)
 -->
<!-- Title: /github/workspace/src/sgui/Widgets/Constraints.h Pages: 1 -->
<svg width="651pt" height="394pt"
 viewBox="0.00 0.00 650.75 393.50" xmlns="http://www.w3.org/2000/svg" xmlns:xlink="http://www.w3.org/1999/xlink">
<g id="graph0" class="graph" transform="scale(1 1) rotate(0) translate(4 389.5)">
<title>/github/workspace/src/sgui/Widgets/Constraints.h</title>
<!-- Node1 -->
<g id="Node000001" class="node">
<title>Node1</title>
<g id="a_Node000001"><a xlink:title=" ">
<polygon fill="#999999" stroke="#666666" points="256.62,-385.5 121.38,-385.5 121.38,-355 256.62,-355 256.62,-385.5"/>
<text text-anchor="start" x="129.38" y="-372" font-family="Helvetica,sans-Serif" font-size="10.00">/github/workspace/src</text>
<text text-anchor="middle" x="189" y="-360.75" font-family="Helvetica,sans-Serif" font-size="10.00">/sgui/Widgets/Constraints.h</text>
</a>
</g>
</g>
<!-- Node2 -->
<g id="Node000002" class="node">
<title>Node2</title>
<g id="a_Node000002"><a xlink:href="_options_8h.html" target="_top" xlink:title=" ">
<polygon fill="white" stroke="#666666" points="248.75,-319 129.25,-319 129.25,-288.5 248.75,-288.5 248.75,-319"/>
<text text-anchor="start" x="137.25" y="-305.5" font-family="Helvetica,sans-Serif" font-size="10.00">/github/workspace/src</text>
<text text-anchor="middle" x="189" y="-294.25" font-family="Helvetica,sans-Serif" font-size="10.00">/sgui/Widgets/Options.h</text>
</a>
</g>
</g>
<!-- Node1&#45;&gt;Node2 -->
<g id="edge1_Node000001_Node000002" class="edge">
<title>Node1&#45;&gt;Node2</title>
<g id="a_edge1_Node000001_Node000002"><a xlink:title=" ">
<path fill="none" stroke="#63b8ff" d="M189,-343.31C189,-335.14 189,-326.41 189,-319.33"/>
<polygon fill="#63b8ff" stroke="#63b8ff" points="185.5,-343.1 189,-353.1 192.5,-343.1 185.5,-343.1"/>
</a>
</g>
</g>
<!-- Node3 -->
<g id="Node000003" class="node">
<title>Node3</title>
<g id="a_Node000003"><a xlink:href="_panel_8h.html" target="_top" xlink:title=" ">
<polygon fill="white" stroke="#666666" points="245,-252.5 133,-252.5 133,-222 245,-222 245,-252.5"/>
<text text-anchor="start" x="141" y="-239" font-family="Helvetica,sans-Serif" font-size="10.00">/github/workspace/src</text>
<text text-anchor="middle" x="189" y="-227.75" font-family="Helvetica,sans-Serif" font-size="10.00">/sgui/Widgets/Panel.h</text>
</a>
</g>
</g>
<!-- Node2&#45;&gt;Node3 -->
<g id="edge2_Node000002_Node000003" class="edge">
<title>Node2&#45;&gt;Node3</title>
<g id="a_edge2_Node000002_Node000003"><a xlink:title=" ">
<path fill="none" stroke="#63b8ff" d="M189,-276.81C189,-268.64 189,-259.91 189,-252.83"/>
<polygon fill="#63b8ff" stroke="#63b8ff" points="185.5,-276.6 189,-286.6 192.5,-276.6 185.5,-276.6"/>
</a>
</g>
</g>
<!-- Node4 -->
<g id="Node000004" class="node">
<title>Node4</title>
<g id="a_Node000004"><a xlink:href="_gui_8h.html" target="_top" xlink:title=" ">
<polygon fill="white" stroke="#666666" points="177,-186 65,-186 65,-155.5 177,-155.5 177,-186"/>
<text text-anchor="start" x="73" y="-172.5" font-family="Helvetica,sans-Serif" font-size="10.00">/github/workspace/src</text>
<text text-anchor="middle" x="121" y="-161.25" font-family="Helvetica,sans-Serif" font-size="10.00">/sgui/Gui.h</text>
</a>
</g>
</g>
<!-- Node3&#45;&gt;Node4 -->
<g id="edge3_Node000003_Node000004" class="edge">
<title>Node3&#45;&gt;Node4</title>
<g id="a_edge3_Node000003_Node000004"><a xlink:title=" ">
<path fill="none" stroke="#63b8ff" d="M165.51,-213.96C155.86,-204.82 144.97,-194.48 136.37,-186.33"/>
<polygon fill="#63b8ff" stroke="#63b8ff" points="162.81,-216.23 172.47,-220.57 167.62,-211.15 162.81,-216.23"/>
</a>
</g>
</g>
<!-- Node7 -->
<g id="Node000007" class="node">
<title>Node7</title>
<g id="a_Node000007"><a xlink:href="_layout_8h.html" target="_top" xlink:title=" ">
<polygon fill="white" stroke="#666666" points="321.12,-186 194.88,-186 194.88,-155.5 321.12,-155.5 321.12,-186"/>
<text text-anchor="start" x="202.88" y="-172.5" font-family="Helvetica,sans-Serif" font-size="10.00">/github/workspace/src</text>
<text text-anchor="middle" x="258" y="-161.25" font-family="Helvetica,sans-Serif" font-size="10.00">/sgui/Resources/Layout.h</text>
</a>
</g>
</g>
<!-- Node3&#45;&gt;Node7 -->
<g id="edge6_Node000003_Node000007" class="edge">
<title>Node3&#45;&gt;Node7</title>
<g id="a_edge6_Node000003_Node000007"><a xlink:title=" ">
<path fill="none" stroke="#63b8ff" d="M212.84,-213.96C222.63,-204.82 233.68,-194.48 242.4,-186.33"/>
<polygon fill="#63b8ff" stroke="#63b8ff" points="210.68,-211.19 205.76,-220.58 215.46,-216.31 210.68,-211.19"/>
</a>
</g>
</g>
<!-- Node5 -->
<g id="Node000005" class="node">
<title>Node5</title>
<g id="a_Node000005"><a xlink:href="_gui_8cpp.html" target="_top" xlink:title=" ">
<polygon fill="white" stroke="#666666" points="112,-113.88 0,-113.88 0,-83.38 112,-83.38 112,-113.88"/>
<text text-anchor="start" x="8" y="-100.38" font-family="Helvetica,sans-Serif" font-size="10.00">/github/workspace/src</text>
<text text-anchor="middle" x="56" y="-89.12" font-family="Helvetica,sans-Serif" font-size="10.00">/sgui/Gui.cpp</text>
</a>
</g>
</g>
<!-- Node4&#45;&gt;Node5 -->
<g id="edge4_Node000004_Node000005" class="edge">
<title>Node4&#45;&gt;Node5</title>
<g id="a_edge4_Node000004_Node000005"><a xlink:title=" ">
<path fill="none" stroke="#63b8ff" d="M99.94,-147.03C89.93,-136.23 78.25,-123.63 69.45,-114.14"/>
<polygon fill="#63b8ff" stroke="#63b8ff" points="97.14,-149.16 106.5,-154.11 102.27,-144.4 97.14,-149.16"/>
</a>
</g>
</g>
<!-- Node6 -->
<g id="Node000006" class="node">
<title>Node6</title>
<g id="a_Node000006"><a xlink:href="sgui_8h.html" target="_top" xlink:title=" ">
<polygon fill="white" stroke="#666666" points="242,-113.88 130,-113.88 130,-83.38 242,-83.38 242,-113.88"/>
<text text-anchor="start" x="138" y="-100.38" font-family="Helvetica,sans-Serif" font-size="10.00">/github/workspace/src</text>
<text text-anchor="middle" x="186" y="-89.12" font-family="Helvetica,sans-Serif" font-size="10.00">/sgui/sgui.h</text>
</a>
</g>
</g>
<!-- Node4&#45;&gt;Node6 -->
<g id="edge5_Node000004_Node000006" class="edge">
<title>Node4&#45;&gt;Node6</title>
<g id="a_edge5_Node000004_Node000006"><a xlink:title=" ">
<path fill="none" stroke="#63b8ff" d="M142.06,-147.03C152.07,-136.23 163.75,-123.63 172.55,-114.14"/>
<polygon fill="#63b8ff" stroke="#63b8ff" points="139.73,-144.4 135.5,-154.11 144.86,-149.16 139.73,-144.4"/>
</a>
</g>
</g>
<!-- Node7&#45;&gt;Node5 -->
<g id="edge7_Node000007_Node000005" class="edge">
<title>Node7&#45;&gt;Node5</title>
<g id="a_edge7_Node000007_Node000005"><a xlink:title=" ">
<path fill="none" stroke="#63b8ff" d="M205.18,-151.41C171.85,-139.84 129.39,-125.1 98.29,-114.31"/>
<polygon fill="#63b8ff" stroke="#63b8ff" points="203.63,-154.58 214.22,-154.55 205.93,-147.97 203.63,-154.58"/>
</a>
</g>
</g>
<!-- Node7&#45;&gt;Node6 -->
<g id="edge12_Node000007_Node000006" class="edge">
<title>Node7&#45;&gt;Node6</title>
<g id="a_edge12_Node000007_Node000006"><a xlink:title=" ">
<path fill="none" stroke="#63b8ff" d="M235,-147.35C223.84,-136.48 210.74,-123.72 200.9,-114.14"/>
<polygon fill="#63b8ff" stroke="#63b8ff" points="232.39,-149.69 242,-154.16 237.28,-144.68 232.39,-149.69"/>
</a>
</g>
</g>
<!-- Node8 -->
<g id="Node000008" class="node">
<title>Node8</title>
<g id="a_Node000008"><a xlink:href="_layout_8cpp.html" target="_top" xlink:title=" ">
<polygon fill="white" stroke="#666666" points="396.38,-113.88 259.62,-113.88 259.62,-83.38 396.38,-83.38 396.38,-113.88"/>
<text text-anchor="start" x="267.62" y="-100.38" font-family="Helvetica,sans-Serif" font-size="10.00">/github/workspace/src</text>
<text text-anchor="middle" x="328" y="-89.12" font-family="Helvetica,sans-Serif" font-size="10.00">/sgui/Resources/Layout.cpp</text>
</a>
</g>
</g>
<!-- Node7&#45;&gt;Node8 -->
<g id="edge8_Node000007_Node000008" class="edge">
<title>Node7&#45;&gt;Node8</title>
<g id="a_edge8_Node000007_Node000008"><a xlink:title=" ">
<path fill="none" stroke="#63b8ff" d="M280.36,-147.35C291.21,-136.48 303.95,-123.72 313.51,-114.14"/>
<polygon fill="#63b8ff" stroke="#63b8ff" points="278.16,-144.6 273.57,-154.15 283.12,-149.54 278.16,-144.6"/>
</a>
</g>
</g>
<!-- Node9 -->
<g id="Node000009" class="node">
<title>Node9</title>
<g id="a_Node000009"><a xlink:href="_serialize_g_u_i_8h.html" target="_top" xlink:title=" ">
<polygon fill="white" stroke="#666666" points="547.12,-119.5 414.88,-119.5 414.88,-77.75 547.12,-77.75 547.12,-119.5"/>
<text text-anchor="start" x="422.88" y="-106" font-family="Helvetica,sans-Serif" font-size="10.00">/github/workspace/src</text>
<text text-anchor="start" x="422.88" y="-94.75" font-family="Helvetica,sans-Serif" font-size="10.00">/sgui/Serialization/Serialize</text>
<text text-anchor="middle" x="481" y="-83.5" font-family="Helvetica,sans-Serif" font-size="10.00">GUI.h</text>
</a>
</g>
</g>
<!-- Node7&#45;&gt;Node9 -->
<g id="edge9_Node000007_Node000009" class="edge">
<title>Node7&#45;&gt;Node9</title>
<g id="a_edge9_Node000007_Node000009"><a xlink:title=" ">
<path fill="none" stroke="#63b8ff" d="M315.36,-151.71C346.3,-141.98 384.59,-129.94 416.55,-119.89"/>
<polygon fill="#63b8ff" stroke="#63b8ff" points="314.68,-148.26 306.19,-154.6 316.78,-154.93 314.68,-148.26"/>
</a>
</g>
</g>
<!-- Node10 -->
<g id="Node000010" class="node">
<title>Node10</title>
<g id="a_Node000010"><a xlink:href="_load_layout_8cpp.html" target="_top" xlink:title=" ">
<polygon fill="white" stroke="#666666" points="475.25,-36.12 310.75,-36.12 310.75,-5.62 475.25,-5.62 475.25,-36.12"/>
<text text-anchor="start" x="318.75" y="-22.62" font-family="Helvetica,sans-Serif" font-size="10.00">/github/workspace/src</text>
<text text-anchor="middle" x="393" y="-11.38" font-family="Helvetica,sans-Serif" font-size="10.00">/sgui/Serialization/LoadLayout.cpp</text>
</a>
</g>
</g>
<!-- Node9&#45;&gt;Node10 -->
<g id="edge10_Node000009_Node000010" class="edge">
<title>Node9&#45;&gt;Node10</title>
<g id="a_edge10_Node000009_Node000010"><a xlink:title=" ">
<path fill="none" stroke="#63b8ff" d="M449.01,-70.09C435.79,-58.71 421.01,-45.98 409.95,-36.46"/>
<polygon fill="#63b8ff" stroke="#63b8ff" points="446.41,-72.47 456.27,-76.34 450.97,-67.16 446.41,-72.47"/>
</a>
</g>
</g>
<!-- Node11 -->
<g id="Node000011" class="node">
<title>Node11</title>
<g id="a_Node000011"><a xlink:href="_load_texture_atlas_8cpp.html" target="_top" xlink:title=" ">
<polygon fill="white" stroke="#666666" points="642.75,-41.75 493.25,-41.75 493.25,0 642.75,0 642.75,-41.75"/>
<text text-anchor="start" x="501.25" y="-28.25" font-family="Helvetica,sans-Serif" font-size="10.00">/github/workspace/src</text>
<text text-anchor="start" x="501.25" y="-17" font-family="Helvetica,sans-Serif" font-size="10.00">/sgui/Serialization/LoadTexture</text>
<text text-anchor="middle" x="568" y="-5.75" font-family="Helvetica,sans-Serif" font-size="10.00">Atlas.cpp</text>
</a>
</g>
</g>
<!-- Node9&#45;&gt;Node11 -->
<g id="edge11_Node000009_Node000011" class="edge">
<title>Node9&#45;&gt;Node11</title>
<g id="a_edge11_Node000009_Node000011"><a xlink:title=" ">
<path fill="none" stroke="#63b8ff" d="M512.86,-69.89C523.37,-60.73 534.86,-50.73 544.62,-42.23"/>
<polygon fill="#63b8ff" stroke="#63b8ff" points="510.7,-67.13 505.46,-76.33 515.3,-72.4 510.7,-67.13"/>
</a>
</g>
</g>
</g>
</svg>
