<?xml version="1.0" encoding="UTF-8" standalone="no"?>
<!DOCTYPE svg PUBLIC "-//W3C//DTD SVG 1.1//EN"
 "http://www.w3.org/Graphics/SVG/1.1/DTD/svg11.dtd">
<!-- Generated by graphviz version 12.2.1 (20241206.2353)
 -->
<!-- Title: /github/workspace/src/sgui/Render/DrawOptions.h Pages: 1 -->
<svg width="419pt" height="149pt"
 viewBox="0.00 0.00 418.62 149.00" xmlns="http://www.w3.org/2000/svg" xmlns:xlink="http://www.w3.org/1999/xlink">
<g id="graph0" class="graph" transform="scale(1 1) rotate(0) translate(4 145)">
<title>/github/workspace/src/sgui/Render/DrawOptions.h</title>
<!-- Node1 -->
<g id="Node000001" class="node">
<title>Node1</title>
<g id="a_Node000001"><a xlink:title=" ">
<polygon fill="#999999" stroke="#666666" points="202,-141 64.5,-141 64.5,-110.5 202,-110.5 202,-141"/>
<text text-anchor="start" x="72.5" y="-127.5" font-family="Helvetica,sans-Serif" font-size="10.00">/github/workspace/src</text>
<text text-anchor="middle" x="133.25" y="-116.25" font-family="Helvetica,sans-Serif" font-size="10.00">/sgui/Render/DrawOptions.h</text>
</a>
</g>
</g>
<!-- Node2 -->
<g id="Node000002" class="node">
<title>Node2</title>
<g id="a_Node000002"><a xlink:title=" ">
<polygon fill="#e0e0e0" stroke="#999999" points="128.5,-74.5 0,-74.5 0,-55.25 128.5,-55.25 128.5,-74.5"/>
<text text-anchor="middle" x="64.25" y="-61" font-family="Helvetica,sans-Serif" font-size="10.00">SFML/Graphics/Color.hpp</text>
</a>
</g>
</g>
<!-- Node1&#45;&gt;Node2 -->
<g id="edge1_Node000001_Node000002" class="edge">
<title>Node1&#45;&gt;Node2</title>
<g id="a_edge1_Node000001_Node000002"><a xlink:title=" ">
<path fill="none" stroke="#63b8ff" d="M116.19,-110.2C106.29,-101.75 93.79,-91.08 83.54,-82.33"/>
<polygon fill="#63b8ff" stroke="#63b8ff" points="85.92,-79.76 76.04,-75.93 81.37,-85.09 85.92,-79.76"/>
</a>
</g>
</g>
<!-- Node3 -->
<g id="Node000003" class="node">
<title>Node3</title>
<g id="a_Node000003"><a xlink:href="_aspect_8h.html" target="_top" xlink:title=" ">
<polygon fill="white" stroke="#666666" points="260,-74.5 146.5,-74.5 146.5,-55.25 260,-55.25 260,-74.5"/>
<text text-anchor="middle" x="203.25" y="-61" font-family="Helvetica,sans-Serif" font-size="10.00">sgui/Widgets/Aspect.h</text>
</a>
</g>
</g>
<!-- Node1&#45;&gt;Node3 -->
<g id="edge2_Node000001_Node000003" class="edge">
<title>Node1&#45;&gt;Node3</title>
<g id="a_edge2_Node000001_Node000003"><a xlink:title=" ">
<path fill="none" stroke="#63b8ff" d="M150.55,-110.2C160.6,-101.75 173.28,-91.08 183.68,-82.33"/>
<polygon fill="#63b8ff" stroke="#63b8ff" points="185.9,-85.04 191.3,-75.93 181.39,-79.68 185.9,-85.04"/>
</a>
</g>
</g>
<!-- Node4 -->
<g id="Node000004" class="node">
<title>Node4</title>
<g id="a_Node000004"><a xlink:title=" ">
<polygon fill="#e0e0e0" stroke="#999999" points="126.25,-19.25 86.25,-19.25 86.25,0 126.25,0 126.25,-19.25"/>
<text text-anchor="middle" x="106.25" y="-5.75" font-family="Helvetica,sans-Serif" font-size="10.00">string</text>
</a>
</g>
</g>
<!-- Node3&#45;&gt;Node4 -->
<g id="edge3_Node000003_Node000004" class="edge">
<title>Node3&#45;&gt;Node4</title>
<g id="a_edge3_Node000003_Node000004"><a xlink:title=" ">
<path fill="none" stroke="#63b8ff" d="M186.8,-54.84C172.02,-46.73 150.07,-34.68 132.82,-25.21"/>
<polygon fill="#63b8ff" stroke="#63b8ff" points="134.56,-22.18 124.11,-20.43 131.19,-28.31 134.56,-22.18"/>
</a>
</g>
</g>
<!-- Node5 -->
<g id="Node000005" class="node">
<title>Node5</title>
<g id="a_Node000005"><a xlink:href="_widgets_8h.html" target="_top" xlink:title=" ">
<polygon fill="white" stroke="#666666" points="262.25,-19.25 144.25,-19.25 144.25,0 262.25,0 262.25,-19.25"/>
<text text-anchor="middle" x="203.25" y="-5.75" font-family="Helvetica,sans-Serif" font-size="10.00">sgui/Widgets/Widgets.h</text>
</a>
</g>
</g>
<!-- Node3&#45;&gt;Node5 -->
<g id="edge4_Node000003_Node000005" class="edge">
<title>Node3&#45;&gt;Node5</title>
<g id="a_edge4_Node000003_Node000005"><a xlink:title=" ">
<path fill="none" stroke="#63b8ff" d="M203.25,-55.08C203.25,-48.57 203.25,-39.42 203.25,-31.12"/>
<polygon fill="#63b8ff" stroke="#63b8ff" points="206.75,-31.12 203.25,-21.12 199.75,-31.12 206.75,-31.12"/>
</a>
</g>
</g>
<!-- Node6 -->
<g id="Node000006" class="node">
<title>Node6</title>
<g id="a_Node000006"><a xlink:href="_item_states_8h.html" target="_top" xlink:title=" ">
<polygon fill="white" stroke="#666666" points="410.62,-19.25 279.88,-19.25 279.88,0 410.62,0 410.62,-19.25"/>
<text text-anchor="middle" x="345.25" y="-5.75" font-family="Helvetica,sans-Serif" font-size="10.00">sgui/Widgets/ItemStates.h</text>
</a>
</g>
</g>
<!-- Node3&#45;&gt;Node6 -->
<g id="edge5_Node000003_Node000006" class="edge">
<title>Node3&#45;&gt;Node6</title>
<g id="a_edge5_Node000003_Node000006"><a xlink:title=" ">
<path fill="none" stroke="#63b8ff" d="M227.34,-54.84C250.19,-46.27 284.77,-33.31 310.58,-23.63"/>
<polygon fill="#63b8ff" stroke="#63b8ff" points="311.49,-27.02 319.63,-20.23 309.03,-20.47 311.49,-27.02"/>
</a>
</g>
</g>
</g>
</svg>
