<?xml version="1.0" encoding="UTF-8" standalone="no"?>
<!DOCTYPE svg PUBLIC "-//W3C//DTD SVG 1.1//EN"
 "http://www.w3.org/Graphics/SVG/1.1/DTD/svg11.dtd">
<!-- Generated by graphviz version 12.2.1 (20241206.2353)
 -->
<!-- Title: /github/workspace/src/sgui/Render/DrawOptions.h Pages: 1 -->
<svg width="365pt" height="149pt"
 viewBox="0.00 0.00 365.25 149.00" xmlns="http://www.w3.org/2000/svg" xmlns:xlink="http://www.w3.org/1999/xlink">
<g id="graph0" class="graph" transform="scale(1 1) rotate(0) translate(4 145)">
<title>/github/workspace/src/sgui/Render/DrawOptions.h</title>
<!-- Node1 -->
<g id="Node000001" class="node">
<title>Node1</title>
<g id="a_Node000001"><a xlink:title=" ">
<polygon fill="#999999" stroke="#666666" points="225,-141 87.5,-141 87.5,-110.5 225,-110.5 225,-141"/>
<text text-anchor="start" x="95.5" y="-127.5" font-family="Helvetica,sans-Serif" font-size="10.00">/github/workspace/src</text>
<text text-anchor="middle" x="156.25" y="-116.25" font-family="Helvetica,sans-Serif" font-size="10.00">/sgui/Render/DrawOptions.h</text>
</a>
</g>
</g>
<!-- Node2 -->
<g id="Node000002" class="node">
<title>Node2</title>
<g id="a_Node000002"><a xlink:title=" ">
<polygon fill="#e0e0e0" stroke="#999999" points="128.5,-74.5 0,-74.5 0,-55.25 128.5,-55.25 128.5,-74.5"/>
<text text-anchor="middle" x="64.25" y="-61" font-family="Helvetica,sans-Serif" font-size="10.00">SFML/Graphics/Color.hpp</text>
</a>
</g>
</g>
<!-- Node1&#45;&gt;Node2 -->
<g id="edge1_Node000001_Node000002" class="edge">
<title>Node1&#45;&gt;Node2</title>
<g id="a_edge1_Node000001_Node000002"><a xlink:title=" ">
<path fill="none" stroke="#63b8ff" d="M133.51,-110.2C119.64,-101.32 101.93,-89.99 87.9,-81.01"/>
<polygon fill="#63b8ff" stroke="#63b8ff" points="90.02,-78.21 79.71,-75.77 86.24,-84.11 90.02,-78.21"/>
</a>
</g>
</g>
<!-- Node3 -->
<g id="Node000003" class="node">
<title>Node3</title>
<g id="a_Node000003"><a xlink:href="_item_states_8h.html" target="_top" xlink:title=" ">
<polygon fill="white" stroke="#666666" points="221.62,-19.25 90.88,-19.25 90.88,0 221.62,0 221.62,-19.25"/>
<text text-anchor="middle" x="156.25" y="-5.75" font-family="Helvetica,sans-Serif" font-size="10.00">sgui/Widgets/ItemStates.h</text>
</a>
</g>
</g>
<!-- Node1&#45;&gt;Node3 -->
<g id="edge2_Node000001_Node000003" class="edge">
<title>Node1&#45;&gt;Node3</title>
<g id="a_edge2_Node000001_Node000003"><a xlink:title=" ">
<path fill="none" stroke="#63b8ff" d="M156.25,-110.3C156.25,-90.25 156.25,-53.9 156.25,-31.07"/>
<polygon fill="#63b8ff" stroke="#63b8ff" points="159.75,-31.21 156.25,-21.21 152.75,-31.21 159.75,-31.21"/>
</a>
</g>
</g>
<!-- Node4 -->
<g id="Node000004" class="node">
<title>Node4</title>
<g id="a_Node000004"><a xlink:href="_aspect_8h.html" target="_top" xlink:title=" ">
<polygon fill="white" stroke="#666666" points="298,-74.5 184.5,-74.5 184.5,-55.25 298,-55.25 298,-74.5"/>
<text text-anchor="middle" x="241.25" y="-61" font-family="Helvetica,sans-Serif" font-size="10.00">sgui/Widgets/Aspect.h</text>
</a>
</g>
</g>
<!-- Node1&#45;&gt;Node4 -->
<g id="edge3_Node000001_Node000004" class="edge">
<title>Node1&#45;&gt;Node4</title>
<g id="a_edge3_Node000001_Node000004"><a xlink:title=" ">
<path fill="none" stroke="#63b8ff" d="M177.26,-110.2C189.95,-101.4 206.12,-90.21 219.02,-81.27"/>
<polygon fill="#63b8ff" stroke="#63b8ff" points="220.67,-84.38 226.9,-75.81 216.69,-78.63 220.67,-84.38"/>
</a>
</g>
</g>
<!-- Node4&#45;&gt;Node3 -->
<g id="edge5_Node000004_Node000003" class="edge">
<title>Node4&#45;&gt;Node3</title>
<g id="a_edge5_Node000004_Node000003"><a xlink:title=" ">
<path fill="none" stroke="#63b8ff" d="M226.83,-54.84C214.13,-46.89 195.38,-35.14 180.39,-25.75"/>
<polygon fill="#63b8ff" stroke="#63b8ff" points="182.35,-22.85 172.02,-20.51 178.64,-28.78 182.35,-22.85"/>
</a>
</g>
</g>
<!-- Node5 -->
<g id="Node000005" class="node">
<title>Node5</title>
<g id="a_Node000005"><a xlink:href="_widgets_8h.html" target="_top" xlink:title=" ">
<polygon fill="white" stroke="#666666" points="357.25,-19.25 239.25,-19.25 239.25,0 357.25,0 357.25,-19.25"/>
<text text-anchor="middle" x="298.25" y="-5.75" font-family="Helvetica,sans-Serif" font-size="10.00">sgui/Widgets/Widgets.h</text>
</a>
</g>
</g>
<!-- Node4&#45;&gt;Node5 -->
<g id="edge4_Node000004_Node000005" class="edge">
<title>Node4&#45;&gt;Node5</title>
<g id="a_edge4_Node000004_Node000005"><a xlink:title=" ">
<path fill="none" stroke="#63b8ff" d="M250.92,-54.84C258.99,-47.3 270.72,-36.35 280.47,-27.23"/>
<polygon fill="#63b8ff" stroke="#63b8ff" points="282.7,-29.94 287.62,-20.56 277.92,-24.83 282.7,-29.94"/>
</a>
</g>
</g>
</g>
</svg>
