<?xml version="1.0" encoding="UTF-8" standalone="no"?>
<!DOCTYPE svg PUBLIC "-//W3C//DTD SVG 1.1//EN"
 "http://www.w3.org/Graphics/SVG/1.1/DTD/svg11.dtd">
<!-- Generated by graphviz version 12.2.1 (20241206.2353)
 -->
<!-- Title: /github/workspace/src/sgui/Render/DrawOptions.h Pages: 1 -->
<svg width="417pt" height="94pt"
 viewBox="0.00 0.00 416.75 93.75" xmlns="http://www.w3.org/2000/svg" xmlns:xlink="http://www.w3.org/1999/xlink">
<g id="graph0" class="graph" transform="scale(1 1) rotate(0) translate(4 89.75)">
<title>/github/workspace/src/sgui/Render/DrawOptions.h</title>
<!-- Node1 -->
<g id="Node000001" class="node">
<title>Node1</title>
<g id="a_Node000001"><a xlink:title=" ">
<polygon fill="#999999" stroke="#666666" points="270.12,-85.75 132.62,-85.75 132.62,-55.25 270.12,-55.25 270.12,-85.75"/>
<text text-anchor="start" x="140.62" y="-72.25" font-family="Helvetica,sans-Serif" font-size="10.00">/github/workspace/src</text>
<text text-anchor="middle" x="201.38" y="-61" font-family="Helvetica,sans-Serif" font-size="10.00">/sgui/Render/DrawOptions.h</text>
</a>
</g>
</g>
<!-- Node2 -->
<g id="Node000002" class="node">
<title>Node2</title>
<g id="a_Node000002"><a xlink:title=" ">
<polygon fill="#e0e0e0" stroke="#999999" points="124.75,-19.25 0,-19.25 0,0 124.75,0 124.75,-19.25"/>
<text text-anchor="middle" x="62.38" y="-5.75" font-family="Helvetica,sans-Serif" font-size="10.00">SFML/Graphics/Text.hpp</text>
</a>
</g>
</g>
<!-- Node1&#45;&gt;Node2 -->
<g id="edge1_Node000001_Node000002" class="edge">
<title>Node1&#45;&gt;Node2</title>
<g id="a_edge1_Node000001_Node000002"><a xlink:title=" ">
<path fill="none" stroke="#63b8ff" d="M166.66,-54.8C144.37,-45.35 115.65,-33.19 94,-24.02"/>
<polygon fill="#63b8ff" stroke="#63b8ff" points="95.66,-20.92 85.09,-20.24 92.93,-27.37 95.66,-20.92"/>
</a>
</g>
</g>
<!-- Node3 -->
<g id="Node000003" class="node">
<title>Node3</title>
<g id="a_Node000003"><a xlink:href="_widgets_8h.html" target="_top" xlink:title=" ">
<polygon fill="white" stroke="#666666" points="260.38,-19.25 142.38,-19.25 142.38,0 260.38,0 260.38,-19.25"/>
<text text-anchor="middle" x="201.38" y="-5.75" font-family="Helvetica,sans-Serif" font-size="10.00">sgui/Widgets/Widgets.h</text>
</a>
</g>
</g>
<!-- Node1&#45;&gt;Node3 -->
<g id="edge2_Node000001_Node000003" class="edge">
<title>Node1&#45;&gt;Node3</title>
<g id="a_edge2_Node000001_Node000003"><a xlink:title=" ">
<path fill="none" stroke="#63b8ff" d="M201.38,-54.95C201.38,-47.71 201.38,-38.84 201.38,-30.94"/>
<polygon fill="#63b8ff" stroke="#63b8ff" points="204.88,-31.21 201.38,-21.21 197.88,-31.21 204.88,-31.21"/>
</a>
</g>
</g>
<!-- Node4 -->
<g id="Node000004" class="node">
<title>Node4</title>
<g id="a_Node000004"><a xlink:href="_item_states_8h.html" target="_top" xlink:title=" ">
<polygon fill="white" stroke="#666666" points="408.75,-19.25 278,-19.25 278,0 408.75,0 408.75,-19.25"/>
<text text-anchor="middle" x="343.38" y="-5.75" font-family="Helvetica,sans-Serif" font-size="10.00">sgui/Widgets/ItemStates.h</text>
</a>
</g>
</g>
<!-- Node1&#45;&gt;Node4 -->
<g id="edge3_Node000001_Node000004" class="edge">
<title>Node1&#45;&gt;Node4</title>
<g id="a_edge3_Node000001_Node000004"><a xlink:title=" ">
<path fill="none" stroke="#63b8ff" d="M236.84,-54.8C259.61,-45.35 288.95,-33.19 311.07,-24.02"/>
<polygon fill="#63b8ff" stroke="#63b8ff" points="312.3,-27.3 320.2,-20.23 309.62,-20.83 312.3,-27.3"/>
</a>
</g>
</g>
</g>
</svg>
