<?xml version="1.0" encoding="UTF-8" standalone="no"?>
<!DOCTYPE svg PUBLIC "-//W3C//DTD SVG 1.1//EN"
 "http://www.w3.org/Graphics/SVG/1.1/DTD/svg11.dtd">
<!-- Generated by graphviz version 12.2.1 (20241206.2353)
 -->
<!-- Title: /github/workspace/src/sgui/Render/GuiRender.h Pages: 1 -->
<svg width="1938pt" height="204pt"
 viewBox="0.00 0.00 1937.69 204.25" xmlns="http://www.w3.org/2000/svg" xmlns:xlink="http://www.w3.org/1999/xlink">
<g id="graph0" class="graph" transform="scale(1 1) rotate(0) translate(4 200.25)">
<title>/github/workspace/src/sgui/Render/GuiRender.h</title>
<!-- Node1 -->
<g id="Node000001" class="node">
<title>Node1</title>
<g id="a_Node000001"><a xlink:title=" ">
<polygon fill="#999999" stroke="#666666" points="1020.07,-196.25 893.07,-196.25 893.07,-165.75 1020.07,-165.75 1020.07,-196.25"/>
<text text-anchor="start" x="901.07" y="-182.75" font-family="Helvetica,sans-Serif" font-size="10.00">/github/workspace/src</text>
<text text-anchor="middle" x="956.57" y="-171.5" font-family="Helvetica,sans-Serif" font-size="10.00">/sgui/Render/GuiRender.h</text>
</a>
</g>
</g>
<!-- Node2 -->
<g id="Node000002" class="node">
<title>Node2</title>
<g id="a_Node000002"><a xlink:title=" ">
<polygon fill="#e0e0e0" stroke="#999999" points="210.07,-74.5 167.07,-74.5 167.07,-55.25 210.07,-55.25 210.07,-74.5"/>
<text text-anchor="middle" x="188.57" y="-61" font-family="Helvetica,sans-Serif" font-size="10.00">vector</text>
</a>
</g>
</g>
<!-- Node1&#45;&gt;Node2 -->
<g id="edge1_Node000001_Node000002" class="edge">
<title>Node1&#45;&gt;Node2</title>
<g id="a_edge1_Node000001_Node000002"><a xlink:title=" ">
<path fill="none" stroke="#63b8ff" d="M892.66,-178.76C726.17,-175.07 288.04,-162.37 231.57,-129.75 214.41,-119.84 202.7,-99.99 195.89,-85.04"/>
<polygon fill="#63b8ff" stroke="#63b8ff" points="199.28,-84.08 192.21,-76.2 192.82,-86.78 199.28,-84.08"/>
</a>
</g>
</g>
<!-- Node3 -->
<g id="Node000003" class="node">
<title>Node3</title>
<g id="a_Node000003"><a xlink:title=" ">
<polygon fill="#e0e0e0" stroke="#999999" points="1262.32,-129.75 1136.82,-129.75 1136.82,-110.5 1262.32,-110.5 1262.32,-129.75"/>
<text text-anchor="middle" x="1199.57" y="-116.25" font-family="Helvetica,sans-Serif" font-size="10.00">SFML/Graphics/Font.hpp</text>
</a>
</g>
</g>
<!-- Node1&#45;&gt;Node3 -->
<g id="edge2_Node000001_Node000003" class="edge">
<title>Node1&#45;&gt;Node3</title>
<g id="a_edge2_Node000001_Node000003"><a xlink:title=" ">
<path fill="none" stroke="#63b8ff" d="M1017.26,-165.3C1058.59,-155.28 1112.56,-142.21 1151.03,-132.88"/>
<polygon fill="#63b8ff" stroke="#63b8ff" points="1151.58,-136.35 1160.47,-130.6 1149.93,-129.55 1151.58,-136.35"/>
</a>
</g>
</g>
<!-- Node4 -->
<g id="Node000004" class="node">
<title>Node4</title>
<g id="a_Node000004"><a xlink:title=" ">
<polygon fill="#e0e0e0" stroke="#999999" points="1104.44,-74.5 976.69,-74.5 976.69,-55.25 1104.44,-55.25 1104.44,-74.5"/>
<text text-anchor="middle" x="1040.57" y="-61" font-family="Helvetica,sans-Serif" font-size="10.00">SFML/Graphics/View.hpp</text>
</a>
</g>
</g>
<!-- Node1&#45;&gt;Node4 -->
<g id="edge3_Node000001_Node000004" class="edge">
<title>Node1&#45;&gt;Node4</title>
<g id="a_edge3_Node000001_Node000004"><a xlink:title=" ">
<path fill="none" stroke="#63b8ff" d="M957.62,-165.45C959.34,-150.46 963.83,-127.02 975.57,-110.5 984.43,-98.04 997.93,-87.95 1010.34,-80.54"/>
<polygon fill="#63b8ff" stroke="#63b8ff" points="1012.02,-83.61 1019.06,-75.69 1008.62,-77.5 1012.02,-83.61"/>
</a>
</g>
</g>
<!-- Node5 -->
<g id="Node000005" class="node">
<title>Node5</title>
<g id="a_Node000005"><a xlink:title=" ">
<polygon fill="#e0e0e0" stroke="#999999" points="1404.94,-129.75 1280.19,-129.75 1280.19,-110.5 1404.94,-110.5 1404.94,-129.75"/>
<text text-anchor="middle" x="1342.57" y="-116.25" font-family="Helvetica,sans-Serif" font-size="10.00">SFML/Graphics/Text.hpp</text>
</a>
</g>
</g>
<!-- Node1&#45;&gt;Node5 -->
<g id="edge4_Node000001_Node000005" class="edge">
<title>Node1&#45;&gt;Node5</title>
<g id="a_edge4_Node000001_Node000005"><a xlink:title=" ">
<path fill="none" stroke="#63b8ff" d="M1020.31,-170.28C1089.52,-159.72 1199.77,-142.91 1271.66,-131.94"/>
<polygon fill="#63b8ff" stroke="#63b8ff" points="1272.01,-135.43 1281.36,-130.46 1270.95,-128.51 1272.01,-135.43"/>
</a>
</g>
</g>
<!-- Node6 -->
<g id="Node000006" class="node">
<title>Node6</title>
<g id="a_Node000006"><a xlink:title=" ">
<polygon fill="#e0e0e0" stroke="#999999" points="1569.82,-129.75 1423.32,-129.75 1423.32,-110.5 1569.82,-110.5 1569.82,-129.75"/>
<text text-anchor="middle" x="1496.57" y="-116.25" font-family="Helvetica,sans-Serif" font-size="10.00">SFML/Graphics/Drawable.hpp</text>
</a>
</g>
</g>
<!-- Node1&#45;&gt;Node6 -->
<g id="edge5_Node000001_Node000006" class="edge">
<title>Node1&#45;&gt;Node6</title>
<g id="a_edge5_Node000001_Node000006"><a xlink:title=" ">
<path fill="none" stroke="#63b8ff" d="M1020.37,-173.04C1117.67,-162.43 1303.28,-142.2 1411.8,-130.37"/>
<polygon fill="#63b8ff" stroke="#63b8ff" points="1411.96,-133.87 1421.52,-129.31 1411.2,-126.91 1411.96,-133.87"/>
</a>
</g>
</g>
<!-- Node7 -->
<g id="Node000007" class="node">
<title>Node7</title>
<g id="a_Node000007"><a xlink:title=" ">
<polygon fill="#e0e0e0" stroke="#999999" points="1743.69,-129.75 1587.44,-129.75 1587.44,-110.5 1743.69,-110.5 1743.69,-129.75"/>
<text text-anchor="middle" x="1665.57" y="-116.25" font-family="Helvetica,sans-Serif" font-size="10.00">SFML/Graphics/VertexArray.hpp</text>
</a>
</g>
</g>
<!-- Node1&#45;&gt;Node7 -->
<g id="edge6_Node000001_Node000007" class="edge">
<title>Node1&#45;&gt;Node7</title>
<g id="a_edge6_Node000001_Node000007"><a xlink:title=" ">
<path fill="none" stroke="#63b8ff" d="M1020.17,-175.25C1130.81,-166.89 1366.17,-148.75 1576.08,-129.96"/>
<polygon fill="#63b8ff" stroke="#63b8ff" points="1576.16,-133.47 1585.81,-129.09 1575.54,-126.49 1576.16,-133.47"/>
</a>
</g>
</g>
<!-- Node8 -->
<g id="Node000008" class="node">
<title>Node8</title>
<g id="a_Node000008"><a xlink:title=" ">
<polygon fill="#e0e0e0" stroke="#999999" points="1929.69,-129.75 1761.44,-129.75 1761.44,-110.5 1929.69,-110.5 1929.69,-129.75"/>
<text text-anchor="middle" x="1845.57" y="-116.25" font-family="Helvetica,sans-Serif" font-size="10.00">SFML/Graphics/Transformable.hpp</text>
</a>
</g>
</g>
<!-- Node1&#45;&gt;Node8 -->
<g id="edge7_Node000001_Node000008" class="edge">
<title>Node1&#45;&gt;Node8</title>
<g id="a_edge7_Node000001_Node000008"><a xlink:title=" ">
<path fill="none" stroke="#63b8ff" d="M1020.33,-176.61C1153.64,-169.39 1471.9,-151.44 1750.29,-129.9"/>
<polygon fill="#63b8ff" stroke="#63b8ff" points="1750.22,-133.42 1759.92,-129.16 1749.68,-126.44 1750.22,-133.42"/>
</a>
</g>
</g>
<!-- Node9 -->
<g id="Node000009" class="node">
<title>Node9</title>
<g id="a_Node000009"><a xlink:href="_shapes_8h.html" target="_top" xlink:title=" ">
<polygon fill="white" stroke="#666666" points="503.94,-129.75 403.19,-129.75 403.19,-110.5 503.94,-110.5 503.94,-129.75"/>
<text text-anchor="middle" x="453.57" y="-116.25" font-family="Helvetica,sans-Serif" font-size="10.00">sgui/Core/Shapes.h</text>
</a>
</g>
</g>
<!-- Node1&#45;&gt;Node9 -->
<g id="edge8_Node000001_Node000009" class="edge">
<title>Node1&#45;&gt;Node9</title>
<g id="a_edge8_Node000001_Node000009"><a xlink:title=" ">
<path fill="none" stroke="#63b8ff" d="M892.61,-172.51C795.35,-161.13 611.47,-139.61 515.46,-128.37"/>
<polygon fill="#63b8ff" stroke="#63b8ff" points="516.04,-124.91 505.7,-127.23 515.22,-131.87 516.04,-124.91"/>
</a>
</g>
</g>
<!-- Node13 -->
<g id="Node000013" class="node">
<title>Node13</title>
<g id="a_Node000013"><a xlink:href="_draw_options_8h.html" target="_top" xlink:title=" ">
<polygon fill="white" stroke="#666666" points="1118.82,-129.75 984.32,-129.75 984.32,-110.5 1118.82,-110.5 1118.82,-129.75"/>
<text text-anchor="middle" x="1051.57" y="-116.25" font-family="Helvetica,sans-Serif" font-size="10.00">sgui/Render/DrawOptions.h</text>
</a>
</g>
</g>
<!-- Node1&#45;&gt;Node13 -->
<g id="edge13_Node000001_Node000013" class="edge">
<title>Node1&#45;&gt;Node13</title>
<g id="a_edge13_Node000001_Node000013"><a xlink:title=" ">
<path fill="none" stroke="#63b8ff" d="M980.05,-165.45C994.38,-156.57 1012.66,-145.24 1027.15,-136.26"/>
<polygon fill="#63b8ff" stroke="#63b8ff" points="1028.98,-139.24 1035.64,-131 1025.29,-133.29 1028.98,-139.24"/>
</a>
</g>
</g>
<!-- Node19 -->
<g id="Node000019" class="node">
<title>Node19</title>
<g id="a_Node000019"><a xlink:href="_texture_meshes_8h.html" target="_top" xlink:title=" ">
<polygon fill="white" stroke="#666666" points="183.07,-129.75 38.07,-129.75 38.07,-110.5 183.07,-110.5 183.07,-129.75"/>
<text text-anchor="middle" x="110.57" y="-116.25" font-family="Helvetica,sans-Serif" font-size="10.00">sgui/Render/TextureMeshes.h</text>
</a>
</g>
</g>
<!-- Node1&#45;&gt;Node19 -->
<g id="edge19_Node000001_Node000019" class="edge">
<title>Node1&#45;&gt;Node19</title>
<g id="a_edge19_Node000001_Node000019"><a xlink:title=" ">
<path fill="none" stroke="#63b8ff" d="M892.79,-176.48C762.22,-169.13 455.03,-151.03 197.57,-129.75 196.54,-129.67 195.51,-129.58 194.47,-129.49"/>
<polygon fill="#63b8ff" stroke="#63b8ff" points="194.96,-126.02 184.69,-128.64 194.35,-132.99 194.96,-126.02"/>
</a>
</g>
</g>
<!-- Node22 -->
<g id="Node000022" class="node">
<title>Node22</title>
<g id="a_Node000022"><a xlink:href="_mesh_functions_8h.html" target="_top" xlink:title=" ">
<polygon fill="white" stroke="#666666" points="385.07,-129.75 240.07,-129.75 240.07,-110.5 385.07,-110.5 385.07,-129.75"/>
<text text-anchor="middle" x="312.57" y="-116.25" font-family="Helvetica,sans-Serif" font-size="10.00">sgui/Render/MeshFunctions.h</text>
</a>
</g>
</g>
<!-- Node1&#45;&gt;Node22 -->
<g id="edge24_Node000001_Node000022" class="edge">
<title>Node1&#45;&gt;Node22</title>
<g id="a_edge24_Node000001_Node000022"><a xlink:title=" ">
<path fill="none" stroke="#63b8ff" d="M892.9,-174.63C790.77,-165.95 583.69,-148.06 396.86,-129.96"/>
<polygon fill="#63b8ff" stroke="#63b8ff" points="397.24,-126.48 386.94,-129 396.56,-133.45 397.24,-126.48"/>
</a>
</g>
</g>
<!-- Node24 -->
<g id="Node000024" class="node">
<title>Node24</title>
<g id="a_Node000024"><a xlink:href="_clipping_layers_8h.html" target="_top" xlink:title=" ">
<polygon fill="white" stroke="#666666" points="762.57,-129.75 620.57,-129.75 620.57,-110.5 762.57,-110.5 762.57,-129.75"/>
<text text-anchor="middle" x="691.57" y="-116.25" font-family="Helvetica,sans-Serif" font-size="10.00">sgui/Render/ClippingLayers.h</text>
</a>
</g>
</g>
<!-- Node1&#45;&gt;Node24 -->
<g id="edge28_Node000001_Node000024" class="edge">
<title>Node1&#45;&gt;Node24</title>
<g id="a_edge28_Node000001_Node000024"><a xlink:title=" ">
<path fill="none" stroke="#63b8ff" d="M892.76,-165.82C847.06,-155.67 786.31,-142.17 743.56,-132.68"/>
<polygon fill="#63b8ff" stroke="#63b8ff" points="744.56,-129.31 734.03,-130.56 743.04,-136.15 744.56,-129.31"/>
</a>
</g>
</g>
<!-- Node26 -->
<g id="Node000026" class="node">
<title>Node26</title>
<g id="a_Node000026"><a xlink:href="_texture_atlas_8h.html" target="_top" xlink:title=" ">
<polygon fill="white" stroke="#666666" points="928.94,-129.75 780.19,-129.75 780.19,-110.5 928.94,-110.5 928.94,-129.75"/>
<text text-anchor="middle" x="854.57" y="-116.25" font-family="Helvetica,sans-Serif" font-size="10.00">sgui/Resources/TextureAtlas.h</text>
</a>
</g>
</g>
<!-- Node1&#45;&gt;Node26 -->
<g id="edge33_Node000001_Node000026" class="edge">
<title>Node1&#45;&gt;Node26</title>
<g id="a_edge33_Node000001_Node000026"><a xlink:title=" ">
<path fill="none" stroke="#63b8ff" d="M931.09,-165.3C915.41,-156.24 895.39,-144.69 879.76,-135.66"/>
<polygon fill="#63b8ff" stroke="#63b8ff" points="881.93,-132.88 871.52,-130.91 878.43,-138.94 881.93,-132.88"/>
</a>
</g>
</g>
<!-- Node9&#45;&gt;Node2 -->
<g id="edge10_Node000009_Node000002" class="edge">
<title>Node9&#45;&gt;Node2</title>
<g id="a_edge10_Node000009_Node000002"><a xlink:title=" ">
<path fill="none" stroke="#63b8ff" d="M403.1,-110.75C357.95,-102.97 289.75,-90.55 221.48,-74.78"/>
<polygon fill="#63b8ff" stroke="#63b8ff" points="222.53,-71.44 212,-72.57 220.94,-78.25 222.53,-71.44"/>
</a>
</g>
</g>
<!-- Node10 -->
<g id="Node000010" class="node">
<title>Node10</title>
<g id="a_Node000010"><a xlink:title=" ">
<polygon fill="#e0e0e0" stroke="#999999" points="265.07,-74.5 228.07,-74.5 228.07,-55.25 265.07,-55.25 265.07,-74.5"/>
<text text-anchor="middle" x="246.57" y="-61" font-family="Helvetica,sans-Serif" font-size="10.00">array</text>
</a>
</g>
</g>
<!-- Node9&#45;&gt;Node10 -->
<g id="edge9_Node000009_Node000010" class="edge">
<title>Node9&#45;&gt;Node10</title>
<g id="a_edge9_Node000009_Node000010"><a xlink:title=" ">
<path fill="none" stroke="#63b8ff" d="M414.65,-110.07C380.62,-102.01 329.65,-89.59 276.51,-74.92"/>
<polygon fill="#63b8ff" stroke="#63b8ff" points="277.53,-71.58 266.96,-72.27 275.66,-78.32 277.53,-71.58"/>
</a>
</g>
</g>
<!-- Node11 -->
<g id="Node000011" class="node">
<title>Node11</title>
<g id="a_Node000011"><a xlink:title=" ">
<polygon fill="#e0e0e0" stroke="#999999" points="543.44,-74.5 409.69,-74.5 409.69,-55.25 543.44,-55.25 543.44,-74.5"/>
<text text-anchor="middle" x="476.57" y="-61" font-family="Helvetica,sans-Serif" font-size="10.00">SFML/System/Vector2.hpp</text>
</a>
</g>
</g>
<!-- Node9&#45;&gt;Node11 -->
<g id="edge11_Node000009_Node000011" class="edge">
<title>Node9&#45;&gt;Node11</title>
<g id="a_edge11_Node000009_Node000011"><a xlink:title=" ">
<path fill="none" stroke="#63b8ff" d="M457.36,-110.33C460.31,-103.51 464.5,-93.81 468.22,-85.2"/>
<polygon fill="#63b8ff" stroke="#63b8ff" points="471.33,-86.82 472.09,-76.25 464.91,-84.04 471.33,-86.82"/>
</a>
</g>
</g>
<!-- Node12 -->
<g id="Node000012" class="node">
<title>Node12</title>
<g id="a_Node000012"><a xlink:href="_shapes_8tpp.html" target="_top" xlink:title=" ">
<polygon fill="white" stroke="#666666" points="392.07,-74.5 283.07,-74.5 283.07,-55.25 392.07,-55.25 392.07,-74.5"/>
<text text-anchor="middle" x="337.57" y="-61" font-family="Helvetica,sans-Serif" font-size="10.00">sgui/Core/Shapes.tpp</text>
</a>
</g>
</g>
<!-- Node9&#45;&gt;Node12 -->
<g id="edge12_Node000009_Node000012" class="edge">
<title>Node9&#45;&gt;Node12</title>
<g id="a_edge12_Node000009_Node000012"><a xlink:title=" ">
<path fill="none" stroke="#63b8ff" d="M433.89,-110.09C415.72,-101.75 388.48,-89.25 367.6,-79.66"/>
<polygon fill="#63b8ff" stroke="#63b8ff" points="369.27,-76.58 358.72,-75.58 366.34,-82.94 369.27,-76.58"/>
</a>
</g>
</g>
<!-- Node14 -->
<g id="Node000014" class="node">
<title>Node14</title>
<g id="a_Node000014"><a xlink:title=" ">
<polygon fill="#e0e0e0" stroke="#999999" points="1250.82,-74.5 1122.32,-74.5 1122.32,-55.25 1250.82,-55.25 1250.82,-74.5"/>
<text text-anchor="middle" x="1186.57" y="-61" font-family="Helvetica,sans-Serif" font-size="10.00">SFML/Graphics/Color.hpp</text>
</a>
</g>
</g>
<!-- Node13&#45;&gt;Node14 -->
<g id="edge14_Node000013_Node000014" class="edge">
<title>Node13&#45;&gt;Node14</title>
<g id="a_edge14_Node000013_Node000014"><a xlink:title=" ">
<path fill="none" stroke="#63b8ff" d="M1074.47,-110.09C1096,-101.6 1128.48,-88.79 1152.94,-79.14"/>
<polygon fill="#63b8ff" stroke="#63b8ff" points="1154.13,-82.43 1162.15,-75.51 1151.56,-75.92 1154.13,-82.43"/>
</a>
</g>
</g>
<!-- Node15 -->
<g id="Node000015" class="node">
<title>Node15</title>
<g id="a_Node000015"><a xlink:href="_aspect_8h.html" target="_top" xlink:title=" ">
<polygon fill="white" stroke="#666666" points="1382.32,-74.5 1268.82,-74.5 1268.82,-55.25 1382.32,-55.25 1382.32,-74.5"/>
<text text-anchor="middle" x="1325.57" y="-61" font-family="Helvetica,sans-Serif" font-size="10.00">sgui/Widgets/Aspect.h</text>
</a>
</g>
</g>
<!-- Node13&#45;&gt;Node15 -->
<g id="edge15_Node000013_Node000015" class="edge">
<title>Node13&#45;&gt;Node15</title>
<g id="a_edge15_Node000013_Node000015"><a xlink:title=" ">
<path fill="none" stroke="#63b8ff" d="M1098.36,-110.03C1145.25,-100.92 1217.53,-86.87 1267.93,-77.08"/>
<polygon fill="#63b8ff" stroke="#63b8ff" points="1268.33,-80.56 1277.48,-75.22 1267,-73.69 1268.33,-80.56"/>
</a>
</g>
</g>
<!-- Node16 -->
<g id="Node000016" class="node">
<title>Node16</title>
<g id="a_Node000016"><a xlink:title=" ">
<polygon fill="#e0e0e0" stroke="#999999" points="900.57,-19.25 860.57,-19.25 860.57,0 900.57,0 900.57,-19.25"/>
<text text-anchor="middle" x="880.57" y="-5.75" font-family="Helvetica,sans-Serif" font-size="10.00">string</text>
</a>
</g>
</g>
<!-- Node15&#45;&gt;Node16 -->
<g id="edge16_Node000015_Node000016" class="edge">
<title>Node15&#45;&gt;Node16</title>
<g id="a_edge16_Node000015_Node000016"><a xlink:title=" ">
<path fill="none" stroke="#63b8ff" d="M1268.34,-56.35C1265.37,-55.97 1262.43,-55.61 1259.57,-55.25 1130.51,-39.22 976.55,-21.54 911.75,-14.16"/>
<polygon fill="#63b8ff" stroke="#63b8ff" points="912.55,-10.73 902.21,-13.08 911.75,-17.68 912.55,-10.73"/>
</a>
</g>
</g>
<!-- Node17 -->
<g id="Node000017" class="node">
<title>Node17</title>
<g id="a_Node000017"><a xlink:href="_widgets_8h.html" target="_top" xlink:title=" ">
<polygon fill="white" stroke="#666666" points="1313.57,-19.25 1195.57,-19.25 1195.57,0 1313.57,0 1313.57,-19.25"/>
<text text-anchor="middle" x="1254.57" y="-5.75" font-family="Helvetica,sans-Serif" font-size="10.00">sgui/Widgets/Widgets.h</text>
</a>
</g>
</g>
<!-- Node15&#45;&gt;Node17 -->
<g id="edge17_Node000015_Node000017" class="edge">
<title>Node15&#45;&gt;Node17</title>
<g id="a_edge17_Node000015_Node000017"><a xlink:title=" ">
<path fill="none" stroke="#63b8ff" d="M1313.52,-54.84C1303.16,-47.07 1287.97,-35.67 1275.6,-26.4"/>
<polygon fill="#63b8ff" stroke="#63b8ff" points="1277.74,-23.63 1267.64,-20.43 1273.54,-29.23 1277.74,-23.63"/>
</a>
</g>
</g>
<!-- Node18 -->
<g id="Node000018" class="node">
<title>Node18</title>
<g id="a_Node000018"><a xlink:href="_item_states_8h.html" target="_top" xlink:title=" ">
<polygon fill="white" stroke="#666666" points="1461.94,-19.25 1331.19,-19.25 1331.19,0 1461.94,0 1461.94,-19.25"/>
<text text-anchor="middle" x="1396.57" y="-5.75" font-family="Helvetica,sans-Serif" font-size="10.00">sgui/Widgets/ItemStates.h</text>
</a>
</g>
</g>
<!-- Node15&#45;&gt;Node18 -->
<g id="edge18_Node000015_Node000018" class="edge">
<title>Node15&#45;&gt;Node18</title>
<g id="a_edge18_Node000015_Node000018"><a xlink:title=" ">
<path fill="none" stroke="#63b8ff" d="M1337.61,-54.84C1347.98,-47.07 1363.17,-35.67 1375.53,-26.4"/>
<polygon fill="#63b8ff" stroke="#63b8ff" points="1377.59,-29.23 1383.49,-20.43 1373.39,-23.63 1377.59,-29.23"/>
</a>
</g>
</g>
<!-- Node19&#45;&gt;Node2 -->
<g id="edge20_Node000019_Node000002" class="edge">
<title>Node19&#45;&gt;Node2</title>
<g id="a_edge20_Node000019_Node000002"><a xlink:title=" ">
<path fill="none" stroke="#63b8ff" d="M123.8,-110.09C135.34,-102.21 152.33,-90.61 166.02,-81.27"/>
<polygon fill="#63b8ff" stroke="#63b8ff" points="167.73,-84.33 174.02,-75.81 163.79,-78.55 167.73,-84.33"/>
</a>
</g>
</g>
<!-- Node19&#45;&gt;Node16 -->
<g id="edge21_Node000019_Node000016" class="edge">
<title>Node19&#45;&gt;Node16</title>
<g id="a_edge21_Node000019_Node000016"><a xlink:title=" ">
<path fill="none" stroke="#63b8ff" d="M70.65,-110.07C32.04,-99.57 -17.37,-80.44 6.57,-55.25 36.15,-24.12 695.39,-13.17 848.85,-11.03"/>
<polygon fill="#63b8ff" stroke="#63b8ff" points="848.71,-14.54 858.67,-10.9 848.62,-7.54 848.71,-14.54"/>
</a>
</g>
</g>
<!-- Node20 -->
<g id="Node000020" class="node">
<title>Node20</title>
<g id="a_Node000020"><a xlink:title=" ">
<polygon fill="#e0e0e0" stroke="#999999" points="643.94,-74.5 561.19,-74.5 561.19,-55.25 643.94,-55.25 643.94,-74.5"/>
<text text-anchor="middle" x="602.57" y="-61" font-family="Helvetica,sans-Serif" font-size="10.00">unordered_map</text>
</a>
</g>
</g>
<!-- Node19&#45;&gt;Node20 -->
<g id="edge22_Node000019_Node000020" class="edge">
<title>Node19&#45;&gt;Node20</title>
<g id="a_edge22_Node000019_Node000020"><a xlink:title=" ">
<path fill="none" stroke="#63b8ff" d="M183.49,-113.34C268.87,-106.22 414.79,-92.94 549.52,-74.83"/>
<polygon fill="#63b8ff" stroke="#63b8ff" points="549.92,-78.31 559.36,-73.5 548.98,-71.38 549.92,-78.31"/>
</a>
</g>
</g>
<!-- Node21 -->
<g id="Node000021" class="node">
<title>Node21</title>
<g id="a_Node000021"><a xlink:title=" ">
<polygon fill="#e0e0e0" stroke="#999999" points="149.44,-74.5 15.69,-74.5 15.69,-55.25 149.44,-55.25 149.44,-74.5"/>
<text text-anchor="middle" x="82.57" y="-61" font-family="Helvetica,sans-Serif" font-size="10.00">SFML/Graphics/Vertex.hpp</text>
</a>
</g>
</g>
<!-- Node19&#45;&gt;Node21 -->
<g id="edge23_Node000019_Node000021" class="edge">
<title>Node19&#45;&gt;Node21</title>
<g id="a_edge23_Node000019_Node000021"><a xlink:title=" ">
<path fill="none" stroke="#63b8ff" d="M105.94,-110.33C102.32,-103.44 97.14,-93.59 92.58,-84.91"/>
<polygon fill="#63b8ff" stroke="#63b8ff" points="95.75,-83.42 88,-76.2 89.55,-86.68 95.75,-83.42"/>
</a>
</g>
</g>
<!-- Node22&#45;&gt;Node10 -->
<g id="edge25_Node000022_Node000010" class="edge">
<title>Node22&#45;&gt;Node10</title>
<g id="a_edge25_Node000022_Node000010"><a xlink:title=" ">
<path fill="none" stroke="#63b8ff" d="M301.37,-110.09C291.83,-102.4 277.89,-91.15 266.46,-81.93"/>
<polygon fill="#63b8ff" stroke="#63b8ff" points="268.76,-79.28 258.78,-75.73 264.36,-84.73 268.76,-79.28"/>
</a>
</g>
</g>
<!-- Node22&#45;&gt;Node21 -->
<g id="edge27_Node000022_Node000021" class="edge">
<title>Node22&#45;&gt;Node21</title>
<g id="a_edge27_Node000022_Node000021"><a xlink:title=" ">
<path fill="none" stroke="#63b8ff" d="M273.29,-110.03C234.51,-101.05 175.04,-87.28 132.83,-77.51"/>
<polygon fill="#63b8ff" stroke="#63b8ff" points="133.69,-74.12 123.16,-75.27 132.11,-80.94 133.69,-74.12"/>
</a>
</g>
</g>
<!-- Node23 -->
<g id="Node000023" class="node">
<title>Node23</title>
<g id="a_Node000023"><a xlink:title=" ">
<polygon fill="#e0e0e0" stroke="#999999" points="788.69,-74.5 662.44,-74.5 662.44,-55.25 788.69,-55.25 788.69,-74.5"/>
<text text-anchor="middle" x="725.57" y="-61" font-family="Helvetica,sans-Serif" font-size="10.00">SFML/Graphics/Rect.hpp</text>
</a>
</g>
</g>
<!-- Node22&#45;&gt;Node23 -->
<g id="edge26_Node000022_Node000023" class="edge">
<title>Node22&#45;&gt;Node23</title>
<g id="a_edge26_Node000022_Node000023"><a xlink:title=" ">
<path fill="none" stroke="#63b8ff" d="M383.09,-110.03C457.6,-100.43 574.62,-85.34 650.72,-75.53"/>
<polygon fill="#63b8ff" stroke="#63b8ff" points="651.13,-79 660.61,-74.25 650.24,-72.06 651.13,-79"/>
</a>
</g>
</g>
<!-- Node24&#45;&gt;Node2 -->
<g id="edge29_Node000024_Node000002" class="edge">
<title>Node24&#45;&gt;Node2</title>
<g id="a_edge29_Node000024_Node000002"><a xlink:title=" ">
<path fill="none" stroke="#63b8ff" d="M620.26,-116.32C529.63,-111.87 368.32,-101.05 221.47,-74.51"/>
<polygon fill="#63b8ff" stroke="#63b8ff" points="222.43,-71.13 211.96,-72.76 221.16,-78.01 222.43,-71.13"/>
</a>
</g>
</g>
<!-- Node24&#45;&gt;Node4 -->
<g id="edge32_Node000024_Node000004" class="edge">
<title>Node24&#45;&gt;Node4</title>
<g id="a_edge32_Node000024_Node000004"><a xlink:title=" ">
<path fill="none" stroke="#63b8ff" d="M751.17,-110.03C811.68,-100.8 905.38,-86.5 969.67,-76.69"/>
<polygon fill="#63b8ff" stroke="#63b8ff" points="970.07,-80.17 979.43,-75.2 969.01,-73.25 970.07,-80.17"/>
</a>
</g>
</g>
<!-- Node24&#45;&gt;Node23 -->
<g id="edge31_Node000024_Node000023" class="edge">
<title>Node24&#45;&gt;Node23</title>
<g id="a_edge31_Node000024_Node000023"><a xlink:title=" ">
<path fill="none" stroke="#63b8ff" d="M697.18,-110.33C701.68,-103.28 708.15,-93.15 713.78,-84.33"/>
<polygon fill="#63b8ff" stroke="#63b8ff" points="716.58,-86.45 719.02,-76.13 710.68,-82.68 716.58,-86.45"/>
</a>
</g>
</g>
<!-- Node25 -->
<g id="Node000025" class="node">
<title>Node25</title>
<g id="a_Node000025"><a xlink:title=" ">
<polygon fill="#e0e0e0" stroke="#999999" points="852.19,-74.5 806.94,-74.5 806.94,-55.25 852.19,-55.25 852.19,-74.5"/>
<text text-anchor="middle" x="829.57" y="-61" font-family="Helvetica,sans-Serif" font-size="10.00">cstdint</text>
</a>
</g>
</g>
<!-- Node24&#45;&gt;Node25 -->
<g id="edge30_Node000024_Node000025" class="edge">
<title>Node24&#45;&gt;Node25</title>
<g id="a_edge30_Node000024_Node000025"><a xlink:title=" ">
<path fill="none" stroke="#63b8ff" d="M714.98,-110.09C737.22,-101.51 770.89,-88.52 795.99,-78.83"/>
<polygon fill="#63b8ff" stroke="#63b8ff" points="797.02,-82.18 805.09,-75.32 794.5,-75.65 797.02,-82.18"/>
</a>
</g>
</g>
<!-- Node26&#45;&gt;Node16 -->
<g id="edge34_Node000026_Node000016" class="edge">
<title>Node26&#45;&gt;Node16</title>
<g id="a_edge34_Node000026_Node000016"><a xlink:title=" ">
<path fill="none" stroke="#63b8ff" d="M856.69,-110.25C860.83,-93 870.03,-54.58 875.73,-30.81"/>
<polygon fill="#63b8ff" stroke="#63b8ff" points="879.13,-31.64 878.06,-21.1 872.32,-30.01 879.13,-31.64"/>
</a>
</g>
</g>
<!-- Node26&#45;&gt;Node20 -->
<g id="edge37_Node000026_Node000020" class="edge">
<title>Node26&#45;&gt;Node20</title>
<g id="a_edge37_Node000026_Node000020"><a xlink:title=" ">
<path fill="none" stroke="#63b8ff" d="M811.53,-110.03C768.29,-100.89 701.57,-86.8 655.2,-77"/>
<polygon fill="#63b8ff" stroke="#63b8ff" points="656.16,-73.62 645.65,-74.98 654.71,-80.47 656.16,-73.62"/>
</a>
</g>
</g>
<!-- Node26&#45;&gt;Node23 -->
<g id="edge38_Node000026_Node000023" class="edge">
<title>Node26&#45;&gt;Node23</title>
<g id="a_edge38_Node000026_Node000023"><a xlink:title=" ">
<path fill="none" stroke="#63b8ff" d="M832.68,-110.09C812.21,-101.64 781.35,-88.9 758.01,-79.27"/>
<polygon fill="#63b8ff" stroke="#63b8ff" points="759.54,-76.11 748.96,-75.53 756.86,-82.58 759.54,-76.11"/>
</a>
</g>
</g>
<!-- Node26&#45;&gt;Node25 -->
<g id="edge35_Node000026_Node000025" class="edge">
<title>Node26&#45;&gt;Node25</title>
<g id="a_edge35_Node000026_Node000025"><a xlink:title=" ">
<path fill="none" stroke="#63b8ff" d="M850.44,-110.33C847.24,-103.51 842.68,-93.81 838.64,-85.2"/>
<polygon fill="#63b8ff" stroke="#63b8ff" points="841.85,-83.79 834.43,-76.23 835.51,-86.77 841.85,-83.79"/>
</a>
</g>
</g>
<!-- Node27 -->
<g id="Node000027" class="node">
<title>Node27</title>
<g id="a_Node000027"><a xlink:title=" ">
<polygon fill="#e0e0e0" stroke="#999999" points="958.44,-74.5 908.69,-74.5 908.69,-55.25 958.44,-55.25 958.44,-74.5"/>
<text text-anchor="middle" x="933.57" y="-61" font-family="Helvetica,sans-Serif" font-size="10.00">optional</text>
</a>
</g>
</g>
<!-- Node26&#45;&gt;Node27 -->
<g id="edge36_Node000026_Node000027" class="edge">
<title>Node26&#45;&gt;Node27</title>
<g id="a_edge36_Node000026_Node000027"><a xlink:title=" ">
<path fill="none" stroke="#63b8ff" d="M867.97,-110.09C879.66,-102.21 896.87,-90.61 910.73,-81.27"/>
<polygon fill="#63b8ff" stroke="#63b8ff" points="912.51,-84.29 918.84,-75.8 908.6,-78.49 912.51,-84.29"/>
</a>
</g>
</g>
</g>
</svg>
