<?xml version="1.0" encoding="UTF-8" standalone="no"?>
<!DOCTYPE svg PUBLIC "-//W3C//DTD SVG 1.1//EN"
 "http://www.w3.org/Graphics/SVG/1.1/DTD/svg11.dtd">
<!-- Generated by graphviz version 12.2.1 (20241206.2353)
 -->
<!-- Title: /github/workspace/src/sgui/Render/GuiRender.cpp Pages: 1 -->
<svg width="2473pt" height="293pt"
 viewBox="0.00 0.00 2472.75 293.25" xmlns="http://www.w3.org/2000/svg" xmlns:xlink="http://www.w3.org/1999/xlink">
<g id="graph0" class="graph" transform="scale(1 1) rotate(0) translate(4 289.25)">
<title>/github/workspace/src/sgui/Render/GuiRender.cpp</title>
<!-- Node1 -->
<g id="Node000001" class="node">
<title>Node1</title>
<g id="a_Node000001"><a xlink:title=" ">
<polygon fill="#999999" stroke="#666666" points="1219,-285.25 1081.5,-285.25 1081.5,-254.75 1219,-254.75 1219,-285.25"/>
<text text-anchor="start" x="1089.5" y="-271.75" font-family="Helvetica,sans-Serif" font-size="10.00">/github/workspace/src</text>
<text text-anchor="middle" x="1150.25" y="-260.5" font-family="Helvetica,sans-Serif" font-size="10.00">/sgui/Render/GuiRender.cpp</text>
</a>
</g>
</g>
<!-- Node2 -->
<g id="Node000002" class="node">
<title>Node2</title>
<g id="a_Node000002"><a xlink:title=" ">
<polygon fill="#e0e0e0" stroke="#999999" points="876.5,-213.12 712,-213.12 712,-193.88 876.5,-193.88 876.5,-213.12"/>
<text text-anchor="middle" x="794.25" y="-199.62" font-family="Helvetica,sans-Serif" font-size="10.00">SFML/Graphics/RenderTarget.hpp</text>
</a>
</g>
</g>
<!-- Node1&#45;&gt;Node2 -->
<g id="edge1_Node000001_Node000002" class="edge">
<title>Node1&#45;&gt;Node2</title>
<g id="a_edge1_Node000001_Node000002"><a xlink:title=" ">
<path fill="none" stroke="#63b8ff" d="M1081.19,-256.49C1015.8,-244.64 918.55,-227.02 855.77,-215.65"/>
<polygon fill="#63b8ff" stroke="#63b8ff" points="856.41,-212.21 845.95,-213.87 855.16,-219.09 856.41,-212.21"/>
</a>
</g>
</g>
<!-- Node3 -->
<g id="Node000003" class="node">
<title>Node3</title>
<g id="a_Node000003"><a xlink:href="_gui_render_8h.html" target="_top" xlink:title=" ">
<polygon fill="white" stroke="#666666" points="1018.25,-213.12 894.25,-213.12 894.25,-193.88 1018.25,-193.88 1018.25,-213.12"/>
<text text-anchor="middle" x="956.25" y="-199.62" font-family="Helvetica,sans-Serif" font-size="10.00">sgui/Render/GuiRender.h</text>
</a>
</g>
</g>
<!-- Node1&#45;&gt;Node3 -->
<g id="edge2_Node000001_Node000003" class="edge">
<title>Node1&#45;&gt;Node3</title>
<g id="a_edge2_Node000001_Node000003"><a xlink:title=" ">
<path fill="none" stroke="#63b8ff" d="M1106.23,-254.36C1072.53,-243.16 1026.52,-227.86 994.38,-217.18"/>
<polygon fill="#63b8ff" stroke="#63b8ff" points="995.66,-213.92 985.07,-214.08 993.45,-220.56 995.66,-213.92"/>
</a>
</g>
</g>
<!-- Node30 -->
<g id="Node000030" class="node">
<title>Node30</title>
<g id="a_Node000030"><a xlink:href="_interpolation_8h.html" target="_top" xlink:title=" ">
<polygon fill="white" stroke="#666666" points="1934.75,-146.62 1813.75,-146.62 1813.75,-127.38 1934.75,-127.38 1934.75,-146.62"/>
<text text-anchor="middle" x="1874.25" y="-133.12" font-family="Helvetica,sans-Serif" font-size="10.00">sgui/Core/Interpolation.h</text>
</a>
</g>
</g>
<!-- Node1&#45;&gt;Node30 -->
<g id="edge41_Node000001_Node000030" class="edge">
<title>Node1&#45;&gt;Node30</title>
<g id="a_edge41_Node000001_Node000030"><a xlink:title=" ">
<path fill="none" stroke="#63b8ff" d="M1219.09,-257.28C1338.4,-236.83 1591.27,-192.93 1804.25,-152.25 1809.18,-151.31 1814.3,-150.31 1819.43,-149.29"/>
<polygon fill="#63b8ff" stroke="#63b8ff" points="1819.99,-152.75 1829.11,-147.35 1818.62,-145.88 1819.99,-152.75"/>
</a>
</g>
</g>
<!-- Node34 -->
<g id="Node000034" class="node">
<title>Node34</title>
<g id="a_Node000034"><a xlink:href="_load_texture_atlas_8h.html" target="_top" xlink:title=" ">
<polygon fill="white" stroke="#666666" points="1949.75,-218.75 1846.75,-218.75 1846.75,-188.25 1949.75,-188.25 1949.75,-218.75"/>
<text text-anchor="start" x="1854.75" y="-205.25" font-family="Helvetica,sans-Serif" font-size="10.00">sgui/Serialization</text>
<text text-anchor="middle" x="1898.25" y="-194" font-family="Helvetica,sans-Serif" font-size="10.00">/LoadTextureAtlas.h</text>
</a>
</g>
</g>
<!-- Node1&#45;&gt;Node34 -->
<g id="edge47_Node000001_Node000034" class="edge">
<title>Node1&#45;&gt;Node34</title>
<g id="a_edge47_Node000001_Node000034"><a xlink:title=" ">
<path fill="none" stroke="#63b8ff" d="M1219.28,-263.05C1363.68,-250.6 1695.78,-221.96 1835.01,-209.95"/>
<polygon fill="#63b8ff" stroke="#63b8ff" points="1835.11,-213.46 1844.78,-209.11 1834.51,-206.48 1835.11,-213.46"/>
</a>
</g>
</g>
<!-- Node4 -->
<g id="Node000004" class="node">
<title>Node4</title>
<g id="a_Node000004"><a xlink:title=" ">
<polygon fill="#e0e0e0" stroke="#999999" points="887.75,-80.12 844.75,-80.12 844.75,-60.88 887.75,-60.88 887.75,-80.12"/>
<text text-anchor="middle" x="866.25" y="-66.62" font-family="Helvetica,sans-Serif" font-size="10.00">vector</text>
</a>
</g>
</g>
<!-- Node3&#45;&gt;Node4 -->
<g id="edge3_Node000003_Node000004" class="edge">
<title>Node3&#45;&gt;Node4</title>
<g id="a_edge3_Node000003_Node000004"><a xlink:title=" ">
<path fill="none" stroke="#63b8ff" d="M922.78,-193.5C902.26,-186.06 877.63,-173.23 865.25,-152.25 854.41,-133.89 856.81,-108.84 860.53,-91.54"/>
<polygon fill="#63b8ff" stroke="#63b8ff" points="863.89,-92.53 862.94,-81.98 857.1,-90.82 863.89,-92.53"/>
</a>
</g>
</g>
<!-- Node5 -->
<g id="Node000005" class="node">
<title>Node5</title>
<g id="a_Node000005"><a xlink:title=" ">
<polygon fill="#e0e0e0" stroke="#999999" points="1333,-146.62 1207.5,-146.62 1207.5,-127.38 1333,-127.38 1333,-146.62"/>
<text text-anchor="middle" x="1270.25" y="-133.12" font-family="Helvetica,sans-Serif" font-size="10.00">SFML/Graphics/Font.hpp</text>
</a>
</g>
</g>
<!-- Node3&#45;&gt;Node5 -->
<g id="edge4_Node000003_Node000005" class="edge">
<title>Node3&#45;&gt;Node5</title>
<g id="a_edge4_Node000003_Node000005"><a xlink:title=" ">
<path fill="none" stroke="#63b8ff" d="M1000.57,-193.4C1056.83,-181.84 1153.89,-161.9 1214.94,-149.36"/>
<polygon fill="#63b8ff" stroke="#63b8ff" points="1215.33,-152.86 1224.42,-147.41 1213.92,-146 1215.33,-152.86"/>
</a>
</g>
</g>
<!-- Node6 -->
<g id="Node000006" class="node">
<title>Node6</title>
<g id="a_Node000006"><a xlink:title=" ">
<polygon fill="#e0e0e0" stroke="#999999" points="1033.12,-80.12 905.38,-80.12 905.38,-60.88 1033.12,-60.88 1033.12,-80.12"/>
<text text-anchor="middle" x="969.25" y="-66.62" font-family="Helvetica,sans-Serif" font-size="10.00">SFML/Graphics/View.hpp</text>
</a>
</g>
</g>
<!-- Node3&#45;&gt;Node6 -->
<g id="edge5_Node000003_Node000006" class="edge">
<title>Node3&#45;&gt;Node6</title>
<g id="a_edge5_Node000003_Node000006"><a xlink:title=" ">
<path fill="none" stroke="#63b8ff" d="M928.03,-193.46C909.12,-185.76 885.67,-172.64 874.25,-152.25 867.63,-140.42 867.26,-133.36 874.25,-121.75 884.87,-104.11 903.99,-92.35 922.3,-84.66"/>
<polygon fill="#63b8ff" stroke="#63b8ff" points="923.42,-87.98 931.51,-81.14 920.92,-81.45 923.42,-87.98"/>
</a>
</g>
</g>
<!-- Node7 -->
<g id="Node000007" class="node">
<title>Node7</title>
<g id="a_Node000007"><a xlink:title=" ">
<polygon fill="#e0e0e0" stroke="#999999" points="1628.62,-146.62 1503.88,-146.62 1503.88,-127.38 1628.62,-127.38 1628.62,-146.62"/>
<text text-anchor="middle" x="1566.25" y="-133.12" font-family="Helvetica,sans-Serif" font-size="10.00">SFML/Graphics/Text.hpp</text>
</a>
</g>
</g>
<!-- Node3&#45;&gt;Node7 -->
<g id="edge6_Node000003_Node000007" class="edge">
<title>Node3&#45;&gt;Node7</title>
<g id="a_edge6_Node000003_Node000007"><a xlink:title=" ">
<path fill="none" stroke="#63b8ff" d="M1018.63,-198.75C1119.13,-192.25 1322.97,-177.13 1494.25,-152.25 1500.32,-151.37 1506.65,-150.31 1512.93,-149.18"/>
<polygon fill="#63b8ff" stroke="#63b8ff" points="1513.44,-152.65 1522.63,-147.37 1512.15,-145.77 1513.44,-152.65"/>
</a>
</g>
</g>
<!-- Node8 -->
<g id="Node000008" class="node">
<title>Node8</title>
<g id="a_Node000008"><a xlink:title=" ">
<polygon fill="#e0e0e0" stroke="#999999" points="146.5,-146.62 0,-146.62 0,-127.38 146.5,-127.38 146.5,-146.62"/>
<text text-anchor="middle" x="73.25" y="-133.12" font-family="Helvetica,sans-Serif" font-size="10.00">SFML/Graphics/Drawable.hpp</text>
</a>
</g>
</g>
<!-- Node3&#45;&gt;Node8 -->
<g id="edge7_Node000003_Node000008" class="edge">
<title>Node3&#45;&gt;Node8</title>
<g id="a_edge7_Node000003_Node000008"><a xlink:title=" ">
<path fill="none" stroke="#63b8ff" d="M916.24,-193.39C906.17,-191.39 895.36,-189.51 885.25,-188.25 562.89,-148.18 478.1,-188.13 155.25,-152.25 147.25,-151.36 138.85,-150.18 130.61,-148.89"/>
<polygon fill="#63b8ff" stroke="#63b8ff" points="131.44,-145.48 121,-147.31 130.3,-152.38 131.44,-145.48"/>
</a>
</g>
</g>
<!-- Node9 -->
<g id="Node000009" class="node">
<title>Node9</title>
<g id="a_Node000009"><a xlink:title=" ">
<polygon fill="#e0e0e0" stroke="#999999" points="320.38,-146.62 164.12,-146.62 164.12,-127.38 320.38,-127.38 320.38,-146.62"/>
<text text-anchor="middle" x="242.25" y="-133.12" font-family="Helvetica,sans-Serif" font-size="10.00">SFML/Graphics/VertexArray.hpp</text>
</a>
</g>
</g>
<!-- Node3&#45;&gt;Node9 -->
<g id="edge8_Node000003_Node000009" class="edge">
<title>Node3&#45;&gt;Node9</title>
<g id="a_edge8_Node000003_Node000009"><a xlink:title=" ">
<path fill="none" stroke="#63b8ff" d="M915.86,-193.42C905.89,-191.45 895.22,-189.57 885.25,-188.25 639.76,-155.81 575.29,-180.3 329.25,-152.25 320.9,-151.3 312.12,-150.1 303.49,-148.8"/>
<polygon fill="#63b8ff" stroke="#63b8ff" points="304.19,-145.37 293.77,-147.29 303.12,-152.28 304.19,-145.37"/>
</a>
</g>
</g>
<!-- Node10 -->
<g id="Node000010" class="node">
<title>Node10</title>
<g id="a_Node000010"><a xlink:title=" ">
<polygon fill="#e0e0e0" stroke="#999999" points="506.38,-146.62 338.12,-146.62 338.12,-127.38 506.38,-127.38 506.38,-146.62"/>
<text text-anchor="middle" x="422.25" y="-133.12" font-family="Helvetica,sans-Serif" font-size="10.00">SFML/Graphics/Transformable.hpp</text>
</a>
</g>
</g>
<!-- Node3&#45;&gt;Node10 -->
<g id="edge9_Node000003_Node000010" class="edge">
<title>Node3&#45;&gt;Node10</title>
<g id="a_edge9_Node000003_Node000010"><a xlink:title=" ">
<path fill="none" stroke="#63b8ff" d="M914.7,-193.43C905.06,-191.53 894.83,-189.67 885.25,-188.25 722.26,-164.01 679.77,-172.61 516.25,-152.25 507.73,-151.19 498.79,-149.97 489.95,-148.7"/>
<polygon fill="#63b8ff" stroke="#63b8ff" points="490.75,-145.28 480.35,-147.3 489.73,-152.21 490.75,-145.28"/>
</a>
</g>
</g>
<!-- Node11 -->
<g id="Node000011" class="node">
<title>Node11</title>
<g id="a_Node000011"><a xlink:href="_shapes_8h.html" target="_top" xlink:title=" ">
<polygon fill="white" stroke="#666666" points="625.62,-146.62 524.88,-146.62 524.88,-127.38 625.62,-127.38 625.62,-146.62"/>
<text text-anchor="middle" x="575.25" y="-133.12" font-family="Helvetica,sans-Serif" font-size="10.00">sgui/Core/Shapes.h</text>
</a>
</g>
</g>
<!-- Node3&#45;&gt;Node11 -->
<g id="edge10_Node000003_Node000011" class="edge">
<title>Node3&#45;&gt;Node11</title>
<g id="a_edge10_Node000003_Node000011"><a xlink:title=" ">
<path fill="none" stroke="#63b8ff" d="M913.14,-193.45C903.95,-191.63 894.3,-189.81 885.25,-188.25 774.18,-169.15 744.92,-173.5 634.25,-152.25 630.13,-151.46 625.86,-150.57 621.59,-149.63"/>
<polygon fill="#63b8ff" stroke="#63b8ff" points="622.39,-146.22 611.86,-147.4 620.83,-153.04 622.39,-146.22"/>
</a>
</g>
</g>
<!-- Node15 -->
<g id="Node000015" class="node">
<title>Node15</title>
<g id="a_Node000015"><a xlink:href="_draw_options_8h.html" target="_top" xlink:title=" ">
<polygon fill="white" stroke="#666666" points="1485.5,-146.62 1351,-146.62 1351,-127.38 1485.5,-127.38 1485.5,-146.62"/>
<text text-anchor="middle" x="1418.25" y="-133.12" font-family="Helvetica,sans-Serif" font-size="10.00">sgui/Render/DrawOptions.h</text>
</a>
</g>
</g>
<!-- Node3&#45;&gt;Node15 -->
<g id="edge15_Node000003_Node000015" class="edge">
<title>Node3&#45;&gt;Node15</title>
<g id="a_edge15_Node000003_Node000015"><a xlink:title=" ">
<path fill="none" stroke="#63b8ff" d="M1018.58,-195.47C1095.02,-186.6 1228.45,-170.31 1342.25,-152.25 1348.3,-151.29 1354.61,-150.22 1360.89,-149.11"/>
<polygon fill="#63b8ff" stroke="#63b8ff" points="1361.4,-152.57 1370.61,-147.35 1360.15,-145.68 1361.4,-152.57"/>
</a>
</g>
</g>
<!-- Node21 -->
<g id="Node000021" class="node">
<title>Node21</title>
<g id="a_Node000021"><a xlink:href="_texture_meshes_8h.html" target="_top" xlink:title=" ">
<polygon fill="white" stroke="#666666" points="1028.75,-146.62 883.75,-146.62 883.75,-127.38 1028.75,-127.38 1028.75,-146.62"/>
<text text-anchor="middle" x="956.25" y="-133.12" font-family="Helvetica,sans-Serif" font-size="10.00">sgui/Render/TextureMeshes.h</text>
</a>
</g>
</g>
<!-- Node3&#45;&gt;Node21 -->
<g id="edge21_Node000003_Node000021" class="edge">
<title>Node3&#45;&gt;Node21</title>
<g id="a_edge21_Node000003_Node000021"><a xlink:title=" ">
<path fill="none" stroke="#63b8ff" d="M956.25,-193.53C956.25,-184.48 956.25,-170.2 956.25,-158.38"/>
<polygon fill="#63b8ff" stroke="#63b8ff" points="959.75,-158.41 956.25,-148.41 952.75,-158.41 959.75,-158.41"/>
</a>
</g>
</g>
<!-- Node24 -->
<g id="Node000024" class="node">
<title>Node24</title>
<g id="a_Node000024"><a xlink:href="_mesh_functions_8h.html" target="_top" xlink:title=" ">
<polygon fill="white" stroke="#666666" points="788.75,-146.62 643.75,-146.62 643.75,-127.38 788.75,-127.38 788.75,-146.62"/>
<text text-anchor="middle" x="716.25" y="-133.12" font-family="Helvetica,sans-Serif" font-size="10.00">sgui/Render/MeshFunctions.h</text>
</a>
</g>
</g>
<!-- Node3&#45;&gt;Node24 -->
<g id="edge26_Node000003_Node000024" class="edge">
<title>Node3&#45;&gt;Node24</title>
<g id="a_edge26_Node000003_Node000024"><a xlink:title=" ">
<path fill="none" stroke="#63b8ff" d="M922.37,-193.4C880.12,-182.04 807.75,-162.59 760.97,-150.02"/>
<polygon fill="#63b8ff" stroke="#63b8ff" points="761.98,-146.67 751.42,-147.45 760.17,-153.43 761.98,-146.67"/>
</a>
</g>
</g>
<!-- Node26 -->
<g id="Node000026" class="node">
<title>Node26</title>
<g id="a_Node000026"><a xlink:href="_clipping_layers_8h.html" target="_top" xlink:title=" ">
<polygon fill="white" stroke="#666666" points="1189.25,-146.62 1047.25,-146.62 1047.25,-127.38 1189.25,-127.38 1189.25,-146.62"/>
<text text-anchor="middle" x="1118.25" y="-133.12" font-family="Helvetica,sans-Serif" font-size="10.00">sgui/Render/ClippingLayers.h</text>
</a>
</g>
</g>
<!-- Node3&#45;&gt;Node26 -->
<g id="edge30_Node000003_Node000026" class="edge">
<title>Node3&#45;&gt;Node26</title>
<g id="a_edge30_Node000003_Node000026"><a xlink:title=" ">
<path fill="none" stroke="#63b8ff" d="M979.12,-193.4C1006.74,-182.4 1053.41,-163.81 1085.01,-151.24"/>
<polygon fill="#63b8ff" stroke="#63b8ff" points="1086.1,-154.57 1094.09,-147.62 1083.51,-148.07 1086.1,-154.57"/>
</a>
</g>
</g>
<!-- Node28 -->
<g id="Node000028" class="node">
<title>Node28</title>
<g id="a_Node000028"><a xlink:href="_texture_atlas_8h.html" target="_top" xlink:title=" ">
<polygon fill="white" stroke="#666666" points="1795.62,-146.62 1646.88,-146.62 1646.88,-127.38 1795.62,-127.38 1795.62,-146.62"/>
<text text-anchor="middle" x="1721.25" y="-133.12" font-family="Helvetica,sans-Serif" font-size="10.00">sgui/Resources/TextureAtlas.h</text>
</a>
</g>
</g>
<!-- Node3&#45;&gt;Node28 -->
<g id="edge35_Node000003_Node000028" class="edge">
<title>Node3&#45;&gt;Node28</title>
<g id="a_edge35_Node000003_Node000028"><a xlink:title=" ">
<path fill="none" stroke="#63b8ff" d="M1018.41,-199.88C1138.39,-194.39 1410.12,-179.83 1637.25,-152.25 1645.03,-151.3 1653.2,-150.14 1661.25,-148.89"/>
<polygon fill="#63b8ff" stroke="#63b8ff" points="1661.7,-152.36 1671.01,-147.31 1660.58,-145.45 1661.7,-152.36"/>
</a>
</g>
</g>
<!-- Node11&#45;&gt;Node4 -->
<g id="edge12_Node000011_Node000004" class="edge">
<title>Node11&#45;&gt;Node4</title>
<g id="a_edge12_Node000011_Node000004"><a xlink:title=" ">
<path fill="none" stroke="#63b8ff" d="M611.37,-126.91C618.91,-125.12 626.82,-123.31 634.25,-121.75 723.5,-103.04 749.4,-113.56 836.25,-85.75 837.05,-85.49 837.86,-85.22 838.67,-84.93"/>
<polygon fill="#63b8ff" stroke="#63b8ff" points="839.83,-88.24 847.72,-81.18 837.14,-81.78 839.83,-88.24"/>
</a>
</g>
</g>
<!-- Node12 -->
<g id="Node000012" class="node">
<title>Node12</title>
<g id="a_Node000012"><a xlink:title=" ">
<polygon fill="#e0e0e0" stroke="#999999" points="675.75,-80.12 638.75,-80.12 638.75,-60.88 675.75,-60.88 675.75,-80.12"/>
<text text-anchor="middle" x="657.25" y="-66.62" font-family="Helvetica,sans-Serif" font-size="10.00">array</text>
</a>
</g>
</g>
<!-- Node11&#45;&gt;Node12 -->
<g id="edge11_Node000011_Node000012" class="edge">
<title>Node11&#45;&gt;Node12</title>
<g id="a_edge11_Node000011_Node000012"><a xlink:title=" ">
<path fill="none" stroke="#63b8ff" d="M586.65,-127.03C599.55,-116.88 620.82,-100.15 636.65,-87.7"/>
<polygon fill="#63b8ff" stroke="#63b8ff" points="638.8,-90.47 644.49,-81.54 634.47,-84.97 638.8,-90.47"/>
</a>
</g>
</g>
<!-- Node13 -->
<g id="Node000013" class="node">
<title>Node13</title>
<g id="a_Node000013"><a xlink:title=" ">
<polygon fill="#e0e0e0" stroke="#999999" points="621.12,-80.12 487.38,-80.12 487.38,-60.88 621.12,-60.88 621.12,-80.12"/>
<text text-anchor="middle" x="554.25" y="-66.62" font-family="Helvetica,sans-Serif" font-size="10.00">SFML/System/Vector2.hpp</text>
</a>
</g>
</g>
<!-- Node11&#45;&gt;Node13 -->
<g id="edge13_Node000011_Node000013" class="edge">
<title>Node11&#45;&gt;Node13</title>
<g id="a_edge13_Node000011_Node000013"><a xlink:title=" ">
<path fill="none" stroke="#63b8ff" d="M572.33,-127.03C569.32,-117.79 564.53,-103.08 560.64,-91.13"/>
<polygon fill="#63b8ff" stroke="#63b8ff" points="564.04,-90.26 557.61,-81.83 557.38,-92.42 564.04,-90.26"/>
</a>
</g>
</g>
<!-- Node14 -->
<g id="Node000014" class="node">
<title>Node14</title>
<g id="a_Node000014"><a xlink:href="_shapes_8tpp.html" target="_top" xlink:title=" ">
<polygon fill="white" stroke="#666666" points="469.75,-80.12 360.75,-80.12 360.75,-60.88 469.75,-60.88 469.75,-80.12"/>
<text text-anchor="middle" x="415.25" y="-66.62" font-family="Helvetica,sans-Serif" font-size="10.00">sgui/Core/Shapes.tpp</text>
</a>
</g>
</g>
<!-- Node11&#45;&gt;Node14 -->
<g id="edge14_Node000011_Node000014" class="edge">
<title>Node11&#45;&gt;Node14</title>
<g id="a_edge14_Node000011_Node000014"><a xlink:title=" ">
<path fill="none" stroke="#63b8ff" d="M552.67,-126.9C525.39,-115.9 479.29,-97.31 448.08,-84.74"/>
<polygon fill="#63b8ff" stroke="#63b8ff" points="449.71,-81.62 439.12,-81.12 447.09,-88.11 449.71,-81.62"/>
</a>
</g>
</g>
<!-- Node16 -->
<g id="Node000016" class="node">
<title>Node16</title>
<g id="a_Node000016"><a xlink:title=" ">
<polygon fill="#e0e0e0" stroke="#999999" points="1825.5,-80.12 1697,-80.12 1697,-60.88 1825.5,-60.88 1825.5,-80.12"/>
<text text-anchor="middle" x="1761.25" y="-66.62" font-family="Helvetica,sans-Serif" font-size="10.00">SFML/Graphics/Color.hpp</text>
</a>
</g>
</g>
<!-- Node15&#45;&gt;Node16 -->
<g id="edge16_Node000015_Node000016" class="edge">
<title>Node15&#45;&gt;Node16</title>
<g id="a_edge16_Node000015_Node000016"><a xlink:title=" ">
<path fill="none" stroke="#63b8ff" d="M1467.4,-126.91C1533.28,-114.71 1646.74,-93.66 1688.25,-85.75 1693.37,-84.77 1698.69,-83.75 1704.02,-82.72"/>
<polygon fill="#63b8ff" stroke="#63b8ff" points="1704.28,-86.24 1713.43,-80.9 1702.95,-79.36 1704.28,-86.24"/>
</a>
</g>
</g>
<!-- Node17 -->
<g id="Node000017" class="node">
<title>Node17</title>
<g id="a_Node000017"><a xlink:href="_aspect_8h.html" target="_top" xlink:title=" ">
<polygon fill="white" stroke="#666666" points="1165,-80.12 1051.5,-80.12 1051.5,-60.88 1165,-60.88 1165,-80.12"/>
<text text-anchor="middle" x="1108.25" y="-66.62" font-family="Helvetica,sans-Serif" font-size="10.00">sgui/Widgets/Aspect.h</text>
</a>
</g>
</g>
<!-- Node15&#45;&gt;Node17 -->
<g id="edge17_Node000015_Node000017" class="edge">
<title>Node15&#45;&gt;Node17</title>
<g id="a_edge17_Node000015_Node000017"><a xlink:title=" ">
<path fill="none" stroke="#63b8ff" d="M1374.49,-126.9C1319.07,-115.36 1223.53,-95.49 1163.23,-82.94"/>
<polygon fill="#63b8ff" stroke="#63b8ff" points="1164.02,-79.53 1153.52,-80.92 1162.59,-86.38 1164.02,-79.53"/>
</a>
</g>
</g>
<!-- Node18 -->
<g id="Node000018" class="node">
<title>Node18</title>
<g id="a_Node000018"><a xlink:title=" ">
<polygon fill="#e0e0e0" stroke="#999999" points="1463.25,-19.25 1423.25,-19.25 1423.25,0 1463.25,0 1463.25,-19.25"/>
<text text-anchor="middle" x="1443.25" y="-5.75" font-family="Helvetica,sans-Serif" font-size="10.00">string</text>
</a>
</g>
</g>
<!-- Node17&#45;&gt;Node18 -->
<g id="edge18_Node000017_Node000018" class="edge">
<title>Node17&#45;&gt;Node18</title>
<g id="a_edge18_Node000017_Node000018"><a xlink:title=" ">
<path fill="none" stroke="#63b8ff" d="M1152.52,-60.4C1161.37,-58.64 1170.6,-56.85 1179.25,-55.25 1263.07,-39.76 1362.27,-23.56 1411.81,-15.62"/>
<polygon fill="#63b8ff" stroke="#63b8ff" points="1412.19,-19.1 1421.51,-14.07 1411.09,-12.19 1412.19,-19.1"/>
</a>
</g>
</g>
<!-- Node19 -->
<g id="Node000019" class="node">
<title>Node19</title>
<g id="a_Node000019"><a xlink:href="_widgets_8h.html" target="_top" xlink:title=" ">
<polygon fill="white" stroke="#666666" points="1238.25,-19.25 1120.25,-19.25 1120.25,0 1238.25,0 1238.25,-19.25"/>
<text text-anchor="middle" x="1179.25" y="-5.75" font-family="Helvetica,sans-Serif" font-size="10.00">sgui/Widgets/Widgets.h</text>
</a>
</g>
</g>
<!-- Node17&#45;&gt;Node19 -->
<g id="edge19_Node000017_Node000019" class="edge">
<title>Node17&#45;&gt;Node19</title>
<g id="a_edge19_Node000017_Node000019"><a xlink:title=" ">
<path fill="none" stroke="#63b8ff" d="M1119.03,-60.56C1129.77,-51.65 1146.5,-37.78 1159.6,-26.92"/>
<polygon fill="#63b8ff" stroke="#63b8ff" points="1161.74,-29.69 1167.2,-20.62 1157.27,-24.31 1161.74,-29.69"/>
</a>
</g>
</g>
<!-- Node20 -->
<g id="Node000020" class="node">
<title>Node20</title>
<g id="a_Node000020"><a xlink:href="_item_states_8h.html" target="_top" xlink:title=" ">
<polygon fill="white" stroke="#666666" points="1102.62,-19.25 971.88,-19.25 971.88,0 1102.62,0 1102.62,-19.25"/>
<text text-anchor="middle" x="1037.25" y="-5.75" font-family="Helvetica,sans-Serif" font-size="10.00">sgui/Widgets/ItemStates.h</text>
</a>
</g>
</g>
<!-- Node17&#45;&gt;Node20 -->
<g id="edge20_Node000017_Node000020" class="edge">
<title>Node17&#45;&gt;Node20</title>
<g id="a_edge20_Node000017_Node000020"><a xlink:title=" ">
<path fill="none" stroke="#63b8ff" d="M1097.47,-60.56C1086.73,-51.65 1070,-37.78 1056.9,-26.92"/>
<polygon fill="#63b8ff" stroke="#63b8ff" points="1059.23,-24.31 1049.3,-20.62 1054.76,-29.69 1059.23,-24.31"/>
</a>
</g>
</g>
<!-- Node21&#45;&gt;Node4 -->
<g id="edge22_Node000021_Node000004" class="edge">
<title>Node21&#45;&gt;Node4</title>
<g id="a_edge22_Node000021_Node000004"><a xlink:title=" ">
<path fill="none" stroke="#63b8ff" d="M943.74,-127.03C929.31,-116.69 905.34,-99.52 887.88,-87"/>
<polygon fill="#63b8ff" stroke="#63b8ff" points="890.35,-84.46 880.18,-81.48 886.27,-90.15 890.35,-84.46"/>
</a>
</g>
</g>
<!-- Node21&#45;&gt;Node18 -->
<g id="edge23_Node000021_Node000018" class="edge">
<title>Node21&#45;&gt;Node18</title>
<g id="a_edge23_Node000021_Node000018"><a xlink:title=" ">
<path fill="none" stroke="#63b8ff" d="M1007.38,-126.95C1062.19,-116.77 1145.24,-99.81 1174.25,-85.75 1193.74,-76.3 1192.6,-64.35 1212.25,-55.25 1278.77,-24.45 1365.55,-14.9 1411.49,-11.95"/>
<polygon fill="#63b8ff" stroke="#63b8ff" points="1411.49,-15.45 1421.27,-11.39 1411.09,-8.47 1411.49,-15.45"/>
</a>
</g>
</g>
<!-- Node22 -->
<g id="Node000022" class="node">
<title>Node22</title>
<g id="a_Node000022"><a xlink:title=" ">
<polygon fill="#e0e0e0" stroke="#999999" points="1303.62,-80.12 1220.88,-80.12 1220.88,-60.88 1303.62,-60.88 1303.62,-80.12"/>
<text text-anchor="middle" x="1262.25" y="-66.62" font-family="Helvetica,sans-Serif" font-size="10.00">unordered_map</text>
</a>
</g>
</g>
<!-- Node21&#45;&gt;Node22 -->
<g id="edge24_Node000021_Node000022" class="edge">
<title>Node21&#45;&gt;Node22</title>
<g id="a_edge24_Node000021_Node000022"><a xlink:title=" ">
<path fill="none" stroke="#63b8ff" d="M1005.95,-126.9C1056.72,-117.4 1137.73,-101.7 1207.25,-85.75 1210.56,-84.99 1213.97,-84.18 1217.39,-83.34"/>
<polygon fill="#63b8ff" stroke="#63b8ff" points="1217.97,-86.81 1226.82,-80.98 1216.27,-80.02 1217.97,-86.81"/>
</a>
</g>
</g>
<!-- Node23 -->
<g id="Node000023" class="node">
<title>Node23</title>
<g id="a_Node000023"><a xlink:title=" ">
<polygon fill="#e0e0e0" stroke="#999999" points="827.12,-80.12 693.38,-80.12 693.38,-60.88 827.12,-60.88 827.12,-80.12"/>
<text text-anchor="middle" x="760.25" y="-66.62" font-family="Helvetica,sans-Serif" font-size="10.00">SFML/Graphics/Vertex.hpp</text>
</a>
</g>
</g>
<!-- Node21&#45;&gt;Node23 -->
<g id="edge25_Node000021_Node000023" class="edge">
<title>Node21&#45;&gt;Node23</title>
<g id="a_edge25_Node000021_Node000023"><a xlink:title=" ">
<path fill="none" stroke="#63b8ff" d="M928.58,-126.9C894.58,-115.71 836.72,-96.66 798.48,-84.08"/>
<polygon fill="#63b8ff" stroke="#63b8ff" points="799.81,-80.83 789.21,-81.03 797.62,-87.48 799.81,-80.83"/>
</a>
</g>
</g>
<!-- Node24&#45;&gt;Node12 -->
<g id="edge27_Node000024_Node000012" class="edge">
<title>Node24&#45;&gt;Node12</title>
<g id="a_edge27_Node000024_Node000012"><a xlink:title=" ">
<path fill="none" stroke="#63b8ff" d="M708.05,-127.03C698.98,-117.12 684.15,-100.91 672.86,-88.56"/>
<polygon fill="#63b8ff" stroke="#63b8ff" points="675.74,-86.53 666.41,-81.51 670.57,-91.25 675.74,-86.53"/>
</a>
</g>
</g>
<!-- Node24&#45;&gt;Node23 -->
<g id="edge29_Node000024_Node000023" class="edge">
<title>Node24&#45;&gt;Node23</title>
<g id="a_edge29_Node000024_Node000023"><a xlink:title=" ">
<path fill="none" stroke="#63b8ff" d="M722.37,-127.03C728.94,-117.4 739.55,-101.85 747.87,-89.65"/>
<polygon fill="#63b8ff" stroke="#63b8ff" points="750.59,-91.88 753.33,-81.64 744.8,-87.93 750.59,-91.88"/>
</a>
</g>
</g>
<!-- Node25 -->
<g id="Node000025" class="node">
<title>Node25</title>
<g id="a_Node000025"><a xlink:title=" ">
<polygon fill="#e0e0e0" stroke="#999999" points="1448.38,-80.12 1322.12,-80.12 1322.12,-60.88 1448.38,-60.88 1448.38,-80.12"/>
<text text-anchor="middle" x="1385.25" y="-66.62" font-family="Helvetica,sans-Serif" font-size="10.00">SFML/Graphics/Rect.hpp</text>
</a>
</g>
</g>
<!-- Node24&#45;&gt;Node25 -->
<g id="edge28_Node000024_Node000025" class="edge">
<title>Node24&#45;&gt;Node25</title>
<g id="a_edge28_Node000024_Node000025"><a xlink:title=" ">
<path fill="none" stroke="#63b8ff" d="M789,-129.32C815.79,-126.89 846.4,-124.15 874.25,-121.75 1068.85,-104.98 1118.77,-112.5 1312.25,-85.75 1318.64,-84.87 1325.32,-83.78 1331.93,-82.62"/>
<polygon fill="#63b8ff" stroke="#63b8ff" points="1332.23,-86.12 1341.43,-80.86 1330.96,-79.23 1332.23,-86.12"/>
</a>
</g>
</g>
<!-- Node26&#45;&gt;Node4 -->
<g id="edge31_Node000026_Node000004" class="edge">
<title>Node26&#45;&gt;Node4</title>
<g id="a_edge31_Node000026_Node000004"><a xlink:title=" ">
<path fill="none" stroke="#63b8ff" d="M1072.6,-126.91C1017.54,-115.72 928.37,-96.86 896.25,-85.75 895.6,-85.53 894.95,-85.29 894.3,-85.05"/>
<polygon fill="#63b8ff" stroke="#63b8ff" points="895.71,-81.85 885.14,-81.19 893,-88.3 895.71,-81.85"/>
</a>
</g>
</g>
<!-- Node26&#45;&gt;Node6 -->
<g id="edge34_Node000026_Node000006" class="edge">
<title>Node26&#45;&gt;Node6</title>
<g id="a_edge34_Node000026_Node000006"><a xlink:title=" ">
<path fill="none" stroke="#63b8ff" d="M1097.22,-126.9C1072.04,-116 1029.63,-97.64 1000.59,-85.07"/>
<polygon fill="#63b8ff" stroke="#63b8ff" points="1002.13,-81.92 991.56,-81.16 999.35,-88.34 1002.13,-81.92"/>
</a>
</g>
</g>
<!-- Node26&#45;&gt;Node25 -->
<g id="edge33_Node000026_Node000025" class="edge">
<title>Node26&#45;&gt;Node25</title>
<g id="a_edge33_Node000026_Node000025"><a xlink:title=" ">
<path fill="none" stroke="#63b8ff" d="M1155.94,-126.9C1203.35,-115.44 1284.83,-95.76 1336.81,-83.2"/>
<polygon fill="#63b8ff" stroke="#63b8ff" points="1337.38,-86.66 1346.28,-80.91 1335.74,-79.86 1337.38,-86.66"/>
</a>
</g>
</g>
<!-- Node27 -->
<g id="Node000027" class="node">
<title>Node27</title>
<g id="a_Node000027"><a xlink:title=" ">
<polygon fill="#e0e0e0" stroke="#999999" points="1511.88,-80.12 1466.62,-80.12 1466.62,-60.88 1511.88,-60.88 1511.88,-80.12"/>
<text text-anchor="middle" x="1489.25" y="-66.62" font-family="Helvetica,sans-Serif" font-size="10.00">cstdint</text>
</a>
</g>
</g>
<!-- Node26&#45;&gt;Node27 -->
<g id="edge32_Node000026_Node000027" class="edge">
<title>Node26&#45;&gt;Node27</title>
<g id="a_edge32_Node000026_Node000027"><a xlink:title=" ">
<path fill="none" stroke="#63b8ff" d="M1167.7,-126.89C1177.8,-125.11 1188.36,-123.32 1198.25,-121.75 1313.03,-103.56 1345.51,-117.7 1457.25,-85.75 1458.42,-85.42 1459.6,-85.05 1460.79,-84.65"/>
<polygon fill="#63b8ff" stroke="#63b8ff" points="1461.85,-87.99 1469.89,-81.1 1459.31,-81.47 1461.85,-87.99"/>
</a>
</g>
</g>
<!-- Node28&#45;&gt;Node18 -->
<g id="edge36_Node000028_Node000018" class="edge">
<title>Node28&#45;&gt;Node18</title>
<g id="a_edge36_Node000028_Node000018"><a xlink:title=" ">
<path fill="none" stroke="#63b8ff" d="M1676.51,-126.91C1642.95,-118.97 1596.56,-105.58 1559.25,-85.75 1540.13,-75.59 1539.15,-67.44 1521.25,-55.25 1505.01,-44.19 1485.87,-33.21 1470.62,-24.91"/>
<polygon fill="#63b8ff" stroke="#63b8ff" points="1472.56,-21.98 1462.09,-20.34 1469.25,-28.15 1472.56,-21.98"/>
</a>
</g>
</g>
<!-- Node28&#45;&gt;Node22 -->
<g id="edge39_Node000028_Node000022" class="edge">
<title>Node28&#45;&gt;Node22</title>
<g id="a_edge39_Node000028_Node000022"><a xlink:title=" ">
<path fill="none" stroke="#63b8ff" d="M1670.68,-126.94C1659.68,-125.1 1648.09,-123.27 1637.25,-121.75 1493.77,-101.63 1455.49,-113.33 1313.25,-85.75 1309.84,-85.09 1306.33,-84.31 1302.81,-83.47"/>
<polygon fill="#63b8ff" stroke="#63b8ff" points="1303.74,-80.09 1293.19,-80.99 1302,-86.87 1303.74,-80.09"/>
</a>
</g>
</g>
<!-- Node28&#45;&gt;Node25 -->
<g id="edge40_Node000028_Node000025" class="edge">
<title>Node28&#45;&gt;Node25</title>
<g id="a_edge40_Node000028_Node000025"><a xlink:title=" ">
<path fill="none" stroke="#63b8ff" d="M1673.06,-126.94C1620.12,-116.95 1532.59,-100.38 1457.25,-85.75 1452.33,-84.8 1447.23,-83.8 1442.11,-82.79"/>
<polygon fill="#63b8ff" stroke="#63b8ff" points="1442.92,-79.39 1432.43,-80.89 1441.57,-86.25 1442.92,-79.39"/>
</a>
</g>
</g>
<!-- Node28&#45;&gt;Node27 -->
<g id="edge37_Node000028_Node000027" class="edge">
<title>Node28&#45;&gt;Node27</title>
<g id="a_edge37_Node000028_Node000027"><a xlink:title=" ">
<path fill="none" stroke="#63b8ff" d="M1680.53,-126.95C1640.81,-117.79 1578.86,-102.6 1526.25,-85.75 1524.89,-85.31 1523.5,-84.85 1522.1,-84.38"/>
<polygon fill="#63b8ff" stroke="#63b8ff" points="1523.42,-81.13 1512.83,-81.03 1521.04,-87.72 1523.42,-81.13"/>
</a>
</g>
</g>
<!-- Node29 -->
<g id="Node000029" class="node">
<title>Node29</title>
<g id="a_Node000029"><a xlink:title=" ">
<polygon fill="#e0e0e0" stroke="#999999" points="1618.12,-80.12 1568.38,-80.12 1568.38,-60.88 1618.12,-60.88 1618.12,-80.12"/>
<text text-anchor="middle" x="1593.25" y="-66.62" font-family="Helvetica,sans-Serif" font-size="10.00">optional</text>
</a>
</g>
</g>
<!-- Node28&#45;&gt;Node29 -->
<g id="edge38_Node000028_Node000029" class="edge">
<title>Node28&#45;&gt;Node29</title>
<g id="a_edge38_Node000028_Node000029"><a xlink:title=" ">
<path fill="none" stroke="#63b8ff" d="M1703.18,-126.9C1681.93,-116.19 1646.4,-98.28 1621.5,-85.74"/>
<polygon fill="#63b8ff" stroke="#63b8ff" points="1623.08,-82.61 1612.58,-81.24 1619.93,-88.86 1623.08,-82.61"/>
</a>
</g>
</g>
<!-- Node30&#45;&gt;Node18 -->
<g id="edge43_Node000030_Node000018" class="edge">
<title>Node30&#45;&gt;Node18</title>
<g id="a_edge43_Node000030_Node000018"><a xlink:title=" ">
<path fill="none" stroke="#63b8ff" d="M1935.12,-129.97C2004.31,-120.86 2102.62,-99.72 2061.25,-55.25 2021.05,-12.04 1595.59,-10.12 1474.97,-10.45"/>
<polygon fill="#63b8ff" stroke="#63b8ff" points="1475.14,-6.95 1465.16,-10.49 1475.17,-13.95 1475.14,-6.95"/>
</a>
</g>
</g>
<!-- Node30&#45;&gt;Node27 -->
<g id="edge44_Node000030_Node000027" class="edge">
<title>Node30&#45;&gt;Node27</title>
<g id="a_edge44_Node000030_Node000027"><a xlink:title=" ">
<path fill="none" stroke="#63b8ff" d="M1831.38,-126.88C1822.43,-125.09 1813.05,-123.29 1804.25,-121.75 1695.84,-102.77 1667.66,-104.73 1559.25,-85.75 1547.55,-83.7 1534.82,-81.19 1523.45,-78.85"/>
<polygon fill="#63b8ff" stroke="#63b8ff" points="1524.19,-75.43 1513.69,-76.81 1522.76,-82.28 1524.19,-75.43"/>
</a>
</g>
</g>
<!-- Node31 -->
<g id="Node000031" class="node">
<title>Node31</title>
<g id="a_Node000031"><a xlink:title=" ">
<polygon fill="#e0e0e0" stroke="#999999" points="1678.75,-80.12 1635.75,-80.12 1635.75,-60.88 1678.75,-60.88 1678.75,-80.12"/>
<text text-anchor="middle" x="1657.25" y="-66.62" font-family="Helvetica,sans-Serif" font-size="10.00">cmath</text>
</a>
</g>
</g>
<!-- Node30&#45;&gt;Node31 -->
<g id="edge42_Node000030_Node000031" class="edge">
<title>Node30&#45;&gt;Node31</title>
<g id="a_edge42_Node000030_Node000031"><a xlink:title=" ">
<path fill="none" stroke="#63b8ff" d="M1833,-126.95C1794.9,-118.1 1737,-103.4 1688.25,-85.75 1687.61,-85.52 1686.96,-85.28 1686.3,-85.03"/>
<polygon fill="#63b8ff" stroke="#63b8ff" points="1687.7,-81.82 1677.12,-81.19 1685,-88.28 1687.7,-81.82"/>
</a>
</g>
</g>
<!-- Node32 -->
<g id="Node000032" class="node">
<title>Node32</title>
<g id="a_Node000032"><a xlink:title=" ">
<polygon fill="#e0e0e0" stroke="#999999" points="1904.75,-80.12 1843.75,-80.12 1843.75,-60.88 1904.75,-60.88 1904.75,-80.12"/>
<text text-anchor="middle" x="1874.25" y="-66.62" font-family="Helvetica,sans-Serif" font-size="10.00">type_traits</text>
</a>
</g>
</g>
<!-- Node30&#45;&gt;Node32 -->
<g id="edge45_Node000030_Node000032" class="edge">
<title>Node30&#45;&gt;Node32</title>
<g id="a_edge45_Node000030_Node000032"><a xlink:title=" ">
<path fill="none" stroke="#63b8ff" d="M1874.25,-127.03C1874.25,-117.98 1874.25,-103.7 1874.25,-91.88"/>
<polygon fill="#63b8ff" stroke="#63b8ff" points="1877.75,-91.91 1874.25,-81.91 1870.75,-91.91 1877.75,-91.91"/>
</a>
</g>
</g>
<!-- Node33 -->
<g id="Node000033" class="node">
<title>Node33</title>
<g id="a_Node000033"><a xlink:href="_interpolation_8tpp.html" target="_top" xlink:title=" ">
<polygon fill="white" stroke="#666666" points="2051.88,-80.12 1922.62,-80.12 1922.62,-60.88 2051.88,-60.88 2051.88,-80.12"/>
<text text-anchor="middle" x="1987.25" y="-66.62" font-family="Helvetica,sans-Serif" font-size="10.00">sgui/Core/Interpolation.tpp</text>
</a>
</g>
</g>
<!-- Node30&#45;&gt;Node33 -->
<g id="edge46_Node000030_Node000033" class="edge">
<title>Node30&#45;&gt;Node33</title>
<g id="a_edge46_Node000030_Node000033"><a xlink:title=" ">
<path fill="none" stroke="#63b8ff" d="M1889.96,-127.03C1908.49,-116.45 1939.56,-98.72 1961.6,-86.14"/>
<polygon fill="#63b8ff" stroke="#63b8ff" points="1963.04,-89.35 1969.99,-81.35 1959.57,-83.27 1963.04,-89.35"/>
</a>
</g>
</g>
<!-- Node34&#45;&gt;Node28 -->
<g id="edge49_Node000034_Node000028" class="edge">
<title>Node34&#45;&gt;Node28</title>
<g id="a_edge49_Node000034_Node000028"><a xlink:title=" ">
<path fill="none" stroke="#63b8ff" d="M1858.09,-187.86C1827.61,-176.76 1786.09,-161.63 1756.81,-150.96"/>
<polygon fill="#63b8ff" stroke="#63b8ff" points="1758.25,-147.76 1747.65,-147.62 1755.85,-154.33 1758.25,-147.76"/>
</a>
</g>
</g>
<!-- Node35 -->
<g id="Node000035" class="node">
<title>Node35</title>
<g id="a_Node000035"><a xlink:title=" ">
<polygon fill="#e0e0e0" stroke="#999999" points="2464.75,-80.12 2367.75,-80.12 2367.75,-60.88 2464.75,-60.88 2464.75,-80.12"/>
<text text-anchor="middle" x="2416.25" y="-66.62" font-family="Helvetica,sans-Serif" font-size="10.00">nlohmann/json.hpp</text>
</a>
</g>
</g>
<!-- Node34&#45;&gt;Node35 -->
<g id="edge48_Node000034_Node000035" class="edge">
<title>Node34&#45;&gt;Node35</title>
<g id="a_edge48_Node000034_Node000035"><a xlink:title=" ">
<path fill="none" stroke="#63b8ff" d="M1950.06,-192.23C1997.22,-182.66 2068.67,-167.6 2130.25,-152.25 2218.3,-130.31 2320.36,-100.4 2375.62,-83.83"/>
<polygon fill="#63b8ff" stroke="#63b8ff" points="2376.34,-87.27 2384.91,-81.04 2374.32,-80.56 2376.34,-87.27"/>
</a>
</g>
</g>
<!-- Node36 -->
<g id="Node000036" class="node">
<title>Node36</title>
<g id="a_Node000036"><a xlink:href="_serialize_s_f_m_l_8h.html" target="_top" xlink:title=" ">
<polygon fill="white" stroke="#666666" points="2121.38,-152.25 2031.12,-152.25 2031.12,-121.75 2121.38,-121.75 2121.38,-152.25"/>
<text text-anchor="start" x="2039.12" y="-138.75" font-family="Helvetica,sans-Serif" font-size="10.00">sgui/Serialization</text>
<text text-anchor="middle" x="2076.25" y="-127.5" font-family="Helvetica,sans-Serif" font-size="10.00">/SerializeSFML.h</text>
</a>
</g>
</g>
<!-- Node34&#45;&gt;Node36 -->
<g id="edge50_Node000034_Node000036" class="edge">
<title>Node34&#45;&gt;Node36</title>
<g id="a_edge50_Node000034_Node000036"><a xlink:title=" ">
<path fill="none" stroke="#63b8ff" d="M1938.64,-187.86C1964.27,-178.58 1997.65,-166.48 2025.12,-156.53"/>
<polygon fill="#63b8ff" stroke="#63b8ff" points="2026.08,-159.9 2034.29,-153.21 2023.69,-153.32 2026.08,-159.9"/>
</a>
</g>
</g>
<!-- Node36&#45;&gt;Node16 -->
<g id="edge53_Node000036_Node000016" class="edge">
<title>Node36&#45;&gt;Node16</title>
<g id="a_edge53_Node000036_Node000016"><a xlink:title=" ">
<path fill="none" stroke="#63b8ff" d="M2030.78,-126.69C1974.16,-115.1 1877.5,-95.3 1816.62,-82.84"/>
<polygon fill="#63b8ff" stroke="#63b8ff" points="1817.67,-79.48 1807.17,-80.9 1816.26,-86.34 1817.67,-79.48"/>
</a>
</g>
</g>
<!-- Node36&#45;&gt;Node25 -->
<g id="edge52_Node000036_Node000025" class="edge">
<title>Node36&#45;&gt;Node25</title>
<g id="a_edge52_Node000036_Node000025"><a xlink:title=" ">
<path fill="none" stroke="#63b8ff" d="M2030.78,-130.71C2005.34,-127.84 1973.06,-124.37 1944.25,-121.75 1728.11,-102.1 1672.32,-114.87 1457.25,-85.75 1450.86,-84.88 1444.18,-83.8 1437.58,-82.63"/>
<polygon fill="#63b8ff" stroke="#63b8ff" points="1438.57,-79.25 1428.09,-80.86 1437.28,-86.13 1438.57,-79.25"/>
</a>
</g>
</g>
<!-- Node36&#45;&gt;Node35 -->
<g id="edge51_Node000036_Node000035" class="edge">
<title>Node36&#45;&gt;Node35</title>
<g id="a_edge51_Node000036_Node000035"><a xlink:title=" ">
<path fill="none" stroke="#63b8ff" d="M2121.53,-128.95C2177.57,-120 2275.8,-103.57 2359.25,-85.75 2363,-84.95 2366.89,-84.07 2370.78,-83.17"/>
<polygon fill="#63b8ff" stroke="#63b8ff" points="2371.3,-86.64 2380.2,-80.9 2369.66,-79.84 2371.3,-86.64"/>
</a>
</g>
</g>
<!-- Node37 -->
<g id="Node000037" class="node">
<title>Node37</title>
<g id="a_Node000037"><a xlink:title=" ">
<polygon fill="#e0e0e0" stroke="#999999" points="2350.12,-80.12 2216.38,-80.12 2216.38,-60.88 2350.12,-60.88 2350.12,-80.12"/>
<text text-anchor="middle" x="2283.25" y="-66.62" font-family="Helvetica,sans-Serif" font-size="10.00">SFML/System/Vector3.hpp</text>
</a>
</g>
</g>
<!-- Node36&#45;&gt;Node37 -->
<g id="edge54_Node000036_Node000037" class="edge">
<title>Node36&#45;&gt;Node37</title>
<g id="a_edge54_Node000036_Node000037"><a xlink:title=" ">
<path fill="none" stroke="#63b8ff" d="M2121.68,-121.85C2158.08,-110.5 2208.66,-94.74 2243.48,-83.89"/>
<polygon fill="#63b8ff" stroke="#63b8ff" points="2244.24,-87.32 2252.75,-81 2242.16,-80.64 2244.24,-87.32"/>
</a>
</g>
</g>
<!-- Node38 -->
<g id="Node000038" class="node">
<title>Node38</title>
<g id="a_Node000038"><a xlink:href="_macro_8h.html" target="_top" xlink:title=" ">
<polygon fill="white" stroke="#666666" points="2198,-85.75 2108.5,-85.75 2108.5,-55.25 2198,-55.25 2198,-85.75"/>
<text text-anchor="start" x="2116.5" y="-72.25" font-family="Helvetica,sans-Serif" font-size="10.00">sgui/Serialization</text>
<text text-anchor="middle" x="2153.25" y="-61" font-family="Helvetica,sans-Serif" font-size="10.00">/Macro.h</text>
</a>
</g>
</g>
<!-- Node36&#45;&gt;Node38 -->
<g id="edge55_Node000036_Node000038" class="edge">
<title>Node36&#45;&gt;Node38</title>
<g id="a_edge55_Node000036_Node000038"><a xlink:title=" ">
<path fill="none" stroke="#63b8ff" d="M2093.72,-121.36C2103.57,-113.12 2116.06,-102.65 2127.05,-93.44"/>
<polygon fill="#63b8ff" stroke="#63b8ff" points="2129.27,-96.15 2134.69,-87.05 2124.77,-90.79 2129.27,-96.15"/>
</a>
</g>
</g>
</g>
</svg>
