<?xml version="1.0" encoding="UTF-8" standalone="no"?>
<!DOCTYPE svg PUBLIC "-//W3C//DTD SVG 1.1//EN"
 "http://www.w3.org/Graphics/SVG/1.1/DTD/svg11.dtd">
<!-- Generated by graphviz version 12.2.1 (20241206.2353)
 -->
<!-- Title: /github/workspace/src/sgui/Render/GuiRender.cpp Pages: 1 -->
<svg width="2570pt" height="293pt"
 viewBox="0.00 0.00 2570.23 293.25" xmlns="http://www.w3.org/2000/svg" xmlns:xlink="http://www.w3.org/1999/xlink">
<g id="graph0" class="graph" transform="scale(1 1) rotate(0) translate(4 289.25)">
<title>/github/workspace/src/sgui/Render/GuiRender.cpp</title>
<!-- Node1 -->
<g id="Node000001" class="node">
<title>Node1</title>
<g id="a_Node000001"><a xlink:title=" ">
<polygon fill="#999999" stroke="#666666" points="1174.48,-285.25 1036.98,-285.25 1036.98,-254.75 1174.48,-254.75 1174.48,-285.25"/>
<text text-anchor="start" x="1044.98" y="-271.75" font-family="Helvetica,sans-Serif" font-size="10.00">/github/workspace/src</text>
<text text-anchor="middle" x="1105.73" y="-260.5" font-family="Helvetica,sans-Serif" font-size="10.00">/sgui/Render/GuiRender.cpp</text>
</a>
</g>
</g>
<!-- Node2 -->
<g id="Node000002" class="node">
<title>Node2</title>
<g id="a_Node000002"><a xlink:title=" ">
<polygon fill="#e0e0e0" stroke="#999999" points="875.98,-213.12 711.48,-213.12 711.48,-193.88 875.98,-193.88 875.98,-213.12"/>
<text text-anchor="middle" x="793.73" y="-199.62" font-family="Helvetica,sans-Serif" font-size="10.00">SFML/Graphics/RenderTarget.hpp</text>
</a>
</g>
</g>
<!-- Node1&#45;&gt;Node2 -->
<g id="edge1_Node000001_Node000002" class="edge">
<title>Node1&#45;&gt;Node2</title>
<g id="a_edge1_Node000001_Node000002"><a xlink:title=" ">
<path fill="none" stroke="#63b8ff" d="M1036.49,-254.69C979.96,-243 901.14,-226.7 848.83,-215.89"/>
<polygon fill="#63b8ff" stroke="#63b8ff" points="849.74,-212.51 839.24,-213.91 848.33,-219.36 849.74,-212.51"/>
</a>
</g>
</g>
<!-- Node3 -->
<g id="Node000003" class="node">
<title>Node3</title>
<g id="a_Node000003"><a xlink:href="_gui_render_8h.html" target="_top" xlink:title=" ">
<polygon fill="white" stroke="#666666" points="1017.73,-213.12 893.73,-213.12 893.73,-193.88 1017.73,-193.88 1017.73,-213.12"/>
<text text-anchor="middle" x="955.73" y="-199.62" font-family="Helvetica,sans-Serif" font-size="10.00">sgui/Render/GuiRender.h</text>
</a>
</g>
</g>
<!-- Node1&#45;&gt;Node3 -->
<g id="edge2_Node000001_Node000003" class="edge">
<title>Node1&#45;&gt;Node3</title>
<g id="a_edge2_Node000001_Node000003"><a xlink:title=" ">
<path fill="none" stroke="#63b8ff" d="M1071.69,-254.36C1046.24,-243.42 1011.72,-228.57 986.97,-217.93"/>
<polygon fill="#63b8ff" stroke="#63b8ff" points="988.64,-214.84 978.07,-214.11 985.88,-221.27 988.64,-214.84"/>
</a>
</g>
</g>
<!-- Node30 -->
<g id="Node000030" class="node">
<title>Node30</title>
<g id="a_Node000030"><a xlink:href="_interpolation_8h.html" target="_top" xlink:title=" ">
<polygon fill="white" stroke="#666666" points="1759.23,-146.62 1638.23,-146.62 1638.23,-127.38 1759.23,-127.38 1759.23,-146.62"/>
<text text-anchor="middle" x="1698.73" y="-133.12" font-family="Helvetica,sans-Serif" font-size="10.00">sgui/Core/Interpolation.h</text>
</a>
</g>
</g>
<!-- Node1&#45;&gt;Node30 -->
<g id="edge41_Node000001_Node000030" class="edge">
<title>Node1&#45;&gt;Node30</title>
<g id="a_edge41_Node000001_Node000030"><a xlink:title=" ">
<path fill="none" stroke="#63b8ff" d="M1172.32,-254.29C1291.42,-227.98 1538.56,-173.38 1646.45,-149.55"/>
<polygon fill="#63b8ff" stroke="#63b8ff" points="1647.19,-152.97 1656.2,-147.4 1645.68,-146.14 1647.19,-152.97"/>
</a>
</g>
</g>
<!-- Node34 -->
<g id="Node000034" class="node">
<title>Node34</title>
<g id="a_Node000034"><a xlink:href="_load_texture_atlas_8h.html" target="_top" xlink:title=" ">
<polygon fill="white" stroke="#666666" points="1818.23,-218.75 1715.23,-218.75 1715.23,-188.25 1818.23,-188.25 1818.23,-218.75"/>
<text text-anchor="start" x="1723.23" y="-205.25" font-family="Helvetica,sans-Serif" font-size="10.00">sgui/Serialization</text>
<text text-anchor="middle" x="1766.73" y="-194" font-family="Helvetica,sans-Serif" font-size="10.00">/LoadTextureAtlas.h</text>
</a>
</g>
</g>
<!-- Node1&#45;&gt;Node34 -->
<g id="edge47_Node000001_Node000034" class="edge">
<title>Node1&#45;&gt;Node34</title>
<g id="a_edge47_Node000001_Node000034"><a xlink:title=" ">
<path fill="none" stroke="#63b8ff" d="M1174.91,-262.25C1303.97,-249.66 1579.58,-222.76 1703.77,-210.64"/>
<polygon fill="#63b8ff" stroke="#63b8ff" points="1703.83,-214.15 1713.44,-209.7 1703.15,-207.19 1703.83,-214.15"/>
</a>
</g>
</g>
<!-- Node4 -->
<g id="Node000004" class="node">
<title>Node4</title>
<g id="a_Node000004"><a xlink:title=" ">
<polygon fill="#e0e0e0" stroke="#999999" points="979.23,-80.12 936.23,-80.12 936.23,-60.88 979.23,-60.88 979.23,-80.12"/>
<text text-anchor="middle" x="957.73" y="-66.62" font-family="Helvetica,sans-Serif" font-size="10.00">vector</text>
</a>
</g>
</g>
<!-- Node3&#45;&gt;Node4 -->
<g id="edge3_Node000003_Node000004" class="edge">
<title>Node3&#45;&gt;Node4</title>
<g id="a_edge3_Node000003_Node000004"><a xlink:title=" ">
<path fill="none" stroke="#63b8ff" d="M955.87,-193.5C956.19,-172.65 956.98,-120.64 957.42,-91.72"/>
<polygon fill="#63b8ff" stroke="#63b8ff" points="960.92,-92.13 957.57,-82.08 953.92,-92.03 960.92,-92.13"/>
</a>
</g>
</g>
<!-- Node5 -->
<g id="Node000005" class="node">
<title>Node5</title>
<g id="a_Node000005"><a xlink:title=" ">
<polygon fill="#e0e0e0" stroke="#999999" points="141.48,-146.62 15.98,-146.62 15.98,-127.38 141.48,-127.38 141.48,-146.62"/>
<text text-anchor="middle" x="78.73" y="-133.12" font-family="Helvetica,sans-Serif" font-size="10.00">SFML/Graphics/Font.hpp</text>
</a>
</g>
</g>
<!-- Node3&#45;&gt;Node5 -->
<g id="edge4_Node000003_Node000005" class="edge">
<title>Node3&#45;&gt;Node5</title>
<g id="a_edge4_Node000003_Node000005"><a xlink:title=" ">
<path fill="none" stroke="#63b8ff" d="M915.72,-193.39C905.66,-191.39 894.84,-189.5 884.73,-188.25 560.61,-148 474.91,-192.06 150.73,-152.25 144.17,-151.44 137.31,-150.38 130.54,-149.19"/>
<polygon fill="#63b8ff" stroke="#63b8ff" points="131.26,-145.77 120.79,-147.39 129.99,-152.65 131.26,-145.77"/>
</a>
</g>
</g>
<!-- Node6 -->
<g id="Node000006" class="node">
<title>Node6</title>
<g id="a_Node000006"><a xlink:title=" ">
<polygon fill="#e0e0e0" stroke="#999999" points="280.61,-80.12 152.86,-80.12 152.86,-60.88 280.61,-60.88 280.61,-80.12"/>
<text text-anchor="middle" x="216.73" y="-66.62" font-family="Helvetica,sans-Serif" font-size="10.00">SFML/Graphics/View.hpp</text>
</a>
</g>
</g>
<!-- Node3&#45;&gt;Node6 -->
<g id="edge5_Node000003_Node000006" class="edge">
<title>Node3&#45;&gt;Node6</title>
<g id="a_edge5_Node000003_Node000006"><a xlink:title=" ">
<path fill="none" stroke="#63b8ff" d="M916.1,-193.4C905.93,-191.38 894.97,-189.48 884.73,-188.25 836.26,-182.43 40.54,-187.47 6.73,-152.25 -2.66,-142.47 -1.67,-132.39 6.73,-121.75 11.62,-115.55 101.06,-95.74 161.63,-82.92"/>
<polygon fill="#63b8ff" stroke="#63b8ff" points="162.03,-86.42 171.09,-80.93 160.59,-79.57 162.03,-86.42"/>
</a>
</g>
</g>
<!-- Node7 -->
<g id="Node000007" class="node">
<title>Node7</title>
<g id="a_Node000007"><a xlink:title=" ">
<polygon fill="#e0e0e0" stroke="#999999" points="403.11,-146.62 278.36,-146.62 278.36,-127.38 403.11,-127.38 403.11,-146.62"/>
<text text-anchor="middle" x="340.73" y="-133.12" font-family="Helvetica,sans-Serif" font-size="10.00">SFML/Graphics/Text.hpp</text>
</a>
</g>
</g>
<!-- Node3&#45;&gt;Node7 -->
<g id="edge6_Node000003_Node000007" class="edge">
<title>Node3&#45;&gt;Node7</title>
<g id="a_edge6_Node000003_Node000007"><a xlink:title=" ">
<path fill="none" stroke="#63b8ff" d="M914.95,-193.43C905.1,-191.48 894.57,-189.61 884.73,-188.25 676.32,-159.5 621.18,-180.72 412.73,-152.25 406.34,-151.38 399.66,-150.29 393.06,-149.11"/>
<polygon fill="#63b8ff" stroke="#63b8ff" points="394.05,-145.74 383.58,-147.34 392.76,-152.62 394.05,-145.74"/>
</a>
</g>
</g>
<!-- Node8 -->
<g id="Node000008" class="node">
<title>Node8</title>
<g id="a_Node000008"><a xlink:title=" ">
<polygon fill="#e0e0e0" stroke="#999999" points="567.98,-146.62 421.48,-146.62 421.48,-127.38 567.98,-127.38 567.98,-146.62"/>
<text text-anchor="middle" x="494.73" y="-133.12" font-family="Helvetica,sans-Serif" font-size="10.00">SFML/Graphics/Drawable.hpp</text>
</a>
</g>
</g>
<!-- Node3&#45;&gt;Node8 -->
<g id="edge7_Node000003_Node000008" class="edge">
<title>Node3&#45;&gt;Node8</title>
<g id="a_edge7_Node000003_Node000008"><a xlink:title=" ">
<path fill="none" stroke="#63b8ff" d="M913.41,-193.42C903.99,-191.56 894.04,-189.73 884.73,-188.25 748.61,-166.67 713.12,-172.06 576.73,-152.25 569.96,-151.27 562.89,-150.16 555.87,-149.01"/>
<polygon fill="#63b8ff" stroke="#63b8ff" points="556.46,-145.56 546.02,-147.36 555.3,-152.46 556.46,-145.56"/>
</a>
</g>
</g>
<!-- Node9 -->
<g id="Node000009" class="node">
<title>Node9</title>
<g id="a_Node000009"><a xlink:title=" ">
<polygon fill="#e0e0e0" stroke="#999999" points="741.86,-146.62 585.61,-146.62 585.61,-127.38 741.86,-127.38 741.86,-146.62"/>
<text text-anchor="middle" x="663.73" y="-133.12" font-family="Helvetica,sans-Serif" font-size="10.00">SFML/Graphics/VertexArray.hpp</text>
</a>
</g>
</g>
<!-- Node3&#45;&gt;Node9 -->
<g id="edge8_Node000003_Node000009" class="edge">
<title>Node3&#45;&gt;Node9</title>
<g id="a_edge8_Node000003_Node000009"><a xlink:title=" ">
<path fill="none" stroke="#63b8ff" d="M914.51,-193.4C862.34,-181.87 772.44,-162.01 715.64,-149.47"/>
<polygon fill="#63b8ff" stroke="#63b8ff" points="716.74,-146.12 706.22,-147.38 715.23,-152.96 716.74,-146.12"/>
</a>
</g>
</g>
<!-- Node10 -->
<g id="Node000010" class="node">
<title>Node10</title>
<g id="a_Node000010"><a xlink:title=" ">
<polygon fill="#e0e0e0" stroke="#999999" points="927.86,-146.62 759.61,-146.62 759.61,-127.38 927.86,-127.38 927.86,-146.62"/>
<text text-anchor="middle" x="843.73" y="-133.12" font-family="Helvetica,sans-Serif" font-size="10.00">SFML/Graphics/Transformable.hpp</text>
</a>
</g>
</g>
<!-- Node3&#45;&gt;Node10 -->
<g id="edge9_Node000003_Node000010" class="edge">
<title>Node3&#45;&gt;Node10</title>
<g id="a_edge9_Node000003_Node000010"><a xlink:title=" ">
<path fill="none" stroke="#63b8ff" d="M940.16,-193.53C921.87,-183 891.27,-165.38 869.45,-152.81"/>
<polygon fill="#63b8ff" stroke="#63b8ff" points="871.26,-149.81 860.84,-147.86 867.76,-155.88 871.26,-149.81"/>
</a>
</g>
</g>
<!-- Node11 -->
<g id="Node000011" class="node">
<title>Node11</title>
<g id="a_Node000011"><a xlink:href="_shapes_8h.html" target="_top" xlink:title=" ">
<polygon fill="white" stroke="#666666" points="260.11,-146.62 159.36,-146.62 159.36,-127.38 260.11,-127.38 260.11,-146.62"/>
<text text-anchor="middle" x="209.73" y="-133.12" font-family="Helvetica,sans-Serif" font-size="10.00">sgui/Core/Shapes.h</text>
</a>
</g>
</g>
<!-- Node3&#45;&gt;Node11 -->
<g id="edge10_Node000003_Node000011" class="edge">
<title>Node3&#45;&gt;Node11</title>
<g id="a_edge10_Node000003_Node000011"><a xlink:title=" ">
<path fill="none" stroke="#63b8ff" d="M915.34,-193.38C905.38,-191.41 894.71,-189.54 884.73,-188.25 613.18,-153.23 540.63,-192.04 269.73,-152.25 264.77,-151.52 259.62,-150.58 254.51,-149.53"/>
<polygon fill="#63b8ff" stroke="#63b8ff" points="255.48,-146.17 244.96,-147.43 253.97,-153 255.48,-146.17"/>
</a>
</g>
</g>
<!-- Node15 -->
<g id="Node000015" class="node">
<title>Node15</title>
<g id="a_Node000015"><a xlink:href="_draw_options_8h.html" target="_top" xlink:title=" ">
<polygon fill="white" stroke="#666666" points="2056.98,-146.62 1922.48,-146.62 1922.48,-127.38 2056.98,-127.38 2056.98,-146.62"/>
<text text-anchor="middle" x="1989.73" y="-133.12" font-family="Helvetica,sans-Serif" font-size="10.00">sgui/Render/DrawOptions.h</text>
</a>
</g>
</g>
<!-- Node3&#45;&gt;Node15 -->
<g id="edge15_Node000003_Node000015" class="edge">
<title>Node3&#45;&gt;Node15</title>
<g id="a_edge15_Node000003_Node000015"><a xlink:title=" ">
<path fill="none" stroke="#63b8ff" d="M1018.21,-198.7C1154.5,-190.38 1488.76,-169.93 1768.73,-152.25 1815.83,-149.28 1868.57,-145.88 1910.71,-143.15"/>
<polygon fill="#63b8ff" stroke="#63b8ff" points="1910.76,-146.65 1920.52,-142.51 1910.31,-139.66 1910.76,-146.65"/>
</a>
</g>
</g>
<!-- Node20 -->
<g id="Node000020" class="node">
<title>Node20</title>
<g id="a_Node000020"><a xlink:href="_texture_meshes_8h.html" target="_top" xlink:title=" ">
<polygon fill="white" stroke="#666666" points="1453.23,-146.62 1308.23,-146.62 1308.23,-127.38 1453.23,-127.38 1453.23,-146.62"/>
<text text-anchor="middle" x="1380.73" y="-133.12" font-family="Helvetica,sans-Serif" font-size="10.00">sgui/Render/TextureMeshes.h</text>
</a>
</g>
</g>
<!-- Node3&#45;&gt;Node20 -->
<g id="edge21_Node000003_Node000020" class="edge">
<title>Node3&#45;&gt;Node20</title>
<g id="a_edge21_Node000003_Node000020"><a xlink:title=" ">
<path fill="none" stroke="#63b8ff" d="M1018.08,-193.87C1086.88,-184.24 1200.82,-167.93 1298.73,-152.25 1305.13,-151.23 1311.8,-150.12 1318.46,-149"/>
<polygon fill="#63b8ff" stroke="#63b8ff" points="1318.83,-152.49 1328.1,-147.36 1317.65,-145.59 1318.83,-152.49"/>
</a>
</g>
</g>
<!-- Node24 -->
<g id="Node000024" class="node">
<title>Node24</title>
<g id="a_Node000024"><a xlink:href="_mesh_functions_8h.html" target="_top" xlink:title=" ">
<polygon fill="white" stroke="#666666" points="1129.23,-146.62 984.23,-146.62 984.23,-127.38 1129.23,-127.38 1129.23,-146.62"/>
<text text-anchor="middle" x="1056.73" y="-133.12" font-family="Helvetica,sans-Serif" font-size="10.00">sgui/Render/MeshFunctions.h</text>
</a>
</g>
</g>
<!-- Node3&#45;&gt;Node24 -->
<g id="edge26_Node000003_Node000024" class="edge">
<title>Node3&#45;&gt;Node24</title>
<g id="a_edge26_Node000003_Node000024"><a xlink:title=" ">
<path fill="none" stroke="#63b8ff" d="M969.77,-193.53C986.11,-183.1 1013.36,-165.7 1033,-153.15"/>
<polygon fill="#63b8ff" stroke="#63b8ff" points="1034.66,-156.25 1041.2,-147.91 1030.89,-150.35 1034.66,-156.25"/>
</a>
</g>
</g>
<!-- Node26 -->
<g id="Node000026" class="node">
<title>Node26</title>
<g id="a_Node000026"><a xlink:href="_clipping_layers_8h.html" target="_top" xlink:title=" ">
<polygon fill="white" stroke="#666666" points="1289.73,-146.62 1147.73,-146.62 1147.73,-127.38 1289.73,-127.38 1289.73,-146.62"/>
<text text-anchor="middle" x="1218.73" y="-133.12" font-family="Helvetica,sans-Serif" font-size="10.00">sgui/Render/ClippingLayers.h</text>
</a>
</g>
</g>
<!-- Node3&#45;&gt;Node26 -->
<g id="edge30_Node000003_Node000026" class="edge">
<title>Node3&#45;&gt;Node26</title>
<g id="a_edge30_Node000003_Node000026"><a xlink:title=" ">
<path fill="none" stroke="#63b8ff" d="M992.85,-193.4C1039.45,-181.97 1119.47,-162.34 1170.7,-149.78"/>
<polygon fill="#63b8ff" stroke="#63b8ff" points="1171.45,-153.2 1180.33,-147.42 1169.78,-146.4 1171.45,-153.2"/>
</a>
</g>
</g>
<!-- Node28 -->
<g id="Node000028" class="node">
<title>Node28</title>
<g id="a_Node000028"><a xlink:href="_texture_atlas_8h.html" target="_top" xlink:title=" ">
<polygon fill="white" stroke="#666666" points="1620.11,-146.62 1471.36,-146.62 1471.36,-127.38 1620.11,-127.38 1620.11,-146.62"/>
<text text-anchor="middle" x="1545.73" y="-133.12" font-family="Helvetica,sans-Serif" font-size="10.00">sgui/Resources/TextureAtlas.h</text>
</a>
</g>
</g>
<!-- Node3&#45;&gt;Node28 -->
<g id="edge35_Node000003_Node000028" class="edge">
<title>Node3&#45;&gt;Node28</title>
<g id="a_edge35_Node000003_Node000028"><a xlink:title=" ">
<path fill="none" stroke="#63b8ff" d="M1017.95,-197.77C1113.73,-190.16 1302.98,-173.85 1462.73,-152.25 1469.95,-151.27 1477.5,-150.14 1484.98,-148.94"/>
<polygon fill="#63b8ff" stroke="#63b8ff" points="1485.43,-152.42 1494.73,-147.34 1484.3,-145.51 1485.43,-152.42"/>
</a>
</g>
</g>
<!-- Node11&#45;&gt;Node4 -->
<g id="edge12_Node000011_Node000004" class="edge">
<title>Node11&#45;&gt;Node4</title>
<g id="a_edge12_Node000011_Node000004"><a xlink:title=" ">
<path fill="none" stroke="#63b8ff" d="M243.81,-126.9C252.23,-124.93 261.26,-123.05 269.73,-121.75 490.38,-87.85 548.1,-102.23 770.73,-85.75 824.64,-81.76 887.28,-76.95 924.65,-74.06"/>
<polygon fill="#63b8ff" stroke="#63b8ff" points="924.64,-77.58 934.34,-73.31 924.1,-70.6 924.64,-77.58"/>
</a>
</g>
</g>
<!-- Node12 -->
<g id="Node000012" class="node">
<title>Node12</title>
<g id="a_Node000012"><a xlink:title=" ">
<polygon fill="#e0e0e0" stroke="#999999" points="762.23,-80.12 725.23,-80.12 725.23,-60.88 762.23,-60.88 762.23,-80.12"/>
<text text-anchor="middle" x="743.73" y="-66.62" font-family="Helvetica,sans-Serif" font-size="10.00">array</text>
</a>
</g>
</g>
<!-- Node11&#45;&gt;Node12 -->
<g id="edge11_Node000011_Node000012" class="edge">
<title>Node11&#45;&gt;Node12</title>
<g id="a_edge11_Node000011_Node000012"><a xlink:title=" ">
<path fill="none" stroke="#63b8ff" d="M244.79,-126.88C252.94,-124.98 261.6,-123.14 269.73,-121.75 436.24,-93.27 638.59,-78.26 713.75,-73.34"/>
<polygon fill="#63b8ff" stroke="#63b8ff" points="713.83,-76.85 723.58,-72.71 713.38,-69.86 713.83,-76.85"/>
</a>
</g>
</g>
<!-- Node13 -->
<g id="Node000013" class="node">
<title>Node13</title>
<g id="a_Node000013"><a xlink:title=" ">
<polygon fill="#e0e0e0" stroke="#999999" points="134.61,-80.12 0.86,-80.12 0.86,-60.88 134.61,-60.88 134.61,-80.12"/>
<text text-anchor="middle" x="67.73" y="-66.62" font-family="Helvetica,sans-Serif" font-size="10.00">SFML/System/Vector2.hpp</text>
</a>
</g>
</g>
<!-- Node11&#45;&gt;Node13 -->
<g id="edge13_Node000011_Node000013" class="edge">
<title>Node11&#45;&gt;Node13</title>
<g id="a_edge13_Node000011_Node000013"><a xlink:title=" ">
<path fill="none" stroke="#63b8ff" d="M189.69,-126.9C165.79,-116.04 125.63,-97.8 97.96,-85.23"/>
<polygon fill="#63b8ff" stroke="#63b8ff" points="99.6,-82.13 89.05,-81.18 96.71,-88.51 99.6,-82.13"/>
</a>
</g>
</g>
<!-- Node14 -->
<g id="Node000014" class="node">
<title>Node14</title>
<g id="a_Node000014"><a xlink:href="_shapes_8tpp.html" target="_top" xlink:title=" ">
<polygon fill="white" stroke="#666666" points="407.23,-80.12 298.23,-80.12 298.23,-60.88 407.23,-60.88 407.23,-80.12"/>
<text text-anchor="middle" x="352.73" y="-66.62" font-family="Helvetica,sans-Serif" font-size="10.00">sgui/Core/Shapes.tpp</text>
</a>
</g>
</g>
<!-- Node11&#45;&gt;Node14 -->
<g id="edge14_Node000011_Node000014" class="edge">
<title>Node11&#45;&gt;Node14</title>
<g id="a_edge14_Node000011_Node000014"><a xlink:title=" ">
<path fill="none" stroke="#63b8ff" d="M229.92,-126.9C253.98,-116.04 294.42,-97.8 322.28,-85.23"/>
<polygon fill="#63b8ff" stroke="#63b8ff" points="323.59,-88.48 331.27,-81.18 320.71,-82.1 323.59,-88.48"/>
</a>
</g>
</g>
<!-- Node16 -->
<g id="Node000016" class="node">
<title>Node16</title>
<g id="a_Node000016"><a xlink:title=" ">
<polygon fill="#e0e0e0" stroke="#999999" points="2187.98,-80.12 2059.48,-80.12 2059.48,-60.88 2187.98,-60.88 2187.98,-80.12"/>
<text text-anchor="middle" x="2123.73" y="-66.62" font-family="Helvetica,sans-Serif" font-size="10.00">SFML/Graphics/Color.hpp</text>
</a>
</g>
</g>
<!-- Node15&#45;&gt;Node16 -->
<g id="edge16_Node000015_Node000016" class="edge">
<title>Node15&#45;&gt;Node16</title>
<g id="a_edge16_Node000015_Node000016"><a xlink:title=" ">
<path fill="none" stroke="#63b8ff" d="M2008.65,-126.9C2031.09,-116.09 2068.76,-97.96 2094.85,-85.4"/>
<polygon fill="#63b8ff" stroke="#63b8ff" points="2096.06,-88.71 2103.55,-81.21 2093.02,-82.4 2096.06,-88.71"/>
</a>
</g>
</g>
<!-- Node17 -->
<g id="Node000017" class="node">
<title>Node17</title>
<g id="a_Node000017"><a xlink:href="_item_states_8h.html" target="_top" xlink:title=" ">
<polygon fill="white" stroke="#666666" points="2097.11,-19.25 1966.36,-19.25 1966.36,0 2097.11,0 2097.11,-19.25"/>
<text text-anchor="middle" x="2031.73" y="-5.75" font-family="Helvetica,sans-Serif" font-size="10.00">sgui/Widgets/ItemStates.h</text>
</a>
</g>
</g>
<!-- Node15&#45;&gt;Node17 -->
<g id="edge17_Node000015_Node000017" class="edge">
<title>Node15&#45;&gt;Node17</title>
<g id="a_edge17_Node000015_Node000017"><a xlink:title=" ">
<path fill="none" stroke="#63b8ff" d="M1994.48,-126.95C1999.54,-117.04 2007.51,-100.59 2012.73,-85.75 2019.15,-67.51 2024.35,-46.07 2027.68,-30.77"/>
<polygon fill="#63b8ff" stroke="#63b8ff" points="2031.09,-31.55 2029.71,-21.05 2024.24,-30.12 2031.09,-31.55"/>
</a>
</g>
</g>
<!-- Node18 -->
<g id="Node000018" class="node">
<title>Node18</title>
<g id="a_Node000018"><a xlink:href="_aspect_8h.html" target="_top" xlink:title=" ">
<polygon fill="white" stroke="#666666" points="2003.48,-80.12 1889.98,-80.12 1889.98,-60.88 2003.48,-60.88 2003.48,-80.12"/>
<text text-anchor="middle" x="1946.73" y="-66.62" font-family="Helvetica,sans-Serif" font-size="10.00">sgui/Widgets/Aspect.h</text>
</a>
</g>
</g>
<!-- Node15&#45;&gt;Node18 -->
<g id="edge18_Node000015_Node000018" class="edge">
<title>Node15&#45;&gt;Node18</title>
<g id="a_edge18_Node000015_Node000018"><a xlink:title=" ">
<path fill="none" stroke="#63b8ff" d="M1983.75,-127.03C1977.33,-117.4 1966.96,-101.85 1958.83,-89.65"/>
<polygon fill="#63b8ff" stroke="#63b8ff" points="1961.96,-88.03 1953.5,-81.65 1956.13,-91.91 1961.96,-88.03"/>
</a>
</g>
</g>
<!-- Node18&#45;&gt;Node17 -->
<g id="edge20_Node000018_Node000017" class="edge">
<title>Node18&#45;&gt;Node17</title>
<g id="a_edge20_Node000018_Node000017"><a xlink:title=" ">
<path fill="none" stroke="#63b8ff" d="M1959.64,-60.56C1972.87,-51.39 1993.7,-36.97 2009.57,-25.98"/>
<polygon fill="#63b8ff" stroke="#63b8ff" points="2011.23,-29.08 2017.46,-20.51 2007.24,-23.33 2011.23,-29.08"/>
</a>
</g>
</g>
<!-- Node19 -->
<g id="Node000019" class="node">
<title>Node19</title>
<g id="a_Node000019"><a xlink:href="_widgets_8h.html" target="_top" xlink:title=" ">
<polygon fill="white" stroke="#666666" points="1948.73,-19.25 1830.73,-19.25 1830.73,0 1948.73,0 1948.73,-19.25"/>
<text text-anchor="middle" x="1889.73" y="-5.75" font-family="Helvetica,sans-Serif" font-size="10.00">sgui/Widgets/Widgets.h</text>
</a>
</g>
</g>
<!-- Node18&#45;&gt;Node19 -->
<g id="edge19_Node000018_Node000019" class="edge">
<title>Node18&#45;&gt;Node19</title>
<g id="a_edge19_Node000018_Node000019"><a xlink:title=" ">
<path fill="none" stroke="#63b8ff" d="M1938.07,-60.56C1929.7,-51.91 1916.8,-38.59 1906.43,-27.87"/>
<polygon fill="#63b8ff" stroke="#63b8ff" points="1908.99,-25.49 1899.52,-20.74 1903.96,-30.36 1908.99,-25.49"/>
</a>
</g>
</g>
<!-- Node20&#45;&gt;Node4 -->
<g id="edge22_Node000020_Node000004" class="edge">
<title>Node20&#45;&gt;Node4</title>
<g id="a_edge22_Node000020_Node000004"><a xlink:title=" ">
<path fill="none" stroke="#63b8ff" d="M1330.93,-126.9C1320.32,-125.09 1309.17,-123.27 1298.73,-121.75 1164.1,-102.1 1126.8,-118.45 994.73,-85.75 992.98,-85.32 991.19,-84.82 989.41,-84.28"/>
<polygon fill="#63b8ff" stroke="#63b8ff" points="990.6,-80.99 980,-81.06 988.33,-87.61 990.6,-80.99"/>
</a>
</g>
</g>
<!-- Node21 -->
<g id="Node000021" class="node">
<title>Node21</title>
<g id="a_Node000021"><a xlink:title=" ">
<polygon fill="#e0e0e0" stroke="#999999" points="1584.73,-80.12 1544.73,-80.12 1544.73,-60.88 1584.73,-60.88 1584.73,-80.12"/>
<text text-anchor="middle" x="1564.73" y="-66.62" font-family="Helvetica,sans-Serif" font-size="10.00">string</text>
</a>
</g>
</g>
<!-- Node20&#45;&gt;Node21 -->
<g id="edge23_Node000020_Node000021" class="edge">
<title>Node20&#45;&gt;Node21</title>
<g id="a_edge23_Node000020_Node000021"><a xlink:title=" ">
<path fill="none" stroke="#63b8ff" d="M1413.27,-126.93C1444.97,-117.75 1494.31,-102.54 1535.73,-85.75 1536.21,-85.56 1536.7,-85.36 1537.18,-85.15"/>
<polygon fill="#63b8ff" stroke="#63b8ff" points="1538.39,-88.45 1546.05,-81.13 1535.5,-82.07 1538.39,-88.45"/>
</a>
</g>
</g>
<!-- Node22 -->
<g id="Node000022" class="node">
<title>Node22</title>
<g id="a_Node000022"><a xlink:title=" ">
<polygon fill="#e0e0e0" stroke="#999999" points="1395.11,-80.12 1312.36,-80.12 1312.36,-60.88 1395.11,-60.88 1395.11,-80.12"/>
<text text-anchor="middle" x="1353.73" y="-66.62" font-family="Helvetica,sans-Serif" font-size="10.00">unordered_map</text>
</a>
</g>
</g>
<!-- Node20&#45;&gt;Node22 -->
<g id="edge24_Node000020_Node000022" class="edge">
<title>Node20&#45;&gt;Node22</title>
<g id="a_edge24_Node000020_Node000022"><a xlink:title=" ">
<path fill="none" stroke="#63b8ff" d="M1376.98,-127.03C1373.07,-117.69 1366.82,-102.78 1361.79,-90.76"/>
<polygon fill="#63b8ff" stroke="#63b8ff" points="1365.13,-89.66 1358.04,-81.79 1358.67,-92.36 1365.13,-89.66"/>
</a>
</g>
</g>
<!-- Node23 -->
<g id="Node000023" class="node">
<title>Node23</title>
<g id="a_Node000023"><a xlink:title=" ">
<polygon fill="#e0e0e0" stroke="#999999" points="1137.61,-80.12 1003.86,-80.12 1003.86,-60.88 1137.61,-60.88 1137.61,-80.12"/>
<text text-anchor="middle" x="1070.73" y="-66.62" font-family="Helvetica,sans-Serif" font-size="10.00">SFML/Graphics/Vertex.hpp</text>
</a>
</g>
</g>
<!-- Node20&#45;&gt;Node23 -->
<g id="edge25_Node000020_Node000023" class="edge">
<title>Node20&#45;&gt;Node23</title>
<g id="a_edge25_Node000020_Node000023"><a xlink:title=" ">
<path fill="none" stroke="#63b8ff" d="M1336.97,-126.9C1281.55,-115.36 1186.01,-95.49 1125.71,-82.94"/>
<polygon fill="#63b8ff" stroke="#63b8ff" points="1126.5,-79.53 1116,-80.92 1125.08,-86.38 1126.5,-79.53"/>
</a>
</g>
</g>
<!-- Node24&#45;&gt;Node12 -->
<g id="edge27_Node000024_Node000012" class="edge">
<title>Node24&#45;&gt;Node12</title>
<g id="a_edge27_Node000024_Node000012"><a xlink:title=" ">
<path fill="none" stroke="#63b8ff" d="M1012.55,-126.9C947.87,-113.57 829.09,-89.09 773.67,-77.67"/>
<polygon fill="#63b8ff" stroke="#63b8ff" points="774.53,-74.27 764.03,-75.68 773.11,-81.13 774.53,-74.27"/>
</a>
</g>
</g>
<!-- Node24&#45;&gt;Node23 -->
<g id="edge29_Node000024_Node000023" class="edge">
<title>Node24&#45;&gt;Node23</title>
<g id="a_edge29_Node000024_Node000023"><a xlink:title=" ">
<path fill="none" stroke="#63b8ff" d="M1058.68,-127.03C1060.66,-117.89 1063.81,-103.39 1066.39,-91.5"/>
<polygon fill="#63b8ff" stroke="#63b8ff" points="1069.78,-92.39 1068.48,-81.87 1062.94,-90.9 1069.78,-92.39"/>
</a>
</g>
</g>
<!-- Node25 -->
<g id="Node000025" class="node">
<title>Node25</title>
<g id="a_Node000025"><a xlink:title=" ">
<polygon fill="#e0e0e0" stroke="#999999" points="1285.86,-80.12 1159.61,-80.12 1159.61,-60.88 1285.86,-60.88 1285.86,-80.12"/>
<text text-anchor="middle" x="1222.73" y="-66.62" font-family="Helvetica,sans-Serif" font-size="10.00">SFML/Graphics/Rect.hpp</text>
</a>
</g>
</g>
<!-- Node24&#45;&gt;Node25 -->
<g id="edge28_Node000024_Node000025" class="edge">
<title>Node24&#45;&gt;Node25</title>
<g id="a_edge28_Node000024_Node000025"><a xlink:title=" ">
<path fill="none" stroke="#63b8ff" d="M1080.16,-126.9C1108.59,-115.85 1156.71,-97.15 1189.09,-84.57"/>
<polygon fill="#63b8ff" stroke="#63b8ff" points="1189.95,-87.99 1198.01,-81.11 1187.42,-81.47 1189.95,-87.99"/>
</a>
</g>
</g>
<!-- Node26&#45;&gt;Node4 -->
<g id="edge31_Node000026_Node000004" class="edge">
<title>Node26&#45;&gt;Node4</title>
<g id="a_edge31_Node000026_Node000004"><a xlink:title=" ">
<path fill="none" stroke="#63b8ff" d="M1168.36,-126.9C1122.6,-118.11 1053.47,-103.55 994.73,-85.75 993.17,-85.28 991.57,-84.77 989.97,-84.23"/>
<polygon fill="#63b8ff" stroke="#63b8ff" points="991.48,-81.06 980.88,-80.99 989.12,-87.65 991.48,-81.06"/>
</a>
</g>
</g>
<!-- Node26&#45;&gt;Node6 -->
<g id="edge34_Node000026_Node000006" class="edge">
<title>Node26&#45;&gt;Node6</title>
<g id="a_edge34_Node000026_Node000006"><a xlink:title=" ">
<path fill="none" stroke="#63b8ff" d="M1173.05,-126.88C1161.56,-124.89 1149.23,-123 1137.73,-121.75 762.27,-80.94 663.74,-130.54 288.73,-85.75 282,-84.95 274.96,-83.86 268.03,-82.65"/>
<polygon fill="#63b8ff" stroke="#63b8ff" points="268.88,-79.25 258.41,-80.86 267.6,-86.13 268.88,-79.25"/>
</a>
</g>
</g>
<!-- Node26&#45;&gt;Node25 -->
<g id="edge33_Node000026_Node000025" class="edge">
<title>Node26&#45;&gt;Node25</title>
<g id="a_edge33_Node000026_Node000025"><a xlink:title=" ">
<path fill="none" stroke="#63b8ff" d="M1219.29,-127.03C1219.85,-117.98 1220.73,-103.7 1221.47,-91.88"/>
<polygon fill="#63b8ff" stroke="#63b8ff" points="1224.96,-92.1 1222.09,-81.9 1217.97,-91.67 1224.96,-92.1"/>
</a>
</g>
</g>
<!-- Node27 -->
<g id="Node000027" class="node">
<title>Node27</title>
<g id="a_Node000027"><a xlink:title=" ">
<polygon fill="#e0e0e0" stroke="#999999" points="1458.36,-80.12 1413.11,-80.12 1413.11,-60.88 1458.36,-60.88 1458.36,-80.12"/>
<text text-anchor="middle" x="1435.73" y="-66.62" font-family="Helvetica,sans-Serif" font-size="10.00">cstdint</text>
</a>
</g>
</g>
<!-- Node26&#45;&gt;Node27 -->
<g id="edge32_Node000026_Node000027" class="edge">
<title>Node26&#45;&gt;Node27</title>
<g id="a_edge32_Node000026_Node000027"><a xlink:title=" ">
<path fill="none" stroke="#63b8ff" d="M1258.97,-126.96C1296.82,-118.02 1354.82,-103.17 1403.73,-85.75 1404.53,-85.47 1405.33,-85.17 1406.14,-84.87"/>
<polygon fill="#63b8ff" stroke="#63b8ff" points="1407.3,-88.17 1415.23,-81.15 1404.65,-81.69 1407.3,-88.17"/>
</a>
</g>
</g>
<!-- Node28&#45;&gt;Node21 -->
<g id="edge36_Node000028_Node000021" class="edge">
<title>Node28&#45;&gt;Node21</title>
<g id="a_edge36_Node000028_Node000021"><a xlink:title=" ">
<path fill="none" stroke="#63b8ff" d="M1548.37,-127.03C1551.09,-117.79 1555.43,-103.08 1558.95,-91.13"/>
<polygon fill="#63b8ff" stroke="#63b8ff" points="1562.22,-92.43 1561.68,-81.84 1555.5,-90.45 1562.22,-92.43"/>
</a>
</g>
</g>
<!-- Node28&#45;&gt;Node22 -->
<g id="edge39_Node000028_Node000022" class="edge">
<title>Node28&#45;&gt;Node22</title>
<g id="a_edge39_Node000028_Node000022"><a xlink:title=" ">
<path fill="none" stroke="#63b8ff" d="M1518.63,-126.9C1485.32,-115.71 1428.64,-96.66 1391.18,-84.08"/>
<polygon fill="#63b8ff" stroke="#63b8ff" points="1392.72,-80.91 1382.13,-81.04 1390.49,-87.54 1392.72,-80.91"/>
</a>
</g>
</g>
<!-- Node28&#45;&gt;Node25 -->
<g id="edge40_Node000028_Node000025" class="edge">
<title>Node28&#45;&gt;Node25</title>
<g id="a_edge40_Node000028_Node000025"><a xlink:title=" ">
<path fill="none" stroke="#63b8ff" d="M1500.14,-126.9C1442.27,-115.34 1342.43,-95.4 1279.63,-82.86"/>
<polygon fill="#63b8ff" stroke="#63b8ff" points="1280.33,-79.43 1269.84,-80.91 1278.96,-86.3 1280.33,-79.43"/>
</a>
</g>
</g>
<!-- Node28&#45;&gt;Node27 -->
<g id="edge37_Node000028_Node000027" class="edge">
<title>Node28&#45;&gt;Node27</title>
<g id="a_edge37_Node000028_Node000027"><a xlink:title=" ">
<path fill="none" stroke="#63b8ff" d="M1530.44,-127.03C1512.48,-116.5 1482.42,-98.88 1460.99,-86.31"/>
<polygon fill="#63b8ff" stroke="#63b8ff" points="1462.95,-83.4 1452.56,-81.37 1459.41,-89.44 1462.95,-83.4"/>
</a>
</g>
</g>
<!-- Node29 -->
<g id="Node000029" class="node">
<title>Node29</title>
<g id="a_Node000029"><a xlink:title=" ">
<polygon fill="#e0e0e0" stroke="#999999" points="1526.61,-80.12 1476.86,-80.12 1476.86,-60.88 1526.61,-60.88 1526.61,-80.12"/>
<text text-anchor="middle" x="1501.73" y="-66.62" font-family="Helvetica,sans-Serif" font-size="10.00">optional</text>
</a>
</g>
</g>
<!-- Node28&#45;&gt;Node29 -->
<g id="edge38_Node000028_Node000029" class="edge">
<title>Node28&#45;&gt;Node29</title>
<g id="a_edge38_Node000028_Node000029"><a xlink:title=" ">
<path fill="none" stroke="#63b8ff" d="M1539.61,-127.03C1533.05,-117.4 1522.43,-101.85 1514.11,-89.65"/>
<polygon fill="#63b8ff" stroke="#63b8ff" points="1517.18,-87.93 1508.65,-81.64 1511.39,-91.88 1517.18,-87.93"/>
</a>
</g>
</g>
<!-- Node30&#45;&gt;Node21 -->
<g id="edge43_Node000030_Node000021" class="edge">
<title>Node30&#45;&gt;Node21</title>
<g id="a_edge43_Node000030_Node000021"><a xlink:title=" ">
<path fill="none" stroke="#63b8ff" d="M1679.82,-126.9C1657.37,-116.09 1619.71,-97.96 1593.61,-85.4"/>
<polygon fill="#63b8ff" stroke="#63b8ff" points="1595.44,-82.4 1584.91,-81.21 1592.41,-88.71 1595.44,-82.4"/>
</a>
</g>
</g>
<!-- Node30&#45;&gt;Node27 -->
<g id="edge44_Node000030_Node000027" class="edge">
<title>Node30&#45;&gt;Node27</title>
<g id="a_edge44_Node000030_Node000027"><a xlink:title=" ">
<path fill="none" stroke="#63b8ff" d="M1654.64,-126.92C1592.65,-114.07 1485.31,-91.51 1467.73,-85.75 1466.77,-85.44 1465.8,-85.1 1464.82,-84.75"/>
<polygon fill="#63b8ff" stroke="#63b8ff" points="1466.42,-81.62 1455.84,-81.16 1463.82,-88.12 1466.42,-81.62"/>
</a>
</g>
</g>
<!-- Node31 -->
<g id="Node000031" class="node">
<title>Node31</title>
<g id="a_Node000031"><a xlink:title=" ">
<polygon fill="#e0e0e0" stroke="#999999" points="1646.23,-80.12 1603.23,-80.12 1603.23,-60.88 1646.23,-60.88 1646.23,-80.12"/>
<text text-anchor="middle" x="1624.73" y="-66.62" font-family="Helvetica,sans-Serif" font-size="10.00">cmath</text>
</a>
</g>
</g>
<!-- Node30&#45;&gt;Node31 -->
<g id="edge42_Node000030_Node000031" class="edge">
<title>Node30&#45;&gt;Node31</title>
<g id="a_edge42_Node000030_Node000031"><a xlink:title=" ">
<path fill="none" stroke="#63b8ff" d="M1688.44,-127.03C1676.84,-116.92 1657.75,-100.28 1643.48,-87.85"/>
<polygon fill="#63b8ff" stroke="#63b8ff" points="1645.91,-85.32 1636.07,-81.39 1641.31,-90.6 1645.91,-85.32"/>
</a>
</g>
</g>
<!-- Node32 -->
<g id="Node000032" class="node">
<title>Node32</title>
<g id="a_Node000032"><a xlink:title=" ">
<polygon fill="#e0e0e0" stroke="#999999" points="1725.23,-80.12 1664.23,-80.12 1664.23,-60.88 1725.23,-60.88 1725.23,-80.12"/>
<text text-anchor="middle" x="1694.73" y="-66.62" font-family="Helvetica,sans-Serif" font-size="10.00">type_traits</text>
</a>
</g>
</g>
<!-- Node30&#45;&gt;Node32 -->
<g id="edge45_Node000030_Node000032" class="edge">
<title>Node30&#45;&gt;Node32</title>
<g id="a_edge45_Node000030_Node000032"><a xlink:title=" ">
<path fill="none" stroke="#63b8ff" d="M1698.17,-127.03C1697.61,-117.98 1696.73,-103.7 1695.99,-91.88"/>
<polygon fill="#63b8ff" stroke="#63b8ff" points="1699.49,-91.67 1695.38,-81.9 1692.5,-92.1 1699.49,-91.67"/>
</a>
</g>
</g>
<!-- Node33 -->
<g id="Node000033" class="node">
<title>Node33</title>
<g id="a_Node000033"><a xlink:href="_interpolation_8tpp.html" target="_top" xlink:title=" ">
<polygon fill="white" stroke="#666666" points="1872.36,-80.12 1743.11,-80.12 1743.11,-60.88 1872.36,-60.88 1872.36,-80.12"/>
<text text-anchor="middle" x="1807.73" y="-66.62" font-family="Helvetica,sans-Serif" font-size="10.00">sgui/Core/Interpolation.tpp</text>
</a>
</g>
</g>
<!-- Node30&#45;&gt;Node33 -->
<g id="edge46_Node000030_Node000033" class="edge">
<title>Node30&#45;&gt;Node33</title>
<g id="a_edge46_Node000030_Node000033"><a xlink:title=" ">
<path fill="none" stroke="#63b8ff" d="M1713.89,-127.03C1731.68,-116.5 1761.46,-98.88 1782.7,-86.31"/>
<polygon fill="#63b8ff" stroke="#63b8ff" points="1784.23,-89.48 1791.05,-81.37 1780.66,-83.45 1784.23,-89.48"/>
</a>
</g>
</g>
<!-- Node34&#45;&gt;Node28 -->
<g id="edge49_Node000034_Node000028" class="edge">
<title>Node34&#45;&gt;Node28</title>
<g id="a_edge49_Node000034_Node000028"><a xlink:title=" ">
<path fill="none" stroke="#63b8ff" d="M1716.31,-187.78C1677.4,-176.43 1624.22,-160.91 1587.63,-150.23"/>
<polygon fill="#63b8ff" stroke="#63b8ff" points="1588.88,-146.95 1578.3,-147.5 1586.92,-153.67 1588.88,-146.95"/>
</a>
</g>
</g>
<!-- Node35 -->
<g id="Node000035" class="node">
<title>Node35</title>
<g id="a_Node000035"><a xlink:title=" ">
<polygon fill="#e0e0e0" stroke="#999999" points="2562.23,-80.12 2465.23,-80.12 2465.23,-60.88 2562.23,-60.88 2562.23,-80.12"/>
<text text-anchor="middle" x="2513.73" y="-66.62" font-family="Helvetica,sans-Serif" font-size="10.00">nlohmann/json.hpp</text>
</a>
</g>
</g>
<!-- Node34&#45;&gt;Node35 -->
<g id="edge48_Node000034_Node000035" class="edge">
<title>Node34&#45;&gt;Node35</title>
<g id="a_edge48_Node000034_Node000035"><a xlink:title=" ">
<path fill="none" stroke="#63b8ff" d="M1818.67,-200.49C1908.13,-196.28 2096.7,-184.13 2252.73,-152.25 2335.72,-135.29 2429.94,-102.7 2479.33,-84.53"/>
<polygon fill="#63b8ff" stroke="#63b8ff" points="2480.46,-87.85 2488.61,-81.09 2478.02,-81.29 2480.46,-87.85"/>
</a>
</g>
</g>
<!-- Node36 -->
<g id="Node000036" class="node">
<title>Node36</title>
<g id="a_Node000036"><a xlink:href="_serialize_s_f_m_l_8h.html" target="_top" xlink:title=" ">
<polygon fill="white" stroke="#666666" points="2243.86,-152.25 2153.61,-152.25 2153.61,-121.75 2243.86,-121.75 2243.86,-152.25"/>
<text text-anchor="start" x="2161.61" y="-138.75" font-family="Helvetica,sans-Serif" font-size="10.00">sgui/Serialization</text>
<text text-anchor="middle" x="2198.73" y="-127.5" font-family="Helvetica,sans-Serif" font-size="10.00">/SerializeSFML.h</text>
</a>
</g>
</g>
<!-- Node34&#45;&gt;Node36 -->
<g id="edge50_Node000034_Node000036" class="edge">
<title>Node34&#45;&gt;Node36</title>
<g id="a_edge50_Node000034_Node000036"><a xlink:title=" ">
<path fill="none" stroke="#63b8ff" d="M1818.41,-194.78C1899.88,-182.62 2057.57,-159.08 2142.05,-146.46"/>
<polygon fill="#63b8ff" stroke="#63b8ff" points="2142.35,-149.96 2151.72,-145.02 2141.31,-143.03 2142.35,-149.96"/>
</a>
</g>
</g>
<!-- Node36&#45;&gt;Node16 -->
<g id="edge53_Node000036_Node000016" class="edge">
<title>Node36&#45;&gt;Node16</title>
<g id="a_edge53_Node000036_Node000016"><a xlink:title=" ">
<path fill="none" stroke="#63b8ff" d="M2181.71,-121.36C2170,-111.29 2154.45,-97.92 2142.4,-87.56"/>
<polygon fill="#63b8ff" stroke="#63b8ff" points="2145,-85.18 2135.14,-81.31 2140.44,-90.48 2145,-85.18"/>
</a>
</g>
</g>
<!-- Node36&#45;&gt;Node25 -->
<g id="edge52_Node000036_Node000025" class="edge">
<title>Node36&#45;&gt;Node25</title>
<g id="a_edge52_Node000036_Node000025"><a xlink:title=" ">
<path fill="none" stroke="#63b8ff" d="M2153.24,-130.45C2127.58,-127.49 2094.9,-124 2065.73,-121.75 1727.69,-95.68 1640.7,-123.2 1303.73,-85.75 1295.92,-84.88 1287.72,-83.73 1279.66,-82.45"/>
<polygon fill="#63b8ff" stroke="#63b8ff" points="1280.35,-79.02 1269.91,-80.83 1279.2,-85.92 1280.35,-79.02"/>
</a>
</g>
</g>
<!-- Node36&#45;&gt;Node35 -->
<g id="edge51_Node000036_Node000035" class="edge">
<title>Node36&#45;&gt;Node35</title>
<g id="a_edge51_Node000036_Node000035"><a xlink:title=" ">
<path fill="none" stroke="#63b8ff" d="M2244.09,-127.91C2295.73,-118.53 2382.56,-102.23 2456.73,-85.75 2460.27,-84.96 2463.92,-84.12 2467.58,-83.26"/>
<polygon fill="#63b8ff" stroke="#63b8ff" points="2468.16,-86.72 2477.06,-80.96 2466.51,-79.91 2468.16,-86.72"/>
</a>
</g>
</g>
<!-- Node37 -->
<g id="Node000037" class="node">
<title>Node37</title>
<g id="a_Node000037"><a xlink:title=" ">
<polygon fill="#e0e0e0" stroke="#999999" points="2339.61,-80.12 2205.86,-80.12 2205.86,-60.88 2339.61,-60.88 2339.61,-80.12"/>
<text text-anchor="middle" x="2272.73" y="-66.62" font-family="Helvetica,sans-Serif" font-size="10.00">SFML/System/Vector3.hpp</text>
</a>
</g>
</g>
<!-- Node36&#45;&gt;Node37 -->
<g id="edge54_Node000036_Node000037" class="edge">
<title>Node36&#45;&gt;Node37</title>
<g id="a_edge54_Node000036_Node000037"><a xlink:title=" ">
<path fill="none" stroke="#63b8ff" d="M2215.52,-121.36C2226.96,-111.39 2242.12,-98.18 2253.96,-87.86"/>
<polygon fill="#63b8ff" stroke="#63b8ff" points="2256.23,-90.53 2261.47,-81.32 2251.63,-85.25 2256.23,-90.53"/>
</a>
</g>
</g>
<!-- Node38 -->
<g id="Node000038" class="node">
<title>Node38</title>
<g id="a_Node000038"><a xlink:href="_macro_8h.html" target="_top" xlink:title=" ">
<polygon fill="white" stroke="#666666" points="2447.48,-85.75 2357.98,-85.75 2357.98,-55.25 2447.48,-55.25 2447.48,-85.75"/>
<text text-anchor="start" x="2365.98" y="-72.25" font-family="Helvetica,sans-Serif" font-size="10.00">sgui/Serialization</text>
<text text-anchor="middle" x="2402.73" y="-61" font-family="Helvetica,sans-Serif" font-size="10.00">/Macro.h</text>
</a>
</g>
</g>
<!-- Node36&#45;&gt;Node38 -->
<g id="edge55_Node000036_Node000038" class="edge">
<title>Node36&#45;&gt;Node38</title>
<g id="a_edge55_Node000036_Node000038"><a xlink:title=" ">
<path fill="none" stroke="#63b8ff" d="M2244.26,-121.61C2274.64,-112 2314.79,-99.3 2347.07,-89.1"/>
<polygon fill="#63b8ff" stroke="#63b8ff" points="2347.77,-92.55 2356.25,-86.2 2345.66,-85.87 2347.77,-92.55"/>
</a>
</g>
</g>
</g>
</svg>
