<?xml version="1.0" encoding="UTF-8" standalone="no"?>
<!DOCTYPE svg PUBLIC "-//W3C//DTD SVG 1.1//EN"
 "http://www.w3.org/Graphics/SVG/1.1/DTD/svg11.dtd">
<!-- Generated by graphviz version 12.2.1 (20241206.2353)
 -->
<!-- Title: /github/workspace/src/sgui/Render/GuiRender.cpp Pages: 1 -->
<svg width="2451pt" height="238pt"
 viewBox="0.00 0.00 2450.62 238.00" xmlns="http://www.w3.org/2000/svg" xmlns:xlink="http://www.w3.org/1999/xlink">
<g id="graph0" class="graph" transform="scale(1 1) rotate(0) translate(4 234)">
<title>/github/workspace/src/sgui/Render/GuiRender.cpp</title>
<!-- Node1 -->
<g id="Node000001" class="node">
<title>Node1</title>
<g id="a_Node000001"><a xlink:title=" ">
<polygon fill="#999999" stroke="#666666" points="1183.88,-230 1046.38,-230 1046.38,-199.5 1183.88,-199.5 1183.88,-230"/>
<text text-anchor="start" x="1054.38" y="-216.5" font-family="Helvetica,sans-Serif" font-size="10.00">/github/workspace/src</text>
<text text-anchor="middle" x="1115.12" y="-205.25" font-family="Helvetica,sans-Serif" font-size="10.00">/sgui/Render/GuiRender.cpp</text>
</a>
</g>
</g>
<!-- Node2 -->
<g id="Node000002" class="node">
<title>Node2</title>
<g id="a_Node000002"><a xlink:title=" ">
<polygon fill="#e0e0e0" stroke="#999999" points="849.38,-157.88 684.88,-157.88 684.88,-138.62 849.38,-138.62 849.38,-157.88"/>
<text text-anchor="middle" x="767.12" y="-144.38" font-family="Helvetica,sans-Serif" font-size="10.00">SFML/Graphics/RenderTarget.hpp</text>
</a>
</g>
</g>
<!-- Node1&#45;&gt;Node2 -->
<g id="edge1_Node000001_Node000002" class="edge">
<title>Node1&#45;&gt;Node2</title>
<g id="a_edge1_Node000001_Node000002"><a xlink:title=" ">
<path fill="none" stroke="#63b8ff" d="M1045.96,-200.93C982.04,-189.08 888.05,-171.66 827.21,-160.39"/>
<polygon fill="#63b8ff" stroke="#63b8ff" points="828.21,-157.01 817.74,-158.63 826.93,-163.89 828.21,-157.01"/>
</a>
</g>
</g>
<!-- Node3 -->
<g id="Node000003" class="node">
<title>Node3</title>
<g id="a_Node000003"><a xlink:href="_gui_render_8h.html" target="_top" xlink:title=" ">
<polygon fill="white" stroke="#666666" points="991.12,-157.88 867.12,-157.88 867.12,-138.62 991.12,-138.62 991.12,-157.88"/>
<text text-anchor="middle" x="929.12" y="-144.38" font-family="Helvetica,sans-Serif" font-size="10.00">sgui/Render/GuiRender.h</text>
</a>
</g>
</g>
<!-- Node1&#45;&gt;Node3 -->
<g id="edge2_Node000001_Node000003" class="edge">
<title>Node1&#45;&gt;Node3</title>
<g id="a_edge2_Node000001_Node000003"><a xlink:title=" ">
<path fill="none" stroke="#63b8ff" d="M1072.92,-199.11C1040.75,-187.96 996.88,-172.75 966.09,-162.07"/>
<polygon fill="#63b8ff" stroke="#63b8ff" points="967.4,-158.82 956.81,-158.85 965.11,-165.43 967.4,-158.82"/>
</a>
</g>
</g>
<!-- Node28 -->
<g id="Node000028" class="node">
<title>Node28</title>
<g id="a_Node000028"><a xlink:href="_interpolation_8h.html" target="_top" xlink:title=" ">
<polygon fill="white" stroke="#666666" points="1826.62,-91.38 1705.62,-91.38 1705.62,-72.12 1826.62,-72.12 1826.62,-91.38"/>
<text text-anchor="middle" x="1766.12" y="-77.88" font-family="Helvetica,sans-Serif" font-size="10.00">sgui/Core/Interpolation.h</text>
</a>
</g>
</g>
<!-- Node1&#45;&gt;Node28 -->
<g id="edge38_Node000001_Node000028" class="edge">
<title>Node1&#45;&gt;Node28</title>
<g id="a_edge38_Node000001_Node000028"><a xlink:title=" ">
<path fill="none" stroke="#63b8ff" d="M1184,-199.97C1292.8,-178.18 1511.08,-134.43 1696.12,-97 1700.77,-96.06 1705.6,-95.08 1710.44,-94.1"/>
<polygon fill="#63b8ff" stroke="#63b8ff" points="1711.11,-97.54 1720.21,-92.11 1709.71,-90.68 1711.11,-97.54"/>
</a>
</g>
</g>
<!-- Node32 -->
<g id="Node000032" class="node">
<title>Node32</title>
<g id="a_Node000032"><a xlink:href="_load_texture_atlas_8h.html" target="_top" xlink:title=" ">
<polygon fill="white" stroke="#666666" points="1881.62,-163.5 1778.62,-163.5 1778.62,-133 1881.62,-133 1881.62,-163.5"/>
<text text-anchor="start" x="1786.62" y="-150" font-family="Helvetica,sans-Serif" font-size="10.00">sgui/Serialization</text>
<text text-anchor="middle" x="1830.12" y="-138.75" font-family="Helvetica,sans-Serif" font-size="10.00">/LoadTextureAtlas.h</text>
</a>
</g>
</g>
<!-- Node1&#45;&gt;Node32 -->
<g id="edge44_Node000001_Node000032" class="edge">
<title>Node1&#45;&gt;Node32</title>
<g id="a_edge44_Node000001_Node000032"><a xlink:title=" ">
<path fill="none" stroke="#63b8ff" d="M1184.33,-207.51C1323.1,-194.99 1633.47,-166.99 1767.03,-154.94"/>
<polygon fill="#63b8ff" stroke="#63b8ff" points="1767.1,-158.45 1776.74,-154.07 1766.47,-151.48 1767.1,-158.45"/>
</a>
</g>
</g>
<!-- Node4 -->
<g id="Node000004" class="node">
<title>Node4</title>
<g id="a_Node000004"><a xlink:title=" ">
<polygon fill="#e0e0e0" stroke="#999999" points="1001.62,-24.88 958.62,-24.88 958.62,-5.63 1001.62,-5.63 1001.62,-24.88"/>
<text text-anchor="middle" x="980.12" y="-11.38" font-family="Helvetica,sans-Serif" font-size="10.00">vector</text>
</a>
</g>
</g>
<!-- Node3&#45;&gt;Node4 -->
<g id="edge3_Node000003_Node000004" class="edge">
<title>Node3&#45;&gt;Node4</title>
<g id="a_edge3_Node000003_Node000004"><a xlink:title=" ">
<path fill="none" stroke="#63b8ff" d="M909.75,-138.17C894.5,-129.85 874.33,-115.93 865.12,-97 859.2,-84.81 857.64,-77.8 865.12,-66.5 887.78,-32.3 912.7,-47.31 950.12,-30.5 950.47,-30.35 950.82,-30.19 951.17,-30.03"/>
<polygon fill="#63b8ff" stroke="#63b8ff" points="952.48,-33.28 960.09,-25.9 949.54,-26.93 952.48,-33.28"/>
</a>
</g>
</g>
<!-- Node5 -->
<g id="Node000005" class="node">
<title>Node5</title>
<g id="a_Node000005"><a xlink:title=" ">
<polygon fill="#e0e0e0" stroke="#999999" points="1195.88,-91.38 1070.38,-91.38 1070.38,-72.12 1195.88,-72.12 1195.88,-91.38"/>
<text text-anchor="middle" x="1133.12" y="-77.88" font-family="Helvetica,sans-Serif" font-size="10.00">SFML/Graphics/Font.hpp</text>
</a>
</g>
</g>
<!-- Node3&#45;&gt;Node5 -->
<g id="edge4_Node000003_Node000005" class="edge">
<title>Node3&#45;&gt;Node5</title>
<g id="a_edge4_Node000003_Node000005"><a xlink:title=" ">
<path fill="none" stroke="#63b8ff" d="M957.92,-138.15C993.38,-126.93 1053.8,-107.83 1093.59,-95.25"/>
<polygon fill="#63b8ff" stroke="#63b8ff" points="1094.55,-98.62 1103.03,-92.26 1092.44,-91.94 1094.55,-98.62"/>
</a>
</g>
</g>
<!-- Node6 -->
<g id="Node000006" class="node">
<title>Node6</title>
<g id="a_Node000006"><a xlink:title=" ">
<polygon fill="#e0e0e0" stroke="#999999" points="1154,-24.88 1026.25,-24.88 1026.25,-5.63 1154,-5.63 1154,-24.88"/>
<text text-anchor="middle" x="1090.12" y="-11.38" font-family="Helvetica,sans-Serif" font-size="10.00">SFML/Graphics/View.hpp</text>
</a>
</g>
</g>
<!-- Node3&#45;&gt;Node6 -->
<g id="edge5_Node000003_Node000006" class="edge">
<title>Node3&#45;&gt;Node6</title>
<g id="a_edge5_Node000003_Node000006"><a xlink:title=" ">
<path fill="none" stroke="#63b8ff" d="M920.49,-138.15C906.44,-122.23 881.87,-88.89 899.12,-66.5 907.48,-55.66 979.69,-38.8 1032.87,-27.64"/>
<polygon fill="#63b8ff" stroke="#63b8ff" points="1033.34,-31.12 1042.42,-25.66 1031.91,-24.27 1033.34,-31.12"/>
</a>
</g>
</g>
<!-- Node7 -->
<g id="Node000007" class="node">
<title>Node7</title>
<g id="a_Node000007"><a xlink:title=" ">
<polygon fill="#e0e0e0" stroke="#999999" points="1520.38,-91.38 1373.88,-91.38 1373.88,-72.12 1520.38,-72.12 1520.38,-91.38"/>
<text text-anchor="middle" x="1447.12" y="-77.88" font-family="Helvetica,sans-Serif" font-size="10.00">SFML/Graphics/Drawable.hpp</text>
</a>
</g>
</g>
<!-- Node3&#45;&gt;Node7 -->
<g id="edge6_Node000003_Node000007" class="edge">
<title>Node3&#45;&gt;Node7</title>
<g id="a_edge6_Node000003_Node000007"><a xlink:title=" ">
<path fill="none" stroke="#63b8ff" d="M991.36,-141.21C1076.09,-132.73 1232.4,-116.17 1365.12,-97 1371.89,-96.02 1378.96,-94.92 1385.99,-93.77"/>
<polygon fill="#63b8ff" stroke="#63b8ff" points="1386.55,-97.23 1395.84,-92.12 1385.4,-90.32 1386.55,-97.23"/>
</a>
</g>
</g>
<!-- Node8 -->
<g id="Node000008" class="node">
<title>Node8</title>
<g id="a_Node000008"><a xlink:title=" ">
<polygon fill="#e0e0e0" stroke="#999999" points="156.25,-91.38 0,-91.38 0,-72.12 156.25,-72.12 156.25,-91.38"/>
<text text-anchor="middle" x="78.12" y="-77.88" font-family="Helvetica,sans-Serif" font-size="10.00">SFML/Graphics/VertexArray.hpp</text>
</a>
</g>
</g>
<!-- Node3&#45;&gt;Node8 -->
<g id="edge7_Node000003_Node000008" class="edge">
<title>Node3&#45;&gt;Node8</title>
<g id="a_edge7_Node000003_Node000008"><a xlink:title=" ">
<path fill="none" stroke="#63b8ff" d="M889.12,-138.16C879.05,-136.16 868.23,-134.27 858.12,-133 552.12,-94.55 471.77,-129.98 165.12,-97 156.66,-96.09 147.77,-94.9 139.03,-93.6"/>
<polygon fill="#63b8ff" stroke="#63b8ff" points="139.6,-90.15 129.18,-92.07 138.52,-97.06 139.6,-90.15"/>
</a>
</g>
</g>
<!-- Node9 -->
<g id="Node000009" class="node">
<title>Node9</title>
<g id="a_Node000009"><a xlink:title=" ">
<polygon fill="#e0e0e0" stroke="#999999" points="342.25,-91.38 174,-91.38 174,-72.12 342.25,-72.12 342.25,-91.38"/>
<text text-anchor="middle" x="258.12" y="-77.88" font-family="Helvetica,sans-Serif" font-size="10.00">SFML/Graphics/Transformable.hpp</text>
</a>
</g>
</g>
<!-- Node3&#45;&gt;Node9 -->
<g id="edge8_Node000003_Node000009" class="edge">
<title>Node3&#45;&gt;Node9</title>
<g id="a_edge8_Node000003_Node000009"><a xlink:title=" ">
<path fill="none" stroke="#63b8ff" d="M888.35,-138.14C878.5,-136.2 867.97,-134.33 858.12,-133 634.26,-102.71 575.62,-122.13 351.12,-97 342.24,-96.01 332.9,-94.78 323.71,-93.48"/>
<polygon fill="#63b8ff" stroke="#63b8ff" points="324.51,-90.06 314.11,-92.08 323.5,-96.99 324.51,-90.06"/>
</a>
</g>
</g>
<!-- Node10 -->
<g id="Node000010" class="node">
<title>Node10</title>
<g id="a_Node000010"><a xlink:href="_shapes_8h.html" target="_top" xlink:title=" ">
<polygon fill="white" stroke="#666666" points="649.5,-91.38 548.75,-91.38 548.75,-72.12 649.5,-72.12 649.5,-91.38"/>
<text text-anchor="middle" x="599.12" y="-77.88" font-family="Helvetica,sans-Serif" font-size="10.00">sgui/Core/Shapes.h</text>
</a>
</g>
</g>
<!-- Node3&#45;&gt;Node10 -->
<g id="edge9_Node000003_Node000010" class="edge">
<title>Node3&#45;&gt;Node10</title>
<g id="a_edge9_Node000003_Node000010"><a xlink:title=" ">
<path fill="none" stroke="#63b8ff" d="M884.46,-138.15C875.73,-136.41 866.65,-134.63 858.12,-133 769.84,-116.16 747.1,-115.39 659.12,-97 655.12,-96.16 650.97,-95.26 646.81,-94.32"/>
<polygon fill="#63b8ff" stroke="#63b8ff" points="647.87,-90.97 637.34,-92.15 646.3,-97.8 647.87,-90.97"/>
</a>
</g>
</g>
<!-- Node14 -->
<g id="Node000014" class="node">
<title>Node14</title>
<g id="a_Node000014"><a xlink:href="_draw_options_8h.html" target="_top" xlink:title=" ">
<polygon fill="white" stroke="#666666" points="494.38,-91.38 359.88,-91.38 359.88,-72.12 494.38,-72.12 494.38,-91.38"/>
<text text-anchor="middle" x="427.12" y="-77.88" font-family="Helvetica,sans-Serif" font-size="10.00">sgui/Render/DrawOptions.h</text>
</a>
</g>
</g>
<!-- Node3&#45;&gt;Node14 -->
<g id="edge14_Node000003_Node000014" class="edge">
<title>Node3&#45;&gt;Node14</title>
<g id="a_edge14_Node000003_Node000014"><a xlink:title=" ">
<path fill="none" stroke="#63b8ff" d="M886.81,-138.14C877.39,-136.29 867.44,-134.46 858.12,-133 717.6,-110.99 681.35,-113.9 540.12,-97 529.08,-95.68 517.44,-94.25 505.98,-92.82"/>
<polygon fill="#63b8ff" stroke="#63b8ff" points="506.49,-89.36 496.13,-91.59 505.62,-96.31 506.49,-89.36"/>
</a>
</g>
</g>
<!-- Node18 -->
<g id="Node000018" class="node">
<title>Node18</title>
<g id="a_Node000018"><a xlink:href="_texture_meshes_8h.html" target="_top" xlink:title=" ">
<polygon fill="white" stroke="#666666" points="1052.62,-91.38 907.62,-91.38 907.62,-72.12 1052.62,-72.12 1052.62,-91.38"/>
<text text-anchor="middle" x="980.12" y="-77.88" font-family="Helvetica,sans-Serif" font-size="10.00">sgui/Render/TextureMeshes.h</text>
</a>
</g>
</g>
<!-- Node3&#45;&gt;Node18 -->
<g id="edge18_Node000003_Node000018" class="edge">
<title>Node3&#45;&gt;Node18</title>
<g id="a_edge18_Node000003_Node000018"><a xlink:title=" ">
<path fill="none" stroke="#63b8ff" d="M936.22,-138.28C943.9,-128.56 956.37,-112.79 966.06,-100.53"/>
<polygon fill="#63b8ff" stroke="#63b8ff" points="968.7,-102.84 972.16,-92.83 963.21,-98.5 968.7,-102.84"/>
</a>
</g>
</g>
<!-- Node22 -->
<g id="Node000022" class="node">
<title>Node22</title>
<g id="a_Node000022"><a xlink:href="_mesh_functions_8h.html" target="_top" xlink:title=" ">
<polygon fill="white" stroke="#666666" points="812.62,-91.38 667.62,-91.38 667.62,-72.12 812.62,-72.12 812.62,-91.38"/>
<text text-anchor="middle" x="740.12" y="-77.88" font-family="Helvetica,sans-Serif" font-size="10.00">sgui/Render/MeshFunctions.h</text>
</a>
</g>
</g>
<!-- Node3&#45;&gt;Node22 -->
<g id="edge23_Node000003_Node000022" class="edge">
<title>Node3&#45;&gt;Node22</title>
<g id="a_edge23_Node000003_Node000022"><a xlink:title=" ">
<path fill="none" stroke="#63b8ff" d="M902.45,-138.15C869.8,-127.01 814.34,-108.08 777.47,-95.49"/>
<polygon fill="#63b8ff" stroke="#63b8ff" points="778.69,-92.21 768.1,-92.3 776.43,-98.84 778.69,-92.21"/>
</a>
</g>
</g>
<!-- Node24 -->
<g id="Node000024" class="node">
<title>Node24</title>
<g id="a_Node000024"><a xlink:href="_clipping_layers_8h.html" target="_top" xlink:title=" ">
<polygon fill="white" stroke="#666666" points="1356.12,-91.38 1214.12,-91.38 1214.12,-72.12 1356.12,-72.12 1356.12,-91.38"/>
<text text-anchor="middle" x="1285.12" y="-77.88" font-family="Helvetica,sans-Serif" font-size="10.00">sgui/Render/ClippingLayers.h</text>
</a>
</g>
</g>
<!-- Node3&#45;&gt;Node24 -->
<g id="edge27_Node000003_Node000024" class="edge">
<title>Node3&#45;&gt;Node24</title>
<g id="a_edge27_Node000003_Node000024"><a xlink:title=" ">
<path fill="none" stroke="#63b8ff" d="M979.38,-138.15C1043.56,-126.52 1154.57,-106.4 1223.7,-93.88"/>
<polygon fill="#63b8ff" stroke="#63b8ff" points="1224.14,-97.36 1233.35,-92.13 1222.89,-90.47 1224.14,-97.36"/>
</a>
</g>
</g>
<!-- Node26 -->
<g id="Node000026" class="node">
<title>Node26</title>
<g id="a_Node000026"><a xlink:href="_texture_atlas_8h.html" target="_top" xlink:title=" ">
<polygon fill="white" stroke="#666666" points="1687.5,-91.38 1538.75,-91.38 1538.75,-72.12 1687.5,-72.12 1687.5,-91.38"/>
<text text-anchor="middle" x="1613.12" y="-77.88" font-family="Helvetica,sans-Serif" font-size="10.00">sgui/Resources/TextureAtlas.h</text>
</a>
</g>
</g>
<!-- Node3&#45;&gt;Node26 -->
<g id="edge32_Node000003_Node000026" class="edge">
<title>Node3&#45;&gt;Node26</title>
<g id="a_edge32_Node000003_Node000026"><a xlink:title=" ">
<path fill="none" stroke="#63b8ff" d="M991.5,-143.77C1100.73,-137.28 1333.64,-121.72 1529.12,-97 1536.81,-96.03 1544.86,-94.86 1552.8,-93.61"/>
<polygon fill="#63b8ff" stroke="#63b8ff" points="1553.12,-97.11 1562.43,-92.05 1552,-90.2 1553.12,-97.11"/>
</a>
</g>
</g>
<!-- Node10&#45;&gt;Node4 -->
<g id="edge11_Node000010_Node000004" class="edge">
<title>Node10&#45;&gt;Node4</title>
<g id="a_edge11_Node000010_Node000004"><a xlink:title=" ">
<path fill="none" stroke="#63b8ff" d="M634.52,-71.66C642.58,-69.78 651.12,-67.94 659.12,-66.5 787.38,-43.41 825,-66.92 950.12,-30.5 951.09,-30.22 952.07,-29.91 953.05,-29.57"/>
<polygon fill="#63b8ff" stroke="#63b8ff" points="954.03,-32.96 961.96,-25.94 951.38,-26.48 954.03,-32.96"/>
</a>
</g>
</g>
<!-- Node11 -->
<g id="Node000011" class="node">
<title>Node11</title>
<g id="a_Node000011"><a xlink:title=" ">
<polygon fill="#e0e0e0" stroke="#999999" points="789.62,-24.88 752.62,-24.88 752.62,-5.63 789.62,-5.63 789.62,-24.88"/>
<text text-anchor="middle" x="771.12" y="-11.38" font-family="Helvetica,sans-Serif" font-size="10.00">array</text>
</a>
</g>
</g>
<!-- Node10&#45;&gt;Node11 -->
<g id="edge10_Node000010_Node000011" class="edge">
<title>Node10&#45;&gt;Node11</title>
<g id="a_edge10_Node000010_Node000011"><a xlink:title=" ">
<path fill="none" stroke="#63b8ff" d="M629.63,-71.67C659.33,-62.48 705.51,-47.26 744.12,-30.5 744.35,-30.4 744.58,-30.3 744.8,-30.2"/>
<polygon fill="#63b8ff" stroke="#63b8ff" points="746.2,-33.41 753.68,-25.91 743.16,-27.11 746.2,-33.41"/>
</a>
</g>
</g>
<!-- Node12 -->
<g id="Node000012" class="node">
<title>Node12</title>
<g id="a_Node000012"><a xlink:title=" ">
<polygon fill="#e0e0e0" stroke="#999999" points="735,-24.88 601.25,-24.88 601.25,-5.63 735,-5.63 735,-24.88"/>
<text text-anchor="middle" x="668.12" y="-11.38" font-family="Helvetica,sans-Serif" font-size="10.00">SFML/System/Vector2.hpp</text>
</a>
</g>
</g>
<!-- Node10&#45;&gt;Node12 -->
<g id="edge12_Node000010_Node000012" class="edge">
<title>Node10&#45;&gt;Node12</title>
<g id="a_edge12_Node000010_Node000012"><a xlink:title=" ">
<path fill="none" stroke="#63b8ff" d="M608.72,-71.78C619.43,-61.77 637,-45.35 650.26,-32.95"/>
<polygon fill="#63b8ff" stroke="#63b8ff" points="652.59,-35.56 657.51,-26.18 647.81,-30.45 652.59,-35.56"/>
</a>
</g>
</g>
<!-- Node13 -->
<g id="Node000013" class="node">
<title>Node13</title>
<g id="a_Node000013"><a xlink:href="_shapes_8tpp.html" target="_top" xlink:title=" ">
<polygon fill="white" stroke="#666666" points="583.62,-24.88 474.62,-24.88 474.62,-5.63 583.62,-5.63 583.62,-24.88"/>
<text text-anchor="middle" x="529.12" y="-11.38" font-family="Helvetica,sans-Serif" font-size="10.00">sgui/Core/Shapes.tpp</text>
</a>
</g>
</g>
<!-- Node10&#45;&gt;Node13 -->
<g id="edge13_Node000010_Node000013" class="edge">
<title>Node10&#45;&gt;Node13</title>
<g id="a_edge13_Node000010_Node000013"><a xlink:title=" ">
<path fill="none" stroke="#63b8ff" d="M589.39,-71.78C578.42,-61.67 560.36,-45.03 546.86,-32.6"/>
<polygon fill="#63b8ff" stroke="#63b8ff" points="549.61,-30.37 539.89,-26.17 544.87,-35.52 549.61,-30.37"/>
</a>
</g>
</g>
<!-- Node15 -->
<g id="Node000015" class="node">
<title>Node15</title>
<g id="a_Node000015"><a xlink:title=" ">
<polygon fill="#e0e0e0" stroke="#999999" points="172.5,-24.88 47.75,-24.88 47.75,-5.63 172.5,-5.63 172.5,-24.88"/>
<text text-anchor="middle" x="110.12" y="-11.38" font-family="Helvetica,sans-Serif" font-size="10.00">SFML/Graphics/Text.hpp</text>
</a>
</g>
</g>
<!-- Node14&#45;&gt;Node15 -->
<g id="edge15_Node000014_Node000015" class="edge">
<title>Node14&#45;&gt;Node15</title>
<g id="a_edge15_Node000014_Node000015"><a xlink:title=" ">
<path fill="none" stroke="#63b8ff" d="M382.38,-71.65C325.58,-60.09 227.6,-40.15 165.97,-27.61"/>
<polygon fill="#63b8ff" stroke="#63b8ff" points="166.88,-24.23 156.38,-25.66 165.48,-31.09 166.88,-24.23"/>
</a>
</g>
</g>
<!-- Node16 -->
<g id="Node000016" class="node">
<title>Node16</title>
<g id="a_Node000016"><a xlink:href="_widgets_8h.html" target="_top" xlink:title=" ">
<polygon fill="white" stroke="#666666" points="308.12,-24.88 190.12,-24.88 190.12,-5.63 308.12,-5.63 308.12,-24.88"/>
<text text-anchor="middle" x="249.12" y="-11.38" font-family="Helvetica,sans-Serif" font-size="10.00">sgui/Widgets/Widgets.h</text>
</a>
</g>
</g>
<!-- Node14&#45;&gt;Node16 -->
<g id="edge16_Node000014_Node000016" class="edge">
<title>Node14&#45;&gt;Node16</title>
<g id="a_edge16_Node000014_Node000016"><a xlink:title=" ">
<path fill="none" stroke="#63b8ff" d="M402,-71.65C371.39,-60.55 319.47,-41.74 284.74,-29.16"/>
<polygon fill="#63b8ff" stroke="#63b8ff" points="286.14,-25.94 275.55,-25.82 283.76,-32.52 286.14,-25.94"/>
</a>
</g>
</g>
<!-- Node17 -->
<g id="Node000017" class="node">
<title>Node17</title>
<g id="a_Node000017"><a xlink:href="_item_states_8h.html" target="_top" xlink:title=" ">
<polygon fill="white" stroke="#666666" points="456.5,-24.88 325.75,-24.88 325.75,-5.63 456.5,-5.63 456.5,-24.88"/>
<text text-anchor="middle" x="391.12" y="-11.38" font-family="Helvetica,sans-Serif" font-size="10.00">sgui/Widgets/ItemStates.h</text>
</a>
</g>
</g>
<!-- Node14&#45;&gt;Node17 -->
<g id="edge17_Node000014_Node000017" class="edge">
<title>Node14&#45;&gt;Node17</title>
<g id="a_edge17_Node000014_Node000017"><a xlink:title=" ">
<path fill="none" stroke="#63b8ff" d="M422.12,-71.78C416.85,-62.35 408.41,-47.22 401.67,-35.13"/>
<polygon fill="#63b8ff" stroke="#63b8ff" points="404.76,-33.49 396.83,-26.46 398.64,-36.9 404.76,-33.49"/>
</a>
</g>
</g>
<!-- Node18&#45;&gt;Node4 -->
<g id="edge19_Node000018_Node000004" class="edge">
<title>Node18&#45;&gt;Node4</title>
<g id="a_edge19_Node000018_Node000004"><a xlink:title=" ">
<path fill="none" stroke="#63b8ff" d="M980.12,-71.78C980.12,-62.73 980.12,-48.45 980.12,-36.63"/>
<polygon fill="#63b8ff" stroke="#63b8ff" points="983.63,-36.66 980.13,-26.66 976.63,-36.66 983.63,-36.66"/>
</a>
</g>
</g>
<!-- Node19 -->
<g id="Node000019" class="node">
<title>Node19</title>
<g id="a_Node000019"><a xlink:title=" ">
<polygon fill="#e0e0e0" stroke="#999999" points="1504.12,-24.88 1464.12,-24.88 1464.12,-5.63 1504.12,-5.63 1504.12,-24.88"/>
<text text-anchor="middle" x="1484.12" y="-11.38" font-family="Helvetica,sans-Serif" font-size="10.00">string</text>
</a>
</g>
</g>
<!-- Node18&#45;&gt;Node19 -->
<g id="edge20_Node000018_Node000019" class="edge">
<title>Node18&#45;&gt;Node19</title>
<g id="a_edge20_Node000018_Node000019"><a xlink:title=" ">
<path fill="none" stroke="#63b8ff" d="M1028,-71.66C1038.86,-69.79 1050.37,-67.94 1061.12,-66.5 1232.33,-43.52 1280.12,-70.69 1448.12,-30.5 1449.88,-30.08 1451.67,-29.59 1453.46,-29.05"/>
<polygon fill="#63b8ff" stroke="#63b8ff" points="1454.55,-32.38 1462.84,-25.77 1452.25,-25.77 1454.55,-32.38"/>
</a>
</g>
</g>
<!-- Node20 -->
<g id="Node000020" class="node">
<title>Node20</title>
<g id="a_Node000020"><a xlink:title=" ">
<polygon fill="#e0e0e0" stroke="#999999" points="1281.5,-24.88 1198.75,-24.88 1198.75,-5.63 1281.5,-5.63 1281.5,-24.88"/>
<text text-anchor="middle" x="1240.12" y="-11.38" font-family="Helvetica,sans-Serif" font-size="10.00">unordered_map</text>
</a>
</g>
</g>
<!-- Node18&#45;&gt;Node20 -->
<g id="edge21_Node000018_Node000020" class="edge">
<title>Node18&#45;&gt;Node20</title>
<g id="a_edge21_Node000018_Node000020"><a xlink:title=" ">
<path fill="none" stroke="#63b8ff" d="M1016.83,-71.65C1062.89,-60.22 1142,-40.59 1192.64,-28.03"/>
<polygon fill="#63b8ff" stroke="#63b8ff" points="1193.28,-31.48 1202.14,-25.67 1191.59,-24.68 1193.28,-31.48"/>
</a>
</g>
</g>
<!-- Node21 -->
<g id="Node000021" class="node">
<title>Node21</title>
<g id="a_Node000021"><a xlink:title=" ">
<polygon fill="#e0e0e0" stroke="#999999" points="941,-24.88 807.25,-24.88 807.25,-5.63 941,-5.63 941,-24.88"/>
<text text-anchor="middle" x="874.12" y="-11.38" font-family="Helvetica,sans-Serif" font-size="10.00">SFML/Graphics/Vertex.hpp</text>
</a>
</g>
</g>
<!-- Node18&#45;&gt;Node21 -->
<g id="edge22_Node000018_Node000021" class="edge">
<title>Node18&#45;&gt;Node21</title>
<g id="a_edge22_Node000018_Node000021"><a xlink:title=" ">
<path fill="none" stroke="#63b8ff" d="M965.39,-71.78C948.16,-61.3 919.38,-43.79 898.75,-31.23"/>
<polygon fill="#63b8ff" stroke="#63b8ff" points="900.74,-28.35 890.37,-26.14 897.1,-34.33 900.74,-28.35"/>
</a>
</g>
</g>
<!-- Node22&#45;&gt;Node11 -->
<g id="edge24_Node000022_Node000011" class="edge">
<title>Node22&#45;&gt;Node11</title>
<g id="a_edge24_Node000022_Node000011"><a xlink:title=" ">
<path fill="none" stroke="#63b8ff" d="M744.44,-71.78C748.92,-62.44 756.09,-47.53 761.87,-35.51"/>
<polygon fill="#63b8ff" stroke="#63b8ff" points="765.02,-37.04 766.2,-26.51 758.71,-34 765.02,-37.04"/>
</a>
</g>
</g>
<!-- Node22&#45;&gt;Node21 -->
<g id="edge26_Node000022_Node000021" class="edge">
<title>Node22&#45;&gt;Node21</title>
<g id="a_edge26_Node000022_Node000021"><a xlink:title=" ">
<path fill="none" stroke="#63b8ff" d="M759.04,-71.65C781.49,-60.84 819.15,-42.71 845.25,-30.15"/>
<polygon fill="#63b8ff" stroke="#63b8ff" points="846.45,-33.46 853.94,-25.96 843.41,-27.15 846.45,-33.46"/>
</a>
</g>
</g>
<!-- Node23 -->
<g id="Node000023" class="node">
<title>Node23</title>
<g id="a_Node000023"><a xlink:title=" ">
<polygon fill="#e0e0e0" stroke="#999999" points="1439.25,-24.88 1313,-24.88 1313,-5.63 1439.25,-5.63 1439.25,-24.88"/>
<text text-anchor="middle" x="1376.12" y="-11.38" font-family="Helvetica,sans-Serif" font-size="10.00">SFML/Graphics/Rect.hpp</text>
</a>
</g>
</g>
<!-- Node22&#45;&gt;Node23 -->
<g id="edge25_Node000022_Node000023" class="edge">
<title>Node22&#45;&gt;Node23</title>
<g id="a_edge25_Node000022_Node000023"><a xlink:title=" ">
<path fill="none" stroke="#63b8ff" d="M812.99,-74.16C959.84,-60.88 1278.43,-32 1290.12,-30.5 1297.88,-29.5 1306.01,-28.33 1314.04,-27.09"/>
<polygon fill="#63b8ff" stroke="#63b8ff" points="1314.46,-30.57 1323.79,-25.54 1313.36,-23.65 1314.46,-30.57"/>
</a>
</g>
</g>
<!-- Node24&#45;&gt;Node4 -->
<g id="edge28_Node000024_Node000004" class="edge">
<title>Node24&#45;&gt;Node4</title>
<g id="a_edge28_Node000024_Node000004"><a xlink:title=" ">
<path fill="none" stroke="#63b8ff" d="M1235.33,-71.66C1160.74,-58 1027.57,-33.46 1017.12,-30.5 1015.55,-30.05 1013.95,-29.57 1012.35,-29.05"/>
<polygon fill="#63b8ff" stroke="#63b8ff" points="1013.84,-25.87 1003.24,-25.86 1011.52,-32.47 1013.84,-25.87"/>
</a>
</g>
</g>
<!-- Node24&#45;&gt;Node6 -->
<g id="edge31_Node000024_Node000006" class="edge">
<title>Node24&#45;&gt;Node6</title>
<g id="a_edge31_Node000024_Node000006"><a xlink:title=" ">
<path fill="none" stroke="#63b8ff" d="M1257.6,-71.65C1223.77,-60.46 1166.2,-41.41 1128.16,-28.83"/>
<polygon fill="#63b8ff" stroke="#63b8ff" points="1129.54,-25.6 1118.95,-25.78 1127.34,-32.25 1129.54,-25.6"/>
</a>
</g>
</g>
<!-- Node24&#45;&gt;Node23 -->
<g id="edge30_Node000024_Node000023" class="edge">
<title>Node24&#45;&gt;Node23</title>
<g id="a_edge30_Node000024_Node000023"><a xlink:title=" ">
<path fill="none" stroke="#63b8ff" d="M1297.78,-71.78C1312.37,-61.44 1336.6,-44.27 1354.25,-31.75"/>
<polygon fill="#63b8ff" stroke="#63b8ff" points="1355.92,-34.86 1362.05,-26.23 1351.87,-29.15 1355.92,-34.86"/>
</a>
</g>
</g>
<!-- Node25 -->
<g id="Node000025" class="node">
<title>Node25</title>
<g id="a_Node000025"><a xlink:title=" ">
<polygon fill="#e0e0e0" stroke="#999999" points="1635.75,-24.88 1590.5,-24.88 1590.5,-5.63 1635.75,-5.63 1635.75,-24.88"/>
<text text-anchor="middle" x="1613.12" y="-11.38" font-family="Helvetica,sans-Serif" font-size="10.00">cstdint</text>
</a>
</g>
</g>
<!-- Node24&#45;&gt;Node25 -->
<g id="edge29_Node000024_Node000025" class="edge">
<title>Node24&#45;&gt;Node25</title>
<g id="a_edge29_Node000024_Node000025"><a xlink:title=" ">
<path fill="none" stroke="#63b8ff" d="M1335.47,-71.69C1345.3,-69.95 1355.53,-68.15 1365.12,-66.5 1461.03,-49.97 1487.92,-58.52 1581.12,-30.5 1582.12,-30.2 1583.12,-29.88 1584.13,-29.54"/>
<polygon fill="#63b8ff" stroke="#63b8ff" points="1585.37,-32.81 1593.41,-25.91 1582.82,-26.29 1585.37,-32.81"/>
</a>
</g>
</g>
<!-- Node26&#45;&gt;Node19 -->
<g id="edge33_Node000026_Node000019" class="edge">
<title>Node26&#45;&gt;Node19</title>
<g id="a_edge33_Node000026_Node000019"><a xlink:title=" ">
<path fill="none" stroke="#63b8ff" d="M1594.92,-71.65C1573.4,-60.89 1537.37,-42.87 1512.26,-30.32"/>
<polygon fill="#63b8ff" stroke="#63b8ff" points="1514.1,-27.33 1503.6,-25.99 1510.97,-33.59 1514.1,-27.33"/>
</a>
</g>
</g>
<!-- Node26&#45;&gt;Node20 -->
<g id="edge36_Node000026_Node000020" class="edge">
<title>Node26&#45;&gt;Node20</title>
<g id="a_edge36_Node000026_Node000020"><a xlink:title=" ">
<path fill="none" stroke="#63b8ff" d="M1559.81,-71.63C1549.63,-69.91 1539.05,-68.14 1529.12,-66.5 1429.2,-50.03 1403.6,-49.51 1304.12,-30.5 1299.6,-29.63 1294.9,-28.69 1290.2,-27.7"/>
<polygon fill="#63b8ff" stroke="#63b8ff" points="1291.3,-24.36 1280.79,-25.68 1289.83,-31.2 1291.3,-24.36"/>
</a>
</g>
</g>
<!-- Node26&#45;&gt;Node23 -->
<g id="edge37_Node000026_Node000023" class="edge">
<title>Node26&#45;&gt;Node23</title>
<g id="a_edge37_Node000026_Node000023"><a xlink:title=" ">
<path fill="none" stroke="#63b8ff" d="M1579.67,-71.65C1537.94,-60.29 1466.48,-40.84 1420.29,-28.27"/>
<polygon fill="#63b8ff" stroke="#63b8ff" points="1421.44,-24.95 1410.87,-25.71 1419.6,-31.71 1421.44,-24.95"/>
</a>
</g>
</g>
<!-- Node26&#45;&gt;Node25 -->
<g id="edge34_Node000026_Node000025" class="edge">
<title>Node26&#45;&gt;Node25</title>
<g id="a_edge34_Node000026_Node000025"><a xlink:title=" ">
<path fill="none" stroke="#63b8ff" d="M1613.12,-71.78C1613.12,-62.73 1613.12,-48.45 1613.12,-36.63"/>
<polygon fill="#63b8ff" stroke="#63b8ff" points="1616.63,-36.66 1613.13,-26.66 1609.63,-36.66 1616.63,-36.66"/>
</a>
</g>
</g>
<!-- Node27 -->
<g id="Node000027" class="node">
<title>Node27</title>
<g id="a_Node000027"><a xlink:title=" ">
<polygon fill="#e0e0e0" stroke="#999999" points="1572,-24.88 1522.25,-24.88 1522.25,-5.63 1572,-5.63 1572,-24.88"/>
<text text-anchor="middle" x="1547.12" y="-11.38" font-family="Helvetica,sans-Serif" font-size="10.00">optional</text>
</a>
</g>
</g>
<!-- Node26&#45;&gt;Node27 -->
<g id="edge35_Node000026_Node000027" class="edge">
<title>Node26&#45;&gt;Node27</title>
<g id="a_edge35_Node000026_Node000027"><a xlink:title=" ">
<path fill="none" stroke="#63b8ff" d="M1603.95,-71.78C1593.7,-61.77 1576.9,-45.35 1564.21,-32.95"/>
<polygon fill="#63b8ff" stroke="#63b8ff" points="1566.9,-30.69 1557.31,-26.2 1562.01,-35.69 1566.9,-30.69"/>
</a>
</g>
</g>
<!-- Node28&#45;&gt;Node19 -->
<g id="edge40_Node000028_Node000019" class="edge">
<title>Node28&#45;&gt;Node19</title>
<g id="a_edge40_Node000028_Node000019"><a xlink:title=" ">
<path fill="none" stroke="#63b8ff" d="M1721.7,-71.66C1713.21,-69.94 1704.39,-68.16 1696.12,-66.5 1614.84,-50.23 1591.66,-57.01 1513.12,-30.5 1512.48,-30.28 1511.83,-30.05 1511.17,-29.81"/>
<polygon fill="#63b8ff" stroke="#63b8ff" points="1512.64,-26.63 1502.07,-25.9 1509.88,-33.06 1512.64,-26.63"/>
</a>
</g>
</g>
<!-- Node28&#45;&gt;Node25 -->
<g id="edge41_Node000028_Node000025" class="edge">
<title>Node28&#45;&gt;Node25</title>
<g id="a_edge41_Node000028_Node000025"><a xlink:title=" ">
<path fill="none" stroke="#63b8ff" d="M1743.75,-71.66C1719.41,-61.72 1679.39,-45.24 1645.12,-30.5 1644.65,-30.3 1644.17,-30.09 1643.69,-29.88"/>
<polygon fill="#63b8ff" stroke="#63b8ff" points="1645.36,-26.79 1634.79,-25.98 1642.55,-33.2 1645.36,-26.79"/>
</a>
</g>
</g>
<!-- Node29 -->
<g id="Node000029" class="node">
<title>Node29</title>
<g id="a_Node000029"><a xlink:title=" ">
<polygon fill="#e0e0e0" stroke="#999999" points="1696.62,-24.88 1653.62,-24.88 1653.62,-5.63 1696.62,-5.63 1696.62,-24.88"/>
<text text-anchor="middle" x="1675.12" y="-11.38" font-family="Helvetica,sans-Serif" font-size="10.00">cmath</text>
</a>
</g>
</g>
<!-- Node28&#45;&gt;Node29 -->
<g id="edge39_Node000028_Node000029" class="edge">
<title>Node28&#45;&gt;Node29</title>
<g id="a_edge39_Node000028_Node000029"><a xlink:title=" ">
<path fill="none" stroke="#63b8ff" d="M1753.47,-71.78C1738.88,-61.44 1714.65,-44.27 1697,-31.75"/>
<polygon fill="#63b8ff" stroke="#63b8ff" points="1699.38,-29.15 1689.2,-26.23 1695.33,-34.86 1699.38,-29.15"/>
</a>
</g>
</g>
<!-- Node30 -->
<g id="Node000030" class="node">
<title>Node30</title>
<g id="a_Node000030"><a xlink:title=" ">
<polygon fill="#e0e0e0" stroke="#999999" points="1775.62,-24.88 1714.62,-24.88 1714.62,-5.63 1775.62,-5.63 1775.62,-24.88"/>
<text text-anchor="middle" x="1745.12" y="-11.38" font-family="Helvetica,sans-Serif" font-size="10.00">type_traits</text>
</a>
</g>
</g>
<!-- Node28&#45;&gt;Node30 -->
<g id="edge42_Node000028_Node000030" class="edge">
<title>Node28&#45;&gt;Node30</title>
<g id="a_edge42_Node000028_Node000030"><a xlink:title=" ">
<path fill="none" stroke="#63b8ff" d="M1763.21,-71.78C1760.2,-62.54 1755.41,-47.83 1751.52,-35.88"/>
<polygon fill="#63b8ff" stroke="#63b8ff" points="1754.91,-35.01 1748.49,-26.58 1748.26,-37.17 1754.91,-35.01"/>
</a>
</g>
</g>
<!-- Node31 -->
<g id="Node000031" class="node">
<title>Node31</title>
<g id="a_Node000031"><a xlink:href="_interpolation_8tpp.html" target="_top" xlink:title=" ">
<polygon fill="white" stroke="#666666" points="1922.75,-24.88 1793.5,-24.88 1793.5,-5.63 1922.75,-5.63 1922.75,-24.88"/>
<text text-anchor="middle" x="1858.12" y="-11.38" font-family="Helvetica,sans-Serif" font-size="10.00">sgui/Core/Interpolation.tpp</text>
</a>
</g>
</g>
<!-- Node28&#45;&gt;Node31 -->
<g id="edge43_Node000028_Node000031" class="edge">
<title>Node28&#45;&gt;Node31</title>
<g id="a_edge43_Node000028_Node000031"><a xlink:title=" ">
<path fill="none" stroke="#63b8ff" d="M1778.92,-71.78C1793.6,-61.49 1817.94,-44.43 1835.77,-31.93"/>
<polygon fill="#63b8ff" stroke="#63b8ff" points="1837.73,-34.83 1843.91,-26.22 1833.71,-29.09 1837.73,-34.83"/>
</a>
</g>
</g>
<!-- Node32&#45;&gt;Node26 -->
<g id="edge46_Node000032_Node000026" class="edge">
<title>Node32&#45;&gt;Node26</title>
<g id="a_edge46_Node000032_Node000026"><a xlink:title=" ">
<path fill="none" stroke="#63b8ff" d="M1780.61,-132.53C1742.41,-121.18 1690.19,-105.66 1654.27,-94.98"/>
<polygon fill="#63b8ff" stroke="#63b8ff" points="1655.71,-91.76 1645.13,-92.26 1653.71,-98.47 1655.71,-91.76"/>
</a>
</g>
</g>
<!-- Node33 -->
<g id="Node000033" class="node">
<title>Node33</title>
<g id="a_Node000033"><a xlink:title=" ">
<polygon fill="#e0e0e0" stroke="#999999" points="2442.62,-24.88 2345.62,-24.88 2345.62,-5.63 2442.62,-5.63 2442.62,-24.88"/>
<text text-anchor="middle" x="2394.12" y="-11.38" font-family="Helvetica,sans-Serif" font-size="10.00">nlohmann/json.hpp</text>
</a>
</g>
</g>
<!-- Node32&#45;&gt;Node33 -->
<g id="edge45_Node000032_Node000033" class="edge">
<title>Node32&#45;&gt;Node33</title>
<g id="a_edge45_Node000032_Node000033"><a xlink:title=" ">
<path fill="none" stroke="#63b8ff" d="M1882.04,-139.04C1936.98,-130.03 2026.08,-114.5 2102.12,-97 2192.76,-76.14 2297.49,-45.57 2353.61,-28.66"/>
<polygon fill="#63b8ff" stroke="#63b8ff" points="2354.49,-32.05 2363.05,-25.8 2352.46,-25.35 2354.49,-32.05"/>
</a>
</g>
</g>
<!-- Node34 -->
<g id="Node000034" class="node">
<title>Node34</title>
<g id="a_Node000034"><a xlink:href="_serialize_s_f_m_l_8h.html" target="_top" xlink:title=" ">
<polygon fill="white" stroke="#666666" points="2093.25,-97 2003,-97 2003,-66.5 2093.25,-66.5 2093.25,-97"/>
<text text-anchor="start" x="2011" y="-83.5" font-family="Helvetica,sans-Serif" font-size="10.00">sgui/Serialization</text>
<text text-anchor="middle" x="2048.12" y="-72.25" font-family="Helvetica,sans-Serif" font-size="10.00">/SerializeSFML.h</text>
</a>
</g>
</g>
<!-- Node32&#45;&gt;Node34 -->
<g id="edge47_Node000032_Node000034" class="edge">
<title>Node32&#45;&gt;Node34</title>
<g id="a_edge47_Node000032_Node000034"><a xlink:title=" ">
<path fill="none" stroke="#63b8ff" d="M1879.87,-132.53C1913.2,-122.67 1957.17,-109.66 1991.79,-99.42"/>
<polygon fill="#63b8ff" stroke="#63b8ff" points="1992.64,-102.82 2001.23,-96.62 1990.65,-96.11 1992.64,-102.82"/>
</a>
</g>
</g>
<!-- Node34&#45;&gt;Node23 -->
<g id="edge49_Node000034_Node000023" class="edge">
<title>Node34&#45;&gt;Node23</title>
<g id="a_edge49_Node000034_Node000023"><a xlink:title=" ">
<path fill="none" stroke="#63b8ff" d="M2002.92,-77.47C1883.43,-68.72 1561.14,-44.52 1455.12,-30.5 1448.14,-29.58 1440.84,-28.46 1433.61,-27.27"/>
<polygon fill="#63b8ff" stroke="#63b8ff" points="1434.32,-23.84 1423.87,-25.6 1433.14,-30.74 1434.32,-23.84"/>
</a>
</g>
</g>
<!-- Node34&#45;&gt;Node33 -->
<g id="edge48_Node000034_Node000033" class="edge">
<title>Node34&#45;&gt;Node33</title>
<g id="a_edge48_Node000034_Node000033"><a xlink:title=" ">
<path fill="none" stroke="#63b8ff" d="M2093.62,-73.89C2150.72,-65.04 2251.55,-48.61 2337.12,-30.5 2340.88,-29.71 2344.77,-28.84 2348.66,-27.93"/>
<polygon fill="#63b8ff" stroke="#63b8ff" points="2349.17,-31.41 2358.08,-25.67 2347.54,-24.6 2349.17,-31.41"/>
</a>
</g>
</g>
<!-- Node35 -->
<g id="Node000035" class="node">
<title>Node35</title>
<g id="a_Node000035"><a xlink:title=" ">
<polygon fill="#e0e0e0" stroke="#999999" points="2176.38,-24.88 2047.88,-24.88 2047.88,-5.63 2176.38,-5.63 2176.38,-24.88"/>
<text text-anchor="middle" x="2112.12" y="-11.38" font-family="Helvetica,sans-Serif" font-size="10.00">SFML/Graphics/Color.hpp</text>
</a>
</g>
</g>
<!-- Node34&#45;&gt;Node35 -->
<g id="edge50_Node000034_Node000035" class="edge">
<title>Node34&#45;&gt;Node35</title>
<g id="a_edge50_Node000034_Node000035"><a xlink:title=" ">
<path fill="none" stroke="#63b8ff" d="M2062.65,-66.11C2072.35,-56.34 2085.13,-43.45 2095.28,-33.23"/>
<polygon fill="#63b8ff" stroke="#63b8ff" points="2097.75,-35.71 2102.3,-26.15 2092.78,-30.78 2097.75,-35.71"/>
</a>
</g>
</g>
<!-- Node36 -->
<g id="Node000036" class="node">
<title>Node36</title>
<g id="a_Node000036"><a xlink:title=" ">
<polygon fill="#e0e0e0" stroke="#999999" points="2328,-24.88 2194.25,-24.88 2194.25,-5.63 2328,-5.63 2328,-24.88"/>
<text text-anchor="middle" x="2261.12" y="-11.38" font-family="Helvetica,sans-Serif" font-size="10.00">SFML/System/Vector3.hpp</text>
</a>
</g>
</g>
<!-- Node34&#45;&gt;Node36 -->
<g id="edge51_Node000034_Node000036" class="edge">
<title>Node34&#45;&gt;Node36</title>
<g id="a_edge51_Node000034_Node000036"><a xlink:title=" ">
<path fill="none" stroke="#63b8ff" d="M2093.56,-66.99C2131.2,-55.59 2184.23,-39.54 2220.48,-28.56"/>
<polygon fill="#63b8ff" stroke="#63b8ff" points="2221.16,-32.01 2229.71,-25.76 2219.13,-25.31 2221.16,-32.01"/>
</a>
</g>
</g>
<!-- Node37 -->
<g id="Node000037" class="node">
<title>Node37</title>
<g id="a_Node000037"><a xlink:href="_macro_8h.html" target="_top" xlink:title=" ">
<polygon fill="white" stroke="#666666" points="2029.88,-30.5 1940.38,-30.5 1940.38,0 2029.88,0 2029.88,-30.5"/>
<text text-anchor="start" x="1948.38" y="-17" font-family="Helvetica,sans-Serif" font-size="10.00">sgui/Serialization</text>
<text text-anchor="middle" x="1985.12" y="-5.75" font-family="Helvetica,sans-Serif" font-size="10.00">/Macro.h</text>
</a>
</g>
</g>
<!-- Node34&#45;&gt;Node37 -->
<g id="edge52_Node000034_Node000037" class="edge">
<title>Node34&#45;&gt;Node37</title>
<g id="a_edge52_Node000034_Node000037"><a xlink:title=" ">
<path fill="none" stroke="#63b8ff" d="M2033.83,-66.11C2026.02,-58.11 2016.17,-48.03 2007.37,-39.03"/>
<polygon fill="#63b8ff" stroke="#63b8ff" points="2009.91,-36.62 2000.42,-31.91 2004.91,-41.51 2009.91,-36.62"/>
</a>
</g>
</g>
</g>
</svg>
