<?xml version="1.0" encoding="UTF-8" standalone="no"?>
<!DOCTYPE svg PUBLIC "-//W3C//DTD SVG 1.1//EN"
 "http://www.w3.org/Graphics/SVG/1.1/DTD/svg11.dtd">
<!-- Generated by graphviz version 12.2.1 (20241206.2353)
 -->
<!-- Title: /github/workspace/src/sgui/Render/GuiRender.h Pages: 1 -->
<svg width="1946pt" height="204pt"
 viewBox="0.00 0.00 1945.88 204.25" xmlns="http://www.w3.org/2000/svg" xmlns:xlink="http://www.w3.org/1999/xlink">
<g id="graph0" class="graph" transform="scale(1 1) rotate(0) translate(4 200.25)">
<title>/github/workspace/src/sgui/Render/GuiRender.h</title>
<!-- Node1 -->
<g id="Node000001" class="node">
<title>Node1</title>
<g id="a_Node000001"><a xlink:title=" ">
<polygon fill="#999999" stroke="#666666" points="1187,-196.25 1060,-196.25 1060,-165.75 1187,-165.75 1187,-196.25"/>
<text text-anchor="start" x="1068" y="-182.75" font-family="Helvetica,sans-Serif" font-size="10.00">/github/workspace/src</text>
<text text-anchor="middle" x="1123.5" y="-171.5" font-family="Helvetica,sans-Serif" font-size="10.00">/sgui/Render/GuiRender.h</text>
</a>
</g>
</g>
<!-- Node2 -->
<g id="Node000002" class="node">
<title>Node2</title>
<g id="a_Node000002"><a xlink:title=" ">
<polygon fill="#e0e0e0" stroke="#999999" points="1332,-74.5 1289,-74.5 1289,-55.25 1332,-55.25 1332,-74.5"/>
<text text-anchor="middle" x="1310.5" y="-61" font-family="Helvetica,sans-Serif" font-size="10.00">vector</text>
</a>
</g>
</g>
<!-- Node1&#45;&gt;Node2 -->
<g id="edge1_Node000001_Node000002" class="edge">
<title>Node1&#45;&gt;Node2</title>
<g id="a_edge1_Node000001_Node000002"><a xlink:title=" ">
<path fill="none" stroke="#63b8ff" d="M1161.55,-165.27C1183.06,-156.26 1210.07,-143.79 1232.5,-129.75 1254.86,-115.76 1277.93,-96.1 1293.12,-82.3"/>
<polygon fill="#63b8ff" stroke="#63b8ff" points="1295.41,-84.95 1300.37,-75.59 1290.66,-79.81 1295.41,-84.95"/>
</a>
</g>
</g>
<!-- Node3 -->
<g id="Node000003" class="node">
<title>Node3</title>
<g id="a_Node000003"><a xlink:title=" ">
<polygon fill="#e0e0e0" stroke="#999999" points="387.25,-129.75 261.75,-129.75 261.75,-110.5 387.25,-110.5 387.25,-129.75"/>
<text text-anchor="middle" x="324.5" y="-116.25" font-family="Helvetica,sans-Serif" font-size="10.00">SFML/Graphics/Font.hpp</text>
</a>
</g>
</g>
<!-- Node1&#45;&gt;Node3 -->
<g id="edge2_Node000001_Node000003" class="edge">
<title>Node1&#45;&gt;Node3</title>
<g id="a_edge2_Node000001_Node000003"><a xlink:title=" ">
<path fill="none" stroke="#63b8ff" d="M1059.72,-176.67C934.97,-169.92 649.69,-153.34 398.86,-129.93"/>
<polygon fill="#63b8ff" stroke="#63b8ff" points="399.49,-126.47 389.2,-129.02 398.83,-133.44 399.49,-126.47"/>
</a>
</g>
</g>
<!-- Node4 -->
<g id="Node000004" class="node">
<title>Node4</title>
<g id="a_Node000004"><a xlink:title=" ">
<polygon fill="#e0e0e0" stroke="#999999" points="1271.38,-74.5 1143.62,-74.5 1143.62,-55.25 1271.38,-55.25 1271.38,-74.5"/>
<text text-anchor="middle" x="1207.5" y="-61" font-family="Helvetica,sans-Serif" font-size="10.00">SFML/Graphics/View.hpp</text>
</a>
</g>
</g>
<!-- Node1&#45;&gt;Node4 -->
<g id="edge3_Node000001_Node000004" class="edge">
<title>Node1&#45;&gt;Node4</title>
<g id="a_edge3_Node000001_Node000004"><a xlink:title=" ">
<path fill="none" stroke="#63b8ff" d="M1172.1,-165.45C1189.21,-157.73 1206.63,-146.3 1216.5,-129.75 1224.49,-116.36 1221.12,-98.64 1216.4,-85.26"/>
<polygon fill="#63b8ff" stroke="#63b8ff" points="1219.73,-84.18 1212.71,-76.24 1213.25,-86.83 1219.73,-84.18"/>
</a>
</g>
</g>
<!-- Node5 -->
<g id="Node000005" class="node">
<title>Node5</title>
<g id="a_Node000005"><a xlink:title=" ">
<polygon fill="#e0e0e0" stroke="#999999" points="682.88,-129.75 558.12,-129.75 558.12,-110.5 682.88,-110.5 682.88,-129.75"/>
<text text-anchor="middle" x="620.5" y="-116.25" font-family="Helvetica,sans-Serif" font-size="10.00">SFML/Graphics/Text.hpp</text>
</a>
</g>
</g>
<!-- Node1&#45;&gt;Node5 -->
<g id="edge4_Node000001_Node000005" class="edge">
<title>Node1&#45;&gt;Node5</title>
<g id="a_edge4_Node000001_Node000005"><a xlink:title=" ">
<path fill="none" stroke="#63b8ff" d="M1059.6,-172.61C977.66,-163.13 830.86,-146.09 694.39,-129.97"/>
<polygon fill="#63b8ff" stroke="#63b8ff" points="695.17,-126.54 684.83,-128.84 694.35,-133.49 695.17,-126.54"/>
</a>
</g>
</g>
<!-- Node6 -->
<g id="Node000006" class="node">
<title>Node6</title>
<g id="a_Node000006"><a xlink:title=" ">
<polygon fill="#e0e0e0" stroke="#999999" points="847.75,-129.75 701.25,-129.75 701.25,-110.5 847.75,-110.5 847.75,-129.75"/>
<text text-anchor="middle" x="774.5" y="-116.25" font-family="Helvetica,sans-Serif" font-size="10.00">SFML/Graphics/Drawable.hpp</text>
</a>
</g>
</g>
<!-- Node1&#45;&gt;Node6 -->
<g id="edge5_Node000001_Node000006" class="edge">
<title>Node1&#45;&gt;Node6</title>
<g id="a_edge5_Node000001_Node000006"><a xlink:title=" ">
<path fill="none" stroke="#63b8ff" d="M1059.89,-169.27C997.39,-158.73 902.47,-142.71 839.49,-132.09"/>
<polygon fill="#63b8ff" stroke="#63b8ff" points="840.45,-128.7 830,-130.49 839.28,-135.6 840.45,-128.7"/>
</a>
</g>
</g>
<!-- Node7 -->
<g id="Node000007" class="node">
<title>Node7</title>
<g id="a_Node000007"><a xlink:title=" ">
<polygon fill="#e0e0e0" stroke="#999999" points="1021.62,-129.75 865.38,-129.75 865.38,-110.5 1021.62,-110.5 1021.62,-129.75"/>
<text text-anchor="middle" x="943.5" y="-116.25" font-family="Helvetica,sans-Serif" font-size="10.00">SFML/Graphics/VertexArray.hpp</text>
</a>
</g>
</g>
<!-- Node1&#45;&gt;Node7 -->
<g id="edge6_Node000001_Node000007" class="edge">
<title>Node1&#45;&gt;Node7</title>
<g id="a_edge6_Node000001_Node000007"><a xlink:title=" ">
<path fill="none" stroke="#63b8ff" d="M1078.54,-165.3C1048.85,-155.58 1010.34,-142.99 982.05,-133.73"/>
<polygon fill="#63b8ff" stroke="#63b8ff" points="983.4,-130.49 972.81,-130.71 981.22,-137.15 983.4,-130.49"/>
</a>
</g>
</g>
<!-- Node8 -->
<g id="Node000008" class="node">
<title>Node8</title>
<g id="a_Node000008"><a xlink:title=" ">
<polygon fill="#e0e0e0" stroke="#999999" points="1207.62,-129.75 1039.38,-129.75 1039.38,-110.5 1207.62,-110.5 1207.62,-129.75"/>
<text text-anchor="middle" x="1123.5" y="-116.25" font-family="Helvetica,sans-Serif" font-size="10.00">SFML/Graphics/Transformable.hpp</text>
</a>
</g>
</g>
<!-- Node1&#45;&gt;Node8 -->
<g id="edge7_Node000001_Node000008" class="edge">
<title>Node1&#45;&gt;Node8</title>
<g id="a_edge7_Node000001_Node000008"><a xlink:title=" ">
<path fill="none" stroke="#63b8ff" d="M1123.5,-165.45C1123.5,-158.21 1123.5,-149.34 1123.5,-141.44"/>
<polygon fill="#63b8ff" stroke="#63b8ff" points="1127,-141.71 1123.5,-131.71 1120,-141.71 1127,-141.71"/>
</a>
</g>
</g>
<!-- Node9 -->
<g id="Node000009" class="node">
<title>Node9</title>
<g id="a_Node000009"><a xlink:href="_shapes_8h.html" target="_top" xlink:title=" ">
<polygon fill="white" stroke="#666666" points="243.88,-129.75 143.12,-129.75 143.12,-110.5 243.88,-110.5 243.88,-129.75"/>
<text text-anchor="middle" x="193.5" y="-116.25" font-family="Helvetica,sans-Serif" font-size="10.00">sgui/Core/Shapes.h</text>
</a>
</g>
</g>
<!-- Node1&#45;&gt;Node9 -->
<g id="edge8_Node000001_Node000009" class="edge">
<title>Node1&#45;&gt;Node9</title>
<g id="a_edge8_Node000001_Node000009"><a xlink:title=" ">
<path fill="none" stroke="#63b8ff" d="M1059.69,-178.23C917.28,-173.87 562.49,-160.72 255.67,-129.99"/>
<polygon fill="#63b8ff" stroke="#63b8ff" points="256.12,-126.52 245.82,-128.99 255.42,-133.48 256.12,-126.52"/>
</a>
</g>
</g>
<!-- Node13 -->
<g id="Node000013" class="node">
<title>Node13</title>
<g id="a_Node000013"><a xlink:href="_draw_options_8h.html" target="_top" xlink:title=" ">
<polygon fill="white" stroke="#666666" points="539.75,-129.75 405.25,-129.75 405.25,-110.5 539.75,-110.5 539.75,-129.75"/>
<text text-anchor="middle" x="472.5" y="-116.25" font-family="Helvetica,sans-Serif" font-size="10.00">sgui/Render/DrawOptions.h</text>
</a>
</g>
</g>
<!-- Node1&#45;&gt;Node13 -->
<g id="edge13_Node000001_Node000013" class="edge">
<title>Node1&#45;&gt;Node13</title>
<g id="a_edge13_Node000001_Node000013"><a xlink:title=" ">
<path fill="none" stroke="#63b8ff" d="M1059.75,-174.93C955.83,-166.54 743.16,-148.93 551.52,-129.93"/>
<polygon fill="#63b8ff" stroke="#63b8ff" points="551.9,-126.45 541.6,-128.94 551.21,-133.41 551.9,-126.45"/>
</a>
</g>
</g>
<!-- Node18 -->
<g id="Node000018" class="node">
<title>Node18</title>
<g id="a_Node000018"><a xlink:href="_texture_meshes_8h.html" target="_top" xlink:title=" ">
<polygon fill="white" stroke="#666666" points="1771,-129.75 1626,-129.75 1626,-110.5 1771,-110.5 1771,-129.75"/>
<text text-anchor="middle" x="1698.5" y="-116.25" font-family="Helvetica,sans-Serif" font-size="10.00">sgui/Render/TextureMeshes.h</text>
</a>
</g>
</g>
<!-- Node1&#45;&gt;Node18 -->
<g id="edge19_Node000001_Node000018" class="edge">
<title>Node1&#45;&gt;Node18</title>
<g id="a_edge19_Node000001_Node000018"><a xlink:title=" ">
<path fill="none" stroke="#63b8ff" d="M1187.32,-173.56C1279.2,-164.28 1454.37,-146.52 1614.6,-129.94"/>
<polygon fill="#63b8ff" stroke="#63b8ff" points="1614.53,-133.47 1624.12,-128.96 1613.81,-126.51 1614.53,-133.47"/>
</a>
</g>
</g>
<!-- Node22 -->
<g id="Node000022" class="node">
<title>Node22</title>
<g id="a_Node000022"><a xlink:href="_mesh_functions_8h.html" target="_top" xlink:title=" ">
<polygon fill="white" stroke="#666666" points="1447,-129.75 1302,-129.75 1302,-110.5 1447,-110.5 1447,-129.75"/>
<text text-anchor="middle" x="1374.5" y="-116.25" font-family="Helvetica,sans-Serif" font-size="10.00">sgui/Render/MeshFunctions.h</text>
</a>
</g>
</g>
<!-- Node1&#45;&gt;Node22 -->
<g id="edge24_Node000001_Node000022" class="edge">
<title>Node1&#45;&gt;Node22</title>
<g id="a_edge24_Node000001_Node000022"><a xlink:title=" ">
<path fill="none" stroke="#63b8ff" d="M1186.19,-165.3C1228.97,-155.26 1284.87,-142.15 1324.62,-132.82"/>
<polygon fill="#63b8ff" stroke="#63b8ff" points="1325.23,-136.28 1334.16,-130.59 1323.63,-129.46 1325.23,-136.28"/>
</a>
</g>
</g>
<!-- Node24 -->
<g id="Node000024" class="node">
<title>Node24</title>
<g id="a_Node000024"><a xlink:href="_clipping_layers_8h.html" target="_top" xlink:title=" ">
<polygon fill="white" stroke="#666666" points="1607.5,-129.75 1465.5,-129.75 1465.5,-110.5 1607.5,-110.5 1607.5,-129.75"/>
<text text-anchor="middle" x="1536.5" y="-116.25" font-family="Helvetica,sans-Serif" font-size="10.00">sgui/Render/ClippingLayers.h</text>
</a>
</g>
</g>
<!-- Node1&#45;&gt;Node24 -->
<g id="edge28_Node000001_Node000024" class="edge">
<title>Node1&#45;&gt;Node24</title>
<g id="a_edge28_Node000001_Node000024"><a xlink:title=" ">
<path fill="none" stroke="#63b8ff" d="M1187.13,-170.93C1261.1,-160.38 1383.05,-143 1461.55,-131.81"/>
<polygon fill="#63b8ff" stroke="#63b8ff" points="1461.9,-135.3 1471.3,-130.42 1460.91,-128.37 1461.9,-135.3"/>
</a>
</g>
</g>
<!-- Node26 -->
<g id="Node000026" class="node">
<title>Node26</title>
<g id="a_Node000026"><a xlink:href="_texture_atlas_8h.html" target="_top" xlink:title=" ">
<polygon fill="white" stroke="#666666" points="1937.88,-129.75 1789.12,-129.75 1789.12,-110.5 1937.88,-110.5 1937.88,-129.75"/>
<text text-anchor="middle" x="1863.5" y="-116.25" font-family="Helvetica,sans-Serif" font-size="10.00">sgui/Resources/TextureAtlas.h</text>
</a>
</g>
</g>
<!-- Node1&#45;&gt;Node26 -->
<g id="edge33_Node000001_Node000026" class="edge">
<title>Node1&#45;&gt;Node26</title>
<g id="a_edge33_Node000001_Node000026"><a xlink:title=" ">
<path fill="none" stroke="#63b8ff" d="M1187.43,-175.69C1303,-167.77 1554.64,-149.95 1777.59,-129.99"/>
<polygon fill="#63b8ff" stroke="#63b8ff" points="1777.7,-133.5 1787.35,-129.11 1777.07,-126.52 1777.7,-133.5"/>
</a>
</g>
</g>
<!-- Node9&#45;&gt;Node2 -->
<g id="edge10_Node000009_Node000002" class="edge">
<title>Node9&#45;&gt;Node2</title>
<g id="a_edge10_Node000009_Node000002"><a xlink:title=" ">
<path fill="none" stroke="#63b8ff" d="M244.31,-111.34C247.07,-111.02 249.82,-110.74 252.5,-110.5 704.15,-69.7 827.01,-144.97 1277.64,-74.56"/>
<polygon fill="#63b8ff" stroke="#63b8ff" points="1277.86,-78.07 1287.19,-73.05 1276.77,-71.16 1277.86,-78.07"/>
</a>
</g>
</g>
<!-- Node10 -->
<g id="Node000010" class="node">
<title>Node10</title>
<g id="a_Node000010"><a xlink:title=" ">
<polygon fill="#e0e0e0" stroke="#999999" points="447,-74.5 410,-74.5 410,-55.25 447,-55.25 447,-74.5"/>
<text text-anchor="middle" x="428.5" y="-61" font-family="Helvetica,sans-Serif" font-size="10.00">array</text>
</a>
</g>
</g>
<!-- Node9&#45;&gt;Node10 -->
<g id="edge9_Node000009_Node000010" class="edge">
<title>Node9&#45;&gt;Node10</title>
<g id="a_edge9_Node000009_Node000010"><a xlink:title=" ">
<path fill="none" stroke="#63b8ff" d="M242.57,-110C282.44,-102.28 340.33,-90.35 398.77,-75.04"/>
<polygon fill="#63b8ff" stroke="#63b8ff" points="399.46,-78.48 408.22,-72.53 397.66,-71.72 399.46,-78.48"/>
</a>
</g>
</g>
<!-- Node11 -->
<g id="Node000011" class="node">
<title>Node11</title>
<g id="a_Node000011"><a xlink:title=" ">
<polygon fill="#e0e0e0" stroke="#999999" points="260.38,-74.5 126.62,-74.5 126.62,-55.25 260.38,-55.25 260.38,-74.5"/>
<text text-anchor="middle" x="193.5" y="-61" font-family="Helvetica,sans-Serif" font-size="10.00">SFML/System/Vector2.hpp</text>
</a>
</g>
</g>
<!-- Node9&#45;&gt;Node11 -->
<g id="edge11_Node000009_Node000011" class="edge">
<title>Node9&#45;&gt;Node11</title>
<g id="a_edge11_Node000009_Node000011"><a xlink:title=" ">
<path fill="none" stroke="#63b8ff" d="M193.5,-110.33C193.5,-103.82 193.5,-94.67 193.5,-86.37"/>
<polygon fill="#63b8ff" stroke="#63b8ff" points="197,-86.37 193.5,-76.37 190,-86.37 197,-86.37"/>
</a>
</g>
</g>
<!-- Node12 -->
<g id="Node000012" class="node">
<title>Node12</title>
<g id="a_Node000012"><a xlink:href="_shapes_8tpp.html" target="_top" xlink:title=" ">
<polygon fill="white" stroke="#666666" points="109,-74.5 0,-74.5 0,-55.25 109,-55.25 109,-74.5"/>
<text text-anchor="middle" x="54.5" y="-61" font-family="Helvetica,sans-Serif" font-size="10.00">sgui/Core/Shapes.tpp</text>
</a>
</g>
</g>
<!-- Node9&#45;&gt;Node12 -->
<g id="edge12_Node000009_Node000012" class="edge">
<title>Node9&#45;&gt;Node12</title>
<g id="a_edge12_Node000009_Node000012"><a xlink:title=" ">
<path fill="none" stroke="#63b8ff" d="M169.92,-110.09C147.66,-101.56 114.01,-88.67 88.78,-79.01"/>
<polygon fill="#63b8ff" stroke="#63b8ff" points="90.2,-75.8 79.61,-75.49 87.69,-82.34 90.2,-75.8"/>
</a>
</g>
</g>
<!-- Node14 -->
<g id="Node000014" class="node">
<title>Node14</title>
<g id="a_Node000014"><a xlink:title=" ">
<polygon fill="#e0e0e0" stroke="#999999" points="593.75,-74.5 465.25,-74.5 465.25,-55.25 593.75,-55.25 593.75,-74.5"/>
<text text-anchor="middle" x="529.5" y="-61" font-family="Helvetica,sans-Serif" font-size="10.00">SFML/Graphics/Color.hpp</text>
</a>
</g>
</g>
<!-- Node13&#45;&gt;Node14 -->
<g id="edge14_Node000013_Node000014" class="edge">
<title>Node13&#45;&gt;Node14</title>
<g id="a_edge14_Node000013_Node000014"><a xlink:title=" ">
<path fill="none" stroke="#63b8ff" d="M482.17,-110.09C490.24,-102.55 501.97,-91.6 511.72,-82.48"/>
<polygon fill="#63b8ff" stroke="#63b8ff" points="513.95,-85.19 518.87,-75.81 509.17,-80.08 513.95,-85.19"/>
</a>
</g>
</g>
<!-- Node15 -->
<g id="Node000015" class="node">
<title>Node15</title>
<g id="a_Node000015"><a xlink:href="_item_states_8h.html" target="_top" xlink:title=" ">
<polygon fill="white" stroke="#666666" points="614.88,-19.25 484.12,-19.25 484.12,0 614.88,0 614.88,-19.25"/>
<text text-anchor="middle" x="549.5" y="-5.75" font-family="Helvetica,sans-Serif" font-size="10.00">sgui/Widgets/ItemStates.h</text>
</a>
</g>
</g>
<!-- Node13&#45;&gt;Node15 -->
<g id="edge15_Node000013_Node000015" class="edge">
<title>Node13&#45;&gt;Node15</title>
<g id="a_edge15_Node000013_Node000015"><a xlink:title=" ">
<path fill="none" stroke="#63b8ff" d="M539.98,-112.06C563.69,-105.96 588.01,-94.79 602.5,-74.5 614.98,-57.02 594.97,-38.25 576.07,-25.61"/>
<polygon fill="#63b8ff" stroke="#63b8ff" points="578.08,-22.74 567.74,-20.4 574.36,-28.67 578.08,-22.74"/>
</a>
</g>
</g>
<!-- Node16 -->
<g id="Node000016" class="node">
<title>Node16</title>
<g id="a_Node000016"><a xlink:href="_aspect_8h.html" target="_top" xlink:title=" ">
<polygon fill="white" stroke="#666666" points="392.25,-74.5 278.75,-74.5 278.75,-55.25 392.25,-55.25 392.25,-74.5"/>
<text text-anchor="middle" x="335.5" y="-61" font-family="Helvetica,sans-Serif" font-size="10.00">sgui/Widgets/Aspect.h</text>
</a>
</g>
</g>
<!-- Node13&#45;&gt;Node16 -->
<g id="edge16_Node000013_Node000016" class="edge">
<title>Node13&#45;&gt;Node16</title>
<g id="a_edge16_Node000013_Node000016"><a xlink:title=" ">
<path fill="none" stroke="#63b8ff" d="M449.26,-110.09C427.31,-101.56 394.15,-88.67 369.29,-79.01"/>
<polygon fill="#63b8ff" stroke="#63b8ff" points="370.85,-75.86 360.26,-75.5 368.32,-82.39 370.85,-75.86"/>
</a>
</g>
</g>
<!-- Node16&#45;&gt;Node15 -->
<g id="edge18_Node000016_Node000015" class="edge">
<title>Node16&#45;&gt;Node15</title>
<g id="a_edge18_Node000016_Node000015"><a xlink:title=" ">
<path fill="none" stroke="#63b8ff" d="M371.8,-54.84C407.62,-45.93 462.56,-32.26 501.87,-22.48"/>
<polygon fill="#63b8ff" stroke="#63b8ff" points="502.69,-25.88 511.55,-20.07 501,-19.09 502.69,-25.88"/>
</a>
</g>
</g>
<!-- Node17 -->
<g id="Node000017" class="node">
<title>Node17</title>
<g id="a_Node000017"><a xlink:href="_widgets_8h.html" target="_top" xlink:title=" ">
<polygon fill="white" stroke="#666666" points="394.5,-19.25 276.5,-19.25 276.5,0 394.5,0 394.5,-19.25"/>
<text text-anchor="middle" x="335.5" y="-5.75" font-family="Helvetica,sans-Serif" font-size="10.00">sgui/Widgets/Widgets.h</text>
</a>
</g>
</g>
<!-- Node16&#45;&gt;Node17 -->
<g id="edge17_Node000016_Node000017" class="edge">
<title>Node16&#45;&gt;Node17</title>
<g id="a_edge17_Node000016_Node000017"><a xlink:title=" ">
<path fill="none" stroke="#63b8ff" d="M335.5,-55.08C335.5,-48.57 335.5,-39.42 335.5,-31.12"/>
<polygon fill="#63b8ff" stroke="#63b8ff" points="339,-31.12 335.5,-21.12 332,-31.12 339,-31.12"/>
</a>
</g>
</g>
<!-- Node18&#45;&gt;Node2 -->
<g id="edge20_Node000018_Node000002" class="edge">
<title>Node18&#45;&gt;Node2</title>
<g id="a_edge20_Node000018_Node000002"><a xlink:title=" ">
<path fill="none" stroke="#63b8ff" d="M1625.59,-111.4C1542.16,-102.33 1409.46,-87.16 1343.49,-74.78"/>
<polygon fill="#63b8ff" stroke="#63b8ff" points="1344.33,-71.38 1333.84,-72.88 1342.97,-78.25 1344.33,-71.38"/>
</a>
</g>
</g>
<!-- Node19 -->
<g id="Node000019" class="node">
<title>Node19</title>
<g id="a_Node000019"><a xlink:title=" ">
<polygon fill="#e0e0e0" stroke="#999999" points="1749.5,-74.5 1709.5,-74.5 1709.5,-55.25 1749.5,-55.25 1749.5,-74.5"/>
<text text-anchor="middle" x="1729.5" y="-61" font-family="Helvetica,sans-Serif" font-size="10.00">string</text>
</a>
</g>
</g>
<!-- Node18&#45;&gt;Node19 -->
<g id="edge21_Node000018_Node000019" class="edge">
<title>Node18&#45;&gt;Node19</title>
<g id="a_edge21_Node000018_Node000019"><a xlink:title=" ">
<path fill="none" stroke="#63b8ff" d="M1703.62,-110.33C1707.68,-103.36 1713.49,-93.37 1718.59,-84.62"/>
<polygon fill="#63b8ff" stroke="#63b8ff" points="1721.5,-86.57 1723.51,-76.17 1715.45,-83.05 1721.5,-86.57"/>
</a>
</g>
</g>
<!-- Node20 -->
<g id="Node000020" class="node">
<title>Node20</title>
<g id="a_Node000020"><a xlink:title=" ">
<polygon fill="#e0e0e0" stroke="#999999" points="1849.88,-74.5 1767.12,-74.5 1767.12,-55.25 1849.88,-55.25 1849.88,-74.5"/>
<text text-anchor="middle" x="1808.5" y="-61" font-family="Helvetica,sans-Serif" font-size="10.00">unordered_map</text>
</a>
</g>
</g>
<!-- Node18&#45;&gt;Node20 -->
<g id="edge22_Node000018_Node000020" class="edge">
<title>Node18&#45;&gt;Node20</title>
<g id="a_edge22_Node000018_Node000020"><a xlink:title=" ">
<path fill="none" stroke="#63b8ff" d="M1717.16,-110.09C1734.23,-101.83 1759.74,-89.48 1779.47,-79.93"/>
<polygon fill="#63b8ff" stroke="#63b8ff" points="1780.91,-83.12 1788.39,-75.61 1777.86,-76.82 1780.91,-83.12"/>
</a>
</g>
</g>
<!-- Node21 -->
<g id="Node000021" class="node">
<title>Node21</title>
<g id="a_Node000021"><a xlink:title=" ">
<polygon fill="#e0e0e0" stroke="#999999" points="1483.38,-74.5 1349.62,-74.5 1349.62,-55.25 1483.38,-55.25 1483.38,-74.5"/>
<text text-anchor="middle" x="1416.5" y="-61" font-family="Helvetica,sans-Serif" font-size="10.00">SFML/Graphics/Vertex.hpp</text>
</a>
</g>
</g>
<!-- Node18&#45;&gt;Node21 -->
<g id="edge23_Node000018_Node000021" class="edge">
<title>Node18&#45;&gt;Node21</title>
<g id="a_edge23_Node000018_Node000021"><a xlink:title=" ">
<path fill="none" stroke="#63b8ff" d="M1650.34,-110.03C1601.98,-100.9 1527.38,-86.81 1475.49,-77.01"/>
<polygon fill="#63b8ff" stroke="#63b8ff" points="1476.42,-73.63 1465.95,-75.21 1475.12,-80.51 1476.42,-73.63"/>
</a>
</g>
</g>
<!-- Node22&#45;&gt;Node10 -->
<g id="edge25_Node000022_Node000010" class="edge">
<title>Node22&#45;&gt;Node10</title>
<g id="a_edge25_Node000022_Node000010"><a xlink:title=" ">
<path fill="none" stroke="#63b8ff" d="M1301.75,-115.04C1274.95,-113.57 1244.35,-111.92 1216.5,-110.5 882.41,-93.47 791.55,-131.89 458.26,-74.29"/>
<polygon fill="#63b8ff" stroke="#63b8ff" points="459.26,-70.91 448.81,-72.64 458.06,-77.8 459.26,-70.91"/>
</a>
</g>
</g>
<!-- Node22&#45;&gt;Node21 -->
<g id="edge27_Node000022_Node000021" class="edge">
<title>Node22&#45;&gt;Node21</title>
<g id="a_edge27_Node000022_Node000021"><a xlink:title=" ">
<path fill="none" stroke="#63b8ff" d="M1381.44,-110.33C1387.12,-103.13 1395.34,-92.71 1402.39,-83.76"/>
<polygon fill="#63b8ff" stroke="#63b8ff" points="1405.03,-86.07 1408.48,-76.05 1399.54,-81.73 1405.03,-86.07"/>
</a>
</g>
</g>
<!-- Node23 -->
<g id="Node000023" class="node">
<title>Node23</title>
<g id="a_Node000023"><a xlink:title=" ">
<polygon fill="#e0e0e0" stroke="#999999" points="1627.62,-74.5 1501.38,-74.5 1501.38,-55.25 1627.62,-55.25 1627.62,-74.5"/>
<text text-anchor="middle" x="1564.5" y="-61" font-family="Helvetica,sans-Serif" font-size="10.00">SFML/Graphics/Rect.hpp</text>
</a>
</g>
</g>
<!-- Node22&#45;&gt;Node23 -->
<g id="edge26_Node000022_Node000023" class="edge">
<title>Node22&#45;&gt;Node23</title>
<g id="a_edge26_Node000022_Node000023"><a xlink:title=" ">
<path fill="none" stroke="#63b8ff" d="M1406.73,-110.09C1438.26,-101.26 1486.48,-87.74 1521.31,-77.98"/>
<polygon fill="#63b8ff" stroke="#63b8ff" points="1521.97,-81.43 1530.65,-75.36 1520.08,-74.69 1521.97,-81.43"/>
</a>
</g>
</g>
<!-- Node24&#45;&gt;Node2 -->
<g id="edge29_Node000024_Node000002" class="edge">
<title>Node24&#45;&gt;Node2</title>
<g id="a_edge29_Node000024_Node000002"><a xlink:title=" ">
<path fill="none" stroke="#63b8ff" d="M1493.51,-110.06C1456.1,-102.02 1400.17,-89.6 1343.4,-75.15"/>
<polygon fill="#63b8ff" stroke="#63b8ff" points="1344.44,-71.8 1333.88,-72.71 1342.7,-78.58 1344.44,-71.8"/>
</a>
</g>
</g>
<!-- Node24&#45;&gt;Node4 -->
<g id="edge32_Node000024_Node000004" class="edge">
<title>Node24&#45;&gt;Node4</title>
<g id="a_edge32_Node000024_Node000004"><a xlink:title=" ">
<path fill="none" stroke="#63b8ff" d="M1480.32,-110.03C1423.51,-100.84 1335.67,-86.62 1275.08,-76.81"/>
<polygon fill="#63b8ff" stroke="#63b8ff" points="1275.65,-73.36 1265.22,-75.22 1274.53,-80.27 1275.65,-73.36"/>
</a>
</g>
</g>
<!-- Node24&#45;&gt;Node23 -->
<g id="edge31_Node000024_Node000023" class="edge">
<title>Node24&#45;&gt;Node23</title>
<g id="a_edge31_Node000024_Node000023"><a xlink:title=" ">
<path fill="none" stroke="#63b8ff" d="M1541.12,-110.33C1544.75,-103.44 1549.93,-93.59 1554.49,-84.91"/>
<polygon fill="#63b8ff" stroke="#63b8ff" points="1557.52,-86.68 1559.07,-76.2 1551.32,-83.42 1557.52,-86.68"/>
</a>
</g>
</g>
<!-- Node25 -->
<g id="Node000025" class="node">
<title>Node25</title>
<g id="a_Node000025"><a xlink:title=" ">
<polygon fill="#e0e0e0" stroke="#999999" points="1691.12,-74.5 1645.88,-74.5 1645.88,-55.25 1691.12,-55.25 1691.12,-74.5"/>
<text text-anchor="middle" x="1668.5" y="-61" font-family="Helvetica,sans-Serif" font-size="10.00">cstdint</text>
</a>
</g>
</g>
<!-- Node24&#45;&gt;Node25 -->
<g id="edge30_Node000024_Node000025" class="edge">
<title>Node24&#45;&gt;Node25</title>
<g id="a_edge30_Node000024_Node000025"><a xlink:title=" ">
<path fill="none" stroke="#63b8ff" d="M1558.89,-110.09C1579.94,-101.6 1611.7,-88.79 1635.62,-79.14"/>
<polygon fill="#63b8ff" stroke="#63b8ff" points="1636.63,-82.51 1644.59,-75.52 1634.01,-76.01 1636.63,-82.51"/>
</a>
</g>
</g>
<!-- Node26&#45;&gt;Node19 -->
<g id="edge34_Node000026_Node000019" class="edge">
<title>Node26&#45;&gt;Node19</title>
<g id="a_edge34_Node000026_Node000019"><a xlink:title=" ">
<path fill="none" stroke="#63b8ff" d="M1840.77,-110.09C1818.62,-101.29 1784.8,-87.85 1760.26,-78.1"/>
<polygon fill="#63b8ff" stroke="#63b8ff" points="1761.7,-74.91 1751.12,-74.46 1759.12,-81.41 1761.7,-74.91"/>
</a>
</g>
</g>
<!-- Node26&#45;&gt;Node20 -->
<g id="edge37_Node000026_Node000020" class="edge">
<title>Node26&#45;&gt;Node20</title>
<g id="a_edge37_Node000026_Node000020"><a xlink:title=" ">
<path fill="none" stroke="#63b8ff" d="M1854.42,-110.33C1846.66,-102.82 1835.29,-91.81 1825.8,-82.63"/>
<polygon fill="#63b8ff" stroke="#63b8ff" points="1828.49,-80.35 1818.87,-75.91 1823.62,-85.38 1828.49,-80.35"/>
</a>
</g>
</g>
<!-- Node26&#45;&gt;Node23 -->
<g id="edge38_Node000026_Node000023" class="edge">
<title>Node26&#45;&gt;Node23</title>
<g id="a_edge38_Node000026_Node000023"><a xlink:title=" ">
<path fill="none" stroke="#63b8ff" d="M1812.44,-110.03C1761.02,-100.87 1681.64,-86.74 1626.61,-76.94"/>
<polygon fill="#63b8ff" stroke="#63b8ff" points="1627.55,-73.55 1617.09,-75.24 1626.32,-80.44 1627.55,-73.55"/>
</a>
</g>
</g>
<!-- Node26&#45;&gt;Node25 -->
<g id="edge35_Node000026_Node000025" class="edge">
<title>Node26&#45;&gt;Node25</title>
<g id="a_edge35_Node000026_Node000025"><a xlink:title=" ">
<path fill="none" stroke="#63b8ff" d="M1830.42,-110.09C1794.73,-100.35 1738.2,-84.91 1702.25,-75.09"/>
<polygon fill="#63b8ff" stroke="#63b8ff" points="1703.38,-71.77 1692.81,-72.51 1701.54,-78.52 1703.38,-71.77"/>
</a>
</g>
</g>
<!-- Node27 -->
<g id="Node000027" class="node">
<title>Node27</title>
<g id="a_Node000027"><a xlink:title=" ">
<polygon fill="#e0e0e0" stroke="#999999" points="1917.38,-74.5 1867.62,-74.5 1867.62,-55.25 1917.38,-55.25 1917.38,-74.5"/>
<text text-anchor="middle" x="1892.5" y="-61" font-family="Helvetica,sans-Serif" font-size="10.00">optional</text>
</a>
</g>
</g>
<!-- Node26&#45;&gt;Node27 -->
<g id="edge36_Node000026_Node000027" class="edge">
<title>Node26&#45;&gt;Node27</title>
<g id="a_edge36_Node000026_Node000027"><a xlink:title=" ">
<path fill="none" stroke="#63b8ff" d="M1868.29,-110.33C1872.04,-103.44 1877.41,-93.59 1882.13,-84.91"/>
<polygon fill="#63b8ff" stroke="#63b8ff" points="1885.17,-86.64 1886.88,-76.19 1879.03,-83.3 1885.17,-86.64"/>
</a>
</g>
</g>
</g>
</svg>
