<?xml version="1.0" encoding="UTF-8" standalone="no"?>
<!DOCTYPE svg PUBLIC "-//W3C//DTD SVG 1.1//EN"
 "http://www.w3.org/Graphics/SVG/1.1/DTD/svg11.dtd">
<!-- Generated by graphviz version 12.2.1 (20241206.2353)
 -->
<!-- Title: /github/workspace/src/sgui/Render/GuiRender.h Pages: 1 -->
<svg width="1804pt" height="149pt"
 viewBox="0.00 0.00 1803.75 149.00" xmlns="http://www.w3.org/2000/svg" xmlns:xlink="http://www.w3.org/1999/xlink">
<g id="graph0" class="graph" transform="scale(1 1) rotate(0) translate(4 145)">
<title>/github/workspace/src/sgui/Render/GuiRender.h</title>
<!-- Node1 -->
<g id="Node000001" class="node">
<title>Node1</title>
<g id="a_Node000001"><a xlink:title=" ">
<polygon fill="#999999" stroke="#666666" points="1100.88,-141 973.88,-141 973.88,-110.5 1100.88,-110.5 1100.88,-141"/>
<text text-anchor="start" x="981.88" y="-127.5" font-family="Helvetica,sans-Serif" font-size="10.00">/github/workspace/src</text>
<text text-anchor="middle" x="1037.38" y="-116.25" font-family="Helvetica,sans-Serif" font-size="10.00">/sgui/Render/GuiRender.h</text>
</a>
</g>
</g>
<!-- Node2 -->
<g id="Node000002" class="node">
<title>Node2</title>
<g id="a_Node000002"><a xlink:title=" ">
<polygon fill="#e0e0e0" stroke="#999999" points="1189.88,-19.25 1146.88,-19.25 1146.88,0 1189.88,0 1189.88,-19.25"/>
<text text-anchor="middle" x="1168.38" y="-5.75" font-family="Helvetica,sans-Serif" font-size="10.00">vector</text>
</a>
</g>
</g>
<!-- Node1&#45;&gt;Node2 -->
<g id="edge1_Node000001_Node000002" class="edge">
<title>Node1&#45;&gt;Node2</title>
<g id="a_edge1_Node000001_Node000002"><a xlink:title=" ">
<path fill="none" stroke="#63b8ff" d="M1054.23,-110.06C1078.73,-88.72 1124.02,-49.27 1149.56,-27.01"/>
<polygon fill="#63b8ff" stroke="#63b8ff" points="1151.63,-29.86 1156.87,-20.65 1147.03,-24.58 1151.63,-29.86"/>
</a>
</g>
</g>
<!-- Node3 -->
<g id="Node000003" class="node">
<title>Node3</title>
<g id="a_Node000003"><a xlink:title=" ">
<polygon fill="#e0e0e0" stroke="#999999" points="422.12,-74.5 296.62,-74.5 296.62,-55.25 422.12,-55.25 422.12,-74.5"/>
<text text-anchor="middle" x="359.38" y="-61" font-family="Helvetica,sans-Serif" font-size="10.00">SFML/Graphics/Font.hpp</text>
</a>
</g>
</g>
<!-- Node1&#45;&gt;Node3 -->
<g id="edge2_Node000001_Node000003" class="edge">
<title>Node1&#45;&gt;Node3</title>
<g id="a_edge2_Node000001_Node000003"><a xlink:title=" ">
<path fill="none" stroke="#63b8ff" d="M973.61,-120.23C865.09,-112.37 637.26,-95.14 433.78,-74.71"/>
<polygon fill="#63b8ff" stroke="#63b8ff" points="434.38,-71.25 424.08,-73.73 433.68,-78.22 434.38,-71.25"/>
</a>
</g>
</g>
<!-- Node4 -->
<g id="Node000004" class="node">
<title>Node4</title>
<g id="a_Node000004"><a xlink:title=" ">
<polygon fill="#e0e0e0" stroke="#999999" points="1129.25,-19.25 1001.5,-19.25 1001.5,0 1129.25,0 1129.25,-19.25"/>
<text text-anchor="middle" x="1065.38" y="-5.75" font-family="Helvetica,sans-Serif" font-size="10.00">SFML/Graphics/View.hpp</text>
</a>
</g>
</g>
<!-- Node1&#45;&gt;Node4 -->
<g id="edge3_Node000001_Node000004" class="edge">
<title>Node1&#45;&gt;Node4</title>
<g id="a_edge3_Node000001_Node000004"><a xlink:title=" ">
<path fill="none" stroke="#63b8ff" d="M1051.87,-110.37C1060.21,-101.02 1069.91,-88.09 1074.38,-74.5 1079.09,-60.15 1076.34,-43.19 1072.68,-30.35"/>
<polygon fill="#63b8ff" stroke="#63b8ff" points="1076.04,-29.36 1069.58,-20.96 1069.39,-31.56 1076.04,-29.36"/>
</a>
</g>
</g>
<!-- Node5 -->
<g id="Node000005" class="node">
<title>Node5</title>
<g id="a_Node000005"><a xlink:title=" ">
<polygon fill="#e0e0e0" stroke="#999999" points="705.62,-74.5 559.12,-74.5 559.12,-55.25 705.62,-55.25 705.62,-74.5"/>
<text text-anchor="middle" x="632.38" y="-61" font-family="Helvetica,sans-Serif" font-size="10.00">SFML/Graphics/Drawable.hpp</text>
</a>
</g>
</g>
<!-- Node1&#45;&gt;Node5 -->
<g id="edge4_Node000001_Node000005" class="edge">
<title>Node1&#45;&gt;Node5</title>
<g id="a_edge4_Node000001_Node000005"><a xlink:title=" ">
<path fill="none" stroke="#63b8ff" d="M973.65,-115.49C901.04,-104.93 782.55,-87.71 706.04,-76.58"/>
<polygon fill="#63b8ff" stroke="#63b8ff" points="706.96,-73.18 696.56,-75.21 705.95,-80.11 706.96,-73.18"/>
</a>
</g>
</g>
<!-- Node6 -->
<g id="Node000006" class="node">
<title>Node6</title>
<g id="a_Node000006"><a xlink:title=" ">
<polygon fill="#e0e0e0" stroke="#999999" points="879.5,-74.5 723.25,-74.5 723.25,-55.25 879.5,-55.25 879.5,-74.5"/>
<text text-anchor="middle" x="801.38" y="-61" font-family="Helvetica,sans-Serif" font-size="10.00">SFML/Graphics/VertexArray.hpp</text>
</a>
</g>
</g>
<!-- Node1&#45;&gt;Node6 -->
<g id="edge5_Node000001_Node000006" class="edge">
<title>Node1&#45;&gt;Node6</title>
<g id="a_edge5_Node000001_Node000006"><a xlink:title=" ">
<path fill="none" stroke="#63b8ff" d="M978.43,-110.05C938.47,-100.08 886.33,-87.07 849,-77.75"/>
<polygon fill="#63b8ff" stroke="#63b8ff" points="849.93,-74.38 839.38,-75.36 848.24,-81.17 849.93,-74.38"/>
</a>
</g>
</g>
<!-- Node7 -->
<g id="Node000007" class="node">
<title>Node7</title>
<g id="a_Node000007"><a xlink:title=" ">
<polygon fill="#e0e0e0" stroke="#999999" points="1065.5,-74.5 897.25,-74.5 897.25,-55.25 1065.5,-55.25 1065.5,-74.5"/>
<text text-anchor="middle" x="981.38" y="-61" font-family="Helvetica,sans-Serif" font-size="10.00">SFML/Graphics/Transformable.hpp</text>
</a>
</g>
</g>
<!-- Node1&#45;&gt;Node7 -->
<g id="edge6_Node000001_Node000007" class="edge">
<title>Node1&#45;&gt;Node7</title>
<g id="a_edge6_Node000001_Node000007"><a xlink:title=" ">
<path fill="none" stroke="#63b8ff" d="M1023.53,-110.2C1015.74,-102.01 1005.97,-91.73 997.8,-83.14"/>
<polygon fill="#63b8ff" stroke="#63b8ff" points="1000.48,-80.88 991.05,-76.05 995.41,-85.71 1000.48,-80.88"/>
</a>
</g>
</g>
<!-- Node8 -->
<g id="Node000008" class="node">
<title>Node8</title>
<g id="a_Node000008"><a xlink:href="_shapes_8h.html" target="_top" xlink:title=" ">
<polygon fill="white" stroke="#666666" points="540.75,-74.5 440,-74.5 440,-55.25 540.75,-55.25 540.75,-74.5"/>
<text text-anchor="middle" x="490.38" y="-61" font-family="Helvetica,sans-Serif" font-size="10.00">sgui/Core/Shapes.h</text>
</a>
</g>
</g>
<!-- Node1&#45;&gt;Node8 -->
<g id="edge7_Node000001_Node000008" class="edge">
<title>Node1&#45;&gt;Node8</title>
<g id="a_edge7_Node000001_Node000008"><a xlink:title=" ">
<path fill="none" stroke="#63b8ff" d="M973.47,-118.98C882.49,-110.58 710.12,-93.99 552.42,-74.7"/>
<polygon fill="#63b8ff" stroke="#63b8ff" points="552.95,-71.24 542.6,-73.5 552.1,-78.19 552.95,-71.24"/>
</a>
</g>
</g>
<!-- Node12 -->
<g id="Node000012" class="node">
<title>Node12</title>
<g id="a_Node000012"><a xlink:href="_draw_options_8h.html" target="_top" xlink:title=" ">
<polygon fill="white" stroke="#666666" points="278.62,-74.5 144.12,-74.5 144.12,-55.25 278.62,-55.25 278.62,-74.5"/>
<text text-anchor="middle" x="211.38" y="-61" font-family="Helvetica,sans-Serif" font-size="10.00">sgui/Render/DrawOptions.h</text>
</a>
</g>
</g>
<!-- Node1&#45;&gt;Node12 -->
<g id="edge12_Node000001_Node000012" class="edge">
<title>Node1&#45;&gt;Node12</title>
<g id="a_edge12_Node000001_Node000012"><a xlink:title=" ">
<path fill="none" stroke="#63b8ff" d="M973.59,-121.47C845.93,-114.69 549.69,-97.87 290.07,-74.7"/>
<polygon fill="#63b8ff" stroke="#63b8ff" points="290.68,-71.25 280.41,-73.84 290.06,-78.22 290.68,-71.25"/>
</a>
</g>
</g>
<!-- Node16 -->
<g id="Node000016" class="node">
<title>Node16</title>
<g id="a_Node000016"><a xlink:href="_texture_meshes_8h.html" target="_top" xlink:title=" ">
<polygon fill="white" stroke="#666666" points="1628.88,-74.5 1483.88,-74.5 1483.88,-55.25 1628.88,-55.25 1628.88,-74.5"/>
<text text-anchor="middle" x="1556.38" y="-61" font-family="Helvetica,sans-Serif" font-size="10.00">sgui/Render/TextureMeshes.h</text>
</a>
</g>
</g>
<!-- Node1&#45;&gt;Node16 -->
<g id="edge16_Node000001_Node000016" class="edge">
<title>Node1&#45;&gt;Node16</title>
<g id="a_edge16_Node000001_Node000016"><a xlink:title=" ">
<path fill="none" stroke="#63b8ff" d="M1101.27,-117.5C1194.64,-106.91 1368.47,-87.19 1472.17,-75.43"/>
<polygon fill="#63b8ff" stroke="#63b8ff" points="1472.48,-78.91 1482.02,-74.31 1471.69,-71.96 1472.48,-78.91"/>
</a>
</g>
</g>
<!-- Node20 -->
<g id="Node000020" class="node">
<title>Node20</title>
<g id="a_Node000020"><a xlink:href="_mesh_functions_8h.html" target="_top" xlink:title=" ">
<polygon fill="white" stroke="#666666" points="1304.88,-74.5 1159.88,-74.5 1159.88,-55.25 1304.88,-55.25 1304.88,-74.5"/>
<text text-anchor="middle" x="1232.38" y="-61" font-family="Helvetica,sans-Serif" font-size="10.00">sgui/Render/MeshFunctions.h</text>
</a>
</g>
</g>
<!-- Node1&#45;&gt;Node20 -->
<g id="edge21_Node000001_Node000020" class="edge">
<title>Node1&#45;&gt;Node20</title>
<g id="a_edge21_Node000001_Node000020"><a xlink:title=" ">
<path fill="none" stroke="#63b8ff" d="M1086.08,-110.05C1118.53,-100.25 1160.7,-87.52 1191.42,-78.24"/>
<polygon fill="#63b8ff" stroke="#63b8ff" points="1192.17,-81.67 1200.73,-75.43 1190.15,-74.97 1192.17,-81.67"/>
</a>
</g>
</g>
<!-- Node22 -->
<g id="Node000022" class="node">
<title>Node22</title>
<g id="a_Node000022"><a xlink:href="_clipping_layers_8h.html" target="_top" xlink:title=" ">
<polygon fill="white" stroke="#666666" points="1465.38,-74.5 1323.38,-74.5 1323.38,-55.25 1465.38,-55.25 1465.38,-74.5"/>
<text text-anchor="middle" x="1394.38" y="-61" font-family="Helvetica,sans-Serif" font-size="10.00">sgui/Render/ClippingLayers.h</text>
</a>
</g>
</g>
<!-- Node1&#45;&gt;Node22 -->
<g id="edge25_Node000001_Node000022" class="edge">
<title>Node1&#45;&gt;Node22</title>
<g id="a_edge25_Node000001_Node000022"><a xlink:title=" ">
<path fill="none" stroke="#63b8ff" d="M1101.2,-114.22C1165.15,-103.68 1263.15,-87.52 1327.99,-76.82"/>
<polygon fill="#63b8ff" stroke="#63b8ff" points="1328.51,-80.29 1337.8,-75.2 1327.37,-73.38 1328.51,-80.29"/>
</a>
</g>
</g>
<!-- Node24 -->
<g id="Node000024" class="node">
<title>Node24</title>
<g id="a_Node000024"><a xlink:href="_texture_atlas_8h.html" target="_top" xlink:title=" ">
<polygon fill="white" stroke="#666666" points="1795.75,-74.5 1647,-74.5 1647,-55.25 1795.75,-55.25 1795.75,-74.5"/>
<text text-anchor="middle" x="1721.38" y="-61" font-family="Helvetica,sans-Serif" font-size="10.00">sgui/Resources/TextureAtlas.h</text>
</a>
</g>
</g>
<!-- Node1&#45;&gt;Node24 -->
<g id="edge30_Node000001_Node000024" class="edge">
<title>Node1&#45;&gt;Node24</title>
<g id="a_edge30_Node000001_Node000024"><a xlink:title=" ">
<path fill="none" stroke="#63b8ff" d="M1101.01,-119.85C1208.72,-111.47 1434.09,-93.53 1635.34,-74.77"/>
<polygon fill="#63b8ff" stroke="#63b8ff" points="1635.59,-78.26 1645.22,-73.84 1634.94,-71.29 1635.59,-78.26"/>
</a>
</g>
</g>
<!-- Node8&#45;&gt;Node2 -->
<g id="edge9_Node000008_Node000002" class="edge">
<title>Node8&#45;&gt;Node2</title>
<g id="a_edge9_Node000008_Node000002"><a xlink:title=" ">
<path fill="none" stroke="#63b8ff" d="M541.08,-56.29C544.22,-55.91 547.34,-55.56 550.38,-55.25 807.15,-28.98 878.34,-62.71 1135.36,-19.41"/>
<polygon fill="#63b8ff" stroke="#63b8ff" points="1135.79,-22.89 1145.06,-17.75 1134.61,-15.99 1135.79,-22.89"/>
</a>
</g>
</g>
<!-- Node9 -->
<g id="Node000009" class="node">
<title>Node9</title>
<g id="a_Node000009"><a xlink:title=" ">
<polygon fill="#e0e0e0" stroke="#999999" points="881.88,-19.25 844.88,-19.25 844.88,0 881.88,0 881.88,-19.25"/>
<text text-anchor="middle" x="863.38" y="-5.75" font-family="Helvetica,sans-Serif" font-size="10.00">array</text>
</a>
</g>
</g>
<!-- Node8&#45;&gt;Node9 -->
<g id="edge8_Node000008_Node000009" class="edge">
<title>Node8&#45;&gt;Node9</title>
<g id="a_edge8_Node000008_Node000009"><a xlink:title=" ">
<path fill="none" stroke="#63b8ff" d="M541.11,-56.58C544.25,-56.13 547.35,-55.68 550.38,-55.25 654.4,-40.36 777.89,-22.78 833.55,-14.87"/>
<polygon fill="#63b8ff" stroke="#63b8ff" points="833.77,-18.37 843.18,-13.5 832.78,-11.44 833.77,-18.37"/>
</a>
</g>
</g>
<!-- Node10 -->
<g id="Node000010" class="node">
<title>Node10</title>
<g id="a_Node000010"><a xlink:title=" ">
<polygon fill="#e0e0e0" stroke="#999999" points="692.25,-19.25 558.5,-19.25 558.5,0 692.25,0 692.25,-19.25"/>
<text text-anchor="middle" x="625.38" y="-5.75" font-family="Helvetica,sans-Serif" font-size="10.00">SFML/System/Vector2.hpp</text>
</a>
</g>
</g>
<!-- Node8&#45;&gt;Node10 -->
<g id="edge10_Node000008_Node000010" class="edge">
<title>Node8&#45;&gt;Node10</title>
<g id="a_edge10_Node000008_Node000010"><a xlink:title=" ">
<path fill="none" stroke="#63b8ff" d="M513.28,-54.84C534.8,-46.35 567.29,-33.54 591.75,-23.89"/>
<polygon fill="#63b8ff" stroke="#63b8ff" points="592.94,-27.18 600.95,-20.26 590.37,-20.67 592.94,-27.18"/>
</a>
</g>
</g>
<!-- Node11 -->
<g id="Node000011" class="node">
<title>Node11</title>
<g id="a_Node000011"><a xlink:href="_shapes_8tpp.html" target="_top" xlink:title=" ">
<polygon fill="white" stroke="#666666" points="540.88,-19.25 431.88,-19.25 431.88,0 540.88,0 540.88,-19.25"/>
<text text-anchor="middle" x="486.38" y="-5.75" font-family="Helvetica,sans-Serif" font-size="10.00">sgui/Core/Shapes.tpp</text>
</a>
</g>
</g>
<!-- Node8&#45;&gt;Node11 -->
<g id="edge11_Node000008_Node000011" class="edge">
<title>Node8&#45;&gt;Node11</title>
<g id="a_edge11_Node000008_Node000011"><a xlink:title=" ">
<path fill="none" stroke="#63b8ff" d="M489.71,-55.08C489.22,-48.49 488.52,-39.21 487.89,-30.82"/>
<polygon fill="#63b8ff" stroke="#63b8ff" points="491.4,-30.83 487.16,-21.12 484.42,-31.35 491.4,-30.83"/>
</a>
</g>
</g>
<!-- Node13 -->
<g id="Node000013" class="node">
<title>Node13</title>
<g id="a_Node000013"><a xlink:title=" ">
<polygon fill="#e0e0e0" stroke="#999999" points="273.75,-19.25 149,-19.25 149,0 273.75,0 273.75,-19.25"/>
<text text-anchor="middle" x="211.38" y="-5.75" font-family="Helvetica,sans-Serif" font-size="10.00">SFML/Graphics/Text.hpp</text>
</a>
</g>
</g>
<!-- Node12&#45;&gt;Node13 -->
<g id="edge13_Node000012_Node000013" class="edge">
<title>Node12&#45;&gt;Node13</title>
<g id="a_edge13_Node000012_Node000013"><a xlink:title=" ">
<path fill="none" stroke="#63b8ff" d="M211.38,-55.08C211.38,-48.57 211.38,-39.42 211.38,-31.12"/>
<polygon fill="#63b8ff" stroke="#63b8ff" points="214.88,-31.12 211.38,-21.12 207.88,-31.12 214.88,-31.12"/>
</a>
</g>
</g>
<!-- Node14 -->
<g id="Node000014" class="node">
<title>Node14</title>
<g id="a_Node000014"><a xlink:href="_widgets_8h.html" target="_top" xlink:title=" ">
<polygon fill="white" stroke="#666666" points="409.38,-19.25 291.38,-19.25 291.38,0 409.38,0 409.38,-19.25"/>
<text text-anchor="middle" x="350.38" y="-5.75" font-family="Helvetica,sans-Serif" font-size="10.00">sgui/Widgets/Widgets.h</text>
</a>
</g>
</g>
<!-- Node12&#45;&gt;Node14 -->
<g id="edge14_Node000012_Node000014" class="edge">
<title>Node12&#45;&gt;Node14</title>
<g id="a_edge14_Node000012_Node000014"><a xlink:title=" ">
<path fill="none" stroke="#63b8ff" d="M234.95,-54.84C257.22,-46.31 290.87,-33.42 316.1,-23.76"/>
<polygon fill="#63b8ff" stroke="#63b8ff" points="317.18,-27.09 325.27,-20.24 314.68,-20.55 317.18,-27.09"/>
</a>
</g>
</g>
<!-- Node15 -->
<g id="Node000015" class="node">
<title>Node15</title>
<g id="a_Node000015"><a xlink:href="_item_states_8h.html" target="_top" xlink:title=" ">
<polygon fill="white" stroke="#666666" points="130.75,-19.25 0,-19.25 0,0 130.75,0 130.75,-19.25"/>
<text text-anchor="middle" x="65.38" y="-5.75" font-family="Helvetica,sans-Serif" font-size="10.00">sgui/Widgets/ItemStates.h</text>
</a>
</g>
</g>
<!-- Node12&#45;&gt;Node15 -->
<g id="edge15_Node000012_Node000015" class="edge">
<title>Node12&#45;&gt;Node15</title>
<g id="a_edge15_Node000012_Node000015"><a xlink:title=" ">
<path fill="none" stroke="#63b8ff" d="M186.61,-54.84C163.12,-46.27 127.56,-33.31 101.02,-23.63"/>
<polygon fill="#63b8ff" stroke="#63b8ff" points="102.28,-20.36 91.69,-20.22 99.88,-26.94 102.28,-20.36"/>
</a>
</g>
</g>
<!-- Node16&#45;&gt;Node2 -->
<g id="edge17_Node000016_Node000002" class="edge">
<title>Node16&#45;&gt;Node2</title>
<g id="a_edge17_Node000016_Node000002"><a xlink:title=" ">
<path fill="none" stroke="#63b8ff" d="M1483.47,-56.15C1400.04,-47.08 1267.33,-31.91 1201.37,-19.53"/>
<polygon fill="#63b8ff" stroke="#63b8ff" points="1202.21,-16.13 1191.72,-17.63 1200.85,-23 1202.21,-16.13"/>
</a>
</g>
</g>
<!-- Node17 -->
<g id="Node000017" class="node">
<title>Node17</title>
<g id="a_Node000017"><a xlink:title=" ">
<polygon fill="#e0e0e0" stroke="#999999" points="1607.38,-19.25 1567.38,-19.25 1567.38,0 1607.38,0 1607.38,-19.25"/>
<text text-anchor="middle" x="1587.38" y="-5.75" font-family="Helvetica,sans-Serif" font-size="10.00">string</text>
</a>
</g>
</g>
<!-- Node16&#45;&gt;Node17 -->
<g id="edge18_Node000016_Node000017" class="edge">
<title>Node16&#45;&gt;Node17</title>
<g id="a_edge18_Node000016_Node000017"><a xlink:title=" ">
<path fill="none" stroke="#63b8ff" d="M1561.49,-55.08C1565.55,-48.11 1571.37,-38.12 1576.46,-29.37"/>
<polygon fill="#63b8ff" stroke="#63b8ff" points="1579.38,-31.32 1581.38,-20.92 1573.33,-27.8 1579.38,-31.32"/>
</a>
</g>
</g>
<!-- Node18 -->
<g id="Node000018" class="node">
<title>Node18</title>
<g id="a_Node000018"><a xlink:title=" ">
<polygon fill="#e0e0e0" stroke="#999999" points="1707.75,-19.25 1625,-19.25 1625,0 1707.75,0 1707.75,-19.25"/>
<text text-anchor="middle" x="1666.38" y="-5.75" font-family="Helvetica,sans-Serif" font-size="10.00">unordered_map</text>
</a>
</g>
</g>
<!-- Node16&#45;&gt;Node18 -->
<g id="edge19_Node000016_Node000018" class="edge">
<title>Node16&#45;&gt;Node18</title>
<g id="a_edge19_Node000016_Node000018"><a xlink:title=" ">
<path fill="none" stroke="#63b8ff" d="M1575.04,-54.84C1592.1,-46.58 1617.62,-34.23 1637.35,-24.68"/>
<polygon fill="#63b8ff" stroke="#63b8ff" points="1638.79,-27.87 1646.26,-20.36 1635.74,-21.57 1638.79,-27.87"/>
</a>
</g>
</g>
<!-- Node19 -->
<g id="Node000019" class="node">
<title>Node19</title>
<g id="a_Node000019"><a xlink:title=" ">
<polygon fill="#e0e0e0" stroke="#999999" points="1341.25,-19.25 1207.5,-19.25 1207.5,0 1341.25,0 1341.25,-19.25"/>
<text text-anchor="middle" x="1274.38" y="-5.75" font-family="Helvetica,sans-Serif" font-size="10.00">SFML/Graphics/Vertex.hpp</text>
</a>
</g>
</g>
<!-- Node16&#45;&gt;Node19 -->
<g id="edge20_Node000016_Node000019" class="edge">
<title>Node16&#45;&gt;Node19</title>
<g id="a_edge20_Node000016_Node000019"><a xlink:title=" ">
<path fill="none" stroke="#63b8ff" d="M1508.22,-54.78C1459.85,-45.65 1385.26,-31.56 1333.37,-21.76"/>
<polygon fill="#63b8ff" stroke="#63b8ff" points="1334.3,-18.38 1323.82,-19.96 1333,-25.26 1334.3,-18.38"/>
</a>
</g>
</g>
<!-- Node20&#45;&gt;Node9 -->
<g id="edge22_Node000020_Node000009" class="edge">
<title>Node20&#45;&gt;Node9</title>
<g id="a_edge22_Node000020_Node000009"><a xlink:title=" ">
<path fill="none" stroke="#63b8ff" d="M1169.36,-54.78C1089.06,-43.19 953.48,-23.63 893.48,-14.97"/>
<polygon fill="#63b8ff" stroke="#63b8ff" points="894.1,-11.52 883.7,-13.56 893.1,-18.45 894.1,-11.52"/>
</a>
</g>
</g>
<!-- Node20&#45;&gt;Node19 -->
<g id="edge24_Node000020_Node000019" class="edge">
<title>Node20&#45;&gt;Node19</title>
<g id="a_edge24_Node000020_Node000019"><a xlink:title=" ">
<path fill="none" stroke="#63b8ff" d="M1239.31,-55.08C1244.99,-47.88 1253.21,-37.46 1260.27,-28.51"/>
<polygon fill="#63b8ff" stroke="#63b8ff" points="1262.91,-30.82 1266.35,-20.8 1257.41,-26.48 1262.91,-30.82"/>
</a>
</g>
</g>
<!-- Node21 -->
<g id="Node000021" class="node">
<title>Node21</title>
<g id="a_Node000021"><a xlink:title=" ">
<polygon fill="#e0e0e0" stroke="#999999" points="1485.5,-19.25 1359.25,-19.25 1359.25,0 1485.5,0 1485.5,-19.25"/>
<text text-anchor="middle" x="1422.38" y="-5.75" font-family="Helvetica,sans-Serif" font-size="10.00">SFML/Graphics/Rect.hpp</text>
</a>
</g>
</g>
<!-- Node20&#45;&gt;Node21 -->
<g id="edge23_Node000020_Node000021" class="edge">
<title>Node20&#45;&gt;Node21</title>
<g id="a_edge23_Node000020_Node000021"><a xlink:title=" ">
<path fill="none" stroke="#63b8ff" d="M1264.61,-54.84C1296.13,-46.01 1344.35,-32.49 1379.19,-22.73"/>
<polygon fill="#63b8ff" stroke="#63b8ff" points="1379.84,-26.18 1388.53,-20.11 1377.96,-19.44 1379.84,-26.18"/>
</a>
</g>
</g>
<!-- Node22&#45;&gt;Node2 -->
<g id="edge26_Node000022_Node000002" class="edge">
<title>Node22&#45;&gt;Node2</title>
<g id="a_edge26_Node000022_Node000002"><a xlink:title=" ">
<path fill="none" stroke="#63b8ff" d="M1351.39,-54.81C1313.97,-46.77 1258.05,-34.35 1201.27,-19.9"/>
<polygon fill="#63b8ff" stroke="#63b8ff" points="1202.31,-16.55 1191.76,-17.46 1200.57,-23.33 1202.31,-16.55"/>
</a>
</g>
</g>
<!-- Node22&#45;&gt;Node4 -->
<g id="edge29_Node000022_Node000004" class="edge">
<title>Node22&#45;&gt;Node4</title>
<g id="a_edge29_Node000022_Node000004"><a xlink:title=" ">
<path fill="none" stroke="#63b8ff" d="M1338.19,-54.78C1281.38,-45.59 1193.54,-31.37 1132.96,-21.56"/>
<polygon fill="#63b8ff" stroke="#63b8ff" points="1133.53,-18.11 1123.1,-19.97 1132.41,-25.02 1133.53,-18.11"/>
</a>
</g>
</g>
<!-- Node22&#45;&gt;Node21 -->
<g id="edge28_Node000022_Node000021" class="edge">
<title>Node22&#45;&gt;Node21</title>
<g id="a_edge28_Node000022_Node000021"><a xlink:title=" ">
<path fill="none" stroke="#63b8ff" d="M1399,-55.08C1402.62,-48.19 1407.8,-38.34 1412.37,-29.66"/>
<polygon fill="#63b8ff" stroke="#63b8ff" points="1415.39,-31.43 1416.95,-20.95 1409.19,-28.17 1415.39,-31.43"/>
</a>
</g>
</g>
<!-- Node23 -->
<g id="Node000023" class="node">
<title>Node23</title>
<g id="a_Node000023"><a xlink:title=" ">
<polygon fill="#e0e0e0" stroke="#999999" points="1549,-19.25 1503.75,-19.25 1503.75,0 1549,0 1549,-19.25"/>
<text text-anchor="middle" x="1526.38" y="-5.75" font-family="Helvetica,sans-Serif" font-size="10.00">cstdint</text>
</a>
</g>
</g>
<!-- Node22&#45;&gt;Node23 -->
<g id="edge27_Node000022_Node000023" class="edge">
<title>Node22&#45;&gt;Node23</title>
<g id="a_edge27_Node000022_Node000023"><a xlink:title=" ">
<path fill="none" stroke="#63b8ff" d="M1416.77,-54.84C1437.82,-46.35 1469.58,-33.54 1493.5,-23.89"/>
<polygon fill="#63b8ff" stroke="#63b8ff" points="1494.51,-27.26 1502.47,-20.27 1491.89,-20.76 1494.51,-27.26"/>
</a>
</g>
</g>
<!-- Node24&#45;&gt;Node17 -->
<g id="edge31_Node000024_Node000017" class="edge">
<title>Node24&#45;&gt;Node17</title>
<g id="a_edge31_Node000024_Node000017"><a xlink:title=" ">
<path fill="none" stroke="#63b8ff" d="M1698.64,-54.84C1676.5,-46.04 1642.67,-32.6 1618.13,-22.85"/>
<polygon fill="#63b8ff" stroke="#63b8ff" points="1619.58,-19.66 1608.99,-19.21 1616.99,-26.16 1619.58,-19.66"/>
</a>
</g>
</g>
<!-- Node24&#45;&gt;Node18 -->
<g id="edge34_Node000024_Node000018" class="edge">
<title>Node24&#45;&gt;Node18</title>
<g id="a_edge34_Node000024_Node000018"><a xlink:title=" ">
<path fill="none" stroke="#63b8ff" d="M1712.29,-55.08C1704.54,-47.57 1693.16,-36.56 1683.68,-27.38"/>
<polygon fill="#63b8ff" stroke="#63b8ff" points="1686.36,-25.1 1676.74,-20.66 1681.49,-30.13 1686.36,-25.1"/>
</a>
</g>
</g>
<!-- Node24&#45;&gt;Node21 -->
<g id="edge35_Node000024_Node000021" class="edge">
<title>Node24&#45;&gt;Node21</title>
<g id="a_edge35_Node000024_Node000021"><a xlink:title=" ">
<path fill="none" stroke="#63b8ff" d="M1670.31,-54.78C1618.9,-45.62 1539.52,-31.49 1484.49,-21.69"/>
<polygon fill="#63b8ff" stroke="#63b8ff" points="1485.42,-18.3 1474.96,-19.99 1484.2,-25.19 1485.42,-18.3"/>
</a>
</g>
</g>
<!-- Node24&#45;&gt;Node23 -->
<g id="edge32_Node000024_Node000023" class="edge">
<title>Node24&#45;&gt;Node23</title>
<g id="a_edge32_Node000024_Node000023"><a xlink:title=" ">
<path fill="none" stroke="#63b8ff" d="M1688.3,-54.84C1652.61,-45.1 1596.07,-29.66 1560.12,-19.84"/>
<polygon fill="#63b8ff" stroke="#63b8ff" points="1561.26,-16.52 1550.69,-17.26 1559.41,-23.27 1561.26,-16.52"/>
</a>
</g>
</g>
<!-- Node25 -->
<g id="Node000025" class="node">
<title>Node25</title>
<g id="a_Node000025"><a xlink:title=" ">
<polygon fill="#e0e0e0" stroke="#999999" points="1775.25,-19.25 1725.5,-19.25 1725.5,0 1775.25,0 1775.25,-19.25"/>
<text text-anchor="middle" x="1750.38" y="-5.75" font-family="Helvetica,sans-Serif" font-size="10.00">optional</text>
</a>
</g>
</g>
<!-- Node24&#45;&gt;Node25 -->
<g id="edge33_Node000024_Node000025" class="edge">
<title>Node24&#45;&gt;Node25</title>
<g id="a_edge33_Node000024_Node000025"><a xlink:title=" ">
<path fill="none" stroke="#63b8ff" d="M1726.16,-55.08C1729.92,-48.19 1735.28,-38.34 1740.01,-29.66"/>
<polygon fill="#63b8ff" stroke="#63b8ff" points="1743.05,-31.39 1744.76,-20.94 1736.9,-28.05 1743.05,-31.39"/>
</a>
</g>
</g>
</g>
</svg>
