<?xml version="1.0" encoding="UTF-8" standalone="no"?>
<!DOCTYPE svg PUBLIC "-//W3C//DTD SVG 1.1//EN"
 "http://www.w3.org/Graphics/SVG/1.1/DTD/svg11.dtd">
<!-- Generated by graphviz version 12.2.1 (20241206.2353)
 -->
<!-- Title: /github/workspace/src/sgui/Core/Interpolation.h Pages: 1 -->
<svg width="399pt" height="94pt"
 viewBox="0.00 0.00 399.12 93.75" xmlns="http://www.w3.org/2000/svg" xmlns:xlink="http://www.w3.org/1999/xlink">
<g id="graph0" class="graph" transform="scale(1 1) rotate(0) translate(4 89.75)">
<title>/github/workspace/src/sgui/Core/Interpolation.h</title>
<!-- Node1 -->
<g id="Node000001" class="node">
<title>Node1</title>
<g id="a_Node000001"><a xlink:title=" ">
<polygon fill="#999999" stroke="#666666" points="204.5,-85.75 80.5,-85.75 80.5,-55.25 204.5,-55.25 204.5,-85.75"/>
<text text-anchor="start" x="88.5" y="-72.25" font-family="Helvetica,sans-Serif" font-size="10.00">/github/workspace/src</text>
<text text-anchor="middle" x="142.5" y="-61" font-family="Helvetica,sans-Serif" font-size="10.00">/sgui/Core/Interpolation.h</text>
</a>
</g>
</g>
<!-- Node2 -->
<g id="Node000002" class="node">
<title>Node2</title>
<g id="a_Node000002"><a xlink:title=" ">
<polygon fill="#e0e0e0" stroke="#999999" points="43,-19.25 0,-19.25 0,0 43,0 43,-19.25"/>
<text text-anchor="middle" x="21.5" y="-5.75" font-family="Helvetica,sans-Serif" font-size="10.00">cmath</text>
</a>
</g>
</g>
<!-- Node1&#45;&gt;Node2 -->
<g id="edge1_Node000001_Node000002" class="edge">
<title>Node1&#45;&gt;Node2</title>
<g id="a_edge1_Node000001_Node000002"><a xlink:title=" ">
<path fill="none" stroke="#63b8ff" d="M112.28,-54.8C93.32,-45.57 69.02,-33.75 50.33,-24.65"/>
<polygon fill="#63b8ff" stroke="#63b8ff" points="51.94,-21.54 41.42,-20.32 48.88,-27.84 51.94,-21.54"/>
</a>
</g>
</g>
<!-- Node3 -->
<g id="Node000003" class="node">
<title>Node3</title>
<g id="a_Node000003"><a xlink:title=" ">
<polygon fill="#e0e0e0" stroke="#999999" points="101.5,-19.25 61.5,-19.25 61.5,0 101.5,0 101.5,-19.25"/>
<text text-anchor="middle" x="81.5" y="-5.75" font-family="Helvetica,sans-Serif" font-size="10.00">string</text>
</a>
</g>
</g>
<!-- Node1&#45;&gt;Node3 -->
<g id="edge2_Node000001_Node000003" class="edge">
<title>Node1&#45;&gt;Node3</title>
<g id="a_edge2_Node000001_Node000003"><a xlink:title=" ">
<path fill="none" stroke="#63b8ff" d="M127.42,-54.95C118.85,-46.67 108.07,-36.27 99.11,-27.62"/>
<polygon fill="#63b8ff" stroke="#63b8ff" points="101.62,-25.18 91.99,-20.75 96.76,-30.22 101.62,-25.18"/>
</a>
</g>
</g>
<!-- Node4 -->
<g id="Node000004" class="node">
<title>Node4</title>
<g id="a_Node000004"><a xlink:title=" ">
<polygon fill="#e0e0e0" stroke="#999999" points="165.12,-19.25 119.88,-19.25 119.88,0 165.12,0 165.12,-19.25"/>
<text text-anchor="middle" x="142.5" y="-5.75" font-family="Helvetica,sans-Serif" font-size="10.00">cstdint</text>
</a>
</g>
</g>
<!-- Node1&#45;&gt;Node4 -->
<g id="edge3_Node000001_Node000004" class="edge">
<title>Node1&#45;&gt;Node4</title>
<g id="a_edge3_Node000001_Node000004"><a xlink:title=" ">
<path fill="none" stroke="#63b8ff" d="M142.5,-54.95C142.5,-47.71 142.5,-38.84 142.5,-30.94"/>
<polygon fill="#63b8ff" stroke="#63b8ff" points="146,-31.21 142.5,-21.21 139,-31.21 146,-31.21"/>
</a>
</g>
</g>
<!-- Node5 -->
<g id="Node000005" class="node">
<title>Node5</title>
<g id="a_Node000005"><a xlink:title=" ">
<polygon fill="#e0e0e0" stroke="#999999" points="244,-19.25 183,-19.25 183,0 244,0 244,-19.25"/>
<text text-anchor="middle" x="213.5" y="-5.75" font-family="Helvetica,sans-Serif" font-size="10.00">type_traits</text>
</a>
</g>
</g>
<!-- Node1&#45;&gt;Node5 -->
<g id="edge4_Node000001_Node000005" class="edge">
<title>Node1&#45;&gt;Node5</title>
<g id="a_edge4_Node000001_Node000005"><a xlink:title=" ">
<path fill="none" stroke="#63b8ff" d="M160.05,-54.95C170.34,-46.41 183.36,-35.62 193.98,-26.81"/>
<polygon fill="#63b8ff" stroke="#63b8ff" points="195.93,-29.74 201.39,-20.67 191.46,-24.36 195.93,-29.74"/>
</a>
</g>
</g>
<!-- Node6 -->
<g id="Node000006" class="node">
<title>Node6</title>
<g id="a_Node000006"><a xlink:href="_interpolation_8tpp.html" target="_top" xlink:title=" ">
<polygon fill="white" stroke="#666666" points="391.12,-19.25 261.88,-19.25 261.88,0 391.12,0 391.12,-19.25"/>
<text text-anchor="middle" x="326.5" y="-5.75" font-family="Helvetica,sans-Serif" font-size="10.00">sgui/Core/Interpolation.tpp</text>
</a>
</g>
</g>
<!-- Node1&#45;&gt;Node6 -->
<g id="edge5_Node000001_Node000006" class="edge">
<title>Node1&#45;&gt;Node6</title>
<g id="a_edge5_Node000001_Node000006"><a xlink:title=" ">
<path fill="none" stroke="#63b8ff" d="M188.46,-54.8C218.81,-45.08 258.17,-32.49 287.09,-23.23"/>
<polygon fill="#63b8ff" stroke="#63b8ff" points="288.11,-26.58 296.57,-20.2 285.98,-19.92 288.11,-26.58"/>
</a>
</g>
</g>
</g>
</svg>
