<?xml version="1.0" encoding="UTF-8" standalone="no"?>
<!DOCTYPE svg PUBLIC "-//W3C//DTD SVG 1.1//EN"
 "http://www.w3.org/Graphics/SVG/1.1/DTD/svg11.dtd">
<!-- Generated by graphviz version 12.2.1 (20241206.2353)
 -->
<!-- Title: /github/workspace/src/sgui/Core/Interpolation.h Pages: 1 -->
<svg width="498pt" height="172pt"
 viewBox="0.00 0.00 498.12 171.50" xmlns="http://www.w3.org/2000/svg" xmlns:xlink="http://www.w3.org/1999/xlink">
<g id="graph0" class="graph" transform="scale(1 1) rotate(0) translate(4 167.5)">
<title>/github/workspace/src/sgui/Core/Interpolation.h</title>
<!-- Node1 -->
<g id="Node000001" class="node">
<title>Node1</title>
<g id="a_Node000001"><a xlink:title=" ">
<polygon fill="#999999" stroke="#666666" points="273,-163.5 149,-163.5 149,-133 273,-133 273,-163.5"/>
<text text-anchor="start" x="157" y="-150" font-family="Helvetica,sans-Serif" font-size="10.00">/github/workspace/src</text>
<text text-anchor="middle" x="211" y="-138.75" font-family="Helvetica,sans-Serif" font-size="10.00">/sgui/Core/Interpolation.h</text>
</a>
</g>
</g>
<!-- Node2 -->
<g id="Node000002" class="node">
<title>Node2</title>
<g id="a_Node000002"><a xlink:href="_gui_8cpp.html" target="_top" xlink:title=" ">
<polygon fill="white" stroke="#666666" points="112,-30.5 0,-30.5 0,0 112,0 112,-30.5"/>
<text text-anchor="start" x="8" y="-17" font-family="Helvetica,sans-Serif" font-size="10.00">/github/workspace/src</text>
<text text-anchor="middle" x="56" y="-5.75" font-family="Helvetica,sans-Serif" font-size="10.00">/sgui/Gui.cpp</text>
</a>
</g>
</g>
<!-- Node1&#45;&gt;Node2 -->
<g id="edge1_Node000001_Node000002" class="edge">
<title>Node1&#45;&gt;Node2</title>
<g id="a_edge1_Node000001_Node000002"><a xlink:title=" ">
<path fill="none" stroke="#63b8ff" d="M137.89,-134.47C114.88,-127.07 91.26,-115.4 75,-97 58.69,-78.55 55.69,-48.72 55.5,-30.94"/>
<polygon fill="#63b8ff" stroke="#63b8ff" points="136.7,-137.77 147.29,-137.25 138.69,-131.06 136.7,-137.77"/>
</a>
</g>
</g>
<!-- Node3 -->
<g id="Node000003" class="node">
<title>Node3</title>
<g id="a_Node000003"><a xlink:href="_gui_8h.html" target="_top" xlink:title=" ">
<polygon fill="white" stroke="#666666" points="196,-97 84,-97 84,-66.5 196,-66.5 196,-97"/>
<text text-anchor="start" x="92" y="-83.5" font-family="Helvetica,sans-Serif" font-size="10.00">/github/workspace/src</text>
<text text-anchor="middle" x="140" y="-72.25" font-family="Helvetica,sans-Serif" font-size="10.00">/sgui/Gui.h</text>
</a>
</g>
</g>
<!-- Node1&#45;&gt;Node3 -->
<g id="edge2_Node000001_Node000003" class="edge">
<title>Node1&#45;&gt;Node3</title>
<g id="a_edge2_Node000001_Node000003"><a xlink:title=" ">
<path fill="none" stroke="#63b8ff" d="M186.47,-124.96C176.4,-115.82 165.02,-105.48 156.05,-97.33"/>
<polygon fill="#63b8ff" stroke="#63b8ff" points="184.01,-127.46 193.77,-131.6 188.72,-122.28 184.01,-127.46"/>
</a>
</g>
</g>
<!-- Node5 -->
<g id="Node000005" class="node">
<title>Node5</title>
<g id="a_Node000005"><a xlink:href="_gui_render_8cpp.html" target="_top" xlink:title=" ">
<polygon fill="white" stroke="#666666" points="351.75,-97 214.25,-97 214.25,-66.5 351.75,-66.5 351.75,-97"/>
<text text-anchor="start" x="222.25" y="-83.5" font-family="Helvetica,sans-Serif" font-size="10.00">/github/workspace/src</text>
<text text-anchor="middle" x="283" y="-72.25" font-family="Helvetica,sans-Serif" font-size="10.00">/sgui/Render/GuiRender.cpp</text>
</a>
</g>
</g>
<!-- Node1&#45;&gt;Node5 -->
<g id="edge5_Node000001_Node000005" class="edge">
<title>Node1&#45;&gt;Node5</title>
<g id="a_edge5_Node000001_Node000005"><a xlink:title=" ">
<path fill="none" stroke="#63b8ff" d="M235.88,-124.96C246.09,-115.82 257.62,-105.48 266.73,-97.33"/>
<polygon fill="#63b8ff" stroke="#63b8ff" points="233.58,-122.32 228.47,-131.6 238.25,-127.54 233.58,-122.32"/>
</a>
</g>
</g>
<!-- Node6 -->
<g id="Node000006" class="node">
<title>Node6</title>
<g id="a_Node000006"><a xlink:href="_plotter_8cpp.html" target="_top" xlink:title=" ">
<polygon fill="white" stroke="#666666" points="490.12,-97 369.88,-97 369.88,-66.5 490.12,-66.5 490.12,-97"/>
<text text-anchor="start" x="377.88" y="-83.5" font-family="Helvetica,sans-Serif" font-size="10.00">/github/workspace/src</text>
<text text-anchor="middle" x="430" y="-72.25" font-family="Helvetica,sans-Serif" font-size="10.00">/sgui/Render/Plotter.cpp</text>
</a>
</g>
</g>
<!-- Node1&#45;&gt;Node6 -->
<g id="edge6_Node000001_Node000006" class="edge">
<title>Node1&#45;&gt;Node6</title>
<g id="a_edge6_Node000001_Node000006"><a xlink:title=" ">
<path fill="none" stroke="#63b8ff" d="M271.76,-129.35C305.93,-119.29 348.05,-106.89 380.25,-97.4"/>
<polygon fill="#63b8ff" stroke="#63b8ff" points="271.02,-125.92 262.42,-132.11 273,-132.64 271.02,-125.92"/>
</a>
</g>
</g>
<!-- Node3&#45;&gt;Node2 -->
<g id="edge3_Node000003_Node000002" class="edge">
<title>Node3&#45;&gt;Node2</title>
<g id="a_edge3_Node000003_Node000002"><a xlink:title=" ">
<path fill="none" stroke="#63b8ff" d="M112.06,-59.29C99.88,-49.94 85.93,-39.23 74.99,-30.83"/>
<polygon fill="#63b8ff" stroke="#63b8ff" points="109.68,-61.88 119.74,-65.19 113.94,-56.33 109.68,-61.88"/>
</a>
</g>
</g>
<!-- Node4 -->
<g id="Node000004" class="node">
<title>Node4</title>
<g id="a_Node000004"><a xlink:href="sgui_8h.html" target="_top" xlink:title=" ">
<polygon fill="white" stroke="#666666" points="242,-30.5 130,-30.5 130,0 242,0 242,-30.5"/>
<text text-anchor="start" x="138" y="-17" font-family="Helvetica,sans-Serif" font-size="10.00">/github/workspace/src</text>
<text text-anchor="middle" x="186" y="-5.75" font-family="Helvetica,sans-Serif" font-size="10.00">/sgui/sgui.h</text>
</a>
</g>
</g>
<!-- Node3&#45;&gt;Node4 -->
<g id="edge4_Node000003_Node000004" class="edge">
<title>Node3&#45;&gt;Node4</title>
<g id="a_edge4_Node000003_Node000004"><a xlink:title=" ">
<path fill="none" stroke="#63b8ff" d="M157.09,-56.79C163.31,-48.07 170.14,-38.49 175.6,-30.83"/>
<polygon fill="#63b8ff" stroke="#63b8ff" points="154.27,-54.71 151.32,-64.88 159.97,-58.77 154.27,-54.71"/>
</a>
</g>
</g>
</g>
</svg>
