<?xml version="1.0" encoding="UTF-8" standalone="no"?>
<!DOCTYPE svg PUBLIC "-//W3C//DTD SVG 1.1//EN"
 "http://www.w3.org/Graphics/SVG/1.1/DTD/svg11.dtd">
<!-- Generated by graphviz version 12.2.1 (20241206.2353)
 -->
<!-- Title: /github/workspace/src/sgui/Widgets/ItemStates.h Pages: 1 -->
<svg width="677pt" height="394pt"
 viewBox="0.00 0.00 676.50 393.50" xmlns="http://www.w3.org/2000/svg" xmlns:xlink="http://www.w3.org/1999/xlink">
<g id="graph0" class="graph" transform="scale(1 1) rotate(0) translate(4 389.5)">
<title>/github/workspace/src/sgui/Widgets/ItemStates.h</title>
<!-- Node1 -->
<g id="Node000001" class="node">
<title>Node1</title>
<g id="a_Node000001"><a xlink:title=" ">
<polygon fill="#999999" stroke="#666666" points="344.62,-385.5 210.88,-385.5 210.88,-355 344.62,-355 344.62,-385.5"/>
<text text-anchor="start" x="218.88" y="-372" font-family="Helvetica,sans-Serif" font-size="10.00">/github/workspace/src</text>
<text text-anchor="middle" x="277.75" y="-360.75" font-family="Helvetica,sans-Serif" font-size="10.00">/sgui/Widgets/ItemStates.h</text>
</a>
</g>
</g>
<!-- Node2 -->
<g id="Node000002" class="node">
<title>Node2</title>
<g id="a_Node000002"><a xlink:href="_draw_options_8h.html" target="_top" xlink:title=" ">
<polygon fill="white" stroke="#666666" points="273.5,-319 136,-319 136,-288.5 273.5,-288.5 273.5,-319"/>
<text text-anchor="start" x="144" y="-305.5" font-family="Helvetica,sans-Serif" font-size="10.00">/github/workspace/src</text>
<text text-anchor="middle" x="204.75" y="-294.25" font-family="Helvetica,sans-Serif" font-size="10.00">/sgui/Render/DrawOptions.h</text>
</a>
</g>
</g>
<!-- Node1&#45;&gt;Node2 -->
<g id="edge1_Node000001_Node000002" class="edge">
<title>Node1&#45;&gt;Node2</title>
<g id="a_edge1_Node000001_Node000002"><a xlink:title=" ">
<path fill="none" stroke="#63b8ff" d="M252.84,-347.24C242.41,-338.03 230.57,-327.56 221.25,-319.33"/>
<polygon fill="#63b8ff" stroke="#63b8ff" points="250.24,-349.61 260.05,-353.61 254.87,-344.37 250.24,-349.61"/>
</a>
</g>
</g>
<!-- Node8 -->
<g id="Node000008" class="node">
<title>Node8</title>
<g id="a_Node000008"><a xlink:href="_options_8h.html" target="_top" xlink:title=" ">
<polygon fill="white" stroke="#666666" points="411.5,-319 292,-319 292,-288.5 411.5,-288.5 411.5,-319"/>
<text text-anchor="start" x="300" y="-305.5" font-family="Helvetica,sans-Serif" font-size="10.00">/github/workspace/src</text>
<text text-anchor="middle" x="351.75" y="-294.25" font-family="Helvetica,sans-Serif" font-size="10.00">/sgui/Widgets/Options.h</text>
</a>
</g>
</g>
<!-- Node1&#45;&gt;Node8 -->
<g id="edge7_Node000001_Node000008" class="edge">
<title>Node1&#45;&gt;Node8</title>
<g id="a_edge7_Node000001_Node000008"><a xlink:title=" ">
<path fill="none" stroke="#63b8ff" d="M303,-347.24C313.57,-338.03 325.58,-327.56 335.02,-319.33"/>
<polygon fill="#63b8ff" stroke="#63b8ff" points="300.92,-344.41 295.68,-353.62 305.52,-349.69 300.92,-344.41"/>
</a>
</g>
</g>
<!-- Node3 -->
<g id="Node000003" class="node">
<title>Node3</title>
<g id="a_Node000003"><a xlink:href="_gui_render_8h.html" target="_top" xlink:title=" ">
<polygon fill="white" stroke="#666666" points="268.25,-252.5 141.25,-252.5 141.25,-222 268.25,-222 268.25,-252.5"/>
<text text-anchor="start" x="149.25" y="-239" font-family="Helvetica,sans-Serif" font-size="10.00">/github/workspace/src</text>
<text text-anchor="middle" x="204.75" y="-227.75" font-family="Helvetica,sans-Serif" font-size="10.00">/sgui/Render/GuiRender.h</text>
</a>
</g>
</g>
<!-- Node2&#45;&gt;Node3 -->
<g id="edge2_Node000002_Node000003" class="edge">
<title>Node2&#45;&gt;Node3</title>
<g id="a_edge2_Node000002_Node000003"><a xlink:title=" ">
<path fill="none" stroke="#63b8ff" d="M204.75,-276.81C204.75,-268.64 204.75,-259.91 204.75,-252.83"/>
<polygon fill="#63b8ff" stroke="#63b8ff" points="201.25,-276.6 204.75,-286.6 208.25,-276.6 201.25,-276.6"/>
</a>
</g>
</g>
<!-- Node4 -->
<g id="Node000004" class="node">
<title>Node4</title>
<g id="a_Node000004"><a xlink:href="_gui_8h.html" target="_top" xlink:title=" ">
<polygon fill="white" stroke="#666666" points="267.75,-186 155.75,-186 155.75,-155.5 267.75,-155.5 267.75,-186"/>
<text text-anchor="start" x="163.75" y="-172.5" font-family="Helvetica,sans-Serif" font-size="10.00">/github/workspace/src</text>
<text text-anchor="middle" x="211.75" y="-161.25" font-family="Helvetica,sans-Serif" font-size="10.00">/sgui/Gui.h</text>
</a>
</g>
</g>
<!-- Node3&#45;&gt;Node4 -->
<g id="edge3_Node000003_Node000004" class="edge">
<title>Node3&#45;&gt;Node4</title>
<g id="a_edge3_Node000003_Node000004"><a xlink:title=" ">
<path fill="none" stroke="#63b8ff" d="M207.57,-210.31C208.45,-202.14 209.4,-193.41 210.17,-186.33"/>
<polygon fill="#63b8ff" stroke="#63b8ff" points="204.1,-209.79 206.5,-220.11 211.06,-210.55 204.1,-209.79"/>
</a>
</g>
</g>
<!-- Node7 -->
<g id="Node000007" class="node">
<title>Node7</title>
<g id="a_Node000007"><a xlink:href="_gui_render_8cpp.html" target="_top" xlink:title=" ">
<polygon fill="white" stroke="#666666" points="137.5,-186 0,-186 0,-155.5 137.5,-155.5 137.5,-186"/>
<text text-anchor="start" x="8" y="-172.5" font-family="Helvetica,sans-Serif" font-size="10.00">/github/workspace/src</text>
<text text-anchor="middle" x="68.75" y="-161.25" font-family="Helvetica,sans-Serif" font-size="10.00">/sgui/Render/GuiRender.cpp</text>
</a>
</g>
</g>
<!-- Node3&#45;&gt;Node7 -->
<g id="edge6_Node000003_Node000007" class="edge">
<title>Node3&#45;&gt;Node7</title>
<g id="a_edge6_Node000003_Node000007"><a xlink:title=" ">
<path fill="none" stroke="#63b8ff" d="M163.52,-216.7C142.92,-206.93 118.42,-195.31 99.49,-186.33"/>
<polygon fill="#63b8ff" stroke="#63b8ff" points="161.99,-219.84 172.52,-220.97 164.99,-213.52 161.99,-219.84"/>
</a>
</g>
</g>
<!-- Node5 -->
<g id="Node000005" class="node">
<title>Node5</title>
<g id="a_Node000005"><a xlink:href="_gui_8cpp.html" target="_top" xlink:title=" ">
<polygon fill="white" stroke="#666666" points="137.75,-113.88 25.75,-113.88 25.75,-83.38 137.75,-83.38 137.75,-113.88"/>
<text text-anchor="start" x="33.75" y="-100.38" font-family="Helvetica,sans-Serif" font-size="10.00">/github/workspace/src</text>
<text text-anchor="middle" x="81.75" y="-89.12" font-family="Helvetica,sans-Serif" font-size="10.00">/sgui/Gui.cpp</text>
</a>
</g>
</g>
<!-- Node4&#45;&gt;Node5 -->
<g id="edge4_Node000004_Node000005" class="edge">
<title>Node4&#45;&gt;Node5</title>
<g id="a_edge4_Node000004_Node000005"><a xlink:title=" ">
<path fill="none" stroke="#63b8ff" d="M174.37,-149.59C153.49,-138.32 127.94,-124.54 108.97,-114.31"/>
<polygon fill="#63b8ff" stroke="#63b8ff" points="172.7,-152.66 183.17,-154.33 176.03,-146.5 172.7,-152.66"/>
</a>
</g>
</g>
<!-- Node6 -->
<g id="Node000006" class="node">
<title>Node6</title>
<g id="a_Node000006"><a xlink:href="sgui_8h.html" target="_top" xlink:title=" ">
<polygon fill="white" stroke="#666666" points="267.75,-113.88 155.75,-113.88 155.75,-83.38 267.75,-83.38 267.75,-113.88"/>
<text text-anchor="start" x="163.75" y="-100.38" font-family="Helvetica,sans-Serif" font-size="10.00">/github/workspace/src</text>
<text text-anchor="middle" x="211.75" y="-89.12" font-family="Helvetica,sans-Serif" font-size="10.00">/sgui/sgui.h</text>
</a>
</g>
</g>
<!-- Node4&#45;&gt;Node6 -->
<g id="edge5_Node000004_Node000006" class="edge">
<title>Node4&#45;&gt;Node6</title>
<g id="a_edge5_Node000004_Node000006"><a xlink:title=" ">
<path fill="none" stroke="#63b8ff" d="M211.75,-143.77C211.75,-133.76 211.75,-122.69 211.75,-114.14"/>
<polygon fill="#63b8ff" stroke="#63b8ff" points="208.25,-143.71 211.75,-153.71 215.25,-143.71 208.25,-143.71"/>
</a>
</g>
</g>
<!-- Node9 -->
<g id="Node000009" class="node">
<title>Node9</title>
<g id="a_Node000009"><a xlink:href="_panel_8h.html" target="_top" xlink:title=" ">
<polygon fill="white" stroke="#666666" points="407.75,-252.5 295.75,-252.5 295.75,-222 407.75,-222 407.75,-252.5"/>
<text text-anchor="start" x="303.75" y="-239" font-family="Helvetica,sans-Serif" font-size="10.00">/github/workspace/src</text>
<text text-anchor="middle" x="351.75" y="-227.75" font-family="Helvetica,sans-Serif" font-size="10.00">/sgui/Widgets/Panel.h</text>
</a>
</g>
</g>
<!-- Node8&#45;&gt;Node9 -->
<g id="edge8_Node000008_Node000009" class="edge">
<title>Node8&#45;&gt;Node9</title>
<g id="a_edge8_Node000008_Node000009"><a xlink:title=" ">
<path fill="none" stroke="#63b8ff" d="M351.75,-276.81C351.75,-268.64 351.75,-259.91 351.75,-252.83"/>
<polygon fill="#63b8ff" stroke="#63b8ff" points="348.25,-276.6 351.75,-286.6 355.25,-276.6 348.25,-276.6"/>
</a>
</g>
</g>
<!-- Node9&#45;&gt;Node4 -->
<g id="edge9_Node000009_Node000004" class="edge">
<title>Node9&#45;&gt;Node4</title>
<g id="a_edge9_Node000009_Node000004"><a xlink:title=" ">
<path fill="none" stroke="#63b8ff" d="M309.6,-216.83C288.33,-207.03 262.97,-195.35 243.39,-186.33"/>
<polygon fill="#63b8ff" stroke="#63b8ff" points="308.06,-219.98 318.61,-220.98 310.99,-213.62 308.06,-219.98"/>
</a>
</g>
</g>
<!-- Node10 -->
<g id="Node000010" class="node">
<title>Node10</title>
<g id="a_Node000010"><a xlink:href="_layout_8h.html" target="_top" xlink:title=" ">
<polygon fill="white" stroke="#666666" points="414.88,-186 288.62,-186 288.62,-155.5 414.88,-155.5 414.88,-186"/>
<text text-anchor="start" x="296.62" y="-172.5" font-family="Helvetica,sans-Serif" font-size="10.00">/github/workspace/src</text>
<text text-anchor="middle" x="351.75" y="-161.25" font-family="Helvetica,sans-Serif" font-size="10.00">/sgui/Resources/Layout.h</text>
</a>
</g>
</g>
<!-- Node9&#45;&gt;Node10 -->
<g id="edge10_Node000009_Node000010" class="edge">
<title>Node9&#45;&gt;Node10</title>
<g id="a_edge10_Node000009_Node000010"><a xlink:title=" ">
<path fill="none" stroke="#63b8ff" d="M351.75,-210.31C351.75,-202.14 351.75,-193.41 351.75,-186.33"/>
<polygon fill="#63b8ff" stroke="#63b8ff" points="348.25,-210.1 351.75,-220.1 355.25,-210.1 348.25,-210.1"/>
</a>
</g>
</g>
<!-- Node12 -->
<g id="Node000012" class="node">
<title>Node12</title>
<g id="a_Node000012"><a xlink:href="_serialize_g_u_i_8h.html" target="_top" xlink:title=" ">
<polygon fill="white" stroke="#666666" points="572.88,-119.5 440.62,-119.5 440.62,-77.75 572.88,-77.75 572.88,-119.5"/>
<text text-anchor="start" x="448.62" y="-106" font-family="Helvetica,sans-Serif" font-size="10.00">/github/workspace/src</text>
<text text-anchor="start" x="448.62" y="-94.75" font-family="Helvetica,sans-Serif" font-size="10.00">/sgui/Serialization/Serialize</text>
<text text-anchor="middle" x="506.75" y="-83.5" font-family="Helvetica,sans-Serif" font-size="10.00">GUI.h</text>
</a>
</g>
</g>
<!-- Node9&#45;&gt;Node12 -->
<g id="edge17_Node000009_Node000012" class="edge">
<title>Node9&#45;&gt;Node12</title>
<g id="a_edge17_Node000009_Node000012"><a xlink:title=" ">
<path fill="none" stroke="#63b8ff" d="M384.58,-215.33C397.23,-206.76 411.56,-196.42 423.75,-186 448.09,-165.19 473.18,-138.16 489.31,-119.92"/>
<polygon fill="#63b8ff" stroke="#63b8ff" points="382.94,-212.21 376.56,-220.67 386.82,-218.04 382.94,-212.21"/>
</a>
</g>
</g>
<!-- Node10&#45;&gt;Node5 -->
<g id="edge11_Node000010_Node000005" class="edge">
<title>Node10&#45;&gt;Node5</title>
<g id="a_edge11_Node000010_Node000005"><a xlink:title=" ">
<path fill="none" stroke="#63b8ff" d="M277.25,-152.56C238.25,-143.29 189.77,-131.34 146.75,-119.5 140.83,-117.87 134.64,-116.08 128.52,-114.27"/>
<polygon fill="#63b8ff" stroke="#63b8ff" points="276.24,-155.91 286.78,-154.81 277.85,-149.1 276.24,-155.91"/>
</a>
</g>
</g>
<!-- Node10&#45;&gt;Node6 -->
<g id="edge16_Node000010_Node000006" class="edge">
<title>Node10&#45;&gt;Node6</title>
<g id="a_edge16_Node000010_Node000006"><a xlink:title=" ">
<path fill="none" stroke="#63b8ff" d="M312.11,-149.89C289.51,-138.57 261.68,-124.63 241.06,-114.31"/>
<polygon fill="#63b8ff" stroke="#63b8ff" points="310.54,-153.02 321.05,-154.37 313.67,-146.76 310.54,-153.02"/>
</a>
</g>
</g>
<!-- Node11 -->
<g id="Node000011" class="node">
<title>Node11</title>
<g id="a_Node000011"><a xlink:href="_layout_8cpp.html" target="_top" xlink:title=" ">
<polygon fill="white" stroke="#666666" points="422.12,-113.88 285.38,-113.88 285.38,-83.38 422.12,-83.38 422.12,-113.88"/>
<text text-anchor="start" x="293.38" y="-100.38" font-family="Helvetica,sans-Serif" font-size="10.00">/github/workspace/src</text>
<text text-anchor="middle" x="353.75" y="-89.12" font-family="Helvetica,sans-Serif" font-size="10.00">/sgui/Resources/Layout.cpp</text>
</a>
</g>
</g>
<!-- Node10&#45;&gt;Node11 -->
<g id="edge12_Node000010_Node000011" class="edge">
<title>Node10&#45;&gt;Node11</title>
<g id="a_edge12_Node000010_Node000011"><a xlink:title=" ">
<path fill="none" stroke="#63b8ff" d="M352.49,-143.77C352.78,-133.76 353.09,-122.69 353.34,-114.14"/>
<polygon fill="#63b8ff" stroke="#63b8ff" points="348.99,-143.61 352.21,-153.71 355.99,-143.81 348.99,-143.61"/>
</a>
</g>
</g>
<!-- Node10&#45;&gt;Node12 -->
<g id="edge13_Node000010_Node000012" class="edge">
<title>Node10&#45;&gt;Node12</title>
<g id="a_edge13_Node000010_Node000012"><a xlink:title=" ">
<path fill="none" stroke="#63b8ff" d="M394.47,-150.42C415.44,-140.93 440.71,-129.5 461.95,-119.89"/>
<polygon fill="#63b8ff" stroke="#63b8ff" points="393.29,-147.11 385.62,-154.43 396.18,-153.49 393.29,-147.11"/>
</a>
</g>
</g>
<!-- Node13 -->
<g id="Node000013" class="node">
<title>Node13</title>
<g id="a_Node000013"><a xlink:href="_load_layout_8cpp.html" target="_top" xlink:title=" ">
<polygon fill="white" stroke="#666666" points="501,-36.12 336.5,-36.12 336.5,-5.62 501,-5.62 501,-36.12"/>
<text text-anchor="start" x="344.5" y="-22.62" font-family="Helvetica,sans-Serif" font-size="10.00">/github/workspace/src</text>
<text text-anchor="middle" x="418.75" y="-11.38" font-family="Helvetica,sans-Serif" font-size="10.00">/sgui/Serialization/LoadLayout.cpp</text>
</a>
</g>
</g>
<!-- Node12&#45;&gt;Node13 -->
<g id="edge14_Node000012_Node000013" class="edge">
<title>Node12&#45;&gt;Node13</title>
<g id="a_edge14_Node000012_Node000013"><a xlink:title=" ">
<path fill="none" stroke="#63b8ff" d="M474.76,-70.09C461.54,-58.71 446.76,-45.98 435.7,-36.46"/>
<polygon fill="#63b8ff" stroke="#63b8ff" points="472.16,-72.47 482.02,-76.34 476.72,-67.16 472.16,-72.47"/>
</a>
</g>
</g>
<!-- Node14 -->
<g id="Node000014" class="node">
<title>Node14</title>
<g id="a_Node000014"><a xlink:href="_load_texture_atlas_8cpp.html" target="_top" xlink:title=" ">
<polygon fill="white" stroke="#666666" points="668.5,-41.75 519,-41.75 519,0 668.5,0 668.5,-41.75"/>
<text text-anchor="start" x="527" y="-28.25" font-family="Helvetica,sans-Serif" font-size="10.00">/github/workspace/src</text>
<text text-anchor="start" x="527" y="-17" font-family="Helvetica,sans-Serif" font-size="10.00">/sgui/Serialization/LoadTexture</text>
<text text-anchor="middle" x="593.75" y="-5.75" font-family="Helvetica,sans-Serif" font-size="10.00">Atlas.cpp</text>
</a>
</g>
</g>
<!-- Node12&#45;&gt;Node14 -->
<g id="edge15_Node000012_Node000014" class="edge">
<title>Node12&#45;&gt;Node14</title>
<g id="a_edge15_Node000012_Node000014"><a xlink:title=" ">
<path fill="none" stroke="#63b8ff" d="M538.61,-69.89C549.12,-60.73 560.61,-50.73 570.37,-42.23"/>
<polygon fill="#63b8ff" stroke="#63b8ff" points="536.45,-67.13 531.21,-76.33 541.05,-72.4 536.45,-67.13"/>
</a>
</g>
</g>
</g>
</svg>
