<?xml version="1.0" encoding="UTF-8" standalone="no"?>
<!DOCTYPE svg PUBLIC "-//W3C//DTD SVG 1.1//EN"
 "http://www.w3.org/Graphics/SVG/1.1/DTD/svg11.dtd">
<!-- Generated by graphviz version 12.2.1 (20241206.2353)
 -->
<!-- Title: /github/workspace/src/sgui/Widgets/ItemStates.h Pages: 1 -->
<svg width="742pt" height="460pt"
 viewBox="0.00 0.00 741.50 460.00" xmlns="http://www.w3.org/2000/svg" xmlns:xlink="http://www.w3.org/1999/xlink">
<g id="graph0" class="graph" transform="scale(1 1) rotate(0) translate(4 456)">
<title>/github/workspace/src/sgui/Widgets/ItemStates.h</title>
<!-- Node1 -->
<g id="Node000001" class="node">
<title>Node1</title>
<g id="a_Node000001"><a xlink:title=" ">
<polygon fill="#999999" stroke="#666666" points="274.62,-452 140.88,-452 140.88,-421.5 274.62,-421.5 274.62,-452"/>
<text text-anchor="start" x="148.88" y="-438.5" font-family="Helvetica,sans-Serif" font-size="10.00">/github/workspace/src</text>
<text text-anchor="middle" x="207.75" y="-427.25" font-family="Helvetica,sans-Serif" font-size="10.00">/sgui/Widgets/ItemStates.h</text>
</a>
</g>
</g>
<!-- Node2 -->
<g id="Node000002" class="node">
<title>Node2</title>
<g id="a_Node000002"><a xlink:href="_aspect_8h.html" target="_top" xlink:title=" ">
<polygon fill="white" stroke="#666666" points="266,-385.5 149.5,-385.5 149.5,-355 266,-355 266,-385.5"/>
<text text-anchor="start" x="157.5" y="-372" font-family="Helvetica,sans-Serif" font-size="10.00">/github/workspace/src</text>
<text text-anchor="middle" x="207.75" y="-360.75" font-family="Helvetica,sans-Serif" font-size="10.00">/sgui/Widgets/Aspect.h</text>
</a>
</g>
</g>
<!-- Node1&#45;&gt;Node2 -->
<g id="edge1_Node000001_Node000002" class="edge">
<title>Node1&#45;&gt;Node2</title>
<g id="a_edge1_Node000001_Node000002"><a xlink:title=" ">
<path fill="none" stroke="#63b8ff" d="M207.75,-409.81C207.75,-401.64 207.75,-392.91 207.75,-385.83"/>
<polygon fill="#63b8ff" stroke="#63b8ff" points="204.25,-409.6 207.75,-419.6 211.25,-409.6 204.25,-409.6"/>
</a>
</g>
</g>
<!-- Node3 -->
<g id="Node000003" class="node">
<title>Node3</title>
<g id="a_Node000003"><a xlink:href="_draw_options_8h.html" target="_top" xlink:title=" ">
<polygon fill="white" stroke="#666666" points="203.5,-319 66,-319 66,-288.5 203.5,-288.5 203.5,-319"/>
<text text-anchor="start" x="74" y="-305.5" font-family="Helvetica,sans-Serif" font-size="10.00">/github/workspace/src</text>
<text text-anchor="middle" x="134.75" y="-294.25" font-family="Helvetica,sans-Serif" font-size="10.00">/sgui/Render/DrawOptions.h</text>
</a>
</g>
</g>
<!-- Node2&#45;&gt;Node3 -->
<g id="edge2_Node000002_Node000003" class="edge">
<title>Node2&#45;&gt;Node3</title>
<g id="a_edge2_Node000002_Node000003"><a xlink:title=" ">
<path fill="none" stroke="#63b8ff" d="M182.84,-347.24C172.41,-338.03 160.57,-327.56 151.25,-319.33"/>
<polygon fill="#63b8ff" stroke="#63b8ff" points="180.24,-349.61 190.05,-353.61 184.87,-344.37 180.24,-349.61"/>
</a>
</g>
</g>
<!-- Node9 -->
<g id="Node000009" class="node">
<title>Node9</title>
<g id="a_Node000009"><a xlink:href="_options_8h.html" target="_top" xlink:title=" ">
<polygon fill="white" stroke="#666666" points="341.5,-319 222,-319 222,-288.5 341.5,-288.5 341.5,-319"/>
<text text-anchor="start" x="230" y="-305.5" font-family="Helvetica,sans-Serif" font-size="10.00">/github/workspace/src</text>
<text text-anchor="middle" x="281.75" y="-294.25" font-family="Helvetica,sans-Serif" font-size="10.00">/sgui/Widgets/Options.h</text>
</a>
</g>
</g>
<!-- Node2&#45;&gt;Node9 -->
<g id="edge8_Node000002_Node000009" class="edge">
<title>Node2&#45;&gt;Node9</title>
<g id="a_edge8_Node000002_Node000009"><a xlink:title=" ">
<path fill="none" stroke="#63b8ff" d="M233,-347.24C243.57,-338.03 255.58,-327.56 265.02,-319.33"/>
<polygon fill="#63b8ff" stroke="#63b8ff" points="230.92,-344.41 225.68,-353.62 235.52,-349.69 230.92,-344.41"/>
</a>
</g>
</g>
<!-- Node4 -->
<g id="Node000004" class="node">
<title>Node4</title>
<g id="a_Node000004"><a xlink:href="_gui_render_8h.html" target="_top" xlink:title=" ">
<polygon fill="white" stroke="#666666" points="198.25,-252.5 71.25,-252.5 71.25,-222 198.25,-222 198.25,-252.5"/>
<text text-anchor="start" x="79.25" y="-239" font-family="Helvetica,sans-Serif" font-size="10.00">/github/workspace/src</text>
<text text-anchor="middle" x="134.75" y="-227.75" font-family="Helvetica,sans-Serif" font-size="10.00">/sgui/Render/GuiRender.h</text>
</a>
</g>
</g>
<!-- Node3&#45;&gt;Node4 -->
<g id="edge3_Node000003_Node000004" class="edge">
<title>Node3&#45;&gt;Node4</title>
<g id="a_edge3_Node000003_Node000004"><a xlink:title=" ">
<path fill="none" stroke="#63b8ff" d="M134.75,-276.81C134.75,-268.64 134.75,-259.91 134.75,-252.83"/>
<polygon fill="#63b8ff" stroke="#63b8ff" points="131.25,-276.6 134.75,-286.6 138.25,-276.6 131.25,-276.6"/>
</a>
</g>
</g>
<!-- Node5 -->
<g id="Node000005" class="node">
<title>Node5</title>
<g id="a_Node000005"><a xlink:href="_gui_8h.html" target="_top" xlink:title=" ">
<polygon fill="white" stroke="#666666" points="267.75,-186 155.75,-186 155.75,-155.5 267.75,-155.5 267.75,-186"/>
<text text-anchor="start" x="163.75" y="-172.5" font-family="Helvetica,sans-Serif" font-size="10.00">/github/workspace/src</text>
<text text-anchor="middle" x="211.75" y="-161.25" font-family="Helvetica,sans-Serif" font-size="10.00">/sgui/Gui.h</text>
</a>
</g>
</g>
<!-- Node4&#45;&gt;Node5 -->
<g id="edge4_Node000004_Node000005" class="edge">
<title>Node4&#45;&gt;Node5</title>
<g id="a_edge4_Node000004_Node000005"><a xlink:title=" ">
<path fill="none" stroke="#63b8ff" d="M161.02,-214.24C172.03,-205.03 184.51,-194.56 194.35,-186.33"/>
<polygon fill="#63b8ff" stroke="#63b8ff" points="158.8,-211.54 153.38,-220.64 163.3,-216.9 158.8,-211.54"/>
</a>
</g>
</g>
<!-- Node8 -->
<g id="Node000008" class="node">
<title>Node8</title>
<g id="a_Node000008"><a xlink:href="_gui_render_8cpp.html" target="_top" xlink:title=" ">
<polygon fill="white" stroke="#666666" points="137.5,-186 0,-186 0,-155.5 137.5,-155.5 137.5,-186"/>
<text text-anchor="start" x="8" y="-172.5" font-family="Helvetica,sans-Serif" font-size="10.00">/github/workspace/src</text>
<text text-anchor="middle" x="68.75" y="-161.25" font-family="Helvetica,sans-Serif" font-size="10.00">/sgui/Render/GuiRender.cpp</text>
</a>
</g>
</g>
<!-- Node4&#45;&gt;Node8 -->
<g id="edge7_Node000004_Node000008" class="edge">
<title>Node4&#45;&gt;Node8</title>
<g id="a_edge7_Node000004_Node000008"><a xlink:title=" ">
<path fill="none" stroke="#63b8ff" d="M111.66,-213.69C102.37,-204.61 91.93,-194.4 83.67,-186.33"/>
<polygon fill="#63b8ff" stroke="#63b8ff" points="109.09,-216.07 118.69,-220.56 113.99,-211.06 109.09,-216.07"/>
</a>
</g>
</g>
<!-- Node6 -->
<g id="Node000006" class="node">
<title>Node6</title>
<g id="a_Node000006"><a xlink:href="_gui_8cpp.html" target="_top" xlink:title=" ">
<polygon fill="white" stroke="#666666" points="202.75,-113.88 90.75,-113.88 90.75,-83.38 202.75,-83.38 202.75,-113.88"/>
<text text-anchor="start" x="98.75" y="-100.38" font-family="Helvetica,sans-Serif" font-size="10.00">/github/workspace/src</text>
<text text-anchor="middle" x="146.75" y="-89.12" font-family="Helvetica,sans-Serif" font-size="10.00">/sgui/Gui.cpp</text>
</a>
</g>
</g>
<!-- Node5&#45;&gt;Node6 -->
<g id="edge5_Node000005_Node000006" class="edge">
<title>Node5&#45;&gt;Node6</title>
<g id="a_edge5_Node000005_Node000006"><a xlink:title=" ">
<path fill="none" stroke="#63b8ff" d="M190.69,-147.03C180.68,-136.23 169,-123.63 160.2,-114.14"/>
<polygon fill="#63b8ff" stroke="#63b8ff" points="187.89,-149.16 197.25,-154.11 193.02,-144.4 187.89,-149.16"/>
</a>
</g>
</g>
<!-- Node7 -->
<g id="Node000007" class="node">
<title>Node7</title>
<g id="a_Node000007"><a xlink:href="sgui_8h.html" target="_top" xlink:title=" ">
<polygon fill="white" stroke="#666666" points="332.75,-113.88 220.75,-113.88 220.75,-83.38 332.75,-83.38 332.75,-113.88"/>
<text text-anchor="start" x="228.75" y="-100.38" font-family="Helvetica,sans-Serif" font-size="10.00">/github/workspace/src</text>
<text text-anchor="middle" x="276.75" y="-89.12" font-family="Helvetica,sans-Serif" font-size="10.00">/sgui/sgui.h</text>
</a>
</g>
</g>
<!-- Node5&#45;&gt;Node7 -->
<g id="edge6_Node000005_Node000007" class="edge">
<title>Node5&#45;&gt;Node7</title>
<g id="a_edge6_Node000005_Node000007"><a xlink:title=" ">
<path fill="none" stroke="#63b8ff" d="M232.81,-147.03C242.82,-136.23 254.5,-123.63 263.3,-114.14"/>
<polygon fill="#63b8ff" stroke="#63b8ff" points="230.48,-144.4 226.25,-154.11 235.61,-149.16 230.48,-144.4"/>
</a>
</g>
</g>
<!-- Node10 -->
<g id="Node000010" class="node">
<title>Node10</title>
<g id="a_Node000010"><a xlink:href="_panel_8h.html" target="_top" xlink:title=" ">
<polygon fill="white" stroke="#666666" points="337.75,-252.5 225.75,-252.5 225.75,-222 337.75,-222 337.75,-252.5"/>
<text text-anchor="start" x="233.75" y="-239" font-family="Helvetica,sans-Serif" font-size="10.00">/github/workspace/src</text>
<text text-anchor="middle" x="281.75" y="-227.75" font-family="Helvetica,sans-Serif" font-size="10.00">/sgui/Widgets/Panel.h</text>
</a>
</g>
</g>
<!-- Node9&#45;&gt;Node10 -->
<g id="edge9_Node000009_Node000010" class="edge">
<title>Node9&#45;&gt;Node10</title>
<g id="a_edge9_Node000009_Node000010"><a xlink:title=" ">
<path fill="none" stroke="#63b8ff" d="M281.75,-276.81C281.75,-268.64 281.75,-259.91 281.75,-252.83"/>
<polygon fill="#63b8ff" stroke="#63b8ff" points="278.25,-276.6 281.75,-286.6 285.25,-276.6 278.25,-276.6"/>
</a>
</g>
</g>
<!-- Node10&#45;&gt;Node5 -->
<g id="edge10_Node000010_Node000005" class="edge">
<title>Node10&#45;&gt;Node5</title>
<g id="a_edge10_Node000010_Node000005"><a xlink:title=" ">
<path fill="none" stroke="#63b8ff" d="M257.56,-213.96C247.64,-204.82 236.42,-194.48 227.57,-186.33"/>
<polygon fill="#63b8ff" stroke="#63b8ff" points="255.03,-216.39 264.75,-220.59 259.77,-211.24 255.03,-216.39"/>
</a>
</g>
</g>
<!-- Node11 -->
<g id="Node000011" class="node">
<title>Node11</title>
<g id="a_Node000011"><a xlink:href="_layout_8h.html" target="_top" xlink:title=" ">
<polygon fill="white" stroke="#666666" points="411.88,-186 285.62,-186 285.62,-155.5 411.88,-155.5 411.88,-186"/>
<text text-anchor="start" x="293.62" y="-172.5" font-family="Helvetica,sans-Serif" font-size="10.00">/github/workspace/src</text>
<text text-anchor="middle" x="348.75" y="-161.25" font-family="Helvetica,sans-Serif" font-size="10.00">/sgui/Resources/Layout.h</text>
</a>
</g>
</g>
<!-- Node10&#45;&gt;Node11 -->
<g id="edge11_Node000010_Node000011" class="edge">
<title>Node10&#45;&gt;Node11</title>
<g id="a_edge11_Node000010_Node000011"><a xlink:title=" ">
<path fill="none" stroke="#63b8ff" d="M305.19,-213.69C314.62,-204.61 325.22,-194.4 333.61,-186.33"/>
<polygon fill="#63b8ff" stroke="#63b8ff" points="302.82,-211.11 298.04,-220.56 307.68,-216.15 302.82,-211.11"/>
</a>
</g>
</g>
<!-- Node11&#45;&gt;Node6 -->
<g id="edge12_Node000011_Node000006" class="edge">
<title>Node11&#45;&gt;Node6</title>
<g id="a_edge12_Node000011_Node000006"><a xlink:title=" ">
<path fill="none" stroke="#63b8ff" d="M295.93,-151.41C262.6,-139.84 220.14,-125.1 189.04,-114.31"/>
<polygon fill="#63b8ff" stroke="#63b8ff" points="294.38,-154.58 304.97,-154.55 296.68,-147.97 294.38,-154.58"/>
</a>
</g>
</g>
<!-- Node11&#45;&gt;Node7 -->
<g id="edge17_Node000011_Node000007" class="edge">
<title>Node11&#45;&gt;Node7</title>
<g id="a_edge17_Node000011_Node000007"><a xlink:title=" ">
<path fill="none" stroke="#63b8ff" d="M325.75,-147.35C314.59,-136.48 301.49,-123.72 291.65,-114.14"/>
<polygon fill="#63b8ff" stroke="#63b8ff" points="323.14,-149.69 332.75,-154.16 328.03,-144.68 323.14,-149.69"/>
</a>
</g>
</g>
<!-- Node12 -->
<g id="Node000012" class="node">
<title>Node12</title>
<g id="a_Node000012"><a xlink:href="_layout_8cpp.html" target="_top" xlink:title=" ">
<polygon fill="white" stroke="#666666" points="487.12,-113.88 350.38,-113.88 350.38,-83.38 487.12,-83.38 487.12,-113.88"/>
<text text-anchor="start" x="358.38" y="-100.38" font-family="Helvetica,sans-Serif" font-size="10.00">/github/workspace/src</text>
<text text-anchor="middle" x="418.75" y="-89.12" font-family="Helvetica,sans-Serif" font-size="10.00">/sgui/Resources/Layout.cpp</text>
</a>
</g>
</g>
<!-- Node11&#45;&gt;Node12 -->
<g id="edge13_Node000011_Node000012" class="edge">
<title>Node11&#45;&gt;Node12</title>
<g id="a_edge13_Node000011_Node000012"><a xlink:title=" ">
<path fill="none" stroke="#63b8ff" d="M371.11,-147.35C381.96,-136.48 394.7,-123.72 404.26,-114.14"/>
<polygon fill="#63b8ff" stroke="#63b8ff" points="368.91,-144.6 364.32,-154.15 373.87,-149.54 368.91,-144.6"/>
</a>
</g>
</g>
<!-- Node13 -->
<g id="Node000013" class="node">
<title>Node13</title>
<g id="a_Node000013"><a xlink:href="_serialize_g_u_i_8h.html" target="_top" xlink:title=" ">
<polygon fill="white" stroke="#666666" points="637.88,-119.5 505.62,-119.5 505.62,-77.75 637.88,-77.75 637.88,-119.5"/>
<text text-anchor="start" x="513.62" y="-106" font-family="Helvetica,sans-Serif" font-size="10.00">/github/workspace/src</text>
<text text-anchor="start" x="513.62" y="-94.75" font-family="Helvetica,sans-Serif" font-size="10.00">/sgui/Serialization/Serialize</text>
<text text-anchor="middle" x="571.75" y="-83.5" font-family="Helvetica,sans-Serif" font-size="10.00">GUI.h</text>
</a>
</g>
</g>
<!-- Node11&#45;&gt;Node13 -->
<g id="edge14_Node000011_Node000013" class="edge">
<title>Node11&#45;&gt;Node13</title>
<g id="a_edge14_Node000011_Node000013"><a xlink:title=" ">
<path fill="none" stroke="#63b8ff" d="M406.11,-151.71C437.05,-141.98 475.34,-129.94 507.3,-119.89"/>
<polygon fill="#63b8ff" stroke="#63b8ff" points="405.43,-148.26 396.94,-154.6 407.53,-154.93 405.43,-148.26"/>
</a>
</g>
</g>
<!-- Node14 -->
<g id="Node000014" class="node">
<title>Node14</title>
<g id="a_Node000014"><a xlink:href="_load_layout_8cpp.html" target="_top" xlink:title=" ">
<polygon fill="white" stroke="#666666" points="566,-36.12 401.5,-36.12 401.5,-5.62 566,-5.62 566,-36.12"/>
<text text-anchor="start" x="409.5" y="-22.62" font-family="Helvetica,sans-Serif" font-size="10.00">/github/workspace/src</text>
<text text-anchor="middle" x="483.75" y="-11.38" font-family="Helvetica,sans-Serif" font-size="10.00">/sgui/Serialization/LoadLayout.cpp</text>
</a>
</g>
</g>
<!-- Node13&#45;&gt;Node14 -->
<g id="edge15_Node000013_Node000014" class="edge">
<title>Node13&#45;&gt;Node14</title>
<g id="a_edge15_Node000013_Node000014"><a xlink:title=" ">
<path fill="none" stroke="#63b8ff" d="M539.76,-70.09C526.54,-58.71 511.76,-45.98 500.7,-36.46"/>
<polygon fill="#63b8ff" stroke="#63b8ff" points="537.16,-72.47 547.02,-76.34 541.72,-67.16 537.16,-72.47"/>
</a>
</g>
</g>
<!-- Node15 -->
<g id="Node000015" class="node">
<title>Node15</title>
<g id="a_Node000015"><a xlink:href="_load_texture_atlas_8cpp.html" target="_top" xlink:title=" ">
<polygon fill="white" stroke="#666666" points="733.5,-41.75 584,-41.75 584,0 733.5,0 733.5,-41.75"/>
<text text-anchor="start" x="592" y="-28.25" font-family="Helvetica,sans-Serif" font-size="10.00">/github/workspace/src</text>
<text text-anchor="start" x="592" y="-17" font-family="Helvetica,sans-Serif" font-size="10.00">/sgui/Serialization/LoadTexture</text>
<text text-anchor="middle" x="658.75" y="-5.75" font-family="Helvetica,sans-Serif" font-size="10.00">Atlas.cpp</text>
</a>
</g>
</g>
<!-- Node13&#45;&gt;Node15 -->
<g id="edge16_Node000013_Node000015" class="edge">
<title>Node13&#45;&gt;Node15</title>
<g id="a_edge16_Node000013_Node000015"><a xlink:title=" ">
<path fill="none" stroke="#63b8ff" d="M603.61,-69.89C614.12,-60.73 625.61,-50.73 635.37,-42.23"/>
<polygon fill="#63b8ff" stroke="#63b8ff" points="601.45,-67.13 596.21,-76.33 606.05,-72.4 601.45,-67.13"/>
</a>
</g>
</g>
</g>
</svg>
