<?xml version="1.0" encoding="UTF-8" standalone="no"?>
<!DOCTYPE svg PUBLIC "-//W3C//DTD SVG 1.1//EN"
 "http://www.w3.org/Graphics/SVG/1.1/DTD/svg11.dtd">
<!-- Generated by graphviz version 12.2.1 (20241206.2353)
 -->
<!-- Title: /github/workspace/src/sgui/Resources/Layout.cpp Pages: 1 -->
<svg width="882pt" height="326pt"
 viewBox="0.00 0.00 881.62 326.00" xmlns="http://www.w3.org/2000/svg" xmlns:xlink="http://www.w3.org/1999/xlink">
<g id="graph0" class="graph" transform="scale(1 1) rotate(0) translate(4 322)">
<title>/github/workspace/src/sgui/Resources/Layout.cpp</title>
<!-- Node1 -->
<g id="Node000001" class="node">
<title>Node1</title>
<g id="a_Node000001"><a xlink:title=" ">
<polygon fill="#999999" stroke="#666666" points="496.75,-318 360,-318 360,-287.5 496.75,-287.5 496.75,-318"/>
<text text-anchor="start" x="368" y="-304.5" font-family="Helvetica,sans-Serif" font-size="10.00">/github/workspace/src</text>
<text text-anchor="middle" x="428.38" y="-293.25" font-family="Helvetica,sans-Serif" font-size="10.00">/sgui/Resources/Layout.cpp</text>
</a>
</g>
</g>
<!-- Node2 -->
<g id="Node000002" class="node">
<title>Node2</title>
<g id="a_Node000002"><a xlink:href="_layout_8h.html" target="_top" xlink:title=" ">
<polygon fill="white" stroke="#666666" points="568,-245.88 444.75,-245.88 444.75,-226.62 568,-226.62 568,-245.88"/>
<text text-anchor="middle" x="506.38" y="-232.38" font-family="Helvetica,sans-Serif" font-size="10.00">sgui/Resources/Layout.h</text>
</a>
</g>
</g>
<!-- Node1&#45;&gt;Node2 -->
<g id="edge1_Node000001_Node000002" class="edge">
<title>Node1&#45;&gt;Node2</title>
<g id="a_edge1_Node000001_Node000002"><a xlink:title=" ">
<path fill="none" stroke="#63b8ff" d="M446.07,-287.11C458.25,-277.04 474.43,-263.67 486.96,-253.31"/>
<polygon fill="#63b8ff" stroke="#63b8ff" points="489.06,-256.11 494.54,-247.04 484.6,-250.71 489.06,-256.11"/>
</a>
</g>
</g>
<!-- Node18 -->
<g id="Node000018" class="node">
<title>Node18</title>
<g id="a_Node000018"><a xlink:href="_load_layout_8h.html" target="_top" xlink:title=" ">
<polygon fill="white" stroke="#666666" points="411.12,-251.5 321.62,-251.5 321.62,-221 411.12,-221 411.12,-251.5"/>
<text text-anchor="start" x="329.62" y="-238" font-family="Helvetica,sans-Serif" font-size="10.00">sgui/Serialization</text>
<text text-anchor="middle" x="366.38" y="-226.75" font-family="Helvetica,sans-Serif" font-size="10.00">/LoadLayout.h</text>
</a>
</g>
</g>
<!-- Node1&#45;&gt;Node18 -->
<g id="edge22_Node000001_Node000018" class="edge">
<title>Node1&#45;&gt;Node18</title>
<g id="a_edge22_Node000001_Node000018"><a xlink:title=" ">
<path fill="none" stroke="#63b8ff" d="M414.31,-287.11C406.62,-279.11 396.92,-269.03 388.27,-260.03"/>
<polygon fill="#63b8ff" stroke="#63b8ff" points="390.89,-257.7 381.44,-252.92 385.84,-262.55 390.89,-257.7"/>
</a>
</g>
</g>
<!-- Node3 -->
<g id="Node000003" class="node">
<title>Node3</title>
<g id="a_Node000003"><a xlink:title=" ">
<polygon fill="#e0e0e0" stroke="#999999" points="637.38,-129.75 597.38,-129.75 597.38,-110.5 637.38,-110.5 637.38,-129.75"/>
<text text-anchor="middle" x="617.38" y="-116.25" font-family="Helvetica,sans-Serif" font-size="10.00">string</text>
</a>
</g>
</g>
<!-- Node2&#45;&gt;Node3 -->
<g id="edge2_Node000002_Node000003" class="edge">
<title>Node2&#45;&gt;Node3</title>
<g id="a_edge2_Node000002_Node000003"><a xlink:title=" ">
<path fill="none" stroke="#63b8ff" d="M568.25,-229.33C625.12,-222.46 703.4,-208.9 722.38,-185 727.7,-178.3 727.1,-172.89 722.38,-165.75 713.78,-152.76 676.09,-138.88 648.32,-130.11"/>
<polygon fill="#63b8ff" stroke="#63b8ff" points="649.54,-126.83 638.95,-127.24 647.48,-133.52 649.54,-126.83"/>
</a>
</g>
</g>
<!-- Node4 -->
<g id="Node000004" class="node">
<title>Node4</title>
<g id="a_Node000004"><a xlink:title=" ">
<polygon fill="#e0e0e0" stroke="#999999" points="405.88,-185 362.88,-185 362.88,-165.75 405.88,-165.75 405.88,-185"/>
<text text-anchor="middle" x="384.38" y="-171.5" font-family="Helvetica,sans-Serif" font-size="10.00">vector</text>
</a>
</g>
</g>
<!-- Node2&#45;&gt;Node4 -->
<g id="edge3_Node000002_Node000004" class="edge">
<title>Node2&#45;&gt;Node4</title>
<g id="a_edge3_Node000002_Node000004"><a xlink:title=" ">
<path fill="none" stroke="#63b8ff" d="M487.58,-226.18C467.73,-216.6 436.19,-201.38 413.19,-190.28"/>
<polygon fill="#63b8ff" stroke="#63b8ff" points="414.88,-187.21 404.35,-186.02 411.84,-193.52 414.88,-187.21"/>
</a>
</g>
</g>
<!-- Node5 -->
<g id="Node000005" class="node">
<title>Node5</title>
<g id="a_Node000005"><a xlink:title=" ">
<polygon fill="#e0e0e0" stroke="#999999" points="462.62,-185 424.12,-185 424.12,-165.75 462.62,-165.75 462.62,-185"/>
<text text-anchor="middle" x="443.38" y="-171.5" font-family="Helvetica,sans-Serif" font-size="10.00">utility</text>
</a>
</g>
</g>
<!-- Node2&#45;&gt;Node5 -->
<g id="edge4_Node000002_Node000005" class="edge">
<title>Node2&#45;&gt;Node5</title>
<g id="a_edge4_Node000002_Node000005"><a xlink:title=" ">
<path fill="none" stroke="#63b8ff" d="M496.81,-226.31C487.37,-217.49 472.72,-203.8 461.15,-192.98"/>
<polygon fill="#63b8ff" stroke="#63b8ff" points="463.84,-190.71 454.14,-186.43 459.06,-195.82 463.84,-190.71"/>
</a>
</g>
</g>
<!-- Node6 -->
<g id="Node000006" class="node">
<title>Node6</title>
<g id="a_Node000006"><a xlink:title=" ">
<polygon fill="#e0e0e0" stroke="#999999" points="563.75,-185 481,-185 481,-165.75 563.75,-165.75 563.75,-185"/>
<text text-anchor="middle" x="522.38" y="-171.5" font-family="Helvetica,sans-Serif" font-size="10.00">unordered_map</text>
</a>
</g>
</g>
<!-- Node2&#45;&gt;Node6 -->
<g id="edge5_Node000002_Node000006" class="edge">
<title>Node2&#45;&gt;Node6</title>
<g id="a_edge5_Node000002_Node000006"><a xlink:title=" ">
<path fill="none" stroke="#63b8ff" d="M508.81,-226.31C510.97,-218.35 514.2,-206.44 516.98,-196.24"/>
<polygon fill="#63b8ff" stroke="#63b8ff" points="520.28,-197.43 519.53,-186.86 513.53,-195.59 520.28,-197.43"/>
</a>
</g>
</g>
<!-- Node7 -->
<g id="Node000007" class="node">
<title>Node7</title>
<g id="a_Node000007"><a xlink:href="_style_8h.html" target="_top" xlink:title=" ">
<polygon fill="white" stroke="#666666" points="873.62,-185 769.12,-185 769.12,-165.75 873.62,-165.75 873.62,-185"/>
<text text-anchor="middle" x="821.38" y="-171.5" font-family="Helvetica,sans-Serif" font-size="10.00">sgui/Widgets/Style.h</text>
</a>
</g>
</g>
<!-- Node2&#45;&gt;Node7 -->
<g id="edge6_Node000002_Node000007" class="edge">
<title>Node2&#45;&gt;Node7</title>
<g id="a_edge6_Node000002_Node000007"><a xlink:title=" ">
<path fill="none" stroke="#63b8ff" d="M554.9,-226.18C610.51,-215.79 701.67,-198.75 761.61,-187.55"/>
<polygon fill="#63b8ff" stroke="#63b8ff" points="762.12,-191.01 771.3,-185.73 760.83,-184.13 762.12,-191.01"/>
</a>
</g>
</g>
<!-- Node10 -->
<g id="Node000010" class="node">
<title>Node10</title>
<g id="a_Node000010"><a xlink:href="_panel_8h.html" target="_top" xlink:title=" ">
<polygon fill="white" stroke="#666666" points="306.12,-185 198.62,-185 198.62,-165.75 306.12,-165.75 306.12,-185"/>
<text text-anchor="middle" x="252.38" y="-171.5" font-family="Helvetica,sans-Serif" font-size="10.00">sgui/Widgets/Panel.h</text>
</a>
</g>
</g>
<!-- Node2&#45;&gt;Node10 -->
<g id="edge10_Node000002_Node000010" class="edge">
<title>Node2&#45;&gt;Node10</title>
<g id="a_edge10_Node000002_Node000010"><a xlink:title=" ">
<path fill="none" stroke="#63b8ff" d="M467.24,-226.18C423.06,-215.94 351.03,-199.24 302.69,-188.04"/>
<polygon fill="#63b8ff" stroke="#63b8ff" points="303.56,-184.65 293.02,-185.8 301.98,-191.46 303.56,-184.65"/>
</a>
</g>
</g>
<!-- Node17 -->
<g id="Node000017" class="node">
<title>Node17</title>
<g id="a_Node000017"><a xlink:href="_layout_8tpp.html" target="_top" xlink:title=" ">
<polygon fill="white" stroke="#666666" points="713.12,-185 581.62,-185 581.62,-165.75 713.12,-165.75 713.12,-185"/>
<text text-anchor="middle" x="647.38" y="-171.5" font-family="Helvetica,sans-Serif" font-size="10.00">sgui/Resources/Layout.tpp</text>
</a>
</g>
</g>
<!-- Node2&#45;&gt;Node17 -->
<g id="edge21_Node000002_Node000017" class="edge">
<title>Node2&#45;&gt;Node17</title>
<g id="a_edge21_Node000002_Node000017"><a xlink:title=" ">
<path fill="none" stroke="#63b8ff" d="M528.1,-226.18C551.45,-216.43 588.82,-200.83 615.5,-189.68"/>
<polygon fill="#63b8ff" stroke="#63b8ff" points="616.58,-193.03 624.46,-185.94 613.89,-186.57 616.58,-193.03"/>
</a>
</g>
</g>
<!-- Node7&#45;&gt;Node3 -->
<g id="edge7_Node000007_Node000003" class="edge">
<title>Node7&#45;&gt;Node3</title>
<g id="a_edge7_Node000007_Node000003"><a xlink:title=" ">
<path fill="none" stroke="#63b8ff" d="M786.77,-165.34C748.03,-155.23 685.83,-138.99 648.55,-129.26"/>
<polygon fill="#63b8ff" stroke="#63b8ff" points="649.86,-125.99 639.3,-126.85 648.09,-132.76 649.86,-125.99"/>
</a>
</g>
</g>
<!-- Node8 -->
<g id="Node000008" class="node">
<title>Node8</title>
<g id="a_Node000008"><a xlink:title=" ">
<polygon fill="#e0e0e0" stroke="#999999" points="793.62,-129.75 665.12,-129.75 665.12,-110.5 793.62,-110.5 793.62,-129.75"/>
<text text-anchor="middle" x="729.38" y="-116.25" font-family="Helvetica,sans-Serif" font-size="10.00">SFML/Graphics/Color.hpp</text>
</a>
</g>
</g>
<!-- Node7&#45;&gt;Node8 -->
<g id="edge8_Node000007_Node000008" class="edge">
<title>Node7&#45;&gt;Node8</title>
<g id="a_edge8_Node000007_Node000008"><a xlink:title=" ">
<path fill="none" stroke="#63b8ff" d="M805.77,-165.34C791.76,-157.23 770.94,-145.18 754.57,-135.71"/>
<polygon fill="#63b8ff" stroke="#63b8ff" points="756.78,-132.94 746.37,-130.96 753.27,-139 756.78,-132.94"/>
</a>
</g>
</g>
<!-- Node9 -->
<g id="Node000009" class="node">
<title>Node9</title>
<g id="a_Node000009"><a xlink:title=" ">
<polygon fill="#e0e0e0" stroke="#999999" points="434.25,-19.25 300.5,-19.25 300.5,0 434.25,0 434.25,-19.25"/>
<text text-anchor="middle" x="367.38" y="-5.75" font-family="Helvetica,sans-Serif" font-size="10.00">SFML/System/Vector2.hpp</text>
</a>
</g>
</g>
<!-- Node7&#45;&gt;Node9 -->
<g id="edge9_Node000007_Node000009" class="edge">
<title>Node7&#45;&gt;Node9</title>
<g id="a_edge9_Node000007_Node000009"><a xlink:title=" ">
<path fill="none" stroke="#63b8ff" d="M821.4,-165.52C820.92,-151.69 817.9,-125.07 802.38,-110.5 751.44,-62.7 556.46,-32.69 445.61,-19.12"/>
<polygon fill="#63b8ff" stroke="#63b8ff" points="446.35,-15.68 436,-17.96 445.51,-22.63 446.35,-15.68"/>
</a>
</g>
</g>
<!-- Node10&#45;&gt;Node3 -->
<g id="edge11_Node000010_Node000003" class="edge">
<title>Node10&#45;&gt;Node3</title>
<g id="a_edge11_Node000010_Node000003"><a xlink:title=" ">
<path fill="none" stroke="#63b8ff" d="M306.32,-167.47C384.78,-157.35 526.54,-138.71 577.38,-129.75 580.19,-129.25 583.11,-128.7 586.03,-128.12"/>
<polygon fill="#63b8ff" stroke="#63b8ff" points="586.53,-131.59 595.6,-126.12 585.1,-124.74 586.53,-131.59"/>
</a>
</g>
</g>
<!-- Node10&#45;&gt;Node9 -->
<g id="edge13_Node000010_Node000009" class="edge">
<title>Node10&#45;&gt;Node9</title>
<g id="a_edge13_Node000010_Node000009"><a xlink:title=" ">
<path fill="none" stroke="#63b8ff" d="M306.41,-165.46C356.78,-153.97 429.12,-128.61 463.38,-74.5 478.56,-50.52 447.47,-33.51 416.72,-23.1"/>
<polygon fill="#63b8ff" stroke="#63b8ff" points="417.96,-19.82 407.37,-20.15 415.85,-26.5 417.96,-19.82"/>
</a>
</g>
</g>
<!-- Node11 -->
<g id="Node000011" class="node">
<title>Node11</title>
<g id="a_Node000011"><a xlink:title=" ">
<polygon fill="#e0e0e0" stroke="#999999" points="568.38,-129.75 510.38,-129.75 510.38,-110.5 568.38,-110.5 568.38,-129.75"/>
<text text-anchor="middle" x="539.38" y="-116.25" font-family="Helvetica,sans-Serif" font-size="10.00">functional</text>
</a>
</g>
</g>
<!-- Node10&#45;&gt;Node11 -->
<g id="edge12_Node000010_Node000011" class="edge">
<title>Node10&#45;&gt;Node11</title>
<g id="a_edge12_Node000010_Node000011"><a xlink:title=" ">
<path fill="none" stroke="#63b8ff" d="M303.36,-165.31C352.76,-156.47 429.76,-142.52 496.38,-129.75 497.36,-129.56 498.35,-129.37 499.35,-129.18"/>
<polygon fill="#63b8ff" stroke="#63b8ff" points="499.62,-132.69 508.76,-127.33 498.27,-125.82 499.62,-132.69"/>
</a>
</g>
</g>
<!-- Node12 -->
<g id="Node000012" class="node">
<title>Node12</title>
<g id="a_Node000012"><a xlink:title=" ">
<polygon fill="#e0e0e0" stroke="#999999" points="176.5,-129.75 50.25,-129.75 50.25,-110.5 176.5,-110.5 176.5,-129.75"/>
<text text-anchor="middle" x="113.38" y="-116.25" font-family="Helvetica,sans-Serif" font-size="10.00">SFML/Graphics/Rect.hpp</text>
</a>
</g>
</g>
<!-- Node10&#45;&gt;Node12 -->
<g id="edge14_Node000010_Node000012" class="edge">
<title>Node10&#45;&gt;Node12</title>
<g id="a_edge14_Node000010_Node000012"><a xlink:title=" ">
<path fill="none" stroke="#63b8ff" d="M228.8,-165.34C206.53,-156.81 172.88,-143.92 147.65,-134.26"/>
<polygon fill="#63b8ff" stroke="#63b8ff" points="149.07,-131.05 138.48,-130.74 146.57,-137.59 149.07,-131.05"/>
</a>
</g>
</g>
<!-- Node13 -->
<g id="Node000013" class="node">
<title>Node13</title>
<g id="a_Node000013"><a xlink:href="_options_8h.html" target="_top" xlink:title=" ">
<polygon fill="white" stroke="#666666" points="310.62,-129.75 194.12,-129.75 194.12,-110.5 310.62,-110.5 310.62,-129.75"/>
<text text-anchor="middle" x="252.38" y="-116.25" font-family="Helvetica,sans-Serif" font-size="10.00">sgui/Widgets/Options.h</text>
</a>
</g>
</g>
<!-- Node10&#45;&gt;Node13 -->
<g id="edge15_Node000010_Node000013" class="edge">
<title>Node10&#45;&gt;Node13</title>
<g id="a_edge15_Node000010_Node000013"><a xlink:title=" ">
<path fill="none" stroke="#63b8ff" d="M252.38,-165.58C252.38,-159.07 252.38,-149.92 252.38,-141.62"/>
<polygon fill="#63b8ff" stroke="#63b8ff" points="255.88,-141.62 252.38,-131.62 248.88,-141.62 255.88,-141.62"/>
</a>
</g>
</g>
<!-- Node13&#45;&gt;Node9 -->
<g id="edge16_Node000013_Node000009" class="edge">
<title>Node13&#45;&gt;Node9</title>
<g id="a_edge16_Node000013_Node000009"><a xlink:title=" ">
<path fill="none" stroke="#63b8ff" d="M226.56,-110.06C198.32,-98.73 159.32,-78.04 177.38,-55.25 191.52,-37.4 243.19,-25.99 289.08,-19.18"/>
<polygon fill="#63b8ff" stroke="#63b8ff" points="289.39,-22.68 298.79,-17.8 288.4,-15.74 289.39,-22.68"/>
</a>
</g>
</g>
<!-- Node14 -->
<g id="Node000014" class="node">
<title>Node14</title>
<g id="a_Node000014"><a xlink:href="_constraints_8h.html" target="_top" xlink:title=" ">
<polygon fill="white" stroke="#666666" points="318.5,-74.5 186.25,-74.5 186.25,-55.25 318.5,-55.25 318.5,-74.5"/>
<text text-anchor="middle" x="252.38" y="-61" font-family="Helvetica,sans-Serif" font-size="10.00">sgui/Widgets/Constraints.h</text>
</a>
</g>
</g>
<!-- Node13&#45;&gt;Node14 -->
<g id="edge17_Node000013_Node000014" class="edge">
<title>Node13&#45;&gt;Node14</title>
<g id="a_edge17_Node000013_Node000014"><a xlink:title=" ">
<path fill="none" stroke="#63b8ff" d="M252.38,-110.33C252.38,-103.82 252.38,-94.67 252.38,-86.37"/>
<polygon fill="#63b8ff" stroke="#63b8ff" points="255.88,-86.37 252.38,-76.37 248.88,-86.37 255.88,-86.37"/>
</a>
</g>
</g>
<!-- Node15 -->
<g id="Node000015" class="node">
<title>Node15</title>
<g id="a_Node000015"><a xlink:href="_widgets_8h.html" target="_top" xlink:title=" ">
<polygon fill="white" stroke="#666666" points="454.38,-74.5 336.38,-74.5 336.38,-55.25 454.38,-55.25 454.38,-74.5"/>
<text text-anchor="middle" x="395.38" y="-61" font-family="Helvetica,sans-Serif" font-size="10.00">sgui/Widgets/Widgets.h</text>
</a>
</g>
</g>
<!-- Node13&#45;&gt;Node15 -->
<g id="edge19_Node000013_Node000015" class="edge">
<title>Node13&#45;&gt;Node15</title>
<g id="a_edge19_Node000013_Node000015"><a xlink:title=" ">
<path fill="none" stroke="#63b8ff" d="M276.63,-110.09C299.64,-101.52 334.47,-88.56 360.46,-78.88"/>
<polygon fill="#63b8ff" stroke="#63b8ff" points="361.43,-82.25 369.58,-75.48 358.99,-75.69 361.43,-82.25"/>
</a>
</g>
</g>
<!-- Node16 -->
<g id="Node000016" class="node">
<title>Node16</title>
<g id="a_Node000016"><a xlink:href="_item_states_8h.html" target="_top" xlink:title=" ">
<polygon fill="white" stroke="#666666" points="130.75,-74.5 0,-74.5 0,-55.25 130.75,-55.25 130.75,-74.5"/>
<text text-anchor="middle" x="65.38" y="-61" font-family="Helvetica,sans-Serif" font-size="10.00">sgui/Widgets/ItemStates.h</text>
</a>
</g>
</g>
<!-- Node13&#45;&gt;Node16 -->
<g id="edge20_Node000013_Node000016" class="edge">
<title>Node13&#45;&gt;Node16</title>
<g id="a_edge20_Node000013_Node000016"><a xlink:title=" ">
<path fill="none" stroke="#63b8ff" d="M220.65,-110.09C189.62,-101.26 142.17,-87.74 107.88,-77.98"/>
<polygon fill="#63b8ff" stroke="#63b8ff" points="109.28,-74.74 98.71,-75.37 107.37,-81.47 109.28,-74.74"/>
</a>
</g>
</g>
<!-- Node14&#45;&gt;Node9 -->
<g id="edge18_Node000014_Node000009" class="edge">
<title>Node14&#45;&gt;Node9</title>
<g id="a_edge18_Node000014_Node000009"><a xlink:title=" ">
<path fill="none" stroke="#63b8ff" d="M271.88,-54.84C289.89,-46.5 316.9,-34 337.6,-24.41"/>
<polygon fill="#63b8ff" stroke="#63b8ff" points="338.79,-27.72 346.4,-20.34 335.85,-21.36 338.79,-27.72"/>
</a>
</g>
</g>
<!-- Node18&#45;&gt;Node3 -->
<g id="edge23_Node000018_Node000003" class="edge">
<title>Node18&#45;&gt;Node3</title>
<g id="a_edge23_Node000018_Node000003"><a xlink:title=" ">
<path fill="none" stroke="#63b8ff" d="M357.8,-220.7C349.94,-205.26 341.36,-181.04 354.38,-165.75 386.92,-127.53 528.05,-139.04 577.38,-129.75 580.18,-129.22 583.1,-128.64 586.02,-128.05"/>
<polygon fill="#63b8ff" stroke="#63b8ff" points="586.52,-131.52 595.59,-126.03 585.08,-124.67 586.52,-131.52"/>
</a>
</g>
</g>
</g>
</svg>
