<?xml version="1.0" encoding="UTF-8" standalone="no"?>
<!DOCTYPE svg PUBLIC "-//W3C//DTD SVG 1.1//EN"
 "http://www.w3.org/Graphics/SVG/1.1/DTD/svg11.dtd">
<!-- Generated by graphviz version 12.2.1 (20241206.2353)
 -->
<!-- Title: /github/workspace/src/sgui/Resources/Layout.cpp Pages: 1 -->
<svg width="761pt" height="326pt"
 viewBox="0.00 0.00 761.00 326.00" xmlns="http://www.w3.org/2000/svg" xmlns:xlink="http://www.w3.org/1999/xlink">
<g id="graph0" class="graph" transform="scale(1 1) rotate(0) translate(4 322)">
<title>/github/workspace/src/sgui/Resources/Layout.cpp</title>
<!-- Node1 -->
<g id="Node000001" class="node">
<title>Node1</title>
<g id="a_Node000001"><a xlink:title=" ">
<polygon fill="#999999" stroke="#666666" points="385.62,-318 248.88,-318 248.88,-287.5 385.62,-287.5 385.62,-318"/>
<text text-anchor="start" x="256.88" y="-304.5" font-family="Helvetica,sans-Serif" font-size="10.00">/github/workspace/src</text>
<text text-anchor="middle" x="317.25" y="-293.25" font-family="Helvetica,sans-Serif" font-size="10.00">/sgui/Resources/Layout.cpp</text>
</a>
</g>
</g>
<!-- Node2 -->
<g id="Node000002" class="node">
<title>Node2</title>
<g id="a_Node000002"><a xlink:href="_layout_8h.html" target="_top" xlink:title=" ">
<polygon fill="white" stroke="#666666" points="462.88,-245.88 339.62,-245.88 339.62,-226.62 462.88,-226.62 462.88,-245.88"/>
<text text-anchor="middle" x="401.25" y="-232.38" font-family="Helvetica,sans-Serif" font-size="10.00">sgui/Resources/Layout.h</text>
</a>
</g>
</g>
<!-- Node1&#45;&gt;Node2 -->
<g id="edge1_Node000001_Node000002" class="edge">
<title>Node1&#45;&gt;Node2</title>
<g id="a_edge1_Node000001_Node000002"><a xlink:title=" ">
<path fill="none" stroke="#63b8ff" d="M336.31,-287.11C349.55,-276.94 367.19,-263.41 380.74,-253"/>
<polygon fill="#63b8ff" stroke="#63b8ff" points="382.76,-255.86 388.56,-246.99 378.5,-250.31 382.76,-255.86"/>
</a>
</g>
</g>
<!-- Node19 -->
<g id="Node000019" class="node">
<title>Node19</title>
<g id="a_Node000019"><a xlink:href="_load_layout_8h.html" target="_top" xlink:title=" ">
<polygon fill="white" stroke="#666666" points="300,-251.5 210.5,-251.5 210.5,-221 300,-221 300,-251.5"/>
<text text-anchor="start" x="218.5" y="-238" font-family="Helvetica,sans-Serif" font-size="10.00">sgui/Serialization</text>
<text text-anchor="middle" x="255.25" y="-226.75" font-family="Helvetica,sans-Serif" font-size="10.00">/LoadLayout.h</text>
</a>
</g>
</g>
<!-- Node1&#45;&gt;Node19 -->
<g id="edge23_Node000001_Node000019" class="edge">
<title>Node1&#45;&gt;Node19</title>
<g id="a_edge23_Node000001_Node000019"><a xlink:title=" ">
<path fill="none" stroke="#63b8ff" d="M303.18,-287.11C295.49,-279.11 285.8,-269.03 277.14,-260.03"/>
<polygon fill="#63b8ff" stroke="#63b8ff" points="279.77,-257.7 270.31,-252.92 274.72,-262.55 279.77,-257.7"/>
</a>
</g>
</g>
<!-- Node3 -->
<g id="Node000003" class="node">
<title>Node3</title>
<g id="a_Node000003"><a xlink:title=" ">
<polygon fill="#e0e0e0" stroke="#999999" points="224.25,-129.75 184.25,-129.75 184.25,-110.5 224.25,-110.5 224.25,-129.75"/>
<text text-anchor="middle" x="204.25" y="-116.25" font-family="Helvetica,sans-Serif" font-size="10.00">string</text>
</a>
</g>
</g>
<!-- Node2&#45;&gt;Node3 -->
<g id="edge2_Node000002_Node000003" class="edge">
<title>Node2&#45;&gt;Node3</title>
<g id="a_edge2_Node000002_Node000003"><a xlink:title=" ">
<path fill="none" stroke="#63b8ff" d="M365.17,-226.13C337.27,-218.04 298.43,-204.47 268.25,-185 248.74,-172.42 230.42,-153.06 218.42,-138.95"/>
<polygon fill="#63b8ff" stroke="#63b8ff" points="221.2,-136.83 212.15,-131.34 215.8,-141.28 221.2,-136.83"/>
</a>
</g>
</g>
<!-- Node4 -->
<g id="Node000004" class="node">
<title>Node4</title>
<g id="a_Node000004"><a xlink:title=" ">
<polygon fill="#e0e0e0" stroke="#999999" points="445.75,-185 402.75,-185 402.75,-165.75 445.75,-165.75 445.75,-185"/>
<text text-anchor="middle" x="424.25" y="-171.5" font-family="Helvetica,sans-Serif" font-size="10.00">vector</text>
</a>
</g>
</g>
<!-- Node2&#45;&gt;Node4 -->
<g id="edge3_Node000002_Node000004" class="edge">
<title>Node2&#45;&gt;Node4</title>
<g id="a_edge3_Node000002_Node000004"><a xlink:title=" ">
<path fill="none" stroke="#63b8ff" d="M404.74,-226.31C407.88,-218.27 412.61,-206.18 416.62,-195.91"/>
<polygon fill="#63b8ff" stroke="#63b8ff" points="419.79,-197.4 420.17,-186.81 413.27,-194.85 419.79,-197.4"/>
</a>
</g>
</g>
<!-- Node5 -->
<g id="Node000005" class="node">
<title>Node5</title>
<g id="a_Node000005"><a xlink:title=" ">
<polygon fill="#e0e0e0" stroke="#999999" points="502.5,-185 464,-185 464,-165.75 502.5,-165.75 502.5,-185"/>
<text text-anchor="middle" x="483.25" y="-171.5" font-family="Helvetica,sans-Serif" font-size="10.00">utility</text>
</a>
</g>
</g>
<!-- Node2&#45;&gt;Node5 -->
<g id="edge4_Node000002_Node000005" class="edge">
<title>Node2&#45;&gt;Node5</title>
<g id="a_edge4_Node000002_Node000005"><a xlink:title=" ">
<path fill="none" stroke="#63b8ff" d="M413.7,-226.31C426.35,-217.23 446.18,-202.99 461.44,-192.04"/>
<polygon fill="#63b8ff" stroke="#63b8ff" points="463.37,-194.96 469.45,-186.28 459.28,-189.27 463.37,-194.96"/>
</a>
</g>
</g>
<!-- Node6 -->
<g id="Node000006" class="node">
<title>Node6</title>
<g id="a_Node000006"><a xlink:title=" ">
<polygon fill="#e0e0e0" stroke="#999999" points="603.62,-185 520.88,-185 520.88,-165.75 603.62,-165.75 603.62,-185"/>
<text text-anchor="middle" x="562.25" y="-171.5" font-family="Helvetica,sans-Serif" font-size="10.00">unordered_map</text>
</a>
</g>
</g>
<!-- Node2&#45;&gt;Node6 -->
<g id="edge5_Node000002_Node000006" class="edge">
<title>Node2&#45;&gt;Node6</title>
<g id="a_edge5_Node000002_Node000006"><a xlink:title=" ">
<path fill="none" stroke="#63b8ff" d="M426.05,-226.18C453,-216.33 496.28,-200.5 526.8,-189.34"/>
<polygon fill="#63b8ff" stroke="#63b8ff" points="527.81,-192.7 536,-185.98 525.4,-186.12 527.81,-192.7"/>
</a>
</g>
</g>
<!-- Node7 -->
<g id="Node000007" class="node">
<title>Node7</title>
<g id="a_Node000007"><a xlink:href="_style_8h.html" target="_top" xlink:title=" ">
<polygon fill="white" stroke="#666666" points="183.5,-185 79,-185 79,-165.75 183.5,-165.75 183.5,-185"/>
<text text-anchor="middle" x="131.25" y="-171.5" font-family="Helvetica,sans-Serif" font-size="10.00">sgui/Widgets/Style.h</text>
</a>
</g>
</g>
<!-- Node2&#45;&gt;Node7 -->
<g id="edge6_Node000002_Node000007" class="edge">
<title>Node2&#45;&gt;Node7</title>
<g id="a_edge6_Node000002_Node000007"><a xlink:title=" ">
<path fill="none" stroke="#63b8ff" d="M359.65,-226.18C312.48,-215.89 235.47,-199.1 184.09,-187.9"/>
<polygon fill="#63b8ff" stroke="#63b8ff" points="184.89,-184.49 174.37,-185.78 183.4,-191.33 184.89,-184.49"/>
</a>
</g>
</g>
<!-- Node10 -->
<g id="Node000010" class="node">
<title>Node10</title>
<g id="a_Node000010"><a xlink:href="_panel_8h.html" target="_top" xlink:title=" ">
<polygon fill="white" stroke="#666666" points="385,-185 277.5,-185 277.5,-165.75 385,-165.75 385,-185"/>
<text text-anchor="middle" x="331.25" y="-171.5" font-family="Helvetica,sans-Serif" font-size="10.00">sgui/Widgets/Panel.h</text>
</a>
</g>
</g>
<!-- Node2&#45;&gt;Node10 -->
<g id="edge10_Node000002_Node000010" class="edge">
<title>Node2&#45;&gt;Node10</title>
<g id="a_edge10_Node000002_Node000010"><a xlink:title=" ">
<path fill="none" stroke="#63b8ff" d="M390.62,-226.31C380.03,-217.4 363.54,-203.53 350.62,-192.67"/>
<polygon fill="#63b8ff" stroke="#63b8ff" points="353.05,-190.13 343.14,-186.38 348.54,-195.49 353.05,-190.13"/>
</a>
</g>
</g>
<!-- Node18 -->
<g id="Node000018" class="node">
<title>Node18</title>
<g id="a_Node000018"><a xlink:href="_layout_8tpp.html" target="_top" xlink:title=" ">
<polygon fill="white" stroke="#666666" points="753,-185 621.5,-185 621.5,-165.75 753,-165.75 753,-185"/>
<text text-anchor="middle" x="687.25" y="-171.5" font-family="Helvetica,sans-Serif" font-size="10.00">sgui/Resources/Layout.tpp</text>
</a>
</g>
</g>
<!-- Node2&#45;&gt;Node18 -->
<g id="edge22_Node000002_Node000018" class="edge">
<title>Node2&#45;&gt;Node18</title>
<g id="a_edge22_Node000002_Node000018"><a xlink:title=" ">
<path fill="none" stroke="#63b8ff" d="M445.31,-226.18C495.49,-215.85 577.54,-198.96 631.97,-187.76"/>
<polygon fill="#63b8ff" stroke="#63b8ff" points="632.57,-191.21 641.66,-185.76 631.16,-184.35 632.57,-191.21"/>
</a>
</g>
</g>
<!-- Node7&#45;&gt;Node3 -->
<g id="edge7_Node000007_Node000003" class="edge">
<title>Node7&#45;&gt;Node3</title>
<g id="a_edge7_Node000007_Node000003"><a xlink:title=" ">
<path fill="none" stroke="#63b8ff" d="M143.63,-165.34C154.4,-157.49 170.22,-145.95 183,-136.62"/>
<polygon fill="#63b8ff" stroke="#63b8ff" points="184.81,-139.64 190.83,-130.92 180.69,-133.98 184.81,-139.64"/>
</a>
</g>
</g>
<!-- Node8 -->
<g id="Node000008" class="node">
<title>Node8</title>
<g id="a_Node000008"><a xlink:title=" ">
<polygon fill="#e0e0e0" stroke="#999999" points="128.5,-129.75 0,-129.75 0,-110.5 128.5,-110.5 128.5,-129.75"/>
<text text-anchor="middle" x="64.25" y="-116.25" font-family="Helvetica,sans-Serif" font-size="10.00">SFML/Graphics/Color.hpp</text>
</a>
</g>
</g>
<!-- Node7&#45;&gt;Node8 -->
<g id="edge8_Node000007_Node000008" class="edge">
<title>Node7&#45;&gt;Node8</title>
<g id="a_edge8_Node000007_Node000008"><a xlink:title=" ">
<path fill="none" stroke="#63b8ff" d="M119.88,-165.34C110.2,-157.65 96.05,-146.4 84.44,-137.18"/>
<polygon fill="#63b8ff" stroke="#63b8ff" points="86.64,-134.45 76.63,-130.97 82.28,-139.93 86.64,-134.45"/>
</a>
</g>
</g>
<!-- Node9 -->
<g id="Node000009" class="node">
<title>Node9</title>
<g id="a_Node000009"><a xlink:title=" ">
<polygon fill="#e0e0e0" stroke="#999999" points="338.12,-19.25 204.38,-19.25 204.38,0 338.12,0 338.12,-19.25"/>
<text text-anchor="middle" x="271.25" y="-5.75" font-family="Helvetica,sans-Serif" font-size="10.00">SFML/System/Vector2.hpp</text>
</a>
</g>
</g>
<!-- Node7&#45;&gt;Node9 -->
<g id="edge9_Node000007_Node000009" class="edge">
<title>Node7&#45;&gt;Node9</title>
<g id="a_edge9_Node000007_Node000009"><a xlink:title=" ">
<path fill="none" stroke="#63b8ff" d="M136.79,-165.37C144.74,-152.7 160.1,-129.07 175.25,-110.5 200.57,-79.47 233.56,-46.56 253.54,-27.33"/>
<polygon fill="#63b8ff" stroke="#63b8ff" points="255.81,-30 260.63,-20.57 250.98,-24.94 255.81,-30"/>
</a>
</g>
</g>
<!-- Node10&#45;&gt;Node3 -->
<g id="edge11_Node000010_Node000003" class="edge">
<title>Node10&#45;&gt;Node3</title>
<g id="a_edge11_Node000010_Node000003"><a xlink:title=" ">
<path fill="none" stroke="#63b8ff" d="M309.71,-165.34C289.18,-156.73 258.06,-143.69 234.95,-134"/>
<polygon fill="#63b8ff" stroke="#63b8ff" points="236.61,-130.9 226.03,-130.26 233.9,-137.35 236.61,-130.9"/>
</a>
</g>
</g>
<!-- Node10&#45;&gt;Node9 -->
<g id="edge13_Node000010_Node000009" class="edge">
<title>Node10&#45;&gt;Node9</title>
<g id="a_edge13_Node000010_Node000009"><a xlink:title=" ">
<path fill="none" stroke="#63b8ff" d="M310.78,-165.35C296.84,-157.98 279.47,-146.11 271.25,-129.75 255.36,-98.12 260.72,-55.53 266.01,-30.78"/>
<polygon fill="#63b8ff" stroke="#63b8ff" points="269.41,-31.63 268.32,-21.09 262.6,-30.01 269.41,-31.63"/>
</a>
</g>
</g>
<!-- Node11 -->
<g id="Node000011" class="node">
<title>Node11</title>
<g id="a_Node000011"><a xlink:title=" ">
<polygon fill="#e0e0e0" stroke="#999999" points="472.25,-129.75 414.25,-129.75 414.25,-110.5 472.25,-110.5 472.25,-129.75"/>
<text text-anchor="middle" x="443.25" y="-116.25" font-family="Helvetica,sans-Serif" font-size="10.00">functional</text>
</a>
</g>
</g>
<!-- Node10&#45;&gt;Node11 -->
<g id="edge12_Node000010_Node000011" class="edge">
<title>Node10&#45;&gt;Node11</title>
<g id="a_edge12_Node000010_Node000011"><a xlink:title=" ">
<path fill="none" stroke="#63b8ff" d="M350.25,-165.34C367.71,-157.04 393.85,-144.61 413.97,-135.04"/>
<polygon fill="#63b8ff" stroke="#63b8ff" points="415.26,-138.31 422.79,-130.85 412.26,-131.99 415.26,-138.31"/>
</a>
</g>
</g>
<!-- Node12 -->
<g id="Node000012" class="node">
<title>Node12</title>
<g id="a_Node000012"><a xlink:title=" ">
<polygon fill="#e0e0e0" stroke="#999999" points="616.38,-129.75 490.12,-129.75 490.12,-110.5 616.38,-110.5 616.38,-129.75"/>
<text text-anchor="middle" x="553.25" y="-116.25" font-family="Helvetica,sans-Serif" font-size="10.00">SFML/Graphics/Rect.hpp</text>
</a>
</g>
</g>
<!-- Node10&#45;&gt;Node12 -->
<g id="edge14_Node000010_Node000012" class="edge">
<title>Node10&#45;&gt;Node12</title>
<g id="a_edge14_Node000010_Node000012"><a xlink:title=" ">
<path fill="none" stroke="#63b8ff" d="M369.16,-165.28C406.52,-156.32 463.75,-142.59 504.48,-132.82"/>
<polygon fill="#63b8ff" stroke="#63b8ff" points="505.12,-136.27 514.02,-130.53 503.48,-129.46 505.12,-136.27"/>
</a>
</g>
</g>
<!-- Node13 -->
<g id="Node000013" class="node">
<title>Node13</title>
<g id="a_Node000013"><a xlink:href="_options_8h.html" target="_top" xlink:title=" ">
<polygon fill="white" stroke="#666666" points="396.5,-129.75 280,-129.75 280,-110.5 396.5,-110.5 396.5,-129.75"/>
<text text-anchor="middle" x="338.25" y="-116.25" font-family="Helvetica,sans-Serif" font-size="10.00">sgui/Widgets/Options.h</text>
</a>
</g>
</g>
<!-- Node10&#45;&gt;Node13 -->
<g id="edge15_Node000010_Node000013" class="edge">
<title>Node10&#45;&gt;Node13</title>
<g id="a_edge15_Node000010_Node000013"><a xlink:title=" ">
<path fill="none" stroke="#63b8ff" d="M332.41,-165.58C333.27,-158.99 334.49,-149.71 335.59,-141.32"/>
<polygon fill="#63b8ff" stroke="#63b8ff" points="339.04,-141.98 336.87,-131.61 332.1,-141.07 339.04,-141.98"/>
</a>
</g>
</g>
<!-- Node13&#45;&gt;Node9 -->
<g id="edge16_Node000013_Node000009" class="edge">
<title>Node13&#45;&gt;Node9</title>
<g id="a_edge16_Node000013_Node000009"><a xlink:title=" ">
<path fill="none" stroke="#63b8ff" d="M332.37,-110.3C326.43,-101.35 317.06,-87.05 309.25,-74.5 299.87,-59.42 289.59,-42.08 282.09,-29.28"/>
<polygon fill="#63b8ff" stroke="#63b8ff" points="285.13,-27.55 277.07,-20.68 279.08,-31.08 285.13,-27.55"/>
</a>
</g>
</g>
<!-- Node14 -->
<g id="Node000014" class="node">
<title>Node14</title>
<g id="a_Node000014"><a xlink:href="_constraints_8h.html" target="_top" xlink:title=" ">
<polygon fill="white" stroke="#666666" points="450.38,-74.5 318.12,-74.5 318.12,-55.25 450.38,-55.25 450.38,-74.5"/>
<text text-anchor="middle" x="384.25" y="-61" font-family="Helvetica,sans-Serif" font-size="10.00">sgui/Widgets/Constraints.h</text>
</a>
</g>
</g>
<!-- Node13&#45;&gt;Node14 -->
<g id="edge17_Node000013_Node000014" class="edge">
<title>Node13&#45;&gt;Node14</title>
<g id="a_edge17_Node000013_Node000014"><a xlink:title=" ">
<path fill="none" stroke="#63b8ff" d="M345.85,-110.33C352.13,-103.05 361.26,-92.48 369.05,-83.48"/>
<polygon fill="#63b8ff" stroke="#63b8ff" points="371.61,-85.86 375.5,-76 366.31,-81.28 371.61,-85.86"/>
</a>
</g>
</g>
<!-- Node15 -->
<g id="Node000015" class="node">
<title>Node15</title>
<g id="a_Node000015"><a xlink:href="_aspect_8h.html" target="_top" xlink:title=" ">
<polygon fill="white" stroke="#666666" points="582,-74.5 468.5,-74.5 468.5,-55.25 582,-55.25 582,-74.5"/>
<text text-anchor="middle" x="525.25" y="-61" font-family="Helvetica,sans-Serif" font-size="10.00">sgui/Widgets/Aspect.h</text>
</a>
</g>
</g>
<!-- Node13&#45;&gt;Node15 -->
<g id="edge19_Node000013_Node000015" class="edge">
<title>Node13&#45;&gt;Node15</title>
<g id="a_edge19_Node000013_Node000015"><a xlink:title=" ">
<path fill="none" stroke="#63b8ff" d="M369.97,-110.09C401,-101.26 448.46,-87.74 482.74,-77.98"/>
<polygon fill="#63b8ff" stroke="#63b8ff" points="483.26,-81.47 491.92,-75.37 481.34,-74.74 483.26,-81.47"/>
</a>
</g>
</g>
<!-- Node14&#45;&gt;Node9 -->
<g id="edge18_Node000014_Node000009" class="edge">
<title>Node14&#45;&gt;Node9</title>
<g id="a_edge18_Node000014_Node000009"><a xlink:title=" ">
<path fill="none" stroke="#63b8ff" d="M365.08,-54.84C347.47,-46.54 321.09,-34.11 300.79,-24.54"/>
<polygon fill="#63b8ff" stroke="#63b8ff" points="302.42,-21.44 291.88,-20.35 299.44,-27.78 302.42,-21.44"/>
</a>
</g>
</g>
<!-- Node16 -->
<g id="Node000016" class="node">
<title>Node16</title>
<g id="a_Node000016"><a xlink:href="_widgets_8h.html" target="_top" xlink:title=" ">
<polygon fill="white" stroke="#666666" points="529.25,-19.25 411.25,-19.25 411.25,0 529.25,0 529.25,-19.25"/>
<text text-anchor="middle" x="470.25" y="-5.75" font-family="Helvetica,sans-Serif" font-size="10.00">sgui/Widgets/Widgets.h</text>
</a>
</g>
</g>
<!-- Node15&#45;&gt;Node16 -->
<g id="edge20_Node000015_Node000016" class="edge">
<title>Node15&#45;&gt;Node16</title>
<g id="a_edge20_Node000015_Node000016"><a xlink:title=" ">
<path fill="none" stroke="#63b8ff" d="M516.17,-55.08C508.41,-47.57 497.04,-36.56 487.55,-27.38"/>
<polygon fill="#63b8ff" stroke="#63b8ff" points="490.24,-25.1 480.62,-20.66 485.37,-30.13 490.24,-25.1"/>
</a>
</g>
</g>
<!-- Node17 -->
<g id="Node000017" class="node">
<title>Node17</title>
<g id="a_Node000017"><a xlink:href="_item_states_8h.html" target="_top" xlink:title=" ">
<polygon fill="white" stroke="#666666" points="677.62,-19.25 546.88,-19.25 546.88,0 677.62,0 677.62,-19.25"/>
<text text-anchor="middle" x="612.25" y="-5.75" font-family="Helvetica,sans-Serif" font-size="10.00">sgui/Widgets/ItemStates.h</text>
</a>
</g>
</g>
<!-- Node15&#45;&gt;Node17 -->
<g id="edge21_Node000015_Node000017" class="edge">
<title>Node15&#45;&gt;Node17</title>
<g id="a_edge21_Node000015_Node000017"><a xlink:title=" ">
<path fill="none" stroke="#63b8ff" d="M540.01,-54.84C553.13,-46.81 572.57,-34.91 587.98,-25.48"/>
<polygon fill="#63b8ff" stroke="#63b8ff" points="589.43,-28.7 596.13,-20.49 585.77,-22.73 589.43,-28.7"/>
</a>
</g>
</g>
<!-- Node19&#45;&gt;Node3 -->
<g id="edge24_Node000019_Node000003" class="edge">
<title>Node19&#45;&gt;Node3</title>
<g id="a_edge24_Node000019_Node000003"><a xlink:title=" ">
<path fill="none" stroke="#63b8ff" d="M248.79,-220.8C239.71,-200.47 223.13,-163.38 212.96,-140.62"/>
<polygon fill="#63b8ff" stroke="#63b8ff" points="216.2,-139.28 208.92,-131.58 209.81,-142.14 216.2,-139.28"/>
</a>
</g>
</g>
</g>
</svg>
