<?xml version="1.0" encoding="UTF-8" standalone="no"?>
<!DOCTYPE svg PUBLIC "-//W3C//DTD SVG 1.1//EN"
 "http://www.w3.org/Graphics/SVG/1.1/DTD/svg11.dtd">
<!-- Generated by graphviz version 12.2.1 (20241206.2353)
 -->
<!-- Title: /github/workspace/src/sgui/Resources/Layout.cpp Pages: 1 -->
<svg width="699pt" height="326pt"
 viewBox="0.00 0.00 698.57 326.00" xmlns="http://www.w3.org/2000/svg" xmlns:xlink="http://www.w3.org/1999/xlink">
<g id="graph0" class="graph" transform="scale(1 1) rotate(0) translate(4 322)">
<title>/github/workspace/src/sgui/Resources/Layout.cpp</title>
<!-- Node1 -->
<g id="Node000001" class="node">
<title>Node1</title>
<g id="a_Node000001"><a xlink:title=" ">
<polygon fill="#999999" stroke="#666666" points="556.62,-318 419.88,-318 419.88,-287.5 556.62,-287.5 556.62,-318"/>
<text text-anchor="start" x="427.88" y="-304.5" font-family="Helvetica,sans-Serif" font-size="10.00">/github/workspace/src</text>
<text text-anchor="middle" x="488.25" y="-293.25" font-family="Helvetica,sans-Serif" font-size="10.00">/sgui/Resources/Layout.cpp</text>
</a>
</g>
</g>
<!-- Node2 -->
<g id="Node000002" class="node">
<title>Node2</title>
<g id="a_Node000002"><a xlink:href="_layout_8h.html" target="_top" xlink:title=" ">
<polygon fill="white" stroke="#666666" points="487.88,-245.88 364.62,-245.88 364.62,-226.62 487.88,-226.62 487.88,-245.88"/>
<text text-anchor="middle" x="426.25" y="-232.38" font-family="Helvetica,sans-Serif" font-size="10.00">sgui/Resources/Layout.h</text>
</a>
</g>
</g>
<!-- Node1&#45;&gt;Node2 -->
<g id="edge1_Node000001_Node000002" class="edge">
<title>Node1&#45;&gt;Node2</title>
<g id="a_edge1_Node000001_Node000002"><a xlink:title=" ">
<path fill="none" stroke="#63b8ff" d="M474.18,-287.11C464.79,-277.34 452.4,-264.45 442.57,-254.23"/>
<polygon fill="#63b8ff" stroke="#63b8ff" points="445.23,-251.95 435.78,-247.16 440.19,-256.8 445.23,-251.95"/>
</a>
</g>
</g>
<!-- Node19 -->
<g id="Node000019" class="node">
<title>Node19</title>
<g id="a_Node000019"><a xlink:href="_load_layout_8h.html" target="_top" xlink:title=" ">
<polygon fill="white" stroke="#666666" points="673,-251.5 583.5,-251.5 583.5,-221 673,-221 673,-251.5"/>
<text text-anchor="start" x="591.5" y="-238" font-family="Helvetica,sans-Serif" font-size="10.00">sgui/Serialization</text>
<text text-anchor="middle" x="628.25" y="-226.75" font-family="Helvetica,sans-Serif" font-size="10.00">/LoadLayout.h</text>
</a>
</g>
</g>
<!-- Node1&#45;&gt;Node19 -->
<g id="edge22_Node000001_Node000019" class="edge">
<title>Node1&#45;&gt;Node19</title>
<g id="a_edge22_Node000001_Node000019"><a xlink:title=" ">
<path fill="none" stroke="#63b8ff" d="M520.02,-287.11C539.62,-278.08 564.99,-266.4 586.24,-256.61"/>
<polygon fill="#63b8ff" stroke="#63b8ff" points="587.62,-259.82 595.23,-252.46 584.69,-253.47 587.62,-259.82"/>
</a>
</g>
</g>
<!-- Node3 -->
<g id="Node000003" class="node">
<title>Node3</title>
<g id="a_Node000003"><a xlink:title=" ">
<polygon fill="#e0e0e0" stroke="#999999" points="622.25,-19.25 582.25,-19.25 582.25,0 622.25,0 622.25,-19.25"/>
<text text-anchor="middle" x="602.25" y="-5.75" font-family="Helvetica,sans-Serif" font-size="10.00">string</text>
</a>
</g>
</g>
<!-- Node2&#45;&gt;Node3 -->
<g id="edge2_Node000002_Node000003" class="edge">
<title>Node2&#45;&gt;Node3</title>
<g id="a_edge2_Node000002_Node000003"><a xlink:title=" ">
<path fill="none" stroke="#63b8ff" d="M488.3,-226.87C516.76,-220.02 548.85,-207.58 570.25,-185 610.41,-142.62 608.62,-67.29 605,-31.12"/>
<polygon fill="#63b8ff" stroke="#63b8ff" points="608.48,-30.73 603.84,-21.21 601.53,-31.55 608.48,-30.73"/>
</a>
</g>
</g>
<!-- Node4 -->
<g id="Node000004" class="node">
<title>Node4</title>
<g id="a_Node000004"><a xlink:title=" ">
<polygon fill="#e0e0e0" stroke="#999999" points="678.75,-185 635.75,-185 635.75,-165.75 678.75,-165.75 678.75,-185"/>
<text text-anchor="middle" x="657.25" y="-171.5" font-family="Helvetica,sans-Serif" font-size="10.00">vector</text>
</a>
</g>
</g>
<!-- Node2&#45;&gt;Node4 -->
<g id="edge3_Node000002_Node000004" class="edge">
<title>Node2&#45;&gt;Node4</title>
<g id="a_edge3_Node000002_Node000004"><a xlink:title=" ">
<path fill="none" stroke="#63b8ff" d="M461.84,-226.18C506.24,-214.86 581.54,-195.67 624.55,-184.71"/>
<polygon fill="#63b8ff" stroke="#63b8ff" points="625.22,-188.15 634.05,-182.29 623.5,-181.37 625.22,-188.15"/>
</a>
</g>
</g>
<!-- Node5 -->
<g id="Node000005" class="node">
<title>Node5</title>
<g id="a_Node000005"><a xlink:title=" ">
<polygon fill="#e0e0e0" stroke="#999999" points="57.5,-185 19,-185 19,-165.75 57.5,-165.75 57.5,-185"/>
<text text-anchor="middle" x="38.25" y="-171.5" font-family="Helvetica,sans-Serif" font-size="10.00">utility</text>
</a>
</g>
</g>
<!-- Node2&#45;&gt;Node5 -->
<g id="edge4_Node000002_Node000005" class="edge">
<title>Node2&#45;&gt;Node5</title>
<g id="a_edge4_Node000002_Node000005"><a xlink:title=" ">
<path fill="none" stroke="#63b8ff" d="M364.13,-229.42C294.55,-222.24 178.3,-208.36 69.03,-185.06"/>
<polygon fill="#63b8ff" stroke="#63b8ff" points="69.8,-181.64 59.28,-182.94 68.31,-188.48 69.8,-181.64"/>
</a>
</g>
</g>
<!-- Node6 -->
<g id="Node000006" class="node">
<title>Node6</title>
<g id="a_Node000006"><a xlink:title=" ">
<polygon fill="#e0e0e0" stroke="#999999" points="158.62,-185 75.88,-185 75.88,-165.75 158.62,-165.75 158.62,-185"/>
<text text-anchor="middle" x="117.25" y="-171.5" font-family="Helvetica,sans-Serif" font-size="10.00">unordered_map</text>
</a>
</g>
</g>
<!-- Node2&#45;&gt;Node6 -->
<g id="edge5_Node000002_Node000006" class="edge">
<title>Node2&#45;&gt;Node6</title>
<g id="a_edge5_Node000002_Node000006"><a xlink:title=" ">
<path fill="none" stroke="#63b8ff" d="M378.65,-226.18C322.3,-215.44 228.76,-197.62 170.19,-186.46"/>
<polygon fill="#63b8ff" stroke="#63b8ff" points="170.92,-183.04 160.45,-184.61 169.61,-189.92 170.92,-183.04"/>
</a>
</g>
</g>
<!-- Node7 -->
<g id="Node000007" class="node">
<title>Node7</title>
<g id="a_Node000007"><a xlink:href="_style_8h.html" target="_top" xlink:title=" ">
<polygon fill="white" stroke="#666666" points="251.5,-74.5 147,-74.5 147,-55.25 251.5,-55.25 251.5,-74.5"/>
<text text-anchor="middle" x="199.25" y="-61" font-family="Helvetica,sans-Serif" font-size="10.00">sgui/Widgets/Style.h</text>
</a>
</g>
</g>
<!-- Node2&#45;&gt;Node7 -->
<g id="edge6_Node000002_Node000007" class="edge">
<title>Node2&#45;&gt;Node7</title>
<g id="a_edge6_Node000002_Node000007"><a xlink:title=" ">
<path fill="none" stroke="#63b8ff" d="M370.94,-226.16C317.95,-214.17 240.95,-187.4 205.25,-129.75 197.25,-116.83 196.07,-99.55 196.72,-86.21"/>
<polygon fill="#63b8ff" stroke="#63b8ff" points="200.19,-86.69 197.6,-76.42 193.22,-86.07 200.19,-86.69"/>
</a>
</g>
</g>
<!-- Node10 -->
<g id="Node000010" class="node">
<title>Node10</title>
<g id="a_Node000010"><a xlink:href="_panel_8h.html" target="_top" xlink:title=" ">
<polygon fill="white" stroke="#666666" points="411,-185 303.5,-185 303.5,-165.75 411,-165.75 411,-185"/>
<text text-anchor="middle" x="357.25" y="-171.5" font-family="Helvetica,sans-Serif" font-size="10.00">sgui/Widgets/Panel.h</text>
</a>
</g>
</g>
<!-- Node2&#45;&gt;Node10 -->
<g id="edge10_Node000002_Node000010" class="edge">
<title>Node2&#45;&gt;Node10</title>
<g id="a_edge10_Node000002_Node000010"><a xlink:title=" ">
<path fill="none" stroke="#63b8ff" d="M415.77,-226.31C405.33,-217.4 389.08,-203.53 376.34,-192.67"/>
<polygon fill="#63b8ff" stroke="#63b8ff" points="378.86,-190.21 368.98,-186.38 374.31,-195.54 378.86,-190.21"/>
</a>
</g>
</g>
<!-- Node18 -->
<g id="Node000018" class="node">
<title>Node18</title>
<g id="a_Node000018"><a xlink:href="_layout_8tpp.html" target="_top" xlink:title=" ">
<polygon fill="white" stroke="#666666" points="561,-185 429.5,-185 429.5,-165.75 561,-165.75 561,-185"/>
<text text-anchor="middle" x="495.25" y="-171.5" font-family="Helvetica,sans-Serif" font-size="10.00">sgui/Resources/Layout.tpp</text>
</a>
</g>
</g>
<!-- Node2&#45;&gt;Node18 -->
<g id="edge21_Node000002_Node000018" class="edge">
<title>Node2&#45;&gt;Node18</title>
<g id="a_edge21_Node000002_Node000018"><a xlink:title=" ">
<path fill="none" stroke="#63b8ff" d="M436.73,-226.31C447.17,-217.4 463.42,-203.53 476.16,-192.67"/>
<polygon fill="#63b8ff" stroke="#63b8ff" points="478.19,-195.54 483.52,-186.38 473.64,-190.21 478.19,-195.54"/>
</a>
</g>
</g>
<!-- Node7&#45;&gt;Node3 -->
<g id="edge7_Node000007_Node000003" class="edge">
<title>Node7&#45;&gt;Node3</title>
<g id="a_edge7_Node000007_Node000003"><a xlink:title=" ">
<path fill="none" stroke="#63b8ff" d="M251.91,-57.04C256.76,-56.43 261.59,-55.82 266.25,-55.25 399.01,-38.92 436.72,-46.51 570.67,-19.47"/>
<polygon fill="#63b8ff" stroke="#63b8ff" points="571.19,-22.93 580.28,-17.5 569.78,-16.08 571.19,-22.93"/>
</a>
</g>
</g>
<!-- Node8 -->
<g id="Node000008" class="node">
<title>Node8</title>
<g id="a_Node000008"><a xlink:title=" ">
<polygon fill="#e0e0e0" stroke="#999999" points="128.5,-19.25 0,-19.25 0,0 128.5,0 128.5,-19.25"/>
<text text-anchor="middle" x="64.25" y="-5.75" font-family="Helvetica,sans-Serif" font-size="10.00">SFML/Graphics/Color.hpp</text>
</a>
</g>
</g>
<!-- Node7&#45;&gt;Node8 -->
<g id="edge8_Node000007_Node000008" class="edge">
<title>Node7&#45;&gt;Node8</title>
<g id="a_edge8_Node000007_Node000008"><a xlink:title=" ">
<path fill="none" stroke="#63b8ff" d="M176.35,-54.84C154.82,-46.35 122.34,-33.54 97.87,-23.89"/>
<polygon fill="#63b8ff" stroke="#63b8ff" points="99.26,-20.67 88.67,-20.26 96.69,-27.18 99.26,-20.67"/>
</a>
</g>
</g>
<!-- Node9 -->
<g id="Node000009" class="node">
<title>Node9</title>
<g id="a_Node000009"><a xlink:title=" ">
<polygon fill="#e0e0e0" stroke="#999999" points="280.12,-19.25 146.38,-19.25 146.38,0 280.12,0 280.12,-19.25"/>
<text text-anchor="middle" x="213.25" y="-5.75" font-family="Helvetica,sans-Serif" font-size="10.00">SFML/System/Vector2.hpp</text>
</a>
</g>
</g>
<!-- Node7&#45;&gt;Node9 -->
<g id="edge9_Node000007_Node000009" class="edge">
<title>Node7&#45;&gt;Node9</title>
<g id="a_edge9_Node000007_Node000009"><a xlink:title=" ">
<path fill="none" stroke="#63b8ff" d="M201.56,-55.08C203.31,-48.42 205.79,-38.99 208.02,-30.53"/>
<polygon fill="#63b8ff" stroke="#63b8ff" points="211.35,-31.63 210.5,-21.07 204.58,-29.85 211.35,-31.63"/>
</a>
</g>
</g>
<!-- Node10&#45;&gt;Node3 -->
<g id="edge11_Node000010_Node000003" class="edge">
<title>Node10&#45;&gt;Node3</title>
<g id="a_edge11_Node000010_Node000003"><a xlink:title=" ">
<path fill="none" stroke="#63b8ff" d="M410.95,-165.26C466.93,-155.34 548.09,-139.56 559.25,-129.75 588.21,-104.31 597.67,-57.85 600.76,-31.08"/>
<polygon fill="#63b8ff" stroke="#63b8ff" points="604.23,-31.5 601.68,-21.22 597.26,-30.85 604.23,-31.5"/>
</a>
</g>
</g>
<!-- Node11 -->
<g id="Node000011" class="node">
<title>Node11</title>
<g id="a_Node000011"><a xlink:title=" ">
<polygon fill="#e0e0e0" stroke="#999999" points="272.25,-129.75 214.25,-129.75 214.25,-110.5 272.25,-110.5 272.25,-129.75"/>
<text text-anchor="middle" x="243.25" y="-116.25" font-family="Helvetica,sans-Serif" font-size="10.00">functional</text>
</a>
</g>
</g>
<!-- Node10&#45;&gt;Node11 -->
<g id="edge12_Node000010_Node000011" class="edge">
<title>Node10&#45;&gt;Node11</title>
<g id="a_edge12_Node000010_Node000011"><a xlink:title=" ">
<path fill="none" stroke="#63b8ff" d="M337.91,-165.34C320.14,-157.04 293.53,-144.61 273.05,-135.04"/>
<polygon fill="#63b8ff" stroke="#63b8ff" points="274.6,-131.9 264.05,-130.84 271.63,-138.25 274.6,-131.9"/>
</a>
</g>
</g>
<!-- Node12 -->
<g id="Node000012" class="node">
<title>Node12</title>
<g id="a_Node000012"><a xlink:title=" ">
<polygon fill="#e0e0e0" stroke="#999999" points="550.38,-129.75 424.12,-129.75 424.12,-110.5 550.38,-110.5 550.38,-129.75"/>
<text text-anchor="middle" x="487.25" y="-116.25" font-family="Helvetica,sans-Serif" font-size="10.00">SFML/Graphics/Rect.hpp</text>
</a>
</g>
</g>
<!-- Node10&#45;&gt;Node12 -->
<g id="edge13_Node000010_Node000012" class="edge">
<title>Node10&#45;&gt;Node12</title>
<g id="a_edge13_Node000010_Node000012"><a xlink:title=" ">
<path fill="none" stroke="#63b8ff" d="M379.3,-165.34C399.94,-156.89 431.03,-144.15 454.55,-134.52"/>
<polygon fill="#63b8ff" stroke="#63b8ff" points="455.76,-137.81 463.69,-130.78 453.11,-131.33 455.76,-137.81"/>
</a>
</g>
</g>
<!-- Node13 -->
<g id="Node000013" class="node">
<title>Node13</title>
<g id="a_Node000013"><a xlink:href="_options_8h.html" target="_top" xlink:title=" ">
<polygon fill="white" stroke="#666666" points="406.5,-129.75 290,-129.75 290,-110.5 406.5,-110.5 406.5,-129.75"/>
<text text-anchor="middle" x="348.25" y="-116.25" font-family="Helvetica,sans-Serif" font-size="10.00">sgui/Widgets/Options.h</text>
</a>
</g>
</g>
<!-- Node10&#45;&gt;Node13 -->
<g id="edge14_Node000010_Node000013" class="edge">
<title>Node10&#45;&gt;Node13</title>
<g id="a_edge14_Node000010_Node000013"><a xlink:title=" ">
<path fill="none" stroke="#63b8ff" d="M355.76,-165.58C354.65,-158.99 353.08,-149.71 351.66,-141.32"/>
<polygon fill="#63b8ff" stroke="#63b8ff" points="355.14,-140.88 350.02,-131.6 348.24,-142.05 355.14,-140.88"/>
</a>
</g>
</g>
<!-- Node14 -->
<g id="Node000014" class="node">
<title>Node14</title>
<g id="a_Node000014"><a xlink:href="_constraints_8h.html" target="_top" xlink:title=" ">
<polygon fill="white" stroke="#666666" points="407.38,-74.5 275.12,-74.5 275.12,-55.25 407.38,-55.25 407.38,-74.5"/>
<text text-anchor="middle" x="341.25" y="-61" font-family="Helvetica,sans-Serif" font-size="10.00">sgui/Widgets/Constraints.h</text>
</a>
</g>
</g>
<!-- Node13&#45;&gt;Node14 -->
<g id="edge15_Node000013_Node000014" class="edge">
<title>Node13&#45;&gt;Node14</title>
<g id="a_edge15_Node000013_Node000014"><a xlink:title=" ">
<path fill="none" stroke="#63b8ff" d="M347.09,-110.33C346.23,-103.74 345.01,-94.46 343.91,-86.07"/>
<polygon fill="#63b8ff" stroke="#63b8ff" points="347.4,-85.82 342.63,-76.36 340.46,-86.73 347.4,-85.82"/>
</a>
</g>
</g>
<!-- Node15 -->
<g id="Node000015" class="node">
<title>Node15</title>
<g id="a_Node000015"><a xlink:href="_aspect_8h.html" target="_top" xlink:title=" ">
<polygon fill="white" stroke="#666666" points="544,-74.5 430.5,-74.5 430.5,-55.25 544,-55.25 544,-74.5"/>
<text text-anchor="middle" x="487.25" y="-61" font-family="Helvetica,sans-Serif" font-size="10.00">sgui/Widgets/Aspect.h</text>
</a>
</g>
</g>
<!-- Node13&#45;&gt;Node15 -->
<g id="edge17_Node000013_Node000015" class="edge">
<title>Node13&#45;&gt;Node15</title>
<g id="a_edge17_Node000013_Node000015"><a xlink:title=" ">
<path fill="none" stroke="#63b8ff" d="M371.83,-110.09C394.09,-101.56 427.74,-88.67 452.97,-79.01"/>
<polygon fill="#63b8ff" stroke="#63b8ff" points="454.06,-82.34 462.14,-75.49 451.55,-75.8 454.06,-82.34"/>
</a>
</g>
</g>
<!-- Node14&#45;&gt;Node9 -->
<g id="edge16_Node000014_Node000009" class="edge">
<title>Node14&#45;&gt;Node9</title>
<g id="a_edge16_Node000014_Node000009"><a xlink:title=" ">
<path fill="none" stroke="#63b8ff" d="M319.54,-54.84C299.22,-46.39 268.6,-33.65 245.44,-24.02"/>
<polygon fill="#63b8ff" stroke="#63b8ff" points="247.04,-20.89 236.47,-20.28 244.36,-27.36 247.04,-20.89"/>
</a>
</g>
</g>
<!-- Node15&#45;&gt;Node3 -->
<g id="edge18_Node000015_Node000003" class="edge">
<title>Node15&#45;&gt;Node3</title>
<g id="a_edge18_Node000015_Node000003"><a xlink:title=" ">
<path fill="none" stroke="#63b8ff" d="M506.76,-54.84C524.77,-46.5 551.77,-34 572.48,-24.41"/>
<polygon fill="#63b8ff" stroke="#63b8ff" points="573.67,-27.72 581.27,-20.34 570.73,-21.36 573.67,-27.72"/>
</a>
</g>
</g>
<!-- Node16 -->
<g id="Node000016" class="node">
<title>Node16</title>
<g id="a_Node000016"><a xlink:href="_widgets_8h.html" target="_top" xlink:title=" ">
<polygon fill="white" stroke="#666666" points="564.25,-19.25 446.25,-19.25 446.25,0 564.25,0 564.25,-19.25"/>
<text text-anchor="middle" x="505.25" y="-5.75" font-family="Helvetica,sans-Serif" font-size="10.00">sgui/Widgets/Widgets.h</text>
</a>
</g>
</g>
<!-- Node15&#45;&gt;Node16 -->
<g id="edge19_Node000015_Node000016" class="edge">
<title>Node15&#45;&gt;Node16</title>
<g id="a_edge19_Node000015_Node000016"><a xlink:title=" ">
<path fill="none" stroke="#63b8ff" d="M490.22,-55.08C492.5,-48.34 495.74,-38.77 498.62,-30.24"/>
<polygon fill="#63b8ff" stroke="#63b8ff" points="501.84,-31.64 501.73,-21.04 495.21,-29.4 501.84,-31.64"/>
</a>
</g>
</g>
<!-- Node17 -->
<g id="Node000017" class="node">
<title>Node17</title>
<g id="a_Node000017"><a xlink:href="_item_states_8h.html" target="_top" xlink:title=" ">
<polygon fill="white" stroke="#666666" points="428.62,-19.25 297.88,-19.25 297.88,0 428.62,0 428.62,-19.25"/>
<text text-anchor="middle" x="363.25" y="-5.75" font-family="Helvetica,sans-Serif" font-size="10.00">sgui/Widgets/ItemStates.h</text>
</a>
</g>
</g>
<!-- Node15&#45;&gt;Node17 -->
<g id="edge20_Node000015_Node000017" class="edge">
<title>Node15&#45;&gt;Node17</title>
<g id="a_edge20_Node000015_Node000017"><a xlink:title=" ">
<path fill="none" stroke="#63b8ff" d="M466.22,-54.84C446.62,-46.43 417.14,-33.77 394.74,-24.15"/>
<polygon fill="#63b8ff" stroke="#63b8ff" points="396.35,-21.03 385.78,-20.3 393.59,-27.46 396.35,-21.03"/>
</a>
</g>
</g>
<!-- Node19&#45;&gt;Node3 -->
<g id="edge23_Node000019_Node000003" class="edge">
<title>Node19&#45;&gt;Node3</title>
<g id="a_edge23_Node000019_Node000003"><a xlink:title=" ">
<path fill="none" stroke="#63b8ff" d="M654.59,-220.71C667.28,-212.14 681.24,-200.02 688.25,-185 691.87,-177.25 690.3,-174.06 688.25,-165.75 674.86,-111.43 637.16,-56.08 616.4,-28.52"/>
<polygon fill="#63b8ff" stroke="#63b8ff" points="619.39,-26.67 610.52,-20.88 613.84,-30.94 619.39,-26.67"/>
</a>
</g>
</g>
</g>
</svg>
