<?xml version="1.0" encoding="UTF-8" standalone="no"?>
<!DOCTYPE svg PUBLIC "-//W3C//DTD SVG 1.1//EN"
 "http://www.w3.org/Graphics/SVG/1.1/DTD/svg11.dtd">
<!-- Generated by graphviz version 12.2.1 (20241206.2353)
 -->
<!-- Title: /github/workspace/src/sgui/Resources/Layout.h Pages: 1 -->
<svg width="1032pt" height="260pt"
 viewBox="0.00 0.00 1031.75 259.50" xmlns="http://www.w3.org/2000/svg" xmlns:xlink="http://www.w3.org/1999/xlink">
<g id="graph0" class="graph" transform="scale(1 1) rotate(0) translate(4 255.5)">
<title>/github/workspace/src/sgui/Resources/Layout.h</title>
<!-- Node1 -->
<g id="Node000001" class="node">
<title>Node1</title>
<g id="a_Node000001"><a xlink:title=" ">
<polygon fill="#999999" stroke="#666666" points="758.12,-251.5 631.88,-251.5 631.88,-221 758.12,-221 758.12,-251.5"/>
<text text-anchor="start" x="639.88" y="-238" font-family="Helvetica,sans-Serif" font-size="10.00">/github/workspace/src</text>
<text text-anchor="middle" x="695" y="-226.75" font-family="Helvetica,sans-Serif" font-size="10.00">/sgui/Resources/Layout.h</text>
</a>
</g>
</g>
<!-- Node2 -->
<g id="Node000002" class="node">
<title>Node2</title>
<g id="a_Node000002"><a xlink:title=" ">
<polygon fill="#e0e0e0" stroke="#999999" points="377,-19.25 337,-19.25 337,0 377,0 377,-19.25"/>
<text text-anchor="middle" x="357" y="-5.75" font-family="Helvetica,sans-Serif" font-size="10.00">string</text>
</a>
</g>
</g>
<!-- Node1&#45;&gt;Node2 -->
<g id="edge1_Node000001_Node000002" class="edge">
<title>Node1&#45;&gt;Node2</title>
<g id="a_edge1_Node000001_Node000002"><a xlink:title=" ">
<path fill="none" stroke="#63b8ff" d="M631.6,-230.38C516.92,-220.11 282.38,-191.85 234,-129.75 200.17,-86.33 279.62,-43.4 326.18,-22.97"/>
<polygon fill="#63b8ff" stroke="#63b8ff" points="327.45,-26.23 335.28,-19.09 324.71,-19.79 327.45,-26.23"/>
</a>
</g>
</g>
<!-- Node3 -->
<g id="Node000003" class="node">
<title>Node3</title>
<g id="a_Node000003"><a xlink:title=" ">
<polygon fill="#e0e0e0" stroke="#999999" points="716.5,-185 673.5,-185 673.5,-165.75 716.5,-165.75 716.5,-185"/>
<text text-anchor="middle" x="695" y="-171.5" font-family="Helvetica,sans-Serif" font-size="10.00">vector</text>
</a>
</g>
</g>
<!-- Node1&#45;&gt;Node3 -->
<g id="edge2_Node000001_Node000003" class="edge">
<title>Node1&#45;&gt;Node3</title>
<g id="a_edge2_Node000001_Node000003"><a xlink:title=" ">
<path fill="none" stroke="#63b8ff" d="M695,-220.7C695,-213.46 695,-204.59 695,-196.69"/>
<polygon fill="#63b8ff" stroke="#63b8ff" points="698.5,-196.96 695,-186.96 691.5,-196.96 698.5,-196.96"/>
</a>
</g>
</g>
<!-- Node4 -->
<g id="Node000004" class="node">
<title>Node4</title>
<g id="a_Node000004"><a xlink:title=" ">
<polygon fill="#e0e0e0" stroke="#999999" points="773.25,-185 734.75,-185 734.75,-165.75 773.25,-165.75 773.25,-185"/>
<text text-anchor="middle" x="754" y="-171.5" font-family="Helvetica,sans-Serif" font-size="10.00">utility</text>
</a>
</g>
</g>
<!-- Node1&#45;&gt;Node4 -->
<g id="edge3_Node000001_Node000004" class="edge">
<title>Node1&#45;&gt;Node4</title>
<g id="a_edge3_Node000001_Node000004"><a xlink:title=" ">
<path fill="none" stroke="#63b8ff" d="M709.58,-220.7C717.88,-212.42 728.3,-202.02 736.97,-193.37"/>
<polygon fill="#63b8ff" stroke="#63b8ff" points="739.23,-196.06 743.83,-186.52 734.28,-191.11 739.23,-196.06"/>
</a>
</g>
</g>
<!-- Node5 -->
<g id="Node000005" class="node">
<title>Node5</title>
<g id="a_Node000005"><a xlink:title=" ">
<polygon fill="#e0e0e0" stroke="#999999" points="874.38,-185 791.62,-185 791.62,-165.75 874.38,-165.75 874.38,-185"/>
<text text-anchor="middle" x="833" y="-171.5" font-family="Helvetica,sans-Serif" font-size="10.00">unordered_map</text>
</a>
</g>
</g>
<!-- Node1&#45;&gt;Node5 -->
<g id="edge4_Node000001_Node000005" class="edge">
<title>Node1&#45;&gt;Node5</title>
<g id="a_edge4_Node000001_Node000005"><a xlink:title=" ">
<path fill="none" stroke="#63b8ff" d="M729.47,-220.55C751.49,-211.15 779.85,-199.05 801.31,-189.89"/>
<polygon fill="#63b8ff" stroke="#63b8ff" points="802.62,-193.14 810.44,-186 799.87,-186.7 802.62,-193.14"/>
</a>
</g>
</g>
<!-- Node6 -->
<g id="Node000006" class="node">
<title>Node6</title>
<g id="a_Node000006"><a xlink:href="_style_8h.html" target="_top" xlink:title=" ">
<polygon fill="white" stroke="#666666" points="718.25,-74.5 613.75,-74.5 613.75,-55.25 718.25,-55.25 718.25,-74.5"/>
<text text-anchor="middle" x="666" y="-61" font-family="Helvetica,sans-Serif" font-size="10.00">sgui/Widgets/Style.h</text>
</a>
</g>
</g>
<!-- Node1&#45;&gt;Node6 -->
<g id="edge5_Node000001_Node000006" class="edge">
<title>Node1&#45;&gt;Node6</title>
<g id="a_edge5_Node000001_Node000006"><a xlink:title=" ">
<path fill="none" stroke="#63b8ff" d="M683.52,-220.83C676.67,-211.28 668.62,-198.12 665,-185 655.68,-151.2 659.14,-109.92 662.54,-85.9"/>
<polygon fill="#63b8ff" stroke="#63b8ff" points="665.96,-86.68 664.06,-76.25 659.05,-85.59 665.96,-86.68"/>
</a>
</g>
</g>
<!-- Node9 -->
<g id="Node000009" class="node">
<title>Node9</title>
<g id="a_Node000009"><a xlink:href="_panel_8h.html" target="_top" xlink:title=" ">
<polygon fill="white" stroke="#666666" points="569.75,-185 462.25,-185 462.25,-165.75 569.75,-165.75 569.75,-185"/>
<text text-anchor="middle" x="516" y="-171.5" font-family="Helvetica,sans-Serif" font-size="10.00">sgui/Widgets/Panel.h</text>
</a>
</g>
</g>
<!-- Node1&#45;&gt;Node9 -->
<g id="edge9_Node000001_Node000009" class="edge">
<title>Node1&#45;&gt;Node9</title>
<g id="a_edge9_Node000001_Node000009"><a xlink:title=" ">
<path fill="none" stroke="#63b8ff" d="M650.29,-220.55C620.76,-210.83 582.47,-198.24 554.34,-188.98"/>
<polygon fill="#63b8ff" stroke="#63b8ff" points="555.75,-185.76 545.15,-185.96 553.56,-192.41 555.75,-185.76"/>
</a>
</g>
</g>
<!-- Node17 -->
<g id="Node000017" class="node">
<title>Node17</title>
<g id="a_Node000017"><a xlink:href="_layout_8tpp.html" target="_top" xlink:title=" ">
<polygon fill="white" stroke="#666666" points="1023.75,-185 892.25,-185 892.25,-165.75 1023.75,-165.75 1023.75,-185"/>
<text text-anchor="middle" x="958" y="-171.5" font-family="Helvetica,sans-Serif" font-size="10.00">sgui/Resources/Layout.tpp</text>
</a>
</g>
</g>
<!-- Node1&#45;&gt;Node17 -->
<g id="edge20_Node000001_Node000017" class="edge">
<title>Node1&#45;&gt;Node17</title>
<g id="a_edge20_Node000001_Node000017"><a xlink:title=" ">
<path fill="none" stroke="#63b8ff" d="M758.33,-221.07C803.58,-210.94 863.71,-197.48 906.13,-187.99"/>
<polygon fill="#63b8ff" stroke="#63b8ff" points="906.85,-191.41 915.84,-185.81 905.32,-184.58 906.85,-191.41"/>
</a>
</g>
</g>
<!-- Node6&#45;&gt;Node2 -->
<g id="edge6_Node000006_Node000002" class="edge">
<title>Node6&#45;&gt;Node2</title>
<g id="a_edge6_Node000006_Node000002"><a xlink:title=" ">
<path fill="none" stroke="#63b8ff" d="M613.58,-54.84C548.91,-43.7 441.05,-25.11 388.16,-15.99"/>
<polygon fill="#63b8ff" stroke="#63b8ff" points="389.09,-12.6 378.64,-14.35 387.9,-19.5 389.09,-12.6"/>
</a>
</g>
</g>
<!-- Node7 -->
<g id="Node000007" class="node">
<title>Node7</title>
<g id="a_Node000007"><a xlink:title=" ">
<polygon fill="#e0e0e0" stroke="#999999" points="730.25,-19.25 601.75,-19.25 601.75,0 730.25,0 730.25,-19.25"/>
<text text-anchor="middle" x="666" y="-5.75" font-family="Helvetica,sans-Serif" font-size="10.00">SFML/Graphics/Color.hpp</text>
</a>
</g>
</g>
<!-- Node6&#45;&gt;Node7 -->
<g id="edge7_Node000006_Node000007" class="edge">
<title>Node6&#45;&gt;Node7</title>
<g id="a_edge7_Node000006_Node000007"><a xlink:title=" ">
<path fill="none" stroke="#63b8ff" d="M666,-55.08C666,-48.57 666,-39.42 666,-31.12"/>
<polygon fill="#63b8ff" stroke="#63b8ff" points="669.5,-31.12 666,-21.12 662.5,-31.12 669.5,-31.12"/>
</a>
</g>
</g>
<!-- Node8 -->
<g id="Node000008" class="node">
<title>Node8</title>
<g id="a_Node000008"><a xlink:title=" ">
<polygon fill="#e0e0e0" stroke="#999999" points="571.88,-19.25 438.12,-19.25 438.12,0 571.88,0 571.88,-19.25"/>
<text text-anchor="middle" x="505" y="-5.75" font-family="Helvetica,sans-Serif" font-size="10.00">SFML/System/Vector2.hpp</text>
</a>
</g>
</g>
<!-- Node6&#45;&gt;Node8 -->
<g id="edge8_Node000006_Node000008" class="edge">
<title>Node6&#45;&gt;Node8</title>
<g id="a_edge8_Node000006_Node000008"><a xlink:title=" ">
<path fill="none" stroke="#63b8ff" d="M638.69,-54.84C612.44,-46.16 572.52,-32.96 543.14,-23.24"/>
<polygon fill="#63b8ff" stroke="#63b8ff" points="544.48,-19.99 533.88,-20.18 542.28,-26.64 544.48,-19.99"/>
</a>
</g>
</g>
<!-- Node9&#45;&gt;Node2 -->
<g id="edge10_Node000009_Node000002" class="edge">
<title>Node9&#45;&gt;Node2</title>
<g id="a_edge10_Node000009_Node000002"><a xlink:title=" ">
<path fill="none" stroke="#63b8ff" d="M541.23,-165.28C567.29,-154.35 602.28,-134.48 588,-110.5 546.1,-40.15 441.76,-19.28 388.84,-13.14"/>
<polygon fill="#63b8ff" stroke="#63b8ff" points="389.28,-9.67 378.98,-12.12 388.56,-16.63 389.28,-9.67"/>
</a>
</g>
</g>
<!-- Node10 -->
<g id="Node000010" class="node">
<title>Node10</title>
<g id="a_Node000010"><a xlink:title=" ">
<polygon fill="#e0e0e0" stroke="#999999" points="435,-129.75 377,-129.75 377,-110.5 435,-110.5 435,-129.75"/>
<text text-anchor="middle" x="406" y="-116.25" font-family="Helvetica,sans-Serif" font-size="10.00">functional</text>
</a>
</g>
</g>
<!-- Node9&#45;&gt;Node10 -->
<g id="edge11_Node000009_Node000010" class="edge">
<title>Node9&#45;&gt;Node10</title>
<g id="a_edge11_Node000009_Node000010"><a xlink:title=" ">
<path fill="none" stroke="#63b8ff" d="M497.34,-165.34C480.27,-157.08 454.76,-144.73 435.03,-135.18"/>
<polygon fill="#63b8ff" stroke="#63b8ff" points="436.64,-132.07 426.11,-130.86 433.59,-138.37 436.64,-132.07"/>
</a>
</g>
</g>
<!-- Node11 -->
<g id="Node000011" class="node">
<title>Node11</title>
<g id="a_Node000011"><a xlink:title=" ">
<polygon fill="#e0e0e0" stroke="#999999" points="579.12,-129.75 452.88,-129.75 452.88,-110.5 579.12,-110.5 579.12,-129.75"/>
<text text-anchor="middle" x="516" y="-116.25" font-family="Helvetica,sans-Serif" font-size="10.00">SFML/Graphics/Rect.hpp</text>
</a>
</g>
</g>
<!-- Node9&#45;&gt;Node11 -->
<g id="edge12_Node000009_Node000011" class="edge">
<title>Node9&#45;&gt;Node11</title>
<g id="a_edge12_Node000009_Node000011"><a xlink:title=" ">
<path fill="none" stroke="#63b8ff" d="M516,-165.58C516,-159.07 516,-149.92 516,-141.62"/>
<polygon fill="#63b8ff" stroke="#63b8ff" points="519.5,-141.62 516,-131.62 512.5,-141.62 519.5,-141.62"/>
</a>
</g>
</g>
<!-- Node12 -->
<g id="Node000012" class="node">
<title>Node12</title>
<g id="a_Node000012"><a xlink:href="_options_8h.html" target="_top" xlink:title=" ">
<polygon fill="white" stroke="#666666" points="359.25,-129.75 242.75,-129.75 242.75,-110.5 359.25,-110.5 359.25,-129.75"/>
<text text-anchor="middle" x="301" y="-116.25" font-family="Helvetica,sans-Serif" font-size="10.00">sgui/Widgets/Options.h</text>
</a>
</g>
</g>
<!-- Node9&#45;&gt;Node12 -->
<g id="edge13_Node000009_Node000012" class="edge">
<title>Node9&#45;&gt;Node12</title>
<g id="a_edge13_Node000009_Node000012"><a xlink:title=" ">
<path fill="none" stroke="#63b8ff" d="M479.53,-165.34C443.47,-156.41 388.1,-142.7 348.6,-132.91"/>
<polygon fill="#63b8ff" stroke="#63b8ff" points="349.67,-129.57 339.12,-130.57 347.99,-136.37 349.67,-129.57"/>
</a>
</g>
</g>
<!-- Node13 -->
<g id="Node000013" class="node">
<title>Node13</title>
<g id="a_Node000013"><a xlink:href="_constraints_8h.html" target="_top" xlink:title=" ">
<polygon fill="white" stroke="#666666" points="477.12,-74.5 344.88,-74.5 344.88,-55.25 477.12,-55.25 477.12,-74.5"/>
<text text-anchor="middle" x="411" y="-61" font-family="Helvetica,sans-Serif" font-size="10.00">sgui/Widgets/Constraints.h</text>
</a>
</g>
</g>
<!-- Node12&#45;&gt;Node13 -->
<g id="edge14_Node000012_Node000013" class="edge">
<title>Node12&#45;&gt;Node13</title>
<g id="a_edge14_Node000012_Node000013"><a xlink:title=" ">
<path fill="none" stroke="#63b8ff" d="M319.66,-110.09C336.73,-101.83 362.24,-89.48 381.97,-79.93"/>
<polygon fill="#63b8ff" stroke="#63b8ff" points="383.41,-83.12 390.89,-75.61 380.36,-76.82 383.41,-83.12"/>
</a>
</g>
</g>
<!-- Node14 -->
<g id="Node000014" class="node">
<title>Node14</title>
<g id="a_Node000014"><a xlink:href="_aspect_8h.html" target="_top" xlink:title=" ">
<polygon fill="white" stroke="#666666" points="186.75,-74.5 73.25,-74.5 73.25,-55.25 186.75,-55.25 186.75,-74.5"/>
<text text-anchor="middle" x="130" y="-61" font-family="Helvetica,sans-Serif" font-size="10.00">sgui/Widgets/Aspect.h</text>
</a>
</g>
</g>
<!-- Node12&#45;&gt;Node14 -->
<g id="edge16_Node000012_Node000014" class="edge">
<title>Node12&#45;&gt;Node14</title>
<g id="a_edge16_Node000012_Node000014"><a xlink:title=" ">
<path fill="none" stroke="#63b8ff" d="M271.99,-110.09C243.99,-101.37 201.34,-88.09 170.1,-78.36"/>
<polygon fill="#63b8ff" stroke="#63b8ff" points="171.18,-75.03 160.6,-75.4 169.1,-81.72 171.18,-75.03"/>
</a>
</g>
</g>
<!-- Node13&#45;&gt;Node8 -->
<g id="edge15_Node000013_Node000008" class="edge">
<title>Node13&#45;&gt;Node8</title>
<g id="a_edge15_Node000013_Node000008"><a xlink:title=" ">
<path fill="none" stroke="#63b8ff" d="M426.95,-54.84C441.26,-46.73 462.53,-34.68 479.25,-25.21"/>
<polygon fill="#63b8ff" stroke="#63b8ff" points="480.68,-28.42 487.66,-20.45 477.23,-22.33 480.68,-28.42"/>
</a>
</g>
</g>
<!-- Node14&#45;&gt;Node2 -->
<g id="edge17_Node000014_Node000002" class="edge">
<title>Node14&#45;&gt;Node2</title>
<g id="a_edge17_Node000014_Node000002"><a xlink:title=" ">
<path fill="none" stroke="#63b8ff" d="M168.76,-54.78C213.02,-44.4 284.57,-27.62 325.53,-18.01"/>
<polygon fill="#63b8ff" stroke="#63b8ff" points="326.3,-21.42 335.23,-15.73 324.7,-14.61 326.3,-21.42"/>
</a>
</g>
</g>
<!-- Node15 -->
<g id="Node000015" class="node">
<title>Node15</title>
<g id="a_Node000015"><a xlink:href="_widgets_8h.html" target="_top" xlink:title=" ">
<polygon fill="white" stroke="#666666" points="118,-19.25 0,-19.25 0,0 118,0 118,-19.25"/>
<text text-anchor="middle" x="59" y="-5.75" font-family="Helvetica,sans-Serif" font-size="10.00">sgui/Widgets/Widgets.h</text>
</a>
</g>
</g>
<!-- Node14&#45;&gt;Node15 -->
<g id="edge18_Node000014_Node000015" class="edge">
<title>Node14&#45;&gt;Node15</title>
<g id="a_edge18_Node000014_Node000015"><a xlink:title=" ">
<path fill="none" stroke="#63b8ff" d="M117.96,-54.84C107.59,-47.07 92.4,-35.67 80.03,-26.4"/>
<polygon fill="#63b8ff" stroke="#63b8ff" points="82.18,-23.63 72.08,-20.43 77.98,-29.23 82.18,-23.63"/>
</a>
</g>
</g>
<!-- Node16 -->
<g id="Node000016" class="node">
<title>Node16</title>
<g id="a_Node000016"><a xlink:href="_item_states_8h.html" target="_top" xlink:title=" ">
<polygon fill="white" stroke="#666666" points="266.38,-19.25 135.62,-19.25 135.62,0 266.38,0 266.38,-19.25"/>
<text text-anchor="middle" x="201" y="-5.75" font-family="Helvetica,sans-Serif" font-size="10.00">sgui/Widgets/ItemStates.h</text>
</a>
</g>
</g>
<!-- Node14&#45;&gt;Node16 -->
<g id="edge19_Node000014_Node000016" class="edge">
<title>Node14&#45;&gt;Node16</title>
<g id="a_edge19_Node000014_Node000016"><a xlink:title=" ">
<path fill="none" stroke="#63b8ff" d="M142.04,-54.84C152.41,-47.07 167.6,-35.67 179.97,-26.4"/>
<polygon fill="#63b8ff" stroke="#63b8ff" points="182.02,-29.23 187.92,-20.43 177.82,-23.63 182.02,-29.23"/>
</a>
</g>
</g>
</g>
</svg>
