<?xml version="1.0" encoding="UTF-8" standalone="no"?>
<!DOCTYPE svg PUBLIC "-//W3C//DTD SVG 1.1//EN"
 "http://www.w3.org/Graphics/SVG/1.1/DTD/svg11.dtd">
<!-- Generated by graphviz version 12.2.1 (20241206.2353)
 -->
<!-- Title: /github/workspace/src/sgui/Resources/Layout.h Pages: 1 -->
<svg width="794pt" height="260pt"
 viewBox="0.00 0.00 794.38 259.50" xmlns="http://www.w3.org/2000/svg" xmlns:xlink="http://www.w3.org/1999/xlink">
<g id="graph0" class="graph" transform="scale(1 1) rotate(0) translate(4 255.5)">
<title>/github/workspace/src/sgui/Resources/Layout.h</title>
<!-- Node1 -->
<g id="Node000001" class="node">
<title>Node1</title>
<g id="a_Node000001"><a xlink:title=" ">
<polygon fill="#999999" stroke="#666666" points="357.38,-251.5 231.12,-251.5 231.12,-221 357.38,-221 357.38,-251.5"/>
<text text-anchor="start" x="239.12" y="-238" font-family="Helvetica,sans-Serif" font-size="10.00">/github/workspace/src</text>
<text text-anchor="middle" x="294.25" y="-226.75" font-family="Helvetica,sans-Serif" font-size="10.00">/sgui/Resources/Layout.h</text>
</a>
</g>
</g>
<!-- Node2 -->
<g id="Node000002" class="node">
<title>Node2</title>
<g id="a_Node000002"><a xlink:title=" ">
<polygon fill="#e0e0e0" stroke="#999999" points="275.25,-129.75 235.25,-129.75 235.25,-110.5 275.25,-110.5 275.25,-129.75"/>
<text text-anchor="middle" x="255.25" y="-116.25" font-family="Helvetica,sans-Serif" font-size="10.00">string</text>
</a>
</g>
</g>
<!-- Node1&#45;&gt;Node2 -->
<g id="edge1_Node000001_Node000002" class="edge">
<title>Node1&#45;&gt;Node2</title>
<g id="a_edge1_Node000001_Node000002"><a xlink:title=" ">
<path fill="none" stroke="#63b8ff" d="M316.75,-220.75C335.2,-206.97 356.43,-185.48 344.25,-165.75 337.58,-154.94 309.24,-141.84 286.31,-132.64"/>
<polygon fill="#63b8ff" stroke="#63b8ff" points="287.6,-129.38 277.01,-129.01 285.06,-135.9 287.6,-129.38"/>
</a>
</g>
</g>
<!-- Node3 -->
<g id="Node000003" class="node">
<title>Node3</title>
<g id="a_Node000003"><a xlink:title=" ">
<polygon fill="#e0e0e0" stroke="#999999" points="177.75,-185 134.75,-185 134.75,-165.75 177.75,-165.75 177.75,-185"/>
<text text-anchor="middle" x="156.25" y="-171.5" font-family="Helvetica,sans-Serif" font-size="10.00">vector</text>
</a>
</g>
</g>
<!-- Node1&#45;&gt;Node3 -->
<g id="edge2_Node000001_Node000003" class="edge">
<title>Node1&#45;&gt;Node3</title>
<g id="a_edge2_Node000001_Node000003"><a xlink:title=" ">
<path fill="none" stroke="#63b8ff" d="M259.78,-220.55C237.76,-211.15 209.4,-199.05 187.94,-189.89"/>
<polygon fill="#63b8ff" stroke="#63b8ff" points="189.38,-186.7 178.81,-186 186.63,-193.14 189.38,-186.7"/>
</a>
</g>
</g>
<!-- Node4 -->
<g id="Node000004" class="node">
<title>Node4</title>
<g id="a_Node000004"><a xlink:title=" ">
<polygon fill="#e0e0e0" stroke="#999999" points="234.5,-185 196,-185 196,-165.75 234.5,-165.75 234.5,-185"/>
<text text-anchor="middle" x="215.25" y="-171.5" font-family="Helvetica,sans-Serif" font-size="10.00">utility</text>
</a>
</g>
</g>
<!-- Node1&#45;&gt;Node4 -->
<g id="edge3_Node000001_Node000004" class="edge">
<title>Node1&#45;&gt;Node4</title>
<g id="a_edge3_Node000001_Node000004"><a xlink:title=" ">
<path fill="none" stroke="#63b8ff" d="M274.72,-220.7C263.16,-212.08 248.49,-201.15 236.62,-192.3"/>
<polygon fill="#63b8ff" stroke="#63b8ff" points="238.75,-189.52 228.64,-186.36 234.57,-195.14 238.75,-189.52"/>
</a>
</g>
</g>
<!-- Node5 -->
<g id="Node000005" class="node">
<title>Node5</title>
<g id="a_Node000005"><a xlink:title=" ">
<polygon fill="#e0e0e0" stroke="#999999" points="335.62,-185 252.88,-185 252.88,-165.75 335.62,-165.75 335.62,-185"/>
<text text-anchor="middle" x="294.25" y="-171.5" font-family="Helvetica,sans-Serif" font-size="10.00">unordered_map</text>
</a>
</g>
</g>
<!-- Node1&#45;&gt;Node5 -->
<g id="edge4_Node000001_Node000005" class="edge">
<title>Node1&#45;&gt;Node5</title>
<g id="a_edge4_Node000001_Node000005"><a xlink:title=" ">
<path fill="none" stroke="#63b8ff" d="M294.25,-220.7C294.25,-213.46 294.25,-204.59 294.25,-196.69"/>
<polygon fill="#63b8ff" stroke="#63b8ff" points="297.75,-196.96 294.25,-186.96 290.75,-196.96 297.75,-196.96"/>
</a>
</g>
</g>
<!-- Node6 -->
<g id="Node000006" class="node">
<title>Node6</title>
<g id="a_Node000006"><a xlink:href="_style_8h.html" target="_top" xlink:title=" ">
<polygon fill="white" stroke="#666666" points="116.5,-185 12,-185 12,-165.75 116.5,-165.75 116.5,-185"/>
<text text-anchor="middle" x="64.25" y="-171.5" font-family="Helvetica,sans-Serif" font-size="10.00">sgui/Widgets/Style.h</text>
</a>
</g>
</g>
<!-- Node1&#45;&gt;Node6 -->
<g id="edge5_Node000001_Node000006" class="edge">
<title>Node1&#45;&gt;Node6</title>
<g id="a_edge5_Node000001_Node000006"><a xlink:title=" ">
<path fill="none" stroke="#63b8ff" d="M236.8,-220.55C197.86,-210.58 147.04,-197.57 110.66,-188.25"/>
<polygon fill="#63b8ff" stroke="#63b8ff" points="111.88,-184.96 101.33,-185.87 110.15,-191.74 111.88,-184.96"/>
</a>
</g>
</g>
<!-- Node9 -->
<g id="Node000009" class="node">
<title>Node9</title>
<g id="a_Node000009"><a xlink:href="_panel_8h.html" target="_top" xlink:title=" ">
<polygon fill="white" stroke="#666666" points="499,-185 391.5,-185 391.5,-165.75 499,-165.75 499,-185"/>
<text text-anchor="middle" x="445.25" y="-171.5" font-family="Helvetica,sans-Serif" font-size="10.00">sgui/Widgets/Panel.h</text>
</a>
</g>
</g>
<!-- Node1&#45;&gt;Node9 -->
<g id="edge9_Node000001_Node000009" class="edge">
<title>Node1&#45;&gt;Node9</title>
<g id="a_edge9_Node000001_Node000009"><a xlink:title=" ">
<path fill="none" stroke="#63b8ff" d="M331.96,-220.55C356.4,-211.02 387.94,-198.72 411.54,-189.52"/>
<polygon fill="#63b8ff" stroke="#63b8ff" points="412.64,-192.85 420.68,-185.95 410.09,-186.33 412.64,-192.85"/>
</a>
</g>
</g>
<!-- Node16 -->
<g id="Node000016" class="node">
<title>Node16</title>
<g id="a_Node000016"><a xlink:href="_layout_8tpp.html" target="_top" xlink:title=" ">
<polygon fill="white" stroke="#666666" points="649,-185 517.5,-185 517.5,-165.75 649,-165.75 649,-185"/>
<text text-anchor="middle" x="583.25" y="-171.5" font-family="Helvetica,sans-Serif" font-size="10.00">sgui/Resources/Layout.tpp</text>
</a>
</g>
</g>
<!-- Node1&#45;&gt;Node16 -->
<g id="edge20_Node000001_Node000016" class="edge">
<title>Node1&#45;&gt;Node16</title>
<g id="a_edge20_Node000001_Node000016"><a xlink:title=" ">
<path fill="none" stroke="#63b8ff" d="M357.67,-222.33C408.43,-211.99 478.93,-197.63 527.54,-187.72"/>
<polygon fill="#63b8ff" stroke="#63b8ff" points="528.21,-191.16 537.31,-185.73 526.81,-184.3 528.21,-191.16"/>
</a>
</g>
</g>
<!-- Node6&#45;&gt;Node2 -->
<g id="edge6_Node000006_Node000002" class="edge">
<title>Node6&#45;&gt;Node2</title>
<g id="a_edge6_Node000006_Node000002"><a xlink:title=" ">
<path fill="none" stroke="#63b8ff" d="M96.65,-165.34C132.13,-155.45 188.63,-139.7 223.75,-129.91"/>
<polygon fill="#63b8ff" stroke="#63b8ff" points="224.62,-133.3 233.32,-127.24 222.74,-126.55 224.62,-133.3"/>
</a>
</g>
</g>
<!-- Node7 -->
<g id="Node000007" class="node">
<title>Node7</title>
<g id="a_Node000007"><a xlink:title=" ">
<polygon fill="#e0e0e0" stroke="#999999" points="128.5,-129.75 0,-129.75 0,-110.5 128.5,-110.5 128.5,-129.75"/>
<text text-anchor="middle" x="64.25" y="-116.25" font-family="Helvetica,sans-Serif" font-size="10.00">SFML/Graphics/Color.hpp</text>
</a>
</g>
</g>
<!-- Node6&#45;&gt;Node7 -->
<g id="edge7_Node000006_Node000007" class="edge">
<title>Node6&#45;&gt;Node7</title>
<g id="a_edge7_Node000006_Node000007"><a xlink:title=" ">
<path fill="none" stroke="#63b8ff" d="M64.25,-165.58C64.25,-159.07 64.25,-149.92 64.25,-141.62"/>
<polygon fill="#63b8ff" stroke="#63b8ff" points="67.75,-141.62 64.25,-131.62 60.75,-141.62 67.75,-141.62"/>
</a>
</g>
</g>
<!-- Node8 -->
<g id="Node000008" class="node">
<title>Node8</title>
<g id="a_Node000008"><a xlink:title=" ">
<polygon fill="#e0e0e0" stroke="#999999" points="389.12,-19.25 255.38,-19.25 255.38,0 389.12,0 389.12,-19.25"/>
<text text-anchor="middle" x="322.25" y="-5.75" font-family="Helvetica,sans-Serif" font-size="10.00">SFML/System/Vector2.hpp</text>
</a>
</g>
</g>
<!-- Node6&#45;&gt;Node8 -->
<g id="edge8_Node000006_Node000008" class="edge">
<title>Node6&#45;&gt;Node8</title>
<g id="a_edge8_Node000006_Node000008"><a xlink:title=" ">
<path fill="none" stroke="#63b8ff" d="M79.13,-165.42C93.93,-156.48 117.24,-142.3 137.25,-129.75 195.86,-92.97 264.14,-48.61 299.07,-25.8"/>
<polygon fill="#63b8ff" stroke="#63b8ff" points="300.67,-28.93 307.13,-20.53 296.84,-23.07 300.67,-28.93"/>
</a>
</g>
</g>
<!-- Node9&#45;&gt;Node2 -->
<g id="edge10_Node000009_Node000002" class="edge">
<title>Node9&#45;&gt;Node2</title>
<g id="a_edge10_Node000009_Node000002"><a xlink:title=" ">
<path fill="none" stroke="#63b8ff" d="M413.02,-165.34C377.73,-155.45 321.52,-139.7 286.59,-129.91"/>
<polygon fill="#63b8ff" stroke="#63b8ff" points="287.65,-126.57 277.08,-127.24 285.76,-133.31 287.65,-126.57"/>
</a>
</g>
</g>
<!-- Node9&#45;&gt;Node8 -->
<g id="edge12_Node000009_Node000008" class="edge">
<title>Node9&#45;&gt;Node8</title>
<g id="a_edge12_Node000009_Node000008"><a xlink:title=" ">
<path fill="none" stroke="#63b8ff" d="M416.89,-165.33C398.76,-158.24 375.97,-146.71 361.25,-129.75 336.48,-101.21 327.37,-56.57 324.07,-30.81"/>
<polygon fill="#63b8ff" stroke="#63b8ff" points="327.57,-30.61 323.01,-21.04 320.61,-31.36 327.57,-30.61"/>
</a>
</g>
</g>
<!-- Node10 -->
<g id="Node000010" class="node">
<title>Node10</title>
<g id="a_Node000010"><a xlink:title=" ">
<polygon fill="#e0e0e0" stroke="#999999" points="562.25,-129.75 504.25,-129.75 504.25,-110.5 562.25,-110.5 562.25,-129.75"/>
<text text-anchor="middle" x="533.25" y="-116.25" font-family="Helvetica,sans-Serif" font-size="10.00">functional</text>
</a>
</g>
</g>
<!-- Node9&#45;&gt;Node10 -->
<g id="edge11_Node000009_Node000010" class="edge">
<title>Node9&#45;&gt;Node10</title>
<g id="a_edge11_Node000009_Node000010"><a xlink:title=" ">
<path fill="none" stroke="#63b8ff" d="M460.18,-165.34C473.45,-157.31 493.12,-145.41 508.7,-135.98"/>
<polygon fill="#63b8ff" stroke="#63b8ff" points="510.21,-139.16 516.95,-130.99 506.59,-133.17 510.21,-139.16"/>
</a>
</g>
</g>
<!-- Node11 -->
<g id="Node000011" class="node">
<title>Node11</title>
<g id="a_Node000011"><a xlink:title=" ">
<polygon fill="#e0e0e0" stroke="#999999" points="706.38,-129.75 580.12,-129.75 580.12,-110.5 706.38,-110.5 706.38,-129.75"/>
<text text-anchor="middle" x="643.25" y="-116.25" font-family="Helvetica,sans-Serif" font-size="10.00">SFML/Graphics/Rect.hpp</text>
</a>
</g>
</g>
<!-- Node9&#45;&gt;Node11 -->
<g id="edge13_Node000009_Node000011" class="edge">
<title>Node9&#45;&gt;Node11</title>
<g id="a_edge13_Node000009_Node000011"><a xlink:title=" ">
<path fill="none" stroke="#63b8ff" d="M478.84,-165.34C511.83,-156.47 562.38,-142.87 598.71,-133.1"/>
<polygon fill="#63b8ff" stroke="#63b8ff" points="599.29,-136.57 608.04,-130.6 597.47,-129.81 599.29,-136.57"/>
</a>
</g>
</g>
<!-- Node12 -->
<g id="Node000012" class="node">
<title>Node12</title>
<g id="a_Node000012"><a xlink:href="_options_8h.html" target="_top" xlink:title=" ">
<polygon fill="white" stroke="#666666" points="486.5,-129.75 370,-129.75 370,-110.5 486.5,-110.5 486.5,-129.75"/>
<text text-anchor="middle" x="428.25" y="-116.25" font-family="Helvetica,sans-Serif" font-size="10.00">sgui/Widgets/Options.h</text>
</a>
</g>
</g>
<!-- Node9&#45;&gt;Node12 -->
<g id="edge14_Node000009_Node000012" class="edge">
<title>Node9&#45;&gt;Node12</title>
<g id="a_edge14_Node000009_Node000012"><a xlink:title=" ">
<path fill="none" stroke="#63b8ff" d="M442.44,-165.58C440.31,-158.92 437.31,-149.49 434.61,-141.03"/>
<polygon fill="#63b8ff" stroke="#63b8ff" points="437.95,-140.01 431.58,-131.55 431.29,-142.14 437.95,-140.01"/>
</a>
</g>
</g>
<!-- Node12&#45;&gt;Node8 -->
<g id="edge15_Node000012_Node000008" class="edge">
<title>Node12&#45;&gt;Node8</title>
<g id="a_edge15_Node000012_Node000008"><a xlink:title=" ">
<path fill="none" stroke="#63b8ff" d="M409.87,-110.06C395.17,-102.16 374.7,-89.6 360.25,-74.5 347.71,-61.39 337.48,-43.41 330.8,-29.86"/>
<polygon fill="#63b8ff" stroke="#63b8ff" points="334.11,-28.68 326.7,-21.11 327.77,-31.65 334.11,-28.68"/>
</a>
</g>
</g>
<!-- Node13 -->
<g id="Node000013" class="node">
<title>Node13</title>
<g id="a_Node000013"><a xlink:href="_constraints_8h.html" target="_top" xlink:title=" ">
<polygon fill="white" stroke="#666666" points="786.38,-74.5 654.12,-74.5 654.12,-55.25 786.38,-55.25 786.38,-74.5"/>
<text text-anchor="middle" x="720.25" y="-61" font-family="Helvetica,sans-Serif" font-size="10.00">sgui/Widgets/Constraints.h</text>
</a>
</g>
</g>
<!-- Node12&#45;&gt;Node13 -->
<g id="edge16_Node000012_Node000013" class="edge">
<title>Node12&#45;&gt;Node13</title>
<g id="a_edge16_Node000012_Node000013"><a xlink:title=" ">
<path fill="none" stroke="#63b8ff" d="M478.11,-110.03C528.3,-100.88 605.76,-86.75 659.5,-76.95"/>
<polygon fill="#63b8ff" stroke="#63b8ff" points="659.89,-80.44 669.1,-75.2 658.64,-73.55 659.89,-80.44"/>
</a>
</g>
</g>
<!-- Node14 -->
<g id="Node000014" class="node">
<title>Node14</title>
<g id="a_Node000014"><a xlink:href="_widgets_8h.html" target="_top" xlink:title=" ">
<polygon fill="white" stroke="#666666" points="487.25,-74.5 369.25,-74.5 369.25,-55.25 487.25,-55.25 487.25,-74.5"/>
<text text-anchor="middle" x="428.25" y="-61" font-family="Helvetica,sans-Serif" font-size="10.00">sgui/Widgets/Widgets.h</text>
</a>
</g>
</g>
<!-- Node12&#45;&gt;Node14 -->
<g id="edge18_Node000012_Node000014" class="edge">
<title>Node12&#45;&gt;Node14</title>
<g id="a_edge18_Node000012_Node000014"><a xlink:title=" ">
<path fill="none" stroke="#63b8ff" d="M428.25,-110.33C428.25,-103.82 428.25,-94.67 428.25,-86.37"/>
<polygon fill="#63b8ff" stroke="#63b8ff" points="431.75,-86.37 428.25,-76.37 424.75,-86.37 431.75,-86.37"/>
</a>
</g>
</g>
<!-- Node15 -->
<g id="Node000015" class="node">
<title>Node15</title>
<g id="a_Node000015"><a xlink:href="_item_states_8h.html" target="_top" xlink:title=" ">
<polygon fill="white" stroke="#666666" points="635.62,-74.5 504.88,-74.5 504.88,-55.25 635.62,-55.25 635.62,-74.5"/>
<text text-anchor="middle" x="570.25" y="-61" font-family="Helvetica,sans-Serif" font-size="10.00">sgui/Widgets/ItemStates.h</text>
</a>
</g>
</g>
<!-- Node12&#45;&gt;Node15 -->
<g id="edge19_Node000012_Node000015" class="edge">
<title>Node12&#45;&gt;Node15</title>
<g id="a_edge19_Node000012_Node000015"><a xlink:title=" ">
<path fill="none" stroke="#63b8ff" d="M452.34,-110.09C475.19,-101.52 509.77,-88.56 535.58,-78.88"/>
<polygon fill="#63b8ff" stroke="#63b8ff" points="536.49,-82.27 544.63,-75.48 534.03,-75.72 536.49,-82.27"/>
</a>
</g>
</g>
<!-- Node13&#45;&gt;Node8 -->
<g id="edge17_Node000013_Node000008" class="edge">
<title>Node13&#45;&gt;Node8</title>
<g id="a_edge17_Node000013_Node000008"><a xlink:title=" ">
<path fill="none" stroke="#63b8ff" d="M653.63,-54.96C583.86,-45.63 474.34,-30.97 400.5,-21.09"/>
<polygon fill="#63b8ff" stroke="#63b8ff" points="401.29,-17.67 390.92,-19.81 400.36,-24.61 401.29,-17.67"/>
</a>
</g>
</g>
</g>
</svg>
