<?xml version="1.0" encoding="UTF-8" standalone="no"?>
<!DOCTYPE svg PUBLIC "-//W3C//DTD SVG 1.1//EN"
 "http://www.w3.org/Graphics/SVG/1.1/DTD/svg11.dtd">
<!-- Generated by graphviz version 12.2.1 (20241206.2353)
 -->
<!-- Title: /github/workspace/src/sgui/Resources/Layout.h Pages: 1 -->
<svg width="830pt" height="260pt"
 viewBox="0.00 0.00 829.62 259.50" xmlns="http://www.w3.org/2000/svg" xmlns:xlink="http://www.w3.org/1999/xlink">
<g id="graph0" class="graph" transform="scale(1 1) rotate(0) translate(4 255.5)">
<title>/github/workspace/src/sgui/Resources/Layout.h</title>
<!-- Node1 -->
<g id="Node000001" class="node">
<title>Node1</title>
<g id="a_Node000001"><a xlink:title=" ">
<polygon fill="#999999" stroke="#666666" points="474.38,-251.5 348.12,-251.5 348.12,-221 474.38,-221 474.38,-251.5"/>
<text text-anchor="start" x="356.12" y="-238" font-family="Helvetica,sans-Serif" font-size="10.00">/github/workspace/src</text>
<text text-anchor="middle" x="411.25" y="-226.75" font-family="Helvetica,sans-Serif" font-size="10.00">/sgui/Resources/Layout.h</text>
</a>
</g>
</g>
<!-- Node2 -->
<g id="Node000002" class="node">
<title>Node2</title>
<g id="a_Node000002"><a xlink:title=" ">
<polygon fill="#e0e0e0" stroke="#999999" points="224.25,-129.75 184.25,-129.75 184.25,-110.5 224.25,-110.5 224.25,-129.75"/>
<text text-anchor="middle" x="204.25" y="-116.25" font-family="Helvetica,sans-Serif" font-size="10.00">string</text>
</a>
</g>
</g>
<!-- Node1&#45;&gt;Node2 -->
<g id="edge1_Node000001_Node000002" class="edge">
<title>Node1&#45;&gt;Node2</title>
<g id="a_edge1_Node000001_Node000002"><a xlink:title=" ">
<path fill="none" stroke="#63b8ff" d="M347.83,-223.72C317.88,-216.14 282.76,-204 255.25,-185 238.13,-173.18 223.89,-153.94 214.85,-139.67"/>
<polygon fill="#63b8ff" stroke="#63b8ff" points="217.92,-137.98 209.76,-131.22 211.92,-141.59 217.92,-137.98"/>
</a>
</g>
</g>
<!-- Node3 -->
<g id="Node000003" class="node">
<title>Node3</title>
<g id="a_Node000003"><a xlink:title=" ">
<polygon fill="#e0e0e0" stroke="#999999" points="432.75,-185 389.75,-185 389.75,-165.75 432.75,-165.75 432.75,-185"/>
<text text-anchor="middle" x="411.25" y="-171.5" font-family="Helvetica,sans-Serif" font-size="10.00">vector</text>
</a>
</g>
</g>
<!-- Node1&#45;&gt;Node3 -->
<g id="edge2_Node000001_Node000003" class="edge">
<title>Node1&#45;&gt;Node3</title>
<g id="a_edge2_Node000001_Node000003"><a xlink:title=" ">
<path fill="none" stroke="#63b8ff" d="M411.25,-220.7C411.25,-213.46 411.25,-204.59 411.25,-196.69"/>
<polygon fill="#63b8ff" stroke="#63b8ff" points="414.75,-196.96 411.25,-186.96 407.75,-196.96 414.75,-196.96"/>
</a>
</g>
</g>
<!-- Node4 -->
<g id="Node000004" class="node">
<title>Node4</title>
<g id="a_Node000004"><a xlink:title=" ">
<polygon fill="#e0e0e0" stroke="#999999" points="489.5,-185 451,-185 451,-165.75 489.5,-165.75 489.5,-185"/>
<text text-anchor="middle" x="470.25" y="-171.5" font-family="Helvetica,sans-Serif" font-size="10.00">utility</text>
</a>
</g>
</g>
<!-- Node1&#45;&gt;Node4 -->
<g id="edge3_Node000001_Node000004" class="edge">
<title>Node1&#45;&gt;Node4</title>
<g id="a_edge3_Node000001_Node000004"><a xlink:title=" ">
<path fill="none" stroke="#63b8ff" d="M425.83,-220.7C434.13,-212.42 444.55,-202.02 453.22,-193.37"/>
<polygon fill="#63b8ff" stroke="#63b8ff" points="455.48,-196.06 460.08,-186.52 450.53,-191.11 455.48,-196.06"/>
</a>
</g>
</g>
<!-- Node5 -->
<g id="Node000005" class="node">
<title>Node5</title>
<g id="a_Node000005"><a xlink:title=" ">
<polygon fill="#e0e0e0" stroke="#999999" points="590.62,-185 507.88,-185 507.88,-165.75 590.62,-165.75 590.62,-185"/>
<text text-anchor="middle" x="549.25" y="-171.5" font-family="Helvetica,sans-Serif" font-size="10.00">unordered_map</text>
</a>
</g>
</g>
<!-- Node1&#45;&gt;Node5 -->
<g id="edge4_Node000001_Node000005" class="edge">
<title>Node1&#45;&gt;Node5</title>
<g id="a_edge4_Node000001_Node000005"><a xlink:title=" ">
<path fill="none" stroke="#63b8ff" d="M445.72,-220.55C467.74,-211.15 496.1,-199.05 517.56,-189.89"/>
<polygon fill="#63b8ff" stroke="#63b8ff" points="518.87,-193.14 526.69,-186 516.12,-186.7 518.87,-193.14"/>
</a>
</g>
</g>
<!-- Node6 -->
<g id="Node000006" class="node">
<title>Node6</title>
<g id="a_Node000006"><a xlink:href="_style_8h.html" target="_top" xlink:title=" ">
<polygon fill="white" stroke="#666666" points="208.5,-185 104,-185 104,-165.75 208.5,-165.75 208.5,-185"/>
<text text-anchor="middle" x="156.25" y="-171.5" font-family="Helvetica,sans-Serif" font-size="10.00">sgui/Widgets/Style.h</text>
</a>
</g>
</g>
<!-- Node1&#45;&gt;Node6 -->
<g id="edge5_Node000001_Node000006" class="edge">
<title>Node1&#45;&gt;Node6</title>
<g id="a_edge5_Node000001_Node000006"><a xlink:title=" ">
<path fill="none" stroke="#63b8ff" d="M347.89,-220.62C304.2,-210.54 246.94,-197.31 206.42,-187.96"/>
<polygon fill="#63b8ff" stroke="#63b8ff" points="207.46,-184.61 196.93,-185.77 205.89,-191.43 207.46,-184.61"/>
</a>
</g>
</g>
<!-- Node9 -->
<g id="Node000009" class="node">
<title>Node9</title>
<g id="a_Node000009"><a xlink:href="_panel_8h.html" target="_top" xlink:title=" ">
<polygon fill="white" stroke="#666666" points="372,-185 264.5,-185 264.5,-165.75 372,-165.75 372,-185"/>
<text text-anchor="middle" x="318.25" y="-171.5" font-family="Helvetica,sans-Serif" font-size="10.00">sgui/Widgets/Panel.h</text>
</a>
</g>
</g>
<!-- Node1&#45;&gt;Node9 -->
<g id="edge9_Node000001_Node000009" class="edge">
<title>Node1&#45;&gt;Node9</title>
<g id="a_edge9_Node000001_Node000009"><a xlink:title=" ">
<path fill="none" stroke="#63b8ff" d="M388.26,-220.7C374.24,-211.82 356.34,-200.49 342.15,-191.51"/>
<polygon fill="#63b8ff" stroke="#63b8ff" points="344.19,-188.65 333.87,-186.26 340.44,-194.57 344.19,-188.65"/>
</a>
</g>
</g>
<!-- Node17 -->
<g id="Node000017" class="node">
<title>Node17</title>
<g id="a_Node000017"><a xlink:href="_layout_8tpp.html" target="_top" xlink:title=" ">
<polygon fill="white" stroke="#666666" points="740,-185 608.5,-185 608.5,-165.75 740,-165.75 740,-185"/>
<text text-anchor="middle" x="674.25" y="-171.5" font-family="Helvetica,sans-Serif" font-size="10.00">sgui/Resources/Layout.tpp</text>
</a>
</g>
</g>
<!-- Node1&#45;&gt;Node17 -->
<g id="edge21_Node000001_Node000017" class="edge">
<title>Node1&#45;&gt;Node17</title>
<g id="a_edge21_Node000001_Node000017"><a xlink:title=" ">
<path fill="none" stroke="#63b8ff" d="M474.58,-221.07C519.83,-210.94 579.96,-197.48 622.38,-187.99"/>
<polygon fill="#63b8ff" stroke="#63b8ff" points="623.1,-191.41 632.09,-185.81 621.57,-184.58 623.1,-191.41"/>
</a>
</g>
</g>
<!-- Node6&#45;&gt;Node2 -->
<g id="edge6_Node000006_Node000002" class="edge">
<title>Node6&#45;&gt;Node2</title>
<g id="a_edge6_Node000006_Node000002"><a xlink:title=" ">
<path fill="none" stroke="#63b8ff" d="M164.18,-165.58C170.81,-158.23 180.47,-147.51 188.64,-138.44"/>
<polygon fill="#63b8ff" stroke="#63b8ff" points="191.04,-141 195.14,-131.23 185.84,-136.32 191.04,-141"/>
</a>
</g>
</g>
<!-- Node7 -->
<g id="Node000007" class="node">
<title>Node7</title>
<g id="a_Node000007"><a xlink:title=" ">
<polygon fill="#e0e0e0" stroke="#999999" points="128.5,-129.75 0,-129.75 0,-110.5 128.5,-110.5 128.5,-129.75"/>
<text text-anchor="middle" x="64.25" y="-116.25" font-family="Helvetica,sans-Serif" font-size="10.00">SFML/Graphics/Color.hpp</text>
</a>
</g>
</g>
<!-- Node6&#45;&gt;Node7 -->
<g id="edge7_Node000006_Node000007" class="edge">
<title>Node6&#45;&gt;Node7</title>
<g id="a_edge7_Node000006_Node000007"><a xlink:title=" ">
<path fill="none" stroke="#63b8ff" d="M140.64,-165.34C126.63,-157.23 105.82,-145.18 89.45,-135.71"/>
<polygon fill="#63b8ff" stroke="#63b8ff" points="91.65,-132.94 81.24,-130.96 88.14,-139 91.65,-132.94"/>
</a>
</g>
</g>
<!-- Node8 -->
<g id="Node000008" class="node">
<title>Node8</title>
<g id="a_Node000008"><a xlink:title=" ">
<polygon fill="#e0e0e0" stroke="#999999" points="482.12,-19.25 348.38,-19.25 348.38,0 482.12,0 482.12,-19.25"/>
<text text-anchor="middle" x="415.25" y="-5.75" font-family="Helvetica,sans-Serif" font-size="10.00">SFML/System/Vector2.hpp</text>
</a>
</g>
</g>
<!-- Node6&#45;&gt;Node8 -->
<g id="edge8_Node000006_Node000008" class="edge">
<title>Node6&#45;&gt;Node8</title>
<g id="a_edge8_Node000006_Node000008"><a xlink:title=" ">
<path fill="none" stroke="#63b8ff" d="M156.56,-165.37C157.5,-151.83 161.16,-126.15 175.25,-110.5 220.13,-60.63 293.83,-34.99 347.74,-22.27"/>
<polygon fill="#63b8ff" stroke="#63b8ff" points="348.46,-25.7 357.45,-20.08 346.92,-18.87 348.46,-25.7"/>
</a>
</g>
</g>
<!-- Node9&#45;&gt;Node2 -->
<g id="edge10_Node000009_Node000002" class="edge">
<title>Node9&#45;&gt;Node2</title>
<g id="a_edge10_Node000009_Node000002"><a xlink:title=" ">
<path fill="none" stroke="#63b8ff" d="M298.91,-165.34C281.14,-157.04 254.53,-144.61 234.05,-135.04"/>
<polygon fill="#63b8ff" stroke="#63b8ff" points="235.6,-131.9 225.05,-130.84 232.63,-138.25 235.6,-131.9"/>
</a>
</g>
</g>
<!-- Node9&#45;&gt;Node8 -->
<g id="edge12_Node000009_Node000008" class="edge">
<title>Node9&#45;&gt;Node8</title>
<g id="a_edge12_Node000009_Node000008"><a xlink:title=" ">
<path fill="none" stroke="#63b8ff" d="M335.3,-165.37C348.51,-157.59 366.34,-145.16 377.25,-129.75 398.83,-99.27 408.56,-55.97 412.63,-30.84"/>
<polygon fill="#63b8ff" stroke="#63b8ff" points="416.08,-31.41 414.06,-21.01 409.16,-30.4 416.08,-31.41"/>
</a>
</g>
</g>
<!-- Node10 -->
<g id="Node000010" class="node">
<title>Node10</title>
<g id="a_Node000010"><a xlink:title=" ">
<polygon fill="#e0e0e0" stroke="#999999" points="616.25,-129.75 558.25,-129.75 558.25,-110.5 616.25,-110.5 616.25,-129.75"/>
<text text-anchor="middle" x="587.25" y="-116.25" font-family="Helvetica,sans-Serif" font-size="10.00">functional</text>
</a>
</g>
</g>
<!-- Node9&#45;&gt;Node10 -->
<g id="edge11_Node000009_Node000010" class="edge">
<title>Node9&#45;&gt;Node10</title>
<g id="a_edge11_Node000009_Node000010"><a xlink:title=" ">
<path fill="none" stroke="#63b8ff" d="M367.91,-165.26C412.28,-157.01 479.35,-144.28 546.59,-130.26"/>
<polygon fill="#63b8ff" stroke="#63b8ff" points="547.26,-133.69 556.33,-128.22 545.83,-126.84 547.26,-133.69"/>
</a>
</g>
</g>
<!-- Node11 -->
<g id="Node000011" class="node">
<title>Node11</title>
<g id="a_Node000011"><a xlink:title=" ">
<polygon fill="#e0e0e0" stroke="#999999" points="368.38,-129.75 242.12,-129.75 242.12,-110.5 368.38,-110.5 368.38,-129.75"/>
<text text-anchor="middle" x="305.25" y="-116.25" font-family="Helvetica,sans-Serif" font-size="10.00">SFML/Graphics/Rect.hpp</text>
</a>
</g>
</g>
<!-- Node9&#45;&gt;Node11 -->
<g id="edge13_Node000009_Node000011" class="edge">
<title>Node9&#45;&gt;Node11</title>
<g id="a_edge13_Node000009_Node000011"><a xlink:title=" ">
<path fill="none" stroke="#63b8ff" d="M316.1,-165.58C314.48,-158.92 312.17,-149.49 310.11,-141.03"/>
<polygon fill="#63b8ff" stroke="#63b8ff" points="313.57,-140.46 307.8,-131.58 306.77,-142.12 313.57,-140.46"/>
</a>
</g>
</g>
<!-- Node12 -->
<g id="Node000012" class="node">
<title>Node12</title>
<g id="a_Node000012"><a xlink:href="_options_8h.html" target="_top" xlink:title=" ">
<polygon fill="white" stroke="#666666" points="540.5,-129.75 424,-129.75 424,-110.5 540.5,-110.5 540.5,-129.75"/>
<text text-anchor="middle" x="482.25" y="-116.25" font-family="Helvetica,sans-Serif" font-size="10.00">sgui/Widgets/Options.h</text>
</a>
</g>
</g>
<!-- Node9&#45;&gt;Node12 -->
<g id="edge14_Node000009_Node000012" class="edge">
<title>Node9&#45;&gt;Node12</title>
<g id="a_edge14_Node000009_Node000012"><a xlink:title=" ">
<path fill="none" stroke="#63b8ff" d="M346.07,-165.34C372.81,-156.66 413.47,-143.46 443.4,-133.74"/>
<polygon fill="#63b8ff" stroke="#63b8ff" points="444.42,-137.09 452.85,-130.67 442.26,-130.43 444.42,-137.09"/>
</a>
</g>
</g>
<!-- Node12&#45;&gt;Node8 -->
<g id="edge15_Node000012_Node000008" class="edge">
<title>Node12&#45;&gt;Node8</title>
<g id="a_edge15_Node000012_Node000008"><a xlink:title=" ">
<path fill="none" stroke="#63b8ff" d="M476.37,-110.3C470.43,-101.35 461.06,-87.05 453.25,-74.5 443.87,-59.42 433.59,-42.08 426.09,-29.28"/>
<polygon fill="#63b8ff" stroke="#63b8ff" points="429.13,-27.55 421.07,-20.68 423.08,-31.08 429.13,-27.55"/>
</a>
</g>
</g>
<!-- Node13 -->
<g id="Node000013" class="node">
<title>Node13</title>
<g id="a_Node000013"><a xlink:href="_constraints_8h.html" target="_top" xlink:title=" ">
<polygon fill="white" stroke="#666666" points="594.38,-74.5 462.12,-74.5 462.12,-55.25 594.38,-55.25 594.38,-74.5"/>
<text text-anchor="middle" x="528.25" y="-61" font-family="Helvetica,sans-Serif" font-size="10.00">sgui/Widgets/Constraints.h</text>
</a>
</g>
</g>
<!-- Node12&#45;&gt;Node13 -->
<g id="edge16_Node000012_Node000013" class="edge">
<title>Node12&#45;&gt;Node13</title>
<g id="a_edge16_Node000012_Node000013"><a xlink:title=" ">
<path fill="none" stroke="#63b8ff" d="M489.85,-110.33C496.13,-103.05 505.26,-92.48 513.05,-83.48"/>
<polygon fill="#63b8ff" stroke="#63b8ff" points="515.61,-85.86 519.5,-76 510.31,-81.28 515.61,-85.86"/>
</a>
</g>
</g>
<!-- Node14 -->
<g id="Node000014" class="node">
<title>Node14</title>
<g id="a_Node000014"><a xlink:href="_aspect_8h.html" target="_top" xlink:title=" ">
<polygon fill="white" stroke="#666666" points="726,-74.5 612.5,-74.5 612.5,-55.25 726,-55.25 726,-74.5"/>
<text text-anchor="middle" x="669.25" y="-61" font-family="Helvetica,sans-Serif" font-size="10.00">sgui/Widgets/Aspect.h</text>
</a>
</g>
</g>
<!-- Node12&#45;&gt;Node14 -->
<g id="edge18_Node000012_Node000014" class="edge">
<title>Node12&#45;&gt;Node14</title>
<g id="a_edge18_Node000012_Node000014"><a xlink:title=" ">
<path fill="none" stroke="#63b8ff" d="M513.97,-110.09C545,-101.26 592.46,-87.74 626.74,-77.98"/>
<polygon fill="#63b8ff" stroke="#63b8ff" points="627.26,-81.47 635.92,-75.37 625.34,-74.74 627.26,-81.47"/>
</a>
</g>
</g>
<!-- Node13&#45;&gt;Node8 -->
<g id="edge17_Node000013_Node000008" class="edge">
<title>Node13&#45;&gt;Node8</title>
<g id="a_edge17_Node000013_Node000008"><a xlink:title=" ">
<path fill="none" stroke="#63b8ff" d="M509.08,-54.84C491.47,-46.54 465.09,-34.11 444.79,-24.54"/>
<polygon fill="#63b8ff" stroke="#63b8ff" points="446.42,-21.44 435.88,-20.35 443.44,-27.78 446.42,-21.44"/>
</a>
</g>
</g>
<!-- Node15 -->
<g id="Node000015" class="node">
<title>Node15</title>
<g id="a_Node000015"><a xlink:href="_widgets_8h.html" target="_top" xlink:title=" ">
<polygon fill="white" stroke="#666666" points="673.25,-19.25 555.25,-19.25 555.25,0 673.25,0 673.25,-19.25"/>
<text text-anchor="middle" x="614.25" y="-5.75" font-family="Helvetica,sans-Serif" font-size="10.00">sgui/Widgets/Widgets.h</text>
</a>
</g>
</g>
<!-- Node14&#45;&gt;Node15 -->
<g id="edge19_Node000014_Node000015" class="edge">
<title>Node14&#45;&gt;Node15</title>
<g id="a_edge19_Node000014_Node000015"><a xlink:title=" ">
<path fill="none" stroke="#63b8ff" d="M660.17,-55.08C652.41,-47.57 641.04,-36.56 631.55,-27.38"/>
<polygon fill="#63b8ff" stroke="#63b8ff" points="634.24,-25.1 624.62,-20.66 629.37,-30.13 634.24,-25.1"/>
</a>
</g>
</g>
<!-- Node16 -->
<g id="Node000016" class="node">
<title>Node16</title>
<g id="a_Node000016"><a xlink:href="_item_states_8h.html" target="_top" xlink:title=" ">
<polygon fill="white" stroke="#666666" points="821.62,-19.25 690.88,-19.25 690.88,0 821.62,0 821.62,-19.25"/>
<text text-anchor="middle" x="756.25" y="-5.75" font-family="Helvetica,sans-Serif" font-size="10.00">sgui/Widgets/ItemStates.h</text>
</a>
</g>
</g>
<!-- Node14&#45;&gt;Node16 -->
<g id="edge20_Node000014_Node000016" class="edge">
<title>Node14&#45;&gt;Node16</title>
<g id="a_edge20_Node000014_Node000016"><a xlink:title=" ">
<path fill="none" stroke="#63b8ff" d="M684.01,-54.84C697.13,-46.81 716.57,-34.91 731.98,-25.48"/>
<polygon fill="#63b8ff" stroke="#63b8ff" points="733.43,-28.7 740.13,-20.49 729.77,-22.73 733.43,-28.7"/>
</a>
</g>
</g>
</g>
</svg>
