<?xml version="1.0" encoding="UTF-8" standalone="no"?>
<!DOCTYPE svg PUBLIC "-//W3C//DTD SVG 1.1//EN"
 "http://www.w3.org/Graphics/SVG/1.1/DTD/svg11.dtd">
<!-- Generated by graphviz version 12.2.1 (20241206.2353)
 -->
<!-- Title: /github/workspace/src/sgui/Serialization/LoadTextureAtlas.cpp Pages: 1 -->
<svg width="1330pt" height="415pt"
 viewBox="0.00 0.00 1329.61 415.00" xmlns="http://www.w3.org/2000/svg" xmlns:xlink="http://www.w3.org/1999/xlink">
<g id="graph0" class="graph" transform="scale(1 1) rotate(0) translate(4 411)">
<title>/github/workspace/src/sgui/Serialization/LoadTextureAtlas.cpp</title>
<!-- Node1 -->
<g id="Node000001" class="node">
<title>Node1</title>
<g id="a_Node000001"><a xlink:title=" ">
<polygon fill="#999999" stroke="#666666" points="840.62,-407 691.12,-407 691.12,-365.25 840.62,-365.25 840.62,-407"/>
<text text-anchor="start" x="699.12" y="-393.5" font-family="Helvetica,sans-Serif" font-size="10.00">/github/workspace/src</text>
<text text-anchor="start" x="699.12" y="-382.25" font-family="Helvetica,sans-Serif" font-size="10.00">/sgui/Serialization/LoadTexture</text>
<text text-anchor="middle" x="765.88" y="-371" font-family="Helvetica,sans-Serif" font-size="10.00">Atlas.cpp</text>
</a>
</g>
</g>
<!-- Node2 -->
<g id="Node000002" class="node">
<title>Node2</title>
<g id="a_Node000002"><a xlink:href="_load_texture_atlas_8h.html" target="_top" xlink:title=" ">
<polygon fill="white" stroke="#666666" points="595.38,-329.25 492.38,-329.25 492.38,-298.75 595.38,-298.75 595.38,-329.25"/>
<text text-anchor="start" x="500.38" y="-315.75" font-family="Helvetica,sans-Serif" font-size="10.00">sgui/Serialization</text>
<text text-anchor="middle" x="543.88" y="-304.5" font-family="Helvetica,sans-Serif" font-size="10.00">/LoadTextureAtlas.h</text>
</a>
</g>
</g>
<!-- Node1&#45;&gt;Node2 -->
<g id="edge1_Node000001_Node000002" class="edge">
<title>Node1&#45;&gt;Node2</title>
<g id="a_edge1_Node000001_Node000002"><a xlink:title=" ">
<path fill="none" stroke="#63b8ff" d="M701.66,-364.84C669.96,-354.83 632.02,-342.84 601.29,-333.14"/>
<polygon fill="#63b8ff" stroke="#63b8ff" points="602.35,-329.8 591.76,-330.13 600.24,-336.48 602.35,-329.8"/>
</a>
</g>
</g>
<!-- Node4 -->
<g id="Node000004" class="node">
<title>Node4</title>
<g id="a_Node000004"><a xlink:href="_texture_atlas_8h.html" target="_top" xlink:title=" ">
<polygon fill="white" stroke="#666666" points="994.25,-257.12 845.5,-257.12 845.5,-237.88 994.25,-237.88 994.25,-257.12"/>
<text text-anchor="middle" x="919.88" y="-243.62" font-family="Helvetica,sans-Serif" font-size="10.00">sgui/Resources/TextureAtlas.h</text>
</a>
</g>
</g>
<!-- Node1&#45;&gt;Node4 -->
<g id="edge15_Node000001_Node000004" class="edge">
<title>Node1&#45;&gt;Node4</title>
<g id="a_edge15_Node000001_Node000004"><a xlink:title=" ">
<path fill="none" stroke="#63b8ff" d="M788.6,-364.97C819.12,-337.89 872.78,-290.28 901.12,-265.14"/>
<polygon fill="#63b8ff" stroke="#63b8ff" points="903.4,-267.79 908.56,-258.54 898.76,-262.56 903.4,-267.79"/>
</a>
</g>
</g>
<!-- Node10 -->
<g id="Node000010" class="node">
<title>Node10</title>
<g id="a_Node000010"><a xlink:href="_serialize_s_f_m_l_8h.html" target="_top" xlink:title=" ">
<polygon fill="white" stroke="#666666" points="392,-262.75 301.75,-262.75 301.75,-232.25 392,-232.25 392,-262.75"/>
<text text-anchor="start" x="309.75" y="-249.25" font-family="Helvetica,sans-Serif" font-size="10.00">sgui/Serialization</text>
<text text-anchor="middle" x="346.88" y="-238" font-family="Helvetica,sans-Serif" font-size="10.00">/SerializeSFML.h</text>
</a>
</g>
</g>
<!-- Node1&#45;&gt;Node10 -->
<g id="edge46_Node000001_Node000010" class="edge">
<title>Node1&#45;&gt;Node10</title>
<g id="a_edge46_Node000001_Node000010"><a xlink:title=" ">
<path fill="none" stroke="#63b8ff" d="M690.65,-377.35C632.48,-369.68 550.7,-355.2 482.88,-329.25 443.36,-314.13 402.14,-287.96 375.59,-269.52"/>
<polygon fill="#63b8ff" stroke="#63b8ff" points="377.93,-266.88 367.74,-263.98 373.89,-272.6 377.93,-266.88"/>
</a>
</g>
</g>
<!-- Node14 -->
<g id="Node000014" class="node">
<title>Node14</title>
<g id="a_Node000014"><a xlink:href="_load_json_8h.html" target="_top" xlink:title=" ">
<polygon fill="white" stroke="#666666" points="1057.62,-329.25 968.12,-329.25 968.12,-298.75 1057.62,-298.75 1057.62,-329.25"/>
<text text-anchor="start" x="976.12" y="-315.75" font-family="Helvetica,sans-Serif" font-size="10.00">sgui/Serialization</text>
<text text-anchor="middle" x="1012.88" y="-304.5" font-family="Helvetica,sans-Serif" font-size="10.00">/LoadJson.h</text>
</a>
</g>
</g>
<!-- Node1&#45;&gt;Node14 -->
<g id="edge16_Node000001_Node000014" class="edge">
<title>Node1&#45;&gt;Node14</title>
<g id="a_edge16_Node000001_Node000014"><a xlink:title=" ">
<path fill="none" stroke="#63b8ff" d="M837.32,-364.84C875.41,-354.03 921.59,-340.92 957.02,-330.86"/>
<polygon fill="#63b8ff" stroke="#63b8ff" points="957.53,-334.35 966.19,-328.25 955.62,-327.62 957.53,-334.35"/>
</a>
</g>
</g>
<!-- Node17 -->
<g id="Node000017" class="node">
<title>Node17</title>
<g id="a_Node000017"><a xlink:href="_serialize_g_u_i_8h.html" target="_top" xlink:title=" ">
<polygon fill="white" stroke="#666666" points="810.62,-329.25 721.12,-329.25 721.12,-298.75 810.62,-298.75 810.62,-329.25"/>
<text text-anchor="start" x="729.12" y="-315.75" font-family="Helvetica,sans-Serif" font-size="10.00">sgui/Serialization</text>
<text text-anchor="middle" x="765.88" y="-304.5" font-family="Helvetica,sans-Serif" font-size="10.00">/SerializeGUI.h</text>
</a>
</g>
</g>
<!-- Node1&#45;&gt;Node17 -->
<g id="edge20_Node000001_Node000017" class="edge">
<title>Node1&#45;&gt;Node17</title>
<g id="a_edge20_Node000001_Node000017"><a xlink:title=" ">
<path fill="none" stroke="#63b8ff" d="M765.88,-364.84C765.88,-357.32 765.88,-348.69 765.88,-340.75"/>
<polygon fill="#63b8ff" stroke="#63b8ff" points="769.38,-340.96 765.88,-330.96 762.38,-340.96 769.38,-340.96"/>
</a>
</g>
</g>
<!-- Node3 -->
<g id="Node000003" class="node">
<title>Node3</title>
<g id="a_Node000003"><a xlink:title=" ">
<polygon fill="#e0e0e0" stroke="#999999" points="433.38,-190.62 336.38,-190.62 336.38,-171.38 433.38,-171.38 433.38,-190.62"/>
<text text-anchor="middle" x="384.88" y="-177.12" font-family="Helvetica,sans-Serif" font-size="10.00">nlohmann/json.hpp</text>
</a>
</g>
</g>
<!-- Node2&#45;&gt;Node3 -->
<g id="edge2_Node000002_Node000003" class="edge">
<title>Node2&#45;&gt;Node3</title>
<g id="a_edge2_Node000002_Node000003"><a xlink:title=" ">
<path fill="none" stroke="#63b8ff" d="M526.25,-298.48C496.36,-273.85 435.91,-224.05 404.63,-198.27"/>
<polygon fill="#63b8ff" stroke="#63b8ff" points="407.03,-195.72 397.09,-192.06 402.58,-201.12 407.03,-195.72"/>
</a>
</g>
</g>
<!-- Node2&#45;&gt;Node4 -->
<g id="edge3_Node000002_Node000004" class="edge">
<title>Node2&#45;&gt;Node4</title>
<g id="a_edge3_Node000002_Node000004"><a xlink:title=" ">
<path fill="none" stroke="#63b8ff" d="M595.74,-304.11C654.31,-294.07 752.44,-277.24 836.88,-262.75 842.91,-261.71 849.19,-260.64 855.48,-259.56"/>
<polygon fill="#63b8ff" stroke="#63b8ff" points="855.99,-263.02 865.25,-257.88 854.8,-256.12 855.99,-263.02"/>
</a>
</g>
</g>
<!-- Node2&#45;&gt;Node10 -->
<g id="edge9_Node000002_Node000010" class="edge">
<title>Node2&#45;&gt;Node10</title>
<g id="a_edge9_Node000002_Node000010"><a xlink:title=" ">
<path fill="none" stroke="#63b8ff" d="M499.17,-298.36C470.56,-289 433.21,-276.77 402.66,-266.76"/>
<polygon fill="#63b8ff" stroke="#63b8ff" points="403.77,-263.45 393.18,-263.66 401.59,-270.1 403.77,-263.45"/>
</a>
</g>
</g>
<!-- Node5 -->
<g id="Node000005" class="node">
<title>Node5</title>
<g id="a_Node000005"><a xlink:title=" ">
<polygon fill="#e0e0e0" stroke="#999999" points="1042.88,-129.75 1002.88,-129.75 1002.88,-110.5 1042.88,-110.5 1042.88,-129.75"/>
<text text-anchor="middle" x="1022.88" y="-116.25" font-family="Helvetica,sans-Serif" font-size="10.00">string</text>
</a>
</g>
</g>
<!-- Node4&#45;&gt;Node5 -->
<g id="edge4_Node000004_Node000005" class="edge">
<title>Node4&#45;&gt;Node5</title>
<g id="a_edge4_Node000004_Node000005"><a xlink:title=" ">
<path fill="none" stroke="#63b8ff" d="M976.08,-237.38C1037.8,-226.79 1129.6,-209.13 1139.88,-196.25 1148.33,-185.65 1147.56,-176.91 1139.88,-165.75 1134.76,-158.32 1087.12,-141.78 1054.23,-131.05"/>
<polygon fill="#63b8ff" stroke="#63b8ff" points="1055.34,-127.73 1044.75,-127.99 1053.19,-134.39 1055.34,-127.73"/>
</a>
</g>
</g>
<!-- Node6 -->
<g id="Node000006" class="node">
<title>Node6</title>
<g id="a_Node000006"><a xlink:title=" ">
<polygon fill="#e0e0e0" stroke="#999999" points="1062.5,-190.62 1017.25,-190.62 1017.25,-171.38 1062.5,-171.38 1062.5,-190.62"/>
<text text-anchor="middle" x="1039.88" y="-177.12" font-family="Helvetica,sans-Serif" font-size="10.00">cstdint</text>
</a>
</g>
</g>
<!-- Node4&#45;&gt;Node6 -->
<g id="edge5_Node000004_Node000006" class="edge">
<title>Node4&#45;&gt;Node6</title>
<g id="a_edge5_Node000004_Node000006"><a xlink:title=" ">
<path fill="none" stroke="#63b8ff" d="M936.81,-237.4C956.65,-226.74 989.75,-208.94 1013.07,-196.41"/>
<polygon fill="#63b8ff" stroke="#63b8ff" points="1014.54,-199.59 1021.69,-191.77 1011.22,-193.43 1014.54,-199.59"/>
</a>
</g>
</g>
<!-- Node7 -->
<g id="Node000007" class="node">
<title>Node7</title>
<g id="a_Node000007"><a xlink:title=" ">
<polygon fill="#e0e0e0" stroke="#999999" points="1130.75,-190.62 1081,-190.62 1081,-171.38 1130.75,-171.38 1130.75,-190.62"/>
<text text-anchor="middle" x="1105.88" y="-177.12" font-family="Helvetica,sans-Serif" font-size="10.00">optional</text>
</a>
</g>
</g>
<!-- Node4&#45;&gt;Node7 -->
<g id="edge6_Node000004_Node000007" class="edge">
<title>Node4&#45;&gt;Node7</title>
<g id="a_edge6_Node000004_Node000007"><a xlink:title=" ">
<path fill="none" stroke="#63b8ff" d="M949.53,-237.44C980.34,-227.86 1029.84,-211.98 1071.88,-196.25 1072.82,-195.9 1073.78,-195.53 1074.74,-195.16"/>
<polygon fill="#63b8ff" stroke="#63b8ff" points="1075.74,-198.53 1083.71,-191.56 1073.13,-192.04 1075.74,-198.53"/>
</a>
</g>
</g>
<!-- Node8 -->
<g id="Node000008" class="node">
<title>Node8</title>
<g id="a_Node000008"><a xlink:title=" ">
<polygon fill="#e0e0e0" stroke="#999999" points="961.25,-190.62 878.5,-190.62 878.5,-171.38 961.25,-171.38 961.25,-190.62"/>
<text text-anchor="middle" x="919.88" y="-177.12" font-family="Helvetica,sans-Serif" font-size="10.00">unordered_map</text>
</a>
</g>
</g>
<!-- Node4&#45;&gt;Node8 -->
<g id="edge7_Node000004_Node000008" class="edge">
<title>Node4&#45;&gt;Node8</title>
<g id="a_edge7_Node000004_Node000008"><a xlink:title=" ">
<path fill="none" stroke="#63b8ff" d="M919.88,-237.53C919.88,-228.48 919.88,-214.2 919.88,-202.38"/>
<polygon fill="#63b8ff" stroke="#63b8ff" points="923.38,-202.41 919.88,-192.41 916.38,-202.41 923.38,-202.41"/>
</a>
</g>
</g>
<!-- Node9 -->
<g id="Node000009" class="node">
<title>Node9</title>
<g id="a_Node000009"><a xlink:title=" ">
<polygon fill="#e0e0e0" stroke="#999999" points="985,-129.75 858.75,-129.75 858.75,-110.5 985,-110.5 985,-129.75"/>
<text text-anchor="middle" x="921.88" y="-116.25" font-family="Helvetica,sans-Serif" font-size="10.00">SFML/Graphics/Rect.hpp</text>
</a>
</g>
</g>
<!-- Node4&#45;&gt;Node9 -->
<g id="edge8_Node000004_Node000009" class="edge">
<title>Node4&#45;&gt;Node9</title>
<g id="a_edge8_Node000004_Node000009"><a xlink:title=" ">
<path fill="none" stroke="#63b8ff" d="M933.45,-237.61C945.59,-228.77 962.55,-214 969.88,-196.25 975.05,-183.72 975.29,-178.18 969.88,-165.75 964.83,-154.17 955.14,-144.24 945.77,-136.71"/>
<polygon fill="#63b8ff" stroke="#63b8ff" points="948.04,-134.04 937.92,-130.91 943.88,-139.67 948.04,-134.04"/>
</a>
</g>
</g>
<!-- Node10&#45;&gt;Node3 -->
<g id="edge10_Node000010_Node000003" class="edge">
<title>Node10&#45;&gt;Node3</title>
<g id="a_edge10_Node000010_Node000003"><a xlink:title=" ">
<path fill="none" stroke="#63b8ff" d="M355.5,-231.86C360.97,-222.58 368.09,-210.5 373.95,-200.55"/>
<polygon fill="#63b8ff" stroke="#63b8ff" points="376.85,-202.52 378.91,-192.13 370.82,-198.97 376.85,-202.52"/>
</a>
</g>
</g>
<!-- Node10&#45;&gt;Node9 -->
<g id="edge11_Node000010_Node000009" class="edge">
<title>Node10&#45;&gt;Node9</title>
<g id="a_edge11_Node000010_Node000009"><a xlink:title=" ">
<path fill="none" stroke="#63b8ff" d="M336.37,-232.01C324.82,-214.15 309.98,-183.96 326.88,-165.75 361.55,-128.37 694.78,-122.09 846.86,-121.19"/>
<polygon fill="#63b8ff" stroke="#63b8ff" points="846.88,-124.69 856.86,-121.13 846.84,-117.69 846.88,-124.69"/>
</a>
</g>
</g>
<!-- Node11 -->
<g id="Node000011" class="node">
<title>Node11</title>
<g id="a_Node000011"><a xlink:title=" ">
<polygon fill="#e0e0e0" stroke="#999999" points="510.12,-129.75 381.62,-129.75 381.62,-110.5 510.12,-110.5 510.12,-129.75"/>
<text text-anchor="middle" x="445.88" y="-116.25" font-family="Helvetica,sans-Serif" font-size="10.00">SFML/Graphics/Color.hpp</text>
</a>
</g>
</g>
<!-- Node10&#45;&gt;Node11 -->
<g id="edge12_Node000010_Node000011" class="edge">
<title>Node10&#45;&gt;Node11</title>
<g id="a_edge12_Node000010_Node000011"><a xlink:title=" ">
<path fill="none" stroke="#63b8ff" d="M301.31,-240.94C240.29,-231.7 143.73,-209.68 180.88,-165.75 204.7,-137.57 300.27,-127.18 369.82,-123.35"/>
<polygon fill="#63b8ff" stroke="#63b8ff" points="369.86,-126.85 379.67,-122.85 369.5,-119.86 369.86,-126.85"/>
</a>
</g>
</g>
<!-- Node12 -->
<g id="Node000012" class="node">
<title>Node12</title>
<g id="a_Node000012"><a xlink:title=" ">
<polygon fill="#e0e0e0" stroke="#999999" points="133.75,-190.62 0,-190.62 0,-171.38 133.75,-171.38 133.75,-190.62"/>
<text text-anchor="middle" x="66.88" y="-177.12" font-family="Helvetica,sans-Serif" font-size="10.00">SFML/System/Vector3.hpp</text>
</a>
</g>
</g>
<!-- Node10&#45;&gt;Node12 -->
<g id="edge13_Node000010_Node000012" class="edge">
<title>Node10&#45;&gt;Node12</title>
<g id="a_edge13_Node000010_Node000012"><a xlink:title=" ">
<path fill="none" stroke="#63b8ff" d="M301.26,-235.99C250.74,-224.35 169.5,-205.64 117.16,-193.58"/>
<polygon fill="#63b8ff" stroke="#63b8ff" points="118.14,-190.22 107.61,-191.38 116.57,-197.04 118.14,-190.22"/>
</a>
</g>
</g>
<!-- Node13 -->
<g id="Node000013" class="node">
<title>Node13</title>
<g id="a_Node000013"><a xlink:href="_macro_8h.html" target="_top" xlink:title=" ">
<polygon fill="white" stroke="#666666" points="279.62,-196.25 190.12,-196.25 190.12,-165.75 279.62,-165.75 279.62,-196.25"/>
<text text-anchor="start" x="198.12" y="-182.75" font-family="Helvetica,sans-Serif" font-size="10.00">sgui/Serialization</text>
<text text-anchor="middle" x="234.88" y="-171.5" font-family="Helvetica,sans-Serif" font-size="10.00">/Macro.h</text>
</a>
</g>
</g>
<!-- Node10&#45;&gt;Node13 -->
<g id="edge14_Node000010_Node000013" class="edge">
<title>Node10&#45;&gt;Node13</title>
<g id="a_edge14_Node000010_Node000013"><a xlink:title=" ">
<path fill="none" stroke="#63b8ff" d="M321.46,-231.86C306.28,-223.12 286.78,-211.89 270.12,-202.3"/>
<polygon fill="#63b8ff" stroke="#63b8ff" points="271.91,-199.29 261.5,-197.33 268.42,-205.36 271.91,-199.29"/>
</a>
</g>
</g>
<!-- Node14&#45;&gt;Node3 -->
<g id="edge19_Node000014_Node000003" class="edge">
<title>Node14&#45;&gt;Node3</title>
<g id="a_edge19_Node000014_Node000003"><a xlink:title=" ">
<path fill="none" stroke="#63b8ff" d="M967.78,-307.66C905.85,-299.91 791.18,-284.13 694.88,-262.75 647.02,-252.13 636.25,-244.86 588.88,-232.25 523.87,-214.95 507.17,-212.41 441.88,-196.25 438.72,-195.47 435.46,-194.66 432.19,-193.85"/>
<polygon fill="#63b8ff" stroke="#63b8ff" points="433.07,-190.46 422.52,-191.44 431.38,-197.25 433.07,-190.46"/>
</a>
</g>
</g>
<!-- Node15 -->
<g id="Node000015" class="node">
<title>Node15</title>
<g id="a_Node000015"><a xlink:title=" ">
<polygon fill="#e0e0e0" stroke="#999999" points="1099.75,-257.12 1050,-257.12 1050,-237.88 1099.75,-237.88 1099.75,-257.12"/>
<text text-anchor="middle" x="1074.88" y="-243.62" font-family="Helvetica,sans-Serif" font-size="10.00">iomanip</text>
</a>
</g>
</g>
<!-- Node14&#45;&gt;Node15 -->
<g id="edge17_Node000014_Node000015" class="edge">
<title>Node14&#45;&gt;Node15</title>
<g id="a_edge17_Node000014_Node000015"><a xlink:title=" ">
<path fill="none" stroke="#63b8ff" d="M1026.94,-298.36C1036.34,-288.59 1048.73,-275.7 1058.56,-265.48"/>
<polygon fill="#63b8ff" stroke="#63b8ff" points="1060.94,-268.05 1065.35,-258.41 1055.89,-263.2 1060.94,-268.05"/>
</a>
</g>
</g>
<!-- Node16 -->
<g id="Node000016" class="node">
<title>Node16</title>
<g id="a_Node000016"><a xlink:title=" ">
<polygon fill="#e0e0e0" stroke="#999999" points="1166.38,-257.12 1117.38,-257.12 1117.38,-237.88 1166.38,-237.88 1166.38,-257.12"/>
<text text-anchor="middle" x="1141.88" y="-243.62" font-family="Helvetica,sans-Serif" font-size="10.00">fstream</text>
</a>
</g>
</g>
<!-- Node14&#45;&gt;Node16 -->
<g id="edge18_Node000014_Node000016" class="edge">
<title>Node14&#45;&gt;Node16</title>
<g id="a_edge18_Node000014_Node000016"><a xlink:title=" ">
<path fill="none" stroke="#63b8ff" d="M1042.15,-298.36C1063.54,-287.67 1092.4,-273.24 1113.57,-262.65"/>
<polygon fill="#63b8ff" stroke="#63b8ff" points="1115.12,-265.79 1122.5,-258.19 1111.99,-259.53 1115.12,-265.79"/>
</a>
</g>
</g>
<!-- Node17&#45;&gt;Node3 -->
<g id="edge21_Node000017_Node000003" class="edge">
<title>Node17&#45;&gt;Node3</title>
<g id="a_edge21_Node000017_Node000003"><a xlink:title=" ">
<path fill="none" stroke="#63b8ff" d="M723.28,-298.35C648.08,-272.5 493.02,-219.18 421.94,-194.75"/>
<polygon fill="#63b8ff" stroke="#63b8ff" points="423.31,-191.51 412.71,-191.57 421.03,-198.13 423.31,-191.51"/>
</a>
</g>
</g>
<!-- Node17&#45;&gt;Node4 -->
<g id="edge44_Node000017_Node000004" class="edge">
<title>Node17&#45;&gt;Node4</title>
<g id="a_edge44_Node000017_Node000004"><a xlink:title=" ">
<path fill="none" stroke="#63b8ff" d="M800.82,-298.36C826.95,-287.42 862.4,-272.57 887.81,-261.93"/>
<polygon fill="#63b8ff" stroke="#63b8ff" points="889.1,-265.19 896.97,-258.09 886.39,-258.73 889.1,-265.19"/>
</a>
</g>
</g>
<!-- Node17&#45;&gt;Node10 -->
<g id="edge45_Node000017_Node000010" class="edge">
<title>Node17&#45;&gt;Node10</title>
<g id="a_edge45_Node000017_Node000010"><a xlink:title=" ">
<path fill="none" stroke="#63b8ff" d="M720.64,-306.04C643.74,-294.2 487.7,-270.18 403.61,-257.23"/>
<polygon fill="#63b8ff" stroke="#63b8ff" points="404.15,-253.78 393.74,-255.71 403.09,-260.69 404.15,-253.78"/>
</a>
</g>
</g>
<!-- Node18 -->
<g id="Node000018" class="node">
<title>Node18</title>
<g id="a_Node000018"><a xlink:href="_panel_8h.html" target="_top" xlink:title=" ">
<polygon fill="white" stroke="#666666" points="1294.62,-190.62 1187.12,-190.62 1187.12,-171.38 1294.62,-171.38 1294.62,-190.62"/>
<text text-anchor="middle" x="1240.88" y="-177.12" font-family="Helvetica,sans-Serif" font-size="10.00">sgui/Widgets/Panel.h</text>
</a>
</g>
</g>
<!-- Node17&#45;&gt;Node18 -->
<g id="edge22_Node000017_Node000018" class="edge">
<title>Node17&#45;&gt;Node18</title>
<g id="a_edge22_Node000017_Node000018"><a xlink:title=" ">
<path fill="none" stroke="#63b8ff" d="M811.1,-309.69C860.32,-304.68 940.35,-292.39 1002.88,-262.75 1022.44,-253.47 1021.48,-241.89 1040.88,-232.25 1065.84,-219.84 1134.43,-203.94 1184.34,-193.38"/>
<polygon fill="#63b8ff" stroke="#63b8ff" points="1184.77,-196.87 1193.84,-191.39 1183.33,-190.02 1184.77,-196.87"/>
</a>
</g>
</g>
<!-- Node25 -->
<g id="Node000025" class="node">
<title>Node25</title>
<g id="a_Node000025"><a xlink:href="_layout_8h.html" target="_top" xlink:title=" ">
<polygon fill="white" stroke="#666666" points="827.5,-257.12 704.25,-257.12 704.25,-237.88 827.5,-237.88 827.5,-257.12"/>
<text text-anchor="middle" x="765.88" y="-243.62" font-family="Helvetica,sans-Serif" font-size="10.00">sgui/Resources/Layout.h</text>
</a>
</g>
</g>
<!-- Node17&#45;&gt;Node25 -->
<g id="edge33_Node000017_Node000025" class="edge">
<title>Node17&#45;&gt;Node25</title>
<g id="a_edge33_Node000017_Node000025"><a xlink:title=" ">
<path fill="none" stroke="#63b8ff" d="M765.88,-298.36C765.88,-289.58 765.88,-278.27 765.88,-268.65"/>
<polygon fill="#63b8ff" stroke="#63b8ff" points="769.38,-268.84 765.88,-258.84 762.38,-268.84 769.38,-268.84"/>
</a>
</g>
</g>
<!-- Node18&#45;&gt;Node5 -->
<g id="edge23_Node000018_Node000005" class="edge">
<title>Node18&#45;&gt;Node5</title>
<g id="a_edge23_Node000018_Node000005"><a xlink:title=" ">
<path fill="none" stroke="#63b8ff" d="M1205.61,-170.95C1169.81,-161.7 1112.52,-146.69 1054.06,-130.31"/>
<polygon fill="#63b8ff" stroke="#63b8ff" points="1055.17,-126.98 1044.59,-127.64 1053.27,-133.72 1055.17,-126.98"/>
</a>
</g>
</g>
<!-- Node18&#45;&gt;Node9 -->
<g id="edge26_Node000018_Node000009" class="edge">
<title>Node18&#45;&gt;Node9</title>
<g id="a_edge26_Node000018_Node000009"><a xlink:title=" ">
<path fill="none" stroke="#63b8ff" d="M1191.73,-170.93C1135.3,-160.51 1042.71,-143.43 982.02,-132.23"/>
<polygon fill="#63b8ff" stroke="#63b8ff" points="983.03,-128.85 972.56,-130.48 981.76,-135.74 983.03,-128.85"/>
</a>
</g>
</g>
<!-- Node19 -->
<g id="Node000019" class="node">
<title>Node19</title>
<g id="a_Node000019"><a xlink:title=" ">
<polygon fill="#e0e0e0" stroke="#999999" points="1269.88,-129.75 1211.88,-129.75 1211.88,-110.5 1269.88,-110.5 1269.88,-129.75"/>
<text text-anchor="middle" x="1240.88" y="-116.25" font-family="Helvetica,sans-Serif" font-size="10.00">functional</text>
</a>
</g>
</g>
<!-- Node18&#45;&gt;Node19 -->
<g id="edge24_Node000018_Node000019" class="edge">
<title>Node18&#45;&gt;Node19</title>
<g id="a_edge24_Node000018_Node000019"><a xlink:title=" ">
<path fill="none" stroke="#63b8ff" d="M1240.88,-171.06C1240.88,-163.28 1240.88,-151.7 1240.88,-141.66"/>
<polygon fill="#63b8ff" stroke="#63b8ff" points="1244.38,-141.66 1240.88,-131.66 1237.38,-141.66 1244.38,-141.66"/>
</a>
</g>
</g>
<!-- Node20 -->
<g id="Node000020" class="node">
<title>Node20</title>
<g id="a_Node000020"><a xlink:title=" ">
<polygon fill="#e0e0e0" stroke="#999999" points="1028.75,-19.25 895,-19.25 895,0 1028.75,0 1028.75,-19.25"/>
<text text-anchor="middle" x="961.88" y="-5.75" font-family="Helvetica,sans-Serif" font-size="10.00">SFML/System/Vector2.hpp</text>
</a>
</g>
</g>
<!-- Node18&#45;&gt;Node20 -->
<g id="edge25_Node000018_Node000020" class="edge">
<title>Node18&#45;&gt;Node20</title>
<g id="a_edge25_Node000018_Node000020"><a xlink:title=" ">
<path fill="none" stroke="#63b8ff" d="M1253.04,-171.05C1281.07,-149.41 1345.31,-93.22 1311.88,-55.25 1294.21,-35.18 1137.85,-21.73 1040.19,-15.21"/>
<polygon fill="#63b8ff" stroke="#63b8ff" points="1040.6,-11.73 1030.39,-14.56 1040.14,-18.71 1040.6,-11.73"/>
</a>
</g>
</g>
<!-- Node21 -->
<g id="Node000021" class="node">
<title>Node21</title>
<g id="a_Node000021"><a xlink:href="_options_8h.html" target="_top" xlink:title=" ">
<polygon fill="white" stroke="#666666" points="1177.12,-129.75 1060.62,-129.75 1060.62,-110.5 1177.12,-110.5 1177.12,-129.75"/>
<text text-anchor="middle" x="1118.88" y="-116.25" font-family="Helvetica,sans-Serif" font-size="10.00">sgui/Widgets/Options.h</text>
</a>
</g>
</g>
<!-- Node18&#45;&gt;Node21 -->
<g id="edge27_Node000018_Node000021" class="edge">
<title>Node18&#45;&gt;Node21</title>
<g id="a_edge27_Node000018_Node000021"><a xlink:title=" ">
<path fill="none" stroke="#63b8ff" d="M1222.08,-170.93C1202.23,-161.35 1170.69,-146.13 1147.69,-135.03"/>
<polygon fill="#63b8ff" stroke="#63b8ff" points="1149.38,-131.96 1138.85,-130.77 1146.34,-138.27 1149.38,-131.96"/>
</a>
</g>
</g>
<!-- Node21&#45;&gt;Node20 -->
<g id="edge28_Node000021_Node000020" class="edge">
<title>Node21&#45;&gt;Node20</title>
<g id="a_edge28_Node000021_Node000020"><a xlink:title=" ">
<path fill="none" stroke="#63b8ff" d="M1095.71,-110.15C1076.63,-102.22 1049.33,-89.57 1027.88,-74.5 1008.58,-60.94 989.56,-41.74 976.93,-27.93"/>
<polygon fill="#63b8ff" stroke="#63b8ff" points="979.56,-25.62 970.29,-20.5 974.34,-30.29 979.56,-25.62"/>
</a>
</g>
</g>
<!-- Node22 -->
<g id="Node000022" class="node">
<title>Node22</title>
<g id="a_Node000022"><a xlink:href="_constraints_8h.html" target="_top" xlink:title=" ">
<polygon fill="white" stroke="#666666" points="981,-74.5 848.75,-74.5 848.75,-55.25 981,-55.25 981,-74.5"/>
<text text-anchor="middle" x="914.88" y="-61" font-family="Helvetica,sans-Serif" font-size="10.00">sgui/Widgets/Constraints.h</text>
</a>
</g>
</g>
<!-- Node21&#45;&gt;Node22 -->
<g id="edge29_Node000021_Node000022" class="edge">
<title>Node21&#45;&gt;Node22</title>
<g id="a_edge29_Node000021_Node000022"><a xlink:title=" ">
<path fill="none" stroke="#63b8ff" d="M1084.27,-110.09C1050.27,-101.22 998.2,-87.62 960.76,-77.85"/>
<polygon fill="#63b8ff" stroke="#63b8ff" points="961.67,-74.47 951.12,-75.33 959.91,-81.25 961.67,-74.47"/>
</a>
</g>
</g>
<!-- Node23 -->
<g id="Node000023" class="node">
<title>Node23</title>
<g id="a_Node000023"><a xlink:href="_widgets_8h.html" target="_top" xlink:title=" ">
<polygon fill="white" stroke="#666666" points="1302.88,-74.5 1184.88,-74.5 1184.88,-55.25 1302.88,-55.25 1302.88,-74.5"/>
<text text-anchor="middle" x="1243.88" y="-61" font-family="Helvetica,sans-Serif" font-size="10.00">sgui/Widgets/Widgets.h</text>
</a>
</g>
</g>
<!-- Node21&#45;&gt;Node23 -->
<g id="edge31_Node000021_Node000023" class="edge">
<title>Node21&#45;&gt;Node23</title>
<g id="a_edge31_Node000021_Node000023"><a xlink:title=" ">
<path fill="none" stroke="#63b8ff" d="M1140.08,-110.09C1159.83,-101.68 1189.55,-89.02 1212.13,-79.4"/>
<polygon fill="#63b8ff" stroke="#63b8ff" points="1213.35,-82.68 1221.17,-75.55 1210.6,-76.24 1213.35,-82.68"/>
</a>
</g>
</g>
<!-- Node24 -->
<g id="Node000024" class="node">
<title>Node24</title>
<g id="a_Node000024"><a xlink:href="_item_states_8h.html" target="_top" xlink:title=" ">
<polygon fill="white" stroke="#666666" points="1167.25,-74.5 1036.5,-74.5 1036.5,-55.25 1167.25,-55.25 1167.25,-74.5"/>
<text text-anchor="middle" x="1101.88" y="-61" font-family="Helvetica,sans-Serif" font-size="10.00">sgui/Widgets/ItemStates.h</text>
</a>
</g>
</g>
<!-- Node21&#45;&gt;Node24 -->
<g id="edge32_Node000021_Node000024" class="edge">
<title>Node21&#45;&gt;Node24</title>
<g id="a_edge32_Node000021_Node000024"><a xlink:title=" ">
<path fill="none" stroke="#63b8ff" d="M1116.07,-110.33C1113.94,-103.67 1110.93,-94.24 1108.23,-85.78"/>
<polygon fill="#63b8ff" stroke="#63b8ff" points="1111.58,-84.76 1105.2,-76.3 1104.91,-86.89 1111.58,-84.76"/>
</a>
</g>
</g>
<!-- Node22&#45;&gt;Node20 -->
<g id="edge30_Node000022_Node000020" class="edge">
<title>Node22&#45;&gt;Node20</title>
<g id="a_edge30_Node000022_Node000020"><a xlink:title=" ">
<path fill="none" stroke="#63b8ff" d="M922.64,-55.08C929.06,-47.8 938.39,-37.23 946.34,-28.23"/>
<polygon fill="#63b8ff" stroke="#63b8ff" points="948.95,-30.56 952.94,-20.74 943.7,-25.93 948.95,-30.56"/>
</a>
</g>
</g>
<!-- Node25&#45;&gt;Node5 -->
<g id="edge34_Node000025_Node000005" class="edge">
<title>Node25&#45;&gt;Node5</title>
<g id="a_edge34_Node000025_Node000005"><a xlink:title=" ">
<path fill="none" stroke="#63b8ff" d="M777.63,-237.69C790.88,-227.73 813.04,-210.97 831.88,-196.25 848.94,-182.91 850.66,-175.74 869.88,-165.75 917.81,-140.83 936.59,-145.26 991.84,-130.22"/>
<polygon fill="#63b8ff" stroke="#63b8ff" points="992.47,-133.68 1001.14,-127.59 990.57,-126.94 992.47,-133.68"/>
</a>
</g>
</g>
<!-- Node25&#45;&gt;Node8 -->
<g id="edge37_Node000025_Node000008" class="edge">
<title>Node25&#45;&gt;Node8</title>
<g id="a_edge37_Node000025_Node000008"><a xlink:title=" ">
<path fill="none" stroke="#63b8ff" d="M787.61,-237.4C813.75,-226.45 857.85,-207.98 887.88,-195.4"/>
<polygon fill="#63b8ff" stroke="#63b8ff" points="888.98,-198.73 896.85,-191.64 886.28,-192.28 888.98,-198.73"/>
</a>
</g>
</g>
<!-- Node25&#45;&gt;Node18 -->
<g id="edge42_Node000025_Node000018" class="edge">
<title>Node25&#45;&gt;Node18</title>
<g id="a_edge42_Node000025_Node000018"><a xlink:title=" ">
<path fill="none" stroke="#63b8ff" d="M808.2,-237.43C817.61,-235.57 827.56,-233.74 836.88,-232.25 970.8,-210.89 1005.39,-213.72 1139.88,-196.25 1151.39,-194.75 1163.62,-193.09 1175.46,-191.44"/>
<polygon fill="#63b8ff" stroke="#63b8ff" points="1175.74,-194.94 1185.15,-190.08 1174.77,-188.01 1175.74,-194.94"/>
</a>
</g>
</g>
<!-- Node26 -->
<g id="Node000026" class="node">
<title>Node26</title>
<g id="a_Node000026"><a xlink:title=" ">
<polygon fill="#e0e0e0" stroke="#999999" points="494.38,-190.62 451.38,-190.62 451.38,-171.38 494.38,-171.38 494.38,-190.62"/>
<text text-anchor="middle" x="472.88" y="-177.12" font-family="Helvetica,sans-Serif" font-size="10.00">vector</text>
</a>
</g>
</g>
<!-- Node25&#45;&gt;Node26 -->
<g id="edge35_Node000025_Node000026" class="edge">
<title>Node25&#45;&gt;Node26</title>
<g id="a_edge35_Node000025_Node000026"><a xlink:title=" ">
<path fill="none" stroke="#63b8ff" d="M710.02,-237.41C644.9,-226.54 541.42,-208.28 503.88,-196.25 502.91,-195.94 501.94,-195.61 500.96,-195.26"/>
<polygon fill="#63b8ff" stroke="#63b8ff" points="502.6,-192.15 492.02,-191.61 499.95,-198.63 502.6,-192.15"/>
</a>
</g>
</g>
<!-- Node27 -->
<g id="Node000027" class="node">
<title>Node27</title>
<g id="a_Node000027"><a xlink:title=" ">
<polygon fill="#e0e0e0" stroke="#999999" points="551.12,-190.62 512.62,-190.62 512.62,-171.38 551.12,-171.38 551.12,-190.62"/>
<text text-anchor="middle" x="531.88" y="-177.12" font-family="Helvetica,sans-Serif" font-size="10.00">utility</text>
</a>
</g>
</g>
<!-- Node25&#45;&gt;Node27 -->
<g id="edge36_Node000025_Node000027" class="edge">
<title>Node25&#45;&gt;Node27</title>
<g id="a_edge36_Node000025_Node000027"><a xlink:title=" ">
<path fill="none" stroke="#63b8ff" d="M714.52,-237.41C672.24,-229.12 611.13,-215.25 559.88,-196.25 559.39,-196.07 558.9,-195.88 558.41,-195.69"/>
<polygon fill="#63b8ff" stroke="#63b8ff" points="560.11,-192.62 549.55,-191.71 557.24,-199 560.11,-192.62"/>
</a>
</g>
</g>
<!-- Node28 -->
<g id="Node000028" class="node">
<title>Node28</title>
<g id="a_Node000028"><a xlink:href="_style_8h.html" target="_top" xlink:title=" ">
<polygon fill="white" stroke="#666666" points="823.12,-190.62 718.62,-190.62 718.62,-171.38 823.12,-171.38 823.12,-190.62"/>
<text text-anchor="middle" x="770.88" y="-177.12" font-family="Helvetica,sans-Serif" font-size="10.00">sgui/Widgets/Style.h</text>
</a>
</g>
</g>
<!-- Node25&#45;&gt;Node28 -->
<g id="edge38_Node000025_Node000028" class="edge">
<title>Node25&#45;&gt;Node28</title>
<g id="a_edge38_Node000025_Node000028"><a xlink:title=" ">
<path fill="none" stroke="#63b8ff" d="M766.57,-237.53C767.28,-228.39 768.4,-213.89 769.32,-202"/>
<polygon fill="#63b8ff" stroke="#63b8ff" points="772.79,-202.64 770.07,-192.4 765.81,-202.1 772.79,-202.64"/>
</a>
</g>
</g>
<!-- Node29 -->
<g id="Node000029" class="node">
<title>Node29</title>
<g id="a_Node000029"><a xlink:href="_layout_8tpp.html" target="_top" xlink:title=" ">
<polygon fill="white" stroke="#666666" points="700.62,-190.62 569.12,-190.62 569.12,-171.38 700.62,-171.38 700.62,-190.62"/>
<text text-anchor="middle" x="634.88" y="-177.12" font-family="Helvetica,sans-Serif" font-size="10.00">sgui/Resources/Layout.tpp</text>
</a>
</g>
</g>
<!-- Node25&#45;&gt;Node29 -->
<g id="edge43_Node000025_Node000029" class="edge">
<title>Node25&#45;&gt;Node29</title>
<g id="a_edge43_Node000025_Node000029"><a xlink:title=" ">
<path fill="none" stroke="#63b8ff" d="M747.38,-237.4C725.54,-226.64 688.95,-208.62 663.45,-196.07"/>
<polygon fill="#63b8ff" stroke="#63b8ff" points="665.15,-193 654.63,-191.73 662.06,-199.28 665.15,-193"/>
</a>
</g>
</g>
<!-- Node28&#45;&gt;Node5 -->
<g id="edge39_Node000028_Node000005" class="edge">
<title>Node28&#45;&gt;Node5</title>
<g id="a_edge39_Node000028_Node000005"><a xlink:title=" ">
<path fill="none" stroke="#63b8ff" d="M812.7,-170.93C862.98,-159.97 945.48,-141.79 991.5,-130.2"/>
<polygon fill="#63b8ff" stroke="#63b8ff" points="992.36,-133.59 1001.18,-127.71 990.62,-126.81 992.36,-133.59"/>
</a>
</g>
</g>
<!-- Node28&#45;&gt;Node11 -->
<g id="edge40_Node000028_Node000011" class="edge">
<title>Node28&#45;&gt;Node11</title>
<g id="a_edge40_Node000028_Node000011"><a xlink:title=" ">
<path fill="none" stroke="#63b8ff" d="M733.53,-170.89C725.74,-169.1 717.55,-167.29 709.88,-165.75 645.02,-152.71 570.69,-140.38 517.46,-131.99"/>
<polygon fill="#63b8ff" stroke="#63b8ff" points="518.01,-128.54 507.59,-130.45 516.93,-135.45 518.01,-128.54"/>
</a>
</g>
</g>
<!-- Node28&#45;&gt;Node20 -->
<g id="edge41_Node000028_Node000020" class="edge">
<title>Node28&#45;&gt;Node20</title>
<g id="a_edge41_Node000028_Node000020"><a xlink:title=" ">
<path fill="none" stroke="#63b8ff" d="M773.41,-171.05C780.27,-148.39 801.34,-88.25 839.88,-55.25 857.83,-39.88 881.53,-29.61 903.26,-22.85"/>
<polygon fill="#63b8ff" stroke="#63b8ff" points="903.98,-26.28 912.61,-20.14 902.03,-19.56 903.98,-26.28"/>
</a>
</g>
</g>
</g>
</svg>
