<?xml version="1.0" encoding="UTF-8" standalone="no"?>
<!DOCTYPE svg PUBLIC "-//W3C//DTD SVG 1.1//EN"
 "http://www.w3.org/Graphics/SVG/1.1/DTD/svg11.dtd">
<!-- Generated by graphviz version 12.2.1 (20241206.2353)
 -->
<!-- Title: /github/workspace/src/sgui/Serialization/LoadJson.h Pages: 1 -->
<svg width="682pt" height="183pt"
 viewBox="0.00 0.00 681.88 182.75" xmlns="http://www.w3.org/2000/svg" xmlns:xlink="http://www.w3.org/1999/xlink">
<g id="graph0" class="graph" transform="scale(1 1) rotate(0) translate(4 178.75)">
<title>/github/workspace/src/sgui/Serialization/LoadJson.h</title>
<!-- Node1 -->
<g id="Node000001" class="node">
<title>Node1</title>
<g id="a_Node000001"><a xlink:title=" ">
<polygon fill="#999999" stroke="#666666" points="416,-174.75 270.25,-174.75 270.25,-144.25 416,-144.25 416,-174.75"/>
<text text-anchor="start" x="278.25" y="-161.25" font-family="Helvetica,sans-Serif" font-size="10.00">/github/workspace/src</text>
<text text-anchor="middle" x="343.12" y="-150" font-family="Helvetica,sans-Serif" font-size="10.00">/sgui/Serialization/LoadJson.h</text>
</a>
</g>
</g>
<!-- Node2 -->
<g id="Node000002" class="node">
<title>Node2</title>
<g id="a_Node000002"><a xlink:href="_load_json_8cpp.html" target="_top" xlink:title=" ">
<polygon fill="white" stroke="#666666" points="156.25,-102.62 0,-102.62 0,-72.12 156.25,-72.12 156.25,-102.62"/>
<text text-anchor="start" x="8" y="-89.12" font-family="Helvetica,sans-Serif" font-size="10.00">/github/workspace/src</text>
<text text-anchor="middle" x="78.12" y="-77.88" font-family="Helvetica,sans-Serif" font-size="10.00">/sgui/Serialization/LoadJson.cpp</text>
</a>
</g>
</g>
<!-- Node1&#45;&gt;Node2 -->
<g id="edge1_Node000001_Node000002" class="edge">
<title>Node1&#45;&gt;Node2</title>
<g id="a_edge1_Node000001_Node000002"><a xlink:title=" ">
<path fill="none" stroke="#63b8ff" d="M276.65,-140.91C232.53,-129.23 175.28,-114.08 133.6,-103.06"/>
<polygon fill="#63b8ff" stroke="#63b8ff" points="275.55,-144.24 286.11,-143.41 277.34,-137.47 275.55,-144.24"/>
</a>
</g>
</g>
<!-- Node3 -->
<g id="Node000003" class="node">
<title>Node3</title>
<g id="a_Node000003"><a xlink:href="_load_layout_8cpp.html" target="_top" xlink:title=" ">
<polygon fill="white" stroke="#666666" points="338.38,-102.62 173.88,-102.62 173.88,-72.12 338.38,-72.12 338.38,-102.62"/>
<text text-anchor="start" x="181.88" y="-89.12" font-family="Helvetica,sans-Serif" font-size="10.00">/github/workspace/src</text>
<text text-anchor="middle" x="256.12" y="-77.88" font-family="Helvetica,sans-Serif" font-size="10.00">/sgui/Serialization/LoadLayout.cpp</text>
</a>
</g>
</g>
<!-- Node1&#45;&gt;Node3 -->
<g id="edge2_Node000001_Node000003" class="edge">
<title>Node1&#45;&gt;Node3</title>
<g id="a_edge2_Node000001_Node000003"><a xlink:title=" ">
<path fill="none" stroke="#63b8ff" d="M316.52,-137.06C302.78,-125.98 286.37,-112.75 274.13,-102.89"/>
<polygon fill="#63b8ff" stroke="#63b8ff" points="313.94,-139.47 323.92,-143.02 318.33,-134.02 313.94,-139.47"/>
</a>
</g>
</g>
<!-- Node4 -->
<g id="Node000004" class="node">
<title>Node4</title>
<g id="a_Node000004"><a xlink:href="_load_lookup_table_8h.html" target="_top" xlink:title=" ">
<polygon fill="white" stroke="#666666" points="505.88,-108.25 356.38,-108.25 356.38,-66.5 505.88,-66.5 505.88,-108.25"/>
<text text-anchor="start" x="364.38" y="-94.75" font-family="Helvetica,sans-Serif" font-size="10.00">/github/workspace/src</text>
<text text-anchor="start" x="364.38" y="-83.5" font-family="Helvetica,sans-Serif" font-size="10.00">/sgui/Serialization/LoadLookup</text>
<text text-anchor="middle" x="431.12" y="-72.25" font-family="Helvetica,sans-Serif" font-size="10.00">Table.h</text>
</a>
</g>
</g>
<!-- Node1&#45;&gt;Node4 -->
<g id="edge3_Node000001_Node000004" class="edge">
<title>Node1&#45;&gt;Node4</title>
<g id="a_edge3_Node000001_Node000004"><a xlink:title=" ">
<path fill="none" stroke="#63b8ff" d="M370.31,-136.83C381.55,-127.88 394.51,-117.55 405.57,-108.74"/>
<polygon fill="#63b8ff" stroke="#63b8ff" points="368.18,-134.06 362.54,-143.03 372.54,-139.53 368.18,-134.06"/>
</a>
</g>
</g>
<!-- Node6 -->
<g id="Node000006" class="node">
<title>Node6</title>
<g id="a_Node000006"><a xlink:href="_load_texture_atlas_8cpp.html" target="_top" xlink:title=" ">
<polygon fill="white" stroke="#666666" points="673.88,-108.25 524.38,-108.25 524.38,-66.5 673.88,-66.5 673.88,-108.25"/>
<text text-anchor="start" x="532.38" y="-94.75" font-family="Helvetica,sans-Serif" font-size="10.00">/github/workspace/src</text>
<text text-anchor="start" x="532.38" y="-83.5" font-family="Helvetica,sans-Serif" font-size="10.00">/sgui/Serialization/LoadTexture</text>
<text text-anchor="middle" x="599.12" y="-72.25" font-family="Helvetica,sans-Serif" font-size="10.00">Atlas.cpp</text>
</a>
</g>
</g>
<!-- Node1&#45;&gt;Node6 -->
<g id="edge5_Node000001_Node000006" class="edge">
<title>Node1&#45;&gt;Node6</title>
<g id="a_edge5_Node000001_Node000006"><a xlink:title=" ">
<path fill="none" stroke="#63b8ff" d="M407.59,-140.84C443.34,-131.05 487.96,-118.82 525.14,-108.64"/>
<polygon fill="#63b8ff" stroke="#63b8ff" points="406.97,-137.38 398.25,-143.4 408.82,-144.13 406.97,-137.38"/>
</a>
</g>
</g>
<!-- Node5 -->
<g id="Node000005" class="node">
<title>Node5</title>
<g id="a_Node000005"><a xlink:href="_text_container_8cpp.html" target="_top" xlink:title=" ">
<polygon fill="white" stroke="#666666" points="514.88,-30.5 347.38,-30.5 347.38,0 514.88,0 514.88,-30.5"/>
<text text-anchor="start" x="355.38" y="-17" font-family="Helvetica,sans-Serif" font-size="10.00">/github/workspace/src</text>
<text text-anchor="middle" x="431.12" y="-5.75" font-family="Helvetica,sans-Serif" font-size="10.00">/sgui/Resources/TextContainer.cpp</text>
</a>
</g>
</g>
<!-- Node4&#45;&gt;Node5 -->
<g id="edge4_Node000004_Node000005" class="edge">
<title>Node4&#45;&gt;Node5</title>
<g id="a_edge4_Node000004_Node000005"><a xlink:title=" ">
<path fill="none" stroke="#63b8ff" d="M431.12,-54.63C431.12,-46.27 431.12,-37.65 431.12,-30.7"/>
<polygon fill="#63b8ff" stroke="#63b8ff" points="427.63,-54.58 431.13,-64.58 434.63,-54.58 427.63,-54.58"/>
</a>
</g>
</g>
</g>
</svg>
