<?xml version="1.0" encoding="UTF-8" standalone="no"?>
<!DOCTYPE svg PUBLIC "-//W3C//DTD SVG 1.1//EN"
 "http://www.w3.org/Graphics/SVG/1.1/DTD/svg11.dtd">
<!-- Generated by graphviz version 12.2.1 (20241206.2353)
 -->
<!-- Title: /github/workspace/src/sgui/Serialization/LoadLayout.cpp Pages: 1 -->
<svg width="1639pt" height="404pt"
 viewBox="0.00 0.00 1638.88 403.75" xmlns="http://www.w3.org/2000/svg" xmlns:xlink="http://www.w3.org/1999/xlink">
<g id="graph0" class="graph" transform="scale(1 1) rotate(0) translate(4 399.75)">
<title>/github/workspace/src/sgui/Serialization/LoadLayout.cpp</title>
<!-- Node1 -->
<g id="Node000001" class="node">
<title>Node1</title>
<g id="a_Node000001"><a xlink:title=" ">
<polygon fill="#999999" stroke="#666666" points="655.38,-395.75 490.88,-395.75 490.88,-365.25 655.38,-365.25 655.38,-395.75"/>
<text text-anchor="start" x="498.88" y="-382.25" font-family="Helvetica,sans-Serif" font-size="10.00">/github/workspace/src</text>
<text text-anchor="middle" x="573.12" y="-371" font-family="Helvetica,sans-Serif" font-size="10.00">/sgui/Serialization/LoadLayout.cpp</text>
</a>
</g>
</g>
<!-- Node2 -->
<g id="Node000002" class="node">
<title>Node2</title>
<g id="a_Node000002"><a xlink:title=" ">
<polygon fill="#e0e0e0" stroke="#999999" points="401.88,-323.62 318.38,-323.62 318.38,-304.38 401.88,-304.38 401.88,-323.62"/>
<text text-anchor="middle" x="360.12" y="-310.12" font-family="Helvetica,sans-Serif" font-size="10.00">spdlog/spdlog.h</text>
</a>
</g>
</g>
<!-- Node1&#45;&gt;Node2 -->
<g id="edge1_Node000001_Node000002" class="edge">
<title>Node1&#45;&gt;Node2</title>
<g id="a_edge1_Node000001_Node000002"><a xlink:title=" ">
<path fill="none" stroke="#63b8ff" d="M524.53,-364.78C487.19,-353.48 436.21,-338.04 400.97,-327.37"/>
<polygon fill="#63b8ff" stroke="#63b8ff" points="402.15,-324.07 391.56,-324.52 400.12,-330.77 402.15,-324.07"/>
</a>
</g>
</g>
<!-- Node3 -->
<g id="Node000003" class="node">
<title>Node3</title>
<g id="a_Node000003"><a xlink:href="_load_layout_8h.html" target="_top" xlink:title=" ">
<polygon fill="white" stroke="#666666" points="617.88,-329.25 528.38,-329.25 528.38,-298.75 617.88,-298.75 617.88,-329.25"/>
<text text-anchor="start" x="536.38" y="-315.75" font-family="Helvetica,sans-Serif" font-size="10.00">sgui/Serialization</text>
<text text-anchor="middle" x="573.12" y="-304.5" font-family="Helvetica,sans-Serif" font-size="10.00">/LoadLayout.h</text>
</a>
</g>
</g>
<!-- Node1&#45;&gt;Node3 -->
<g id="edge2_Node000001_Node000003" class="edge">
<title>Node1&#45;&gt;Node3</title>
<g id="a_edge2_Node000001_Node000003"><a xlink:title=" ">
<path fill="none" stroke="#63b8ff" d="M573.12,-364.86C573.12,-357.77 573.12,-349.04 573.12,-340.88"/>
<polygon fill="#63b8ff" stroke="#63b8ff" points="576.63,-341.09 573.13,-331.09 569.63,-341.09 576.63,-341.09"/>
</a>
</g>
</g>
<!-- Node5 -->
<g id="Node000005" class="node">
<title>Node5</title>
<g id="a_Node000005"><a xlink:href="_load_json_8h.html" target="_top" xlink:title=" ">
<polygon fill="white" stroke="#666666" points="509.88,-329.25 420.38,-329.25 420.38,-298.75 509.88,-298.75 509.88,-329.25"/>
<text text-anchor="start" x="428.38" y="-315.75" font-family="Helvetica,sans-Serif" font-size="10.00">sgui/Serialization</text>
<text text-anchor="middle" x="465.12" y="-304.5" font-family="Helvetica,sans-Serif" font-size="10.00">/LoadJson.h</text>
</a>
</g>
</g>
<!-- Node1&#45;&gt;Node5 -->
<g id="edge4_Node000001_Node000005" class="edge">
<title>Node1&#45;&gt;Node5</title>
<g id="a_edge4_Node000001_Node000005"><a xlink:title=" ">
<path fill="none" stroke="#63b8ff" d="M548.62,-364.86C533.98,-356.12 515.17,-344.89 499.12,-335.3"/>
<polygon fill="#63b8ff" stroke="#63b8ff" points="501.21,-332.48 490.83,-330.35 497.63,-338.49 501.21,-332.48"/>
</a>
</g>
</g>
<!-- Node9 -->
<g id="Node000009" class="node">
<title>Node9</title>
<g id="a_Node000009"><a xlink:href="_serialize_g_u_i_8h.html" target="_top" xlink:title=" ">
<polygon fill="white" stroke="#666666" points="865.88,-329.25 776.38,-329.25 776.38,-298.75 865.88,-298.75 865.88,-329.25"/>
<text text-anchor="start" x="784.38" y="-315.75" font-family="Helvetica,sans-Serif" font-size="10.00">sgui/Serialization</text>
<text text-anchor="middle" x="821.12" y="-304.5" font-family="Helvetica,sans-Serif" font-size="10.00">/SerializeGUI.h</text>
</a>
</g>
</g>
<!-- Node1&#45;&gt;Node9 -->
<g id="edge8_Node000001_Node000009" class="edge">
<title>Node1&#45;&gt;Node9</title>
<g id="a_edge8_Node000001_Node000009"><a xlink:title=" ">
<path fill="none" stroke="#63b8ff" d="M629.71,-364.78C670.22,-354.25 724.52,-340.13 764.94,-329.61"/>
<polygon fill="#63b8ff" stroke="#63b8ff" points="765.68,-333.04 774.48,-327.13 763.92,-326.26 765.68,-333.04"/>
</a>
</g>
</g>
<!-- Node28 -->
<g id="Node000028" class="node">
<title>Node28</title>
<g id="a_Node000028"><a xlink:href="_serialize_s_f_m_l_8h.html" target="_top" xlink:title=" ">
<polygon fill="white" stroke="#666666" points="1368.25,-262.75 1278,-262.75 1278,-232.25 1368.25,-232.25 1368.25,-262.75"/>
<text text-anchor="start" x="1286" y="-249.25" font-family="Helvetica,sans-Serif" font-size="10.00">sgui/Serialization</text>
<text text-anchor="middle" x="1323.12" y="-238" font-family="Helvetica,sans-Serif" font-size="10.00">/SerializeSFML.h</text>
</a>
</g>
</g>
<!-- Node1&#45;&gt;Node28 -->
<g id="edge44_Node000001_Node000028" class="edge">
<title>Node1&#45;&gt;Node28</title>
<g id="a_edge44_Node000001_Node000028"><a xlink:title=" ">
<path fill="none" stroke="#63b8ff" d="M655.85,-366.04C716.57,-356.09 801.02,-342.09 875.12,-329.25 1016.02,-304.83 1181.54,-274.59 1266.5,-258.96"/>
<polygon fill="#63b8ff" stroke="#63b8ff" points="1267,-262.42 1276.2,-257.17 1265.73,-255.54 1267,-262.42"/>
</a>
</g>
</g>
<!-- Node4 -->
<g id="Node000004" class="node">
<title>Node4</title>
<g id="a_Node000004"><a xlink:title=" ">
<polygon fill="#e0e0e0" stroke="#999999" points="550.12,-129.75 510.12,-129.75 510.12,-110.5 550.12,-110.5 550.12,-129.75"/>
<text text-anchor="middle" x="530.12" y="-116.25" font-family="Helvetica,sans-Serif" font-size="10.00">string</text>
</a>
</g>
</g>
<!-- Node3&#45;&gt;Node4 -->
<g id="edge3_Node000003_Node000004" class="edge">
<title>Node3&#45;&gt;Node4</title>
<g id="a_edge3_Node000003_Node000004"><a xlink:title=" ">
<path fill="none" stroke="#63b8ff" d="M556.15,-298.49C533.91,-278.25 496,-239.16 481.12,-196.25 476.69,-183.44 475.65,-178.15 481.12,-165.75 486.29,-154.07 496.18,-144.13 505.74,-136.61"/>
<polygon fill="#63b8ff" stroke="#63b8ff" points="507.71,-139.51 513.77,-130.82 503.61,-133.83 507.71,-139.51"/>
</a>
</g>
</g>
<!-- Node6 -->
<g id="Node000006" class="node">
<title>Node6</title>
<g id="a_Node000006"><a xlink:title=" ">
<polygon fill="#e0e0e0" stroke="#999999" points="338,-257.12 288.25,-257.12 288.25,-237.88 338,-237.88 338,-257.12"/>
<text text-anchor="middle" x="313.12" y="-243.62" font-family="Helvetica,sans-Serif" font-size="10.00">iomanip</text>
</a>
</g>
</g>
<!-- Node5&#45;&gt;Node6 -->
<g id="edge5_Node000005_Node000006" class="edge">
<title>Node5&#45;&gt;Node6</title>
<g id="a_edge5_Node000005_Node000006"><a xlink:title=" ">
<path fill="none" stroke="#63b8ff" d="M430.21,-298.34C406.47,-288.36 374.38,-274.82 346.12,-262.75 345.52,-262.49 344.9,-262.23 344.28,-261.96"/>
<polygon fill="#63b8ff" stroke="#63b8ff" points="346.02,-258.9 335.45,-258.17 343.26,-265.33 346.02,-258.9"/>
</a>
</g>
</g>
<!-- Node7 -->
<g id="Node000007" class="node">
<title>Node7</title>
<g id="a_Node000007"><a xlink:title=" ">
<polygon fill="#e0e0e0" stroke="#999999" points="404.62,-257.12 355.62,-257.12 355.62,-237.88 404.62,-237.88 404.62,-257.12"/>
<text text-anchor="middle" x="380.12" y="-243.62" font-family="Helvetica,sans-Serif" font-size="10.00">fstream</text>
</a>
</g>
</g>
<!-- Node5&#45;&gt;Node7 -->
<g id="edge6_Node000005_Node000007" class="edge">
<title>Node5&#45;&gt;Node7</title>
<g id="a_edge6_Node000005_Node000007"><a xlink:title=" ">
<path fill="none" stroke="#63b8ff" d="M445.84,-298.36C432.44,-288.19 414.59,-274.66 400.88,-264.25"/>
<polygon fill="#63b8ff" stroke="#63b8ff" points="403.04,-261.49 392.96,-258.24 398.81,-267.07 403.04,-261.49"/>
</a>
</g>
</g>
<!-- Node8 -->
<g id="Node000008" class="node">
<title>Node8</title>
<g id="a_Node000008"><a xlink:title=" ">
<polygon fill="#e0e0e0" stroke="#999999" points="1294.62,-190.62 1197.62,-190.62 1197.62,-171.38 1294.62,-171.38 1294.62,-190.62"/>
<text text-anchor="middle" x="1246.12" y="-177.12" font-family="Helvetica,sans-Serif" font-size="10.00">nlohmann/json.hpp</text>
</a>
</g>
</g>
<!-- Node5&#45;&gt;Node8 -->
<g id="edge7_Node000005_Node000008" class="edge">
<title>Node5&#45;&gt;Node8</title>
<g id="a_edge7_Node000005_Node000008"><a xlink:title=" ">
<path fill="none" stroke="#63b8ff" d="M510.37,-300.42C513.32,-299.8 516.26,-299.23 519.12,-298.75 725.7,-263.88 787.04,-317.99 989.12,-262.75 1018.75,-254.65 1022.33,-242.92 1051.12,-232.25 1096.33,-215.51 1149.41,-202.22 1188.77,-193.53"/>
<polygon fill="#63b8ff" stroke="#63b8ff" points="1189.49,-196.95 1198.52,-191.41 1188.01,-190.11 1189.49,-196.95"/>
</a>
</g>
</g>
<!-- Node9&#45;&gt;Node8 -->
<g id="edge9_Node000009_Node000008" class="edge">
<title>Node9&#45;&gt;Node8</title>
<g id="a_edge9_Node000009_Node000008"><a xlink:title=" ">
<path fill="none" stroke="#63b8ff" d="M866.26,-305.59C913.09,-297.33 988.14,-282.5 1051.12,-262.75 1111.75,-243.74 1179.7,-213.44 1217.25,-195.86"/>
<polygon fill="#63b8ff" stroke="#63b8ff" points="1218.52,-199.13 1226.07,-191.7 1215.54,-192.8 1218.52,-199.13"/>
</a>
</g>
</g>
<!-- Node10 -->
<g id="Node000010" class="node">
<title>Node10</title>
<g id="a_Node000010"><a xlink:href="_panel_8h.html" target="_top" xlink:title=" ">
<polygon fill="white" stroke="#666666" points="404.88,-190.62 297.38,-190.62 297.38,-171.38 404.88,-171.38 404.88,-190.62"/>
<text text-anchor="middle" x="351.12" y="-177.12" font-family="Helvetica,sans-Serif" font-size="10.00">sgui/Widgets/Panel.h</text>
</a>
</g>
</g>
<!-- Node9&#45;&gt;Node10 -->
<g id="edge10_Node000009_Node000010" class="edge">
<title>Node9&#45;&gt;Node10</title>
<g id="a_edge10_Node000009_Node000010"><a xlink:title=" ">
<path fill="none" stroke="#63b8ff" d="M776.22,-306.85C723.76,-299.09 634.64,-284.13 560.12,-262.75 494.85,-244.02 421.4,-213.28 381.29,-195.62"/>
<polygon fill="#63b8ff" stroke="#63b8ff" points="382.84,-192.48 372.28,-191.62 380,-198.88 382.84,-192.48"/>
</a>
</g>
</g>
<!-- Node18 -->
<g id="Node000018" class="node">
<title>Node18</title>
<g id="a_Node000018"><a xlink:href="_layout_8h.html" target="_top" xlink:title=" ">
<polygon fill="white" stroke="#666666" points="692.75,-257.12 569.5,-257.12 569.5,-237.88 692.75,-237.88 692.75,-257.12"/>
<text text-anchor="middle" x="631.12" y="-243.62" font-family="Helvetica,sans-Serif" font-size="10.00">sgui/Resources/Layout.h</text>
</a>
</g>
</g>
<!-- Node9&#45;&gt;Node18 -->
<g id="edge21_Node000009_Node000018" class="edge">
<title>Node9&#45;&gt;Node18</title>
<g id="a_edge21_Node000009_Node000018"><a xlink:title=" ">
<path fill="none" stroke="#63b8ff" d="M778.01,-298.36C745.01,-287.16 699.95,-271.86 668.47,-261.18"/>
<polygon fill="#63b8ff" stroke="#63b8ff" points="669.97,-257.99 659.38,-258.09 667.72,-264.62 669.97,-257.99"/>
</a>
</g>
</g>
<!-- Node25 -->
<g id="Node000025" class="node">
<title>Node25</title>
<g id="a_Node000025"><a xlink:href="_texture_atlas_8h.html" target="_top" xlink:title=" ">
<polygon fill="white" stroke="#666666" points="980.5,-257.12 831.75,-257.12 831.75,-237.88 980.5,-237.88 980.5,-257.12"/>
<text text-anchor="middle" x="906.12" y="-243.62" font-family="Helvetica,sans-Serif" font-size="10.00">sgui/Resources/TextureAtlas.h</text>
</a>
</g>
</g>
<!-- Node9&#45;&gt;Node25 -->
<g id="edge32_Node000009_Node000025" class="edge">
<title>Node9&#45;&gt;Node25</title>
<g id="a_edge32_Node000009_Node000025"><a xlink:title=" ">
<path fill="none" stroke="#63b8ff" d="M840.41,-298.36C853.81,-288.19 871.66,-274.66 885.37,-264.25"/>
<polygon fill="#63b8ff" stroke="#63b8ff" points="887.44,-267.07 893.29,-258.24 883.21,-261.49 887.44,-267.07"/>
</a>
</g>
</g>
<!-- Node9&#45;&gt;Node28 -->
<g id="edge38_Node000009_Node000028" class="edge">
<title>Node9&#45;&gt;Node28</title>
<g id="a_edge38_Node000009_Node000028"><a xlink:title=" ">
<path fill="none" stroke="#63b8ff" d="M866.12,-307.22C957.76,-295.44 1165.91,-268.7 1266.55,-255.77"/>
<polygon fill="#63b8ff" stroke="#63b8ff" points="1266.72,-259.28 1276.19,-254.53 1265.83,-252.33 1266.72,-259.28"/>
</a>
</g>
</g>
<!-- Node10&#45;&gt;Node4 -->
<g id="edge11_Node000010_Node000004" class="edge">
<title>Node10&#45;&gt;Node4</title>
<g id="a_edge11_Node000010_Node000004"><a xlink:title=" ">
<path fill="none" stroke="#63b8ff" d="M378.7,-170.93C411.21,-160.24 465.11,-142.51 499.06,-131.34"/>
<polygon fill="#63b8ff" stroke="#63b8ff" points="499.91,-134.75 508.32,-128.3 497.72,-128.1 499.91,-134.75"/>
</a>
</g>
</g>
<!-- Node11 -->
<g id="Node000011" class="node">
<title>Node11</title>
<g id="a_Node000011"><a xlink:title=" ">
<polygon fill="#e0e0e0" stroke="#999999" points="275.12,-129.75 217.12,-129.75 217.12,-110.5 275.12,-110.5 275.12,-129.75"/>
<text text-anchor="middle" x="246.12" y="-116.25" font-family="Helvetica,sans-Serif" font-size="10.00">functional</text>
</a>
</g>
</g>
<!-- Node10&#45;&gt;Node11 -->
<g id="edge12_Node000010_Node000011" class="edge">
<title>Node10&#45;&gt;Node11</title>
<g id="a_edge12_Node000010_Node000011"><a xlink:title=" ">
<path fill="none" stroke="#63b8ff" d="M335.18,-171.06C318.45,-161.68 291.89,-146.79 272.12,-135.7"/>
<polygon fill="#63b8ff" stroke="#63b8ff" points="273.98,-132.73 263.54,-130.89 270.55,-138.83 273.98,-132.73"/>
</a>
</g>
</g>
<!-- Node12 -->
<g id="Node000012" class="node">
<title>Node12</title>
<g id="a_Node000012"><a xlink:title=" ">
<polygon fill="#e0e0e0" stroke="#999999" points="530,-19.25 396.25,-19.25 396.25,0 530,0 530,-19.25"/>
<text text-anchor="middle" x="463.12" y="-5.75" font-family="Helvetica,sans-Serif" font-size="10.00">SFML/System/Vector2.hpp</text>
</a>
</g>
</g>
<!-- Node10&#45;&gt;Node12 -->
<g id="edge13_Node000010_Node000012" class="edge">
<title>Node10&#45;&gt;Node12</title>
<g id="a_edge13_Node000010_Node000012"><a xlink:title=" ">
<path fill="none" stroke="#63b8ff" d="M367.08,-170.89C381.76,-161.9 403.42,-147.02 418.12,-129.75 443.01,-100.52 454.84,-56.13 459.88,-30.6"/>
<polygon fill="#63b8ff" stroke="#63b8ff" points="463.29,-31.39 461.61,-20.92 456.4,-30.15 463.29,-31.39"/>
</a>
</g>
</g>
<!-- Node13 -->
<g id="Node000013" class="node">
<title>Node13</title>
<g id="a_Node000013"><a xlink:title=" ">
<polygon fill="#e0e0e0" stroke="#999999" points="1232.25,-129.75 1106,-129.75 1106,-110.5 1232.25,-110.5 1232.25,-129.75"/>
<text text-anchor="middle" x="1169.12" y="-116.25" font-family="Helvetica,sans-Serif" font-size="10.00">SFML/Graphics/Rect.hpp</text>
</a>
</g>
</g>
<!-- Node10&#45;&gt;Node13 -->
<g id="edge14_Node000010_Node000013" class="edge">
<title>Node10&#45;&gt;Node13</title>
<g id="a_edge14_Node000010_Node000013"><a xlink:title=" ">
<path fill="none" stroke="#63b8ff" d="M405.21,-173.99C430.92,-171.25 462.08,-168.11 490.12,-165.75 709.59,-147.29 969.51,-132.05 1094.57,-125.13"/>
<polygon fill="#63b8ff" stroke="#63b8ff" points="1094.58,-128.64 1104.37,-124.59 1094.19,-121.65 1094.58,-128.64"/>
</a>
</g>
</g>
<!-- Node14 -->
<g id="Node000014" class="node">
<title>Node14</title>
<g id="a_Node000014"><a xlink:href="_options_8h.html" target="_top" xlink:title=" ">
<polygon fill="white" stroke="#666666" points="409.38,-129.75 292.88,-129.75 292.88,-110.5 409.38,-110.5 409.38,-129.75"/>
<text text-anchor="middle" x="351.12" y="-116.25" font-family="Helvetica,sans-Serif" font-size="10.00">sgui/Widgets/Options.h</text>
</a>
</g>
</g>
<!-- Node10&#45;&gt;Node14 -->
<g id="edge15_Node000010_Node000014" class="edge">
<title>Node10&#45;&gt;Node14</title>
<g id="a_edge15_Node000010_Node000014"><a xlink:title=" ">
<path fill="none" stroke="#63b8ff" d="M351.12,-171.06C351.12,-163.28 351.12,-151.7 351.12,-141.66"/>
<polygon fill="#63b8ff" stroke="#63b8ff" points="354.63,-141.66 351.13,-131.66 347.63,-141.66 354.63,-141.66"/>
</a>
</g>
</g>
<!-- Node14&#45;&gt;Node12 -->
<g id="edge16_Node000014_Node000012" class="edge">
<title>Node14&#45;&gt;Node12</title>
<g id="a_edge16_Node000014_Node000012"><a xlink:title=" ">
<path fill="none" stroke="#63b8ff" d="M371.82,-110.09C387.79,-102.36 409.68,-90.03 425.12,-74.5 438.06,-61.49 448.35,-43.23 454.94,-29.56"/>
<polygon fill="#63b8ff" stroke="#63b8ff" points="457.99,-31.3 458.96,-20.75 451.62,-28.4 457.99,-31.3"/>
</a>
</g>
</g>
<!-- Node15 -->
<g id="Node000015" class="node">
<title>Node15</title>
<g id="a_Node000015"><a xlink:href="_constraints_8h.html" target="_top" xlink:title=" ">
<polygon fill="white" stroke="#666666" points="132.25,-74.5 0,-74.5 0,-55.25 132.25,-55.25 132.25,-74.5"/>
<text text-anchor="middle" x="66.12" y="-61" font-family="Helvetica,sans-Serif" font-size="10.00">sgui/Widgets/Constraints.h</text>
</a>
</g>
</g>
<!-- Node14&#45;&gt;Node15 -->
<g id="edge17_Node000014_Node000015" class="edge">
<title>Node14&#45;&gt;Node15</title>
<g id="a_edge17_Node000014_Node000015"><a xlink:title=" ">
<path fill="none" stroke="#63b8ff" d="M302.46,-110.03C253.58,-100.9 178.19,-86.81 125.75,-77.01"/>
<polygon fill="#63b8ff" stroke="#63b8ff" points="126.55,-73.61 116.08,-75.21 125.27,-80.49 126.55,-73.61"/>
</a>
</g>
</g>
<!-- Node16 -->
<g id="Node000016" class="node">
<title>Node16</title>
<g id="a_Node000016"><a xlink:href="_widgets_8h.html" target="_top" xlink:title=" ">
<polygon fill="white" stroke="#666666" points="268.12,-74.5 150.12,-74.5 150.12,-55.25 268.12,-55.25 268.12,-74.5"/>
<text text-anchor="middle" x="209.12" y="-61" font-family="Helvetica,sans-Serif" font-size="10.00">sgui/Widgets/Widgets.h</text>
</a>
</g>
</g>
<!-- Node14&#45;&gt;Node16 -->
<g id="edge19_Node000014_Node000016" class="edge">
<title>Node14&#45;&gt;Node16</title>
<g id="a_edge19_Node000014_Node000016"><a xlink:title=" ">
<path fill="none" stroke="#63b8ff" d="M327.04,-110.09C304.19,-101.52 269.61,-88.56 243.8,-78.88"/>
<polygon fill="#63b8ff" stroke="#63b8ff" points="245.34,-75.72 234.75,-75.48 242.88,-82.27 245.34,-75.72"/>
</a>
</g>
</g>
<!-- Node17 -->
<g id="Node000017" class="node">
<title>Node17</title>
<g id="a_Node000017"><a xlink:href="_item_states_8h.html" target="_top" xlink:title=" ">
<polygon fill="white" stroke="#666666" points="416.5,-74.5 285.75,-74.5 285.75,-55.25 416.5,-55.25 416.5,-74.5"/>
<text text-anchor="middle" x="351.12" y="-61" font-family="Helvetica,sans-Serif" font-size="10.00">sgui/Widgets/ItemStates.h</text>
</a>
</g>
</g>
<!-- Node14&#45;&gt;Node17 -->
<g id="edge20_Node000014_Node000017" class="edge">
<title>Node14&#45;&gt;Node17</title>
<g id="a_edge20_Node000014_Node000017"><a xlink:title=" ">
<path fill="none" stroke="#63b8ff" d="M351.12,-110.33C351.12,-103.82 351.12,-94.67 351.12,-86.37"/>
<polygon fill="#63b8ff" stroke="#63b8ff" points="354.63,-86.37 351.13,-76.37 347.63,-86.37 354.63,-86.37"/>
</a>
</g>
</g>
<!-- Node15&#45;&gt;Node12 -->
<g id="edge18_Node000015_Node000012" class="edge">
<title>Node15&#45;&gt;Node12</title>
<g id="a_edge18_Node000015_Node000012"><a xlink:title=" ">
<path fill="none" stroke="#63b8ff" d="M132.57,-54.96C202.07,-45.64 311.09,-31.02 384.74,-21.14"/>
<polygon fill="#63b8ff" stroke="#63b8ff" points="384.85,-24.66 394.3,-19.86 383.92,-17.72 384.85,-24.66"/>
</a>
</g>
</g>
<!-- Node18&#45;&gt;Node4 -->
<g id="edge22_Node000018_Node000004" class="edge">
<title>Node18&#45;&gt;Node4</title>
<g id="a_edge22_Node000018_Node000004"><a xlink:title=" ">
<path fill="none" stroke="#63b8ff" d="M590.16,-237.42C552.89,-228.24 501.96,-213.03 490.12,-196.25 476.83,-177.4 494.62,-153.61 510.53,-137.91"/>
<polygon fill="#63b8ff" stroke="#63b8ff" points="512.89,-140.49 517.86,-131.13 508.14,-135.35 512.89,-140.49"/>
</a>
</g>
</g>
<!-- Node18&#45;&gt;Node10 -->
<g id="edge30_Node000018_Node000010" class="edge">
<title>Node18&#45;&gt;Node10</title>
<g id="a_edge30_Node000018_Node000010"><a xlink:title=" ">
<path fill="none" stroke="#63b8ff" d="M591.6,-237.4C541.78,-225.92 456.08,-206.18 401.58,-193.62"/>
<polygon fill="#63b8ff" stroke="#63b8ff" points="402.45,-190.23 391.92,-191.4 400.88,-197.05 402.45,-190.23"/>
</a>
</g>
</g>
<!-- Node19 -->
<g id="Node000019" class="node">
<title>Node19</title>
<g id="a_Node000019"><a xlink:title=" ">
<polygon fill="#e0e0e0" stroke="#999999" points="542.62,-190.62 499.62,-190.62 499.62,-171.38 542.62,-171.38 542.62,-190.62"/>
<text text-anchor="middle" x="521.12" y="-177.12" font-family="Helvetica,sans-Serif" font-size="10.00">vector</text>
</a>
</g>
</g>
<!-- Node18&#45;&gt;Node19 -->
<g id="edge23_Node000018_Node000019" class="edge">
<title>Node18&#45;&gt;Node19</title>
<g id="a_edge23_Node000018_Node000019"><a xlink:title=" ">
<path fill="none" stroke="#63b8ff" d="M615.83,-237.53C597.87,-227 567.82,-209.38 546.38,-196.81"/>
<polygon fill="#63b8ff" stroke="#63b8ff" points="548.35,-193.9 537.95,-191.87 544.81,-199.94 548.35,-193.9"/>
</a>
</g>
</g>
<!-- Node20 -->
<g id="Node000020" class="node">
<title>Node20</title>
<g id="a_Node000020"><a xlink:title=" ">
<polygon fill="#e0e0e0" stroke="#999999" points="599.38,-190.62 560.88,-190.62 560.88,-171.38 599.38,-171.38 599.38,-190.62"/>
<text text-anchor="middle" x="580.12" y="-177.12" font-family="Helvetica,sans-Serif" font-size="10.00">utility</text>
</a>
</g>
</g>
<!-- Node18&#45;&gt;Node20 -->
<g id="edge24_Node000018_Node000020" class="edge">
<title>Node18&#45;&gt;Node20</title>
<g id="a_edge24_Node000018_Node000020"><a xlink:title=" ">
<path fill="none" stroke="#63b8ff" d="M624.03,-237.53C616.35,-227.81 603.88,-212.04 594.19,-199.78"/>
<polygon fill="#63b8ff" stroke="#63b8ff" points="597.04,-197.75 588.09,-192.08 591.55,-202.09 597.04,-197.75"/>
</a>
</g>
</g>
<!-- Node21 -->
<g id="Node000021" class="node">
<title>Node21</title>
<g id="a_Node000021"><a xlink:title=" ">
<polygon fill="#e0e0e0" stroke="#999999" points="849.5,-190.62 766.75,-190.62 766.75,-171.38 849.5,-171.38 849.5,-190.62"/>
<text text-anchor="middle" x="808.12" y="-177.12" font-family="Helvetica,sans-Serif" font-size="10.00">unordered_map</text>
</a>
</g>
</g>
<!-- Node18&#45;&gt;Node21 -->
<g id="edge25_Node000018_Node000021" class="edge">
<title>Node18&#45;&gt;Node21</title>
<g id="a_edge25_Node000018_Node000021"><a xlink:title=" ">
<path fill="none" stroke="#63b8ff" d="M656.11,-237.4C686.55,-226.3 738.18,-207.49 772.71,-194.91"/>
<polygon fill="#63b8ff" stroke="#63b8ff" points="773.65,-198.29 781.85,-191.58 771.25,-191.71 773.65,-198.29"/>
</a>
</g>
</g>
<!-- Node22 -->
<g id="Node000022" class="node">
<title>Node22</title>
<g id="a_Node000022"><a xlink:href="_style_8h.html" target="_top" xlink:title=" ">
<polygon fill="white" stroke="#666666" points="1009.38,-190.62 904.88,-190.62 904.88,-171.38 1009.38,-171.38 1009.38,-190.62"/>
<text text-anchor="middle" x="957.12" y="-177.12" font-family="Helvetica,sans-Serif" font-size="10.00">sgui/Widgets/Style.h</text>
</a>
</g>
</g>
<!-- Node18&#45;&gt;Node22 -->
<g id="edge26_Node000018_Node000022" class="edge">
<title>Node18&#45;&gt;Node22</title>
<g id="a_edge26_Node000018_Node000022"><a xlink:title=" ">
<path fill="none" stroke="#63b8ff" d="M677.14,-237.4C735.67,-225.82 836.73,-205.82 900.09,-193.28"/>
<polygon fill="#63b8ff" stroke="#63b8ff" points="900.46,-196.78 909.59,-191.4 899.11,-189.91 900.46,-196.78"/>
</a>
</g>
</g>
<!-- Node24 -->
<g id="Node000024" class="node">
<title>Node24</title>
<g id="a_Node000024"><a xlink:href="_layout_8tpp.html" target="_top" xlink:title=" ">
<polygon fill="white" stroke="#666666" points="748.88,-190.62 617.38,-190.62 617.38,-171.38 748.88,-171.38 748.88,-190.62"/>
<text text-anchor="middle" x="683.12" y="-177.12" font-family="Helvetica,sans-Serif" font-size="10.00">sgui/Resources/Layout.tpp</text>
</a>
</g>
</g>
<!-- Node18&#45;&gt;Node24 -->
<g id="edge31_Node000018_Node000024" class="edge">
<title>Node18&#45;&gt;Node24</title>
<g id="a_edge31_Node000018_Node000024"><a xlink:title=" ">
<path fill="none" stroke="#63b8ff" d="M638.36,-237.53C646.19,-227.81 658.91,-212.04 668.79,-199.78"/>
<polygon fill="#63b8ff" stroke="#63b8ff" points="671.45,-202.05 675.01,-192.07 666,-197.66 671.45,-202.05"/>
</a>
</g>
</g>
<!-- Node22&#45;&gt;Node4 -->
<g id="edge27_Node000022_Node000004" class="edge">
<title>Node22&#45;&gt;Node4</title>
<g id="a_edge27_Node000022_Node000004"><a xlink:title=" ">
<path fill="none" stroke="#63b8ff" d="M917.8,-170.9C909.05,-169.05 899.79,-167.22 891.12,-165.75 770.04,-145.24 624.6,-130.14 561.68,-124.06"/>
<polygon fill="#63b8ff" stroke="#63b8ff" points="562.37,-120.61 552.08,-123.15 561.7,-127.58 562.37,-120.61"/>
</a>
</g>
</g>
<!-- Node22&#45;&gt;Node12 -->
<g id="edge29_Node000022_Node000012" class="edge">
<title>Node22&#45;&gt;Node12</title>
<g id="a_edge29_Node000022_Node000012"><a xlink:title=" ">
<path fill="none" stroke="#63b8ff" d="M930.57,-170.89C848.05,-142.6 595.93,-56.16 500.37,-23.4"/>
<polygon fill="#63b8ff" stroke="#63b8ff" points="501.54,-20.1 490.95,-20.16 499.27,-26.72 501.54,-20.1"/>
</a>
</g>
</g>
<!-- Node23 -->
<g id="Node000023" class="node">
<title>Node23</title>
<g id="a_Node000023"><a xlink:title=" ">
<polygon fill="#e0e0e0" stroke="#999999" points="1401.38,-129.75 1272.88,-129.75 1272.88,-110.5 1401.38,-110.5 1401.38,-129.75"/>
<text text-anchor="middle" x="1337.12" y="-116.25" font-family="Helvetica,sans-Serif" font-size="10.00">SFML/Graphics/Color.hpp</text>
</a>
</g>
</g>
<!-- Node22&#45;&gt;Node23 -->
<g id="edge28_Node000022_Node000023" class="edge">
<title>Node22&#45;&gt;Node23</title>
<g id="a_edge28_Node000022_Node000023"><a xlink:title=" ">
<path fill="none" stroke="#63b8ff" d="M993.46,-170.94C1001.55,-169.09 1010.11,-167.24 1018.12,-165.75 1100.71,-150.36 1196.23,-137.66 1261.05,-129.8"/>
<polygon fill="#63b8ff" stroke="#63b8ff" points="1261.38,-133.29 1270.89,-128.62 1260.54,-126.34 1261.38,-133.29"/>
</a>
</g>
</g>
<!-- Node25&#45;&gt;Node4 -->
<g id="edge33_Node000025_Node000004" class="edge">
<title>Node25&#45;&gt;Node4</title>
<g id="a_edge33_Node000025_Node000004"><a xlink:title=" ">
<path fill="none" stroke="#63b8ff" d="M903.6,-237.39C898.32,-220.2 884.37,-183.13 858.12,-165.75 809.78,-133.74 633.89,-124.47 561.54,-121.98"/>
<polygon fill="#63b8ff" stroke="#63b8ff" points="562.08,-118.49 551.97,-121.67 561.85,-125.49 562.08,-118.49"/>
</a>
</g>
</g>
<!-- Node25&#45;&gt;Node13 -->
<g id="edge37_Node000025_Node000013" class="edge">
<title>Node25&#45;&gt;Node13</title>
<g id="a_edge37_Node000025_Node000013"><a xlink:title=" ">
<path fill="none" stroke="#63b8ff" d="M966.94,-237.41C1034.81,-226.73 1136.92,-208.88 1150.12,-196.25 1164.85,-182.17 1168.8,-158.47 1169.57,-141.45"/>
<polygon fill="#63b8ff" stroke="#63b8ff" points="1173.07,-141.55 1169.66,-131.52 1166.07,-141.49 1173.07,-141.55"/>
</a>
</g>
</g>
<!-- Node25&#45;&gt;Node21 -->
<g id="edge36_Node000025_Node000021" class="edge">
<title>Node25&#45;&gt;Node21</title>
<g id="a_edge36_Node000025_Node000021"><a xlink:title=" ">
<path fill="none" stroke="#63b8ff" d="M892.5,-237.53C876.72,-227.14 850.45,-209.86 831.41,-197.33"/>
<polygon fill="#63b8ff" stroke="#63b8ff" points="833.49,-194.51 823.22,-191.93 829.64,-200.35 833.49,-194.51"/>
</a>
</g>
</g>
<!-- Node26 -->
<g id="Node000026" class="node">
<title>Node26</title>
<g id="a_Node000026"><a xlink:title=" ">
<polygon fill="#e0e0e0" stroke="#999999" points="1072.75,-190.62 1027.5,-190.62 1027.5,-171.38 1072.75,-171.38 1072.75,-190.62"/>
<text text-anchor="middle" x="1050.12" y="-177.12" font-family="Helvetica,sans-Serif" font-size="10.00">cstdint</text>
</a>
</g>
</g>
<!-- Node25&#45;&gt;Node26 -->
<g id="edge34_Node000025_Node000026" class="edge">
<title>Node25&#45;&gt;Node26</title>
<g id="a_edge34_Node000025_Node000026"><a xlink:title=" ">
<path fill="none" stroke="#63b8ff" d="M926.45,-237.4C950.68,-226.54 991.41,-208.3 1019.47,-195.73"/>
<polygon fill="#63b8ff" stroke="#63b8ff" points="1020.83,-198.96 1028.52,-191.68 1017.96,-192.57 1020.83,-198.96"/>
</a>
</g>
</g>
<!-- Node27 -->
<g id="Node000027" class="node">
<title>Node27</title>
<g id="a_Node000027"><a xlink:title=" ">
<polygon fill="#e0e0e0" stroke="#999999" points="1141,-190.62 1091.25,-190.62 1091.25,-171.38 1141,-171.38 1141,-190.62"/>
<text text-anchor="middle" x="1116.12" y="-177.12" font-family="Helvetica,sans-Serif" font-size="10.00">optional</text>
</a>
</g>
</g>
<!-- Node25&#45;&gt;Node27 -->
<g id="edge35_Node000025_Node000027" class="edge">
<title>Node25&#45;&gt;Node27</title>
<g id="a_edge35_Node000025_Node000027"><a xlink:title=" ">
<path fill="none" stroke="#63b8ff" d="M942.59,-237.44C978.46,-228.22 1034.6,-212.93 1082.12,-196.25 1083.1,-195.91 1084.09,-195.55 1085.09,-195.18"/>
<polygon fill="#63b8ff" stroke="#63b8ff" points="1086.34,-198.45 1094.37,-191.54 1083.79,-191.94 1086.34,-198.45"/>
</a>
</g>
</g>
<!-- Node28&#45;&gt;Node8 -->
<g id="edge39_Node000028_Node000008" class="edge">
<title>Node28&#45;&gt;Node8</title>
<g id="a_edge39_Node000028_Node000008"><a xlink:title=" ">
<path fill="none" stroke="#63b8ff" d="M1305.65,-231.86C1293.63,-221.79 1277.66,-208.42 1265.29,-198.06"/>
<polygon fill="#63b8ff" stroke="#63b8ff" points="1267.73,-195.53 1257.82,-191.79 1263.24,-200.9 1267.73,-195.53"/>
</a>
</g>
</g>
<!-- Node28&#45;&gt;Node13 -->
<g id="edge40_Node000028_Node000013" class="edge">
<title>Node28&#45;&gt;Node13</title>
<g id="a_edge40_Node000028_Node000013"><a xlink:title=" ">
<path fill="none" stroke="#63b8ff" d="M1323.73,-232.02C1323.68,-214.19 1320.85,-184.02 1304.12,-165.75 1288.3,-148.46 1265.63,-137.86 1243.39,-131.36"/>
<polygon fill="#63b8ff" stroke="#63b8ff" points="1244.56,-128.05 1234,-128.87 1242.77,-134.82 1244.56,-128.05"/>
</a>
</g>
</g>
<!-- Node28&#45;&gt;Node23 -->
<g id="edge41_Node000028_Node000023" class="edge">
<title>Node28&#45;&gt;Node23</title>
<g id="a_edge41_Node000028_Node000023"><a xlink:title=" ">
<path fill="none" stroke="#63b8ff" d="M1328.37,-231.77C1331.61,-221.87 1335.46,-208.45 1337.12,-196.25 1339.66,-177.67 1339.35,-156.27 1338.59,-141.08"/>
<polygon fill="#63b8ff" stroke="#63b8ff" points="1342.11,-141.24 1337.99,-131.48 1335.12,-141.68 1342.11,-141.24"/>
</a>
</g>
</g>
<!-- Node29 -->
<g id="Node000029" class="node">
<title>Node29</title>
<g id="a_Node000029"><a xlink:title=" ">
<polygon fill="#e0e0e0" stroke="#999999" points="1523,-190.62 1389.25,-190.62 1389.25,-171.38 1523,-171.38 1523,-190.62"/>
<text text-anchor="middle" x="1456.12" y="-177.12" font-family="Helvetica,sans-Serif" font-size="10.00">SFML/System/Vector3.hpp</text>
</a>
</g>
</g>
<!-- Node28&#45;&gt;Node29 -->
<g id="edge42_Node000028_Node000029" class="edge">
<title>Node28&#45;&gt;Node29</title>
<g id="a_edge42_Node000028_Node000029"><a xlink:title=" ">
<path fill="none" stroke="#63b8ff" d="M1353.3,-231.86C1375.47,-221.12 1405.39,-206.61 1427.24,-196.01"/>
<polygon fill="#63b8ff" stroke="#63b8ff" points="1428.71,-199.18 1436.18,-191.67 1425.66,-192.88 1428.71,-199.18"/>
</a>
</g>
</g>
<!-- Node30 -->
<g id="Node000030" class="node">
<title>Node30</title>
<g id="a_Node000030"><a xlink:href="_macro_8h.html" target="_top" xlink:title=" ">
<polygon fill="white" stroke="#666666" points="1630.88,-196.25 1541.38,-196.25 1541.38,-165.75 1630.88,-165.75 1630.88,-196.25"/>
<text text-anchor="start" x="1549.38" y="-182.75" font-family="Helvetica,sans-Serif" font-size="10.00">sgui/Serialization</text>
<text text-anchor="middle" x="1586.12" y="-171.5" font-family="Helvetica,sans-Serif" font-size="10.00">/Macro.h</text>
</a>
</g>
</g>
<!-- Node28&#45;&gt;Node30 -->
<g id="edge43_Node000028_Node000030" class="edge">
<title>Node28&#45;&gt;Node30</title>
<g id="a_edge43_Node000028_Node000030"><a xlink:title=" ">
<path fill="none" stroke="#63b8ff" d="M1368.45,-235.91C1408.43,-226.49 1468.56,-212.17 1529.99,-196.76"/>
<polygon fill="#63b8ff" stroke="#63b8ff" points="1530.75,-200.18 1539.6,-194.34 1529.04,-193.39 1530.75,-200.18"/>
</a>
</g>
</g>
</g>
</svg>
