<?xml version="1.0" encoding="UTF-8" standalone="no"?>
<!DOCTYPE svg PUBLIC "-//W3C//DTD SVG 1.1//EN"
 "http://www.w3.org/Graphics/SVG/1.1/DTD/svg11.dtd">
<!-- Generated by graphviz version 12.2.1 (20241206.2353)
 -->
<!-- Title: /github/workspace/src/sgui/Serialization/LoadLayout.cpp Pages: 1 -->
<svg width="1510pt" height="415pt"
 viewBox="0.00 0.00 1510.25 415.00" xmlns="http://www.w3.org/2000/svg" xmlns:xlink="http://www.w3.org/1999/xlink">
<g id="graph0" class="graph" transform="scale(1 1) rotate(0) translate(4 411)">
<title>/github/workspace/src/sgui/Serialization/LoadLayout.cpp</title>
<!-- Node1 -->
<g id="Node000001" class="node">
<title>Node1</title>
<g id="a_Node000001"><a xlink:title=" ">
<polygon fill="#999999" stroke="#666666" points="566,-407 401.5,-407 401.5,-376.5 566,-376.5 566,-407"/>
<text text-anchor="start" x="409.5" y="-393.5" font-family="Helvetica,sans-Serif" font-size="10.00">/github/workspace/src</text>
<text text-anchor="middle" x="483.75" y="-382.25" font-family="Helvetica,sans-Serif" font-size="10.00">/sgui/Serialization/LoadLayout.cpp</text>
</a>
</g>
</g>
<!-- Node2 -->
<g id="Node000002" class="node">
<title>Node2</title>
<g id="a_Node000002"><a xlink:title=" ">
<polygon fill="#e0e0e0" stroke="#999999" points="83.5,-334.88 0,-334.88 0,-315.62 83.5,-315.62 83.5,-334.88"/>
<text text-anchor="middle" x="41.75" y="-321.38" font-family="Helvetica,sans-Serif" font-size="10.00">spdlog/spdlog.h</text>
</a>
</g>
</g>
<!-- Node1&#45;&gt;Node2 -->
<g id="edge1_Node000001_Node000002" class="edge">
<title>Node1&#45;&gt;Node2</title>
<g id="a_edge1_Node000001_Node000002"><a xlink:title=" ">
<path fill="none" stroke="#63b8ff" d="M401.22,-382.9C322.75,-374.75 201.62,-360.4 97.75,-340.5 93.89,-339.76 89.9,-338.91 85.91,-338.01"/>
<polygon fill="#63b8ff" stroke="#63b8ff" points="86.78,-334.62 76.24,-335.7 85.15,-341.43 86.78,-334.62"/>
</a>
</g>
</g>
<!-- Node3 -->
<g id="Node000003" class="node">
<title>Node3</title>
<g id="a_Node000003"><a xlink:href="_load_layout_8h.html" target="_top" xlink:title=" ">
<polygon fill="white" stroke="#666666" points="121.5,-85.75 32,-85.75 32,-55.25 121.5,-55.25 121.5,-85.75"/>
<text text-anchor="start" x="40" y="-72.25" font-family="Helvetica,sans-Serif" font-size="10.00">sgui/Serialization</text>
<text text-anchor="middle" x="76.75" y="-61" font-family="Helvetica,sans-Serif" font-size="10.00">/LoadLayout.h</text>
</a>
</g>
</g>
<!-- Node1&#45;&gt;Node3 -->
<g id="edge2_Node000001_Node000003" class="edge">
<title>Node1&#45;&gt;Node3</title>
<g id="a_edge2_Node000001_Node000003"><a xlink:title=" ">
<path fill="none" stroke="#63b8ff" d="M401.19,-378.65C291.6,-360.22 111.75,-320.69 111.75,-259.75 111.75,-259.75 111.75,-259.75 111.75,-191.25 111.75,-157.41 98.71,-120.26 88.55,-96.46"/>
<polygon fill="#63b8ff" stroke="#63b8ff" points="91.87,-95.32 84.62,-87.6 85.48,-98.16 91.87,-95.32"/>
</a>
</g>
</g>
<!-- Node5 -->
<g id="Node000005" class="node">
<title>Node5</title>
<g id="a_Node000005"><a xlink:href="_load_json_8h.html" target="_top" xlink:title=" ">
<polygon fill="white" stroke="#666666" points="1428.5,-340.5 1339,-340.5 1339,-310 1428.5,-310 1428.5,-340.5"/>
<text text-anchor="start" x="1347" y="-327" font-family="Helvetica,sans-Serif" font-size="10.00">sgui/Serialization</text>
<text text-anchor="middle" x="1383.75" y="-315.75" font-family="Helvetica,sans-Serif" font-size="10.00">/LoadJson.h</text>
</a>
</g>
</g>
<!-- Node1&#45;&gt;Node5 -->
<g id="edge4_Node000001_Node000005" class="edge">
<title>Node1&#45;&gt;Node5</title>
<g id="a_edge4_Node000001_Node000005"><a xlink:title=" ">
<path fill="none" stroke="#63b8ff" d="M566.41,-384.83C747.14,-371.87 1173.6,-341.31 1327.29,-330.3"/>
<polygon fill="#63b8ff" stroke="#63b8ff" points="1327.51,-333.79 1337.23,-329.58 1327.01,-326.81 1327.51,-333.79"/>
</a>
</g>
</g>
<!-- Node9 -->
<g id="Node000009" class="node">
<title>Node9</title>
<g id="a_Node000009"><a xlink:href="_serialize_g_u_i_8h.html" target="_top" xlink:title=" ">
<polygon fill="white" stroke="#666666" points="900.5,-340.5 811,-340.5 811,-310 900.5,-310 900.5,-340.5"/>
<text text-anchor="start" x="819" y="-327" font-family="Helvetica,sans-Serif" font-size="10.00">sgui/Serialization</text>
<text text-anchor="middle" x="855.75" y="-315.75" font-family="Helvetica,sans-Serif" font-size="10.00">/SerializeGUI.h</text>
</a>
</g>
</g>
<!-- Node1&#45;&gt;Node9 -->
<g id="edge8_Node000001_Node000009" class="edge">
<title>Node1&#45;&gt;Node9</title>
<g id="a_edge8_Node000001_Node000009"><a xlink:title=" ">
<path fill="none" stroke="#63b8ff" d="M566.31,-376.44C637.24,-364.14 737.6,-346.74 799.58,-335.99"/>
<polygon fill="#63b8ff" stroke="#63b8ff" points="799.95,-339.48 809.2,-334.32 798.75,-332.58 799.95,-339.48"/>
</a>
</g>
</g>
<!-- Node4 -->
<g id="Node000004" class="node">
<title>Node4</title>
<g id="a_Node000004"><a xlink:title=" ">
<polygon fill="#e0e0e0" stroke="#999999" points="302.75,-19.25 262.75,-19.25 262.75,0 302.75,0 302.75,-19.25"/>
<text text-anchor="middle" x="282.75" y="-5.75" font-family="Helvetica,sans-Serif" font-size="10.00">string</text>
</a>
</g>
</g>
<!-- Node3&#45;&gt;Node4 -->
<g id="edge3_Node000003_Node000004" class="edge">
<title>Node3&#45;&gt;Node4</title>
<g id="a_edge3_Node000003_Node000004"><a xlink:title=" ">
<path fill="none" stroke="#63b8ff" d="M121.96,-56.58C161.22,-45.36 217.05,-29.4 251.53,-19.55"/>
<polygon fill="#63b8ff" stroke="#63b8ff" points="252.25,-22.98 260.9,-16.87 250.32,-16.25 252.25,-22.98"/>
</a>
</g>
</g>
<!-- Node6 -->
<g id="Node000006" class="node">
<title>Node6</title>
<g id="a_Node000006"><a xlink:title=" ">
<polygon fill="#e0e0e0" stroke="#999999" points="1435.62,-268.38 1385.88,-268.38 1385.88,-249.12 1435.62,-249.12 1435.62,-268.38"/>
<text text-anchor="middle" x="1410.75" y="-254.88" font-family="Helvetica,sans-Serif" font-size="10.00">iomanip</text>
</a>
</g>
</g>
<!-- Node5&#45;&gt;Node6 -->
<g id="edge5_Node000005_Node000006" class="edge">
<title>Node5&#45;&gt;Node6</title>
<g id="a_edge5_Node000005_Node000006"><a xlink:title=" ">
<path fill="none" stroke="#63b8ff" d="M1389.88,-309.61C1393.68,-300.53 1398.61,-288.76 1402.72,-278.93"/>
<polygon fill="#63b8ff" stroke="#63b8ff" points="1405.84,-280.54 1406.47,-269.97 1399.38,-277.84 1405.84,-280.54"/>
</a>
</g>
</g>
<!-- Node7 -->
<g id="Node000007" class="node">
<title>Node7</title>
<g id="a_Node000007"><a xlink:title=" ">
<polygon fill="#e0e0e0" stroke="#999999" points="1502.25,-268.38 1453.25,-268.38 1453.25,-249.12 1502.25,-249.12 1502.25,-268.38"/>
<text text-anchor="middle" x="1477.75" y="-254.88" font-family="Helvetica,sans-Serif" font-size="10.00">fstream</text>
</a>
</g>
</g>
<!-- Node5&#45;&gt;Node7 -->
<g id="edge6_Node000005_Node000007" class="edge">
<title>Node5&#45;&gt;Node7</title>
<g id="a_edge6_Node000005_Node000007"><a xlink:title=" ">
<path fill="none" stroke="#63b8ff" d="M1405.08,-309.61C1420.1,-299.31 1440.16,-285.54 1455.4,-275.08"/>
<polygon fill="#63b8ff" stroke="#63b8ff" points="1457.11,-278.16 1463.37,-269.62 1453.15,-272.39 1457.11,-278.16"/>
</a>
</g>
</g>
<!-- Node8 -->
<g id="Node000008" class="node">
<title>Node8</title>
<g id="a_Node000008"><a xlink:title=" ">
<polygon fill="#e0e0e0" stroke="#999999" points="1435.25,-201.88 1338.25,-201.88 1338.25,-182.62 1435.25,-182.62 1435.25,-201.88"/>
<text text-anchor="middle" x="1386.75" y="-188.38" font-family="Helvetica,sans-Serif" font-size="10.00">nlohmann/json.hpp</text>
</a>
</g>
</g>
<!-- Node5&#45;&gt;Node8 -->
<g id="edge7_Node000005_Node000008" class="edge">
<title>Node5&#45;&gt;Node8</title>
<g id="a_edge7_Node000005_Node000008"><a xlink:title=" ">
<path fill="none" stroke="#63b8ff" d="M1380.86,-309.65C1378.04,-293.47 1374.47,-266.61 1376.75,-243.5 1377.75,-233.4 1379.84,-222.32 1381.86,-213.14"/>
<polygon fill="#63b8ff" stroke="#63b8ff" points="1385.23,-214.07 1384.1,-203.54 1378.42,-212.48 1385.23,-214.07"/>
</a>
</g>
</g>
<!-- Node9&#45;&gt;Node8 -->
<g id="edge9_Node000009_Node000008" class="edge">
<title>Node9&#45;&gt;Node8</title>
<g id="a_edge9_Node000009_Node000008"><a xlink:title=" ">
<path fill="none" stroke="#63b8ff" d="M900.74,-317.91C955.86,-309.72 1051.88,-294.1 1132.75,-274 1211.9,-254.32 1302.48,-223.46 1351.22,-206.14"/>
<polygon fill="#63b8ff" stroke="#63b8ff" points="1352.16,-209.53 1360.39,-202.86 1349.8,-202.93 1352.16,-209.53"/>
</a>
</g>
</g>
<!-- Node10 -->
<g id="Node000010" class="node">
<title>Node10</title>
<g id="a_Node000010"><a xlink:href="_layout_8h.html" target="_top" xlink:title=" ">
<polygon fill="white" stroke="#666666" points="566.38,-268.38 443.12,-268.38 443.12,-249.12 566.38,-249.12 566.38,-268.38"/>
<text text-anchor="middle" x="504.75" y="-254.88" font-family="Helvetica,sans-Serif" font-size="10.00">sgui/Resources/Layout.h</text>
</a>
</g>
</g>
<!-- Node9&#45;&gt;Node10 -->
<g id="edge10_Node000009_Node000010" class="edge">
<title>Node9&#45;&gt;Node10</title>
<g id="a_edge10_Node000009_Node000010"><a xlink:title=" ">
<path fill="none" stroke="#63b8ff" d="M810.58,-315.95C748.14,-304.48 635.28,-283.74 565.5,-270.91"/>
<polygon fill="#63b8ff" stroke="#63b8ff" points="566.22,-267.49 555.75,-269.12 564.96,-274.37 566.22,-267.49"/>
</a>
</g>
</g>
<!-- Node26 -->
<g id="Node000026" class="node">
<title>Node26</title>
<g id="a_Node000026"><a xlink:href="_texture_atlas_8h.html" target="_top" xlink:title=" ">
<polygon fill="white" stroke="#666666" points="930.12,-268.38 781.38,-268.38 781.38,-249.12 930.12,-249.12 930.12,-268.38"/>
<text text-anchor="middle" x="855.75" y="-254.88" font-family="Helvetica,sans-Serif" font-size="10.00">sgui/Resources/TextureAtlas.h</text>
</a>
</g>
</g>
<!-- Node9&#45;&gt;Node26 -->
<g id="edge31_Node000009_Node000026" class="edge">
<title>Node9&#45;&gt;Node26</title>
<g id="a_edge31_Node000009_Node000026"><a xlink:title=" ">
<path fill="none" stroke="#63b8ff" d="M855.75,-309.61C855.75,-300.83 855.75,-289.52 855.75,-279.9"/>
<polygon fill="#63b8ff" stroke="#63b8ff" points="859.25,-280.09 855.75,-270.09 852.25,-280.09 859.25,-280.09"/>
</a>
</g>
</g>
<!-- Node29 -->
<g id="Node000029" class="node">
<title>Node29</title>
<g id="a_Node000029"><a xlink:href="_serialize_s_f_m_l_8h.html" target="_top" xlink:title=" ">
<polygon fill="white" stroke="#666666" points="1123.88,-274 1033.62,-274 1033.62,-243.5 1123.88,-243.5 1123.88,-274"/>
<text text-anchor="start" x="1041.62" y="-260.5" font-family="Helvetica,sans-Serif" font-size="10.00">sgui/Serialization</text>
<text text-anchor="middle" x="1078.75" y="-249.25" font-family="Helvetica,sans-Serif" font-size="10.00">/SerializeSFML.h</text>
</a>
</g>
</g>
<!-- Node9&#45;&gt;Node29 -->
<g id="edge37_Node000009_Node000029" class="edge">
<title>Node9&#45;&gt;Node29</title>
<g id="a_edge37_Node000009_Node000029"><a xlink:title=" ">
<path fill="none" stroke="#63b8ff" d="M900.88,-311.2C935.98,-301.05 984.87,-286.9 1022.51,-276.02"/>
<polygon fill="#63b8ff" stroke="#63b8ff" points="1023.22,-279.45 1031.85,-273.31 1021.27,-272.73 1023.22,-279.45"/>
</a>
</g>
</g>
<!-- Node10&#45;&gt;Node4 -->
<g id="edge11_Node000010_Node000004" class="edge">
<title>Node10&#45;&gt;Node4</title>
<g id="a_edge11_Node000010_Node000004"><a xlink:title=" ">
<path fill="none" stroke="#63b8ff" d="M442.65,-257.73C355.44,-256.22 203.4,-247.72 168.75,-207.5 117.35,-147.84 215.15,-61.7 260.94,-26.51"/>
<polygon fill="#63b8ff" stroke="#63b8ff" points="263,-29.33 268.89,-20.52 258.79,-23.74 263,-29.33"/>
</a>
</g>
</g>
<!-- Node11 -->
<g id="Node000011" class="node">
<title>Node11</title>
<g id="a_Node000011"><a xlink:title=" ">
<polygon fill="#e0e0e0" stroke="#999999" points="496.25,-201.88 453.25,-201.88 453.25,-182.62 496.25,-182.62 496.25,-201.88"/>
<text text-anchor="middle" x="474.75" y="-188.38" font-family="Helvetica,sans-Serif" font-size="10.00">vector</text>
</a>
</g>
</g>
<!-- Node10&#45;&gt;Node11 -->
<g id="edge12_Node000010_Node000011" class="edge">
<title>Node10&#45;&gt;Node11</title>
<g id="a_edge12_Node000010_Node000011"><a xlink:title=" ">
<path fill="none" stroke="#63b8ff" d="M500.58,-248.78C496.24,-239.44 489.3,-224.53 483.71,-212.51"/>
<polygon fill="#63b8ff" stroke="#63b8ff" points="486.92,-211.11 479.52,-203.51 480.57,-214.06 486.92,-211.11"/>
</a>
</g>
</g>
<!-- Node12 -->
<g id="Node000012" class="node">
<title>Node12</title>
<g id="a_Node000012"><a xlink:title=" ">
<polygon fill="#e0e0e0" stroke="#999999" points="553,-201.88 514.5,-201.88 514.5,-182.62 553,-182.62 553,-201.88"/>
<text text-anchor="middle" x="533.75" y="-188.38" font-family="Helvetica,sans-Serif" font-size="10.00">utility</text>
</a>
</g>
</g>
<!-- Node10&#45;&gt;Node12 -->
<g id="edge13_Node000010_Node000012" class="edge">
<title>Node10&#45;&gt;Node12</title>
<g id="a_edge13_Node000010_Node000012"><a xlink:title=" ">
<path fill="none" stroke="#63b8ff" d="M508.78,-248.78C512.98,-239.44 519.69,-224.53 525.09,-212.51"/>
<polygon fill="#63b8ff" stroke="#63b8ff" points="528.22,-214.08 529.13,-203.52 521.84,-211.21 528.22,-214.08"/>
</a>
</g>
</g>
<!-- Node13 -->
<g id="Node000013" class="node">
<title>Node13</title>
<g id="a_Node000013"><a xlink:title=" ">
<polygon fill="#e0e0e0" stroke="#999999" points="777.12,-201.88 694.38,-201.88 694.38,-182.62 777.12,-182.62 777.12,-201.88"/>
<text text-anchor="middle" x="735.75" y="-188.38" font-family="Helvetica,sans-Serif" font-size="10.00">unordered_map</text>
</a>
</g>
</g>
<!-- Node10&#45;&gt;Node13 -->
<g id="edge14_Node000010_Node000013" class="edge">
<title>Node10&#45;&gt;Node13</title>
<g id="a_edge14_Node000010_Node000013"><a xlink:title=" ">
<path fill="none" stroke="#63b8ff" d="M537.27,-248.67C573.32,-238.61 633.19,-221.9 684.75,-207.5 687.16,-206.83 689.63,-206.14 692.13,-205.44"/>
<polygon fill="#63b8ff" stroke="#63b8ff" points="692.95,-208.84 701.64,-202.78 691.07,-202.1 692.95,-208.84"/>
</a>
</g>
</g>
<!-- Node14 -->
<g id="Node000014" class="node">
<title>Node14</title>
<g id="a_Node000014"><a xlink:href="_style_8h.html" target="_top" xlink:title=" ">
<polygon fill="white" stroke="#666666" points="676,-201.88 571.5,-201.88 571.5,-182.62 676,-182.62 676,-201.88"/>
<text text-anchor="middle" x="623.75" y="-188.38" font-family="Helvetica,sans-Serif" font-size="10.00">sgui/Widgets/Style.h</text>
</a>
</g>
</g>
<!-- Node10&#45;&gt;Node14 -->
<g id="edge15_Node000010_Node000014" class="edge">
<title>Node10&#45;&gt;Node14</title>
<g id="a_edge15_Node000010_Node000014"><a xlink:title=" ">
<path fill="none" stroke="#63b8ff" d="M521.55,-248.65C541.22,-237.99 574.04,-220.19 597.17,-207.66"/>
<polygon fill="#63b8ff" stroke="#63b8ff" points="598.58,-210.87 605.71,-203.03 595.25,-204.72 598.58,-210.87"/>
</a>
</g>
</g>
<!-- Node17 -->
<g id="Node000017" class="node">
<title>Node17</title>
<g id="a_Node000017"><a xlink:href="_panel_8h.html" target="_top" xlink:title=" ">
<polygon fill="white" stroke="#666666" points="285.5,-201.88 178,-201.88 178,-182.62 285.5,-182.62 285.5,-201.88"/>
<text text-anchor="middle" x="231.75" y="-188.38" font-family="Helvetica,sans-Serif" font-size="10.00">sgui/Widgets/Panel.h</text>
</a>
</g>
</g>
<!-- Node10&#45;&gt;Node17 -->
<g id="edge19_Node000010_Node000017" class="edge">
<title>Node10&#45;&gt;Node17</title>
<g id="a_edge19_Node000010_Node000017"><a xlink:title=" ">
<path fill="none" stroke="#63b8ff" d="M466.21,-248.65C417.74,-237.19 334.43,-217.51 281.28,-204.95"/>
<polygon fill="#63b8ff" stroke="#63b8ff" points="282.1,-201.55 271.56,-202.66 280.49,-208.36 282.1,-201.55"/>
</a>
</g>
</g>
<!-- Node25 -->
<g id="Node000025" class="node">
<title>Node25</title>
<g id="a_Node000025"><a xlink:href="_layout_8tpp.html" target="_top" xlink:title=" ">
<polygon fill="white" stroke="#666666" points="435.5,-201.88 304,-201.88 304,-182.62 435.5,-182.62 435.5,-201.88"/>
<text text-anchor="middle" x="369.75" y="-188.38" font-family="Helvetica,sans-Serif" font-size="10.00">sgui/Resources/Layout.tpp</text>
</a>
</g>
</g>
<!-- Node10&#45;&gt;Node25 -->
<g id="edge30_Node000010_Node000025" class="edge">
<title>Node10&#45;&gt;Node25</title>
<g id="a_edge30_Node000010_Node000025"><a xlink:title=" ">
<path fill="none" stroke="#63b8ff" d="M485.69,-248.65C463.08,-237.84 425.14,-219.71 398.84,-207.15"/>
<polygon fill="#63b8ff" stroke="#63b8ff" points="400.61,-204.11 390.07,-202.96 397.59,-210.43 400.61,-204.11"/>
</a>
</g>
</g>
<!-- Node14&#45;&gt;Node4 -->
<g id="edge16_Node000014_Node000004" class="edge">
<title>Node14&#45;&gt;Node4</title>
<g id="a_edge16_Node000014_Node000004"><a xlink:title=" ">
<path fill="none" stroke="#63b8ff" d="M585.35,-182.2C533.32,-169.79 445.34,-148.2 431.75,-141 375.27,-111.06 322.22,-55.82 297.42,-27.83"/>
<polygon fill="#63b8ff" stroke="#63b8ff" points="300.33,-25.85 291.12,-20.6 295.05,-30.44 300.33,-25.85"/>
</a>
</g>
</g>
<!-- Node15 -->
<g id="Node000015" class="node">
<title>Node15</title>
<g id="a_Node000015"><a xlink:title=" ">
<polygon fill="#e0e0e0" stroke="#999999" points="1115,-141 986.5,-141 986.5,-121.75 1115,-121.75 1115,-141"/>
<text text-anchor="middle" x="1050.75" y="-127.5" font-family="Helvetica,sans-Serif" font-size="10.00">SFML/Graphics/Color.hpp</text>
</a>
</g>
</g>
<!-- Node14&#45;&gt;Node15 -->
<g id="edge17_Node000014_Node000015" class="edge">
<title>Node14&#45;&gt;Node15</title>
<g id="a_edge17_Node000014_Node000015"><a xlink:title=" ">
<path fill="none" stroke="#63b8ff" d="M660.34,-182.17C668.66,-180.3 677.48,-178.45 685.75,-177 699.8,-174.53 872.27,-153.74 975.02,-141.43"/>
<polygon fill="#63b8ff" stroke="#63b8ff" points="975.25,-144.93 984.77,-140.26 974.42,-137.98 975.25,-144.93"/>
</a>
</g>
</g>
<!-- Node16 -->
<g id="Node000016" class="node">
<title>Node16</title>
<g id="a_Node000016"><a xlink:title=" ">
<polygon fill="#e0e0e0" stroke="#999999" points="809.62,-19.25 675.88,-19.25 675.88,0 809.62,0 809.62,-19.25"/>
<text text-anchor="middle" x="742.75" y="-5.75" font-family="Helvetica,sans-Serif" font-size="10.00">SFML/System/Vector2.hpp</text>
</a>
</g>
</g>
<!-- Node14&#45;&gt;Node16 -->
<g id="edge18_Node000014_Node000016" class="edge">
<title>Node14&#45;&gt;Node16</title>
<g id="a_edge18_Node000014_Node000016"><a xlink:title=" ">
<path fill="none" stroke="#63b8ff" d="M641.87,-182.32C670.46,-167.08 725.01,-133.04 746.75,-85.75 754.76,-68.33 752.27,-46.19 748.69,-30.47"/>
<polygon fill="#63b8ff" stroke="#63b8ff" points="752.1,-29.68 746.15,-20.92 745.33,-31.48 752.1,-29.68"/>
</a>
</g>
</g>
<!-- Node17&#45;&gt;Node4 -->
<g id="edge20_Node000017_Node000004" class="edge">
<title>Node17&#45;&gt;Node4</title>
<g id="a_edge20_Node000017_Node000004"><a xlink:title=" ">
<path fill="none" stroke="#63b8ff" d="M234.17,-182.24C237.74,-168.98 244.67,-143.43 250.75,-121.75 259.73,-89.77 270.47,-52.71 276.94,-30.5"/>
<polygon fill="#63b8ff" stroke="#63b8ff" points="280.27,-31.58 279.71,-21 273.55,-29.62 280.27,-31.58"/>
</a>
</g>
</g>
<!-- Node18 -->
<g id="Node000018" class="node">
<title>Node18</title>
<g id="a_Node000018"><a xlink:title=" ">
<polygon fill="#e0e0e0" stroke="#999999" points="317.75,-141 259.75,-141 259.75,-121.75 317.75,-121.75 317.75,-141"/>
<text text-anchor="middle" x="288.75" y="-127.5" font-family="Helvetica,sans-Serif" font-size="10.00">functional</text>
</a>
</g>
</g>
<!-- Node17&#45;&gt;Node18 -->
<g id="edge21_Node000017_Node000018" class="edge">
<title>Node17&#45;&gt;Node18</title>
<g id="a_edge21_Node000017_Node000018"><a xlink:title=" ">
<path fill="none" stroke="#63b8ff" d="M240.41,-182.31C248.78,-173.66 261.68,-160.34 272.05,-149.62"/>
<polygon fill="#63b8ff" stroke="#63b8ff" points="274.52,-152.11 278.96,-142.49 269.49,-147.24 274.52,-152.11"/>
</a>
</g>
</g>
<!-- Node19 -->
<g id="Node000019" class="node">
<title>Node19</title>
<g id="a_Node000019"><a xlink:title=" ">
<polygon fill="#e0e0e0" stroke="#999999" points="968.88,-141 842.62,-141 842.62,-121.75 968.88,-121.75 968.88,-141"/>
<text text-anchor="middle" x="905.75" y="-127.5" font-family="Helvetica,sans-Serif" font-size="10.00">SFML/Graphics/Rect.hpp</text>
</a>
</g>
</g>
<!-- Node17&#45;&gt;Node19 -->
<g id="edge22_Node000017_Node000019" class="edge">
<title>Node17&#45;&gt;Node19</title>
<g id="a_edge22_Node000017_Node000019"><a xlink:title=" ">
<path fill="none" stroke="#63b8ff" d="M267.56,-182.18C276.4,-180.21 285.88,-178.32 294.75,-177 486.72,-148.44 715.47,-137.92 831.02,-134.24"/>
<polygon fill="#63b8ff" stroke="#63b8ff" points="831.12,-137.74 841.01,-133.93 830.9,-130.74 831.12,-137.74"/>
</a>
</g>
</g>
<!-- Node20 -->
<g id="Node000020" class="node">
<title>Node20</title>
<g id="a_Node000020"><a xlink:href="_options_8h.html" target="_top" xlink:title=" ">
<polygon fill="white" stroke="#666666" points="590,-141 473.5,-141 473.5,-121.75 590,-121.75 590,-141"/>
<text text-anchor="middle" x="531.75" y="-127.5" font-family="Helvetica,sans-Serif" font-size="10.00">sgui/Widgets/Options.h</text>
</a>
</g>
</g>
<!-- Node17&#45;&gt;Node20 -->
<g id="edge23_Node000017_Node000020" class="edge">
<title>Node17&#45;&gt;Node20</title>
<g id="a_edge23_Node000017_Node000020"><a xlink:title=" ">
<path fill="none" stroke="#63b8ff" d="M271.02,-182.14C278.87,-180.38 287.06,-178.59 294.75,-177 353.96,-164.73 421.79,-152.1 469.67,-143.43"/>
<polygon fill="#63b8ff" stroke="#63b8ff" points="470.08,-146.91 479.3,-141.69 468.84,-140.02 470.08,-146.91"/>
</a>
</g>
</g>
<!-- Node21 -->
<g id="Node000021" class="node">
<title>Node21</title>
<g id="a_Node000021"><a xlink:href="_constraints_8h.html" target="_top" xlink:title=" ">
<polygon fill="white" stroke="#666666" points="737.88,-80.12 605.62,-80.12 605.62,-60.88 737.88,-60.88 737.88,-80.12"/>
<text text-anchor="middle" x="671.75" y="-66.62" font-family="Helvetica,sans-Serif" font-size="10.00">sgui/Widgets/Constraints.h</text>
</a>
</g>
</g>
<!-- Node20&#45;&gt;Node21 -->
<g id="edge24_Node000020_Node000021" class="edge">
<title>Node20&#45;&gt;Node21</title>
<g id="a_edge24_Node000020_Node000021"><a xlink:title=" ">
<path fill="none" stroke="#63b8ff" d="M553.32,-121.3C576.51,-111.55 613.61,-95.95 640.1,-84.81"/>
<polygon fill="#63b8ff" stroke="#63b8ff" points="641.13,-88.17 648.99,-81.07 638.42,-81.72 641.13,-88.17"/>
</a>
</g>
</g>
<!-- Node22 -->
<g id="Node000022" class="node">
<title>Node22</title>
<g id="a_Node000022"><a xlink:href="_aspect_8h.html" target="_top" xlink:title=" ">
<polygon fill="white" stroke="#666666" points="587.5,-80.12 474,-80.12 474,-60.88 587.5,-60.88 587.5,-80.12"/>
<text text-anchor="middle" x="530.75" y="-66.62" font-family="Helvetica,sans-Serif" font-size="10.00">sgui/Widgets/Aspect.h</text>
</a>
</g>
</g>
<!-- Node20&#45;&gt;Node22 -->
<g id="edge26_Node000020_Node000022" class="edge">
<title>Node20&#45;&gt;Node22</title>
<g id="a_edge26_Node000020_Node000022"><a xlink:title=" ">
<path fill="none" stroke="#63b8ff" d="M531.6,-121.43C531.47,-113.65 531.27,-102.08 531.1,-92.03"/>
<polygon fill="#63b8ff" stroke="#63b8ff" points="534.6,-91.98 530.93,-82.04 527.6,-92.1 534.6,-91.98"/>
</a>
</g>
</g>
<!-- Node21&#45;&gt;Node16 -->
<g id="edge25_Node000021_Node000016" class="edge">
<title>Node21&#45;&gt;Node16</title>
<g id="a_edge25_Node000021_Node000016"><a xlink:title=" ">
<path fill="none" stroke="#63b8ff" d="M682.53,-60.56C693.27,-51.65 710,-37.78 723.1,-26.92"/>
<polygon fill="#63b8ff" stroke="#63b8ff" points="725.24,-29.69 730.7,-20.62 720.77,-24.31 725.24,-29.69"/>
</a>
</g>
</g>
<!-- Node22&#45;&gt;Node4 -->
<g id="edge27_Node000022_Node000004" class="edge">
<title>Node22&#45;&gt;Node4</title>
<g id="a_edge27_Node000022_Node000004"><a xlink:title=" ">
<path fill="none" stroke="#63b8ff" d="M492.54,-60.43C443.55,-48.8 359.5,-28.85 314.08,-18.06"/>
<polygon fill="#63b8ff" stroke="#63b8ff" points="315.15,-14.72 304.62,-15.82 313.54,-21.53 315.15,-14.72"/>
</a>
</g>
</g>
<!-- Node23 -->
<g id="Node000023" class="node">
<title>Node23</title>
<g id="a_Node000023"><a xlink:href="_widgets_8h.html" target="_top" xlink:title=" ">
<polygon fill="white" stroke="#666666" points="612.75,-19.25 494.75,-19.25 494.75,0 612.75,0 612.75,-19.25"/>
<text text-anchor="middle" x="553.75" y="-5.75" font-family="Helvetica,sans-Serif" font-size="10.00">sgui/Widgets/Widgets.h</text>
</a>
</g>
</g>
<!-- Node22&#45;&gt;Node23 -->
<g id="edge28_Node000022_Node000023" class="edge">
<title>Node22&#45;&gt;Node23</title>
<g id="a_edge28_Node000022_Node000023"><a xlink:title=" ">
<path fill="none" stroke="#63b8ff" d="M534.24,-60.56C537.38,-52.52 542.11,-40.43 546.12,-30.16"/>
<polygon fill="#63b8ff" stroke="#63b8ff" points="549.29,-31.65 549.67,-21.06 542.77,-29.1 549.29,-31.65"/>
</a>
</g>
</g>
<!-- Node24 -->
<g id="Node000024" class="node">
<title>Node24</title>
<g id="a_Node000024"><a xlink:href="_item_states_8h.html" target="_top" xlink:title=" ">
<polygon fill="white" stroke="#666666" points="477.12,-19.25 346.38,-19.25 346.38,0 477.12,0 477.12,-19.25"/>
<text text-anchor="middle" x="411.75" y="-5.75" font-family="Helvetica,sans-Serif" font-size="10.00">sgui/Widgets/ItemStates.h</text>
</a>
</g>
</g>
<!-- Node22&#45;&gt;Node24 -->
<g id="edge29_Node000022_Node000024" class="edge">
<title>Node22&#45;&gt;Node24</title>
<g id="a_edge29_Node000022_Node000024"><a xlink:title=" ">
<path fill="none" stroke="#63b8ff" d="M512.42,-60.43C493.14,-50.89 462.57,-35.77 440.16,-24.68"/>
<polygon fill="#63b8ff" stroke="#63b8ff" points="441.78,-21.58 431.27,-20.28 438.68,-27.85 441.78,-21.58"/>
</a>
</g>
</g>
<!-- Node26&#45;&gt;Node4 -->
<g id="edge32_Node000026_Node000004" class="edge">
<title>Node26&#45;&gt;Node4</title>
<g id="a_edge32_Node000026_Node000004"><a xlink:title=" ">
<path fill="none" stroke="#63b8ff" d="M851.03,-248.78C841.38,-231.49 817.61,-193.75 785.75,-177 658.69,-110.18 597.93,-194.59 464.75,-141 435.67,-129.3 378.43,-73.22 352.75,-55.25 337.98,-44.91 320.92,-34.02 307.35,-25.59"/>
<polygon fill="#63b8ff" stroke="#63b8ff" points="309.38,-22.73 299.03,-20.46 305.71,-28.69 309.38,-22.73"/>
</a>
</g>
</g>
<!-- Node26&#45;&gt;Node13 -->
<g id="edge35_Node000026_Node000013" class="edge">
<title>Node26&#45;&gt;Node13</title>
<g id="a_edge35_Node000026_Node000013"><a xlink:title=" ">
<path fill="none" stroke="#63b8ff" d="M838.81,-248.65C818.98,-237.99 785.88,-220.19 762.55,-207.66"/>
<polygon fill="#63b8ff" stroke="#63b8ff" points="764.4,-204.68 753.94,-203.02 761.09,-210.84 764.4,-204.68"/>
</a>
</g>
</g>
<!-- Node26&#45;&gt;Node19 -->
<g id="edge36_Node000026_Node000019" class="edge">
<title>Node26&#45;&gt;Node19</title>
<g id="a_edge36_Node000026_Node000019"><a xlink:title=" ">
<path fill="none" stroke="#63b8ff" d="M895.45,-248.67C917.3,-241.43 942.59,-228.83 955.75,-207.5 962.87,-195.96 961.29,-189.37 955.75,-177 950.54,-165.37 940.64,-155.53 931.02,-148.07"/>
<polygon fill="#63b8ff" stroke="#63b8ff" points="933.08,-145.24 922.9,-142.3 929.02,-150.95 933.08,-145.24"/>
</a>
</g>
</g>
<!-- Node27 -->
<g id="Node000027" class="node">
<title>Node27</title>
<g id="a_Node000027"><a xlink:title=" ">
<polygon fill="#e0e0e0" stroke="#999999" points="878.38,-201.88 833.12,-201.88 833.12,-182.62 878.38,-182.62 878.38,-201.88"/>
<text text-anchor="middle" x="855.75" y="-188.38" font-family="Helvetica,sans-Serif" font-size="10.00">cstdint</text>
</a>
</g>
</g>
<!-- Node26&#45;&gt;Node27 -->
<g id="edge33_Node000026_Node000027" class="edge">
<title>Node26&#45;&gt;Node27</title>
<g id="a_edge33_Node000026_Node000027"><a xlink:title=" ">
<path fill="none" stroke="#63b8ff" d="M855.75,-248.78C855.75,-239.73 855.75,-225.45 855.75,-213.63"/>
<polygon fill="#63b8ff" stroke="#63b8ff" points="859.25,-213.66 855.75,-203.66 852.25,-213.66 859.25,-213.66"/>
</a>
</g>
</g>
<!-- Node28 -->
<g id="Node000028" class="node">
<title>Node28</title>
<g id="a_Node000028"><a xlink:title=" ">
<polygon fill="#e0e0e0" stroke="#999999" points="946.62,-201.88 896.88,-201.88 896.88,-182.62 946.62,-182.62 946.62,-201.88"/>
<text text-anchor="middle" x="921.75" y="-188.38" font-family="Helvetica,sans-Serif" font-size="10.00">optional</text>
</a>
</g>
</g>
<!-- Node26&#45;&gt;Node28 -->
<g id="edge34_Node000026_Node000028" class="edge">
<title>Node26&#45;&gt;Node28</title>
<g id="a_edge34_Node000026_Node000028"><a xlink:title=" ">
<path fill="none" stroke="#63b8ff" d="M864.93,-248.78C875.17,-238.77 891.98,-222.35 904.66,-209.95"/>
<polygon fill="#63b8ff" stroke="#63b8ff" points="906.86,-212.69 911.57,-203.2 901.97,-207.69 906.86,-212.69"/>
</a>
</g>
</g>
<!-- Node29&#45;&gt;Node8 -->
<g id="edge38_Node000029_Node000008" class="edge">
<title>Node29&#45;&gt;Node8</title>
<g id="a_edge38_Node000029_Node000008"><a xlink:title=" ">
<path fill="none" stroke="#63b8ff" d="M1124.23,-249.32C1174.62,-239.82 1258.21,-223.59 1329.75,-207.5 1333.28,-206.71 1336.93,-205.86 1340.6,-204.99"/>
<polygon fill="#63b8ff" stroke="#63b8ff" points="1341.18,-208.45 1350.07,-202.69 1339.53,-201.64 1341.18,-208.45"/>
</a>
</g>
</g>
<!-- Node29&#45;&gt;Node15 -->
<g id="edge40_Node000029_Node000015" class="edge">
<title>Node29&#45;&gt;Node15</title>
<g id="a_edge40_Node000029_Node000015"><a xlink:title=" ">
<path fill="none" stroke="#63b8ff" d="M1075.54,-243.37C1070.55,-221.03 1060.92,-177.92 1055.25,-152.5"/>
<polygon fill="#63b8ff" stroke="#63b8ff" points="1058.67,-151.79 1053.08,-142.8 1051.84,-153.32 1058.67,-151.79"/>
</a>
</g>
</g>
<!-- Node29&#45;&gt;Node19 -->
<g id="edge39_Node000029_Node000019" class="edge">
<title>Node29&#45;&gt;Node19</title>
<g id="a_edge39_Node000029_Node000019"><a xlink:title=" ">
<path fill="none" stroke="#63b8ff" d="M1060.03,-243.16C1038.84,-226.75 1003.18,-199.46 971.75,-177 957.72,-166.97 941.7,-156.13 928.96,-147.64"/>
<polygon fill="#63b8ff" stroke="#63b8ff" points="931.07,-144.84 920.81,-142.24 927.21,-150.68 931.07,-144.84"/>
</a>
</g>
</g>
<!-- Node30 -->
<g id="Node000030" class="node">
<title>Node30</title>
<g id="a_Node000030"><a xlink:title=" ">
<polygon fill="#e0e0e0" stroke="#999999" points="1212.62,-201.88 1078.88,-201.88 1078.88,-182.62 1212.62,-182.62 1212.62,-201.88"/>
<text text-anchor="middle" x="1145.75" y="-188.38" font-family="Helvetica,sans-Serif" font-size="10.00">SFML/System/Vector3.hpp</text>
</a>
</g>
</g>
<!-- Node29&#45;&gt;Node30 -->
<g id="edge41_Node000029_Node000030" class="edge">
<title>Node29&#45;&gt;Node30</title>
<g id="a_edge41_Node000029_Node000030"><a xlink:title=" ">
<path fill="none" stroke="#63b8ff" d="M1093.95,-243.11C1104.21,-233.24 1117.76,-220.19 1128.44,-209.92"/>
<polygon fill="#63b8ff" stroke="#63b8ff" points="1130.72,-212.58 1135.49,-203.12 1125.86,-207.54 1130.72,-212.58"/>
</a>
</g>
</g>
<!-- Node31 -->
<g id="Node000031" class="node">
<title>Node31</title>
<g id="a_Node000031"><a xlink:href="_macro_8h.html" target="_top" xlink:title=" ">
<polygon fill="white" stroke="#666666" points="1320.5,-207.5 1231,-207.5 1231,-177 1320.5,-177 1320.5,-207.5"/>
<text text-anchor="start" x="1239" y="-194" font-family="Helvetica,sans-Serif" font-size="10.00">sgui/Serialization</text>
<text text-anchor="middle" x="1275.75" y="-182.75" font-family="Helvetica,sans-Serif" font-size="10.00">/Macro.h</text>
</a>
</g>
</g>
<!-- Node29&#45;&gt;Node31 -->
<g id="edge42_Node000029_Node000031" class="edge">
<title>Node29&#45;&gt;Node31</title>
<g id="a_edge42_Node000029_Node000031"><a xlink:title=" ">
<path fill="none" stroke="#63b8ff" d="M1123.45,-243.11C1152.07,-233.75 1189.41,-221.52 1219.97,-211.51"/>
<polygon fill="#63b8ff" stroke="#63b8ff" points="1221.03,-214.85 1229.45,-208.41 1218.85,-208.2 1221.03,-214.85"/>
</a>
</g>
</g>
</g>
</svg>
