<?xml version="1.0" encoding="UTF-8" standalone="no"?>
<!DOCTYPE svg PUBLIC "-//W3C//DTD SVG 1.1//EN"
 "http://www.w3.org/Graphics/SVG/1.1/DTD/svg11.dtd">
<!-- Generated by graphviz version 12.2.1 (20241206.2353)
 -->
<!-- Title: /github/workspace/src/sgui/Serialization/LoadLayout.cpp Pages: 1 -->
<svg width="1616pt" height="404pt"
 viewBox="0.00 0.00 1616.12 403.75" xmlns="http://www.w3.org/2000/svg" xmlns:xlink="http://www.w3.org/1999/xlink">
<g id="graph0" class="graph" transform="scale(1 1) rotate(0) translate(4 399.75)">
<title>/github/workspace/src/sgui/Serialization/LoadLayout.cpp</title>
<!-- Node1 -->
<g id="Node000001" class="node">
<title>Node1</title>
<g id="a_Node000001"><a xlink:title=" ">
<polygon fill="#999999" stroke="#666666" points="337,-395.75 172.5,-395.75 172.5,-365.25 337,-365.25 337,-395.75"/>
<text text-anchor="start" x="180.5" y="-382.25" font-family="Helvetica,sans-Serif" font-size="10.00">/github/workspace/src</text>
<text text-anchor="middle" x="254.75" y="-371" font-family="Helvetica,sans-Serif" font-size="10.00">/sgui/Serialization/LoadLayout.cpp</text>
</a>
</g>
</g>
<!-- Node2 -->
<g id="Node000002" class="node">
<title>Node2</title>
<g id="a_Node000002"><a xlink:title=" ">
<polygon fill="#e0e0e0" stroke="#999999" points="83.5,-323.62 0,-323.62 0,-304.38 83.5,-304.38 83.5,-323.62"/>
<text text-anchor="middle" x="41.75" y="-310.12" font-family="Helvetica,sans-Serif" font-size="10.00">spdlog/spdlog.h</text>
</a>
</g>
</g>
<!-- Node1&#45;&gt;Node2 -->
<g id="edge1_Node000001_Node000002" class="edge">
<title>Node1&#45;&gt;Node2</title>
<g id="a_edge1_Node000001_Node000002"><a xlink:title=" ">
<path fill="none" stroke="#63b8ff" d="M206.15,-364.78C168.81,-353.48 117.84,-338.04 82.59,-327.37"/>
<polygon fill="#63b8ff" stroke="#63b8ff" points="83.77,-324.07 73.19,-324.52 81.74,-330.77 83.77,-324.07"/>
</a>
</g>
</g>
<!-- Node3 -->
<g id="Node000003" class="node">
<title>Node3</title>
<g id="a_Node000003"><a xlink:href="_load_layout_8h.html" target="_top" xlink:title=" ">
<polygon fill="white" stroke="#666666" points="299.5,-329.25 210,-329.25 210,-298.75 299.5,-298.75 299.5,-329.25"/>
<text text-anchor="start" x="218" y="-315.75" font-family="Helvetica,sans-Serif" font-size="10.00">sgui/Serialization</text>
<text text-anchor="middle" x="254.75" y="-304.5" font-family="Helvetica,sans-Serif" font-size="10.00">/LoadLayout.h</text>
</a>
</g>
</g>
<!-- Node1&#45;&gt;Node3 -->
<g id="edge2_Node000001_Node000003" class="edge">
<title>Node1&#45;&gt;Node3</title>
<g id="a_edge2_Node000001_Node000003"><a xlink:title=" ">
<path fill="none" stroke="#63b8ff" d="M254.75,-364.86C254.75,-357.77 254.75,-349.04 254.75,-340.88"/>
<polygon fill="#63b8ff" stroke="#63b8ff" points="258.25,-341.09 254.75,-331.09 251.25,-341.09 258.25,-341.09"/>
</a>
</g>
</g>
<!-- Node5 -->
<g id="Node000005" class="node">
<title>Node5</title>
<g id="a_Node000005"><a xlink:href="_load_json_8h.html" target="_top" xlink:title=" ">
<polygon fill="white" stroke="#666666" points="191.5,-329.25 102,-329.25 102,-298.75 191.5,-298.75 191.5,-329.25"/>
<text text-anchor="start" x="110" y="-315.75" font-family="Helvetica,sans-Serif" font-size="10.00">sgui/Serialization</text>
<text text-anchor="middle" x="146.75" y="-304.5" font-family="Helvetica,sans-Serif" font-size="10.00">/LoadJson.h</text>
</a>
</g>
</g>
<!-- Node1&#45;&gt;Node5 -->
<g id="edge4_Node000001_Node000005" class="edge">
<title>Node1&#45;&gt;Node5</title>
<g id="a_edge4_Node000001_Node000005"><a xlink:title=" ">
<path fill="none" stroke="#63b8ff" d="M230.24,-364.86C215.61,-356.12 196.8,-344.89 180.74,-335.3"/>
<polygon fill="#63b8ff" stroke="#63b8ff" points="182.84,-332.48 172.46,-330.35 179.25,-338.49 182.84,-332.48"/>
</a>
</g>
</g>
<!-- Node9 -->
<g id="Node000009" class="node">
<title>Node9</title>
<g id="a_Node000009"><a xlink:href="_serialize_g_u_i_8h.html" target="_top" xlink:title=" ">
<polygon fill="white" stroke="#666666" points="620.5,-329.25 531,-329.25 531,-298.75 620.5,-298.75 620.5,-329.25"/>
<text text-anchor="start" x="539" y="-315.75" font-family="Helvetica,sans-Serif" font-size="10.00">sgui/Serialization</text>
<text text-anchor="middle" x="575.75" y="-304.5" font-family="Helvetica,sans-Serif" font-size="10.00">/SerializeGUI.h</text>
</a>
</g>
</g>
<!-- Node1&#45;&gt;Node9 -->
<g id="edge8_Node000001_Node000009" class="edge">
<title>Node1&#45;&gt;Node9</title>
<g id="a_edge8_Node000001_Node000009"><a xlink:title=" ">
<path fill="none" stroke="#63b8ff" d="M327.99,-364.78C386.09,-353.11 466.1,-337.03 519.3,-326.34"/>
<polygon fill="#63b8ff" stroke="#63b8ff" points="519.96,-329.78 529.07,-324.38 518.58,-322.92 519.96,-329.78"/>
</a>
</g>
</g>
<!-- Node29 -->
<g id="Node000029" class="node">
<title>Node29</title>
<g id="a_Node000029"><a xlink:href="_serialize_s_f_m_l_8h.html" target="_top" xlink:title=" ">
<polygon fill="white" stroke="#666666" points="385.88,-262.75 295.62,-262.75 295.62,-232.25 385.88,-232.25 385.88,-262.75"/>
<text text-anchor="start" x="303.62" y="-249.25" font-family="Helvetica,sans-Serif" font-size="10.00">sgui/Serialization</text>
<text text-anchor="middle" x="340.75" y="-238" font-family="Helvetica,sans-Serif" font-size="10.00">/SerializeSFML.h</text>
</a>
</g>
</g>
<!-- Node1&#45;&gt;Node29 -->
<g id="edge45_Node000001_Node000029" class="edge">
<title>Node1&#45;&gt;Node29</title>
<g id="a_edge45_Node000001_Node000029"><a xlink:title=" ">
<path fill="none" stroke="#63b8ff" d="M274.29,-364.95C285.58,-355.74 299.36,-343 308.75,-329.25 320.36,-312.25 328.69,-290.42 333.93,-273.75"/>
<polygon fill="#63b8ff" stroke="#63b8ff" points="337.16,-275.18 336.64,-264.6 330.45,-273.19 337.16,-275.18"/>
</a>
</g>
</g>
<!-- Node4 -->
<g id="Node000004" class="node">
<title>Node4</title>
<g id="a_Node000004"><a xlink:title=" ">
<polygon fill="#e0e0e0" stroke="#999999" points="723.75,-129.75 683.75,-129.75 683.75,-110.5 723.75,-110.5 723.75,-129.75"/>
<text text-anchor="middle" x="703.75" y="-116.25" font-family="Helvetica,sans-Serif" font-size="10.00">string</text>
</a>
</g>
</g>
<!-- Node3&#45;&gt;Node4 -->
<g id="edge3_Node000003_Node000004" class="edge">
<title>Node3&#45;&gt;Node4</title>
<g id="a_edge3_Node000003_Node000004"><a xlink:title=" ">
<path fill="none" stroke="#63b8ff" d="M250.39,-298.47C242.52,-268.99 229.84,-201.85 264.75,-165.75 293,-136.54 575.98,-125.09 672.04,-122.03"/>
<polygon fill="#63b8ff" stroke="#63b8ff" points="671.91,-125.54 681.79,-121.73 671.69,-118.54 671.91,-125.54"/>
</a>
</g>
</g>
<!-- Node6 -->
<g id="Node000006" class="node">
<title>Node6</title>
<g id="a_Node000006"><a xlink:title=" ">
<polygon fill="#e0e0e0" stroke="#999999" points="112.62,-257.12 62.88,-257.12 62.88,-237.88 112.62,-237.88 112.62,-257.12"/>
<text text-anchor="middle" x="87.75" y="-243.62" font-family="Helvetica,sans-Serif" font-size="10.00">iomanip</text>
</a>
</g>
</g>
<!-- Node5&#45;&gt;Node6 -->
<g id="edge5_Node000005_Node000006" class="edge">
<title>Node5&#45;&gt;Node6</title>
<g id="a_edge5_Node000005_Node000006"><a xlink:title=" ">
<path fill="none" stroke="#63b8ff" d="M133.36,-298.36C124.51,-288.69 112.87,-275.96 103.56,-265.79"/>
<polygon fill="#63b8ff" stroke="#63b8ff" points="106.17,-263.46 96.84,-258.44 101.01,-268.18 106.17,-263.46"/>
</a>
</g>
</g>
<!-- Node7 -->
<g id="Node000007" class="node">
<title>Node7</title>
<g id="a_Node000007"><a xlink:title=" ">
<polygon fill="#e0e0e0" stroke="#999999" points="179.25,-257.12 130.25,-257.12 130.25,-237.88 179.25,-237.88 179.25,-257.12"/>
<text text-anchor="middle" x="154.75" y="-243.62" font-family="Helvetica,sans-Serif" font-size="10.00">fstream</text>
</a>
</g>
</g>
<!-- Node5&#45;&gt;Node7 -->
<g id="edge6_Node000005_Node000007" class="edge">
<title>Node5&#45;&gt;Node7</title>
<g id="a_edge6_Node000005_Node000007"><a xlink:title=" ">
<path fill="none" stroke="#63b8ff" d="M148.57,-298.36C149.66,-289.58 151.06,-278.27 152.25,-268.65"/>
<polygon fill="#63b8ff" stroke="#63b8ff" points="155.71,-269.18 153.47,-258.82 148.77,-268.32 155.71,-269.18"/>
</a>
</g>
</g>
<!-- Node8 -->
<g id="Node000008" class="node">
<title>Node8</title>
<g id="a_Node000008"><a xlink:title=" ">
<polygon fill="#e0e0e0" stroke="#999999" points="179.25,-190.62 82.25,-190.62 82.25,-171.38 179.25,-171.38 179.25,-190.62"/>
<text text-anchor="middle" x="130.75" y="-177.12" font-family="Helvetica,sans-Serif" font-size="10.00">nlohmann/json.hpp</text>
</a>
</g>
</g>
<!-- Node5&#45;&gt;Node8 -->
<g id="edge7_Node000005_Node000008" class="edge">
<title>Node5&#45;&gt;Node8</title>
<g id="a_edge7_Node000005_Node000008"><a xlink:title=" ">
<path fill="none" stroke="#63b8ff" d="M101.57,-299.95C83.39,-292.23 64.28,-280.4 53.75,-262.75 46.81,-251.11 47.3,-244.17 53.75,-232.25 62.67,-215.78 79.58,-203.86 95.29,-195.77"/>
<polygon fill="#63b8ff" stroke="#63b8ff" points="96.44,-199.09 103.97,-191.64 93.44,-192.77 96.44,-199.09"/>
</a>
</g>
</g>
<!-- Node9&#45;&gt;Node8 -->
<g id="edge9_Node000009_Node000008" class="edge">
<title>Node9&#45;&gt;Node8</title>
<g id="a_edge9_Node000009_Node000008"><a xlink:title=" ">
<path fill="none" stroke="#63b8ff" d="M530.64,-309.45C472.87,-303.93 370.24,-290.87 286.75,-262.75 237.11,-246.03 183.86,-215.4 154.19,-197.05"/>
<polygon fill="#63b8ff" stroke="#63b8ff" points="156.33,-194.26 146,-191.92 152.62,-200.19 156.33,-194.26"/>
</a>
</g>
</g>
<!-- Node10 -->
<g id="Node000010" class="node">
<title>Node10</title>
<g id="a_Node000010"><a xlink:href="_panel_8h.html" target="_top" xlink:title=" ">
<polygon fill="white" stroke="#666666" points="1414.5,-190.62 1307,-190.62 1307,-171.38 1414.5,-171.38 1414.5,-190.62"/>
<text text-anchor="middle" x="1360.75" y="-177.12" font-family="Helvetica,sans-Serif" font-size="10.00">sgui/Widgets/Panel.h</text>
</a>
</g>
</g>
<!-- Node9&#45;&gt;Node10 -->
<g id="edge10_Node000009_Node000010" class="edge">
<title>Node9&#45;&gt;Node10</title>
<g id="a_edge10_Node000009_Node000010"><a xlink:title=" ">
<path fill="none" stroke="#63b8ff" d="M620.89,-311.98C747.67,-308.71 1104.99,-296.67 1216.75,-262.75 1263.93,-248.43 1312.73,-216.89 1339.66,-197.74"/>
<polygon fill="#63b8ff" stroke="#63b8ff" points="1341.6,-200.66 1347.64,-191.96 1337.49,-195 1341.6,-200.66"/>
</a>
</g>
</g>
<!-- Node19 -->
<g id="Node000019" class="node">
<title>Node19</title>
<g id="a_Node000019"><a xlink:href="_layout_8h.html" target="_top" xlink:title=" ">
<polygon fill="white" stroke="#666666" points="863.38,-257.12 740.12,-257.12 740.12,-237.88 863.38,-237.88 863.38,-257.12"/>
<text text-anchor="middle" x="801.75" y="-243.62" font-family="Helvetica,sans-Serif" font-size="10.00">sgui/Resources/Layout.h</text>
</a>
</g>
</g>
<!-- Node9&#45;&gt;Node19 -->
<g id="edge22_Node000009_Node000019" class="edge">
<title>Node9&#45;&gt;Node19</title>
<g id="a_edge22_Node000009_Node000019"><a xlink:title=" ">
<path fill="none" stroke="#63b8ff" d="M620.94,-300.1C661.24,-288.6 719.8,-271.89 759.26,-260.63"/>
<polygon fill="#63b8ff" stroke="#63b8ff" points="759.99,-264.06 768.64,-257.95 758.07,-257.33 759.99,-264.06"/>
</a>
</g>
</g>
<!-- Node26 -->
<g id="Node000026" class="node">
<title>Node26</title>
<g id="a_Node000026"><a xlink:href="_texture_atlas_8h.html" target="_top" xlink:title=" ">
<polygon fill="white" stroke="#666666" points="1208.12,-257.12 1059.38,-257.12 1059.38,-237.88 1208.12,-237.88 1208.12,-257.12"/>
<text text-anchor="middle" x="1133.75" y="-243.62" font-family="Helvetica,sans-Serif" font-size="10.00">sgui/Resources/TextureAtlas.h</text>
</a>
</g>
</g>
<!-- Node9&#45;&gt;Node26 -->
<g id="edge33_Node000009_Node000026" class="edge">
<title>Node9&#45;&gt;Node26</title>
<g id="a_edge33_Node000009_Node000026"><a xlink:title=" ">
<path fill="none" stroke="#63b8ff" d="M620.94,-307.78C713.81,-297.04 927.48,-272.34 1047.64,-258.45"/>
<polygon fill="#63b8ff" stroke="#63b8ff" points="1047.93,-261.94 1057.47,-257.32 1047.13,-254.99 1047.93,-261.94"/>
</a>
</g>
</g>
<!-- Node9&#45;&gt;Node29 -->
<g id="edge39_Node000009_Node000029" class="edge">
<title>Node9&#45;&gt;Node29</title>
<g id="a_edge39_Node000009_Node000029"><a xlink:title=" ">
<path fill="none" stroke="#63b8ff" d="M530.72,-300.64C492.63,-290.19 437.87,-275.16 396.92,-263.92"/>
<polygon fill="#63b8ff" stroke="#63b8ff" points="398.06,-260.6 387.49,-261.33 396.21,-267.35 398.06,-260.6"/>
</a>
</g>
</g>
<!-- Node10&#45;&gt;Node4 -->
<g id="edge11_Node000010_Node000004" class="edge">
<title>Node10&#45;&gt;Node4</title>
<g id="a_edge11_Node000010_Node000004"><a xlink:title=" ">
<path fill="none" stroke="#63b8ff" d="M1306.57,-171.75C1291.44,-169.61 1274.97,-167.43 1259.75,-165.75 1060.9,-143.76 820.91,-128.2 735.67,-123.01"/>
<polygon fill="#63b8ff" stroke="#63b8ff" points="735.94,-119.52 725.75,-122.41 735.52,-126.51 735.94,-119.52"/>
</a>
</g>
</g>
<!-- Node11 -->
<g id="Node000011" class="node">
<title>Node11</title>
<g id="a_Node000011"><a xlink:title=" ">
<polygon fill="#e0e0e0" stroke="#999999" points="1389.75,-129.75 1331.75,-129.75 1331.75,-110.5 1389.75,-110.5 1389.75,-129.75"/>
<text text-anchor="middle" x="1360.75" y="-116.25" font-family="Helvetica,sans-Serif" font-size="10.00">functional</text>
</a>
</g>
</g>
<!-- Node10&#45;&gt;Node11 -->
<g id="edge12_Node000010_Node000011" class="edge">
<title>Node10&#45;&gt;Node11</title>
<g id="a_edge12_Node000010_Node000011"><a xlink:title=" ">
<path fill="none" stroke="#63b8ff" d="M1360.75,-171.06C1360.75,-163.28 1360.75,-151.7 1360.75,-141.66"/>
<polygon fill="#63b8ff" stroke="#63b8ff" points="1364.25,-141.66 1360.75,-131.66 1357.25,-141.66 1364.25,-141.66"/>
</a>
</g>
</g>
<!-- Node12 -->
<g id="Node000012" class="node">
<title>Node12</title>
<g id="a_Node000012"><a xlink:title=" ">
<polygon fill="#e0e0e0" stroke="#999999" points="1296.62,-19.25 1162.88,-19.25 1162.88,0 1296.62,0 1296.62,-19.25"/>
<text text-anchor="middle" x="1229.75" y="-5.75" font-family="Helvetica,sans-Serif" font-size="10.00">SFML/System/Vector2.hpp</text>
</a>
</g>
</g>
<!-- Node10&#45;&gt;Node12 -->
<g id="edge13_Node000010_Node000012" class="edge">
<title>Node10&#45;&gt;Node12</title>
<g id="a_edge13_Node000010_Node000012"><a xlink:title=" ">
<path fill="none" stroke="#63b8ff" d="M1371.76,-170.89C1386.01,-157.91 1407.99,-133.17 1398.75,-110.5 1379.21,-62.55 1323.34,-36.34 1281.15,-22.95"/>
<polygon fill="#63b8ff" stroke="#63b8ff" points="1282.23,-19.62 1271.65,-20.1 1280.22,-26.33 1282.23,-19.62"/>
</a>
</g>
</g>
<!-- Node13 -->
<g id="Node000013" class="node">
<title>Node13</title>
<g id="a_Node000013"><a xlink:title=" ">
<polygon fill="#e0e0e0" stroke="#999999" points="1179.88,-129.75 1053.62,-129.75 1053.62,-110.5 1179.88,-110.5 1179.88,-129.75"/>
<text text-anchor="middle" x="1116.75" y="-116.25" font-family="Helvetica,sans-Serif" font-size="10.00">SFML/Graphics/Rect.hpp</text>
</a>
</g>
</g>
<!-- Node10&#45;&gt;Node13 -->
<g id="edge14_Node000010_Node000013" class="edge">
<title>Node10&#45;&gt;Node13</title>
<g id="a_edge14_Node000010_Node000013"><a xlink:title=" ">
<path fill="none" stroke="#63b8ff" d="M1323.16,-170.93C1280.8,-160.71 1211.81,-144.06 1165.38,-132.86"/>
<polygon fill="#63b8ff" stroke="#63b8ff" points="1166.4,-129.5 1155.85,-130.56 1164.75,-136.31 1166.4,-129.5"/>
</a>
</g>
</g>
<!-- Node14 -->
<g id="Node000014" class="node">
<title>Node14</title>
<g id="a_Node000014"><a xlink:href="_options_8h.html" target="_top" xlink:title=" ">
<polygon fill="white" stroke="#666666" points="1314,-129.75 1197.5,-129.75 1197.5,-110.5 1314,-110.5 1314,-129.75"/>
<text text-anchor="middle" x="1255.75" y="-116.25" font-family="Helvetica,sans-Serif" font-size="10.00">sgui/Widgets/Options.h</text>
</a>
</g>
</g>
<!-- Node10&#45;&gt;Node14 -->
<g id="edge15_Node000010_Node000014" class="edge">
<title>Node10&#45;&gt;Node14</title>
<g id="a_edge15_Node000010_Node000014"><a xlink:title=" ">
<path fill="none" stroke="#63b8ff" d="M1344.8,-171.06C1328.07,-161.68 1301.52,-146.79 1281.75,-135.7"/>
<polygon fill="#63b8ff" stroke="#63b8ff" points="1283.6,-132.73 1273.17,-130.89 1280.18,-138.83 1283.6,-132.73"/>
</a>
</g>
</g>
<!-- Node14&#45;&gt;Node12 -->
<g id="edge16_Node000014_Node000012" class="edge">
<title>Node14&#45;&gt;Node12</title>
<g id="a_edge16_Node000014_Node000012"><a xlink:title=" ">
<path fill="none" stroke="#63b8ff" d="M1234.65,-110.03C1220.53,-102.69 1203.06,-90.88 1194.75,-74.5 1186.57,-58.38 1198.45,-40.33 1210.53,-27.55"/>
<polygon fill="#63b8ff" stroke="#63b8ff" points="1212.86,-30.16 1217.6,-20.68 1207.99,-25.14 1212.86,-30.16"/>
</a>
</g>
</g>
<!-- Node15 -->
<g id="Node000015" class="node">
<title>Node15</title>
<g id="a_Node000015"><a xlink:href="_constraints_8h.html" target="_top" xlink:title=" ">
<polygon fill="white" stroke="#666666" points="1335.88,-74.5 1203.62,-74.5 1203.62,-55.25 1335.88,-55.25 1335.88,-74.5"/>
<text text-anchor="middle" x="1269.75" y="-61" font-family="Helvetica,sans-Serif" font-size="10.00">sgui/Widgets/Constraints.h</text>
</a>
</g>
</g>
<!-- Node14&#45;&gt;Node15 -->
<g id="edge17_Node000014_Node000015" class="edge">
<title>Node14&#45;&gt;Node15</title>
<g id="a_edge17_Node000014_Node000015"><a xlink:title=" ">
<path fill="none" stroke="#63b8ff" d="M1258.06,-110.33C1259.81,-103.67 1262.29,-94.24 1264.52,-85.78"/>
<polygon fill="#63b8ff" stroke="#63b8ff" points="1267.85,-86.88 1267,-76.32 1261.08,-85.1 1267.85,-86.88"/>
</a>
</g>
</g>
<!-- Node16 -->
<g id="Node000016" class="node">
<title>Node16</title>
<g id="a_Node000016"><a xlink:href="_aspect_8h.html" target="_top" xlink:title=" ">
<polygon fill="white" stroke="#666666" points="1559.5,-74.5 1446,-74.5 1446,-55.25 1559.5,-55.25 1559.5,-74.5"/>
<text text-anchor="middle" x="1502.75" y="-61" font-family="Helvetica,sans-Serif" font-size="10.00">sgui/Widgets/Aspect.h</text>
</a>
</g>
</g>
<!-- Node14&#45;&gt;Node16 -->
<g id="edge19_Node000014_Node000016" class="edge">
<title>Node14&#45;&gt;Node16</title>
<g id="a_edge19_Node000014_Node000016"><a xlink:title=" ">
<path fill="none" stroke="#63b8ff" d="M1297.93,-110.03C1339.85,-100.99 1404.26,-87.11 1449.64,-77.32"/>
<polygon fill="#63b8ff" stroke="#63b8ff" points="1450.23,-80.78 1459.26,-75.25 1448.75,-73.94 1450.23,-80.78"/>
</a>
</g>
</g>
<!-- Node15&#45;&gt;Node12 -->
<g id="edge18_Node000015_Node000012" class="edge">
<title>Node15&#45;&gt;Node12</title>
<g id="a_edge18_Node000015_Node000012"><a xlink:title=" ">
<path fill="none" stroke="#63b8ff" d="M1263.14,-55.08C1257.79,-47.96 1250.07,-37.68 1243.4,-28.8"/>
<polygon fill="#63b8ff" stroke="#63b8ff" points="1246.21,-26.71 1237.41,-20.82 1240.62,-30.92 1246.21,-26.71"/>
</a>
</g>
</g>
<!-- Node17 -->
<g id="Node000017" class="node">
<title>Node17</title>
<g id="a_Node000017"><a xlink:href="_widgets_8h.html" target="_top" xlink:title=" ">
<polygon fill="white" stroke="#666666" points="1459.75,-19.25 1341.75,-19.25 1341.75,0 1459.75,0 1459.75,-19.25"/>
<text text-anchor="middle" x="1400.75" y="-5.75" font-family="Helvetica,sans-Serif" font-size="10.00">sgui/Widgets/Widgets.h</text>
</a>
</g>
</g>
<!-- Node16&#45;&gt;Node17 -->
<g id="edge20_Node000016_Node000017" class="edge">
<title>Node16&#45;&gt;Node17</title>
<g id="a_edge20_Node000016_Node000017"><a xlink:title=" ">
<path fill="none" stroke="#63b8ff" d="M1485.45,-54.84C1469.77,-46.66 1446.4,-34.46 1428.17,-24.94"/>
<polygon fill="#63b8ff" stroke="#63b8ff" points="1429.96,-21.93 1419.48,-20.4 1426.72,-28.13 1429.96,-21.93"/>
</a>
</g>
</g>
<!-- Node18 -->
<g id="Node000018" class="node">
<title>Node18</title>
<g id="a_Node000018"><a xlink:href="_item_states_8h.html" target="_top" xlink:title=" ">
<polygon fill="white" stroke="#666666" points="1608.12,-19.25 1477.38,-19.25 1477.38,0 1608.12,0 1608.12,-19.25"/>
<text text-anchor="middle" x="1542.75" y="-5.75" font-family="Helvetica,sans-Serif" font-size="10.00">sgui/Widgets/ItemStates.h</text>
</a>
</g>
</g>
<!-- Node16&#45;&gt;Node18 -->
<g id="edge21_Node000016_Node000018" class="edge">
<title>Node16&#45;&gt;Node18</title>
<g id="a_edge21_Node000016_Node000018"><a xlink:title=" ">
<path fill="none" stroke="#63b8ff" d="M1509.36,-55.08C1514.71,-47.96 1522.43,-37.68 1529.1,-28.8"/>
<polygon fill="#63b8ff" stroke="#63b8ff" points="1531.88,-30.92 1535.09,-20.82 1526.29,-26.71 1531.88,-30.92"/>
</a>
</g>
</g>
<!-- Node19&#45;&gt;Node4 -->
<g id="edge23_Node000019_Node000004" class="edge">
<title>Node19&#45;&gt;Node4</title>
<g id="a_edge23_Node000019_Node000004"><a xlink:title=" ">
<path fill="none" stroke="#63b8ff" d="M778.59,-237.46C760.72,-229.31 736.75,-215.61 722.75,-196.25 711.06,-180.08 706.54,-157.42 704.8,-141.23"/>
<polygon fill="#63b8ff" stroke="#63b8ff" points="708.3,-141.08 704.04,-131.38 701.32,-141.62 708.3,-141.08"/>
</a>
</g>
</g>
<!-- Node19&#45;&gt;Node10 -->
<g id="edge31_Node000019_Node000010" class="edge">
<title>Node19&#45;&gt;Node10</title>
<g id="a_edge31_Node000019_Node000010"><a xlink:title=" ">
<path fill="none" stroke="#63b8ff" d="M863.68,-240.32C951.77,-231.39 1118.27,-213.99 1259.75,-196.25 1271.27,-194.81 1283.51,-193.17 1295.35,-191.53"/>
<polygon fill="#63b8ff" stroke="#63b8ff" points="1295.62,-195.02 1305.04,-190.17 1294.65,-188.09 1295.62,-195.02"/>
</a>
</g>
</g>
<!-- Node20 -->
<g id="Node000020" class="node">
<title>Node20</title>
<g id="a_Node000020"><a xlink:title=" ">
<polygon fill="#e0e0e0" stroke="#999999" points="980.25,-190.62 937.25,-190.62 937.25,-171.38 980.25,-171.38 980.25,-190.62"/>
<text text-anchor="middle" x="958.75" y="-177.12" font-family="Helvetica,sans-Serif" font-size="10.00">vector</text>
</a>
</g>
</g>
<!-- Node19&#45;&gt;Node20 -->
<g id="edge24_Node000019_Node000020" class="edge">
<title>Node19&#45;&gt;Node20</title>
<g id="a_edge24_Node000019_Node000020"><a xlink:title=" ">
<path fill="none" stroke="#63b8ff" d="M825.82,-237.52C851.51,-227.82 893.3,-211.66 928.75,-196.25 929.1,-196.1 929.45,-195.95 929.8,-195.79"/>
<polygon fill="#63b8ff" stroke="#63b8ff" points="931.09,-199.05 938.74,-191.72 928.19,-192.68 931.09,-199.05"/>
</a>
</g>
</g>
<!-- Node21 -->
<g id="Node000021" class="node">
<title>Node21</title>
<g id="a_Node000021"><a xlink:title=" ">
<polygon fill="#e0e0e0" stroke="#999999" points="770,-190.62 731.5,-190.62 731.5,-171.38 770,-171.38 770,-190.62"/>
<text text-anchor="middle" x="750.75" y="-177.12" font-family="Helvetica,sans-Serif" font-size="10.00">utility</text>
</a>
</g>
</g>
<!-- Node19&#45;&gt;Node21 -->
<g id="edge25_Node000019_Node000021" class="edge">
<title>Node19&#45;&gt;Node21</title>
<g id="a_edge25_Node000019_Node000021"><a xlink:title=" ">
<path fill="none" stroke="#63b8ff" d="M794.66,-237.53C786.97,-227.81 774.5,-212.04 764.81,-199.78"/>
<polygon fill="#63b8ff" stroke="#63b8ff" points="767.67,-197.75 758.72,-192.08 762.18,-202.09 767.67,-197.75"/>
</a>
</g>
</g>
<!-- Node22 -->
<g id="Node000022" class="node">
<title>Node22</title>
<g id="a_Node000022"><a xlink:title=" ">
<polygon fill="#e0e0e0" stroke="#999999" points="1081.12,-190.62 998.38,-190.62 998.38,-171.38 1081.12,-171.38 1081.12,-190.62"/>
<text text-anchor="middle" x="1039.75" y="-177.12" font-family="Helvetica,sans-Serif" font-size="10.00">unordered_map</text>
</a>
</g>
</g>
<!-- Node19&#45;&gt;Node22 -->
<g id="edge26_Node000019_Node000022" class="edge">
<title>Node19&#45;&gt;Node22</title>
<g id="a_edge26_Node000019_Node000022"><a xlink:title=" ">
<path fill="none" stroke="#63b8ff" d="M836.45,-237.41C874.21,-227.47 936.34,-211 989.75,-196.25 992.15,-195.59 994.62,-194.9 997.11,-194.2"/>
<polygon fill="#63b8ff" stroke="#63b8ff" points="997.9,-197.62 1006.57,-191.54 996,-190.88 997.9,-197.62"/>
</a>
</g>
</g>
<!-- Node23 -->
<g id="Node000023" class="node">
<title>Node23</title>
<g id="a_Node000023"><a xlink:href="_style_8h.html" target="_top" xlink:title=" ">
<polygon fill="white" stroke="#666666" points="638,-190.62 533.5,-190.62 533.5,-171.38 638,-171.38 638,-190.62"/>
<text text-anchor="middle" x="585.75" y="-177.12" font-family="Helvetica,sans-Serif" font-size="10.00">sgui/Widgets/Style.h</text>
</a>
</g>
</g>
<!-- Node19&#45;&gt;Node23 -->
<g id="edge27_Node000019_Node000023" class="edge">
<title>Node19&#45;&gt;Node23</title>
<g id="a_edge27_Node000019_Node000023"><a xlink:title=" ">
<path fill="none" stroke="#63b8ff" d="M771.26,-237.4C733.55,-226.14 669.2,-206.92 627.07,-194.34"/>
<polygon fill="#63b8ff" stroke="#63b8ff" points="628.12,-191 617.53,-191.49 626.12,-197.71 628.12,-191"/>
</a>
</g>
</g>
<!-- Node25 -->
<g id="Node000025" class="node">
<title>Node25</title>
<g id="a_Node000025"><a xlink:href="_layout_8tpp.html" target="_top" xlink:title=" ">
<polygon fill="white" stroke="#666666" points="919.5,-190.62 788,-190.62 788,-171.38 919.5,-171.38 919.5,-190.62"/>
<text text-anchor="middle" x="853.75" y="-177.12" font-family="Helvetica,sans-Serif" font-size="10.00">sgui/Resources/Layout.tpp</text>
</a>
</g>
</g>
<!-- Node19&#45;&gt;Node25 -->
<g id="edge32_Node000019_Node000025" class="edge">
<title>Node19&#45;&gt;Node25</title>
<g id="a_edge32_Node000019_Node000025"><a xlink:title=" ">
<path fill="none" stroke="#63b8ff" d="M808.98,-237.53C816.82,-227.81 829.53,-212.04 839.41,-199.78"/>
<polygon fill="#63b8ff" stroke="#63b8ff" points="842.08,-202.05 845.63,-192.07 836.63,-197.66 842.08,-202.05"/>
</a>
</g>
</g>
<!-- Node23&#45;&gt;Node4 -->
<g id="edge28_Node000023_Node000004" class="edge">
<title>Node23&#45;&gt;Node4</title>
<g id="a_edge28_Node000023_Node000004"><a xlink:title=" ">
<path fill="none" stroke="#63b8ff" d="M603.93,-170.93C623.04,-161.39 653.36,-146.27 675.57,-135.18"/>
<polygon fill="#63b8ff" stroke="#63b8ff" points="677,-138.38 684.39,-130.78 673.88,-132.12 677,-138.38"/>
</a>
</g>
</g>
<!-- Node23&#45;&gt;Node12 -->
<g id="edge30_Node000023_Node000012" class="edge">
<title>Node23&#45;&gt;Node12</title>
<g id="a_edge30_Node000023_Node000012"><a xlink:title=" ">
<path fill="none" stroke="#63b8ff" d="M594.13,-171.08C608.88,-155.97 641.1,-125.55 674.75,-110.5 834.01,-39.28 1040.46,-18.82 1151.24,-12.96"/>
<polygon fill="#63b8ff" stroke="#63b8ff" points="1151.32,-16.46 1161.13,-12.46 1150.97,-9.47 1151.32,-16.46"/>
</a>
</g>
</g>
<!-- Node24 -->
<g id="Node000024" class="node">
<title>Node24</title>
<g id="a_Node000024"><a xlink:title=" ">
<polygon fill="#e0e0e0" stroke="#999999" points="450,-129.75 321.5,-129.75 321.5,-110.5 450,-110.5 450,-129.75"/>
<text text-anchor="middle" x="385.75" y="-116.25" font-family="Helvetica,sans-Serif" font-size="10.00">SFML/Graphics/Color.hpp</text>
</a>
</g>
</g>
<!-- Node23&#45;&gt;Node24 -->
<g id="edge29_Node000023_Node000024" class="edge">
<title>Node23&#45;&gt;Node24</title>
<g id="a_edge29_Node000023_Node000024"><a xlink:title=" ">
<path fill="none" stroke="#63b8ff" d="M554.94,-170.93C520.73,-160.86 465.34,-144.55 427.31,-133.36"/>
<polygon fill="#63b8ff" stroke="#63b8ff" points="428.63,-130.1 418.05,-130.63 426.65,-136.81 428.63,-130.1"/>
</a>
</g>
</g>
<!-- Node26&#45;&gt;Node4 -->
<g id="edge34_Node000026_Node000004" class="edge">
<title>Node26&#45;&gt;Node4</title>
<g id="a_edge34_Node000026_Node000004"><a xlink:title=" ">
<path fill="none" stroke="#63b8ff" d="M1131.78,-237.63C1127.46,-220.51 1115.43,-183.07 1089.75,-165.75 1032.17,-126.9 817.45,-121.68 735.67,-121.12"/>
<polygon fill="#63b8ff" stroke="#63b8ff" points="735.69,-117.62 725.67,-121.07 735.66,-124.62 735.69,-117.62"/>
</a>
</g>
</g>
<!-- Node26&#45;&gt;Node13 -->
<g id="edge38_Node000026_Node000013" class="edge">
<title>Node26&#45;&gt;Node13</title>
<g id="a_edge38_Node000026_Node000013"><a xlink:title=" ">
<path fill="none" stroke="#63b8ff" d="M1175.31,-237.44C1221.39,-225.41 1286,-201.44 1259.75,-165.75 1249.57,-151.9 1211.77,-140.46 1177.59,-132.63"/>
<polygon fill="#63b8ff" stroke="#63b8ff" points="1178.66,-129.28 1168.14,-130.54 1177.15,-136.11 1178.66,-129.28"/>
</a>
</g>
</g>
<!-- Node26&#45;&gt;Node22 -->
<g id="edge37_Node000026_Node000022" class="edge">
<title>Node26&#45;&gt;Node22</title>
<g id="a_edge37_Node000026_Node000022"><a xlink:title=" ">
<path fill="none" stroke="#63b8ff" d="M1120.68,-237.53C1105.61,-227.19 1080.58,-210.02 1062.34,-197.5"/>
<polygon fill="#63b8ff" stroke="#63b8ff" points="1064.49,-194.73 1054.26,-191.96 1060.53,-200.5 1064.49,-194.73"/>
</a>
</g>
</g>
<!-- Node27 -->
<g id="Node000027" class="node">
<title>Node27</title>
<g id="a_Node000027"><a xlink:title=" ">
<polygon fill="#e0e0e0" stroke="#999999" points="1182.38,-190.62 1137.12,-190.62 1137.12,-171.38 1182.38,-171.38 1182.38,-190.62"/>
<text text-anchor="middle" x="1159.75" y="-177.12" font-family="Helvetica,sans-Serif" font-size="10.00">cstdint</text>
</a>
</g>
</g>
<!-- Node26&#45;&gt;Node27 -->
<g id="edge35_Node000026_Node000027" class="edge">
<title>Node26&#45;&gt;Node27</title>
<g id="a_edge35_Node000026_Node000027"><a xlink:title=" ">
<path fill="none" stroke="#63b8ff" d="M1137.37,-237.53C1141.13,-228.19 1147.14,-213.28 1151.99,-201.26"/>
<polygon fill="#63b8ff" stroke="#63b8ff" points="1155.11,-202.88 1155.6,-192.3 1148.61,-200.26 1155.11,-202.88"/>
</a>
</g>
</g>
<!-- Node28 -->
<g id="Node000028" class="node">
<title>Node28</title>
<g id="a_Node000028"><a xlink:title=" ">
<polygon fill="#e0e0e0" stroke="#999999" points="1250.62,-190.62 1200.88,-190.62 1200.88,-171.38 1250.62,-171.38 1250.62,-190.62"/>
<text text-anchor="middle" x="1225.75" y="-177.12" font-family="Helvetica,sans-Serif" font-size="10.00">optional</text>
</a>
</g>
</g>
<!-- Node26&#45;&gt;Node28 -->
<g id="edge36_Node000026_Node000028" class="edge">
<title>Node26&#45;&gt;Node28</title>
<g id="a_edge36_Node000026_Node000028"><a xlink:title=" ">
<path fill="none" stroke="#63b8ff" d="M1146.54,-237.53C1161.22,-227.24 1185.56,-210.18 1203.39,-197.68"/>
<polygon fill="#63b8ff" stroke="#63b8ff" points="1205.35,-200.58 1211.53,-191.97 1201.33,-194.84 1205.35,-200.58"/>
</a>
</g>
</g>
<!-- Node29&#45;&gt;Node8 -->
<g id="edge40_Node000029_Node000008" class="edge">
<title>Node29&#45;&gt;Node8</title>
<g id="a_edge40_Node000029_Node000008"><a xlink:title=" ">
<path fill="none" stroke="#63b8ff" d="M295.18,-232.5C258.28,-221.17 206.78,-205.35 171.3,-194.45"/>
<polygon fill="#63b8ff" stroke="#63b8ff" points="172.41,-191.13 161.82,-191.54 170.36,-197.83 172.41,-191.13"/>
</a>
</g>
</g>
<!-- Node29&#45;&gt;Node13 -->
<g id="edge41_Node000029_Node000013" class="edge">
<title>Node29&#45;&gt;Node13</title>
<g id="a_edge41_Node000029_Node000013"><a xlink:title=" ">
<path fill="none" stroke="#63b8ff" d="M386.27,-242.17C446.64,-235.72 556.13,-221.54 646.75,-196.25 681.81,-186.46 687.46,-174.66 722.75,-165.75 831.7,-138.25 961.89,-127.68 1041.94,-123.63"/>
<polygon fill="#63b8ff" stroke="#63b8ff" points="1042.05,-127.13 1051.87,-123.15 1041.71,-120.13 1042.05,-127.13"/>
</a>
</g>
</g>
<!-- Node29&#45;&gt;Node24 -->
<g id="edge42_Node000029_Node000024" class="edge">
<title>Node29&#45;&gt;Node24</title>
<g id="a_edge42_Node000029_Node000024"><a xlink:title=" ">
<path fill="none" stroke="#63b8ff" d="M304.42,-231.93C289.29,-223.83 273.29,-212.13 264.75,-196.25 258.33,-184.31 257,-176.87 264.75,-165.75 275.62,-150.16 292.58,-140 310.39,-133.39"/>
<polygon fill="#63b8ff" stroke="#63b8ff" points="311.41,-136.74 319.81,-130.28 309.22,-130.09 311.41,-136.74"/>
</a>
</g>
</g>
<!-- Node30 -->
<g id="Node000030" class="node">
<title>Node30</title>
<g id="a_Node000030"><a xlink:title=" ">
<polygon fill="#e0e0e0" stroke="#999999" points="407.62,-190.62 273.88,-190.62 273.88,-171.38 407.62,-171.38 407.62,-190.62"/>
<text text-anchor="middle" x="340.75" y="-177.12" font-family="Helvetica,sans-Serif" font-size="10.00">SFML/System/Vector3.hpp</text>
</a>
</g>
</g>
<!-- Node29&#45;&gt;Node30 -->
<g id="edge43_Node000029_Node000030" class="edge">
<title>Node29&#45;&gt;Node30</title>
<g id="a_edge43_Node000029_Node000030"><a xlink:title=" ">
<path fill="none" stroke="#63b8ff" d="M340.75,-231.86C340.75,-223.08 340.75,-211.77 340.75,-202.15"/>
<polygon fill="#63b8ff" stroke="#63b8ff" points="344.25,-202.34 340.75,-192.34 337.25,-202.34 344.25,-202.34"/>
</a>
</g>
</g>
<!-- Node31 -->
<g id="Node000031" class="node">
<title>Node31</title>
<g id="a_Node000031"><a xlink:href="_macro_8h.html" target="_top" xlink:title=" ">
<polygon fill="white" stroke="#666666" points="515.5,-196.25 426,-196.25 426,-165.75 515.5,-165.75 515.5,-196.25"/>
<text text-anchor="start" x="434" y="-182.75" font-family="Helvetica,sans-Serif" font-size="10.00">sgui/Serialization</text>
<text text-anchor="middle" x="470.75" y="-171.5" font-family="Helvetica,sans-Serif" font-size="10.00">/Macro.h</text>
</a>
</g>
</g>
<!-- Node29&#45;&gt;Node31 -->
<g id="edge44_Node000029_Node000031" class="edge">
<title>Node29&#45;&gt;Node31</title>
<g id="a_edge44_Node000029_Node000031"><a xlink:title=" ">
<path fill="none" stroke="#63b8ff" d="M370.25,-231.86C388.28,-222.92 411.58,-211.36 431.2,-201.62"/>
<polygon fill="#63b8ff" stroke="#63b8ff" points="432.61,-204.83 440.01,-197.25 429.5,-198.56 432.61,-204.83"/>
</a>
</g>
</g>
</g>
</svg>
