<?xml version="1.0" encoding="UTF-8" standalone="no"?>
<!DOCTYPE svg PUBLIC "-//W3C//DTD SVG 1.1//EN"
 "http://www.w3.org/Graphics/SVG/1.1/DTD/svg11.dtd">
<!-- Generated by graphviz version 12.2.1 (20241206.2353)
 -->
<!-- Title: /github/workspace/src/sgui/Serialization/LoadTextureAtlas.h Pages: 1 -->
<svg width="945pt" height="183pt"
 viewBox="0.00 0.00 945.38 182.75" xmlns="http://www.w3.org/2000/svg" xmlns:xlink="http://www.w3.org/1999/xlink">
<g id="graph0" class="graph" transform="scale(1 1) rotate(0) translate(4 178.75)">
<title>/github/workspace/src/sgui/Serialization/LoadTextureAtlas.h</title>
<!-- Node1 -->
<g id="Node000001" class="node">
<title>Node1</title>
<g id="a_Node000001"><a xlink:title=" ">
<polygon fill="#999999" stroke="#666666" points="557.38,-174.75 407.88,-174.75 407.88,-133 557.38,-133 557.38,-174.75"/>
<text text-anchor="start" x="415.88" y="-161.25" font-family="Helvetica,sans-Serif" font-size="10.00">/github/workspace/src</text>
<text text-anchor="start" x="415.88" y="-150" font-family="Helvetica,sans-Serif" font-size="10.00">/sgui/Serialization/LoadTexture</text>
<text text-anchor="middle" x="482.62" y="-138.75" font-family="Helvetica,sans-Serif" font-size="10.00">Atlas.h</text>
</a>
</g>
</g>
<!-- Node2 -->
<g id="Node000002" class="node">
<title>Node2</title>
<g id="a_Node000002"><a xlink:title=" ">
<polygon fill="#e0e0e0" stroke="#999999" points="531.12,-24.88 434.12,-24.88 434.12,-5.63 531.12,-5.63 531.12,-24.88"/>
<text text-anchor="middle" x="482.62" y="-11.38" font-family="Helvetica,sans-Serif" font-size="10.00">nlohmann/json.hpp</text>
</a>
</g>
</g>
<!-- Node1&#45;&gt;Node2 -->
<g id="edge1_Node000001_Node000002" class="edge">
<title>Node1&#45;&gt;Node2</title>
<g id="a_edge1_Node000001_Node000002"><a xlink:title=" ">
<path fill="none" stroke="#63b8ff" d="M482.62,-132.72C482.62,-106.93 482.62,-62.54 482.62,-36.64"/>
<polygon fill="#63b8ff" stroke="#63b8ff" points="486.13,-36.8 482.63,-26.8 479.13,-36.8 486.13,-36.8"/>
</a>
</g>
</g>
<!-- Node3 -->
<g id="Node000003" class="node">
<title>Node3</title>
<g id="a_Node000003"><a xlink:href="_texture_atlas_8h.html" target="_top" xlink:title=" ">
<polygon fill="white" stroke="#666666" points="287,-91.38 138.25,-91.38 138.25,-72.12 287,-72.12 287,-91.38"/>
<text text-anchor="middle" x="212.62" y="-77.88" font-family="Helvetica,sans-Serif" font-size="10.00">sgui/Resources/TextureAtlas.h</text>
</a>
</g>
</g>
<!-- Node1&#45;&gt;Node3 -->
<g id="edge2_Node000001_Node000003" class="edge">
<title>Node1&#45;&gt;Node3</title>
<g id="a_edge2_Node000001_Node000003"><a xlink:title=" ">
<path fill="none" stroke="#63b8ff" d="M407.41,-133.34C359.63,-120.93 299.33,-105.27 258.58,-94.68"/>
<polygon fill="#63b8ff" stroke="#63b8ff" points="259.65,-91.35 249.09,-92.22 257.89,-98.12 259.65,-91.35"/>
</a>
</g>
</g>
<!-- Node9 -->
<g id="Node000009" class="node">
<title>Node9</title>
<g id="a_Node000009"><a xlink:href="_serialize_s_f_m_l_8h.html" target="_top" xlink:title=" ">
<polygon fill="white" stroke="#666666" points="629.75,-97 539.5,-97 539.5,-66.5 629.75,-66.5 629.75,-97"/>
<text text-anchor="start" x="547.5" y="-83.5" font-family="Helvetica,sans-Serif" font-size="10.00">sgui/Serialization</text>
<text text-anchor="middle" x="584.62" y="-72.25" font-family="Helvetica,sans-Serif" font-size="10.00">/SerializeSFML.h</text>
</a>
</g>
</g>
<!-- Node1&#45;&gt;Node9 -->
<g id="edge8_Node000001_Node000009" class="edge">
<title>Node1&#45;&gt;Node9</title>
<g id="a_edge8_Node000001_Node000009"><a xlink:title=" ">
<path fill="none" stroke="#63b8ff" d="M512.13,-132.59C525.29,-123.54 540.79,-112.89 554.07,-103.75"/>
<polygon fill="#63b8ff" stroke="#63b8ff" points="555.78,-106.83 562.04,-98.28 551.82,-101.06 555.78,-106.83"/>
</a>
</g>
</g>
<!-- Node4 -->
<g id="Node000004" class="node">
<title>Node4</title>
<g id="a_Node000004"><a xlink:title=" ">
<polygon fill="#e0e0e0" stroke="#999999" points="271.62,-24.88 231.62,-24.88 231.62,-5.63 271.62,-5.63 271.62,-24.88"/>
<text text-anchor="middle" x="251.62" y="-11.38" font-family="Helvetica,sans-Serif" font-size="10.00">string</text>
</a>
</g>
</g>
<!-- Node3&#45;&gt;Node4 -->
<g id="edge3_Node000003_Node000004" class="edge">
<title>Node3&#45;&gt;Node4</title>
<g id="a_edge3_Node000003_Node000004"><a xlink:title=" ">
<path fill="none" stroke="#63b8ff" d="M218.05,-71.78C223.81,-62.25 233.09,-46.91 240.43,-34.77"/>
<polygon fill="#63b8ff" stroke="#63b8ff" points="243.29,-36.81 245.47,-26.44 237.3,-33.18 243.29,-36.81"/>
</a>
</g>
</g>
<!-- Node5 -->
<g id="Node000005" class="node">
<title>Node5</title>
<g id="a_Node000005"><a xlink:title=" ">
<polygon fill="#e0e0e0" stroke="#999999" points="45.25,-24.88 0,-24.88 0,-5.63 45.25,-5.63 45.25,-24.88"/>
<text text-anchor="middle" x="22.62" y="-11.38" font-family="Helvetica,sans-Serif" font-size="10.00">cstdint</text>
</a>
</g>
</g>
<!-- Node3&#45;&gt;Node5 -->
<g id="edge4_Node000003_Node000005" class="edge">
<title>Node3&#45;&gt;Node5</title>
<g id="a_edge4_Node000003_Node000005"><a xlink:title=" ">
<path fill="none" stroke="#63b8ff" d="M180.49,-71.67C148.31,-62.31 97.54,-46.82 54.62,-30.5 53.99,-30.26 53.34,-30.01 52.69,-29.75"/>
<polygon fill="#63b8ff" stroke="#63b8ff" points="54.09,-26.54 43.51,-25.92 51.39,-33 54.09,-26.54"/>
</a>
</g>
</g>
<!-- Node6 -->
<g id="Node000006" class="node">
<title>Node6</title>
<g id="a_Node000006"><a xlink:title=" ">
<polygon fill="#e0e0e0" stroke="#999999" points="113.5,-24.88 63.75,-24.88 63.75,-5.63 113.5,-5.63 113.5,-24.88"/>
<text text-anchor="middle" x="88.62" y="-11.38" font-family="Helvetica,sans-Serif" font-size="10.00">optional</text>
</a>
</g>
</g>
<!-- Node3&#45;&gt;Node6 -->
<g id="edge5_Node000003_Node000006" class="edge">
<title>Node3&#45;&gt;Node6</title>
<g id="a_edge5_Node000003_Node000006"><a xlink:title=" ">
<path fill="none" stroke="#63b8ff" d="M195.12,-71.65C174.54,-60.94 140.12,-43.03 115.99,-30.49"/>
<polygon fill="#63b8ff" stroke="#63b8ff" points="117.87,-27.52 107.38,-26.01 114.64,-33.73 117.87,-27.52"/>
</a>
</g>
</g>
<!-- Node7 -->
<g id="Node000007" class="node">
<title>Node7</title>
<g id="a_Node000007"><a xlink:title=" ">
<polygon fill="#e0e0e0" stroke="#999999" points="214,-24.88 131.25,-24.88 131.25,-5.63 214,-5.63 214,-24.88"/>
<text text-anchor="middle" x="172.62" y="-11.38" font-family="Helvetica,sans-Serif" font-size="10.00">unordered_map</text>
</a>
</g>
</g>
<!-- Node3&#45;&gt;Node7 -->
<g id="edge6_Node000003_Node000007" class="edge">
<title>Node3&#45;&gt;Node7</title>
<g id="a_edge6_Node000003_Node000007"><a xlink:title=" ">
<path fill="none" stroke="#63b8ff" d="M207.06,-71.78C201.15,-62.25 191.64,-46.91 184.11,-34.77"/>
<polygon fill="#63b8ff" stroke="#63b8ff" points="187.18,-33.08 178.94,-26.43 181.23,-36.77 187.18,-33.08"/>
</a>
</g>
</g>
<!-- Node8 -->
<g id="Node000008" class="node">
<title>Node8</title>
<g id="a_Node000008"><a xlink:title=" ">
<polygon fill="#e0e0e0" stroke="#999999" points="415.75,-24.88 289.5,-24.88 289.5,-5.63 415.75,-5.63 415.75,-24.88"/>
<text text-anchor="middle" x="352.62" y="-11.38" font-family="Helvetica,sans-Serif" font-size="10.00">SFML/Graphics/Rect.hpp</text>
</a>
</g>
</g>
<!-- Node3&#45;&gt;Node8 -->
<g id="edge7_Node000003_Node000008" class="edge">
<title>Node3&#45;&gt;Node8</title>
<g id="a_edge7_Node000003_Node000008"><a xlink:title=" ">
<path fill="none" stroke="#63b8ff" d="M232.39,-71.65C255.94,-60.79 295.54,-42.55 322.82,-29.98"/>
<polygon fill="#63b8ff" stroke="#63b8ff" points="323.97,-33.3 331.59,-25.94 321.04,-26.95 323.97,-33.3"/>
</a>
</g>
</g>
<!-- Node9&#45;&gt;Node2 -->
<g id="edge9_Node000009_Node000002" class="edge">
<title>Node9&#45;&gt;Node2</title>
<g id="a_edge9_Node000009_Node000002"><a xlink:title=" ">
<path fill="none" stroke="#63b8ff" d="M561.48,-66.11C545.03,-55.71 523,-41.78 506.4,-31.29"/>
<polygon fill="#63b8ff" stroke="#63b8ff" points="508.47,-28.46 498.15,-26.07 504.73,-34.37 508.47,-28.46"/>
</a>
</g>
</g>
<!-- Node9&#45;&gt;Node8 -->
<g id="edge10_Node000009_Node000008" class="edge">
<title>Node9&#45;&gt;Node8</title>
<g id="a_edge10_Node000009_Node000008"><a xlink:title=" ">
<path fill="none" stroke="#63b8ff" d="M539.07,-68.08C497.69,-56.58 437.08,-39.73 396.3,-28.39"/>
<polygon fill="#63b8ff" stroke="#63b8ff" points="397.39,-25.06 386.82,-25.76 395.52,-31.81 397.39,-25.06"/>
</a>
</g>
</g>
<!-- Node10 -->
<g id="Node000010" class="node">
<title>Node10</title>
<g id="a_Node000010"><a xlink:title=" ">
<polygon fill="#e0e0e0" stroke="#999999" points="677.88,-24.88 549.38,-24.88 549.38,-5.63 677.88,-5.63 677.88,-24.88"/>
<text text-anchor="middle" x="613.62" y="-11.38" font-family="Helvetica,sans-Serif" font-size="10.00">SFML/Graphics/Color.hpp</text>
</a>
</g>
</g>
<!-- Node9&#45;&gt;Node10 -->
<g id="edge11_Node000009_Node000010" class="edge">
<title>Node9&#45;&gt;Node10</title>
<g id="a_edge11_Node000009_Node000010"><a xlink:title=" ">
<path fill="none" stroke="#63b8ff" d="M591.21,-66.11C595.29,-57.03 600.58,-45.26 605,-35.43"/>
<polygon fill="#63b8ff" stroke="#63b8ff" points="608.13,-37.01 609.04,-26.45 601.74,-34.14 608.13,-37.01"/>
</a>
</g>
</g>
<!-- Node11 -->
<g id="Node000011" class="node">
<title>Node11</title>
<g id="a_Node000011"><a xlink:title=" ">
<polygon fill="#e0e0e0" stroke="#999999" points="829.5,-24.88 695.75,-24.88 695.75,-5.63 829.5,-5.63 829.5,-24.88"/>
<text text-anchor="middle" x="762.62" y="-11.38" font-family="Helvetica,sans-Serif" font-size="10.00">SFML/System/Vector3.hpp</text>
</a>
</g>
</g>
<!-- Node9&#45;&gt;Node11 -->
<g id="edge12_Node000009_Node000011" class="edge">
<title>Node9&#45;&gt;Node11</title>
<g id="a_edge12_Node000009_Node000011"><a xlink:title=" ">
<path fill="none" stroke="#63b8ff" d="M625.02,-66.11C655.67,-55.01 697.41,-39.88 726.86,-29.21"/>
<polygon fill="#63b8ff" stroke="#63b8ff" points="727.87,-32.57 736.08,-25.87 725.48,-25.99 727.87,-32.57"/>
</a>
</g>
</g>
<!-- Node12 -->
<g id="Node000012" class="node">
<title>Node12</title>
<g id="a_Node000012"><a xlink:href="_macro_8h.html" target="_top" xlink:title=" ">
<polygon fill="white" stroke="#666666" points="937.38,-30.5 847.88,-30.5 847.88,0 937.38,0 937.38,-30.5"/>
<text text-anchor="start" x="855.88" y="-17" font-family="Helvetica,sans-Serif" font-size="10.00">sgui/Serialization</text>
<text text-anchor="middle" x="892.62" y="-5.75" font-family="Helvetica,sans-Serif" font-size="10.00">/Macro.h</text>
</a>
</g>
</g>
<!-- Node9&#45;&gt;Node12 -->
<g id="edge13_Node000009_Node000012" class="edge">
<title>Node9&#45;&gt;Node12</title>
<g id="a_edge13_Node000009_Node000012"><a xlink:title=" ">
<path fill="none" stroke="#63b8ff" d="M630.23,-72.62C678.92,-63.74 758.57,-48.65 836.6,-30.88"/>
<polygon fill="#63b8ff" stroke="#63b8ff" points="837.16,-34.35 846.12,-28.7 835.59,-27.52 837.16,-34.35"/>
</a>
</g>
</g>
</g>
</svg>
