<?xml version="1.0" encoding="UTF-8" standalone="no"?>
<!DOCTYPE svg PUBLIC "-//W3C//DTD SVG 1.1//EN"
 "http://www.w3.org/Graphics/SVG/1.1/DTD/svg11.dtd">
<!-- Generated by graphviz version 12.2.1 (20241206.2353)
 -->
<!-- Title: /github/workspace/src/sgui/Serialization/LoadLookupTable.h Pages: 1 -->
<svg width="654pt" height="227pt"
 viewBox="0.00 0.00 653.88 226.75" xmlns="http://www.w3.org/2000/svg" xmlns:xlink="http://www.w3.org/1999/xlink">
<g id="graph0" class="graph" transform="scale(1 1) rotate(0) translate(4 222.75)">
<title>/github/workspace/src/sgui/Serialization/LoadLookupTable.h</title>
<!-- Node1 -->
<g id="Node000001" class="node">
<title>Node1</title>
<g id="a_Node000001"><a xlink:title=" ">
<polygon fill="#999999" stroke="#666666" points="250.62,-218.75 101.12,-218.75 101.12,-177 250.62,-177 250.62,-218.75"/>
<text text-anchor="start" x="109.12" y="-205.25" font-family="Helvetica,sans-Serif" font-size="10.00">/github/workspace/src</text>
<text text-anchor="start" x="109.12" y="-194" font-family="Helvetica,sans-Serif" font-size="10.00">/sgui/Serialization/LoadLookup</text>
<text text-anchor="middle" x="175.88" y="-182.75" font-family="Helvetica,sans-Serif" font-size="10.00">Table.h</text>
</a>
</g>
</g>
<!-- Node2 -->
<g id="Node000002" class="node">
<title>Node2</title>
<g id="a_Node000002"><a xlink:href="_load_json_8h.html" target="_top" xlink:title=" ">
<polygon fill="white" stroke="#666666" points="166.62,-141 77.12,-141 77.12,-110.5 166.62,-110.5 166.62,-141"/>
<text text-anchor="start" x="85.12" y="-127.5" font-family="Helvetica,sans-Serif" font-size="10.00">sgui/Serialization</text>
<text text-anchor="middle" x="121.88" y="-116.25" font-family="Helvetica,sans-Serif" font-size="10.00">/LoadJson.h</text>
</a>
</g>
</g>
<!-- Node1&#45;&gt;Node2 -->
<g id="edge1_Node000001_Node000002" class="edge">
<title>Node1&#45;&gt;Node2</title>
<g id="a_edge1_Node000001_Node000002"><a xlink:title=" ">
<path fill="none" stroke="#63b8ff" d="M160.26,-176.59C153.92,-168.36 146.56,-158.8 139.99,-150.27"/>
<polygon fill="#63b8ff" stroke="#63b8ff" points="142.8,-148.19 133.93,-142.4 137.25,-152.46 142.8,-148.19"/>
</a>
</g>
</g>
<!-- Node6 -->
<g id="Node000006" class="node">
<title>Node6</title>
<g id="a_Node000006"><a xlink:href="_serialize_core_8h.html" target="_top" xlink:title=" ">
<polygon fill="white" stroke="#666666" points="289.62,-141 200.12,-141 200.12,-110.5 289.62,-110.5 289.62,-141"/>
<text text-anchor="start" x="208.12" y="-127.5" font-family="Helvetica,sans-Serif" font-size="10.00">sgui/Serialization</text>
<text text-anchor="middle" x="244.88" y="-116.25" font-family="Helvetica,sans-Serif" font-size="10.00">/SerializeCore.h</text>
</a>
</g>
</g>
<!-- Node1&#45;&gt;Node6 -->
<g id="edge5_Node000001_Node000006" class="edge">
<title>Node1&#45;&gt;Node6</title>
<g id="a_edge5_Node000001_Node000006"><a xlink:title=" ">
<path fill="none" stroke="#63b8ff" d="M195.83,-176.59C204.28,-168.01 214.15,-157.98 222.81,-149.18"/>
<polygon fill="#63b8ff" stroke="#63b8ff" points="225.08,-151.86 229.6,-142.28 220.09,-146.95 225.08,-151.86"/>
</a>
</g>
</g>
<!-- Node3 -->
<g id="Node000003" class="node">
<title>Node3</title>
<g id="a_Node000003"><a xlink:title=" ">
<polygon fill="#e0e0e0" stroke="#999999" points="49.75,-74.5 0,-74.5 0,-55.25 49.75,-55.25 49.75,-74.5"/>
<text text-anchor="middle" x="24.88" y="-61" font-family="Helvetica,sans-Serif" font-size="10.00">iomanip</text>
</a>
</g>
</g>
<!-- Node2&#45;&gt;Node3 -->
<g id="edge2_Node000002_Node000003" class="edge">
<title>Node2&#45;&gt;Node3</title>
<g id="a_edge2_Node000002_Node000003"><a xlink:title=" ">
<path fill="none" stroke="#63b8ff" d="M97.9,-110.2C83.13,-101.23 64.24,-89.77 49.38,-80.75"/>
<polygon fill="#63b8ff" stroke="#63b8ff" points="51.49,-77.93 41.12,-75.74 47.86,-83.92 51.49,-77.93"/>
</a>
</g>
</g>
<!-- Node4 -->
<g id="Node000004" class="node">
<title>Node4</title>
<g id="a_Node000004"><a xlink:title=" ">
<polygon fill="#e0e0e0" stroke="#999999" points="116.38,-74.5 67.38,-74.5 67.38,-55.25 116.38,-55.25 116.38,-74.5"/>
<text text-anchor="middle" x="91.88" y="-61" font-family="Helvetica,sans-Serif" font-size="10.00">fstream</text>
</a>
</g>
</g>
<!-- Node2&#45;&gt;Node4 -->
<g id="edge3_Node000002_Node000004" class="edge">
<title>Node2&#45;&gt;Node4</title>
<g id="a_edge3_Node000002_Node000004"><a xlink:title=" ">
<path fill="none" stroke="#63b8ff" d="M114.46,-110.2C110.59,-102.61 105.82,-93.24 101.65,-85.07"/>
<polygon fill="#63b8ff" stroke="#63b8ff" points="104.85,-83.62 97.19,-76.3 98.61,-86.8 104.85,-83.62"/>
</a>
</g>
</g>
<!-- Node5 -->
<g id="Node000005" class="node">
<title>Node5</title>
<g id="a_Node000005"><a xlink:title=" ">
<polygon fill="#e0e0e0" stroke="#999999" points="231.38,-74.5 134.38,-74.5 134.38,-55.25 231.38,-55.25 231.38,-74.5"/>
<text text-anchor="middle" x="182.88" y="-61" font-family="Helvetica,sans-Serif" font-size="10.00">nlohmann/json.hpp</text>
</a>
</g>
</g>
<!-- Node2&#45;&gt;Node5 -->
<g id="edge4_Node000002_Node000005" class="edge">
<title>Node2&#45;&gt;Node5</title>
<g id="a_edge4_Node000002_Node000005"><a xlink:title=" ">
<path fill="none" stroke="#63b8ff" d="M136.95,-110.2C145.53,-101.92 156.31,-91.52 165.27,-82.87"/>
<polygon fill="#63b8ff" stroke="#63b8ff" points="167.62,-85.47 172.38,-76 162.76,-80.43 167.62,-85.47"/>
</a>
</g>
</g>
<!-- Node6&#45;&gt;Node5 -->
<g id="edge7_Node000006_Node000005" class="edge">
<title>Node6&#45;&gt;Node5</title>
<g id="a_edge7_Node000006_Node000005"><a xlink:title=" ">
<path fill="none" stroke="#63b8ff" d="M229.55,-110.2C220.84,-101.92 209.88,-91.52 200.77,-82.87"/>
<polygon fill="#63b8ff" stroke="#63b8ff" points="203.19,-80.34 193.53,-75.99 198.37,-85.42 203.19,-80.34"/>
</a>
</g>
</g>
<!-- Node7 -->
<g id="Node000007" class="node">
<title>Node7</title>
<g id="a_Node000007"><a xlink:title=" ">
<polygon fill="#e0e0e0" stroke="#999999" points="287.25,-19.25 204.5,-19.25 204.5,0 287.25,0 287.25,-19.25"/>
<text text-anchor="middle" x="245.88" y="-5.75" font-family="Helvetica,sans-Serif" font-size="10.00">unordered_map</text>
</a>
</g>
</g>
<!-- Node6&#45;&gt;Node7 -->
<g id="edge6_Node000006_Node000007" class="edge">
<title>Node6&#45;&gt;Node7</title>
<g id="a_edge6_Node000006_Node000007"><a xlink:title=" ">
<path fill="none" stroke="#63b8ff" d="M245,-110.3C245.18,-90.25 245.5,-53.9 245.7,-31.07"/>
<polygon fill="#63b8ff" stroke="#63b8ff" points="249.19,-31.24 245.78,-21.21 242.19,-31.18 249.19,-31.24"/>
</a>
</g>
</g>
<!-- Node8 -->
<g id="Node000008" class="node">
<title>Node8</title>
<g id="a_Node000008"><a xlink:href="_object_pool_8h.html" target="_top" xlink:title=" ">
<polygon fill="white" stroke="#666666" points="431.75,-74.5 316,-74.5 316,-55.25 431.75,-55.25 431.75,-74.5"/>
<text text-anchor="middle" x="373.88" y="-61" font-family="Helvetica,sans-Serif" font-size="10.00">sgui/Core/ObjectPool.h</text>
</a>
</g>
</g>
<!-- Node6&#45;&gt;Node8 -->
<g id="edge8_Node000006_Node000008" class="edge">
<title>Node6&#45;&gt;Node8</title>
<g id="a_edge8_Node000006_Node000008"><a xlink:title=" ">
<path fill="none" stroke="#63b8ff" d="M277.09,-110.05C297.5,-100.73 323.7,-88.77 343.7,-79.65"/>
<polygon fill="#63b8ff" stroke="#63b8ff" points="345.07,-82.87 352.71,-75.53 342.16,-76.5 345.07,-82.87"/>
</a>
</g>
</g>
<!-- Node8&#45;&gt;Node7 -->
<g id="edge12_Node000008_Node000007" class="edge">
<title>Node8&#45;&gt;Node7</title>
<g id="a_edge12_Node000008_Node000007"><a xlink:title=" ">
<path fill="none" stroke="#63b8ff" d="M352.16,-54.84C331.84,-46.39 301.23,-33.65 278.07,-24.02"/>
<polygon fill="#63b8ff" stroke="#63b8ff" points="279.67,-20.89 269.09,-20.28 276.98,-27.36 279.67,-20.89"/>
</a>
</g>
</g>
<!-- Node9 -->
<g id="Node000009" class="node">
<title>Node9</title>
<g id="a_Node000009"><a xlink:title=" ">
<polygon fill="#e0e0e0" stroke="#999999" points="348.38,-19.25 305.38,-19.25 305.38,0 348.38,0 348.38,-19.25"/>
<text text-anchor="middle" x="326.88" y="-5.75" font-family="Helvetica,sans-Serif" font-size="10.00">vector</text>
</a>
</g>
</g>
<!-- Node8&#45;&gt;Node9 -->
<g id="edge9_Node000008_Node000009" class="edge">
<title>Node8&#45;&gt;Node9</title>
<g id="a_edge9_Node000008_Node000009"><a xlink:title=" ">
<path fill="none" stroke="#63b8ff" d="M366.11,-55.08C359.69,-47.8 350.36,-37.23 342.41,-28.23"/>
<polygon fill="#63b8ff" stroke="#63b8ff" points="345.05,-25.93 335.81,-20.74 339.8,-30.56 345.05,-25.93"/>
</a>
</g>
</g>
<!-- Node10 -->
<g id="Node000010" class="node">
<title>Node10</title>
<g id="a_Node000010"><a xlink:title=" ">
<polygon fill="#e0e0e0" stroke="#999999" points="409,-19.25 366.75,-19.25 366.75,0 409,0 409,-19.25"/>
<text text-anchor="middle" x="387.88" y="-5.75" font-family="Helvetica,sans-Serif" font-size="10.00">mutex</text>
</a>
</g>
</g>
<!-- Node8&#45;&gt;Node10 -->
<g id="edge10_Node000008_Node000010" class="edge">
<title>Node8&#45;&gt;Node10</title>
<g id="a_edge10_Node000008_Node000010"><a xlink:title=" ">
<path fill="none" stroke="#63b8ff" d="M376.19,-55.08C377.94,-48.42 380.42,-38.99 382.64,-30.53"/>
<polygon fill="#63b8ff" stroke="#63b8ff" points="385.97,-31.63 385.13,-21.07 379.2,-29.85 385.97,-31.63"/>
</a>
</g>
</g>
<!-- Node11 -->
<g id="Node000011" class="node">
<title>Node11</title>
<g id="a_Node000011"><a xlink:title=" ">
<polygon fill="#e0e0e0" stroke="#999999" points="504.25,-19.25 427.5,-19.25 427.5,0 504.25,0 504.25,-19.25"/>
<text text-anchor="middle" x="465.88" y="-5.75" font-family="Helvetica,sans-Serif" font-size="10.00">shared_mutex</text>
</a>
</g>
</g>
<!-- Node8&#45;&gt;Node11 -->
<g id="edge11_Node000008_Node000011" class="edge">
<title>Node8&#45;&gt;Node11</title>
<g id="a_edge11_Node000008_Node000011"><a xlink:title=" ">
<path fill="none" stroke="#63b8ff" d="M389.48,-54.84C403.49,-46.73 424.31,-34.68 440.68,-25.21"/>
<polygon fill="#63b8ff" stroke="#63b8ff" points="441.98,-28.5 448.88,-20.46 438.47,-22.44 441.98,-28.5"/>
</a>
</g>
</g>
<!-- Node12 -->
<g id="Node000012" class="node">
<title>Node12</title>
<g id="a_Node000012"><a xlink:href="_object_pool_8tpp.html" target="_top" xlink:title=" ">
<polygon fill="white" stroke="#666666" points="645.88,-19.25 521.88,-19.25 521.88,0 645.88,0 645.88,-19.25"/>
<text text-anchor="middle" x="583.88" y="-5.75" font-family="Helvetica,sans-Serif" font-size="10.00">sgui/Core/ObjectPool.tpp</text>
</a>
</g>
</g>
<!-- Node8&#45;&gt;Node12 -->
<g id="edge13_Node000008_Node000012" class="edge">
<title>Node8&#45;&gt;Node12</title>
<g id="a_edge13_Node000008_Node000012"><a xlink:title=" ">
<path fill="none" stroke="#63b8ff" d="M409.5,-54.84C444.65,-45.93 498.56,-32.26 537.14,-22.48"/>
<polygon fill="#63b8ff" stroke="#63b8ff" points="537.78,-25.93 546.61,-20.07 536.06,-19.14 537.78,-25.93"/>
</a>
</g>
</g>
</g>
</svg>
