<?xml version="1.0" encoding="UTF-8" standalone="no"?>
<!DOCTYPE svg PUBLIC "-//W3C//DTD SVG 1.1//EN"
 "http://www.w3.org/Graphics/SVG/1.1/DTD/svg11.dtd">
<!-- Generated by graphviz version 12.2.1 (20241206.2353)
 -->
<!-- Title: /github/workspace/src/sgui/Serialization/LoadTextureAtlas.cpp Pages: 1 -->
<svg width="1441pt" height="415pt"
 viewBox="0.00 0.00 1440.75 415.00" xmlns="http://www.w3.org/2000/svg" xmlns:xlink="http://www.w3.org/1999/xlink">
<g id="graph0" class="graph" transform="scale(1 1) rotate(0) translate(4 411)">
<title>/github/workspace/src/sgui/Serialization/LoadTextureAtlas.cpp</title>
<!-- Node1 -->
<g id="Node000001" class="node">
<title>Node1</title>
<g id="a_Node000001"><a xlink:title=" ">
<polygon fill="#999999" stroke="#666666" points="621.62,-407 472.12,-407 472.12,-365.25 621.62,-365.25 621.62,-407"/>
<text text-anchor="start" x="480.12" y="-393.5" font-family="Helvetica,sans-Serif" font-size="10.00">/github/workspace/src</text>
<text text-anchor="start" x="480.12" y="-382.25" font-family="Helvetica,sans-Serif" font-size="10.00">/sgui/Serialization/LoadTexture</text>
<text text-anchor="middle" x="546.88" y="-371" font-family="Helvetica,sans-Serif" font-size="10.00">Atlas.cpp</text>
</a>
</g>
</g>
<!-- Node2 -->
<g id="Node000002" class="node">
<title>Node2</title>
<g id="a_Node000002"><a xlink:href="_load_texture_atlas_8h.html" target="_top" xlink:title=" ">
<polygon fill="white" stroke="#666666" points="468.38,-329.25 365.38,-329.25 365.38,-298.75 468.38,-298.75 468.38,-329.25"/>
<text text-anchor="start" x="373.38" y="-315.75" font-family="Helvetica,sans-Serif" font-size="10.00">sgui/Serialization</text>
<text text-anchor="middle" x="416.88" y="-304.5" font-family="Helvetica,sans-Serif" font-size="10.00">/LoadTextureAtlas.h</text>
</a>
</g>
</g>
<!-- Node1&#45;&gt;Node2 -->
<g id="edge1_Node000001_Node000002" class="edge">
<title>Node1&#45;&gt;Node2</title>
<g id="a_edge1_Node000001_Node000002"><a xlink:title=" ">
<path fill="none" stroke="#63b8ff" d="M509.27,-364.84C491.85,-355.44 471.2,-344.31 453.86,-334.95"/>
<polygon fill="#63b8ff" stroke="#63b8ff" points="455.87,-332.06 445.4,-330.39 452.54,-338.22 455.87,-332.06"/>
</a>
</g>
</g>
<!-- Node14 -->
<g id="Node000014" class="node">
<title>Node14</title>
<g id="a_Node000014"><a xlink:href="_load_json_8h.html" target="_top" xlink:title=" ">
<polygon fill="white" stroke="#666666" points="809.62,-329.25 720.12,-329.25 720.12,-298.75 809.62,-298.75 809.62,-329.25"/>
<text text-anchor="start" x="728.12" y="-315.75" font-family="Helvetica,sans-Serif" font-size="10.00">sgui/Serialization</text>
<text text-anchor="middle" x="764.88" y="-304.5" font-family="Helvetica,sans-Serif" font-size="10.00">/LoadJson.h</text>
</a>
</g>
</g>
<!-- Node1&#45;&gt;Node14 -->
<g id="edge15_Node000001_Node000014" class="edge">
<title>Node1&#45;&gt;Node14</title>
<g id="a_edge15_Node000001_Node000014"><a xlink:title=" ">
<path fill="none" stroke="#63b8ff" d="M609.93,-364.84C641.29,-354.75 678.86,-342.67 709.15,-332.93"/>
<polygon fill="#63b8ff" stroke="#63b8ff" points="710.06,-336.31 718.51,-329.91 707.92,-329.64 710.06,-336.31"/>
</a>
</g>
</g>
<!-- Node17 -->
<g id="Node000017" class="node">
<title>Node17</title>
<g id="a_Node000017"><a xlink:href="_serialize_g_u_i_8h.html" target="_top" xlink:title=" ">
<polygon fill="white" stroke="#666666" points="591.62,-329.25 502.12,-329.25 502.12,-298.75 591.62,-298.75 591.62,-329.25"/>
<text text-anchor="start" x="510.12" y="-315.75" font-family="Helvetica,sans-Serif" font-size="10.00">sgui/Serialization</text>
<text text-anchor="middle" x="546.88" y="-304.5" font-family="Helvetica,sans-Serif" font-size="10.00">/SerializeGUI.h</text>
</a>
</g>
</g>
<!-- Node1&#45;&gt;Node17 -->
<g id="edge19_Node000001_Node000017" class="edge">
<title>Node1&#45;&gt;Node17</title>
<g id="a_edge19_Node000001_Node000017"><a xlink:title=" ">
<path fill="none" stroke="#63b8ff" d="M546.88,-364.84C546.88,-357.32 546.88,-348.69 546.88,-340.75"/>
<polygon fill="#63b8ff" stroke="#63b8ff" points="550.38,-340.96 546.88,-330.96 543.38,-340.96 550.38,-340.96"/>
</a>
</g>
</g>
<!-- Node3 -->
<g id="Node000003" class="node">
<title>Node3</title>
<g id="a_Node000003"><a xlink:title=" ">
<polygon fill="#e0e0e0" stroke="#999999" points="433.38,-190.62 336.38,-190.62 336.38,-171.38 433.38,-171.38 433.38,-190.62"/>
<text text-anchor="middle" x="384.88" y="-177.12" font-family="Helvetica,sans-Serif" font-size="10.00">nlohmann/json.hpp</text>
</a>
</g>
</g>
<!-- Node2&#45;&gt;Node3 -->
<g id="edge2_Node000002_Node000003" class="edge">
<title>Node2&#45;&gt;Node3</title>
<g id="a_edge2_Node000002_Node000003"><a xlink:title=" ">
<path fill="none" stroke="#63b8ff" d="M413.33,-298.48C407.6,-275.02 396.29,-228.71 389.78,-202.1"/>
<polygon fill="#63b8ff" stroke="#63b8ff" points="393.23,-201.46 387.46,-192.57 386.43,-203.12 393.23,-201.46"/>
</a>
</g>
</g>
<!-- Node4 -->
<g id="Node000004" class="node">
<title>Node4</title>
<g id="a_Node000004"><a xlink:href="_texture_atlas_8h.html" target="_top" xlink:title=" ">
<polygon fill="white" stroke="#666666" points="637.25,-257.12 488.5,-257.12 488.5,-237.88 637.25,-237.88 637.25,-257.12"/>
<text text-anchor="middle" x="562.88" y="-243.62" font-family="Helvetica,sans-Serif" font-size="10.00">sgui/Resources/TextureAtlas.h</text>
</a>
</g>
</g>
<!-- Node2&#45;&gt;Node4 -->
<g id="edge3_Node000002_Node000004" class="edge">
<title>Node2&#45;&gt;Node4</title>
<g id="a_edge3_Node000002_Node000004"><a xlink:title=" ">
<path fill="none" stroke="#63b8ff" d="M450,-298.36C474.66,-287.47 508.08,-272.71 532.15,-262.08"/>
<polygon fill="#63b8ff" stroke="#63b8ff" points="533.36,-265.36 541.1,-258.12 530.53,-258.96 533.36,-265.36"/>
</a>
</g>
</g>
<!-- Node10 -->
<g id="Node000010" class="node">
<title>Node10</title>
<g id="a_Node000010"><a xlink:href="_serialize_s_f_m_l_8h.html" target="_top" xlink:title=" ">
<polygon fill="white" stroke="#666666" points="353,-262.75 262.75,-262.75 262.75,-232.25 353,-232.25 353,-262.75"/>
<text text-anchor="start" x="270.75" y="-249.25" font-family="Helvetica,sans-Serif" font-size="10.00">sgui/Serialization</text>
<text text-anchor="middle" x="307.88" y="-238" font-family="Helvetica,sans-Serif" font-size="10.00">/SerializeSFML.h</text>
</a>
</g>
</g>
<!-- Node2&#45;&gt;Node10 -->
<g id="edge9_Node000002_Node000010" class="edge">
<title>Node2&#45;&gt;Node10</title>
<g id="a_edge9_Node000002_Node000010"><a xlink:title=" ">
<path fill="none" stroke="#63b8ff" d="M392.14,-298.36C377.37,-289.62 358.39,-278.39 342.18,-268.8"/>
<polygon fill="#63b8ff" stroke="#63b8ff" points="344.2,-265.93 333.81,-263.85 340.64,-271.95 344.2,-265.93"/>
</a>
</g>
</g>
<!-- Node5 -->
<g id="Node000005" class="node">
<title>Node5</title>
<g id="a_Node000005"><a xlink:title=" ">
<polygon fill="#e0e0e0" stroke="#999999" points="827.88,-19.25 787.88,-19.25 787.88,0 827.88,0 827.88,-19.25"/>
<text text-anchor="middle" x="807.88" y="-5.75" font-family="Helvetica,sans-Serif" font-size="10.00">string</text>
</a>
</g>
</g>
<!-- Node4&#45;&gt;Node5 -->
<g id="edge4_Node000004_Node000005" class="edge">
<title>Node4&#45;&gt;Node5</title>
<g id="a_edge4_Node000004_Node000005"><a xlink:title=" ">
<path fill="none" stroke="#63b8ff" d="M572.18,-237.54C608.64,-202.44 742.13,-73.93 790.35,-27.5"/>
<polygon fill="#63b8ff" stroke="#63b8ff" points="792.69,-30.1 797.47,-20.64 787.84,-25.06 792.69,-30.1"/>
</a>
</g>
</g>
<!-- Node6 -->
<g id="Node000006" class="node">
<title>Node6</title>
<g id="a_Node000006"><a xlink:title=" ">
<polygon fill="#e0e0e0" stroke="#999999" points="535.5,-190.62 490.25,-190.62 490.25,-171.38 535.5,-171.38 535.5,-190.62"/>
<text text-anchor="middle" x="512.88" y="-177.12" font-family="Helvetica,sans-Serif" font-size="10.00">cstdint</text>
</a>
</g>
</g>
<!-- Node4&#45;&gt;Node6 -->
<g id="edge5_Node000004_Node000006" class="edge">
<title>Node4&#45;&gt;Node6</title>
<g id="a_edge5_Node000004_Node000006"><a xlink:title=" ">
<path fill="none" stroke="#63b8ff" d="M555.92,-237.53C548.39,-227.81 536.16,-212.04 526.66,-199.78"/>
<polygon fill="#63b8ff" stroke="#63b8ff" points="529.59,-197.85 520.7,-192.09 524.06,-202.14 529.59,-197.85"/>
</a>
</g>
</g>
<!-- Node7 -->
<g id="Node000007" class="node">
<title>Node7</title>
<g id="a_Node000007"><a xlink:title=" ">
<polygon fill="#e0e0e0" stroke="#999999" points="603.75,-190.62 554,-190.62 554,-171.38 603.75,-171.38 603.75,-190.62"/>
<text text-anchor="middle" x="578.88" y="-177.12" font-family="Helvetica,sans-Serif" font-size="10.00">optional</text>
</a>
</g>
</g>
<!-- Node4&#45;&gt;Node7 -->
<g id="edge6_Node000004_Node000007" class="edge">
<title>Node4&#45;&gt;Node7</title>
<g id="a_edge6_Node000004_Node000007"><a xlink:title=" ">
<path fill="none" stroke="#63b8ff" d="M565.1,-237.53C567.37,-228.39 570.96,-213.89 573.91,-202"/>
<polygon fill="#63b8ff" stroke="#63b8ff" points="577.29,-202.91 576.3,-192.36 570.5,-201.22 577.29,-202.91"/>
</a>
</g>
</g>
<!-- Node8 -->
<g id="Node000008" class="node">
<title>Node8</title>
<g id="a_Node000008"><a xlink:title=" ">
<polygon fill="#e0e0e0" stroke="#999999" points="742.25,-190.62 659.5,-190.62 659.5,-171.38 742.25,-171.38 742.25,-190.62"/>
<text text-anchor="middle" x="700.88" y="-177.12" font-family="Helvetica,sans-Serif" font-size="10.00">unordered_map</text>
</a>
</g>
</g>
<!-- Node4&#45;&gt;Node8 -->
<g id="edge7_Node000004_Node000008" class="edge">
<title>Node4&#45;&gt;Node8</title>
<g id="a_edge7_Node000004_Node000008"><a xlink:title=" ">
<path fill="none" stroke="#63b8ff" d="M582.35,-237.4C605.47,-226.59 644.26,-208.46 671.14,-195.9"/>
<polygon fill="#63b8ff" stroke="#63b8ff" points="672.55,-199.1 680.12,-191.7 669.58,-192.76 672.55,-199.1"/>
</a>
</g>
</g>
<!-- Node9 -->
<g id="Node000009" class="node">
<title>Node9</title>
<g id="a_Node000009"><a xlink:title=" ">
<polygon fill="#e0e0e0" stroke="#999999" points="525,-129.75 398.75,-129.75 398.75,-110.5 525,-110.5 525,-129.75"/>
<text text-anchor="middle" x="461.88" y="-116.25" font-family="Helvetica,sans-Serif" font-size="10.00">SFML/Graphics/Rect.hpp</text>
</a>
</g>
</g>
<!-- Node4&#45;&gt;Node9 -->
<g id="edge8_Node000004_Node000009" class="edge">
<title>Node4&#45;&gt;Node9</title>
<g id="a_edge8_Node000004_Node000009"><a xlink:title=" ">
<path fill="none" stroke="#63b8ff" d="M538.47,-237.52C519.96,-229.47 495.32,-215.88 480.88,-196.25 469.05,-180.18 464.55,-157.5 462.85,-141.28"/>
<polygon fill="#63b8ff" stroke="#63b8ff" points="466.35,-141.12 462.12,-131.41 459.37,-141.64 466.35,-141.12"/>
</a>
</g>
</g>
<!-- Node10&#45;&gt;Node3 -->
<g id="edge10_Node000010_Node000003" class="edge">
<title>Node10&#45;&gt;Node3</title>
<g id="a_edge10_Node000010_Node000003"><a xlink:title=" ">
<path fill="none" stroke="#63b8ff" d="M325.35,-231.86C337.37,-221.79 353.34,-208.42 365.71,-198.06"/>
<polygon fill="#63b8ff" stroke="#63b8ff" points="367.76,-200.9 373.18,-191.79 363.27,-195.53 367.76,-200.9"/>
</a>
</g>
</g>
<!-- Node10&#45;&gt;Node9 -->
<g id="edge11_Node000010_Node000009" class="edge">
<title>Node10&#45;&gt;Node9</title>
<g id="a_edge11_Node000010_Node000009"><a xlink:title=" ">
<path fill="none" stroke="#63b8ff" d="M299.2,-231.78C290.14,-214.24 279.13,-184.92 293.88,-165.75 305.71,-150.37 348.05,-139.18 387.26,-131.85"/>
<polygon fill="#63b8ff" stroke="#63b8ff" points="387.76,-135.32 396.99,-130.11 386.53,-128.43 387.76,-135.32"/>
</a>
</g>
</g>
<!-- Node11 -->
<g id="Node000011" class="node">
<title>Node11</title>
<g id="a_Node000011"><a xlink:title=" ">
<polygon fill="#e0e0e0" stroke="#999999" points="964.12,-129.75 835.62,-129.75 835.62,-110.5 964.12,-110.5 964.12,-129.75"/>
<text text-anchor="middle" x="899.88" y="-116.25" font-family="Helvetica,sans-Serif" font-size="10.00">SFML/Graphics/Color.hpp</text>
</a>
</g>
</g>
<!-- Node10&#45;&gt;Node11 -->
<g id="edge12_Node000010_Node000011" class="edge">
<title>Node10&#45;&gt;Node11</title>
<g id="a_edge12_Node000010_Node000011"><a xlink:title=" ">
<path fill="none" stroke="#63b8ff" d="M306.62,-231.97C305.91,-213.5 307.85,-182.06 326.88,-165.75 363.81,-134.08 677.08,-124.77 824.17,-122.12"/>
<polygon fill="#63b8ff" stroke="#63b8ff" points="823.87,-125.63 833.8,-121.96 823.74,-118.63 823.87,-125.63"/>
</a>
</g>
</g>
<!-- Node12 -->
<g id="Node000012" class="node">
<title>Node12</title>
<g id="a_Node000012"><a xlink:title=" ">
<polygon fill="#e0e0e0" stroke="#999999" points="133.75,-190.62 0,-190.62 0,-171.38 133.75,-171.38 133.75,-190.62"/>
<text text-anchor="middle" x="66.88" y="-177.12" font-family="Helvetica,sans-Serif" font-size="10.00">SFML/System/Vector3.hpp</text>
</a>
</g>
</g>
<!-- Node10&#45;&gt;Node12 -->
<g id="edge13_Node000010_Node000012" class="edge">
<title>Node10&#45;&gt;Node12</title>
<g id="a_edge13_Node000010_Node000012"><a xlink:title=" ">
<path fill="none" stroke="#63b8ff" d="M262.26,-234.29C219.04,-222.73 154.53,-205.46 111.61,-193.97"/>
<polygon fill="#63b8ff" stroke="#63b8ff" points="112.68,-190.63 102.11,-191.43 110.87,-197.4 112.68,-190.63"/>
</a>
</g>
</g>
<!-- Node13 -->
<g id="Node000013" class="node">
<title>Node13</title>
<g id="a_Node000013"><a xlink:href="_macro_8h.html" target="_top" xlink:title=" ">
<polygon fill="white" stroke="#666666" points="241.62,-196.25 152.12,-196.25 152.12,-165.75 241.62,-165.75 241.62,-196.25"/>
<text text-anchor="start" x="160.12" y="-182.75" font-family="Helvetica,sans-Serif" font-size="10.00">sgui/Serialization</text>
<text text-anchor="middle" x="196.88" y="-171.5" font-family="Helvetica,sans-Serif" font-size="10.00">/Macro.h</text>
</a>
</g>
</g>
<!-- Node10&#45;&gt;Node13 -->
<g id="edge14_Node000010_Node000013" class="edge">
<title>Node10&#45;&gt;Node13</title>
<g id="a_edge14_Node000010_Node000013"><a xlink:title=" ">
<path fill="none" stroke="#63b8ff" d="M282.69,-231.86C267.64,-223.12 248.31,-211.89 231.81,-202.3"/>
<polygon fill="#63b8ff" stroke="#63b8ff" points="233.68,-199.34 223.27,-197.34 230.16,-205.39 233.68,-199.34"/>
</a>
</g>
</g>
<!-- Node14&#45;&gt;Node3 -->
<g id="edge18_Node000014_Node000003" class="edge">
<title>Node14&#45;&gt;Node3</title>
<g id="a_edge18_Node000014_Node000003"><a xlink:title=" ">
<path fill="none" stroke="#63b8ff" d="M719.75,-308.18C650.4,-300.26 521.29,-283.28 479.88,-262.75 461.98,-253.88 461.97,-245.32 446.88,-232.25 433.32,-220.51 417.63,-207.8 405.42,-198.1"/>
<polygon fill="#63b8ff" stroke="#63b8ff" points="407.69,-195.43 397.67,-191.98 403.35,-200.93 407.69,-195.43"/>
</a>
</g>
</g>
<!-- Node15 -->
<g id="Node000015" class="node">
<title>Node15</title>
<g id="a_Node000015"><a xlink:title=" ">
<polygon fill="#e0e0e0" stroke="#999999" points="924.75,-257.12 875,-257.12 875,-237.88 924.75,-237.88 924.75,-257.12"/>
<text text-anchor="middle" x="899.88" y="-243.62" font-family="Helvetica,sans-Serif" font-size="10.00">iomanip</text>
</a>
</g>
</g>
<!-- Node14&#45;&gt;Node15 -->
<g id="edge16_Node000014_Node000015" class="edge">
<title>Node14&#45;&gt;Node15</title>
<g id="a_edge16_Node000014_Node000015"><a xlink:title=" ">
<path fill="none" stroke="#63b8ff" d="M795.51,-298.36C818.11,-287.57 848.65,-272.97 870.86,-262.36"/>
<polygon fill="#63b8ff" stroke="#63b8ff" points="872.14,-265.63 879.65,-258.16 869.12,-259.32 872.14,-265.63"/>
</a>
</g>
</g>
<!-- Node16 -->
<g id="Node000016" class="node">
<title>Node16</title>
<g id="a_Node000016"><a xlink:title=" ">
<polygon fill="#e0e0e0" stroke="#999999" points="991.38,-257.12 942.38,-257.12 942.38,-237.88 991.38,-237.88 991.38,-257.12"/>
<text text-anchor="middle" x="966.88" y="-243.62" font-family="Helvetica,sans-Serif" font-size="10.00">fstream</text>
</a>
</g>
</g>
<!-- Node14&#45;&gt;Node16 -->
<g id="edge17_Node000014_Node000016" class="edge">
<title>Node14&#45;&gt;Node16</title>
<g id="a_edge17_Node000014_Node000016"><a xlink:title=" ">
<path fill="none" stroke="#63b8ff" d="M809.82,-301.2C844.15,-291.81 892.44,-277.79 933.88,-262.75 934.82,-262.41 935.79,-262.05 936.75,-261.68"/>
<polygon fill="#63b8ff" stroke="#63b8ff" points="937.78,-265.04 945.73,-258.04 935.15,-258.55 937.78,-265.04"/>
</a>
</g>
</g>
<!-- Node17&#45;&gt;Node3 -->
<g id="edge20_Node000017_Node000003" class="edge">
<title>Node17&#45;&gt;Node3</title>
<g id="a_edge20_Node000017_Node000003"><a xlink:title=" ">
<path fill="none" stroke="#63b8ff" d="M507.89,-298.31C488.33,-289.78 464.99,-277.73 446.88,-262.75 425.44,-245.03 406.93,-218.59 395.85,-200.84"/>
<polygon fill="#63b8ff" stroke="#63b8ff" points="398.9,-199.11 390.73,-192.36 392.91,-202.73 398.9,-199.11"/>
</a>
</g>
</g>
<!-- Node17&#45;&gt;Node4 -->
<g id="edge42_Node000017_Node000004" class="edge">
<title>Node17&#45;&gt;Node4</title>
<g id="a_edge42_Node000017_Node000004"><a xlink:title=" ">
<path fill="none" stroke="#63b8ff" d="M550.51,-298.36C552.71,-289.48 555.55,-278.02 557.96,-268.33"/>
<polygon fill="#63b8ff" stroke="#63b8ff" points="561.31,-269.34 560.32,-258.79 554.52,-267.65 561.31,-269.34"/>
</a>
</g>
</g>
<!-- Node17&#45;&gt;Node10 -->
<g id="edge43_Node000017_Node000010" class="edge">
<title>Node17&#45;&gt;Node10</title>
<g id="a_edge43_Node000017_Node000010"><a xlink:title=" ">
<path fill="none" stroke="#63b8ff" d="M501.64,-300.79C462.63,-290.27 406.13,-275.02 364.2,-263.7"/>
<polygon fill="#63b8ff" stroke="#63b8ff" points="365.36,-260.39 354.79,-261.16 363.53,-267.15 365.36,-260.39"/>
</a>
</g>
</g>
<!-- Node18 -->
<g id="Node000018" class="node">
<title>Node18</title>
<g id="a_Node000018"><a xlink:href="_layout_8h.html" target="_top" xlink:title=" ">
<polygon fill="white" stroke="#666666" points="856.5,-257.12 733.25,-257.12 733.25,-237.88 856.5,-237.88 856.5,-257.12"/>
<text text-anchor="middle" x="794.88" y="-243.62" font-family="Helvetica,sans-Serif" font-size="10.00">sgui/Resources/Layout.h</text>
</a>
</g>
</g>
<!-- Node17&#45;&gt;Node18 -->
<g id="edge21_Node000017_Node000018" class="edge">
<title>Node17&#45;&gt;Node18</title>
<g id="a_edge21_Node000017_Node000018"><a xlink:title=" ">
<path fill="none" stroke="#63b8ff" d="M592.07,-301.24C636.54,-289.68 704.1,-272.11 748.85,-260.47"/>
<polygon fill="#63b8ff" stroke="#63b8ff" points="749.73,-263.86 758.52,-257.95 747.96,-257.08 749.73,-263.86"/>
</a>
</g>
</g>
<!-- Node18&#45;&gt;Node5 -->
<g id="edge22_Node000018_Node000005" class="edge">
<title>Node18&#45;&gt;Node5</title>
<g id="a_edge22_Node000018_Node000005"><a xlink:title=" ">
<path fill="none" stroke="#63b8ff" d="M793.72,-237.62C792.48,-227.6 790.6,-210.79 789.88,-196.25 786.76,-133.53 790.1,-117.43 798.88,-55.25 800.02,-47.13 801.72,-38.26 803.33,-30.59"/>
<polygon fill="#63b8ff" stroke="#63b8ff" points="806.72,-31.46 805.45,-20.94 799.88,-29.96 806.72,-31.46"/>
</a>
</g>
</g>
<!-- Node18&#45;&gt;Node8 -->
<g id="edge25_Node000018_Node000008" class="edge">
<title>Node18&#45;&gt;Node8</title>
<g id="a_edge25_Node000018_Node000008"><a xlink:title=" ">
<path fill="none" stroke="#63b8ff" d="M781.8,-237.53C766.74,-227.19 741.71,-210.02 723.47,-197.5"/>
<polygon fill="#63b8ff" stroke="#63b8ff" points="725.61,-194.73 715.39,-191.96 721.65,-200.5 725.61,-194.73"/>
</a>
</g>
</g>
<!-- Node19 -->
<g id="Node000019" class="node">
<title>Node19</title>
<g id="a_Node000019"><a xlink:title=" ">
<polygon fill="#e0e0e0" stroke="#999999" points="841.38,-190.62 798.38,-190.62 798.38,-171.38 841.38,-171.38 841.38,-190.62"/>
<text text-anchor="middle" x="819.88" y="-177.12" font-family="Helvetica,sans-Serif" font-size="10.00">vector</text>
</a>
</g>
</g>
<!-- Node18&#45;&gt;Node19 -->
<g id="edge23_Node000018_Node000019" class="edge">
<title>Node18&#45;&gt;Node19</title>
<g id="a_edge23_Node000018_Node000019"><a xlink:title=" ">
<path fill="none" stroke="#63b8ff" d="M798.35,-237.53C801.97,-228.19 807.75,-213.28 812.41,-201.26"/>
<polygon fill="#63b8ff" stroke="#63b8ff" points="815.53,-202.89 815.88,-192.3 809,-200.36 815.53,-202.89"/>
</a>
</g>
</g>
<!-- Node20 -->
<g id="Node000020" class="node">
<title>Node20</title>
<g id="a_Node000020"><a xlink:title=" ">
<polygon fill="#e0e0e0" stroke="#999999" points="898.12,-190.62 859.62,-190.62 859.62,-171.38 898.12,-171.38 898.12,-190.62"/>
<text text-anchor="middle" x="878.88" y="-177.12" font-family="Helvetica,sans-Serif" font-size="10.00">utility</text>
</a>
</g>
</g>
<!-- Node18&#45;&gt;Node20 -->
<g id="edge24_Node000018_Node000020" class="edge">
<title>Node18&#45;&gt;Node20</title>
<g id="a_edge24_Node000018_Node000020"><a xlink:title=" ">
<path fill="none" stroke="#63b8ff" d="M806.55,-237.53C819.89,-227.29 841.97,-210.34 858.23,-197.85"/>
<polygon fill="#63b8ff" stroke="#63b8ff" points="860.02,-200.89 865.82,-192.02 855.76,-195.34 860.02,-200.89"/>
</a>
</g>
</g>
<!-- Node21 -->
<g id="Node000021" class="node">
<title>Node21</title>
<g id="a_Node000021"><a xlink:href="_style_8h.html" target="_top" xlink:title=" ">
<polygon fill="white" stroke="#666666" points="1296.12,-190.62 1191.62,-190.62 1191.62,-171.38 1296.12,-171.38 1296.12,-190.62"/>
<text text-anchor="middle" x="1243.88" y="-177.12" font-family="Helvetica,sans-Serif" font-size="10.00">sgui/Widgets/Style.h</text>
</a>
</g>
</g>
<!-- Node18&#45;&gt;Node21 -->
<g id="edge26_Node000018_Node000021" class="edge">
<title>Node18&#45;&gt;Node21</title>
<g id="a_edge26_Node000018_Node000021"><a xlink:title=" ">
<path fill="none" stroke="#63b8ff" d="M837.19,-237.39C846.61,-235.54 856.56,-233.71 865.88,-232.25 1005.96,-210.28 1043.16,-220.42 1182.88,-196.25 1187.52,-195.45 1192.33,-194.51 1197.13,-193.5"/>
<polygon fill="#63b8ff" stroke="#63b8ff" points="1197.72,-196.96 1206.74,-191.39 1196.22,-190.12 1197.72,-196.96"/>
</a>
</g>
</g>
<!-- Node23 -->
<g id="Node000023" class="node">
<title>Node23</title>
<g id="a_Node000023"><a xlink:href="_panel_8h.html" target="_top" xlink:title=" ">
<polygon fill="white" stroke="#666666" points="1173.62,-190.62 1066.12,-190.62 1066.12,-171.38 1173.62,-171.38 1173.62,-190.62"/>
<text text-anchor="middle" x="1119.88" y="-177.12" font-family="Helvetica,sans-Serif" font-size="10.00">sgui/Widgets/Panel.h</text>
</a>
</g>
</g>
<!-- Node18&#45;&gt;Node23 -->
<g id="edge30_Node000018_Node000023" class="edge">
<title>Node18&#45;&gt;Node23</title>
<g id="a_edge30_Node000018_Node000023"><a xlink:title=" ">
<path fill="none" stroke="#63b8ff" d="M839.55,-237.45C848.28,-235.71 857.36,-233.91 865.88,-232.25 950.67,-215.75 972.29,-213.78 1056.88,-196.25 1060.96,-195.4 1065.18,-194.5 1069.43,-193.58"/>
<polygon fill="#63b8ff" stroke="#63b8ff" points="1070.11,-197.01 1079.12,-191.44 1068.61,-190.18 1070.11,-197.01"/>
</a>
</g>
</g>
<!-- Node30 -->
<g id="Node000030" class="node">
<title>Node30</title>
<g id="a_Node000030"><a xlink:href="_layout_8tpp.html" target="_top" xlink:title=" ">
<polygon fill="white" stroke="#666666" points="1047.62,-190.62 916.12,-190.62 916.12,-171.38 1047.62,-171.38 1047.62,-190.62"/>
<text text-anchor="middle" x="981.88" y="-177.12" font-family="Helvetica,sans-Serif" font-size="10.00">sgui/Resources/Layout.tpp</text>
</a>
</g>
</g>
<!-- Node18&#45;&gt;Node30 -->
<g id="edge41_Node000018_Node000030" class="edge">
<title>Node18&#45;&gt;Node30</title>
<g id="a_edge41_Node000018_Node000030"><a xlink:title=" ">
<path fill="none" stroke="#63b8ff" d="M821.27,-237.4C853.57,-226.26 908.45,-207.33 944.93,-194.74"/>
<polygon fill="#63b8ff" stroke="#63b8ff" points="945.87,-198.12 954.18,-191.55 943.59,-191.5 945.87,-198.12"/>
</a>
</g>
</g>
<!-- Node21&#45;&gt;Node5 -->
<g id="edge27_Node000021_Node000005" class="edge">
<title>Node21&#45;&gt;Node5</title>
<g id="a_edge27_Node000021_Node000005"><a xlink:title=" ">
<path fill="none" stroke="#63b8ff" d="M1210.25,-170.92C1178.08,-161.84 1128.44,-146.8 1086.88,-129.75 1069.36,-122.56 1066.08,-118.41 1048.88,-110.5 974.36,-76.25 884.69,-40.48 838.58,-22.48"/>
<polygon fill="#63b8ff" stroke="#63b8ff" points="840.09,-19.32 829.5,-18.95 837.55,-25.84 840.09,-19.32"/>
</a>
</g>
</g>
<!-- Node21&#45;&gt;Node11 -->
<g id="edge28_Node000021_Node000011" class="edge">
<title>Node21&#45;&gt;Node11</title>
<g id="a_edge28_Node000021_Node000011"><a xlink:title=" ">
<path fill="none" stroke="#63b8ff" d="M1206.87,-170.9C1198.97,-169.09 1190.67,-167.27 1182.88,-165.75 1112.97,-152.09 1032.72,-139.75 975.57,-131.53"/>
<polygon fill="#63b8ff" stroke="#63b8ff" points="976.35,-128.1 965.96,-130.15 975.36,-135.03 976.35,-128.1"/>
</a>
</g>
</g>
<!-- Node22 -->
<g id="Node000022" class="node">
<title>Node22</title>
<g id="a_Node000022"><a xlink:title=" ">
<polygon fill="#e0e0e0" stroke="#999999" points="1432.75,-19.25 1299,-19.25 1299,0 1432.75,0 1432.75,-19.25"/>
<text text-anchor="middle" x="1365.88" y="-5.75" font-family="Helvetica,sans-Serif" font-size="10.00">SFML/System/Vector2.hpp</text>
</a>
</g>
</g>
<!-- Node21&#45;&gt;Node22 -->
<g id="edge29_Node000021_Node000022" class="edge">
<title>Node21&#45;&gt;Node22</title>
<g id="a_edge29_Node000021_Node000022"><a xlink:title=" ">
<path fill="none" stroke="#63b8ff" d="M1262.75,-170.9C1291.92,-155.66 1346.86,-121.89 1368.88,-74.5 1375.26,-60.77 1373.98,-43.53 1371.4,-30.43"/>
<polygon fill="#63b8ff" stroke="#63b8ff" points="1374.84,-29.75 1369.09,-20.85 1368.04,-31.39 1374.84,-29.75"/>
</a>
</g>
</g>
<!-- Node23&#45;&gt;Node5 -->
<g id="edge31_Node000023_Node000005" class="edge">
<title>Node23&#45;&gt;Node5</title>
<g id="a_edge31_Node000023_Node000005"><a xlink:title=" ">
<path fill="none" stroke="#63b8ff" d="M1081.65,-170.92C1073.49,-169.11 1064.92,-167.29 1056.88,-165.75 1006.06,-156.04 863.51,-166.28 826.88,-129.75 800.88,-103.83 801.58,-57.54 804.6,-30.94"/>
<polygon fill="#63b8ff" stroke="#63b8ff" points="808.05,-31.52 805.96,-21.14 801.12,-30.56 808.05,-31.52"/>
</a>
</g>
</g>
<!-- Node23&#45;&gt;Node9 -->
<g id="edge33_Node000023_Node000009" class="edge">
<title>Node23&#45;&gt;Node9</title>
<g id="a_edge33_Node000023_Node000009"><a xlink:title=" ">
<path fill="none" stroke="#63b8ff" d="M1084.07,-170.94C1075.23,-168.97 1065.75,-167.08 1056.88,-165.75 870.92,-137.9 649.53,-127.11 536.45,-123.19"/>
<polygon fill="#63b8ff" stroke="#63b8ff" points="536.81,-119.7 526.7,-122.86 536.57,-126.69 536.81,-119.7"/>
</a>
</g>
</g>
<!-- Node24 -->
<g id="Node000024" class="node">
<title>Node24</title>
<g id="a_Node000024"><a xlink:title=" ">
<polygon fill="#e0e0e0" stroke="#999999" points="1039.88,-129.75 981.88,-129.75 981.88,-110.5 1039.88,-110.5 1039.88,-129.75"/>
<text text-anchor="middle" x="1010.88" y="-116.25" font-family="Helvetica,sans-Serif" font-size="10.00">functional</text>
</a>
</g>
</g>
<!-- Node23&#45;&gt;Node24 -->
<g id="edge32_Node000023_Node000024" class="edge">
<title>Node23&#45;&gt;Node24</title>
<g id="a_edge32_Node000023_Node000024"><a xlink:title=" ">
<path fill="none" stroke="#63b8ff" d="M1103.32,-171.06C1085.87,-161.63 1058.13,-146.65 1037.58,-135.55"/>
<polygon fill="#63b8ff" stroke="#63b8ff" points="1039.38,-132.54 1028.92,-130.87 1036.05,-138.7 1039.38,-132.54"/>
</a>
</g>
</g>
<!-- Node25 -->
<g id="Node000025" class="node">
<title>Node25</title>
<g id="a_Node000025"><a xlink:href="_options_8h.html" target="_top" xlink:title=" ">
<polygon fill="white" stroke="#666666" points="1212.12,-129.75 1095.62,-129.75 1095.62,-110.5 1212.12,-110.5 1212.12,-129.75"/>
<text text-anchor="middle" x="1153.88" y="-116.25" font-family="Helvetica,sans-Serif" font-size="10.00">sgui/Widgets/Options.h</text>
</a>
</g>
</g>
<!-- Node23&#45;&gt;Node25 -->
<g id="edge34_Node000023_Node000025" class="edge">
<title>Node23&#45;&gt;Node25</title>
<g id="a_edge34_Node000023_Node000025"><a xlink:title=" ">
<path fill="none" stroke="#63b8ff" d="M1125.04,-171.06C1129.78,-162.85 1136.96,-150.41 1142.98,-140"/>
<polygon fill="#63b8ff" stroke="#63b8ff" points="1145.94,-141.87 1147.91,-131.46 1139.87,-138.37 1145.94,-141.87"/>
</a>
</g>
</g>
<!-- Node26 -->
<g id="Node000026" class="node">
<title>Node26</title>
<g id="a_Node000026"><a xlink:href="_constraints_8h.html" target="_top" xlink:title=" ">
<polygon fill="white" stroke="#666666" points="1360,-74.5 1227.75,-74.5 1227.75,-55.25 1360,-55.25 1360,-74.5"/>
<text text-anchor="middle" x="1293.88" y="-61" font-family="Helvetica,sans-Serif" font-size="10.00">sgui/Widgets/Constraints.h</text>
</a>
</g>
</g>
<!-- Node25&#45;&gt;Node26 -->
<g id="edge35_Node000025_Node000026" class="edge">
<title>Node25&#45;&gt;Node26</title>
<g id="a_edge35_Node000025_Node000026"><a xlink:title=" ">
<path fill="none" stroke="#63b8ff" d="M1177.62,-110.09C1200.05,-101.56 1233.94,-88.67 1259.35,-79.01"/>
<polygon fill="#63b8ff" stroke="#63b8ff" points="1260.49,-82.32 1268.59,-75.49 1258,-75.77 1260.49,-82.32"/>
</a>
</g>
</g>
<!-- Node27 -->
<g id="Node000027" class="node">
<title>Node27</title>
<g id="a_Node000027"><a xlink:href="_aspect_8h.html" target="_top" xlink:title=" ">
<polygon fill="white" stroke="#666666" points="1209.62,-74.5 1096.12,-74.5 1096.12,-55.25 1209.62,-55.25 1209.62,-74.5"/>
<text text-anchor="middle" x="1152.88" y="-61" font-family="Helvetica,sans-Serif" font-size="10.00">sgui/Widgets/Aspect.h</text>
</a>
</g>
</g>
<!-- Node25&#45;&gt;Node27 -->
<g id="edge37_Node000025_Node000027" class="edge">
<title>Node25&#45;&gt;Node27</title>
<g id="a_edge37_Node000025_Node000027"><a xlink:title=" ">
<path fill="none" stroke="#63b8ff" d="M1153.71,-110.33C1153.59,-103.82 1153.42,-94.67 1153.26,-86.37"/>
<polygon fill="#63b8ff" stroke="#63b8ff" points="1156.76,-86.3 1153.07,-76.37 1149.76,-86.44 1156.76,-86.3"/>
</a>
</g>
</g>
<!-- Node26&#45;&gt;Node22 -->
<g id="edge36_Node000026_Node000022" class="edge">
<title>Node26&#45;&gt;Node22</title>
<g id="a_edge36_Node000026_Node000022"><a xlink:title=" ">
<path fill="none" stroke="#63b8ff" d="M1306.09,-54.84C1316.7,-46.99 1332.31,-35.45 1344.92,-26.12"/>
<polygon fill="#63b8ff" stroke="#63b8ff" points="1346.67,-29.19 1352.62,-20.42 1342.5,-23.56 1346.67,-29.19"/>
</a>
</g>
</g>
<!-- Node27&#45;&gt;Node5 -->
<g id="edge38_Node000027_Node000005" class="edge">
<title>Node27&#45;&gt;Node5</title>
<g id="a_edge38_Node000027_Node000005"><a xlink:title=" ">
<path fill="none" stroke="#63b8ff" d="M1095.91,-55.08C1022.49,-43.75 897.42,-24.45 839.29,-15.47"/>
<polygon fill="#63b8ff" stroke="#63b8ff" points="840.18,-12.07 829.77,-14 839.12,-18.99 840.18,-12.07"/>
</a>
</g>
</g>
<!-- Node28 -->
<g id="Node000028" class="node">
<title>Node28</title>
<g id="a_Node000028"><a xlink:href="_widgets_8h.html" target="_top" xlink:title=" ">
<polygon fill="white" stroke="#666666" points="1111.88,-19.25 993.88,-19.25 993.88,0 1111.88,0 1111.88,-19.25"/>
<text text-anchor="middle" x="1052.88" y="-5.75" font-family="Helvetica,sans-Serif" font-size="10.00">sgui/Widgets/Widgets.h</text>
</a>
</g>
</g>
<!-- Node27&#45;&gt;Node28 -->
<g id="edge39_Node000027_Node000028" class="edge">
<title>Node27&#45;&gt;Node28</title>
<g id="a_edge39_Node000027_Node000028"><a xlink:title=" ">
<path fill="none" stroke="#63b8ff" d="M1135.91,-54.84C1120.61,-46.69 1097.84,-34.57 1080.01,-25.08"/>
<polygon fill="#63b8ff" stroke="#63b8ff" points="1081.73,-22.02 1071.26,-20.41 1078.44,-28.2 1081.73,-22.02"/>
</a>
</g>
</g>
<!-- Node29 -->
<g id="Node000029" class="node">
<title>Node29</title>
<g id="a_Node000029"><a xlink:href="_item_states_8h.html" target="_top" xlink:title=" ">
<polygon fill="white" stroke="#666666" points="1260.25,-19.25 1129.5,-19.25 1129.5,0 1260.25,0 1260.25,-19.25"/>
<text text-anchor="middle" x="1194.88" y="-5.75" font-family="Helvetica,sans-Serif" font-size="10.00">sgui/Widgets/ItemStates.h</text>
</a>
</g>
</g>
<!-- Node27&#45;&gt;Node29 -->
<g id="edge40_Node000027_Node000029" class="edge">
<title>Node27&#45;&gt;Node29</title>
<g id="a_edge40_Node000027_Node000029"><a xlink:title=" ">
<path fill="none" stroke="#63b8ff" d="M1159.81,-55.08C1165.49,-47.88 1173.71,-37.46 1180.77,-28.51"/>
<polygon fill="#63b8ff" stroke="#63b8ff" points="1183.41,-30.82 1186.85,-20.8 1177.91,-26.48 1183.41,-30.82"/>
</a>
</g>
</g>
</g>
</svg>
