<?xml version="1.0" encoding="UTF-8" standalone="no"?>
<!DOCTYPE svg PUBLIC "-//W3C//DTD SVG 1.1//EN"
 "http://www.w3.org/Graphics/SVG/1.1/DTD/svg11.dtd">
<!-- Generated by graphviz version 12.2.1 (20241206.2353)
 -->
<!-- Title: /github/workspace/src/sgui/Render/MeshFunctions.h Pages: 1 -->
<svg width="341pt" height="94pt"
 viewBox="0.00 0.00 341.38 93.75" xmlns="http://www.w3.org/2000/svg" xmlns:xlink="http://www.w3.org/1999/xlink">
<g id="graph0" class="graph" transform="scale(1 1) rotate(0) translate(4 89.75)">
<title>/github/workspace/src/sgui/Render/MeshFunctions.h</title>
<!-- Node1 -->
<g id="Node000001" class="node">
<title>Node1</title>
<g id="a_Node000001"><a xlink:title=" ">
<polygon fill="#999999" stroke="#666666" points="192.5,-85.75 44.5,-85.75 44.5,-55.25 192.5,-55.25 192.5,-85.75"/>
<text text-anchor="start" x="52.5" y="-72.25" font-family="Helvetica,sans-Serif" font-size="10.00">/github/workspace/src</text>
<text text-anchor="middle" x="118.5" y="-61" font-family="Helvetica,sans-Serif" font-size="10.00">/sgui/Render/MeshFunctions.h</text>
</a>
</g>
</g>
<!-- Node2 -->
<g id="Node000002" class="node">
<title>Node2</title>
<g id="a_Node000002"><a xlink:title=" ">
<polygon fill="#e0e0e0" stroke="#999999" points="37,-19.25 0,-19.25 0,0 37,0 37,-19.25"/>
<text text-anchor="middle" x="18.5" y="-5.75" font-family="Helvetica,sans-Serif" font-size="10.00">array</text>
</a>
</g>
</g>
<!-- Node1&#45;&gt;Node2 -->
<g id="edge1_Node000001_Node000002" class="edge">
<title>Node1&#45;&gt;Node2</title>
<g id="a_edge1_Node000001_Node000002"><a xlink:title=" ">
<path fill="none" stroke="#63b8ff" d="M93.52,-54.8C78.29,-45.83 58.89,-34.41 43.63,-25.42"/>
<polygon fill="#63b8ff" stroke="#63b8ff" points="45.53,-22.48 35.14,-20.42 41.98,-28.51 45.53,-22.48"/>
</a>
</g>
</g>
<!-- Node3 -->
<g id="Node000003" class="node">
<title>Node3</title>
<g id="a_Node000003"><a xlink:title=" ">
<polygon fill="#e0e0e0" stroke="#999999" points="181.62,-19.25 55.38,-19.25 55.38,0 181.62,0 181.62,-19.25"/>
<text text-anchor="middle" x="118.5" y="-5.75" font-family="Helvetica,sans-Serif" font-size="10.00">SFML/Graphics/Rect.hpp</text>
</a>
</g>
</g>
<!-- Node1&#45;&gt;Node3 -->
<g id="edge2_Node000001_Node000003" class="edge">
<title>Node1&#45;&gt;Node3</title>
<g id="a_edge2_Node000001_Node000003"><a xlink:title=" ">
<path fill="none" stroke="#63b8ff" d="M118.5,-54.95C118.5,-47.71 118.5,-38.84 118.5,-30.94"/>
<polygon fill="#63b8ff" stroke="#63b8ff" points="122,-31.21 118.5,-21.21 115,-31.21 122,-31.21"/>
</a>
</g>
</g>
<!-- Node4 -->
<g id="Node000004" class="node">
<title>Node4</title>
<g id="a_Node000004"><a xlink:title=" ">
<polygon fill="#e0e0e0" stroke="#999999" points="333.38,-19.25 199.62,-19.25 199.62,0 333.38,0 333.38,-19.25"/>
<text text-anchor="middle" x="266.5" y="-5.75" font-family="Helvetica,sans-Serif" font-size="10.00">SFML/Graphics/Vertex.hpp</text>
</a>
</g>
</g>
<!-- Node1&#45;&gt;Node4 -->
<g id="edge3_Node000001_Node000004" class="edge">
<title>Node1&#45;&gt;Node4</title>
<g id="a_edge3_Node000001_Node000004"><a xlink:title=" ">
<path fill="none" stroke="#63b8ff" d="M155.46,-54.8C179.3,-45.31 210.05,-33.08 233.15,-23.89"/>
<polygon fill="#63b8ff" stroke="#63b8ff" points="234.4,-27.16 242.4,-20.21 231.81,-20.66 234.4,-27.16"/>
</a>
</g>
</g>
</g>
</svg>
