<?xml version="1.0" encoding="UTF-8" standalone="no"?>
<!DOCTYPE svg PUBLIC "-//W3C//DTD SVG 1.1//EN"
 "http://www.w3.org/Graphics/SVG/1.1/DTD/svg11.dtd">
<!-- Generated by graphviz version 12.2.1 (20241206.2353)
 -->
<!-- Title: /github/workspace/src/sgui/Core/ObjectPool.tpp Pages: 1 -->
<svg width="427pt" height="327pt"
 viewBox="0.00 0.00 426.75 327.00" xmlns="http://www.w3.org/2000/svg" xmlns:xlink="http://www.w3.org/1999/xlink">
<g id="graph0" class="graph" transform="scale(1 1) rotate(0) translate(4 323)">
<title>/github/workspace/src/sgui/Core/ObjectPool.tpp</title>
<!-- Node1 -->
<g id="Node000001" class="node">
<title>Node1</title>
<g id="a_Node000001"><a xlink:title=" ">
<polygon fill="#999999" stroke="#666666" points="319.5,-319 192.5,-319 192.5,-288.5 319.5,-288.5 319.5,-319"/>
<text text-anchor="start" x="200.5" y="-305.5" font-family="Helvetica,sans-Serif" font-size="10.00">/github/workspace/src</text>
<text text-anchor="middle" x="256" y="-294.25" font-family="Helvetica,sans-Serif" font-size="10.00">/sgui/Core/ObjectPool.tpp</text>
</a>
</g>
</g>
<!-- Node2 -->
<g id="Node000002" class="node">
<title>Node2</title>
<g id="a_Node000002"><a xlink:href="_object_pool_8h.html" target="_top" xlink:title=" ">
<polygon fill="white" stroke="#666666" points="315.38,-252.5 196.62,-252.5 196.62,-222 315.38,-222 315.38,-252.5"/>
<text text-anchor="start" x="204.62" y="-239" font-family="Helvetica,sans-Serif" font-size="10.00">/github/workspace/src</text>
<text text-anchor="middle" x="256" y="-227.75" font-family="Helvetica,sans-Serif" font-size="10.00">/sgui/Core/ObjectPool.h</text>
</a>
</g>
</g>
<!-- Node1&#45;&gt;Node2 -->
<g id="edge1_Node000001_Node000002" class="edge">
<title>Node1&#45;&gt;Node2</title>
<g id="a_edge1_Node000001_Node000002"><a xlink:title=" ">
<path fill="none" stroke="#63b8ff" d="M256,-276.81C256,-268.64 256,-259.91 256,-252.83"/>
<polygon fill="#63b8ff" stroke="#63b8ff" points="252.5,-276.6 256,-286.6 259.5,-276.6 252.5,-276.6"/>
</a>
</g>
</g>
<!-- Node3 -->
<g id="Node000003" class="node">
<title>Node3</title>
<g id="a_Node000003"><a xlink:href="_gui_8h.html" target="_top" xlink:title=" ">
<polygon fill="white" stroke="#666666" points="242,-180.38 130,-180.38 130,-149.88 242,-149.88 242,-180.38"/>
<text text-anchor="start" x="138" y="-166.88" font-family="Helvetica,sans-Serif" font-size="10.00">/github/workspace/src</text>
<text text-anchor="middle" x="186" y="-155.62" font-family="Helvetica,sans-Serif" font-size="10.00">/sgui/Gui.h</text>
</a>
</g>
</g>
<!-- Node2&#45;&gt;Node3 -->
<g id="edge2_Node000002_Node000003" class="edge">
<title>Node2&#45;&gt;Node3</title>
<g id="a_edge2_Node000002_Node000003"><a xlink:title=" ">
<path fill="none" stroke="#63b8ff" d="M233.64,-213.85C222.79,-202.98 210.05,-190.22 200.49,-180.64"/>
<polygon fill="#63b8ff" stroke="#63b8ff" points="230.88,-216.04 240.43,-220.65 235.84,-211.1 230.88,-216.04"/>
</a>
</g>
</g>
<!-- Node6 -->
<g id="Node000006" class="node">
<title>Node6</title>
<g id="a_Node000006"><a xlink:href="_serialize_core_8h.html" target="_top" xlink:title=" ">
<polygon fill="white" stroke="#666666" points="396.12,-186 263.88,-186 263.88,-144.25 396.12,-144.25 396.12,-186"/>
<text text-anchor="start" x="271.88" y="-172.5" font-family="Helvetica,sans-Serif" font-size="10.00">/github/workspace/src</text>
<text text-anchor="start" x="271.88" y="-161.25" font-family="Helvetica,sans-Serif" font-size="10.00">/sgui/Serialization/Serialize</text>
<text text-anchor="middle" x="330" y="-150" font-family="Helvetica,sans-Serif" font-size="10.00">Core.h</text>
</a>
</g>
</g>
<!-- Node2&#45;&gt;Node6 -->
<g id="edge5_Node000002_Node000006" class="edge">
<title>Node2&#45;&gt;Node6</title>
<g id="a_edge5_Node000002_Node000006"><a xlink:title=" ">
<path fill="none" stroke="#63b8ff" d="M279.43,-214.04C288.75,-205.22 299.4,-195.12 308.51,-186.49"/>
<polygon fill="#63b8ff" stroke="#63b8ff" points="277.28,-211.26 272.43,-220.68 282.1,-216.34 277.28,-211.26"/>
</a>
</g>
</g>
<!-- Node4 -->
<g id="Node000004" class="node">
<title>Node4</title>
<g id="a_Node000004"><a xlink:href="_gui_8cpp.html" target="_top" xlink:title=" ">
<polygon fill="white" stroke="#666666" points="112,-102.62 0,-102.62 0,-72.12 112,-72.12 112,-102.62"/>
<text text-anchor="start" x="8" y="-89.12" font-family="Helvetica,sans-Serif" font-size="10.00">/github/workspace/src</text>
<text text-anchor="middle" x="56" y="-77.88" font-family="Helvetica,sans-Serif" font-size="10.00">/sgui/Gui.cpp</text>
</a>
</g>
</g>
<!-- Node3&#45;&gt;Node4 -->
<g id="edge3_Node000003_Node000004" class="edge">
<title>Node3&#45;&gt;Node4</title>
<g id="a_edge3_Node000003_Node000004"><a xlink:title=" ">
<path fill="none" stroke="#63b8ff" d="M151.24,-143.87C129.09,-130.97 100.93,-114.56 80.99,-102.94"/>
<polygon fill="#63b8ff" stroke="#63b8ff" points="149.22,-146.75 159.63,-148.76 152.75,-140.7 149.22,-146.75"/>
</a>
</g>
</g>
<!-- Node5 -->
<g id="Node000005" class="node">
<title>Node5</title>
<g id="a_Node000005"><a xlink:href="sgui_8h.html" target="_top" xlink:title=" ">
<polygon fill="white" stroke="#666666" points="242,-102.62 130,-102.62 130,-72.12 242,-72.12 242,-102.62"/>
<text text-anchor="start" x="138" y="-89.12" font-family="Helvetica,sans-Serif" font-size="10.00">/github/workspace/src</text>
<text text-anchor="middle" x="186" y="-77.88" font-family="Helvetica,sans-Serif" font-size="10.00">/sgui/sgui.h</text>
</a>
</g>
</g>
<!-- Node3&#45;&gt;Node5 -->
<g id="edge4_Node000003_Node000005" class="edge">
<title>Node3&#45;&gt;Node5</title>
<g id="a_edge4_Node000003_Node000005"><a xlink:title=" ">
<path fill="none" stroke="#63b8ff" d="M186,-138.1C186,-126.34 186,-112.88 186,-102.94"/>
<polygon fill="#63b8ff" stroke="#63b8ff" points="182.5,-138.01 186,-148.01 189.5,-138.01 182.5,-138.01"/>
</a>
</g>
</g>
<!-- Node7 -->
<g id="Node000007" class="node">
<title>Node7</title>
<g id="a_Node000007"><a xlink:href="_load_lookup_table_8h.html" target="_top" xlink:title=" ">
<polygon fill="white" stroke="#666666" points="409.75,-108.25 260.25,-108.25 260.25,-66.5 409.75,-66.5 409.75,-108.25"/>
<text text-anchor="start" x="268.25" y="-94.75" font-family="Helvetica,sans-Serif" font-size="10.00">/github/workspace/src</text>
<text text-anchor="start" x="268.25" y="-83.5" font-family="Helvetica,sans-Serif" font-size="10.00">/sgui/Serialization/LoadLookup</text>
<text text-anchor="middle" x="335" y="-72.25" font-family="Helvetica,sans-Serif" font-size="10.00">Table.h</text>
</a>
</g>
</g>
<!-- Node6&#45;&gt;Node7 -->
<g id="edge6_Node000006_Node000007" class="edge">
<title>Node6&#45;&gt;Node7</title>
<g id="a_edge6_Node000006_Node000007"><a xlink:title=" ">
<path fill="none" stroke="#63b8ff" d="M332.09,-132.5C332.62,-124.46 333.17,-116.04 333.66,-108.73"/>
<polygon fill="#63b8ff" stroke="#63b8ff" points="328.61,-132.11 331.44,-142.32 335.59,-132.57 328.61,-132.11"/>
</a>
</g>
</g>
<!-- Node8 -->
<g id="Node000008" class="node">
<title>Node8</title>
<g id="a_Node000008"><a xlink:href="_text_container_8cpp.html" target="_top" xlink:title=" ">
<polygon fill="white" stroke="#666666" points="418.75,-30.5 251.25,-30.5 251.25,0 418.75,0 418.75,-30.5"/>
<text text-anchor="start" x="259.25" y="-17" font-family="Helvetica,sans-Serif" font-size="10.00">/github/workspace/src</text>
<text text-anchor="middle" x="335" y="-5.75" font-family="Helvetica,sans-Serif" font-size="10.00">/sgui/Resources/TextContainer.cpp</text>
</a>
</g>
</g>
<!-- Node7&#45;&gt;Node8 -->
<g id="edge7_Node000007_Node000008" class="edge">
<title>Node7&#45;&gt;Node8</title>
<g id="a_edge7_Node000007_Node000008"><a xlink:title=" ">
<path fill="none" stroke="#63b8ff" d="M335,-54.63C335,-46.27 335,-37.65 335,-30.7"/>
<polygon fill="#63b8ff" stroke="#63b8ff" points="331.5,-54.58 335,-64.58 338.5,-54.58 331.5,-54.58"/>
</a>
</g>
</g>
</g>
</svg>
