<?xml version="1.0" encoding="UTF-8" standalone="no"?>
<!DOCTYPE svg PUBLIC "-//W3C//DTD SVG 1.1//EN"
 "http://www.w3.org/Graphics/SVG/1.1/DTD/svg11.dtd">
<!-- Generated by graphviz version 12.2.1 (20241206.2353)
 -->
<!-- Title: /github/workspace/src/sgui/Core/ObjectPool.h Pages: 1 -->
<svg width="450pt" height="94pt"
 viewBox="0.00 0.00 449.50 93.75" xmlns="http://www.w3.org/2000/svg" xmlns:xlink="http://www.w3.org/1999/xlink">
<g id="graph0" class="graph" transform="scale(1 1) rotate(0) translate(4 89.75)">
<title>/github/workspace/src/sgui/Core/ObjectPool.h</title>
<!-- Node1 -->
<g id="Node000001" class="node">
<title>Node1</title>
<g id="a_Node000001"><a xlink:title=" ">
<polygon fill="#999999" stroke="#666666" points="219.88,-85.75 101.12,-85.75 101.12,-55.25 219.88,-55.25 219.88,-85.75"/>
<text text-anchor="start" x="109.12" y="-72.25" font-family="Helvetica,sans-Serif" font-size="10.00">/github/workspace/src</text>
<text text-anchor="middle" x="160.5" y="-61" font-family="Helvetica,sans-Serif" font-size="10.00">/sgui/Core/ObjectPool.h</text>
</a>
</g>
</g>
<!-- Node2 -->
<g id="Node000002" class="node">
<title>Node2</title>
<g id="a_Node000002"><a xlink:title=" ">
<polygon fill="#e0e0e0" stroke="#999999" points="43,-19.25 0,-19.25 0,0 43,0 43,-19.25"/>
<text text-anchor="middle" x="21.5" y="-5.75" font-family="Helvetica,sans-Serif" font-size="10.00">vector</text>
</a>
</g>
</g>
<!-- Node1&#45;&gt;Node2 -->
<g id="edge1_Node000001_Node000002" class="edge">
<title>Node1&#45;&gt;Node2</title>
<g id="a_edge1_Node000001_Node000002"><a xlink:title=" ">
<path fill="none" stroke="#63b8ff" d="M125.78,-54.8C103.5,-45.35 74.78,-33.19 53.12,-24.02"/>
<polygon fill="#63b8ff" stroke="#63b8ff" points="54.78,-20.92 44.21,-20.24 52.05,-27.37 54.78,-20.92"/>
</a>
</g>
</g>
<!-- Node3 -->
<g id="Node000003" class="node">
<title>Node3</title>
<g id="a_Node000003"><a xlink:title=" ">
<polygon fill="#e0e0e0" stroke="#999999" points="103.62,-19.25 61.38,-19.25 61.38,0 103.62,0 103.62,-19.25"/>
<text text-anchor="middle" x="82.5" y="-5.75" font-family="Helvetica,sans-Serif" font-size="10.00">mutex</text>
</a>
</g>
</g>
<!-- Node1&#45;&gt;Node3 -->
<g id="edge2_Node000001_Node000003" class="edge">
<title>Node1&#45;&gt;Node3</title>
<g id="a_edge2_Node000001_Node000003"><a xlink:title=" ">
<path fill="none" stroke="#63b8ff" d="M141.22,-54.95C129.8,-46.33 115.32,-35.4 103.6,-26.55"/>
<polygon fill="#63b8ff" stroke="#63b8ff" points="105.82,-23.84 95.73,-20.61 101.61,-29.43 105.82,-23.84"/>
</a>
</g>
</g>
<!-- Node4 -->
<g id="Node000004" class="node">
<title>Node4</title>
<g id="a_Node000004"><a xlink:title=" ">
<polygon fill="#e0e0e0" stroke="#999999" points="198.88,-19.25 122.12,-19.25 122.12,0 198.88,0 198.88,-19.25"/>
<text text-anchor="middle" x="160.5" y="-5.75" font-family="Helvetica,sans-Serif" font-size="10.00">shared_mutex</text>
</a>
</g>
</g>
<!-- Node1&#45;&gt;Node4 -->
<g id="edge3_Node000001_Node000004" class="edge">
<title>Node1&#45;&gt;Node4</title>
<g id="a_edge3_Node000001_Node000004"><a xlink:title=" ">
<path fill="none" stroke="#63b8ff" d="M160.5,-54.95C160.5,-47.71 160.5,-38.84 160.5,-30.94"/>
<polygon fill="#63b8ff" stroke="#63b8ff" points="164,-31.21 160.5,-21.21 157,-31.21 164,-31.21"/>
</a>
</g>
</g>
<!-- Node5 -->
<g id="Node000005" class="node">
<title>Node5</title>
<g id="a_Node000005"><a xlink:title=" ">
<polygon fill="#e0e0e0" stroke="#999999" points="299.88,-19.25 217.12,-19.25 217.12,0 299.88,0 299.88,-19.25"/>
<text text-anchor="middle" x="258.5" y="-5.75" font-family="Helvetica,sans-Serif" font-size="10.00">unordered_map</text>
</a>
</g>
</g>
<!-- Node1&#45;&gt;Node5 -->
<g id="edge4_Node000001_Node000005" class="edge">
<title>Node1&#45;&gt;Node5</title>
<g id="a_edge4_Node000001_Node000005"><a xlink:title=" ">
<path fill="none" stroke="#63b8ff" d="M184.98,-54.8C199.9,-45.83 218.92,-34.41 233.87,-25.42"/>
<polygon fill="#63b8ff" stroke="#63b8ff" points="235.4,-28.58 242.17,-20.43 231.8,-22.58 235.4,-28.58"/>
</a>
</g>
</g>
<!-- Node6 -->
<g id="Node000006" class="node">
<title>Node6</title>
<g id="a_Node000006"><a xlink:href="_object_pool_8tpp.html" target="_top" xlink:title=" ">
<polygon fill="white" stroke="#666666" points="441.5,-19.25 317.5,-19.25 317.5,0 441.5,0 441.5,-19.25"/>
<text text-anchor="middle" x="379.5" y="-5.75" font-family="Helvetica,sans-Serif" font-size="10.00">sgui/Core/ObjectPool.tpp</text>
</a>
</g>
</g>
<!-- Node1&#45;&gt;Node6 -->
<g id="edge5_Node000001_Node000006" class="edge">
<title>Node1&#45;&gt;Node6</title>
<g id="a_edge5_Node000001_Node000006"><a xlink:title=" ">
<path fill="none" stroke="#63b8ff" d="M215.2,-54.8C252.12,-44.87 300.25,-31.93 334.86,-22.63"/>
<polygon fill="#63b8ff" stroke="#63b8ff" points="335.38,-26.11 344.13,-20.13 333.56,-19.35 335.38,-26.11"/>
</a>
</g>
</g>
</g>
</svg>
