<?xml version="1.0" encoding="UTF-8" standalone="no"?>
<!DOCTYPE svg PUBLIC "-//W3C//DTD SVG 1.1//EN"
 "http://www.w3.org/Graphics/SVG/1.1/DTD/svg11.dtd">
<!-- Generated by graphviz version 12.2.1 (20241206.2353)
 -->
<!-- Title: /github/workspace/src/sgui/Widgets/Options.h Pages: 1 -->
<svg width="449pt" height="149pt"
 viewBox="0.00 0.00 449.25 149.00" xmlns="http://www.w3.org/2000/svg" xmlns:xlink="http://www.w3.org/1999/xlink">
<g id="graph0" class="graph" transform="scale(1 1) rotate(0) translate(4 145)">
<title>/github/workspace/src/sgui/Widgets/Options.h</title>
<!-- Node1 -->
<g id="Node000001" class="node">
<title>Node1</title>
<g id="a_Node000001"><a xlink:title=" ">
<polygon fill="#999999" stroke="#666666" points="175.62,-141 56.13,-141 56.13,-110.5 175.62,-110.5 175.62,-141"/>
<text text-anchor="start" x="64.12" y="-127.5" font-family="Helvetica,sans-Serif" font-size="10.00">/github/workspace/src</text>
<text text-anchor="middle" x="115.88" y="-116.25" font-family="Helvetica,sans-Serif" font-size="10.00">/sgui/Widgets/Options.h</text>
</a>
</g>
</g>
<!-- Node2 -->
<g id="Node000002" class="node">
<title>Node2</title>
<g id="a_Node000002"><a xlink:title=" ">
<polygon fill="#e0e0e0" stroke="#999999" points="133.75,-19.25 0,-19.25 0,0 133.75,0 133.75,-19.25"/>
<text text-anchor="middle" x="66.88" y="-5.75" font-family="Helvetica,sans-Serif" font-size="10.00">SFML/System/Vector2.hpp</text>
</a>
</g>
</g>
<!-- Node1&#45;&gt;Node2 -->
<g id="edge1_Node000001_Node000002" class="edge">
<title>Node1&#45;&gt;Node2</title>
<g id="a_edge1_Node000001_Node000002"><a xlink:title=" ">
<path fill="none" stroke="#63b8ff" d="M80.01,-110.07C65.08,-101.95 49.29,-90.26 40.88,-74.5 32.88,-59.52 41.73,-41.53 51.21,-28.46"/>
<polygon fill="#63b8ff" stroke="#63b8ff" points="53.86,-30.75 57.37,-20.75 48.39,-26.38 53.86,-30.75"/>
</a>
</g>
</g>
<!-- Node3 -->
<g id="Node000003" class="node">
<title>Node3</title>
<g id="a_Node000003"><a xlink:href="_constraints_8h.html" target="_top" xlink:title=" ">
<polygon fill="white" stroke="#666666" points="182,-74.5 49.75,-74.5 49.75,-55.25 182,-55.25 182,-74.5"/>
<text text-anchor="middle" x="115.88" y="-61" font-family="Helvetica,sans-Serif" font-size="10.00">sgui/Widgets/Constraints.h</text>
</a>
</g>
</g>
<!-- Node1&#45;&gt;Node3 -->
<g id="edge2_Node000001_Node000003" class="edge">
<title>Node1&#45;&gt;Node3</title>
<g id="a_edge2_Node000001_Node000003"><a xlink:title=" ">
<path fill="none" stroke="#63b8ff" d="M115.88,-110.2C115.88,-102.96 115.88,-94.09 115.88,-86.19"/>
<polygon fill="#63b8ff" stroke="#63b8ff" points="119.38,-86.46 115.88,-76.46 112.38,-86.46 119.38,-86.46"/>
</a>
</g>
</g>
<!-- Node4 -->
<g id="Node000004" class="node">
<title>Node4</title>
<g id="a_Node000004"><a xlink:href="_aspect_8h.html" target="_top" xlink:title=" ">
<polygon fill="white" stroke="#666666" points="313.62,-74.5 200.12,-74.5 200.12,-55.25 313.62,-55.25 313.62,-74.5"/>
<text text-anchor="middle" x="256.88" y="-61" font-family="Helvetica,sans-Serif" font-size="10.00">sgui/Widgets/Aspect.h</text>
</a>
</g>
</g>
<!-- Node1&#45;&gt;Node4 -->
<g id="edge4_Node000001_Node000004" class="edge">
<title>Node1&#45;&gt;Node4</title>
<g id="a_edge4_Node000001_Node000004"><a xlink:title=" ">
<path fill="none" stroke="#63b8ff" d="M151.09,-110.05C173.7,-100.6 202.83,-88.44 224.8,-79.27"/>
<polygon fill="#63b8ff" stroke="#63b8ff" points="225.98,-82.57 233.85,-75.49 223.28,-76.11 225.98,-82.57"/>
</a>
</g>
</g>
<!-- Node3&#45;&gt;Node2 -->
<g id="edge3_Node000003_Node000002" class="edge">
<title>Node3&#45;&gt;Node2</title>
<g id="a_edge3_Node000003_Node000002"><a xlink:title=" ">
<path fill="none" stroke="#63b8ff" d="M107.78,-55.08C101.02,-47.73 91.15,-37.01 82.81,-27.94"/>
<polygon fill="#63b8ff" stroke="#63b8ff" points="85.51,-25.71 76.17,-20.72 80.36,-30.45 85.51,-25.71"/>
</a>
</g>
</g>
<!-- Node5 -->
<g id="Node000005" class="node">
<title>Node5</title>
<g id="a_Node000005"><a xlink:href="_widgets_8h.html" target="_top" xlink:title=" ">
<polygon fill="white" stroke="#666666" points="292.88,-19.25 174.88,-19.25 174.88,0 292.88,0 292.88,-19.25"/>
<text text-anchor="middle" x="233.88" y="-5.75" font-family="Helvetica,sans-Serif" font-size="10.00">sgui/Widgets/Widgets.h</text>
</a>
</g>
</g>
<!-- Node4&#45;&gt;Node5 -->
<g id="edge5_Node000004_Node000005" class="edge">
<title>Node4&#45;&gt;Node5</title>
<g id="a_edge5_Node000004_Node000005"><a xlink:title=" ">
<path fill="none" stroke="#63b8ff" d="M253.08,-55.08C250.13,-48.26 245.94,-38.56 242.22,-29.95"/>
<polygon fill="#63b8ff" stroke="#63b8ff" points="245.53,-28.79 238.36,-21 239.11,-31.57 245.53,-28.79"/>
</a>
</g>
</g>
<!-- Node6 -->
<g id="Node000006" class="node">
<title>Node6</title>
<g id="a_Node000006"><a xlink:href="_item_states_8h.html" target="_top" xlink:title=" ">
<polygon fill="white" stroke="#666666" points="441.25,-19.25 310.5,-19.25 310.5,0 441.25,0 441.25,-19.25"/>
<text text-anchor="middle" x="375.88" y="-5.75" font-family="Helvetica,sans-Serif" font-size="10.00">sgui/Widgets/ItemStates.h</text>
</a>
</g>
</g>
<!-- Node4&#45;&gt;Node6 -->
<g id="edge6_Node000004_Node000006" class="edge">
<title>Node4&#45;&gt;Node6</title>
<g id="a_edge6_Node000004_Node000006"><a xlink:title=" ">
<path fill="none" stroke="#63b8ff" d="M277.06,-54.84C295.78,-46.47 323.9,-33.88 345.36,-24.28"/>
<polygon fill="#63b8ff" stroke="#63b8ff" points="346.51,-27.6 354.21,-20.32 343.65,-21.21 346.51,-27.6"/>
</a>
</g>
</g>
</g>
</svg>
