<?xml version="1.0" encoding="UTF-8" standalone="no"?>
<!DOCTYPE svg PUBLIC "-//W3C//DTD SVG 1.1//EN"
 "http://www.w3.org/Graphics/SVG/1.1/DTD/svg11.dtd">
<!-- Generated by graphviz version 12.2.1 (20241206.2353)
 -->
<!-- Title: /github/workspace/src/sgui/Widgets/Options.h Pages: 1 -->
<svg width="484pt" height="149pt"
 viewBox="0.00 0.00 484.25 149.00" xmlns="http://www.w3.org/2000/svg" xmlns:xlink="http://www.w3.org/1999/xlink">
<g id="graph0" class="graph" transform="scale(1 1) rotate(0) translate(4 145)">
<title>/github/workspace/src/sgui/Widgets/Options.h</title>
<!-- Node1 -->
<g id="Node000001" class="node">
<title>Node1</title>
<g id="a_Node000001"><a xlink:title=" ">
<polygon fill="#999999" stroke="#666666" points="226.62,-141 107.12,-141 107.12,-110.5 226.62,-110.5 226.62,-141"/>
<text text-anchor="start" x="115.12" y="-127.5" font-family="Helvetica,sans-Serif" font-size="10.00">/github/workspace/src</text>
<text text-anchor="middle" x="166.88" y="-116.25" font-family="Helvetica,sans-Serif" font-size="10.00">/sgui/Widgets/Options.h</text>
</a>
</g>
</g>
<!-- Node2 -->
<g id="Node000002" class="node">
<title>Node2</title>
<g id="a_Node000002"><a xlink:href="_constraints_8h.html" target="_top" xlink:title=" ">
<polygon fill="white" stroke="#666666" points="163,-74.5 30.75,-74.5 30.75,-55.25 163,-55.25 163,-74.5"/>
<text text-anchor="middle" x="96.88" y="-61" font-family="Helvetica,sans-Serif" font-size="10.00">sgui/Widgets/Constraints.h</text>
</a>
</g>
</g>
<!-- Node1&#45;&gt;Node2 -->
<g id="edge1_Node000001_Node000002" class="edge">
<title>Node1&#45;&gt;Node2</title>
<g id="a_edge1_Node000001_Node000002"><a xlink:title=" ">
<path fill="none" stroke="#63b8ff" d="M149.57,-110.2C139.53,-101.75 126.85,-91.08 116.44,-82.33"/>
<polygon fill="#63b8ff" stroke="#63b8ff" points="118.73,-79.68 108.82,-75.93 114.22,-85.04 118.73,-79.68"/>
</a>
</g>
</g>
<!-- Node4 -->
<g id="Node000004" class="node">
<title>Node4</title>
<g id="a_Node000004"><a xlink:href="_aspect_8h.html" target="_top" xlink:title=" ">
<polygon fill="white" stroke="#666666" points="309.62,-74.5 196.12,-74.5 196.12,-55.25 309.62,-55.25 309.62,-74.5"/>
<text text-anchor="middle" x="252.88" y="-61" font-family="Helvetica,sans-Serif" font-size="10.00">sgui/Widgets/Aspect.h</text>
</a>
</g>
</g>
<!-- Node1&#45;&gt;Node4 -->
<g id="edge3_Node000001_Node000004" class="edge">
<title>Node1&#45;&gt;Node4</title>
<g id="a_edge3_Node000001_Node000004"><a xlink:title=" ">
<path fill="none" stroke="#63b8ff" d="M188.13,-110.2C200.98,-101.4 217.33,-90.21 230.39,-81.27"/>
<polygon fill="#63b8ff" stroke="#63b8ff" points="232.09,-84.34 238.37,-75.81 228.14,-78.57 232.09,-84.34"/>
</a>
</g>
</g>
<!-- Node3 -->
<g id="Node000003" class="node">
<title>Node3</title>
<g id="a_Node000003"><a xlink:title=" ">
<polygon fill="#e0e0e0" stroke="#999999" points="133.75,-19.25 0,-19.25 0,0 133.75,0 133.75,-19.25"/>
<text text-anchor="middle" x="66.88" y="-5.75" font-family="Helvetica,sans-Serif" font-size="10.00">SFML/System/Vector2.hpp</text>
</a>
</g>
</g>
<!-- Node2&#45;&gt;Node3 -->
<g id="edge2_Node000002_Node000003" class="edge">
<title>Node2&#45;&gt;Node3</title>
<g id="a_edge2_Node000002_Node000003"><a xlink:title=" ">
<path fill="none" stroke="#63b8ff" d="M91.92,-55.08C87.99,-48.11 82.36,-38.12 77.44,-29.37"/>
<polygon fill="#63b8ff" stroke="#63b8ff" points="80.64,-27.92 72.68,-20.93 74.54,-31.36 80.64,-27.92"/>
</a>
</g>
</g>
<!-- Node5 -->
<g id="Node000005" class="node">
<title>Node5</title>
<g id="a_Node000005"><a xlink:title=" ">
<polygon fill="#e0e0e0" stroke="#999999" points="191.88,-19.25 151.88,-19.25 151.88,0 191.88,0 191.88,-19.25"/>
<text text-anchor="middle" x="171.88" y="-5.75" font-family="Helvetica,sans-Serif" font-size="10.00">string</text>
</a>
</g>
</g>
<!-- Node4&#45;&gt;Node5 -->
<g id="edge4_Node000004_Node000005" class="edge">
<title>Node4&#45;&gt;Node5</title>
<g id="a_edge4_Node000004_Node000005"><a xlink:title=" ">
<path fill="none" stroke="#63b8ff" d="M239.13,-54.84C227.15,-46.96 209.5,-35.36 195.29,-26.02"/>
<polygon fill="#63b8ff" stroke="#63b8ff" points="197.23,-23.1 186.95,-20.53 193.38,-28.95 197.23,-23.1"/>
</a>
</g>
</g>
<!-- Node6 -->
<g id="Node000006" class="node">
<title>Node6</title>
<g id="a_Node000006"><a xlink:href="_widgets_8h.html" target="_top" xlink:title=" ">
<polygon fill="white" stroke="#666666" points="327.88,-19.25 209.88,-19.25 209.88,0 327.88,0 327.88,-19.25"/>
<text text-anchor="middle" x="268.88" y="-5.75" font-family="Helvetica,sans-Serif" font-size="10.00">sgui/Widgets/Widgets.h</text>
</a>
</g>
</g>
<!-- Node4&#45;&gt;Node6 -->
<g id="edge5_Node000004_Node000006" class="edge">
<title>Node4&#45;&gt;Node6</title>
<g id="a_edge5_Node000004_Node000006"><a xlink:title=" ">
<path fill="none" stroke="#63b8ff" d="M255.52,-55.08C257.52,-48.42 260.35,-38.99 262.89,-30.53"/>
<polygon fill="#63b8ff" stroke="#63b8ff" points="266.21,-31.64 265.74,-21.06 259.51,-29.63 266.21,-31.64"/>
</a>
</g>
</g>
<!-- Node7 -->
<g id="Node000007" class="node">
<title>Node7</title>
<g id="a_Node000007"><a xlink:href="_item_states_8h.html" target="_top" xlink:title=" ">
<polygon fill="white" stroke="#666666" points="476.25,-19.25 345.5,-19.25 345.5,0 476.25,0 476.25,-19.25"/>
<text text-anchor="middle" x="410.88" y="-5.75" font-family="Helvetica,sans-Serif" font-size="10.00">sgui/Widgets/ItemStates.h</text>
</a>
</g>
</g>
<!-- Node4&#45;&gt;Node7 -->
<g id="edge6_Node000004_Node000007" class="edge">
<title>Node4&#45;&gt;Node7</title>
<g id="a_edge6_Node000004_Node000007"><a xlink:title=" ">
<path fill="none" stroke="#63b8ff" d="M279.68,-54.84C305.33,-46.2 344.26,-33.07 373.06,-23.37"/>
<polygon fill="#63b8ff" stroke="#63b8ff" points="374.15,-26.7 382.51,-20.19 371.91,-20.06 374.15,-26.7"/>
</a>
</g>
</g>
</g>
</svg>
