<?xml version="1.0" encoding="UTF-8" standalone="no"?>
<!DOCTYPE svg PUBLIC "-//W3C//DTD SVG 1.1//EN"
 "http://www.w3.org/Graphics/SVG/1.1/DTD/svg11.dtd">
<!-- Generated by graphviz version 12.2.1 (20241206.2353)
 -->
<!-- Title: /github/workspace/src/sgui/Widgets/Options.h Pages: 1 -->
<svg width="472pt" height="149pt"
 viewBox="0.00 0.00 472.25 149.00" xmlns="http://www.w3.org/2000/svg" xmlns:xlink="http://www.w3.org/1999/xlink">
<g id="graph0" class="graph" transform="scale(1 1) rotate(0) translate(4 145)">
<title>/github/workspace/src/sgui/Widgets/Options.h</title>
<!-- Node1 -->
<g id="Node000001" class="node">
<title>Node1</title>
<g id="a_Node000001"><a xlink:title=" ">
<polygon fill="#999999" stroke="#666666" points="244.62,-141 125.12,-141 125.12,-110.5 244.62,-110.5 244.62,-141"/>
<text text-anchor="start" x="133.12" y="-127.5" font-family="Helvetica,sans-Serif" font-size="10.00">/github/workspace/src</text>
<text text-anchor="middle" x="184.88" y="-116.25" font-family="Helvetica,sans-Serif" font-size="10.00">/sgui/Widgets/Options.h</text>
</a>
</g>
</g>
<!-- Node2 -->
<g id="Node000002" class="node">
<title>Node2</title>
<g id="a_Node000002"><a xlink:title=" ">
<polygon fill="#e0e0e0" stroke="#999999" points="133.75,-19.25 0,-19.25 0,0 133.75,0 133.75,-19.25"/>
<text text-anchor="middle" x="66.88" y="-5.75" font-family="Helvetica,sans-Serif" font-size="10.00">SFML/System/Vector2.hpp</text>
</a>
</g>
</g>
<!-- Node1&#45;&gt;Node2 -->
<g id="edge1_Node000001_Node000002" class="edge">
<title>Node1&#45;&gt;Node2</title>
<g id="a_edge1_Node000001_Node000002"><a xlink:title=" ">
<path fill="none" stroke="#63b8ff" d="M124.97,-120.24C93.88,-114.5 58.41,-101.89 38.88,-74.5 28.59,-60.08 39.2,-41.29 50.18,-27.83"/>
<polygon fill="#63b8ff" stroke="#63b8ff" points="52.56,-30.41 56.59,-20.61 47.33,-25.77 52.56,-30.41"/>
</a>
</g>
</g>
<!-- Node3 -->
<g id="Node000003" class="node">
<title>Node3</title>
<g id="a_Node000003"><a xlink:href="_constraints_8h.html" target="_top" xlink:title=" ">
<polygon fill="white" stroke="#666666" points="180,-74.5 47.75,-74.5 47.75,-55.25 180,-55.25 180,-74.5"/>
<text text-anchor="middle" x="113.88" y="-61" font-family="Helvetica,sans-Serif" font-size="10.00">sgui/Widgets/Constraints.h</text>
</a>
</g>
</g>
<!-- Node1&#45;&gt;Node3 -->
<g id="edge2_Node000001_Node000003" class="edge">
<title>Node1&#45;&gt;Node3</title>
<g id="a_edge2_Node000001_Node000003"><a xlink:title=" ">
<path fill="none" stroke="#63b8ff" d="M167.32,-110.2C157.03,-101.66 144.01,-90.87 133.4,-82.06"/>
<polygon fill="#63b8ff" stroke="#63b8ff" points="135.92,-79.61 125.99,-75.92 131.45,-84.99 135.92,-79.61"/>
</a>
</g>
</g>
<!-- Node4 -->
<g id="Node000004" class="node">
<title>Node4</title>
<g id="a_Node000004"><a xlink:href="_widgets_8h.html" target="_top" xlink:title=" ">
<polygon fill="white" stroke="#666666" points="315.88,-74.5 197.88,-74.5 197.88,-55.25 315.88,-55.25 315.88,-74.5"/>
<text text-anchor="middle" x="256.88" y="-61" font-family="Helvetica,sans-Serif" font-size="10.00">sgui/Widgets/Widgets.h</text>
</a>
</g>
</g>
<!-- Node1&#45;&gt;Node4 -->
<g id="edge4_Node000001_Node000004" class="edge">
<title>Node1&#45;&gt;Node4</title>
<g id="a_edge4_Node000001_Node000004"><a xlink:title=" ">
<path fill="none" stroke="#63b8ff" d="M202.67,-110.2C213.11,-101.66 226.31,-90.87 237.08,-82.06"/>
<polygon fill="#63b8ff" stroke="#63b8ff" points="239.08,-84.95 244.6,-75.91 234.65,-79.53 239.08,-84.95"/>
</a>
</g>
</g>
<!-- Node5 -->
<g id="Node000005" class="node">
<title>Node5</title>
<g id="a_Node000005"><a xlink:href="_item_states_8h.html" target="_top" xlink:title=" ">
<polygon fill="white" stroke="#666666" points="464.25,-74.5 333.5,-74.5 333.5,-55.25 464.25,-55.25 464.25,-74.5"/>
<text text-anchor="middle" x="398.88" y="-61" font-family="Helvetica,sans-Serif" font-size="10.00">sgui/Widgets/ItemStates.h</text>
</a>
</g>
</g>
<!-- Node1&#45;&gt;Node5 -->
<g id="edge5_Node000001_Node000005" class="edge">
<title>Node1&#45;&gt;Node5</title>
<g id="a_edge5_Node000001_Node000005"><a xlink:title=" ">
<path fill="none" stroke="#63b8ff" d="M238.32,-110.05C274.25,-100.16 321.03,-87.29 354.82,-78"/>
<polygon fill="#63b8ff" stroke="#63b8ff" points="355.57,-81.42 364.28,-75.39 353.71,-74.67 355.57,-81.42"/>
</a>
</g>
</g>
<!-- Node3&#45;&gt;Node2 -->
<g id="edge3_Node000003_Node000002" class="edge">
<title>Node3&#45;&gt;Node2</title>
<g id="a_edge3_Node000003_Node000002"><a xlink:title=" ">
<path fill="none" stroke="#63b8ff" d="M106.11,-55.08C99.69,-47.8 90.36,-37.23 82.41,-28.23"/>
<polygon fill="#63b8ff" stroke="#63b8ff" points="85.05,-25.93 75.81,-20.74 79.8,-30.56 85.05,-25.93"/>
</a>
</g>
</g>
</g>
</svg>
