<?xml version="1.0" encoding="UTF-8" standalone="no"?>
<!DOCTYPE svg PUBLIC "-//W3C//DTD SVG 1.1//EN"
 "http://www.w3.org/Graphics/SVG/1.1/DTD/svg11.dtd">
<!-- Generated by graphviz version 12.2.1 (20241206.2353)
 -->
<!-- Title: /github/workspace/src/sgui/Widgets/Panel.h Pages: 1 -->
<svg width="635pt" height="204pt"
 viewBox="0.00 0.00 635.38 204.25" xmlns="http://www.w3.org/2000/svg" xmlns:xlink="http://www.w3.org/1999/xlink">
<g id="graph0" class="graph" transform="scale(1 1) rotate(0) translate(4 200.25)">
<title>/github/workspace/src/sgui/Widgets/Panel.h</title>
<!-- Node1 -->
<g id="Node000001" class="node">
<title>Node1</title>
<g id="a_Node000001"><a xlink:title=" ">
<polygon fill="#999999" stroke="#666666" points="200,-196.25 88,-196.25 88,-165.75 200,-165.75 200,-196.25"/>
<text text-anchor="start" x="96" y="-182.75" font-family="Helvetica,sans-Serif" font-size="10.00">/github/workspace/src</text>
<text text-anchor="middle" x="144" y="-171.5" font-family="Helvetica,sans-Serif" font-size="10.00">/sgui/Widgets/Panel.h</text>
</a>
</g>
</g>
<!-- Node2 -->
<g id="Node000002" class="node">
<title>Node2</title>
<g id="a_Node000002"><a xlink:title=" ">
<polygon fill="#e0e0e0" stroke="#999999" points="40,-129.75 0,-129.75 0,-110.5 40,-110.5 40,-129.75"/>
<text text-anchor="middle" x="20" y="-116.25" font-family="Helvetica,sans-Serif" font-size="10.00">string</text>
</a>
</g>
</g>
<!-- Node1&#45;&gt;Node2 -->
<g id="edge1_Node000001_Node000002" class="edge">
<title>Node1&#45;&gt;Node2</title>
<g id="a_edge1_Node000001_Node000002"><a xlink:title=" ">
<path fill="none" stroke="#63b8ff" d="M113.03,-165.3C93.51,-156.03 68.46,-144.13 49.27,-135.02"/>
<polygon fill="#63b8ff" stroke="#63b8ff" points="50.92,-131.93 40.38,-130.8 47.92,-138.25 50.92,-131.93"/>
</a>
</g>
</g>
<!-- Node3 -->
<g id="Node000003" class="node">
<title>Node3</title>
<g id="a_Node000003"><a xlink:title=" ">
<polygon fill="#e0e0e0" stroke="#999999" points="116,-129.75 58,-129.75 58,-110.5 116,-110.5 116,-129.75"/>
<text text-anchor="middle" x="87" y="-116.25" font-family="Helvetica,sans-Serif" font-size="10.00">functional</text>
</a>
</g>
</g>
<!-- Node1&#45;&gt;Node3 -->
<g id="edge2_Node000001_Node000003" class="edge">
<title>Node1&#45;&gt;Node3</title>
<g id="a_edge2_Node000001_Node000003"><a xlink:title=" ">
<path fill="none" stroke="#63b8ff" d="M129.91,-165.45C121.98,-157.26 112.04,-146.98 103.72,-138.39"/>
<polygon fill="#63b8ff" stroke="#63b8ff" points="106.31,-136.04 96.84,-131.29 101.28,-140.91 106.31,-136.04"/>
</a>
</g>
</g>
<!-- Node4 -->
<g id="Node000004" class="node">
<title>Node4</title>
<g id="a_Node000004"><a xlink:title=" ">
<polygon fill="#e0e0e0" stroke="#999999" points="297.88,-19.25 164.12,-19.25 164.12,0 297.88,0 297.88,-19.25"/>
<text text-anchor="middle" x="231" y="-5.75" font-family="Helvetica,sans-Serif" font-size="10.00">SFML/System/Vector2.hpp</text>
</a>
</g>
</g>
<!-- Node1&#45;&gt;Node4 -->
<g id="edge3_Node000001_Node000004" class="edge">
<title>Node1&#45;&gt;Node4</title>
<g id="a_edge3_Node000001_Node000004"><a xlink:title=" ">
<path fill="none" stroke="#63b8ff" d="M146.53,-165.41C149.36,-151 154.67,-128.56 163,-110.5 177.29,-79.52 200.87,-47.59 216.17,-28.42"/>
<polygon fill="#63b8ff" stroke="#63b8ff" points="218.77,-30.78 222.37,-20.81 213.34,-26.36 218.77,-30.78"/>
</a>
</g>
</g>
<!-- Node5 -->
<g id="Node000005" class="node">
<title>Node5</title>
<g id="a_Node000005"><a xlink:title=" ">
<polygon fill="#e0e0e0" stroke="#999999" points="298.12,-129.75 171.88,-129.75 171.88,-110.5 298.12,-110.5 298.12,-129.75"/>
<text text-anchor="middle" x="235" y="-116.25" font-family="Helvetica,sans-Serif" font-size="10.00">SFML/Graphics/Rect.hpp</text>
</a>
</g>
</g>
<!-- Node1&#45;&gt;Node5 -->
<g id="edge4_Node000001_Node000005" class="edge">
<title>Node1&#45;&gt;Node5</title>
<g id="a_edge4_Node000001_Node000005"><a xlink:title=" ">
<path fill="none" stroke="#63b8ff" d="M166.49,-165.45C180.22,-156.57 197.73,-145.24 211.61,-136.26"/>
<polygon fill="#63b8ff" stroke="#63b8ff" points="213.21,-139.39 219.7,-131.02 209.4,-133.52 213.21,-139.39"/>
</a>
</g>
</g>
<!-- Node6 -->
<g id="Node000006" class="node">
<title>Node6</title>
<g id="a_Node000006"><a xlink:href="_options_8h.html" target="_top" xlink:title=" ">
<polygon fill="white" stroke="#666666" points="432.25,-129.75 315.75,-129.75 315.75,-110.5 432.25,-110.5 432.25,-129.75"/>
<text text-anchor="middle" x="374" y="-116.25" font-family="Helvetica,sans-Serif" font-size="10.00">sgui/Widgets/Options.h</text>
</a>
</g>
</g>
<!-- Node1&#45;&gt;Node6 -->
<g id="edge5_Node000001_Node000006" class="edge">
<title>Node1&#45;&gt;Node6</title>
<g id="a_edge5_Node000001_Node000006"><a xlink:title=" ">
<path fill="none" stroke="#63b8ff" d="M200.26,-165.6C239.31,-155.6 290.71,-142.44 327.46,-133.04"/>
<polygon fill="#63b8ff" stroke="#63b8ff" points="328.07,-136.49 336.89,-130.62 326.34,-129.71 328.07,-136.49"/>
</a>
</g>
</g>
<!-- Node6&#45;&gt;Node4 -->
<g id="edge6_Node000006_Node000004" class="edge">
<title>Node6&#45;&gt;Node4</title>
<g id="a_edge6_Node000006_Node000004"><a xlink:title=" ">
<path fill="none" stroke="#63b8ff" d="M316.19,-110.07C292.84,-103.7 267.37,-92.87 250,-74.5 238.93,-62.78 234.28,-44.9 232.34,-31.03"/>
<polygon fill="#63b8ff" stroke="#63b8ff" points="235.84,-30.83 231.37,-21.22 228.87,-31.52 235.84,-30.83"/>
</a>
</g>
</g>
<!-- Node7 -->
<g id="Node000007" class="node">
<title>Node7</title>
<g id="a_Node000007"><a xlink:href="_constraints_8h.html" target="_top" xlink:title=" ">
<polygon fill="white" stroke="#666666" points="391.12,-74.5 258.88,-74.5 258.88,-55.25 391.12,-55.25 391.12,-74.5"/>
<text text-anchor="middle" x="325" y="-61" font-family="Helvetica,sans-Serif" font-size="10.00">sgui/Widgets/Constraints.h</text>
</a>
</g>
</g>
<!-- Node6&#45;&gt;Node7 -->
<g id="edge7_Node000006_Node000007" class="edge">
<title>Node6&#45;&gt;Node7</title>
<g id="a_edge7_Node000006_Node000007"><a xlink:title=" ">
<path fill="none" stroke="#63b8ff" d="M365.91,-110.33C359.14,-102.98 349.28,-92.26 340.94,-83.19"/>
<polygon fill="#63b8ff" stroke="#63b8ff" points="343.64,-80.96 334.29,-75.97 338.49,-85.7 343.64,-80.96"/>
</a>
</g>
</g>
<!-- Node8 -->
<g id="Node000008" class="node">
<title>Node8</title>
<g id="a_Node000008"><a xlink:href="_aspect_8h.html" target="_top" xlink:title=" ">
<polygon fill="white" stroke="#666666" points="522.75,-74.5 409.25,-74.5 409.25,-55.25 522.75,-55.25 522.75,-74.5"/>
<text text-anchor="middle" x="466" y="-61" font-family="Helvetica,sans-Serif" font-size="10.00">sgui/Widgets/Aspect.h</text>
</a>
</g>
</g>
<!-- Node6&#45;&gt;Node8 -->
<g id="edge9_Node000006_Node000008" class="edge">
<title>Node6&#45;&gt;Node8</title>
<g id="a_edge9_Node000006_Node000008"><a xlink:title=" ">
<path fill="none" stroke="#63b8ff" d="M389.61,-110.09C403.62,-101.98 424.43,-89.93 440.8,-80.46"/>
<polygon fill="#63b8ff" stroke="#63b8ff" points="442.11,-83.75 449.01,-75.71 438.6,-77.69 442.11,-83.75"/>
</a>
</g>
</g>
<!-- Node7&#45;&gt;Node4 -->
<g id="edge8_Node000007_Node000004" class="edge">
<title>Node7&#45;&gt;Node4</title>
<g id="a_edge8_Node000007_Node000004"><a xlink:title=" ">
<path fill="none" stroke="#63b8ff" d="M309.05,-54.84C294.74,-46.73 273.47,-34.68 256.75,-25.21"/>
<polygon fill="#63b8ff" stroke="#63b8ff" points="258.77,-22.33 248.34,-20.45 255.32,-28.42 258.77,-22.33"/>
</a>
</g>
</g>
<!-- Node9 -->
<g id="Node000009" class="node">
<title>Node9</title>
<g id="a_Node000009"><a xlink:href="_widgets_8h.html" target="_top" xlink:title=" ">
<polygon fill="white" stroke="#666666" points="479,-19.25 361,-19.25 361,0 479,0 479,-19.25"/>
<text text-anchor="middle" x="420" y="-5.75" font-family="Helvetica,sans-Serif" font-size="10.00">sgui/Widgets/Widgets.h</text>
</a>
</g>
</g>
<!-- Node8&#45;&gt;Node9 -->
<g id="edge10_Node000008_Node000009" class="edge">
<title>Node8&#45;&gt;Node9</title>
<g id="a_edge10_Node000008_Node000009"><a xlink:title=" ">
<path fill="none" stroke="#63b8ff" d="M458.4,-55.08C452.12,-47.8 442.99,-37.23 435.2,-28.23"/>
<polygon fill="#63b8ff" stroke="#63b8ff" points="437.94,-26.03 428.75,-20.75 432.64,-30.61 437.94,-26.03"/>
</a>
</g>
</g>
<!-- Node10 -->
<g id="Node000010" class="node">
<title>Node10</title>
<g id="a_Node000010"><a xlink:href="_item_states_8h.html" target="_top" xlink:title=" ">
<polygon fill="white" stroke="#666666" points="627.38,-19.25 496.62,-19.25 496.62,0 627.38,0 627.38,-19.25"/>
<text text-anchor="middle" x="562" y="-5.75" font-family="Helvetica,sans-Serif" font-size="10.00">sgui/Widgets/ItemStates.h</text>
</a>
</g>
</g>
<!-- Node8&#45;&gt;Node10 -->
<g id="edge11_Node000008_Node000010" class="edge">
<title>Node8&#45;&gt;Node10</title>
<g id="a_edge11_Node000008_Node000010"><a xlink:title=" ">
<path fill="none" stroke="#63b8ff" d="M482.29,-54.84C496.9,-46.73 518.63,-34.68 535.71,-25.21"/>
<polygon fill="#63b8ff" stroke="#63b8ff" points="537.26,-28.35 544.31,-20.44 533.87,-22.23 537.26,-28.35"/>
</a>
</g>
</g>
</g>
</svg>
