<?xml version="1.0" encoding="UTF-8" standalone="no"?>
<!DOCTYPE svg PUBLIC "-//W3C//DTD SVG 1.1//EN"
 "http://www.w3.org/Graphics/SVG/1.1/DTD/svg11.dtd">
<!-- Generated by graphviz version 12.2.1 (20241206.2353)
 -->
<!-- Title: /github/workspace/src/sgui/Widgets/Panel.h Pages: 1 -->
<svg width="651pt" height="261pt"
 viewBox="0.00 0.00 650.75 260.50" xmlns="http://www.w3.org/2000/svg" xmlns:xlink="http://www.w3.org/1999/xlink">
<g id="graph0" class="graph" transform="scale(1 1) rotate(0) translate(4 256.5)">
<title>/github/workspace/src/sgui/Widgets/Panel.h</title>
<!-- Node1 -->
<g id="Node000001" class="node">
<title>Node1</title>
<g id="a_Node000001"><a xlink:title=" ">
<polygon fill="#999999" stroke="#666666" points="381,-252.5 269,-252.5 269,-222 381,-222 381,-252.5"/>
<text text-anchor="start" x="277" y="-239" font-family="Helvetica,sans-Serif" font-size="10.00">/github/workspace/src</text>
<text text-anchor="middle" x="325" y="-227.75" font-family="Helvetica,sans-Serif" font-size="10.00">/sgui/Widgets/Panel.h</text>
</a>
</g>
</g>
<!-- Node2 -->
<g id="Node000002" class="node">
<title>Node2</title>
<g id="a_Node000002"><a xlink:href="_gui_8h.html" target="_top" xlink:title=" ">
<polygon fill="white" stroke="#666666" points="242,-186 130,-186 130,-155.5 242,-155.5 242,-186"/>
<text text-anchor="start" x="138" y="-172.5" font-family="Helvetica,sans-Serif" font-size="10.00">/github/workspace/src</text>
<text text-anchor="middle" x="186" y="-161.25" font-family="Helvetica,sans-Serif" font-size="10.00">/sgui/Gui.h</text>
</a>
</g>
</g>
<!-- Node1&#45;&gt;Node2 -->
<g id="edge1_Node000001_Node000002" class="edge">
<title>Node1&#45;&gt;Node2</title>
<g id="a_edge1_Node000001_Node000002"><a xlink:title=" ">
<path fill="none" stroke="#63b8ff" d="M283.15,-216.83C262.04,-207.03 236.85,-195.35 217.42,-186.33"/>
<polygon fill="#63b8ff" stroke="#63b8ff" points="281.54,-219.94 292.09,-220.98 284.49,-213.59 281.54,-219.94"/>
</a>
</g>
</g>
<!-- Node5 -->
<g id="Node000005" class="node">
<title>Node5</title>
<g id="a_Node000005"><a xlink:href="_layout_8h.html" target="_top" xlink:title=" ">
<polygon fill="white" stroke="#666666" points="388.12,-186 261.88,-186 261.88,-155.5 388.12,-155.5 388.12,-186"/>
<text text-anchor="start" x="269.88" y="-172.5" font-family="Helvetica,sans-Serif" font-size="10.00">/github/workspace/src</text>
<text text-anchor="middle" x="325" y="-161.25" font-family="Helvetica,sans-Serif" font-size="10.00">/sgui/Resources/Layout.h</text>
</a>
</g>
</g>
<!-- Node1&#45;&gt;Node5 -->
<g id="edge4_Node000001_Node000005" class="edge">
<title>Node1&#45;&gt;Node5</title>
<g id="a_edge4_Node000001_Node000005"><a xlink:title=" ">
<path fill="none" stroke="#63b8ff" d="M325,-210.31C325,-202.14 325,-193.41 325,-186.33"/>
<polygon fill="#63b8ff" stroke="#63b8ff" points="321.5,-210.1 325,-220.1 328.5,-210.1 321.5,-210.1"/>
</a>
</g>
</g>
<!-- Node7 -->
<g id="Node000007" class="node">
<title>Node7</title>
<g id="a_Node000007"><a xlink:href="_serialize_g_u_i_8h.html" target="_top" xlink:title=" ">
<polygon fill="white" stroke="#666666" points="547.12,-119.5 414.88,-119.5 414.88,-77.75 547.12,-77.75 547.12,-119.5"/>
<text text-anchor="start" x="422.88" y="-106" font-family="Helvetica,sans-Serif" font-size="10.00">/github/workspace/src</text>
<text text-anchor="start" x="422.88" y="-94.75" font-family="Helvetica,sans-Serif" font-size="10.00">/sgui/Serialization/Serialize</text>
<text text-anchor="middle" x="481" y="-83.5" font-family="Helvetica,sans-Serif" font-size="10.00">GUI.h</text>
</a>
</g>
</g>
<!-- Node1&#45;&gt;Node7 -->
<g id="edge11_Node000001_Node000007" class="edge">
<title>Node1&#45;&gt;Node7</title>
<g id="a_edge11_Node000001_Node000007"><a xlink:title=" ">
<path fill="none" stroke="#63b8ff" d="M357.51,-215.48C370.23,-206.87 384.69,-196.46 397,-186 421.55,-165.14 446.96,-138.12 463.31,-119.9"/>
<polygon fill="#63b8ff" stroke="#63b8ff" points="355.84,-212.39 349.45,-220.85 359.72,-218.22 355.84,-212.39"/>
</a>
</g>
</g>
<!-- Node3 -->
<g id="Node000003" class="node">
<title>Node3</title>
<g id="a_Node000003"><a xlink:href="_gui_8cpp.html" target="_top" xlink:title=" ">
<polygon fill="white" stroke="#666666" points="112,-113.88 0,-113.88 0,-83.38 112,-83.38 112,-113.88"/>
<text text-anchor="start" x="8" y="-100.38" font-family="Helvetica,sans-Serif" font-size="10.00">/github/workspace/src</text>
<text text-anchor="middle" x="56" y="-89.12" font-family="Helvetica,sans-Serif" font-size="10.00">/sgui/Gui.cpp</text>
</a>
</g>
</g>
<!-- Node2&#45;&gt;Node3 -->
<g id="edge2_Node000002_Node000003" class="edge">
<title>Node2&#45;&gt;Node3</title>
<g id="a_edge2_Node000002_Node000003"><a xlink:title=" ">
<path fill="none" stroke="#63b8ff" d="M148.62,-149.59C127.74,-138.32 102.19,-124.54 83.22,-114.31"/>
<polygon fill="#63b8ff" stroke="#63b8ff" points="146.95,-152.66 157.42,-154.33 150.28,-146.5 146.95,-152.66"/>
</a>
</g>
</g>
<!-- Node4 -->
<g id="Node000004" class="node">
<title>Node4</title>
<g id="a_Node000004"><a xlink:href="sgui_8h.html" target="_top" xlink:title=" ">
<polygon fill="white" stroke="#666666" points="242,-113.88 130,-113.88 130,-83.38 242,-83.38 242,-113.88"/>
<text text-anchor="start" x="138" y="-100.38" font-family="Helvetica,sans-Serif" font-size="10.00">/github/workspace/src</text>
<text text-anchor="middle" x="186" y="-89.12" font-family="Helvetica,sans-Serif" font-size="10.00">/sgui/sgui.h</text>
</a>
</g>
</g>
<!-- Node2&#45;&gt;Node4 -->
<g id="edge3_Node000002_Node000004" class="edge">
<title>Node2&#45;&gt;Node4</title>
<g id="a_edge3_Node000002_Node000004"><a xlink:title=" ">
<path fill="none" stroke="#63b8ff" d="M186,-143.77C186,-133.76 186,-122.69 186,-114.14"/>
<polygon fill="#63b8ff" stroke="#63b8ff" points="182.5,-143.71 186,-153.71 189.5,-143.71 182.5,-143.71"/>
</a>
</g>
</g>
<!-- Node5&#45;&gt;Node3 -->
<g id="edge5_Node000005_Node000003" class="edge">
<title>Node5&#45;&gt;Node3</title>
<g id="a_edge5_Node000005_Node000003"><a xlink:title=" ">
<path fill="none" stroke="#63b8ff" d="M250.62,-152.47C211.85,-143.2 163.72,-131.28 121,-119.5 115.2,-117.9 109.13,-116.15 103.13,-114.37"/>
<polygon fill="#63b8ff" stroke="#63b8ff" points="249.8,-155.88 260.34,-154.79 251.43,-149.07 249.8,-155.88"/>
</a>
</g>
</g>
<!-- Node5&#45;&gt;Node4 -->
<g id="edge10_Node000005_Node000004" class="edge">
<title>Node5&#45;&gt;Node4</title>
<g id="a_edge10_Node000005_Node000004"><a xlink:title=" ">
<path fill="none" stroke="#63b8ff" d="M285.64,-149.89C263.21,-138.57 235.57,-124.63 215.1,-114.31"/>
<polygon fill="#63b8ff" stroke="#63b8ff" points="284.01,-152.99 294.51,-154.37 287.16,-146.74 284.01,-152.99"/>
</a>
</g>
</g>
<!-- Node6 -->
<g id="Node000006" class="node">
<title>Node6</title>
<g id="a_Node000006"><a xlink:href="_layout_8cpp.html" target="_top" xlink:title=" ">
<polygon fill="white" stroke="#666666" points="396.38,-113.88 259.62,-113.88 259.62,-83.38 396.38,-83.38 396.38,-113.88"/>
<text text-anchor="start" x="267.62" y="-100.38" font-family="Helvetica,sans-Serif" font-size="10.00">/github/workspace/src</text>
<text text-anchor="middle" x="328" y="-89.12" font-family="Helvetica,sans-Serif" font-size="10.00">/sgui/Resources/Layout.cpp</text>
</a>
</g>
</g>
<!-- Node5&#45;&gt;Node6 -->
<g id="edge6_Node000005_Node000006" class="edge">
<title>Node5&#45;&gt;Node6</title>
<g id="a_edge6_Node000005_Node000006"><a xlink:title=" ">
<path fill="none" stroke="#63b8ff" d="M326.11,-143.77C326.54,-133.76 327.01,-122.69 327.38,-114.14"/>
<polygon fill="#63b8ff" stroke="#63b8ff" points="322.62,-143.57 325.69,-153.71 329.61,-143.87 322.62,-143.57"/>
</a>
</g>
</g>
<!-- Node5&#45;&gt;Node7 -->
<g id="edge7_Node000005_Node000007" class="edge">
<title>Node5&#45;&gt;Node7</title>
<g id="a_edge7_Node000005_Node000007"><a xlink:title=" ">
<path fill="none" stroke="#63b8ff" d="M367.99,-150.42C389.1,-140.93 414.53,-129.5 435.92,-119.89"/>
<polygon fill="#63b8ff" stroke="#63b8ff" points="366.77,-147.14 359.08,-154.43 369.64,-153.52 366.77,-147.14"/>
</a>
</g>
</g>
<!-- Node8 -->
<g id="Node000008" class="node">
<title>Node8</title>
<g id="a_Node000008"><a xlink:href="_load_layout_8cpp.html" target="_top" xlink:title=" ">
<polygon fill="white" stroke="#666666" points="475.25,-36.12 310.75,-36.12 310.75,-5.62 475.25,-5.62 475.25,-36.12"/>
<text text-anchor="start" x="318.75" y="-22.62" font-family="Helvetica,sans-Serif" font-size="10.00">/github/workspace/src</text>
<text text-anchor="middle" x="393" y="-11.38" font-family="Helvetica,sans-Serif" font-size="10.00">/sgui/Serialization/LoadLayout.cpp</text>
</a>
</g>
</g>
<!-- Node7&#45;&gt;Node8 -->
<g id="edge8_Node000007_Node000008" class="edge">
<title>Node7&#45;&gt;Node8</title>
<g id="a_edge8_Node000007_Node000008"><a xlink:title=" ">
<path fill="none" stroke="#63b8ff" d="M449.01,-70.09C435.79,-58.71 421.01,-45.98 409.95,-36.46"/>
<polygon fill="#63b8ff" stroke="#63b8ff" points="446.41,-72.47 456.27,-76.34 450.97,-67.16 446.41,-72.47"/>
</a>
</g>
</g>
<!-- Node9 -->
<g id="Node000009" class="node">
<title>Node9</title>
<g id="a_Node000009"><a xlink:href="_load_texture_atlas_8cpp.html" target="_top" xlink:title=" ">
<polygon fill="white" stroke="#666666" points="642.75,-41.75 493.25,-41.75 493.25,0 642.75,0 642.75,-41.75"/>
<text text-anchor="start" x="501.25" y="-28.25" font-family="Helvetica,sans-Serif" font-size="10.00">/github/workspace/src</text>
<text text-anchor="start" x="501.25" y="-17" font-family="Helvetica,sans-Serif" font-size="10.00">/sgui/Serialization/LoadTexture</text>
<text text-anchor="middle" x="568" y="-5.75" font-family="Helvetica,sans-Serif" font-size="10.00">Atlas.cpp</text>
</a>
</g>
</g>
<!-- Node7&#45;&gt;Node9 -->
<g id="edge9_Node000007_Node000009" class="edge">
<title>Node7&#45;&gt;Node9</title>
<g id="a_edge9_Node000007_Node000009"><a xlink:title=" ">
<path fill="none" stroke="#63b8ff" d="M512.86,-69.89C523.37,-60.73 534.86,-50.73 544.62,-42.23"/>
<polygon fill="#63b8ff" stroke="#63b8ff" points="510.7,-67.13 505.46,-76.33 515.3,-72.4 510.7,-67.13"/>
</a>
</g>
</g>
</g>
</svg>
