<?xml version="1.0" encoding="UTF-8" standalone="no"?>
<!DOCTYPE svg PUBLIC "-//W3C//DTD SVG 1.1//EN"
 "http://www.w3.org/Graphics/SVG/1.1/DTD/svg11.dtd">
<!-- Generated by graphviz version 12.2.1 (20241206.2353)
 -->
<!-- Title: /github/workspace/src/sgui/Widgets/Panel.h Pages: 1 -->
<svg width="484pt" height="204pt"
 viewBox="0.00 0.00 483.88 204.25" xmlns="http://www.w3.org/2000/svg" xmlns:xlink="http://www.w3.org/1999/xlink">
<g id="graph0" class="graph" transform="scale(1 1) rotate(0) translate(4 200.25)">
<title>/github/workspace/src/sgui/Widgets/Panel.h</title>
<!-- Node1 -->
<g id="Node000001" class="node">
<title>Node1</title>
<g id="a_Node000001"><a xlink:title=" ">
<polygon fill="#999999" stroke="#666666" points="188,-196.25 76,-196.25 76,-165.75 188,-165.75 188,-196.25"/>
<text text-anchor="start" x="84" y="-182.75" font-family="Helvetica,sans-Serif" font-size="10.00">/github/workspace/src</text>
<text text-anchor="middle" x="132" y="-171.5" font-family="Helvetica,sans-Serif" font-size="10.00">/sgui/Widgets/Panel.h</text>
</a>
</g>
</g>
<!-- Node2 -->
<g id="Node000002" class="node">
<title>Node2</title>
<g id="a_Node000002"><a xlink:title=" ">
<polygon fill="#e0e0e0" stroke="#999999" points="40,-19.25 0,-19.25 0,0 40,0 40,-19.25"/>
<text text-anchor="middle" x="20" y="-5.75" font-family="Helvetica,sans-Serif" font-size="10.00">string</text>
</a>
</g>
</g>
<!-- Node1&#45;&gt;Node2 -->
<g id="edge1_Node000001_Node000002" class="edge">
<title>Node1&#45;&gt;Node2</title>
<g id="a_edge1_Node000001_Node000002"><a xlink:title=" ">
<path fill="none" stroke="#63b8ff" d="M86.67,-165.46C69.15,-157.6 50.57,-146.07 39,-129.75 18.07,-100.23 16.74,-56.28 18.08,-30.84"/>
<polygon fill="#63b8ff" stroke="#63b8ff" points="21.55,-31.43 18.8,-21.19 14.57,-30.91 21.55,-31.43"/>
</a>
</g>
</g>
<!-- Node3 -->
<g id="Node000003" class="node">
<title>Node3</title>
<g id="a_Node000003"><a xlink:title=" ">
<polygon fill="#e0e0e0" stroke="#999999" points="106,-129.75 48,-129.75 48,-110.5 106,-110.5 106,-129.75"/>
<text text-anchor="middle" x="77" y="-116.25" font-family="Helvetica,sans-Serif" font-size="10.00">functional</text>
</a>
</g>
</g>
<!-- Node1&#45;&gt;Node3 -->
<g id="edge2_Node000001_Node000003" class="edge">
<title>Node1&#45;&gt;Node3</title>
<g id="a_edge2_Node000001_Node000003"><a xlink:title=" ">
<path fill="none" stroke="#63b8ff" d="M118.4,-165.45C110.76,-157.26 101.16,-146.98 93.13,-138.39"/>
<polygon fill="#63b8ff" stroke="#63b8ff" points="95.9,-136.23 86.51,-131.31 90.78,-141 95.9,-136.23"/>
</a>
</g>
</g>
<!-- Node4 -->
<g id="Node000004" class="node">
<title>Node4</title>
<g id="a_Node000004"><a xlink:title=" ">
<polygon fill="#e0e0e0" stroke="#999999" points="250.12,-129.75 123.88,-129.75 123.88,-110.5 250.12,-110.5 250.12,-129.75"/>
<text text-anchor="middle" x="187" y="-116.25" font-family="Helvetica,sans-Serif" font-size="10.00">SFML/Graphics/Rect.hpp</text>
</a>
</g>
</g>
<!-- Node1&#45;&gt;Node4 -->
<g id="edge3_Node000001_Node000004" class="edge">
<title>Node1&#45;&gt;Node4</title>
<g id="a_edge3_Node000001_Node000004"><a xlink:title=" ">
<path fill="none" stroke="#63b8ff" d="M145.6,-165.45C153.24,-157.26 162.84,-146.98 170.87,-138.39"/>
<polygon fill="#63b8ff" stroke="#63b8ff" points="173.22,-141 177.49,-131.31 168.1,-136.23 173.22,-141"/>
</a>
</g>
</g>
<!-- Node5 -->
<g id="Node000005" class="node">
<title>Node5</title>
<g id="a_Node000005"><a xlink:href="_options_8h.html" target="_top" xlink:title=" ">
<polygon fill="white" stroke="#666666" points="384.25,-129.75 267.75,-129.75 267.75,-110.5 384.25,-110.5 384.25,-129.75"/>
<text text-anchor="middle" x="326" y="-116.25" font-family="Helvetica,sans-Serif" font-size="10.00">sgui/Widgets/Options.h</text>
</a>
</g>
</g>
<!-- Node1&#45;&gt;Node5 -->
<g id="edge4_Node000001_Node000005" class="edge">
<title>Node1&#45;&gt;Node5</title>
<g id="a_edge4_Node000001_Node000005"><a xlink:title=" ">
<path fill="none" stroke="#63b8ff" d="M180.45,-165.3C212.74,-155.5 254.69,-142.77 285.26,-133.49"/>
<polygon fill="#63b8ff" stroke="#63b8ff" points="285.96,-136.93 294.51,-130.68 283.93,-130.24 285.96,-136.93"/>
</a>
</g>
</g>
<!-- Node6 -->
<g id="Node000006" class="node">
<title>Node6</title>
<g id="a_Node000006"><a xlink:href="_constraints_8h.html" target="_top" xlink:title=" ">
<polygon fill="white" stroke="#666666" points="433.12,-74.5 300.88,-74.5 300.88,-55.25 433.12,-55.25 433.12,-74.5"/>
<text text-anchor="middle" x="367" y="-61" font-family="Helvetica,sans-Serif" font-size="10.00">sgui/Widgets/Constraints.h</text>
</a>
</g>
</g>
<!-- Node5&#45;&gt;Node6 -->
<g id="edge5_Node000005_Node000006" class="edge">
<title>Node5&#45;&gt;Node6</title>
<g id="a_edge5_Node000005_Node000006"><a xlink:title=" ">
<path fill="none" stroke="#63b8ff" d="M332.77,-110.33C338.32,-103.13 346.34,-92.71 353.23,-83.76"/>
<polygon fill="#63b8ff" stroke="#63b8ff" points="355.83,-86.12 359.16,-76.06 350.29,-81.85 355.83,-86.12"/>
</a>
</g>
</g>
<!-- Node8 -->
<g id="Node000008" class="node">
<title>Node8</title>
<g id="a_Node000008"><a xlink:href="_aspect_8h.html" target="_top" xlink:title=" ">
<polygon fill="white" stroke="#666666" points="210.75,-74.5 97.25,-74.5 97.25,-55.25 210.75,-55.25 210.75,-74.5"/>
<text text-anchor="middle" x="154" y="-61" font-family="Helvetica,sans-Serif" font-size="10.00">sgui/Widgets/Aspect.h</text>
</a>
</g>
</g>
<!-- Node5&#45;&gt;Node8 -->
<g id="edge7_Node000005_Node000008" class="edge">
<title>Node5&#45;&gt;Node8</title>
<g id="a_edge7_Node000005_Node000008"><a xlink:title=" ">
<path fill="none" stroke="#63b8ff" d="M296.82,-110.09C268.53,-101.33 225.39,-87.98 193.92,-78.23"/>
<polygon fill="#63b8ff" stroke="#63b8ff" points="195.35,-75.01 184.77,-75.4 193.28,-81.7 195.35,-75.01"/>
</a>
</g>
</g>
<!-- Node7 -->
<g id="Node000007" class="node">
<title>Node7</title>
<g id="a_Node000007"><a xlink:title=" ">
<polygon fill="#e0e0e0" stroke="#999999" points="475.88,-19.25 342.12,-19.25 342.12,0 475.88,0 475.88,-19.25"/>
<text text-anchor="middle" x="409" y="-5.75" font-family="Helvetica,sans-Serif" font-size="10.00">SFML/System/Vector2.hpp</text>
</a>
</g>
</g>
<!-- Node6&#45;&gt;Node7 -->
<g id="edge6_Node000006_Node000007" class="edge">
<title>Node6&#45;&gt;Node7</title>
<g id="a_edge6_Node000006_Node000007"><a xlink:title=" ">
<path fill="none" stroke="#63b8ff" d="M373.94,-55.08C379.62,-47.88 387.84,-37.46 394.89,-28.51"/>
<polygon fill="#63b8ff" stroke="#63b8ff" points="397.53,-30.82 400.98,-20.8 392.04,-26.48 397.53,-30.82"/>
</a>
</g>
</g>
<!-- Node8&#45;&gt;Node2 -->
<g id="edge8_Node000008_Node000002" class="edge">
<title>Node8&#45;&gt;Node2</title>
<g id="a_edge8_Node000008_Node000002"><a xlink:title=" ">
<path fill="none" stroke="#63b8ff" d="M131.27,-54.84C109.12,-46.04 75.3,-32.6 50.76,-22.85"/>
<polygon fill="#63b8ff" stroke="#63b8ff" points="52.2,-19.66 41.62,-19.21 49.62,-26.16 52.2,-19.66"/>
</a>
</g>
</g>
<!-- Node9 -->
<g id="Node000009" class="node">
<title>Node9</title>
<g id="a_Node000009"><a xlink:href="_widgets_8h.html" target="_top" xlink:title=" ">
<polygon fill="white" stroke="#666666" points="324,-19.25 206,-19.25 206,0 324,0 324,-19.25"/>
<text text-anchor="middle" x="265" y="-5.75" font-family="Helvetica,sans-Serif" font-size="10.00">sgui/Widgets/Widgets.h</text>
</a>
</g>
</g>
<!-- Node8&#45;&gt;Node9 -->
<g id="edge9_Node000008_Node000009" class="edge">
<title>Node8&#45;&gt;Node9</title>
<g id="a_edge9_Node000008_Node000009"><a xlink:title=" ">
<path fill="none" stroke="#63b8ff" d="M172.83,-54.84C190.05,-46.58 215.8,-34.23 235.71,-24.68"/>
<polygon fill="#63b8ff" stroke="#63b8ff" points="237.21,-27.84 244.71,-20.36 234.18,-21.53 237.21,-27.84"/>
</a>
</g>
</g>
<!-- Node10 -->
<g id="Node000010" class="node">
<title>Node10</title>
<g id="a_Node000010"><a xlink:href="_item_states_8h.html" target="_top" xlink:title=" ">
<polygon fill="white" stroke="#666666" points="188.38,-19.25 57.62,-19.25 57.62,0 188.38,0 188.38,-19.25"/>
<text text-anchor="middle" x="123" y="-5.75" font-family="Helvetica,sans-Serif" font-size="10.00">sgui/Widgets/ItemStates.h</text>
</a>
</g>
</g>
<!-- Node8&#45;&gt;Node10 -->
<g id="edge10_Node000008_Node000010" class="edge">
<title>Node8&#45;&gt;Node10</title>
<g id="a_edge10_Node000008_Node000010"><a xlink:title=" ">
<path fill="none" stroke="#63b8ff" d="M148.88,-55.08C144.82,-48.11 139.01,-38.12 133.91,-29.37"/>
<polygon fill="#63b8ff" stroke="#63b8ff" points="137.05,-27.8 128.99,-20.92 131,-31.32 137.05,-27.8"/>
</a>
</g>
</g>
</g>
</svg>
