<?xml version="1.0" encoding="UTF-8" standalone="no"?>
<!DOCTYPE svg PUBLIC "-//W3C//DTD SVG 1.1//EN"
 "http://www.w3.org/Graphics/SVG/1.1/DTD/svg11.dtd">
<!-- Generated by graphviz version 12.2.1 (20241206.2353)
 -->
<!-- Title: /github/workspace/src/sgui/Render/Plotter.h Pages: 1 -->
<svg width="1088pt" height="271pt"
 viewBox="0.00 0.00 1087.50 270.75" xmlns="http://www.w3.org/2000/svg" xmlns:xlink="http://www.w3.org/1999/xlink">
<g id="graph0" class="graph" transform="scale(1 1) rotate(0) translate(4 266.75)">
<title>/github/workspace/src/sgui/Render/Plotter.h</title>
<!-- Node1 -->
<g id="Node000001" class="node">
<title>Node1</title>
<g id="a_Node000001"><a xlink:title=" ">
<polygon fill="#999999" stroke="#666666" points="307,-262.75 195,-262.75 195,-232.25 307,-232.25 307,-262.75"/>
<text text-anchor="start" x="203" y="-249.25" font-family="Helvetica,sans-Serif" font-size="10.00">/github/workspace/src</text>
<text text-anchor="middle" x="251" y="-238" font-family="Helvetica,sans-Serif" font-size="10.00">/sgui/Render/Plotter.h</text>
</a>
</g>
</g>
<!-- Node2 -->
<g id="Node000002" class="node">
<title>Node2</title>
<g id="a_Node000002"><a xlink:title=" ">
<polygon fill="#e0e0e0" stroke="#999999" points="58,-190.62 0,-190.62 0,-171.38 58,-171.38 58,-190.62"/>
<text text-anchor="middle" x="29" y="-177.12" font-family="Helvetica,sans-Serif" font-size="10.00">functional</text>
</a>
</g>
</g>
<!-- Node1&#45;&gt;Node2 -->
<g id="edge1_Node000001_Node000002" class="edge">
<title>Node1&#45;&gt;Node2</title>
<g id="a_edge1_Node000001_Node000002"><a xlink:title=" ">
<path fill="none" stroke="#63b8ff" d="M194.64,-232.55C158.02,-223.13 109.38,-209.95 67,-196.25 65.64,-195.81 64.26,-195.35 62.87,-194.88"/>
<polygon fill="#63b8ff" stroke="#63b8ff" points="64.21,-191.64 53.62,-191.59 61.87,-198.24 64.21,-191.64"/>
</a>
</g>
</g>
<!-- Node3 -->
<g id="Node000003" class="node">
<title>Node3</title>
<g id="a_Node000003"><a xlink:title=" ">
<polygon fill="#e0e0e0" stroke="#999999" points="240.25,-190.62 75.75,-190.62 75.75,-171.38 240.25,-171.38 240.25,-190.62"/>
<text text-anchor="middle" x="158" y="-177.12" font-family="Helvetica,sans-Serif" font-size="10.00">SFML/Graphics/RenderTarget.hpp</text>
</a>
</g>
</g>
<!-- Node1&#45;&gt;Node3 -->
<g id="edge2_Node000001_Node000003" class="edge">
<title>Node1&#45;&gt;Node3</title>
<g id="a_edge2_Node000001_Node000003"><a xlink:title=" ">
<path fill="none" stroke="#63b8ff" d="M229.9,-231.86C215.04,-221.56 195.19,-207.79 180.11,-197.33"/>
<polygon fill="#63b8ff" stroke="#63b8ff" points="182.45,-194.7 172.23,-191.87 178.46,-200.45 182.45,-194.7"/>
</a>
</g>
</g>
<!-- Node4 -->
<g id="Node000004" class="node">
<title>Node4</title>
<g id="a_Node000004"><a xlink:title=" ">
<polygon fill="#e0e0e0" stroke="#999999" points="429.62,-190.62 258.38,-190.62 258.38,-171.38 429.62,-171.38 429.62,-190.62"/>
<text text-anchor="middle" x="344" y="-177.12" font-family="Helvetica,sans-Serif" font-size="10.00">SFML/Graphics/RenderWindow.hpp</text>
</a>
</g>
</g>
<!-- Node1&#45;&gt;Node4 -->
<g id="edge3_Node000001_Node000004" class="edge">
<title>Node1&#45;&gt;Node4</title>
<g id="a_edge3_Node000001_Node000004"><a xlink:title=" ">
<path fill="none" stroke="#63b8ff" d="M272.1,-231.86C286.96,-221.56 306.81,-207.79 321.89,-197.33"/>
<polygon fill="#63b8ff" stroke="#63b8ff" points="323.54,-200.45 329.77,-191.87 319.55,-194.7 323.54,-200.45"/>
</a>
</g>
</g>
<!-- Node5 -->
<g id="Node000005" class="node">
<title>Node5</title>
<g id="a_Node000005"><a xlink:href="_primitive_shape_render_8h.html" target="_top" xlink:title=" ">
<polygon fill="white" stroke="#666666" points="584.38,-196.25 447.62,-196.25 447.62,-165.75 584.38,-165.75 584.38,-196.25"/>
<text text-anchor="start" x="455.62" y="-182.75" font-family="Helvetica,sans-Serif" font-size="10.00">sgui/Render/PrimitiveShape</text>
<text text-anchor="middle" x="516" y="-171.5" font-family="Helvetica,sans-Serif" font-size="10.00">Render.h</text>
</a>
</g>
</g>
<!-- Node1&#45;&gt;Node5 -->
<g id="edge4_Node000001_Node000005" class="edge">
<title>Node1&#45;&gt;Node5</title>
<g id="a_edge4_Node000001_Node000005"><a xlink:title=" ">
<path fill="none" stroke="#63b8ff" d="M307.2,-232.82C347.31,-223.06 401.58,-209.85 444.73,-199.35"/>
<polygon fill="#63b8ff" stroke="#63b8ff" points="445.37,-202.79 454.26,-197.03 443.72,-195.99 445.37,-202.79"/>
</a>
</g>
</g>
<!-- Node6 -->
<g id="Node000006" class="node">
<title>Node6</title>
<g id="a_Node000006"><a xlink:title=" ">
<polygon fill="#e0e0e0" stroke="#999999" points="153.25,-129.75 6.75,-129.75 6.75,-110.5 153.25,-110.5 153.25,-129.75"/>
<text text-anchor="middle" x="80" y="-116.25" font-family="Helvetica,sans-Serif" font-size="10.00">SFML/Graphics/Drawable.hpp</text>
</a>
</g>
</g>
<!-- Node5&#45;&gt;Node6 -->
<g id="edge5_Node000005_Node000006" class="edge">
<title>Node5&#45;&gt;Node6</title>
<g id="a_edge5_Node000005_Node000006"><a xlink:title=" ">
<path fill="none" stroke="#63b8ff" d="M447.19,-167.06C444.42,-166.6 441.69,-166.17 439,-165.75 345.62,-151.32 238,-138.44 165.13,-130.27"/>
<polygon fill="#63b8ff" stroke="#63b8ff" points="165.58,-126.8 155.25,-129.16 164.8,-133.75 165.58,-126.8"/>
</a>
</g>
</g>
<!-- Node7 -->
<g id="Node000007" class="node">
<title>Node7</title>
<g id="a_Node000007"><a xlink:title=" ">
<polygon fill="#e0e0e0" stroke="#999999" points="327.12,-129.75 170.88,-129.75 170.88,-110.5 327.12,-110.5 327.12,-129.75"/>
<text text-anchor="middle" x="249" y="-116.25" font-family="Helvetica,sans-Serif" font-size="10.00">SFML/Graphics/VertexArray.hpp</text>
</a>
</g>
</g>
<!-- Node5&#45;&gt;Node7 -->
<g id="edge6_Node000005_Node000007" class="edge">
<title>Node5&#45;&gt;Node7</title>
<g id="a_edge6_Node000005_Node000007"><a xlink:title=" ">
<path fill="none" stroke="#63b8ff" d="M449.31,-165.3C403.61,-155.22 343.84,-142.04 301.52,-132.71"/>
<polygon fill="#63b8ff" stroke="#63b8ff" points="302.34,-129.3 291.82,-130.57 300.83,-136.14 302.34,-129.3"/>
</a>
</g>
</g>
<!-- Node8 -->
<g id="Node000008" class="node">
<title>Node8</title>
<g id="a_Node000008"><a xlink:title=" ">
<polygon fill="#e0e0e0" stroke="#999999" points="513.12,-129.75 344.88,-129.75 344.88,-110.5 513.12,-110.5 513.12,-129.75"/>
<text text-anchor="middle" x="429" y="-116.25" font-family="Helvetica,sans-Serif" font-size="10.00">SFML/Graphics/Transformable.hpp</text>
</a>
</g>
</g>
<!-- Node5&#45;&gt;Node8 -->
<g id="edge7_Node000005_Node000008" class="edge">
<title>Node5&#45;&gt;Node8</title>
<g id="a_edge7_Node000005_Node000008"><a xlink:title=" ">
<path fill="none" stroke="#63b8ff" d="M494.49,-165.45C481.5,-156.65 464.96,-145.46 451.75,-136.52"/>
<polygon fill="#63b8ff" stroke="#63b8ff" points="453.91,-133.76 443.67,-131.05 449.99,-139.55 453.91,-133.76"/>
</a>
</g>
</g>
<!-- Node9 -->
<g id="Node000009" class="node">
<title>Node9</title>
<g id="a_Node000009"><a xlink:href="_clipping_layers_8h.html" target="_top" xlink:title=" ">
<polygon fill="white" stroke="#666666" points="673,-129.75 531,-129.75 531,-110.5 673,-110.5 673,-129.75"/>
<text text-anchor="middle" x="602" y="-116.25" font-family="Helvetica,sans-Serif" font-size="10.00">sgui/Render/ClippingLayers.h</text>
</a>
</g>
</g>
<!-- Node5&#45;&gt;Node9 -->
<g id="edge8_Node000005_Node000009" class="edge">
<title>Node5&#45;&gt;Node9</title>
<g id="a_edge8_Node000005_Node000009"><a xlink:title=" ">
<path fill="none" stroke="#63b8ff" d="M537.26,-165.45C550.1,-156.65 566.45,-145.46 579.51,-136.52"/>
<polygon fill="#63b8ff" stroke="#63b8ff" points="581.22,-139.59 587.49,-131.06 577.26,-133.82 581.22,-139.59"/>
</a>
</g>
</g>
<!-- Node14 -->
<g id="Node000014" class="node">
<title>Node14</title>
<g id="a_Node000014"><a xlink:href="_polygon_8h.html" target="_top" xlink:title=" ">
<polygon fill="white" stroke="#666666" points="847.12,-129.75 744.88,-129.75 744.88,-110.5 847.12,-110.5 847.12,-129.75"/>
<text text-anchor="middle" x="796" y="-116.25" font-family="Helvetica,sans-Serif" font-size="10.00">sgui/Core/Polygon.h</text>
</a>
</g>
</g>
<!-- Node5&#45;&gt;Node14 -->
<g id="edge13_Node000005_Node000014" class="edge">
<title>Node5&#45;&gt;Node14</title>
<g id="a_edge13_Node000005_Node000014"><a xlink:title=" ">
<path fill="none" stroke="#63b8ff" d="M584.85,-165.52C633.12,-155.37 696.74,-142 741.49,-132.59"/>
<polygon fill="#63b8ff" stroke="#63b8ff" points="742.18,-136.02 751.24,-130.54 740.74,-129.17 742.18,-136.02"/>
</a>
</g>
</g>
<!-- Node21 -->
<g id="Node000021" class="node">
<title>Node21</title>
<g id="a_Node000021"><a xlink:href="_primitive_shape_render_8tpp.html" target="_top" xlink:title=" ">
<polygon fill="white" stroke="#666666" points="993.25,-129.75 864.75,-129.75 864.75,-110.5 993.25,-110.5 993.25,-129.75"/>
<text text-anchor="middle" x="929" y="-116.25" font-family="Helvetica,sans-Serif" font-size="10.00">PrimitiveShapeRender.tpp</text>
</a>
</g>
</g>
<!-- Node5&#45;&gt;Node21 -->
<g id="edge21_Node000005_Node000021" class="edge">
<title>Node5&#45;&gt;Node21</title>
<g id="a_edge21_Node000005_Node000021"><a xlink:title=" ">
<path fill="none" stroke="#63b8ff" d="M584.66,-170.21C659.1,-159.6 777.52,-142.72 854.26,-131.78"/>
<polygon fill="#63b8ff" stroke="#63b8ff" points="854.36,-135.3 863.77,-130.42 853.38,-128.37 854.36,-135.3"/>
</a>
</g>
</g>
<!-- Node10 -->
<g id="Node000010" class="node">
<title>Node10</title>
<g id="a_Node000010"><a xlink:title=" ">
<polygon fill="#e0e0e0" stroke="#999999" points="580.5,-19.25 537.5,-19.25 537.5,0 580.5,0 580.5,-19.25"/>
<text text-anchor="middle" x="559" y="-5.75" font-family="Helvetica,sans-Serif" font-size="10.00">vector</text>
</a>
</g>
</g>
<!-- Node9&#45;&gt;Node10 -->
<g id="edge9_Node000009_Node000010" class="edge">
<title>Node9&#45;&gt;Node10</title>
<g id="a_edge9_Node000009_Node000010"><a xlink:title=" ">
<path fill="none" stroke="#63b8ff" d="M530.66,-111.57C483.17,-104.9 426.86,-93.26 412,-74.5 379.63,-33.64 473.35,-18.38 525.96,-13.13"/>
<polygon fill="#63b8ff" stroke="#63b8ff" points="525.97,-16.64 535.61,-12.24 525.33,-9.67 525.97,-16.64"/>
</a>
</g>
</g>
<!-- Node11 -->
<g id="Node000011" class="node">
<title>Node11</title>
<g id="a_Node000011"><a xlink:title=" ">
<polygon fill="#e0e0e0" stroke="#999999" points="466.62,-74.5 421.38,-74.5 421.38,-55.25 466.62,-55.25 466.62,-74.5"/>
<text text-anchor="middle" x="444" y="-61" font-family="Helvetica,sans-Serif" font-size="10.00">cstdint</text>
</a>
</g>
</g>
<!-- Node9&#45;&gt;Node11 -->
<g id="edge10_Node000009_Node000011" class="edge">
<title>Node9&#45;&gt;Node11</title>
<g id="a_edge10_Node000009_Node000011"><a xlink:title=" ">
<path fill="none" stroke="#63b8ff" d="M575.2,-110.09C548.3,-101.03 506.8,-87.04 477.7,-77.23"/>
<polygon fill="#63b8ff" stroke="#63b8ff" points="478.85,-73.93 468.26,-74.05 476.62,-80.56 478.85,-73.93"/>
</a>
</g>
</g>
<!-- Node12 -->
<g id="Node000012" class="node">
<title>Node12</title>
<g id="a_Node000012"><a xlink:title=" ">
<polygon fill="#e0e0e0" stroke="#999999" points="611.12,-74.5 484.88,-74.5 484.88,-55.25 611.12,-55.25 611.12,-74.5"/>
<text text-anchor="middle" x="548" y="-61" font-family="Helvetica,sans-Serif" font-size="10.00">SFML/Graphics/Rect.hpp</text>
</a>
</g>
</g>
<!-- Node9&#45;&gt;Node12 -->
<g id="edge11_Node000009_Node000012" class="edge">
<title>Node9&#45;&gt;Node12</title>
<g id="a_edge11_Node000009_Node000012"><a xlink:title=" ">
<path fill="none" stroke="#63b8ff" d="M593.08,-110.33C585.55,-102.9 574.53,-92.04 565.27,-82.91"/>
<polygon fill="#63b8ff" stroke="#63b8ff" points="567.77,-80.45 558.19,-75.92 562.85,-85.44 567.77,-80.45"/>
</a>
</g>
</g>
<!-- Node13 -->
<g id="Node000013" class="node">
<title>Node13</title>
<g id="a_Node000013"><a xlink:title=" ">
<polygon fill="#e0e0e0" stroke="#999999" points="756.88,-74.5 629.12,-74.5 629.12,-55.25 756.88,-55.25 756.88,-74.5"/>
<text text-anchor="middle" x="693" y="-61" font-family="Helvetica,sans-Serif" font-size="10.00">SFML/Graphics/View.hpp</text>
</a>
</g>
</g>
<!-- Node9&#45;&gt;Node13 -->
<g id="edge12_Node000009_Node000013" class="edge">
<title>Node9&#45;&gt;Node13</title>
<g id="a_edge12_Node000009_Node000013"><a xlink:title=" ">
<path fill="none" stroke="#63b8ff" d="M617.44,-110.09C631.16,-102.06 651.5,-90.16 667.62,-80.73"/>
<polygon fill="#63b8ff" stroke="#63b8ff" points="669.32,-83.79 676.18,-75.72 665.78,-77.75 669.32,-83.79"/>
</a>
</g>
</g>
<!-- Node15 -->
<g id="Node000015" class="node">
<title>Node15</title>
<g id="a_Node000015"><a xlink:title=" ">
<polygon fill="#e0e0e0" stroke="#999999" points="817.5,-74.5 774.5,-74.5 774.5,-55.25 817.5,-55.25 817.5,-74.5"/>
<text text-anchor="middle" x="796" y="-61" font-family="Helvetica,sans-Serif" font-size="10.00">cmath</text>
</a>
</g>
</g>
<!-- Node14&#45;&gt;Node15 -->
<g id="edge14_Node000014_Node000015" class="edge">
<title>Node14&#45;&gt;Node15</title>
<g id="a_edge14_Node000014_Node000015"><a xlink:title=" ">
<path fill="none" stroke="#63b8ff" d="M796,-110.33C796,-103.82 796,-94.67 796,-86.37"/>
<polygon fill="#63b8ff" stroke="#63b8ff" points="799.5,-86.37 796,-76.37 792.5,-86.37 799.5,-86.37"/>
</a>
</g>
</g>
<!-- Node16 -->
<g id="Node000016" class="node">
<title>Node16</title>
<g id="a_Node000016"><a xlink:href="_shapes_8h.html" target="_top" xlink:title=" ">
<polygon fill="white" stroke="#666666" points="936.38,-74.5 835.62,-74.5 835.62,-55.25 936.38,-55.25 936.38,-74.5"/>
<text text-anchor="middle" x="886" y="-61" font-family="Helvetica,sans-Serif" font-size="10.00">sgui/Core/Shapes.h</text>
</a>
</g>
</g>
<!-- Node14&#45;&gt;Node16 -->
<g id="edge15_Node000014_Node000016" class="edge">
<title>Node14&#45;&gt;Node16</title>
<g id="a_edge15_Node000014_Node000016"><a xlink:title=" ">
<path fill="none" stroke="#63b8ff" d="M811.27,-110.09C824.84,-102.06 844.95,-90.16 860.9,-80.73"/>
<polygon fill="#63b8ff" stroke="#63b8ff" points="862.53,-83.83 869.36,-75.72 858.97,-77.8 862.53,-83.83"/>
</a>
</g>
</g>
<!-- Node20 -->
<g id="Node000020" class="node">
<title>Node20</title>
<g id="a_Node000020"><a xlink:href="_polygon_8tpp.html" target="_top" xlink:title=" ">
<polygon fill="white" stroke="#666666" points="1065.25,-74.5 954.75,-74.5 954.75,-55.25 1065.25,-55.25 1065.25,-74.5"/>
<text text-anchor="middle" x="1010" y="-61" font-family="Helvetica,sans-Serif" font-size="10.00">sgui/Core/Polygon.tpp</text>
</a>
</g>
</g>
<!-- Node14&#45;&gt;Node20 -->
<g id="edge20_Node000014_Node000020" class="edge">
<title>Node14&#45;&gt;Node20</title>
<g id="a_edge20_Node000014_Node000020"><a xlink:title=" ">
<path fill="none" stroke="#63b8ff" d="M832.3,-110.09C868.12,-101.18 923.06,-87.51 962.37,-77.73"/>
<polygon fill="#63b8ff" stroke="#63b8ff" points="963.19,-81.13 972.05,-75.32 961.5,-74.34 963.19,-81.13"/>
</a>
</g>
</g>
<!-- Node16&#45;&gt;Node10 -->
<g id="edge17_Node000016_Node000010" class="edge">
<title>Node16&#45;&gt;Node10</title>
<g id="a_edge17_Node000016_Node000010"><a xlink:title=" ">
<path fill="none" stroke="#63b8ff" d="M835.27,-55.61C767.44,-44.57 649.12,-25.3 591.88,-15.98"/>
<polygon fill="#63b8ff" stroke="#63b8ff" points="592.56,-12.54 582.13,-14.39 591.44,-19.45 592.56,-12.54"/>
</a>
</g>
</g>
<!-- Node17 -->
<g id="Node000017" class="node">
<title>Node17</title>
<g id="a_Node000017"><a xlink:title=" ">
<polygon fill="#e0e0e0" stroke="#999999" points="801.5,-19.25 764.5,-19.25 764.5,0 801.5,0 801.5,-19.25"/>
<text text-anchor="middle" x="783" y="-5.75" font-family="Helvetica,sans-Serif" font-size="10.00">array</text>
</a>
</g>
</g>
<!-- Node16&#45;&gt;Node17 -->
<g id="edge16_Node000016_Node000017" class="edge">
<title>Node16&#45;&gt;Node17</title>
<g id="a_edge16_Node000016_Node000017"><a xlink:title=" ">
<path fill="none" stroke="#63b8ff" d="M868.53,-54.84C852.69,-46.66 829.09,-34.46 810.69,-24.94"/>
<polygon fill="#63b8ff" stroke="#63b8ff" points="812.39,-21.88 801.9,-20.4 809.18,-28.1 812.39,-21.88"/>
</a>
</g>
</g>
<!-- Node18 -->
<g id="Node000018" class="node">
<title>Node18</title>
<g id="a_Node000018"><a xlink:title=" ">
<polygon fill="#e0e0e0" stroke="#999999" points="952.88,-19.25 819.12,-19.25 819.12,0 952.88,0 952.88,-19.25"/>
<text text-anchor="middle" x="886" y="-5.75" font-family="Helvetica,sans-Serif" font-size="10.00">SFML/System/Vector2.hpp</text>
</a>
</g>
</g>
<!-- Node16&#45;&gt;Node18 -->
<g id="edge18_Node000016_Node000018" class="edge">
<title>Node16&#45;&gt;Node18</title>
<g id="a_edge18_Node000016_Node000018"><a xlink:title=" ">
<path fill="none" stroke="#63b8ff" d="M886,-55.08C886,-48.57 886,-39.42 886,-31.12"/>
<polygon fill="#63b8ff" stroke="#63b8ff" points="889.5,-31.12 886,-21.12 882.5,-31.12 889.5,-31.12"/>
</a>
</g>
</g>
<!-- Node19 -->
<g id="Node000019" class="node">
<title>Node19</title>
<g id="a_Node000019"><a xlink:href="_shapes_8tpp.html" target="_top" xlink:title=" ">
<polygon fill="white" stroke="#666666" points="1079.5,-19.25 970.5,-19.25 970.5,0 1079.5,0 1079.5,-19.25"/>
<text text-anchor="middle" x="1025" y="-5.75" font-family="Helvetica,sans-Serif" font-size="10.00">sgui/Core/Shapes.tpp</text>
</a>
</g>
</g>
<!-- Node16&#45;&gt;Node19 -->
<g id="edge19_Node000016_Node000019" class="edge">
<title>Node16&#45;&gt;Node19</title>
<g id="a_edge19_Node000016_Node000019"><a xlink:title=" ">
<path fill="none" stroke="#63b8ff" d="M909.58,-54.84C931.84,-46.31 965.49,-33.42 990.72,-23.76"/>
<polygon fill="#63b8ff" stroke="#63b8ff" points="991.81,-27.09 999.89,-20.24 989.3,-20.55 991.81,-27.09"/>
</a>
</g>
</g>
</g>
</svg>
