<?xml version="1.0" encoding="UTF-8" standalone="no"?>
<!DOCTYPE svg PUBLIC "-//W3C//DTD SVG 1.1//EN"
 "http://www.w3.org/Graphics/SVG/1.1/DTD/svg11.dtd">
<!-- Generated by graphviz version 12.2.1 (20241206.2353)
 -->
<!-- Title: /github/workspace/src/sgui/Render/Plotter.cpp Pages: 1 -->
<svg width="1382pt" height="326pt"
 viewBox="0.00 0.00 1381.79 326.00" xmlns="http://www.w3.org/2000/svg" xmlns:xlink="http://www.w3.org/1999/xlink">
<g id="graph0" class="graph" transform="scale(1 1) rotate(0) translate(4 322)">
<title>/github/workspace/src/sgui/Render/Plotter.cpp</title>
<!-- Node1 -->
<g id="Node000001" class="node">
<title>Node1</title>
<g id="a_Node000001"><a xlink:title=" ">
<polygon fill="#999999" stroke="#666666" points="1106.29,-318 986.04,-318 986.04,-287.5 1106.29,-287.5 1106.29,-318"/>
<text text-anchor="start" x="994.04" y="-304.5" font-family="Helvetica,sans-Serif" font-size="10.00">/github/workspace/src</text>
<text text-anchor="middle" x="1046.17" y="-293.25" font-family="Helvetica,sans-Serif" font-size="10.00">/sgui/Render/Plotter.cpp</text>
</a>
</g>
</g>
<!-- Node2 -->
<g id="Node000002" class="node">
<title>Node2</title>
<g id="a_Node000002"><a xlink:href="_plotter_8h.html" target="_top" xlink:title=" ">
<polygon fill="white" stroke="#666666" points="949.54,-251.5 842.79,-251.5 842.79,-232.25 949.54,-232.25 949.54,-251.5"/>
<text text-anchor="middle" x="896.17" y="-238" font-family="Helvetica,sans-Serif" font-size="10.00">sgui/Render/Plotter.h</text>
</a>
</g>
</g>
<!-- Node1&#45;&gt;Node2 -->
<g id="edge1_Node000001_Node000002" class="edge">
<title>Node1&#45;&gt;Node2</title>
<g id="a_edge1_Node000001_Node000002"><a xlink:title=" ">
<path fill="none" stroke="#63b8ff" d="M1008.7,-287.05C984.43,-277.52 953.1,-265.22 929.66,-256.02"/>
<polygon fill="#63b8ff" stroke="#63b8ff" points="931.17,-252.85 920.58,-252.46 928.61,-259.37 931.17,-252.85"/>
</a>
</g>
</g>
<!-- Node23 -->
<g id="Node000023" class="node">
<title>Node23</title>
<g id="a_Node000023"><a xlink:href="_interpolation_8h.html" target="_top" xlink:title=" ">
<polygon fill="white" stroke="#666666" points="1256.67,-129.75 1135.67,-129.75 1135.67,-110.5 1256.67,-110.5 1256.67,-129.75"/>
<text text-anchor="middle" x="1196.17" y="-116.25" font-family="Helvetica,sans-Serif" font-size="10.00">sgui/Core/Interpolation.h</text>
</a>
</g>
</g>
<!-- Node1&#45;&gt;Node23 -->
<g id="edge23_Node000001_Node000023" class="edge">
<title>Node1&#45;&gt;Node23</title>
<g id="a_edge23_Node000001_Node000023"><a xlink:title=" ">
<path fill="none" stroke="#63b8ff" d="M1073.38,-287.09C1103.4,-269.49 1150.92,-237.18 1177.17,-196.25 1187.83,-179.63 1192.51,-157.37 1194.57,-141.41"/>
<polygon fill="#63b8ff" stroke="#63b8ff" points="1198.02,-141.99 1195.56,-131.69 1191.06,-141.28 1198.02,-141.99"/>
</a>
</g>
</g>
<!-- Node3 -->
<g id="Node000003" class="node">
<title>Node3</title>
<g id="a_Node000003"><a xlink:title=" ">
<polygon fill="#e0e0e0" stroke="#999999" points="796.17,-190.62 738.17,-190.62 738.17,-171.38 796.17,-171.38 796.17,-190.62"/>
<text text-anchor="middle" x="767.17" y="-177.12" font-family="Helvetica,sans-Serif" font-size="10.00">functional</text>
</a>
</g>
</g>
<!-- Node2&#45;&gt;Node3 -->
<g id="edge2_Node000002_Node000003" class="edge">
<title>Node2&#45;&gt;Node3</title>
<g id="a_edge2_Node000002_Node000003"><a xlink:title=" ">
<path fill="none" stroke="#63b8ff" d="M876.3,-231.8C855.21,-222.18 821.65,-206.87 797.31,-195.76"/>
<polygon fill="#63b8ff" stroke="#63b8ff" points="798.78,-192.58 788.23,-191.61 795.87,-198.95 798.78,-192.58"/>
</a>
</g>
</g>
<!-- Node4 -->
<g id="Node000004" class="node">
<title>Node4</title>
<g id="a_Node000004"><a xlink:title=" ">
<polygon fill="#e0e0e0" stroke="#999999" points="978.42,-190.62 813.92,-190.62 813.92,-171.38 978.42,-171.38 978.42,-190.62"/>
<text text-anchor="middle" x="896.17" y="-177.12" font-family="Helvetica,sans-Serif" font-size="10.00">SFML/Graphics/RenderTarget.hpp</text>
</a>
</g>
</g>
<!-- Node2&#45;&gt;Node4 -->
<g id="edge3_Node000002_Node000004" class="edge">
<title>Node2&#45;&gt;Node4</title>
<g id="a_edge3_Node000002_Node000004"><a xlink:title=" ">
<path fill="none" stroke="#63b8ff" d="M896.17,-231.93C896.17,-224.15 896.17,-212.58 896.17,-202.53"/>
<polygon fill="#63b8ff" stroke="#63b8ff" points="899.67,-202.54 896.17,-192.54 892.67,-202.54 899.67,-202.54"/>
</a>
</g>
</g>
<!-- Node5 -->
<g id="Node000005" class="node">
<title>Node5</title>
<g id="a_Node000005"><a xlink:title=" ">
<polygon fill="#e0e0e0" stroke="#999999" points="1167.79,-190.62 996.54,-190.62 996.54,-171.38 1167.79,-171.38 1167.79,-190.62"/>
<text text-anchor="middle" x="1082.17" y="-177.12" font-family="Helvetica,sans-Serif" font-size="10.00">SFML/Graphics/RenderWindow.hpp</text>
</a>
</g>
</g>
<!-- Node2&#45;&gt;Node5 -->
<g id="edge4_Node000002_Node000005" class="edge">
<title>Node2&#45;&gt;Node5</title>
<g id="a_edge4_Node000002_Node000005"><a xlink:title=" ">
<path fill="none" stroke="#63b8ff" d="M924.82,-231.8C956.36,-221.82 1007.27,-205.71 1042.6,-194.52"/>
<polygon fill="#63b8ff" stroke="#63b8ff" points="1043.56,-197.89 1052.04,-191.54 1041.45,-191.22 1043.56,-197.89"/>
</a>
</g>
</g>
<!-- Node6 -->
<g id="Node000006" class="node">
<title>Node6</title>
<g id="a_Node000006"><a xlink:href="_primitive_shape_render_8h.html" target="_top" xlink:title=" ">
<polygon fill="white" stroke="#666666" points="720.54,-196.25 583.79,-196.25 583.79,-165.75 720.54,-165.75 720.54,-196.25"/>
<text text-anchor="start" x="591.79" y="-182.75" font-family="Helvetica,sans-Serif" font-size="10.00">sgui/Render/PrimitiveShape</text>
<text text-anchor="middle" x="652.17" y="-171.5" font-family="Helvetica,sans-Serif" font-size="10.00">Render.h</text>
</a>
</g>
</g>
<!-- Node2&#45;&gt;Node6 -->
<g id="edge5_Node000002_Node000006" class="edge">
<title>Node2&#45;&gt;Node6</title>
<g id="a_edge5_Node000002_Node000006"><a xlink:title=" ">
<path fill="none" stroke="#63b8ff" d="M858.58,-231.8C822.84,-223.18 768.15,-209.98 724.04,-199.34"/>
<polygon fill="#63b8ff" stroke="#63b8ff" points="725.08,-195.99 714.54,-197.05 723.44,-202.8 725.08,-195.99"/>
</a>
</g>
</g>
<!-- Node7 -->
<g id="Node000007" class="node">
<title>Node7</title>
<g id="a_Node000007"><a xlink:title=" ">
<polygon fill="#e0e0e0" stroke="#999999" points="757.42,-129.75 610.92,-129.75 610.92,-110.5 757.42,-110.5 757.42,-129.75"/>
<text text-anchor="middle" x="684.17" y="-116.25" font-family="Helvetica,sans-Serif" font-size="10.00">SFML/Graphics/Drawable.hpp</text>
</a>
</g>
</g>
<!-- Node6&#45;&gt;Node7 -->
<g id="edge6_Node000006_Node000007" class="edge">
<title>Node6&#45;&gt;Node7</title>
<g id="a_edge6_Node000006_Node000007"><a xlink:title=" ">
<path fill="none" stroke="#63b8ff" d="M660.08,-165.45C664.2,-157.86 669.3,-148.49 673.74,-140.32"/>
<polygon fill="#63b8ff" stroke="#63b8ff" points="676.81,-141.99 678.51,-131.53 670.66,-138.65 676.81,-141.99"/>
</a>
</g>
</g>
<!-- Node8 -->
<g id="Node000008" class="node">
<title>Node8</title>
<g id="a_Node000008"><a xlink:title=" ">
<polygon fill="#e0e0e0" stroke="#999999" points="931.29,-129.75 775.04,-129.75 775.04,-110.5 931.29,-110.5 931.29,-129.75"/>
<text text-anchor="middle" x="853.17" y="-116.25" font-family="Helvetica,sans-Serif" font-size="10.00">SFML/Graphics/VertexArray.hpp</text>
</a>
</g>
</g>
<!-- Node6&#45;&gt;Node8 -->
<g id="edge7_Node000006_Node000008" class="edge">
<title>Node6&#45;&gt;Node8</title>
<g id="a_edge7_Node000006_Node000008"><a xlink:title=" ">
<path fill="none" stroke="#63b8ff" d="M702.37,-165.3C735.97,-155.45 779.67,-142.65 811.37,-133.37"/>
<polygon fill="#63b8ff" stroke="#63b8ff" points="811.98,-136.84 820.6,-130.67 810.01,-130.12 811.98,-136.84"/>
</a>
</g>
</g>
<!-- Node9 -->
<g id="Node000009" class="node">
<title>Node9</title>
<g id="a_Node000009"><a xlink:title=" ">
<polygon fill="#e0e0e0" stroke="#999999" points="1117.29,-129.75 949.04,-129.75 949.04,-110.5 1117.29,-110.5 1117.29,-129.75"/>
<text text-anchor="middle" x="1033.17" y="-116.25" font-family="Helvetica,sans-Serif" font-size="10.00">SFML/Graphics/Transformable.hpp</text>
</a>
</g>
</g>
<!-- Node6&#45;&gt;Node9 -->
<g id="edge8_Node000006_Node000009" class="edge">
<title>Node6&#45;&gt;Node9</title>
<g id="a_edge8_Node000006_Node000009"><a xlink:title=" ">
<path fill="none" stroke="#63b8ff" d="M720.99,-167.13C723.75,-166.66 726.49,-166.19 729.17,-165.75 805.71,-153.05 893.41,-140.38 954.88,-131.8"/>
<polygon fill="#63b8ff" stroke="#63b8ff" points="955.12,-135.3 964.54,-130.46 954.15,-128.37 955.12,-135.3"/>
</a>
</g>
</g>
<!-- Node10 -->
<g id="Node000010" class="node">
<title>Node10</title>
<g id="a_Node000010"><a xlink:href="_clipping_layers_8h.html" target="_top" xlink:title=" ">
<polygon fill="white" stroke="#666666" points="296.17,-129.75 154.17,-129.75 154.17,-110.5 296.17,-110.5 296.17,-129.75"/>
<text text-anchor="middle" x="225.17" y="-116.25" font-family="Helvetica,sans-Serif" font-size="10.00">sgui/Render/ClippingLayers.h</text>
</a>
</g>
</g>
<!-- Node6&#45;&gt;Node10 -->
<g id="edge9_Node000006_Node000010" class="edge">
<title>Node6&#45;&gt;Node10</title>
<g id="a_edge9_Node000006_Node000010"><a xlink:title=" ">
<path fill="none" stroke="#63b8ff" d="M583.56,-170.54C506.67,-159.94 382.31,-142.79 302.15,-131.74"/>
<polygon fill="#63b8ff" stroke="#63b8ff" points="303.03,-128.33 292.65,-130.43 302.07,-135.26 303.03,-128.33"/>
</a>
</g>
</g>
<!-- Node15 -->
<g id="Node000015" class="node">
<title>Node15</title>
<g id="a_Node000015"><a xlink:href="_polygon_8h.html" target="_top" xlink:title=" ">
<polygon fill="white" stroke="#666666" points="446.29,-129.75 344.04,-129.75 344.04,-110.5 446.29,-110.5 446.29,-129.75"/>
<text text-anchor="middle" x="395.17" y="-116.25" font-family="Helvetica,sans-Serif" font-size="10.00">sgui/Core/Polygon.h</text>
</a>
</g>
</g>
<!-- Node6&#45;&gt;Node15 -->
<g id="edge14_Node000006_Node000015" class="edge">
<title>Node6&#45;&gt;Node15</title>
<g id="a_edge14_Node000006_Node000015"><a xlink:title=" ">
<path fill="none" stroke="#63b8ff" d="M587.98,-165.3C544.08,-155.24 486.7,-142.09 445.98,-132.76"/>
<polygon fill="#63b8ff" stroke="#63b8ff" points="446.97,-129.4 436.44,-130.58 445.4,-136.22 446.97,-129.4"/>
</a>
</g>
</g>
<!-- Node22 -->
<g id="Node000022" class="node">
<title>Node22</title>
<g id="a_Node000022"><a xlink:href="_primitive_shape_render_8tpp.html" target="_top" xlink:title=" ">
<polygon fill="white" stroke="#666666" points="592.42,-129.75 463.92,-129.75 463.92,-110.5 592.42,-110.5 592.42,-129.75"/>
<text text-anchor="middle" x="528.17" y="-116.25" font-family="Helvetica,sans-Serif" font-size="10.00">PrimitiveShapeRender.tpp</text>
</a>
</g>
</g>
<!-- Node6&#45;&gt;Node22 -->
<g id="edge22_Node000006_Node000022" class="edge">
<title>Node6&#45;&gt;Node22</title>
<g id="a_edge22_Node000006_Node000022"><a xlink:title=" ">
<path fill="none" stroke="#63b8ff" d="M621.2,-165.3C601.68,-156.03 576.63,-144.13 557.44,-135.02"/>
<polygon fill="#63b8ff" stroke="#63b8ff" points="559.09,-131.93 548.55,-130.8 556.09,-138.25 559.09,-131.93"/>
</a>
</g>
</g>
<!-- Node11 -->
<g id="Node000011" class="node">
<title>Node11</title>
<g id="a_Node000011"><a xlink:title=" ">
<polygon fill="#e0e0e0" stroke="#999999" points="210.67,-19.25 167.67,-19.25 167.67,0 210.67,0 210.67,-19.25"/>
<text text-anchor="middle" x="189.17" y="-5.75" font-family="Helvetica,sans-Serif" font-size="10.00">vector</text>
</a>
</g>
</g>
<!-- Node10&#45;&gt;Node11 -->
<g id="edge10_Node000010_Node000011" class="edge">
<title>Node10&#45;&gt;Node11</title>
<g id="a_edge10_Node000010_Node000011"><a xlink:title=" ">
<path fill="none" stroke="#63b8ff" d="M153.74,-114.01C97.76,-108.34 26.4,-96.86 8.17,-74.5 -32.88,-24.15 93.54,-13.44 156.18,-11.2"/>
<polygon fill="#63b8ff" stroke="#63b8ff" points="156.03,-14.71 165.92,-10.91 155.82,-7.71 156.03,-14.71"/>
</a>
</g>
</g>
<!-- Node12 -->
<g id="Node000012" class="node">
<title>Node12</title>
<g id="a_Node000012"><a xlink:title=" ">
<polygon fill="#e0e0e0" stroke="#999999" points="352.79,-74.5 307.54,-74.5 307.54,-55.25 352.79,-55.25 352.79,-74.5"/>
<text text-anchor="middle" x="330.17" y="-61" font-family="Helvetica,sans-Serif" font-size="10.00">cstdint</text>
</a>
</g>
</g>
<!-- Node10&#45;&gt;Node12 -->
<g id="edge11_Node000010_Node000012" class="edge">
<title>Node10&#45;&gt;Node12</title>
<g id="a_edge11_Node000010_Node000012"><a xlink:title=" ">
<path fill="none" stroke="#63b8ff" d="M242.98,-110.09C259.2,-101.87 283.4,-89.59 302.2,-80.06"/>
<polygon fill="#63b8ff" stroke="#63b8ff" points="303.58,-83.28 310.92,-75.64 300.42,-77.04 303.58,-83.28"/>
</a>
</g>
</g>
<!-- Node13 -->
<g id="Node000013" class="node">
<title>Node13</title>
<g id="a_Node000013"><a xlink:title=" ">
<polygon fill="#e0e0e0" stroke="#999999" points="143.29,-74.5 17.04,-74.5 17.04,-55.25 143.29,-55.25 143.29,-74.5"/>
<text text-anchor="middle" x="80.17" y="-61" font-family="Helvetica,sans-Serif" font-size="10.00">SFML/Graphics/Rect.hpp</text>
</a>
</g>
</g>
<!-- Node10&#45;&gt;Node13 -->
<g id="edge12_Node000010_Node000013" class="edge">
<title>Node10&#45;&gt;Node13</title>
<g id="a_edge12_Node000010_Node000013"><a xlink:title=" ">
<path fill="none" stroke="#63b8ff" d="M200.57,-110.09C177.24,-101.52 141.93,-88.56 115.57,-78.88"/>
<polygon fill="#63b8ff" stroke="#63b8ff" points="116.9,-75.64 106.31,-75.47 114.49,-82.21 116.9,-75.64"/>
</a>
</g>
</g>
<!-- Node14 -->
<g id="Node000014" class="node">
<title>Node14</title>
<g id="a_Node000014"><a xlink:title=" ">
<polygon fill="#e0e0e0" stroke="#999999" points="289.04,-74.5 161.29,-74.5 161.29,-55.25 289.04,-55.25 289.04,-74.5"/>
<text text-anchor="middle" x="225.17" y="-61" font-family="Helvetica,sans-Serif" font-size="10.00">SFML/Graphics/View.hpp</text>
</a>
</g>
</g>
<!-- Node10&#45;&gt;Node14 -->
<g id="edge13_Node000010_Node000014" class="edge">
<title>Node10&#45;&gt;Node14</title>
<g id="a_edge13_Node000010_Node000014"><a xlink:title=" ">
<path fill="none" stroke="#63b8ff" d="M225.17,-110.33C225.17,-103.82 225.17,-94.67 225.17,-86.37"/>
<polygon fill="#63b8ff" stroke="#63b8ff" points="228.67,-86.37 225.17,-76.37 221.67,-86.37 228.67,-86.37"/>
</a>
</g>
</g>
<!-- Node16 -->
<g id="Node000016" class="node">
<title>Node16</title>
<g id="a_Node000016"><a xlink:title=" ">
<polygon fill="#e0e0e0" stroke="#999999" points="875.67,-74.5 832.67,-74.5 832.67,-55.25 875.67,-55.25 875.67,-74.5"/>
<text text-anchor="middle" x="854.17" y="-61" font-family="Helvetica,sans-Serif" font-size="10.00">cmath</text>
</a>
</g>
</g>
<!-- Node15&#45;&gt;Node16 -->
<g id="edge15_Node000015_Node000016" class="edge">
<title>Node15&#45;&gt;Node16</title>
<g id="a_edge15_Node000015_Node000016"><a xlink:title=" ">
<path fill="none" stroke="#63b8ff" d="M446.54,-111.63C449.46,-111.24 452.35,-110.86 455.17,-110.5 590.84,-93.17 752.94,-76.19 821.25,-69.2"/>
<polygon fill="#63b8ff" stroke="#63b8ff" points="821.42,-72.7 831.01,-68.21 820.71,-65.74 821.42,-72.7"/>
</a>
</g>
</g>
<!-- Node17 -->
<g id="Node000017" class="node">
<title>Node17</title>
<g id="a_Node000017"><a xlink:href="_shapes_8h.html" target="_top" xlink:title=" ">
<polygon fill="white" stroke="#666666" points="600.54,-74.5 499.79,-74.5 499.79,-55.25 600.54,-55.25 600.54,-74.5"/>
<text text-anchor="middle" x="550.17" y="-61" font-family="Helvetica,sans-Serif" font-size="10.00">sgui/Core/Shapes.h</text>
</a>
</g>
</g>
<!-- Node15&#45;&gt;Node17 -->
<g id="edge16_Node000015_Node000017" class="edge">
<title>Node15&#45;&gt;Node17</title>
<g id="a_edge16_Node000015_Node000017"><a xlink:title=" ">
<path fill="none" stroke="#63b8ff" d="M421.46,-110.09C446.63,-101.45 484.82,-88.32 513.07,-78.62"/>
<polygon fill="#63b8ff" stroke="#63b8ff" points="513.99,-82 522.31,-75.44 511.72,-75.38 513.99,-82"/>
</a>
</g>
</g>
<!-- Node21 -->
<g id="Node000021" class="node">
<title>Node21</title>
<g id="a_Node000021"><a xlink:href="_polygon_8tpp.html" target="_top" xlink:title=" ">
<polygon fill="white" stroke="#666666" points="481.42,-74.5 370.92,-74.5 370.92,-55.25 481.42,-55.25 481.42,-74.5"/>
<text text-anchor="middle" x="426.17" y="-61" font-family="Helvetica,sans-Serif" font-size="10.00">sgui/Core/Polygon.tpp</text>
</a>
</g>
</g>
<!-- Node15&#45;&gt;Node21 -->
<g id="edge21_Node000015_Node000021" class="edge">
<title>Node15&#45;&gt;Node21</title>
<g id="a_edge21_Node000015_Node000021"><a xlink:title=" ">
<path fill="none" stroke="#63b8ff" d="M400.29,-110.33C404.35,-103.36 410.16,-93.37 415.26,-84.62"/>
<polygon fill="#63b8ff" stroke="#63b8ff" points="418.17,-86.57 420.18,-76.17 412.12,-83.05 418.17,-86.57"/>
</a>
</g>
</g>
<!-- Node17&#45;&gt;Node11 -->
<g id="edge18_Node000017_Node000011" class="edge">
<title>Node17&#45;&gt;Node11</title>
<g id="a_edge18_Node000017_Node000011"><a xlink:title=" ">
<path fill="none" stroke="#63b8ff" d="M499.59,-56.41C424.49,-45.34 285.53,-24.84 222.19,-15.5"/>
<polygon fill="#63b8ff" stroke="#63b8ff" points="222.82,-12.05 212.42,-14.05 221.8,-18.98 222.82,-12.05"/>
</a>
</g>
</g>
<!-- Node18 -->
<g id="Node000018" class="node">
<title>Node18</title>
<g id="a_Node000018"><a xlink:title=" ">
<polygon fill="#e0e0e0" stroke="#999999" points="465.67,-19.25 428.67,-19.25 428.67,0 465.67,0 465.67,-19.25"/>
<text text-anchor="middle" x="447.17" y="-5.75" font-family="Helvetica,sans-Serif" font-size="10.00">array</text>
</a>
</g>
</g>
<!-- Node17&#45;&gt;Node18 -->
<g id="edge17_Node000017_Node000018" class="edge">
<title>Node17&#45;&gt;Node18</title>
<g id="a_edge17_Node000017_Node000018"><a xlink:title=" ">
<path fill="none" stroke="#63b8ff" d="M532.7,-54.84C516.86,-46.66 493.26,-34.46 474.86,-24.94"/>
<polygon fill="#63b8ff" stroke="#63b8ff" points="476.56,-21.88 466.07,-20.4 473.35,-28.1 476.56,-21.88"/>
</a>
</g>
</g>
<!-- Node19 -->
<g id="Node000019" class="node">
<title>Node19</title>
<g id="a_Node000019"><a xlink:title=" ">
<polygon fill="#e0e0e0" stroke="#999999" points="617.04,-19.25 483.29,-19.25 483.29,0 617.04,0 617.04,-19.25"/>
<text text-anchor="middle" x="550.17" y="-5.75" font-family="Helvetica,sans-Serif" font-size="10.00">SFML/System/Vector2.hpp</text>
</a>
</g>
</g>
<!-- Node17&#45;&gt;Node19 -->
<g id="edge19_Node000017_Node000019" class="edge">
<title>Node17&#45;&gt;Node19</title>
<g id="a_edge19_Node000017_Node000019"><a xlink:title=" ">
<path fill="none" stroke="#63b8ff" d="M550.17,-55.08C550.17,-48.57 550.17,-39.42 550.17,-31.12"/>
<polygon fill="#63b8ff" stroke="#63b8ff" points="553.67,-31.12 550.17,-21.12 546.67,-31.12 553.67,-31.12"/>
</a>
</g>
</g>
<!-- Node20 -->
<g id="Node000020" class="node">
<title>Node20</title>
<g id="a_Node000020"><a xlink:href="_shapes_8tpp.html" target="_top" xlink:title=" ">
<polygon fill="white" stroke="#666666" points="743.67,-19.25 634.67,-19.25 634.67,0 743.67,0 743.67,-19.25"/>
<text text-anchor="middle" x="689.17" y="-5.75" font-family="Helvetica,sans-Serif" font-size="10.00">sgui/Core/Shapes.tpp</text>
</a>
</g>
</g>
<!-- Node17&#45;&gt;Node20 -->
<g id="edge20_Node000017_Node000020" class="edge">
<title>Node17&#45;&gt;Node20</title>
<g id="a_edge20_Node000017_Node000020"><a xlink:title=" ">
<path fill="none" stroke="#63b8ff" d="M573.75,-54.84C596.01,-46.31 629.66,-33.42 654.89,-23.76"/>
<polygon fill="#63b8ff" stroke="#63b8ff" points="655.97,-27.09 664.06,-20.24 653.47,-20.55 655.97,-27.09"/>
</a>
</g>
</g>
<!-- Node23&#45;&gt;Node12 -->
<g id="edge26_Node000023_Node000012" class="edge">
<title>Node23&#45;&gt;Node12</title>
<g id="a_edge26_Node000023_Node000012"><a xlink:title=" ">
<path fill="none" stroke="#63b8ff" d="M1135.49,-111.36C1132.34,-111.05 1129.22,-110.76 1126.17,-110.5 791.1,-82 699.97,-126.07 364.14,-74.41"/>
<polygon fill="#63b8ff" stroke="#63b8ff" points="365.03,-71.01 354.61,-72.93 363.95,-77.93 365.03,-71.01"/>
</a>
</g>
</g>
<!-- Node23&#45;&gt;Node16 -->
<g id="edge24_Node000023_Node000016" class="edge">
<title>Node23&#45;&gt;Node16</title>
<g id="a_edge24_Node000023_Node000016"><a xlink:title=" ">
<path fill="none" stroke="#63b8ff" d="M1137.77,-110.03C1065.48,-98.78 944.87,-80 887.05,-70.99"/>
<polygon fill="#63b8ff" stroke="#63b8ff" points="887.94,-67.59 877.52,-69.51 886.86,-74.51 887.94,-67.59"/>
</a>
</g>
</g>
<!-- Node24 -->
<g id="Node000024" class="node">
<title>Node24</title>
<g id="a_Node000024"><a xlink:title=" ">
<polygon fill="#e0e0e0" stroke="#999999" points="1147.17,-74.5 1107.17,-74.5 1107.17,-55.25 1147.17,-55.25 1147.17,-74.5"/>
<text text-anchor="middle" x="1127.17" y="-61" font-family="Helvetica,sans-Serif" font-size="10.00">string</text>
</a>
</g>
</g>
<!-- Node23&#45;&gt;Node24 -->
<g id="edge25_Node000023_Node000024" class="edge">
<title>Node23&#45;&gt;Node24</title>
<g id="a_edge25_Node000023_Node000024"><a xlink:title=" ">
<path fill="none" stroke="#63b8ff" d="M1184.46,-110.09C1174.39,-102.32 1159.63,-90.92 1147.61,-81.65"/>
<polygon fill="#63b8ff" stroke="#63b8ff" points="1149.95,-79.04 1139.9,-75.7 1145.68,-84.58 1149.95,-79.04"/>
</a>
</g>
</g>
<!-- Node25 -->
<g id="Node000025" class="node">
<title>Node25</title>
<g id="a_Node000025"><a xlink:title=" ">
<polygon fill="#e0e0e0" stroke="#999999" points="1226.67,-74.5 1165.67,-74.5 1165.67,-55.25 1226.67,-55.25 1226.67,-74.5"/>
<text text-anchor="middle" x="1196.17" y="-61" font-family="Helvetica,sans-Serif" font-size="10.00">type_traits</text>
</a>
</g>
</g>
<!-- Node23&#45;&gt;Node25 -->
<g id="edge27_Node000023_Node000025" class="edge">
<title>Node23&#45;&gt;Node25</title>
<g id="a_edge27_Node000023_Node000025"><a xlink:title=" ">
<path fill="none" stroke="#63b8ff" d="M1196.17,-110.33C1196.17,-103.82 1196.17,-94.67 1196.17,-86.37"/>
<polygon fill="#63b8ff" stroke="#63b8ff" points="1199.67,-86.37 1196.17,-76.37 1192.67,-86.37 1199.67,-86.37"/>
</a>
</g>
</g>
<!-- Node26 -->
<g id="Node000026" class="node">
<title>Node26</title>
<g id="a_Node000026"><a xlink:href="_interpolation_8tpp.html" target="_top" xlink:title=" ">
<polygon fill="white" stroke="#666666" points="1373.79,-74.5 1244.54,-74.5 1244.54,-55.25 1373.79,-55.25 1373.79,-74.5"/>
<text text-anchor="middle" x="1309.17" y="-61" font-family="Helvetica,sans-Serif" font-size="10.00">sgui/Core/Interpolation.tpp</text>
</a>
</g>
</g>
<!-- Node23&#45;&gt;Node26 -->
<g id="edge28_Node000023_Node000026" class="edge">
<title>Node23&#45;&gt;Node26</title>
<g id="a_edge28_Node000023_Node000026"><a xlink:title=" ">
<path fill="none" stroke="#63b8ff" d="M1215.34,-110.09C1232.95,-101.79 1259.33,-89.36 1279.63,-79.79"/>
<polygon fill="#63b8ff" stroke="#63b8ff" points="1280.98,-83.03 1288.54,-75.6 1278,-76.69 1280.98,-83.03"/>
</a>
</g>
</g>
</g>
</svg>
