<?xml version="1.0" encoding="UTF-8" standalone="no"?>
<!DOCTYPE svg PUBLIC "-//W3C//DTD SVG 1.1//EN"
 "http://www.w3.org/Graphics/SVG/1.1/DTD/svg11.dtd">
<!-- Generated by graphviz version 12.2.1 (20241206.2353)
 -->
<!-- Title: /github/workspace/src/sgui/Core/Polygon.h Pages: 1 -->
<svg width="471pt" height="327pt"
 viewBox="0.00 0.00 471.33 327.00" xmlns="http://www.w3.org/2000/svg" xmlns:xlink="http://www.w3.org/1999/xlink">
<g id="graph0" class="graph" transform="scale(1 1) rotate(0) translate(4 323)">
<title>/github/workspace/src/sgui/Core/Polygon.h</title>
<!-- Node1 -->
<g id="Node000001" class="node">
<title>Node1</title>
<g id="a_Node000001"><a xlink:title=" ">
<polygon fill="#999999" stroke="#666666" points="432,-319 320,-319 320,-288.5 432,-288.5 432,-319"/>
<text text-anchor="start" x="328" y="-305.5" font-family="Helvetica,sans-Serif" font-size="10.00">/github/workspace/src</text>
<text text-anchor="middle" x="376" y="-294.25" font-family="Helvetica,sans-Serif" font-size="10.00">/sgui/Core/Polygon.h</text>
</a>
</g>
</g>
<!-- Node2 -->
<g id="Node000002" class="node">
<title>Node2</title>
<g id="a_Node000002"><a xlink:href="_primitive_shape_render_8h.html" target="_top" xlink:title=" ">
<polygon fill="white" stroke="#666666" points="396.88,-252.5 257.12,-252.5 257.12,-210.75 396.88,-210.75 396.88,-252.5"/>
<text text-anchor="start" x="265.12" y="-239" font-family="Helvetica,sans-Serif" font-size="10.00">/github/workspace/src</text>
<text text-anchor="start" x="265.12" y="-227.75" font-family="Helvetica,sans-Serif" font-size="10.00">/sgui/Render/PrimitiveShape</text>
<text text-anchor="middle" x="327" y="-216.5" font-family="Helvetica,sans-Serif" font-size="10.00">Render.h</text>
</a>
</g>
</g>
<!-- Node1&#45;&gt;Node2 -->
<g id="edge1_Node000001_Node000002" class="edge">
<title>Node1&#45;&gt;Node2</title>
<g id="a_edge1_Node000001_Node000002"><a xlink:title=" ">
<path fill="none" stroke="#63b8ff" d="M359.34,-278.91C353.45,-270.49 346.89,-261.1 341.23,-252.99"/>
<polygon fill="#63b8ff" stroke="#63b8ff" points="356.38,-280.79 364.98,-286.98 362.12,-276.78 356.38,-280.79"/>
</a>
</g>
</g>
<!-- Node6 -->
<g id="Node000006" class="node">
<title>Node6</title>
<g id="a_Node000006"><a xlink:href="sgui_8h.html" target="_top" xlink:title=" ">
<polygon fill="white" stroke="#666666" points="334,-30.5 222,-30.5 222,0 334,0 334,-30.5"/>
<text text-anchor="start" x="230" y="-17" font-family="Helvetica,sans-Serif" font-size="10.00">/github/workspace/src</text>
<text text-anchor="middle" x="278" y="-5.75" font-family="Helvetica,sans-Serif" font-size="10.00">/sgui/sgui.h</text>
</a>
</g>
</g>
<!-- Node1&#45;&gt;Node6 -->
<g id="edge9_Node000001_Node000006" class="edge">
<title>Node1&#45;&gt;Node6</title>
<g id="a_edge9_Node000001_Node000006"><a xlink:title=" ">
<path fill="none" stroke="#63b8ff" d="M400.13,-280.33C432.45,-247.46 482.72,-184.5 455,-133 426.91,-80.81 364.14,-48.09 321.43,-30.99"/>
<polygon fill="#63b8ff" stroke="#63b8ff" points="397.7,-277.81 393.04,-287.33 402.61,-282.79 397.7,-277.81"/>
</a>
</g>
</g>
<!-- Node3 -->
<g id="Node000003" class="node">
<title>Node3</title>
<g id="a_Node000003"><a xlink:href="_plotter_8h.html" target="_top" xlink:title=" ">
<polygon fill="white" stroke="#666666" points="246,-169.12 134,-169.12 134,-138.62 246,-138.62 246,-169.12"/>
<text text-anchor="start" x="142" y="-155.62" font-family="Helvetica,sans-Serif" font-size="10.00">/github/workspace/src</text>
<text text-anchor="middle" x="190" y="-144.38" font-family="Helvetica,sans-Serif" font-size="10.00">/sgui/Render/Plotter.h</text>
</a>
</g>
</g>
<!-- Node2&#45;&gt;Node3 -->
<g id="edge2_Node000002_Node000003" class="edge">
<title>Node2&#45;&gt;Node3</title>
<g id="a_edge2_Node000002_Node000003"><a xlink:title=" ">
<path fill="none" stroke="#63b8ff" d="M280.41,-204.87C259.05,-193.05 234.51,-179.48 216.39,-169.46"/>
<polygon fill="#63b8ff" stroke="#63b8ff" points="278.52,-207.82 288.96,-209.59 281.9,-201.69 278.52,-207.82"/>
</a>
</g>
</g>
<!-- Node2&#45;&gt;Node6 -->
<g id="edge8_Node000002_Node000006" class="edge">
<title>Node2&#45;&gt;Node6</title>
<g id="a_edge8_Node000002_Node000006"><a xlink:title=" ">
<path fill="none" stroke="#63b8ff" d="M308.29,-200.7C303.94,-192.55 299.78,-183.53 297,-174.75 280.8,-123.48 278.24,-58.89 277.95,-30.62"/>
<polygon fill="#63b8ff" stroke="#63b8ff" points="305.11,-202.17 313.07,-209.16 311.2,-198.73 305.11,-202.17"/>
</a>
</g>
</g>
<!-- Node8 -->
<g id="Node000008" class="node">
<title>Node8</title>
<g id="a_Node000008"><a xlink:href="_primitive_shape_render_8cpp.html" target="_top" xlink:title=" ">
<polygon fill="white" stroke="#666666" points="445.88,-174.75 306.12,-174.75 306.12,-133 445.88,-133 445.88,-174.75"/>
<text text-anchor="start" x="314.12" y="-161.25" font-family="Helvetica,sans-Serif" font-size="10.00">/github/workspace/src</text>
<text text-anchor="start" x="314.12" y="-150" font-family="Helvetica,sans-Serif" font-size="10.00">/sgui/Render/PrimitiveShape</text>
<text text-anchor="middle" x="376" y="-138.75" font-family="Helvetica,sans-Serif" font-size="10.00">Render.cpp</text>
</a>
</g>
</g>
<!-- Node2&#45;&gt;Node8 -->
<g id="edge7_Node000002_Node000008" class="edge">
<title>Node2&#45;&gt;Node8</title>
<g id="a_edge7_Node000002_Node000008"><a xlink:title=" ">
<path fill="none" stroke="#63b8ff" d="M346.37,-200.68C351.89,-192.14 357.78,-183.05 362.83,-175.23"/>
<polygon fill="#63b8ff" stroke="#63b8ff" points="343.45,-198.76 340.95,-209.05 349.32,-202.56 343.45,-198.76"/>
</a>
</g>
</g>
<!-- Node4 -->
<g id="Node000004" class="node">
<title>Node4</title>
<g id="a_Node000004"><a xlink:href="_gui_8h.html" target="_top" xlink:title=" ">
<polygon fill="white" stroke="#666666" points="112,-97 0,-97 0,-66.5 112,-66.5 112,-97"/>
<text text-anchor="start" x="8" y="-83.5" font-family="Helvetica,sans-Serif" font-size="10.00">/github/workspace/src</text>
<text text-anchor="middle" x="56" y="-72.25" font-family="Helvetica,sans-Serif" font-size="10.00">/sgui/Gui.h</text>
</a>
</g>
</g>
<!-- Node3&#45;&gt;Node4 -->
<g id="edge3_Node000003_Node000004" class="edge">
<title>Node3&#45;&gt;Node4</title>
<g id="a_edge3_Node000003_Node000004"><a xlink:title=" ">
<path fill="none" stroke="#63b8ff" d="M151.76,-132.86C130.19,-121.57 103.7,-107.71 84.05,-97.43"/>
<polygon fill="#63b8ff" stroke="#63b8ff" points="150.09,-135.94 160.57,-137.47 153.33,-129.73 150.09,-135.94"/>
</a>
</g>
</g>
<!-- Node7 -->
<g id="Node000007" class="node">
<title>Node7</title>
<g id="a_Node000007"><a xlink:href="_plotter_8cpp.html" target="_top" xlink:title=" ">
<polygon fill="white" stroke="#666666" points="250.12,-97 129.88,-97 129.88,-66.5 250.12,-66.5 250.12,-97"/>
<text text-anchor="start" x="137.88" y="-83.5" font-family="Helvetica,sans-Serif" font-size="10.00">/github/workspace/src</text>
<text text-anchor="middle" x="190" y="-72.25" font-family="Helvetica,sans-Serif" font-size="10.00">/sgui/Render/Plotter.cpp</text>
</a>
</g>
</g>
<!-- Node3&#45;&gt;Node7 -->
<g id="edge6_Node000003_Node000007" class="edge">
<title>Node3&#45;&gt;Node7</title>
<g id="a_edge6_Node000003_Node000007"><a xlink:title=" ">
<path fill="none" stroke="#63b8ff" d="M190,-126.9C190,-116.89 190,-105.81 190,-97.26"/>
<polygon fill="#63b8ff" stroke="#63b8ff" points="186.5,-126.83 190,-136.83 193.5,-126.83 186.5,-126.83"/>
</a>
</g>
</g>
<!-- Node5 -->
<g id="Node000005" class="node">
<title>Node5</title>
<g id="a_Node000005"><a xlink:href="_gui_8cpp.html" target="_top" xlink:title=" ">
<polygon fill="white" stroke="#666666" points="112,-30.5 0,-30.5 0,0 112,0 112,-30.5"/>
<text text-anchor="start" x="8" y="-17" font-family="Helvetica,sans-Serif" font-size="10.00">/github/workspace/src</text>
<text text-anchor="middle" x="56" y="-5.75" font-family="Helvetica,sans-Serif" font-size="10.00">/sgui/Gui.cpp</text>
</a>
</g>
</g>
<!-- Node4&#45;&gt;Node5 -->
<g id="edge4_Node000004_Node000005" class="edge">
<title>Node4&#45;&gt;Node5</title>
<g id="a_edge4_Node000004_Node000005"><a xlink:title=" ">
<path fill="none" stroke="#63b8ff" d="M56,-54.81C56,-46.64 56,-37.91 56,-30.83"/>
<polygon fill="#63b8ff" stroke="#63b8ff" points="52.5,-54.6 56,-64.6 59.5,-54.6 52.5,-54.6"/>
</a>
</g>
</g>
<!-- Node4&#45;&gt;Node6 -->
<g id="edge5_Node000004_Node000006" class="edge">
<title>Node4&#45;&gt;Node6</title>
<g id="a_edge5_Node000004_Node000006"><a xlink:title=" ">
<path fill="none" stroke="#63b8ff" d="M117.59,-62.85C152.23,-52.79 194.93,-40.39 227.56,-30.9"/>
<polygon fill="#63b8ff" stroke="#63b8ff" points="116.73,-59.46 108.11,-65.61 118.69,-66.18 116.73,-59.46"/>
</a>
</g>
</g>
</g>
</svg>
