<?xml version="1.0" encoding="UTF-8" standalone="no"?>
<!DOCTYPE svg PUBLIC "-//W3C//DTD SVG 1.1//EN"
 "http://www.w3.org/Graphics/SVG/1.1/DTD/svg11.dtd">
<!-- Generated by graphviz version 12.2.1 (20241206.2353)
 -->
<!-- Title: /github/workspace/src/sgui/Core/Polygon.h Pages: 1 -->
<svg width="384pt" height="149pt"
 viewBox="0.00 0.00 384.00 149.00" xmlns="http://www.w3.org/2000/svg" xmlns:xlink="http://www.w3.org/1999/xlink">
<g id="graph0" class="graph" transform="scale(1 1) rotate(0) translate(4 145)">
<title>/github/workspace/src/sgui/Core/Polygon.h</title>
<!-- Node1 -->
<g id="Node000001" class="node">
<title>Node1</title>
<g id="a_Node000001"><a xlink:title=" ">
<polygon fill="#999999" stroke="#666666" points="185.5,-141 73.5,-141 73.5,-110.5 185.5,-110.5 185.5,-141"/>
<text text-anchor="start" x="81.5" y="-127.5" font-family="Helvetica,sans-Serif" font-size="10.00">/github/workspace/src</text>
<text text-anchor="middle" x="129.5" y="-116.25" font-family="Helvetica,sans-Serif" font-size="10.00">/sgui/Core/Polygon.h</text>
</a>
</g>
</g>
<!-- Node2 -->
<g id="Node000002" class="node">
<title>Node2</title>
<g id="a_Node000002"><a xlink:title=" ">
<polygon fill="#e0e0e0" stroke="#999999" points="61,-74.5 18,-74.5 18,-55.25 61,-55.25 61,-74.5"/>
<text text-anchor="middle" x="39.5" y="-61" font-family="Helvetica,sans-Serif" font-size="10.00">cmath</text>
</a>
</g>
</g>
<!-- Node1&#45;&gt;Node2 -->
<g id="edge1_Node000001_Node000002" class="edge">
<title>Node1&#45;&gt;Node2</title>
<g id="a_edge1_Node000001_Node000002"><a xlink:title=" ">
<path fill="none" stroke="#63b8ff" d="M107.25,-110.2C93.68,-101.32 76.36,-89.99 62.63,-81.01"/>
<polygon fill="#63b8ff" stroke="#63b8ff" points="64.93,-78.33 54.64,-75.78 61.09,-84.18 64.93,-78.33"/>
</a>
</g>
</g>
<!-- Node3 -->
<g id="Node000003" class="node">
<title>Node3</title>
<g id="a_Node000003"><a xlink:href="_shapes_8h.html" target="_top" xlink:title=" ">
<polygon fill="white" stroke="#666666" points="179.88,-74.5 79.12,-74.5 79.12,-55.25 179.88,-55.25 179.88,-74.5"/>
<text text-anchor="middle" x="129.5" y="-61" font-family="Helvetica,sans-Serif" font-size="10.00">sgui/Core/Shapes.h</text>
</a>
</g>
</g>
<!-- Node1&#45;&gt;Node3 -->
<g id="edge2_Node000001_Node000003" class="edge">
<title>Node1&#45;&gt;Node3</title>
<g id="a_edge2_Node000001_Node000003"><a xlink:title=" ">
<path fill="none" stroke="#63b8ff" d="M129.5,-110.2C129.5,-102.96 129.5,-94.09 129.5,-86.19"/>
<polygon fill="#63b8ff" stroke="#63b8ff" points="133,-86.46 129.5,-76.46 126,-86.46 133,-86.46"/>
</a>
</g>
</g>
<!-- Node8 -->
<g id="Node000008" class="node">
<title>Node8</title>
<g id="a_Node000008"><a xlink:href="_polygon_8tpp.html" target="_top" xlink:title=" ">
<polygon fill="white" stroke="#666666" points="308.75,-74.5 198.25,-74.5 198.25,-55.25 308.75,-55.25 308.75,-74.5"/>
<text text-anchor="middle" x="253.5" y="-61" font-family="Helvetica,sans-Serif" font-size="10.00">sgui/Core/Polygon.tpp</text>
</a>
</g>
</g>
<!-- Node1&#45;&gt;Node8 -->
<g id="edge7_Node000001_Node000008" class="edge">
<title>Node1&#45;&gt;Node8</title>
<g id="a_edge7_Node000001_Node000008"><a xlink:title=" ">
<path fill="none" stroke="#63b8ff" d="M160.47,-110.05C179.99,-100.78 205.04,-88.88 224.23,-79.77"/>
<polygon fill="#63b8ff" stroke="#63b8ff" points="225.58,-83 233.12,-75.55 222.58,-76.68 225.58,-83"/>
</a>
</g>
</g>
<!-- Node4 -->
<g id="Node000004" class="node">
<title>Node4</title>
<g id="a_Node000004"><a xlink:title=" ">
<polygon fill="#e0e0e0" stroke="#999999" points="37,-19.25 0,-19.25 0,0 37,0 37,-19.25"/>
<text text-anchor="middle" x="18.5" y="-5.75" font-family="Helvetica,sans-Serif" font-size="10.00">array</text>
</a>
</g>
</g>
<!-- Node3&#45;&gt;Node4 -->
<g id="edge3_Node000003_Node000004" class="edge">
<title>Node3&#45;&gt;Node4</title>
<g id="a_edge3_Node000003_Node000004"><a xlink:title=" ">
<path fill="none" stroke="#63b8ff" d="M110.67,-54.84C93.45,-46.58 67.7,-34.23 47.79,-24.68"/>
<polygon fill="#63b8ff" stroke="#63b8ff" points="49.32,-21.53 38.79,-20.36 46.29,-27.84 49.32,-21.53"/>
</a>
</g>
</g>
<!-- Node5 -->
<g id="Node000005" class="node">
<title>Node5</title>
<g id="a_Node000005"><a xlink:title=" ">
<polygon fill="#e0e0e0" stroke="#999999" points="98,-19.25 55,-19.25 55,0 98,0 98,-19.25"/>
<text text-anchor="middle" x="76.5" y="-5.75" font-family="Helvetica,sans-Serif" font-size="10.00">vector</text>
</a>
</g>
</g>
<!-- Node3&#45;&gt;Node5 -->
<g id="edge4_Node000003_Node000005" class="edge">
<title>Node3&#45;&gt;Node5</title>
<g id="a_edge4_Node000003_Node000005"><a xlink:title=" ">
<path fill="none" stroke="#63b8ff" d="M120.75,-55.08C113.35,-47.65 102.54,-36.79 93.45,-27.66"/>
<polygon fill="#63b8ff" stroke="#63b8ff" points="96.04,-25.3 86.51,-20.68 91.08,-30.24 96.04,-25.3"/>
</a>
</g>
</g>
<!-- Node6 -->
<g id="Node000006" class="node">
<title>Node6</title>
<g id="a_Node000006"><a xlink:title=" ">
<polygon fill="#e0e0e0" stroke="#999999" points="249.38,-19.25 115.62,-19.25 115.62,0 249.38,0 249.38,-19.25"/>
<text text-anchor="middle" x="182.5" y="-5.75" font-family="Helvetica,sans-Serif" font-size="10.00">SFML/System/Vector2.hpp</text>
</a>
</g>
</g>
<!-- Node3&#45;&gt;Node6 -->
<g id="edge5_Node000003_Node000006" class="edge">
<title>Node3&#45;&gt;Node6</title>
<g id="a_edge5_Node000003_Node000006"><a xlink:title=" ">
<path fill="none" stroke="#63b8ff" d="M138.25,-55.08C145.65,-47.65 156.46,-36.79 165.55,-27.66"/>
<polygon fill="#63b8ff" stroke="#63b8ff" points="167.92,-30.24 172.49,-20.68 162.96,-25.3 167.92,-30.24"/>
</a>
</g>
</g>
<!-- Node7 -->
<g id="Node000007" class="node">
<title>Node7</title>
<g id="a_Node000007"><a xlink:href="_shapes_8tpp.html" target="_top" xlink:title=" ">
<polygon fill="white" stroke="#666666" points="376,-19.25 267,-19.25 267,0 376,0 376,-19.25"/>
<text text-anchor="middle" x="321.5" y="-5.75" font-family="Helvetica,sans-Serif" font-size="10.00">sgui/Core/Shapes.tpp</text>
</a>
</g>
</g>
<!-- Node3&#45;&gt;Node7 -->
<g id="edge6_Node000003_Node000007" class="edge">
<title>Node3&#45;&gt;Node7</title>
<g id="a_edge6_Node000003_Node000007"><a xlink:title=" ">
<path fill="none" stroke="#63b8ff" d="M162.07,-54.84C193.93,-46.01 242.66,-32.49 277.86,-22.73"/>
<polygon fill="#63b8ff" stroke="#63b8ff" points="278.61,-26.15 287.31,-20.11 276.74,-19.41 278.61,-26.15"/>
</a>
</g>
</g>
</g>
</svg>
