<?xml version="1.0" encoding="UTF-8" standalone="no"?>
<!DOCTYPE svg PUBLIC "-//W3C//DTD SVG 1.1//EN"
 "http://www.w3.org/Graphics/SVG/1.1/DTD/svg11.dtd">
<!-- Generated by graphviz version 12.2.1 (20241206.2353)
 -->
<!-- Title: /github/workspace/src/sgui/Render/PrimitiveShapeRender.tpp Pages: 1 -->
<svg width="454pt" height="338pt"
 viewBox="0.00 0.00 453.88 338.25" xmlns="http://www.w3.org/2000/svg" xmlns:xlink="http://www.w3.org/1999/xlink">
<g id="graph0" class="graph" transform="scale(1 1) rotate(0) translate(4 334.25)">
<title>/github/workspace/src/sgui/Render/PrimitiveShapeRender.tpp</title>
<!-- Node1 -->
<g id="Node000001" class="node">
<title>Node1</title>
<g id="a_Node000001"><a xlink:title=" ">
<polygon fill="#999999" stroke="#666666" points="347.88,-330.25 208.12,-330.25 208.12,-288.5 347.88,-288.5 347.88,-330.25"/>
<text text-anchor="start" x="216.12" y="-316.75" font-family="Helvetica,sans-Serif" font-size="10.00">/github/workspace/src</text>
<text text-anchor="start" x="216.12" y="-305.5" font-family="Helvetica,sans-Serif" font-size="10.00">/sgui/Render/PrimitiveShape</text>
<text text-anchor="middle" x="278" y="-294.25" font-family="Helvetica,sans-Serif" font-size="10.00">Render.tpp</text>
</a>
</g>
</g>
<!-- Node2 -->
<g id="Node000002" class="node">
<title>Node2</title>
<g id="a_Node000002"><a xlink:href="_primitive_shape_render_8h.html" target="_top" xlink:title=" ">
<polygon fill="white" stroke="#666666" points="347.88,-252.5 208.12,-252.5 208.12,-210.75 347.88,-210.75 347.88,-252.5"/>
<text text-anchor="start" x="216.12" y="-239" font-family="Helvetica,sans-Serif" font-size="10.00">/github/workspace/src</text>
<text text-anchor="start" x="216.12" y="-227.75" font-family="Helvetica,sans-Serif" font-size="10.00">/sgui/Render/PrimitiveShape</text>
<text text-anchor="middle" x="278" y="-216.5" font-family="Helvetica,sans-Serif" font-size="10.00">Render.h</text>
</a>
</g>
</g>
<!-- Node1&#45;&gt;Node2 -->
<g id="edge1_Node000001_Node000002" class="edge">
<title>Node1&#45;&gt;Node2</title>
<g id="a_edge1_Node000001_Node000002"><a xlink:title=" ">
<path fill="none" stroke="#63b8ff" d="M278,-276.75C278,-268.71 278,-260.29 278,-252.98"/>
<polygon fill="#63b8ff" stroke="#63b8ff" points="274.5,-276.56 278,-286.56 281.5,-276.56 274.5,-276.56"/>
</a>
</g>
</g>
<!-- Node3 -->
<g id="Node000003" class="node">
<title>Node3</title>
<g id="a_Node000003"><a xlink:href="_plotter_8h.html" target="_top" xlink:title=" ">
<polygon fill="white" stroke="#666666" points="246,-169.12 134,-169.12 134,-138.62 246,-138.62 246,-169.12"/>
<text text-anchor="start" x="142" y="-155.62" font-family="Helvetica,sans-Serif" font-size="10.00">/github/workspace/src</text>
<text text-anchor="middle" x="190" y="-144.38" font-family="Helvetica,sans-Serif" font-size="10.00">/sgui/Render/Plotter.h</text>
</a>
</g>
</g>
<!-- Node2&#45;&gt;Node3 -->
<g id="edge2_Node000002_Node000003" class="edge">
<title>Node2&#45;&gt;Node3</title>
<g id="a_edge2_Node000002_Node000003"><a xlink:title=" ">
<path fill="none" stroke="#63b8ff" d="M246.01,-203.09C232.79,-191.71 218.01,-178.98 206.95,-169.46"/>
<polygon fill="#63b8ff" stroke="#63b8ff" points="243.41,-205.47 253.27,-209.34 247.97,-200.16 243.41,-205.47"/>
</a>
</g>
</g>
<!-- Node6 -->
<g id="Node000006" class="node">
<title>Node6</title>
<g id="a_Node000006"><a xlink:href="sgui_8h.html" target="_top" xlink:title=" ">
<polygon fill="white" stroke="#666666" points="288,-30.5 176,-30.5 176,0 288,0 288,-30.5"/>
<text text-anchor="start" x="184" y="-17" font-family="Helvetica,sans-Serif" font-size="10.00">/github/workspace/src</text>
<text text-anchor="middle" x="232" y="-5.75" font-family="Helvetica,sans-Serif" font-size="10.00">/sgui/sgui.h</text>
</a>
</g>
</g>
<!-- Node2&#45;&gt;Node6 -->
<g id="edge8_Node000002_Node000006" class="edge">
<title>Node2&#45;&gt;Node6</title>
<g id="a_edge8_Node000002_Node000006"><a xlink:title=" ">
<path fill="none" stroke="#63b8ff" d="M277.84,-199.03C276.88,-165.44 273,-111.11 259,-66.5 255.03,-53.84 247.81,-40.66 241.84,-30.98"/>
<polygon fill="#63b8ff" stroke="#63b8ff" points="274.34,-198.98 278.05,-208.9 281.34,-198.83 274.34,-198.98"/>
</a>
</g>
</g>
<!-- Node8 -->
<g id="Node000008" class="node">
<title>Node8</title>
<g id="a_Node000008"><a xlink:href="_primitive_shape_render_8cpp.html" target="_top" xlink:title=" ">
<polygon fill="white" stroke="#666666" points="445.88,-174.75 306.12,-174.75 306.12,-133 445.88,-133 445.88,-174.75"/>
<text text-anchor="start" x="314.12" y="-161.25" font-family="Helvetica,sans-Serif" font-size="10.00">/github/workspace/src</text>
<text text-anchor="start" x="314.12" y="-150" font-family="Helvetica,sans-Serif" font-size="10.00">/sgui/Render/PrimitiveShape</text>
<text text-anchor="middle" x="376" y="-138.75" font-family="Helvetica,sans-Serif" font-size="10.00">Render.cpp</text>
</a>
</g>
</g>
<!-- Node2&#45;&gt;Node8 -->
<g id="edge7_Node000002_Node000008" class="edge">
<title>Node2&#45;&gt;Node8</title>
<g id="a_edge7_Node000002_Node000008"><a xlink:title=" ">
<path fill="none" stroke="#63b8ff" d="M313.17,-203.44C325.21,-194.14 338.45,-183.9 349.67,-175.23"/>
<polygon fill="#63b8ff" stroke="#63b8ff" points="311.23,-200.51 305.46,-209.4 315.51,-206.05 311.23,-200.51"/>
</a>
</g>
</g>
<!-- Node4 -->
<g id="Node000004" class="node">
<title>Node4</title>
<g id="a_Node000004"><a xlink:href="_gui_8h.html" target="_top" xlink:title=" ">
<polygon fill="white" stroke="#666666" points="112,-97 0,-97 0,-66.5 112,-66.5 112,-97"/>
<text text-anchor="start" x="8" y="-83.5" font-family="Helvetica,sans-Serif" font-size="10.00">/github/workspace/src</text>
<text text-anchor="middle" x="56" y="-72.25" font-family="Helvetica,sans-Serif" font-size="10.00">/sgui/Gui.h</text>
</a>
</g>
</g>
<!-- Node3&#45;&gt;Node4 -->
<g id="edge3_Node000003_Node000004" class="edge">
<title>Node3&#45;&gt;Node4</title>
<g id="a_edge3_Node000003_Node000004"><a xlink:title=" ">
<path fill="none" stroke="#63b8ff" d="M151.76,-132.86C130.19,-121.57 103.7,-107.71 84.05,-97.43"/>
<polygon fill="#63b8ff" stroke="#63b8ff" points="150.09,-135.94 160.57,-137.47 153.33,-129.73 150.09,-135.94"/>
</a>
</g>
</g>
<!-- Node7 -->
<g id="Node000007" class="node">
<title>Node7</title>
<g id="a_Node000007"><a xlink:href="_plotter_8cpp.html" target="_top" xlink:title=" ">
<polygon fill="white" stroke="#666666" points="250.12,-97 129.88,-97 129.88,-66.5 250.12,-66.5 250.12,-97"/>
<text text-anchor="start" x="137.88" y="-83.5" font-family="Helvetica,sans-Serif" font-size="10.00">/github/workspace/src</text>
<text text-anchor="middle" x="190" y="-72.25" font-family="Helvetica,sans-Serif" font-size="10.00">/sgui/Render/Plotter.cpp</text>
</a>
</g>
</g>
<!-- Node3&#45;&gt;Node7 -->
<g id="edge6_Node000003_Node000007" class="edge">
<title>Node3&#45;&gt;Node7</title>
<g id="a_edge6_Node000003_Node000007"><a xlink:title=" ">
<path fill="none" stroke="#63b8ff" d="M190,-126.9C190,-116.89 190,-105.81 190,-97.26"/>
<polygon fill="#63b8ff" stroke="#63b8ff" points="186.5,-126.83 190,-136.83 193.5,-126.83 186.5,-126.83"/>
</a>
</g>
</g>
<!-- Node5 -->
<g id="Node000005" class="node">
<title>Node5</title>
<g id="a_Node000005"><a xlink:href="_gui_8cpp.html" target="_top" xlink:title=" ">
<polygon fill="white" stroke="#666666" points="112,-30.5 0,-30.5 0,0 112,0 112,-30.5"/>
<text text-anchor="start" x="8" y="-17" font-family="Helvetica,sans-Serif" font-size="10.00">/github/workspace/src</text>
<text text-anchor="middle" x="56" y="-5.75" font-family="Helvetica,sans-Serif" font-size="10.00">/sgui/Gui.cpp</text>
</a>
</g>
</g>
<!-- Node4&#45;&gt;Node5 -->
<g id="edge4_Node000004_Node000005" class="edge">
<title>Node4&#45;&gt;Node5</title>
<g id="a_edge4_Node000004_Node000005"><a xlink:title=" ">
<path fill="none" stroke="#63b8ff" d="M56,-54.81C56,-46.64 56,-37.91 56,-30.83"/>
<polygon fill="#63b8ff" stroke="#63b8ff" points="52.5,-54.6 56,-64.6 59.5,-54.6 52.5,-54.6"/>
</a>
</g>
</g>
<!-- Node4&#45;&gt;Node6 -->
<g id="edge5_Node000004_Node000006" class="edge">
<title>Node4&#45;&gt;Node6</title>
<g id="a_edge5_Node000004_Node000006"><a xlink:title=" ">
<path fill="none" stroke="#63b8ff" d="M106.4,-62.28C133.54,-52.33 166.55,-40.24 191.92,-30.94"/>
<polygon fill="#63b8ff" stroke="#63b8ff" points="105.54,-58.87 97.36,-65.59 107.95,-65.44 105.54,-58.87"/>
</a>
</g>
</g>
</g>
</svg>
