<?xml version="1.0" encoding="UTF-8" standalone="no"?>
<!DOCTYPE svg PUBLIC "-//W3C//DTD SVG 1.1//EN"
 "http://www.w3.org/Graphics/SVG/1.1/DTD/svg11.dtd">
<!-- Generated by graphviz version 12.2.1 (20241206.2353)
 -->
<!-- Title: /github/workspace/src/sgui/Render/PrimitiveShapeRender.cpp Pages: 1 -->
<svg width="1081pt" height="282pt"
 viewBox="0.00 0.00 1080.75 282.00" xmlns="http://www.w3.org/2000/svg" xmlns:xlink="http://www.w3.org/1999/xlink">
<g id="graph0" class="graph" transform="scale(1 1) rotate(0) translate(4 278)">
<title>/github/workspace/src/sgui/Render/PrimitiveShapeRender.cpp</title>
<!-- Node1 -->
<g id="Node000001" class="node">
<title>Node1</title>
<g id="a_Node000001"><a xlink:title=" ">
<polygon fill="#999999" stroke="#666666" points="493.12,-274 353.38,-274 353.38,-232.25 493.12,-232.25 493.12,-274"/>
<text text-anchor="start" x="361.38" y="-260.5" font-family="Helvetica,sans-Serif" font-size="10.00">/github/workspace/src</text>
<text text-anchor="start" x="361.38" y="-249.25" font-family="Helvetica,sans-Serif" font-size="10.00">/sgui/Render/PrimitiveShape</text>
<text text-anchor="middle" x="423.25" y="-238" font-family="Helvetica,sans-Serif" font-size="10.00">Render.cpp</text>
</a>
</g>
</g>
<!-- Node2 -->
<g id="Node000002" class="node">
<title>Node2</title>
<g id="a_Node000002"><a xlink:title=" ">
<polygon fill="#e0e0e0" stroke="#999999" points="421.5,-190.62 257,-190.62 257,-171.38 421.5,-171.38 421.5,-190.62"/>
<text text-anchor="middle" x="339.25" y="-177.12" font-family="Helvetica,sans-Serif" font-size="10.00">SFML/Graphics/RenderTarget.hpp</text>
</a>
</g>
</g>
<!-- Node1&#45;&gt;Node2 -->
<g id="edge1_Node000001_Node000002" class="edge">
<title>Node1&#45;&gt;Node2</title>
<g id="a_edge1_Node000001_Node000002"><a xlink:title=" ">
<path fill="none" stroke="#63b8ff" d="M398.95,-231.84C386.11,-221.12 370.56,-208.14 358.55,-198.11"/>
<polygon fill="#63b8ff" stroke="#63b8ff" points="360.87,-195.49 350.95,-191.77 356.39,-200.87 360.87,-195.49"/>
</a>
</g>
</g>
<!-- Node3 -->
<g id="Node000003" class="node">
<title>Node3</title>
<g id="a_Node000003"><a xlink:href="_primitive_shape_render_8h.html" target="_top" xlink:title=" ">
<polygon fill="white" stroke="#666666" points="576.62,-196.25 439.88,-196.25 439.88,-165.75 576.62,-165.75 576.62,-196.25"/>
<text text-anchor="start" x="447.88" y="-182.75" font-family="Helvetica,sans-Serif" font-size="10.00">sgui/Render/PrimitiveShape</text>
<text text-anchor="middle" x="508.25" y="-171.5" font-family="Helvetica,sans-Serif" font-size="10.00">Render.h</text>
</a>
</g>
</g>
<!-- Node1&#45;&gt;Node3 -->
<g id="edge2_Node000001_Node000003" class="edge">
<title>Node1&#45;&gt;Node3</title>
<g id="a_edge2_Node000001_Node000003"><a xlink:title=" ">
<path fill="none" stroke="#63b8ff" d="M447.84,-231.84C458.48,-223.06 470.97,-212.76 481.82,-203.81"/>
<polygon fill="#63b8ff" stroke="#63b8ff" points="483.81,-206.7 489.3,-197.63 479.36,-201.3 483.81,-206.7"/>
</a>
</g>
</g>
<!-- Node4 -->
<g id="Node000004" class="node">
<title>Node4</title>
<g id="a_Node000004"><a xlink:title=" ">
<polygon fill="#e0e0e0" stroke="#999999" points="146.5,-129.75 0,-129.75 0,-110.5 146.5,-110.5 146.5,-129.75"/>
<text text-anchor="middle" x="73.25" y="-116.25" font-family="Helvetica,sans-Serif" font-size="10.00">SFML/Graphics/Drawable.hpp</text>
</a>
</g>
</g>
<!-- Node3&#45;&gt;Node4 -->
<g id="edge3_Node000003_Node000004" class="edge">
<title>Node3&#45;&gt;Node4</title>
<g id="a_edge3_Node000003_Node000004"><a xlink:title=" ">
<path fill="none" stroke="#63b8ff" d="M439.38,-167.2C436.3,-166.7 433.24,-166.21 430.25,-165.75 337.51,-151.49 230.69,-138.6 158.24,-130.38"/>
<polygon fill="#63b8ff" stroke="#63b8ff" points="158.75,-126.92 148.42,-129.28 157.97,-133.88 158.75,-126.92"/>
</a>
</g>
</g>
<!-- Node5 -->
<g id="Node000005" class="node">
<title>Node5</title>
<g id="a_Node000005"><a xlink:title=" ">
<polygon fill="#e0e0e0" stroke="#999999" points="320.38,-129.75 164.12,-129.75 164.12,-110.5 320.38,-110.5 320.38,-129.75"/>
<text text-anchor="middle" x="242.25" y="-116.25" font-family="Helvetica,sans-Serif" font-size="10.00">SFML/Graphics/VertexArray.hpp</text>
</a>
</g>
</g>
<!-- Node3&#45;&gt;Node5 -->
<g id="edge4_Node000003_Node000005" class="edge">
<title>Node3&#45;&gt;Node5</title>
<g id="a_edge4_Node000003_Node000005"><a xlink:title=" ">
<path fill="none" stroke="#63b8ff" d="M441.81,-165.3C396.28,-155.22 336.73,-142.04 294.57,-132.71"/>
<polygon fill="#63b8ff" stroke="#63b8ff" points="295.43,-129.31 284.91,-130.57 293.92,-136.15 295.43,-129.31"/>
</a>
</g>
</g>
<!-- Node6 -->
<g id="Node000006" class="node">
<title>Node6</title>
<g id="a_Node000006"><a xlink:title=" ">
<polygon fill="#e0e0e0" stroke="#999999" points="506.38,-129.75 338.12,-129.75 338.12,-110.5 506.38,-110.5 506.38,-129.75"/>
<text text-anchor="middle" x="422.25" y="-116.25" font-family="Helvetica,sans-Serif" font-size="10.00">SFML/Graphics/Transformable.hpp</text>
</a>
</g>
</g>
<!-- Node3&#45;&gt;Node6 -->
<g id="edge5_Node000003_Node000006" class="edge">
<title>Node3&#45;&gt;Node6</title>
<g id="a_edge5_Node000003_Node000006"><a xlink:title=" ">
<path fill="none" stroke="#63b8ff" d="M486.99,-165.45C474.15,-156.65 457.8,-145.46 444.74,-136.52"/>
<polygon fill="#63b8ff" stroke="#63b8ff" points="446.99,-133.82 436.76,-131.06 443.03,-139.59 446.99,-133.82"/>
</a>
</g>
</g>
<!-- Node7 -->
<g id="Node000007" class="node">
<title>Node7</title>
<g id="a_Node000007"><a xlink:href="_clipping_layers_8h.html" target="_top" xlink:title=" ">
<polygon fill="white" stroke="#666666" points="666.25,-129.75 524.25,-129.75 524.25,-110.5 666.25,-110.5 666.25,-129.75"/>
<text text-anchor="middle" x="595.25" y="-116.25" font-family="Helvetica,sans-Serif" font-size="10.00">sgui/Render/ClippingLayers.h</text>
</a>
</g>
</g>
<!-- Node3&#45;&gt;Node7 -->
<g id="edge6_Node000003_Node000007" class="edge">
<title>Node3&#45;&gt;Node7</title>
<g id="a_edge6_Node000003_Node000007"><a xlink:title=" ">
<path fill="none" stroke="#63b8ff" d="M529.76,-165.45C542.75,-156.65 559.29,-145.46 572.5,-136.52"/>
<polygon fill="#63b8ff" stroke="#63b8ff" points="574.26,-139.55 580.58,-131.05 570.34,-133.76 574.26,-139.55"/>
</a>
</g>
</g>
<!-- Node12 -->
<g id="Node000012" class="node">
<title>Node12</title>
<g id="a_Node000012"><a xlink:href="_polygon_8h.html" target="_top" xlink:title=" ">
<polygon fill="white" stroke="#666666" points="840.38,-129.75 738.12,-129.75 738.12,-110.5 840.38,-110.5 840.38,-129.75"/>
<text text-anchor="middle" x="789.25" y="-116.25" font-family="Helvetica,sans-Serif" font-size="10.00">sgui/Core/Polygon.h</text>
</a>
</g>
</g>
<!-- Node3&#45;&gt;Node12 -->
<g id="edge11_Node000003_Node000012" class="edge">
<title>Node3&#45;&gt;Node12</title>
<g id="a_edge11_Node000003_Node000012"><a xlink:title=" ">
<path fill="none" stroke="#63b8ff" d="M576.99,-165.6C625.52,-155.43 689.67,-141.99 734.69,-132.56"/>
<polygon fill="#63b8ff" stroke="#63b8ff" points="735.15,-136.04 744.22,-130.56 733.72,-129.18 735.15,-136.04"/>
</a>
</g>
</g>
<!-- Node19 -->
<g id="Node000019" class="node">
<title>Node19</title>
<g id="a_Node000019"><a xlink:href="_primitive_shape_render_8tpp.html" target="_top" xlink:title=" ">
<polygon fill="white" stroke="#666666" points="986.5,-129.75 858,-129.75 858,-110.5 986.5,-110.5 986.5,-129.75"/>
<text text-anchor="middle" x="922.25" y="-116.25" font-family="Helvetica,sans-Serif" font-size="10.00">PrimitiveShapeRender.tpp</text>
</a>
</g>
</g>
<!-- Node3&#45;&gt;Node19 -->
<g id="edge19_Node000003_Node000019" class="edge">
<title>Node3&#45;&gt;Node19</title>
<g id="a_edge19_Node000003_Node000019"><a xlink:title=" ">
<path fill="none" stroke="#63b8ff" d="M577.08,-170.21C651.7,-159.6 770.41,-142.72 847.33,-131.78"/>
<polygon fill="#63b8ff" stroke="#63b8ff" points="847.46,-135.3 856.86,-130.42 846.47,-128.37 847.46,-135.3"/>
</a>
</g>
</g>
<!-- Node8 -->
<g id="Node000008" class="node">
<title>Node8</title>
<g id="a_Node000008"><a xlink:title=" ">
<polygon fill="#e0e0e0" stroke="#999999" points="573.75,-19.25 530.75,-19.25 530.75,0 573.75,0 573.75,-19.25"/>
<text text-anchor="middle" x="552.25" y="-5.75" font-family="Helvetica,sans-Serif" font-size="10.00">vector</text>
</a>
</g>
</g>
<!-- Node7&#45;&gt;Node8 -->
<g id="edge7_Node000007_Node000008" class="edge">
<title>Node7&#45;&gt;Node8</title>
<g id="a_edge7_Node000007_Node000008"><a xlink:title=" ">
<path fill="none" stroke="#63b8ff" d="M523.91,-111.57C476.42,-104.9 420.11,-93.26 405.25,-74.5 372.88,-33.64 466.6,-18.38 519.21,-13.13"/>
<polygon fill="#63b8ff" stroke="#63b8ff" points="519.22,-16.64 528.86,-12.24 518.58,-9.67 519.22,-16.64"/>
</a>
</g>
</g>
<!-- Node9 -->
<g id="Node000009" class="node">
<title>Node9</title>
<g id="a_Node000009"><a xlink:title=" ">
<polygon fill="#e0e0e0" stroke="#999999" points="459.88,-74.5 414.62,-74.5 414.62,-55.25 459.88,-55.25 459.88,-74.5"/>
<text text-anchor="middle" x="437.25" y="-61" font-family="Helvetica,sans-Serif" font-size="10.00">cstdint</text>
</a>
</g>
</g>
<!-- Node7&#45;&gt;Node9 -->
<g id="edge8_Node000007_Node000009" class="edge">
<title>Node7&#45;&gt;Node9</title>
<g id="a_edge8_Node000007_Node000009"><a xlink:title=" ">
<path fill="none" stroke="#63b8ff" d="M568.45,-110.09C541.55,-101.03 500.05,-87.04 470.95,-77.23"/>
<polygon fill="#63b8ff" stroke="#63b8ff" points="472.1,-73.93 461.51,-74.05 469.87,-80.56 472.1,-73.93"/>
</a>
</g>
</g>
<!-- Node10 -->
<g id="Node000010" class="node">
<title>Node10</title>
<g id="a_Node000010"><a xlink:title=" ">
<polygon fill="#e0e0e0" stroke="#999999" points="604.38,-74.5 478.12,-74.5 478.12,-55.25 604.38,-55.25 604.38,-74.5"/>
<text text-anchor="middle" x="541.25" y="-61" font-family="Helvetica,sans-Serif" font-size="10.00">SFML/Graphics/Rect.hpp</text>
</a>
</g>
</g>
<!-- Node7&#45;&gt;Node10 -->
<g id="edge9_Node000007_Node000010" class="edge">
<title>Node7&#45;&gt;Node10</title>
<g id="a_edge9_Node000007_Node000010"><a xlink:title=" ">
<path fill="none" stroke="#63b8ff" d="M586.33,-110.33C578.8,-102.9 567.78,-92.04 558.52,-82.91"/>
<polygon fill="#63b8ff" stroke="#63b8ff" points="561.02,-80.45 551.44,-75.92 556.1,-85.44 561.02,-80.45"/>
</a>
</g>
</g>
<!-- Node11 -->
<g id="Node000011" class="node">
<title>Node11</title>
<g id="a_Node000011"><a xlink:title=" ">
<polygon fill="#e0e0e0" stroke="#999999" points="750.12,-74.5 622.38,-74.5 622.38,-55.25 750.12,-55.25 750.12,-74.5"/>
<text text-anchor="middle" x="686.25" y="-61" font-family="Helvetica,sans-Serif" font-size="10.00">SFML/Graphics/View.hpp</text>
</a>
</g>
</g>
<!-- Node7&#45;&gt;Node11 -->
<g id="edge10_Node000007_Node000011" class="edge">
<title>Node7&#45;&gt;Node11</title>
<g id="a_edge10_Node000007_Node000011"><a xlink:title=" ">
<path fill="none" stroke="#63b8ff" d="M610.69,-110.09C624.41,-102.06 644.75,-90.16 660.87,-80.73"/>
<polygon fill="#63b8ff" stroke="#63b8ff" points="662.57,-83.79 669.43,-75.72 659.03,-77.75 662.57,-83.79"/>
</a>
</g>
</g>
<!-- Node13 -->
<g id="Node000013" class="node">
<title>Node13</title>
<g id="a_Node000013"><a xlink:title=" ">
<polygon fill="#e0e0e0" stroke="#999999" points="810.75,-74.5 767.75,-74.5 767.75,-55.25 810.75,-55.25 810.75,-74.5"/>
<text text-anchor="middle" x="789.25" y="-61" font-family="Helvetica,sans-Serif" font-size="10.00">cmath</text>
</a>
</g>
</g>
<!-- Node12&#45;&gt;Node13 -->
<g id="edge12_Node000012_Node000013" class="edge">
<title>Node12&#45;&gt;Node13</title>
<g id="a_edge12_Node000012_Node000013"><a xlink:title=" ">
<path fill="none" stroke="#63b8ff" d="M789.25,-110.33C789.25,-103.82 789.25,-94.67 789.25,-86.37"/>
<polygon fill="#63b8ff" stroke="#63b8ff" points="792.75,-86.37 789.25,-76.37 785.75,-86.37 792.75,-86.37"/>
</a>
</g>
</g>
<!-- Node14 -->
<g id="Node000014" class="node">
<title>Node14</title>
<g id="a_Node000014"><a xlink:href="_shapes_8h.html" target="_top" xlink:title=" ">
<polygon fill="white" stroke="#666666" points="929.62,-74.5 828.88,-74.5 828.88,-55.25 929.62,-55.25 929.62,-74.5"/>
<text text-anchor="middle" x="879.25" y="-61" font-family="Helvetica,sans-Serif" font-size="10.00">sgui/Core/Shapes.h</text>
</a>
</g>
</g>
<!-- Node12&#45;&gt;Node14 -->
<g id="edge13_Node000012_Node000014" class="edge">
<title>Node12&#45;&gt;Node14</title>
<g id="a_edge13_Node000012_Node000014"><a xlink:title=" ">
<path fill="none" stroke="#63b8ff" d="M804.52,-110.09C818.09,-102.06 838.2,-90.16 854.15,-80.73"/>
<polygon fill="#63b8ff" stroke="#63b8ff" points="855.78,-83.83 862.61,-75.72 852.22,-77.8 855.78,-83.83"/>
</a>
</g>
</g>
<!-- Node18 -->
<g id="Node000018" class="node">
<title>Node18</title>
<g id="a_Node000018"><a xlink:href="_polygon_8tpp.html" target="_top" xlink:title=" ">
<polygon fill="white" stroke="#666666" points="1058.5,-74.5 948,-74.5 948,-55.25 1058.5,-55.25 1058.5,-74.5"/>
<text text-anchor="middle" x="1003.25" y="-61" font-family="Helvetica,sans-Serif" font-size="10.00">sgui/Core/Polygon.tpp</text>
</a>
</g>
</g>
<!-- Node12&#45;&gt;Node18 -->
<g id="edge18_Node000012_Node000018" class="edge">
<title>Node12&#45;&gt;Node18</title>
<g id="a_edge18_Node000012_Node000018"><a xlink:title=" ">
<path fill="none" stroke="#63b8ff" d="M825.55,-110.09C861.37,-101.18 916.31,-87.51 955.62,-77.73"/>
<polygon fill="#63b8ff" stroke="#63b8ff" points="956.44,-81.13 965.3,-75.32 954.75,-74.34 956.44,-81.13"/>
</a>
</g>
</g>
<!-- Node14&#45;&gt;Node8 -->
<g id="edge15_Node000014_Node000008" class="edge">
<title>Node14&#45;&gt;Node8</title>
<g id="a_edge15_Node000014_Node000008"><a xlink:title=" ">
<path fill="none" stroke="#63b8ff" d="M828.52,-55.61C760.69,-44.57 642.37,-25.3 585.13,-15.98"/>
<polygon fill="#63b8ff" stroke="#63b8ff" points="585.81,-12.54 575.38,-14.39 584.69,-19.45 585.81,-12.54"/>
</a>
</g>
</g>
<!-- Node15 -->
<g id="Node000015" class="node">
<title>Node15</title>
<g id="a_Node000015"><a xlink:title=" ">
<polygon fill="#e0e0e0" stroke="#999999" points="794.75,-19.25 757.75,-19.25 757.75,0 794.75,0 794.75,-19.25"/>
<text text-anchor="middle" x="776.25" y="-5.75" font-family="Helvetica,sans-Serif" font-size="10.00">array</text>
</a>
</g>
</g>
<!-- Node14&#45;&gt;Node15 -->
<g id="edge14_Node000014_Node000015" class="edge">
<title>Node14&#45;&gt;Node15</title>
<g id="a_edge14_Node000014_Node000015"><a xlink:title=" ">
<path fill="none" stroke="#63b8ff" d="M861.78,-54.84C845.94,-46.66 822.34,-34.46 803.94,-24.94"/>
<polygon fill="#63b8ff" stroke="#63b8ff" points="805.64,-21.88 795.15,-20.4 802.43,-28.1 805.64,-21.88"/>
</a>
</g>
</g>
<!-- Node16 -->
<g id="Node000016" class="node">
<title>Node16</title>
<g id="a_Node000016"><a xlink:title=" ">
<polygon fill="#e0e0e0" stroke="#999999" points="946.12,-19.25 812.38,-19.25 812.38,0 946.12,0 946.12,-19.25"/>
<text text-anchor="middle" x="879.25" y="-5.75" font-family="Helvetica,sans-Serif" font-size="10.00">SFML/System/Vector2.hpp</text>
</a>
</g>
</g>
<!-- Node14&#45;&gt;Node16 -->
<g id="edge16_Node000014_Node000016" class="edge">
<title>Node14&#45;&gt;Node16</title>
<g id="a_edge16_Node000014_Node000016"><a xlink:title=" ">
<path fill="none" stroke="#63b8ff" d="M879.25,-55.08C879.25,-48.57 879.25,-39.42 879.25,-31.12"/>
<polygon fill="#63b8ff" stroke="#63b8ff" points="882.75,-31.12 879.25,-21.12 875.75,-31.12 882.75,-31.12"/>
</a>
</g>
</g>
<!-- Node17 -->
<g id="Node000017" class="node">
<title>Node17</title>
<g id="a_Node000017"><a xlink:href="_shapes_8tpp.html" target="_top" xlink:title=" ">
<polygon fill="white" stroke="#666666" points="1072.75,-19.25 963.75,-19.25 963.75,0 1072.75,0 1072.75,-19.25"/>
<text text-anchor="middle" x="1018.25" y="-5.75" font-family="Helvetica,sans-Serif" font-size="10.00">sgui/Core/Shapes.tpp</text>
</a>
</g>
</g>
<!-- Node14&#45;&gt;Node17 -->
<g id="edge17_Node000014_Node000017" class="edge">
<title>Node14&#45;&gt;Node17</title>
<g id="a_edge17_Node000014_Node000017"><a xlink:title=" ">
<path fill="none" stroke="#63b8ff" d="M902.83,-54.84C925.09,-46.31 958.74,-33.42 983.97,-23.76"/>
<polygon fill="#63b8ff" stroke="#63b8ff" points="985.06,-27.09 993.14,-20.24 982.55,-20.55 985.06,-27.09"/>
</a>
</g>
</g>
</g>
</svg>
