<?xml version="1.0" encoding="UTF-8" standalone="no"?>
<!DOCTYPE svg PUBLIC "-//W3C//DTD SVG 1.1//EN"
 "http://www.w3.org/Graphics/SVG/1.1/DTD/svg11.dtd">
<!-- Generated by graphviz version 12.2.1 (20241206.2353)
 -->
<!-- Title: /github/workspace/src/sgui/Resources/ResourcesHolder.h Pages: 1 -->
<svg width="597pt" height="105pt"
 viewBox="0.00 0.00 597.00 105.00" xmlns="http://www.w3.org/2000/svg" xmlns:xlink="http://www.w3.org/1999/xlink">
<g id="graph0" class="graph" transform="scale(1 1) rotate(0) translate(4 101)">
<title>/github/workspace/src/sgui/Resources/ResourcesHolder.h</title>
<!-- Node1 -->
<g id="Node000001" class="node">
<title>Node1</title>
<g id="a_Node000001"><a xlink:title=" ">
<polygon fill="#999999" stroke="#666666" points="297.5,-97 125.5,-97 125.5,-66.5 297.5,-66.5 297.5,-97"/>
<text text-anchor="start" x="133.5" y="-83.5" font-family="Helvetica,sans-Serif" font-size="10.00">/github/workspace/src</text>
<text text-anchor="middle" x="211.5" y="-72.25" font-family="Helvetica,sans-Serif" font-size="10.00">/sgui/Resources/ResourcesHolder.h</text>
</a>
</g>
</g>
<!-- Node2 -->
<g id="Node000002" class="node">
<title>Node2</title>
<g id="a_Node000002"><a xlink:title=" ">
<polygon fill="#e0e0e0" stroke="#999999" points="43,-24.88 0,-24.88 0,-5.63 43,-5.63 43,-24.88"/>
<text text-anchor="middle" x="21.5" y="-11.38" font-family="Helvetica,sans-Serif" font-size="10.00">vector</text>
</a>
</g>
</g>
<!-- Node1&#45;&gt;Node2 -->
<g id="edge1_Node000001_Node000002" class="edge">
<title>Node1&#45;&gt;Node2</title>
<g id="a_edge1_Node000001_Node000002"><a xlink:title=" ">
<path fill="none" stroke="#63b8ff" d="M159.38,-66.07C128.06,-56.8 87.61,-44.06 52.5,-30.5 51.88,-30.26 51.25,-30.01 50.62,-29.76"/>
<polygon fill="#63b8ff" stroke="#63b8ff" points="52.32,-26.68 41.75,-25.97 49.57,-33.12 52.32,-26.68"/>
</a>
</g>
</g>
<!-- Node3 -->
<g id="Node000003" class="node">
<title>Node3</title>
<g id="a_Node000003"><a xlink:title=" ">
<polygon fill="#e0e0e0" stroke="#999999" points="111.75,-24.88 61.25,-24.88 61.25,-5.63 111.75,-5.63 111.75,-24.88"/>
<text text-anchor="middle" x="86.5" y="-11.38" font-family="Helvetica,sans-Serif" font-size="10.00">memory</text>
</a>
</g>
</g>
<!-- Node1&#45;&gt;Node3 -->
<g id="edge2_Node000001_Node000003" class="edge">
<title>Node1&#45;&gt;Node3</title>
<g id="a_edge2_Node000001_Node000003"><a xlink:title=" ">
<path fill="none" stroke="#63b8ff" d="M183.14,-66.11C162.4,-55.42 134.44,-40.99 113.93,-30.4"/>
<polygon fill="#63b8ff" stroke="#63b8ff" points="115.8,-27.43 105.31,-25.95 112.59,-33.65 115.8,-27.43"/>
</a>
</g>
</g>
<!-- Node4 -->
<g id="Node000004" class="node">
<title>Node4</title>
<g id="a_Node000004"><a xlink:title=" ">
<polygon fill="#e0e0e0" stroke="#999999" points="169.5,-24.88 129.5,-24.88 129.5,-5.63 169.5,-5.63 169.5,-24.88"/>
<text text-anchor="middle" x="149.5" y="-11.38" font-family="Helvetica,sans-Serif" font-size="10.00">string</text>
</a>
</g>
</g>
<!-- Node1&#45;&gt;Node4 -->
<g id="edge3_Node000001_Node000004" class="edge">
<title>Node1&#45;&gt;Node4</title>
<g id="a_edge3_Node000001_Node000004"><a xlink:title=" ">
<path fill="none" stroke="#63b8ff" d="M197.43,-66.11C188.04,-56.34 175.65,-43.45 165.82,-33.23"/>
<polygon fill="#63b8ff" stroke="#63b8ff" points="168.48,-30.95 159.03,-26.16 163.44,-35.8 168.48,-30.95"/>
</a>
</g>
</g>
<!-- Node5 -->
<g id="Node000005" class="node">
<title>Node5</title>
<g id="a_Node000005"><a xlink:title=" ">
<polygon fill="#e0e0e0" stroke="#999999" points="235.62,-24.88 187.38,-24.88 187.38,-5.63 235.62,-5.63 235.62,-24.88"/>
<text text-anchor="middle" x="211.5" y="-11.38" font-family="Helvetica,sans-Serif" font-size="10.00">cassert</text>
</a>
</g>
</g>
<!-- Node1&#45;&gt;Node5 -->
<g id="edge4_Node000001_Node000005" class="edge">
<title>Node1&#45;&gt;Node5</title>
<g id="a_edge4_Node000001_Node000005"><a xlink:title=" ">
<path fill="none" stroke="#63b8ff" d="M211.5,-66.11C211.5,-57.33 211.5,-46.02 211.5,-36.4"/>
<polygon fill="#63b8ff" stroke="#63b8ff" points="215,-36.59 211.5,-26.59 208,-36.59 215,-36.59"/>
</a>
</g>
</g>
<!-- Node6 -->
<g id="Node000006" class="node">
<title>Node6</title>
<g id="a_Node000006"><a xlink:title=" ">
<polygon fill="#e0e0e0" stroke="#999999" points="336.88,-24.88 254.12,-24.88 254.12,-5.63 336.88,-5.63 336.88,-24.88"/>
<text text-anchor="middle" x="295.5" y="-11.38" font-family="Helvetica,sans-Serif" font-size="10.00">unordered_map</text>
</a>
</g>
</g>
<!-- Node1&#45;&gt;Node6 -->
<g id="edge5_Node000001_Node000006" class="edge">
<title>Node1&#45;&gt;Node6</title>
<g id="a_edge5_Node000001_Node000006"><a xlink:title=" ">
<path fill="none" stroke="#63b8ff" d="M230.56,-66.11C243.8,-55.94 261.44,-42.41 274.99,-32"/>
<polygon fill="#63b8ff" stroke="#63b8ff" points="277.01,-34.86 282.81,-25.99 272.75,-29.31 277.01,-34.86"/>
</a>
</g>
</g>
<!-- Node7 -->
<g id="Node000007" class="node">
<title>Node7</title>
<g id="a_Node000007"><a xlink:title=" ">
<polygon fill="#e0e0e0" stroke="#999999" points="438.25,-24.88 354.75,-24.88 354.75,-5.63 438.25,-5.63 438.25,-24.88"/>
<text text-anchor="middle" x="396.5" y="-11.38" font-family="Helvetica,sans-Serif" font-size="10.00">spdlog/spdlog.h</text>
</a>
</g>
</g>
<!-- Node1&#45;&gt;Node7 -->
<g id="edge6_Node000001_Node000007" class="edge">
<title>Node1&#45;&gt;Node7</title>
<g id="a_edge6_Node000001_Node000007"><a xlink:title=" ">
<path fill="none" stroke="#63b8ff" d="M253.48,-66.11C285.48,-54.96 329.11,-39.75 359.74,-29.07"/>
<polygon fill="#63b8ff" stroke="#63b8ff" points="360.67,-32.45 368.96,-25.85 358.36,-25.84 360.67,-32.45"/>
</a>
</g>
</g>
<!-- Node8 -->
<g id="Node000008" class="node">
<title>Node8</title>
<g id="a_Node000008"><a xlink:href="_resources_holder_8tpp.html" target="_top" xlink:title=" ">
<polygon fill="white" stroke="#666666" points="589,-30.5 456,-30.5 456,0 589,0 589,-30.5"/>
<text text-anchor="start" x="464" y="-17" font-family="Helvetica,sans-Serif" font-size="10.00">sgui/Resources/Resources</text>
<text text-anchor="middle" x="522.5" y="-5.75" font-family="Helvetica,sans-Serif" font-size="10.00">Holder.tpp</text>
</a>
</g>
</g>
<!-- Node1&#45;&gt;Node8 -->
<g id="edge7_Node000001_Node000008" class="edge">
<title>Node1&#45;&gt;Node8</title>
<g id="a_edge7_Node000001_Node000008"><a xlink:title=" ">
<path fill="none" stroke="#63b8ff" d="M282.46,-66.03C330.79,-56.01 394.78,-42.74 444.54,-32.42"/>
<polygon fill="#63b8ff" stroke="#63b8ff" points="445.01,-35.9 454.09,-30.44 443.59,-29.04 445.01,-35.9"/>
</a>
</g>
</g>
</g>
</svg>
