<?xml version="1.0" encoding="UTF-8" standalone="no"?>
<!DOCTYPE svg PUBLIC "-//W3C//DTD SVG 1.1//EN"
 "http://www.w3.org/Graphics/SVG/1.1/DTD/svg11.dtd">
<!-- Generated by graphviz version 12.2.1 (20241206.2353)
 -->
<!-- Title: /github/workspace/src/sgui/Serialization/SerializeGUI.h Pages: 1 -->
<svg width="1304pt" height="349pt"
 viewBox="0.00 0.00 1303.50 348.50" xmlns="http://www.w3.org/2000/svg" xmlns:xlink="http://www.w3.org/1999/xlink">
<g id="graph0" class="graph" transform="scale(1 1) rotate(0) translate(4 344.5)">
<title>/github/workspace/src/sgui/Serialization/SerializeGUI.h</title>
<!-- Node1 -->
<g id="Node000001" class="node">
<title>Node1</title>
<g id="a_Node000001"><a xlink:title=" ">
<polygon fill="#999999" stroke="#666666" points="782.88,-340.5 650.62,-340.5 650.62,-298.75 782.88,-298.75 782.88,-340.5"/>
<text text-anchor="start" x="658.62" y="-327" font-family="Helvetica,sans-Serif" font-size="10.00">/github/workspace/src</text>
<text text-anchor="start" x="658.62" y="-315.75" font-family="Helvetica,sans-Serif" font-size="10.00">/sgui/Serialization/Serialize</text>
<text text-anchor="middle" x="716.75" y="-304.5" font-family="Helvetica,sans-Serif" font-size="10.00">GUI.h</text>
</a>
</g>
</g>
<!-- Node2 -->
<g id="Node000002" class="node">
<title>Node2</title>
<g id="a_Node000002"><a xlink:title=" ">
<polygon fill="#e0e0e0" stroke="#999999" points="959.25,-190.62 862.25,-190.62 862.25,-171.38 959.25,-171.38 959.25,-190.62"/>
<text text-anchor="middle" x="910.75" y="-177.12" font-family="Helvetica,sans-Serif" font-size="10.00">nlohmann/json.hpp</text>
</a>
</g>
</g>
<!-- Node1&#45;&gt;Node2 -->
<g id="edge1_Node000001_Node000002" class="edge">
<title>Node1&#45;&gt;Node2</title>
<g id="a_edge1_Node000001_Node000002"><a xlink:title=" ">
<path fill="none" stroke="#63b8ff" d="M747.29,-298.45C763.05,-287.95 782.53,-274.8 799.75,-262.75 831.24,-240.71 867.11,-214.39 889.35,-197.93"/>
<polygon fill="#63b8ff" stroke="#63b8ff" points="891.37,-200.78 897.32,-192.01 887.2,-195.16 891.37,-200.78"/>
</a>
</g>
</g>
<!-- Node3 -->
<g id="Node000003" class="node">
<title>Node3</title>
<g id="a_Node000003"><a xlink:href="_panel_8h.html" target="_top" xlink:title=" ">
<polygon fill="white" stroke="#666666" points="107.5,-190.62 0,-190.62 0,-171.38 107.5,-171.38 107.5,-190.62"/>
<text text-anchor="middle" x="53.75" y="-177.12" font-family="Helvetica,sans-Serif" font-size="10.00">sgui/Widgets/Panel.h</text>
</a>
</g>
</g>
<!-- Node1&#45;&gt;Node3 -->
<g id="edge2_Node000001_Node000003" class="edge">
<title>Node1&#45;&gt;Node3</title>
<g id="a_edge2_Node000001_Node000003"><a xlink:title=" ">
<path fill="none" stroke="#63b8ff" d="M650.46,-313.86C566.58,-306.91 418.04,-291.58 293.75,-262.75 217.79,-245.13 131.87,-213.16 86.26,-195.19"/>
<polygon fill="#63b8ff" stroke="#63b8ff" points="87.83,-192.04 77.24,-191.6 85.24,-198.55 87.83,-192.04"/>
</a>
</g>
</g>
<!-- Node12 -->
<g id="Node000012" class="node">
<title>Node12</title>
<g id="a_Node000012"><a xlink:href="_layout_8h.html" target="_top" xlink:title=" ">
<polygon fill="white" stroke="#666666" points="426.38,-257.12 303.12,-257.12 303.12,-237.88 426.38,-237.88 426.38,-257.12"/>
<text text-anchor="middle" x="364.75" y="-243.62" font-family="Helvetica,sans-Serif" font-size="10.00">sgui/Resources/Layout.h</text>
</a>
</g>
</g>
<!-- Node1&#45;&gt;Node12 -->
<g id="edge13_Node000001_Node000012" class="edge">
<title>Node1&#45;&gt;Node12</title>
<g id="a_edge13_Node000001_Node000012"><a xlink:title=" ">
<path fill="none" stroke="#63b8ff" d="M650.13,-305.35C584.08,-292.19 483.99,-272.25 421.58,-259.82"/>
<polygon fill="#63b8ff" stroke="#63b8ff" points="422.36,-256.41 411.87,-257.89 420.99,-263.27 422.36,-256.41"/>
</a>
</g>
</g>
<!-- Node19 -->
<g id="Node000019" class="node">
<title>Node19</title>
<g id="a_Node000019"><a xlink:href="_texture_atlas_8h.html" target="_top" xlink:title=" ">
<polygon fill="white" stroke="#666666" points="791.12,-257.12 642.38,-257.12 642.38,-237.88 791.12,-237.88 791.12,-257.12"/>
<text text-anchor="middle" x="716.75" y="-243.62" font-family="Helvetica,sans-Serif" font-size="10.00">sgui/Resources/TextureAtlas.h</text>
</a>
</g>
</g>
<!-- Node1&#45;&gt;Node19 -->
<g id="edge24_Node000001_Node000019" class="edge">
<title>Node1&#45;&gt;Node19</title>
<g id="a_edge24_Node000001_Node000019"><a xlink:title=" ">
<path fill="none" stroke="#63b8ff" d="M716.75,-298.34C716.75,-289 716.75,-277.94 716.75,-268.62"/>
<polygon fill="#63b8ff" stroke="#63b8ff" points="720.25,-268.82 716.75,-258.82 713.25,-268.82 720.25,-268.82"/>
</a>
</g>
</g>
<!-- Node22 -->
<g id="Node000022" class="node">
<title>Node22</title>
<g id="a_Node000022"><a xlink:href="_serialize_s_f_m_l_8h.html" target="_top" xlink:title=" ">
<polygon fill="white" stroke="#666666" points="1051.88,-262.75 961.62,-262.75 961.62,-232.25 1051.88,-232.25 1051.88,-262.75"/>
<text text-anchor="start" x="969.62" y="-249.25" font-family="Helvetica,sans-Serif" font-size="10.00">sgui/Serialization</text>
<text text-anchor="middle" x="1006.75" y="-238" font-family="Helvetica,sans-Serif" font-size="10.00">/SerializeSFML.h</text>
</a>
</g>
</g>
<!-- Node1&#45;&gt;Node22 -->
<g id="edge30_Node000001_Node000022" class="edge">
<title>Node1&#45;&gt;Node22</title>
<g id="a_edge30_Node000001_Node000022"><a xlink:title=" ">
<path fill="none" stroke="#63b8ff" d="M783.28,-302.54C833.75,-290.33 902.37,-273.74 950.2,-262.17"/>
<polygon fill="#63b8ff" stroke="#63b8ff" points="950.92,-265.6 959.81,-259.85 949.27,-258.8 950.92,-265.6"/>
</a>
</g>
</g>
<!-- Node4 -->
<g id="Node000004" class="node">
<title>Node4</title>
<g id="a_Node000004"><a xlink:title=" ">
<polygon fill="#e0e0e0" stroke="#999999" points="466.75,-129.75 426.75,-129.75 426.75,-110.5 466.75,-110.5 466.75,-129.75"/>
<text text-anchor="middle" x="446.75" y="-116.25" font-family="Helvetica,sans-Serif" font-size="10.00">string</text>
</a>
</g>
</g>
<!-- Node3&#45;&gt;Node4 -->
<g id="edge3_Node000003_Node000004" class="edge">
<title>Node3&#45;&gt;Node4</title>
<g id="a_edge3_Node000003_Node000004"><a xlink:title=" ">
<path fill="none" stroke="#63b8ff" d="M94.65,-170.94C103.56,-169.11 112.96,-167.27 121.75,-165.75 228.89,-147.19 356.99,-131.49 415.19,-124.71"/>
<polygon fill="#63b8ff" stroke="#63b8ff" points="415.48,-128.2 425.01,-123.58 414.68,-121.25 415.48,-128.2"/>
</a>
</g>
</g>
<!-- Node5 -->
<g id="Node000005" class="node">
<title>Node5</title>
<g id="a_Node000005"><a xlink:title=" ">
<polygon fill="#e0e0e0" stroke="#999999" points="111.75,-129.75 53.75,-129.75 53.75,-110.5 111.75,-110.5 111.75,-129.75"/>
<text text-anchor="middle" x="82.75" y="-116.25" font-family="Helvetica,sans-Serif" font-size="10.00">functional</text>
</a>
</g>
</g>
<!-- Node3&#45;&gt;Node5 -->
<g id="edge4_Node000003_Node000005" class="edge">
<title>Node3&#45;&gt;Node5</title>
<g id="a_edge4_Node000003_Node000005"><a xlink:title=" ">
<path fill="none" stroke="#63b8ff" d="M58.15,-171.06C62.16,-162.93 68.2,-150.67 73.29,-140.33"/>
<polygon fill="#63b8ff" stroke="#63b8ff" points="76.36,-142.03 77.64,-131.51 70.08,-138.93 76.36,-142.03"/>
</a>
</g>
</g>
<!-- Node6 -->
<g id="Node000006" class="node">
<title>Node6</title>
<g id="a_Node000006"><a xlink:title=" ">
<polygon fill="#e0e0e0" stroke="#999999" points="461.62,-19.25 327.88,-19.25 327.88,0 461.62,0 461.62,-19.25"/>
<text text-anchor="middle" x="394.75" y="-5.75" font-family="Helvetica,sans-Serif" font-size="10.00">SFML/System/Vector2.hpp</text>
</a>
</g>
</g>
<!-- Node3&#45;&gt;Node6 -->
<g id="edge5_Node000003_Node000006" class="edge">
<title>Node3&#45;&gt;Node6</title>
<g id="a_edge5_Node000003_Node000006"><a xlink:title=" ">
<path fill="none" stroke="#63b8ff" d="M49.32,-171.1C38.8,-148.56 15.33,-88.66 44.75,-55.25 62.42,-35.18 218.77,-21.73 316.43,-15.21"/>
<polygon fill="#63b8ff" stroke="#63b8ff" points="316.49,-18.71 326.23,-14.56 316.03,-11.73 316.49,-18.71"/>
</a>
</g>
</g>
<!-- Node7 -->
<g id="Node000007" class="node">
<title>Node7</title>
<g id="a_Node000007"><a xlink:title=" ">
<polygon fill="#e0e0e0" stroke="#999999" points="896.88,-129.75 770.62,-129.75 770.62,-110.5 896.88,-110.5 896.88,-129.75"/>
<text text-anchor="middle" x="833.75" y="-116.25" font-family="Helvetica,sans-Serif" font-size="10.00">SFML/Graphics/Rect.hpp</text>
</a>
</g>
</g>
<!-- Node3&#45;&gt;Node7 -->
<g id="edge6_Node000003_Node000007" class="edge">
<title>Node3&#45;&gt;Node7</title>
<g id="a_edge6_Node000003_Node000007"><a xlink:title=" ">
<path fill="none" stroke="#63b8ff" d="M107.91,-171.6C123.04,-169.46 139.51,-167.32 154.75,-165.75 373.83,-143.13 633.92,-129.79 759.11,-124.21"/>
<polygon fill="#63b8ff" stroke="#63b8ff" points="759.08,-127.71 768.92,-123.78 758.77,-120.72 759.08,-127.71"/>
</a>
</g>
</g>
<!-- Node8 -->
<g id="Node000008" class="node">
<title>Node8</title>
<g id="a_Node000008"><a xlink:href="_options_8h.html" target="_top" xlink:title=" ">
<polygon fill="white" stroke="#666666" points="313,-129.75 196.5,-129.75 196.5,-110.5 313,-110.5 313,-129.75"/>
<text text-anchor="middle" x="254.75" y="-116.25" font-family="Helvetica,sans-Serif" font-size="10.00">sgui/Widgets/Options.h</text>
</a>
</g>
</g>
<!-- Node3&#45;&gt;Node8 -->
<g id="edge7_Node000003_Node000008" class="edge">
<title>Node3&#45;&gt;Node8</title>
<g id="a_edge7_Node000003_Node000008"><a xlink:title=" ">
<path fill="none" stroke="#63b8ff" d="M84.72,-170.93C119.09,-160.86 174.76,-144.55 212.98,-133.36"/>
<polygon fill="#63b8ff" stroke="#63b8ff" points="213.68,-136.8 222.3,-130.63 211.72,-130.08 213.68,-136.8"/>
</a>
</g>
</g>
<!-- Node8&#45;&gt;Node6 -->
<g id="edge8_Node000008_Node000006" class="edge">
<title>Node8&#45;&gt;Node6</title>
<g id="a_edge8_Node000008_Node000006"><a xlink:title=" ">
<path fill="none" stroke="#63b8ff" d="M272.21,-110.06C287.68,-101.7 310.56,-88.5 328.75,-74.5 347.23,-60.28 366.14,-41.46 378.95,-27.94"/>
<polygon fill="#63b8ff" stroke="#63b8ff" points="381.48,-30.35 385.74,-20.65 376.36,-25.58 381.48,-30.35"/>
</a>
</g>
</g>
<!-- Node9 -->
<g id="Node000009" class="node">
<title>Node9</title>
<g id="a_Node000009"><a xlink:href="_constraints_8h.html" target="_top" xlink:title=" ">
<polygon fill="white" stroke="#666666" points="507.88,-74.5 375.62,-74.5 375.62,-55.25 507.88,-55.25 507.88,-74.5"/>
<text text-anchor="middle" x="441.75" y="-61" font-family="Helvetica,sans-Serif" font-size="10.00">sgui/Widgets/Constraints.h</text>
</a>
</g>
</g>
<!-- Node8&#45;&gt;Node9 -->
<g id="edge9_Node000008_Node000009" class="edge">
<title>Node8&#45;&gt;Node9</title>
<g id="a_edge9_Node000008_Node000009"><a xlink:title=" ">
<path fill="none" stroke="#63b8ff" d="M286.47,-110.09C317.5,-101.26 364.96,-87.74 399.24,-77.98"/>
<polygon fill="#63b8ff" stroke="#63b8ff" points="399.76,-81.47 408.42,-75.37 397.84,-74.74 399.76,-81.47"/>
</a>
</g>
</g>
<!-- Node10 -->
<g id="Node000010" class="node">
<title>Node10</title>
<g id="a_Node000010"><a xlink:href="_widgets_8h.html" target="_top" xlink:title=" ">
<polygon fill="white" stroke="#666666" points="171.75,-74.5 53.75,-74.5 53.75,-55.25 171.75,-55.25 171.75,-74.5"/>
<text text-anchor="middle" x="112.75" y="-61" font-family="Helvetica,sans-Serif" font-size="10.00">sgui/Widgets/Widgets.h</text>
</a>
</g>
</g>
<!-- Node8&#45;&gt;Node10 -->
<g id="edge11_Node000008_Node000010" class="edge">
<title>Node8&#45;&gt;Node10</title>
<g id="a_edge11_Node000008_Node000010"><a xlink:title=" ">
<path fill="none" stroke="#63b8ff" d="M230.66,-110.09C207.81,-101.52 173.23,-88.56 147.42,-78.88"/>
<polygon fill="#63b8ff" stroke="#63b8ff" points="148.97,-75.72 138.37,-75.48 146.51,-82.27 148.97,-75.72"/>
</a>
</g>
</g>
<!-- Node11 -->
<g id="Node000011" class="node">
<title>Node11</title>
<g id="a_Node000011"><a xlink:href="_item_states_8h.html" target="_top" xlink:title=" ">
<polygon fill="white" stroke="#666666" points="320.12,-74.5 189.38,-74.5 189.38,-55.25 320.12,-55.25 320.12,-74.5"/>
<text text-anchor="middle" x="254.75" y="-61" font-family="Helvetica,sans-Serif" font-size="10.00">sgui/Widgets/ItemStates.h</text>
</a>
</g>
</g>
<!-- Node8&#45;&gt;Node11 -->
<g id="edge12_Node000008_Node000011" class="edge">
<title>Node8&#45;&gt;Node11</title>
<g id="a_edge12_Node000008_Node000011"><a xlink:title=" ">
<path fill="none" stroke="#63b8ff" d="M254.75,-110.33C254.75,-103.82 254.75,-94.67 254.75,-86.37"/>
<polygon fill="#63b8ff" stroke="#63b8ff" points="258.25,-86.37 254.75,-76.37 251.25,-86.37 258.25,-86.37"/>
</a>
</g>
</g>
<!-- Node9&#45;&gt;Node6 -->
<g id="edge10_Node000009_Node000006" class="edge">
<title>Node9&#45;&gt;Node6</title>
<g id="a_edge10_Node000009_Node000006"><a xlink:title=" ">
<path fill="none" stroke="#63b8ff" d="M433.99,-55.08C427.56,-47.8 418.24,-37.23 410.29,-28.23"/>
<polygon fill="#63b8ff" stroke="#63b8ff" points="412.92,-25.93 403.68,-20.74 407.67,-30.56 412.92,-25.93"/>
</a>
</g>
</g>
<!-- Node12&#45;&gt;Node3 -->
<g id="edge22_Node000012_Node000003" class="edge">
<title>Node12&#45;&gt;Node3</title>
<g id="a_edge22_Node000012_Node000003"><a xlink:title=" ">
<path fill="none" stroke="#63b8ff" d="M320.84,-237.46C272.17,-227.42 191.34,-210.74 121.75,-196.25 117.23,-195.31 112.55,-194.33 107.85,-193.35"/>
<polygon fill="#63b8ff" stroke="#63b8ff" points="108.9,-189.99 98.39,-191.37 107.47,-196.85 108.9,-189.99"/>
</a>
</g>
</g>
<!-- Node12&#45;&gt;Node4 -->
<g id="edge14_Node000012_Node000004" class="edge">
<title>Node12&#45;&gt;Node4</title>
<g id="a_edge14_Node000012_Node000004"><a xlink:title=" ">
<path fill="none" stroke="#63b8ff" d="M302.92,-243.05C226.01,-236.51 109.96,-217.9 154.75,-165.75 171.6,-146.13 343.28,-129.71 415.26,-123.64"/>
<polygon fill="#63b8ff" stroke="#63b8ff" points="415.12,-127.17 424.8,-122.85 414.54,-120.19 415.12,-127.17"/>
</a>
</g>
</g>
<!-- Node13 -->
<g id="Node000013" class="node">
<title>Node13</title>
<g id="a_Node000013"><a xlink:title=" ">
<polygon fill="#e0e0e0" stroke="#999999" points="356.25,-190.62 313.25,-190.62 313.25,-171.38 356.25,-171.38 356.25,-190.62"/>
<text text-anchor="middle" x="334.75" y="-177.12" font-family="Helvetica,sans-Serif" font-size="10.00">vector</text>
</a>
</g>
</g>
<!-- Node12&#45;&gt;Node13 -->
<g id="edge15_Node000012_Node000013" class="edge">
<title>Node12&#45;&gt;Node13</title>
<g id="a_edge15_Node000012_Node000013"><a xlink:title=" ">
<path fill="none" stroke="#63b8ff" d="M360.58,-237.53C356.24,-228.19 349.3,-213.28 343.71,-201.26"/>
<polygon fill="#63b8ff" stroke="#63b8ff" points="346.92,-199.86 339.52,-192.26 340.57,-202.81 346.92,-199.86"/>
</a>
</g>
</g>
<!-- Node14 -->
<g id="Node000014" class="node">
<title>Node14</title>
<g id="a_Node000014"><a xlink:title=" ">
<polygon fill="#e0e0e0" stroke="#999999" points="413,-190.62 374.5,-190.62 374.5,-171.38 413,-171.38 413,-190.62"/>
<text text-anchor="middle" x="393.75" y="-177.12" font-family="Helvetica,sans-Serif" font-size="10.00">utility</text>
</a>
</g>
</g>
<!-- Node12&#45;&gt;Node14 -->
<g id="edge16_Node000012_Node000014" class="edge">
<title>Node12&#45;&gt;Node14</title>
<g id="a_edge16_Node000012_Node000014"><a xlink:title=" ">
<path fill="none" stroke="#63b8ff" d="M368.78,-237.53C372.98,-228.19 379.69,-213.28 385.09,-201.26"/>
<polygon fill="#63b8ff" stroke="#63b8ff" points="388.22,-202.83 389.13,-192.27 381.84,-199.96 388.22,-202.83"/>
</a>
</g>
</g>
<!-- Node15 -->
<g id="Node000015" class="node">
<title>Node15</title>
<g id="a_Node000015"><a xlink:title=" ">
<polygon fill="#e0e0e0" stroke="#999999" points="514.12,-190.62 431.38,-190.62 431.38,-171.38 514.12,-171.38 514.12,-190.62"/>
<text text-anchor="middle" x="472.75" y="-177.12" font-family="Helvetica,sans-Serif" font-size="10.00">unordered_map</text>
</a>
</g>
</g>
<!-- Node12&#45;&gt;Node15 -->
<g id="edge17_Node000012_Node000015" class="edge">
<title>Node12&#45;&gt;Node15</title>
<g id="a_edge17_Node000012_Node000015"><a xlink:title=" ">
<path fill="none" stroke="#63b8ff" d="M379.77,-237.53C397.32,-227.05 426.64,-209.54 447.66,-196.98"/>
<polygon fill="#63b8ff" stroke="#63b8ff" points="449.42,-200.01 456.21,-191.88 445.83,-194 449.42,-200.01"/>
</a>
</g>
</g>
<!-- Node16 -->
<g id="Node000016" class="node">
<title>Node16</title>
<g id="a_Node000016"><a xlink:href="_style_8h.html" target="_top" xlink:title=" ">
<polygon fill="white" stroke="#666666" points="674,-190.62 569.5,-190.62 569.5,-171.38 674,-171.38 674,-190.62"/>
<text text-anchor="middle" x="621.75" y="-177.12" font-family="Helvetica,sans-Serif" font-size="10.00">sgui/Widgets/Style.h</text>
</a>
</g>
</g>
<!-- Node12&#45;&gt;Node16 -->
<g id="edge18_Node000012_Node000016" class="edge">
<title>Node12&#45;&gt;Node16</title>
<g id="a_edge18_Node000012_Node000016"><a xlink:title=" ">
<path fill="none" stroke="#63b8ff" d="M401.03,-237.4C446.47,-225.99 524.43,-206.42 574.49,-193.86"/>
<polygon fill="#63b8ff" stroke="#63b8ff" points="575.34,-197.26 584.19,-191.43 573.64,-190.47 575.34,-197.26"/>
</a>
</g>
</g>
<!-- Node18 -->
<g id="Node000018" class="node">
<title>Node18</title>
<g id="a_Node000018"><a xlink:href="_layout_8tpp.html" target="_top" xlink:title=" ">
<polygon fill="white" stroke="#666666" points="295.5,-190.62 164,-190.62 164,-171.38 295.5,-171.38 295.5,-190.62"/>
<text text-anchor="middle" x="229.75" y="-177.12" font-family="Helvetica,sans-Serif" font-size="10.00">sgui/Resources/Layout.tpp</text>
</a>
</g>
</g>
<!-- Node12&#45;&gt;Node18 -->
<g id="edge23_Node000012_Node000018" class="edge">
<title>Node12&#45;&gt;Node18</title>
<g id="a_edge23_Node000012_Node000018"><a xlink:title=" ">
<path fill="none" stroke="#63b8ff" d="M345.69,-237.4C323.08,-226.59 285.14,-208.46 258.84,-195.9"/>
<polygon fill="#63b8ff" stroke="#63b8ff" points="260.61,-192.86 250.07,-191.71 257.59,-199.18 260.61,-192.86"/>
</a>
</g>
</g>
<!-- Node16&#45;&gt;Node4 -->
<g id="edge19_Node000016_Node000004" class="edge">
<title>Node16&#45;&gt;Node4</title>
<g id="a_edge19_Node000016_Node000004"><a xlink:title=" ">
<path fill="none" stroke="#63b8ff" d="M594.79,-170.93C563.18,-160.29 510.88,-142.7 477.66,-131.52"/>
<polygon fill="#63b8ff" stroke="#63b8ff" points="479.21,-128.35 468.61,-128.48 476.98,-134.99 479.21,-128.35"/>
</a>
</g>
</g>
<!-- Node16&#45;&gt;Node6 -->
<g id="edge21_Node000016_Node000006" class="edge">
<title>Node16&#45;&gt;Node6</title>
<g id="a_edge21_Node000016_Node000006"><a xlink:title=" ">
<path fill="none" stroke="#63b8ff" d="M616.57,-171.08C603.02,-148.51 564.29,-88.54 516.75,-55.25 495.64,-40.46 469.06,-29.99 446.1,-22.92"/>
<polygon fill="#63b8ff" stroke="#63b8ff" points="447.19,-19.59 436.61,-20.14 445.23,-26.31 447.19,-19.59"/>
</a>
</g>
</g>
<!-- Node17 -->
<g id="Node000017" class="node">
<title>Node17</title>
<g id="a_Node000017"><a xlink:title=" ">
<polygon fill="#e0e0e0" stroke="#999999" points="1066,-129.75 937.5,-129.75 937.5,-110.5 1066,-110.5 1066,-129.75"/>
<text text-anchor="middle" x="1001.75" y="-116.25" font-family="Helvetica,sans-Serif" font-size="10.00">SFML/Graphics/Color.hpp</text>
</a>
</g>
</g>
<!-- Node16&#45;&gt;Node17 -->
<g id="edge20_Node000016_Node000017" class="edge">
<title>Node16&#45;&gt;Node17</title>
<g id="a_edge20_Node000016_Node000017"><a xlink:title=" ">
<path fill="none" stroke="#63b8ff" d="M658.09,-170.94C666.18,-169.09 674.73,-167.24 682.75,-165.75 765.34,-150.36 860.85,-137.66 925.68,-129.8"/>
<polygon fill="#63b8ff" stroke="#63b8ff" points="926,-133.29 935.51,-128.62 925.16,-126.34 926,-133.29"/>
</a>
</g>
</g>
<!-- Node19&#45;&gt;Node4 -->
<g id="edge25_Node000019_Node000004" class="edge">
<title>Node19&#45;&gt;Node4</title>
<g id="a_edge25_Node000019_Node000004"><a xlink:title=" ">
<path fill="none" stroke="#63b8ff" d="M674.69,-237.38C642.3,-229.33 597.08,-215.81 560.75,-196.25 541.68,-185.98 540.58,-178.04 522.75,-165.75 507.04,-154.92 488.6,-144.05 473.81,-135.75"/>
<polygon fill="#63b8ff" stroke="#63b8ff" points="475.56,-132.71 465.11,-130.93 472.16,-138.84 475.56,-132.71"/>
</a>
</g>
</g>
<!-- Node19&#45;&gt;Node7 -->
<g id="edge29_Node000019_Node000007" class="edge">
<title>Node19&#45;&gt;Node7</title>
<g id="a_edge29_Node000019_Node000007"><a xlink:title=" ">
<path fill="none" stroke="#63b8ff" d="M749.54,-237.47C771.12,-229.88 798.32,-216.89 814.75,-196.25 827.3,-180.48 831.67,-157.44 833.13,-141.04"/>
<polygon fill="#63b8ff" stroke="#63b8ff" points="836.6,-141.72 833.69,-131.53 829.61,-141.31 836.6,-141.72"/>
</a>
</g>
</g>
<!-- Node19&#45;&gt;Node15 -->
<g id="edge28_Node000019_Node000015" class="edge">
<title>Node19&#45;&gt;Node15</title>
<g id="a_edge28_Node000019_Node000015"><a xlink:title=" ">
<path fill="none" stroke="#63b8ff" d="M682.31,-237.4C639.26,-226.02 565.46,-206.51 517.92,-193.94"/>
<polygon fill="#63b8ff" stroke="#63b8ff" points="519.04,-190.62 508.48,-191.44 517.25,-197.38 519.04,-190.62"/>
</a>
</g>
</g>
<!-- Node20 -->
<g id="Node000020" class="node">
<title>Node20</title>
<g id="a_Node000020"><a xlink:title=" ">
<polygon fill="#e0e0e0" stroke="#999999" points="805.38,-190.62 760.12,-190.62 760.12,-171.38 805.38,-171.38 805.38,-190.62"/>
<text text-anchor="middle" x="782.75" y="-177.12" font-family="Helvetica,sans-Serif" font-size="10.00">cstdint</text>
</a>
</g>
</g>
<!-- Node19&#45;&gt;Node20 -->
<g id="edge26_Node000019_Node000020" class="edge">
<title>Node19&#45;&gt;Node20</title>
<g id="a_edge26_Node000019_Node000020"><a xlink:title=" ">
<path fill="none" stroke="#63b8ff" d="M725.93,-237.53C736.17,-227.52 752.98,-211.1 765.66,-198.7"/>
<polygon fill="#63b8ff" stroke="#63b8ff" points="767.86,-201.44 772.57,-191.95 762.97,-196.44 767.86,-201.44"/>
</a>
</g>
</g>
<!-- Node21 -->
<g id="Node000021" class="node">
<title>Node21</title>
<g id="a_Node000021"><a xlink:title=" ">
<polygon fill="#e0e0e0" stroke="#999999" points="741.62,-190.62 691.88,-190.62 691.88,-171.38 741.62,-171.38 741.62,-190.62"/>
<text text-anchor="middle" x="716.75" y="-177.12" font-family="Helvetica,sans-Serif" font-size="10.00">optional</text>
</a>
</g>
</g>
<!-- Node19&#45;&gt;Node21 -->
<g id="edge27_Node000019_Node000021" class="edge">
<title>Node19&#45;&gt;Node21</title>
<g id="a_edge27_Node000019_Node000021"><a xlink:title=" ">
<path fill="none" stroke="#63b8ff" d="M716.75,-237.53C716.75,-228.48 716.75,-214.2 716.75,-202.38"/>
<polygon fill="#63b8ff" stroke="#63b8ff" points="720.25,-202.41 716.75,-192.41 713.25,-202.41 720.25,-202.41"/>
</a>
</g>
</g>
<!-- Node22&#45;&gt;Node2 -->
<g id="edge31_Node000022_Node000002" class="edge">
<title>Node22&#45;&gt;Node2</title>
<g id="a_edge31_Node000022_Node000002"><a xlink:title=" ">
<path fill="none" stroke="#63b8ff" d="M984.97,-231.86C969.63,-221.56 949.14,-207.79 933.57,-197.33"/>
<polygon fill="#63b8ff" stroke="#63b8ff" points="935.67,-194.53 925.42,-191.85 931.76,-200.34 935.67,-194.53"/>
</a>
</g>
</g>
<!-- Node22&#45;&gt;Node7 -->
<g id="edge32_Node000022_Node000007" class="edge">
<title>Node22&#45;&gt;Node7</title>
<g id="a_edge32_Node000022_Node000007"><a xlink:title=" ">
<path fill="none" stroke="#63b8ff" d="M1003.6,-231.83C998.99,-213.8 988.7,-183.42 968.75,-165.75 950.97,-149.99 927.47,-139.78 905.08,-133.16"/>
<polygon fill="#63b8ff" stroke="#63b8ff" points="906.23,-129.85 895.66,-130.59 904.39,-136.6 906.23,-129.85"/>
</a>
</g>
</g>
<!-- Node22&#45;&gt;Node17 -->
<g id="edge33_Node000022_Node000017" class="edge">
<title>Node22&#45;&gt;Node17</title>
<g id="a_edge33_Node000022_Node000017"><a xlink:title=" ">
<path fill="none" stroke="#63b8ff" d="M1006.18,-232.12C1005.29,-209.78 1003.57,-166.67 1002.55,-141.25"/>
<polygon fill="#63b8ff" stroke="#63b8ff" points="1006.06,-141.43 1002.17,-131.58 999.07,-141.71 1006.06,-141.43"/>
</a>
</g>
</g>
<!-- Node23 -->
<g id="Node000023" class="node">
<title>Node23</title>
<g id="a_Node000023"><a xlink:title=" ">
<polygon fill="#e0e0e0" stroke="#999999" points="1187.62,-190.62 1053.88,-190.62 1053.88,-171.38 1187.62,-171.38 1187.62,-190.62"/>
<text text-anchor="middle" x="1120.75" y="-177.12" font-family="Helvetica,sans-Serif" font-size="10.00">SFML/System/Vector3.hpp</text>
</a>
</g>
</g>
<!-- Node22&#45;&gt;Node23 -->
<g id="edge34_Node000022_Node000023" class="edge">
<title>Node22&#45;&gt;Node23</title>
<g id="a_edge34_Node000022_Node000023"><a xlink:title=" ">
<path fill="none" stroke="#63b8ff" d="M1032.62,-231.86C1051.27,-221.31 1076.33,-207.13 1094.96,-196.59"/>
<polygon fill="#63b8ff" stroke="#63b8ff" points="1096.53,-199.73 1103.51,-191.76 1093.08,-193.63 1096.53,-199.73"/>
</a>
</g>
</g>
<!-- Node24 -->
<g id="Node000024" class="node">
<title>Node24</title>
<g id="a_Node000024"><a xlink:href="_macro_8h.html" target="_top" xlink:title=" ">
<polygon fill="white" stroke="#666666" points="1295.5,-196.25 1206,-196.25 1206,-165.75 1295.5,-165.75 1295.5,-196.25"/>
<text text-anchor="start" x="1214" y="-182.75" font-family="Helvetica,sans-Serif" font-size="10.00">sgui/Serialization</text>
<text text-anchor="middle" x="1250.75" y="-171.5" font-family="Helvetica,sans-Serif" font-size="10.00">/Macro.h</text>
</a>
</g>
</g>
<!-- Node22&#45;&gt;Node24 -->
<g id="edge35_Node000022_Node000024" class="edge">
<title>Node22&#45;&gt;Node24</title>
<g id="a_edge35_Node000022_Node000024"><a xlink:title=" ">
<path fill="none" stroke="#63b8ff" d="M1052.36,-234.44C1092.71,-223.78 1151.72,-208.18 1194.89,-196.77"/>
<polygon fill="#63b8ff" stroke="#63b8ff" points="1195.54,-200.21 1204.31,-194.27 1193.75,-193.45 1195.54,-200.21"/>
</a>
</g>
</g>
</g>
</svg>
