<?xml version="1.0" encoding="UTF-8" standalone="no"?>
<!DOCTYPE svg PUBLIC "-//W3C//DTD SVG 1.1//EN"
 "http://www.w3.org/Graphics/SVG/1.1/DTD/svg11.dtd">
<!-- Generated by graphviz version 12.2.1 (20241206.2353)
 -->
<!-- Title: /github/workspace/src/sgui/Serialization/SerializeCore.h Pages: 1 -->
<svg width="464pt" height="160pt"
 viewBox="0.00 0.00 464.38 160.25" xmlns="http://www.w3.org/2000/svg" xmlns:xlink="http://www.w3.org/1999/xlink">
<g id="graph0" class="graph" transform="scale(1 1) rotate(0) translate(4 156.25)">
<title>/github/workspace/src/sgui/Serialization/SerializeCore.h</title>
<!-- Node1 -->
<g id="Node000001" class="node">
<title>Node1</title>
<g id="a_Node000001"><a xlink:title=" ">
<polygon fill="#999999" stroke="#666666" points="155.5,-152.25 23.25,-152.25 23.25,-110.5 155.5,-110.5 155.5,-152.25"/>
<text text-anchor="start" x="31.25" y="-138.75" font-family="Helvetica,sans-Serif" font-size="10.00">/github/workspace/src</text>
<text text-anchor="start" x="31.25" y="-127.5" font-family="Helvetica,sans-Serif" font-size="10.00">/sgui/Serialization/Serialize</text>
<text text-anchor="middle" x="89.38" y="-116.25" font-family="Helvetica,sans-Serif" font-size="10.00">Core.h</text>
</a>
</g>
</g>
<!-- Node2 -->
<g id="Node000002" class="node">
<title>Node2</title>
<g id="a_Node000002"><a xlink:title=" ">
<polygon fill="#e0e0e0" stroke="#999999" points="82.75,-19.25 0,-19.25 0,0 82.75,0 82.75,-19.25"/>
<text text-anchor="middle" x="41.38" y="-5.75" font-family="Helvetica,sans-Serif" font-size="10.00">unordered_map</text>
</a>
</g>
</g>
<!-- Node1&#45;&gt;Node2 -->
<g id="edge1_Node000001_Node000002" class="edge">
<title>Node1&#45;&gt;Node2</title>
<g id="a_edge1_Node000001_Node000002"><a xlink:title=" ">
<path fill="none" stroke="#63b8ff" d="M60.36,-110.04C49.43,-100.62 38.22,-88.43 32.38,-74.5 26.46,-60.43 29.4,-43.24 33.43,-30.24"/>
<polygon fill="#63b8ff" stroke="#63b8ff" points="36.63,-31.7 36.72,-21.11 30.04,-29.33 36.63,-31.7"/>
</a>
</g>
</g>
<!-- Node3 -->
<g id="Node000003" class="node">
<title>Node3</title>
<g id="a_Node000003"><a xlink:title=" ">
<polygon fill="#e0e0e0" stroke="#999999" points="137.88,-74.5 40.88,-74.5 40.88,-55.25 137.88,-55.25 137.88,-74.5"/>
<text text-anchor="middle" x="89.38" y="-61" font-family="Helvetica,sans-Serif" font-size="10.00">nlohmann/json.hpp</text>
</a>
</g>
</g>
<!-- Node1&#45;&gt;Node3 -->
<g id="edge2_Node000001_Node000003" class="edge">
<title>Node1&#45;&gt;Node3</title>
<g id="a_edge2_Node000001_Node000003"><a xlink:title=" ">
<path fill="none" stroke="#63b8ff" d="M89.38,-110.32C89.38,-102.65 89.38,-93.89 89.38,-86.2"/>
<polygon fill="#63b8ff" stroke="#63b8ff" points="92.88,-86.46 89.38,-76.46 85.88,-86.46 92.88,-86.46"/>
</a>
</g>
</g>
<!-- Node4 -->
<g id="Node000004" class="node">
<title>Node4</title>
<g id="a_Node000004"><a xlink:href="_object_pool_8h.html" target="_top" xlink:title=" ">
<polygon fill="white" stroke="#666666" points="271.25,-74.5 155.5,-74.5 155.5,-55.25 271.25,-55.25 271.25,-74.5"/>
<text text-anchor="middle" x="213.38" y="-61" font-family="Helvetica,sans-Serif" font-size="10.00">sgui/Core/ObjectPool.h</text>
</a>
</g>
</g>
<!-- Node1&#45;&gt;Node4 -->
<g id="edge3_Node000001_Node000004" class="edge">
<title>Node1&#45;&gt;Node4</title>
<g id="a_edge3_Node000001_Node000004"><a xlink:title=" ">
<path fill="none" stroke="#63b8ff" d="M128.27,-110.14C147.09,-100.35 169.23,-88.84 186.21,-80.01"/>
<polygon fill="#63b8ff" stroke="#63b8ff" points="187.44,-83.31 194.69,-75.59 184.21,-77.1 187.44,-83.31"/>
</a>
</g>
</g>
<!-- Node4&#45;&gt;Node2 -->
<g id="edge7_Node000004_Node000002" class="edge">
<title>Node4&#45;&gt;Node2</title>
<g id="a_edge7_Node000004_Node000002"><a xlink:title=" ">
<path fill="none" stroke="#63b8ff" d="M184.2,-54.84C155.9,-46.08 112.76,-32.73 81.29,-22.98"/>
<polygon fill="#63b8ff" stroke="#63b8ff" points="82.73,-19.76 72.14,-20.15 80.66,-26.45 82.73,-19.76"/>
</a>
</g>
</g>
<!-- Node5 -->
<g id="Node000005" class="node">
<title>Node5</title>
<g id="a_Node000005"><a xlink:title=" ">
<polygon fill="#e0e0e0" stroke="#999999" points="158.88,-19.25 115.88,-19.25 115.88,0 158.88,0 158.88,-19.25"/>
<text text-anchor="middle" x="137.38" y="-5.75" font-family="Helvetica,sans-Serif" font-size="10.00">vector</text>
</a>
</g>
</g>
<!-- Node4&#45;&gt;Node5 -->
<g id="edge4_Node000004_Node000005" class="edge">
<title>Node4&#45;&gt;Node5</title>
<g id="a_edge4_Node000004_Node000005"><a xlink:title=" ">
<path fill="none" stroke="#63b8ff" d="M200.48,-54.84C189.35,-47.04 173,-35.59 159.74,-26.29"/>
<polygon fill="#63b8ff" stroke="#63b8ff" points="161.77,-23.44 151.57,-20.57 157.75,-29.18 161.77,-23.44"/>
</a>
</g>
</g>
<!-- Node6 -->
<g id="Node000006" class="node">
<title>Node6</title>
<g id="a_Node000006"><a xlink:title=" ">
<polygon fill="#e0e0e0" stroke="#999999" points="219.5,-19.25 177.25,-19.25 177.25,0 219.5,0 219.5,-19.25"/>
<text text-anchor="middle" x="198.38" y="-5.75" font-family="Helvetica,sans-Serif" font-size="10.00">mutex</text>
</a>
</g>
</g>
<!-- Node4&#45;&gt;Node6 -->
<g id="edge5_Node000004_Node000006" class="edge">
<title>Node4&#45;&gt;Node6</title>
<g id="a_edge5_Node000004_Node000006"><a xlink:title=" ">
<path fill="none" stroke="#63b8ff" d="M210.9,-55.08C209.02,-48.42 206.37,-38.99 203.98,-30.53"/>
<polygon fill="#63b8ff" stroke="#63b8ff" points="207.4,-29.74 201.32,-21.07 200.66,-31.64 207.4,-29.74"/>
</a>
</g>
</g>
<!-- Node7 -->
<g id="Node000007" class="node">
<title>Node7</title>
<g id="a_Node000007"><a xlink:title=" ">
<polygon fill="#e0e0e0" stroke="#999999" points="314.75,-19.25 238,-19.25 238,0 314.75,0 314.75,-19.25"/>
<text text-anchor="middle" x="276.38" y="-5.75" font-family="Helvetica,sans-Serif" font-size="10.00">shared_mutex</text>
</a>
</g>
</g>
<!-- Node4&#45;&gt;Node7 -->
<g id="edge6_Node000004_Node000007" class="edge">
<title>Node4&#45;&gt;Node7</title>
<g id="a_edge6_Node000004_Node000007"><a xlink:title=" ">
<path fill="none" stroke="#63b8ff" d="M224.06,-54.84C233.08,-47.22 246.21,-36.12 257.06,-26.95"/>
<polygon fill="#63b8ff" stroke="#63b8ff" points="259.31,-29.63 264.69,-20.5 254.79,-24.28 259.31,-29.63"/>
</a>
</g>
</g>
<!-- Node8 -->
<g id="Node000008" class="node">
<title>Node8</title>
<g id="a_Node000008"><a xlink:href="_object_pool_8tpp.html" target="_top" xlink:title=" ">
<polygon fill="white" stroke="#666666" points="456.38,-19.25 332.38,-19.25 332.38,0 456.38,0 456.38,-19.25"/>
<text text-anchor="middle" x="394.38" y="-5.75" font-family="Helvetica,sans-Serif" font-size="10.00">sgui/Core/ObjectPool.tpp</text>
</a>
</g>
</g>
<!-- Node4&#45;&gt;Node8 -->
<g id="edge8_Node000004_Node000008" class="edge">
<title>Node4&#45;&gt;Node8</title>
<g id="a_edge8_Node000004_Node000008"><a xlink:title=" ">
<path fill="none" stroke="#63b8ff" d="M244.08,-54.84C273.98,-46.04 319.65,-32.61 352.8,-22.86"/>
<polygon fill="#63b8ff" stroke="#63b8ff" points="353.46,-26.31 362.07,-20.13 351.49,-19.59 353.46,-26.31"/>
</a>
</g>
</g>
</g>
</svg>
