<?xml version="1.0" encoding="UTF-8" standalone="no"?>
<!DOCTYPE svg PUBLIC "-//W3C//DTD SVG 1.1//EN"
 "http://www.w3.org/Graphics/SVG/1.1/DTD/svg11.dtd">
<!-- Generated by graphviz version 12.2.1 (20241206.2353)
 -->
<!-- Title: /github/workspace/src/sgui/Serialization/SerializeGUI.h Pages: 1 -->
<svg width="1338pt" height="349pt"
 viewBox="0.00 0.00 1337.62 348.50" xmlns="http://www.w3.org/2000/svg" xmlns:xlink="http://www.w3.org/1999/xlink">
<g id="graph0" class="graph" transform="scale(1 1) rotate(0) translate(4 344.5)">
<title>/github/workspace/src/sgui/Serialization/SerializeGUI.h</title>
<!-- Node1 -->
<g id="Node000001" class="node">
<title>Node1</title>
<g id="a_Node000001"><a xlink:title=" ">
<polygon fill="#999999" stroke="#666666" points="936,-340.5 803.75,-340.5 803.75,-298.75 936,-298.75 936,-340.5"/>
<text text-anchor="start" x="811.75" y="-327" font-family="Helvetica,sans-Serif" font-size="10.00">/github/workspace/src</text>
<text text-anchor="start" x="811.75" y="-315.75" font-family="Helvetica,sans-Serif" font-size="10.00">/sgui/Serialization/Serialize</text>
<text text-anchor="middle" x="869.88" y="-304.5" font-family="Helvetica,sans-Serif" font-size="10.00">GUI.h</text>
</a>
</g>
</g>
<!-- Node2 -->
<g id="Node000002" class="node">
<title>Node2</title>
<g id="a_Node000002"><a xlink:title=" ">
<polygon fill="#e0e0e0" stroke="#999999" points="993.38,-190.62 896.38,-190.62 896.38,-171.38 993.38,-171.38 993.38,-190.62"/>
<text text-anchor="middle" x="944.88" y="-177.12" font-family="Helvetica,sans-Serif" font-size="10.00">nlohmann/json.hpp</text>
</a>
</g>
</g>
<!-- Node1&#45;&gt;Node2 -->
<g id="edge1_Node000001_Node000002" class="edge">
<title>Node1&#45;&gt;Node2</title>
<g id="a_edge1_Node000001_Node000002"><a xlink:title=" ">
<path fill="none" stroke="#63b8ff" d="M880.94,-298.47C895.35,-272.21 920.36,-226.66 934.45,-200.99"/>
<polygon fill="#63b8ff" stroke="#63b8ff" points="937.44,-202.81 939.19,-192.36 931.31,-199.44 937.44,-202.81"/>
</a>
</g>
</g>
<!-- Node3 -->
<g id="Node000003" class="node">
<title>Node3</title>
<g id="a_Node000003"><a xlink:href="_layout_8h.html" target="_top" xlink:title=" ">
<polygon fill="white" stroke="#666666" points="451.5,-257.12 328.25,-257.12 328.25,-237.88 451.5,-237.88 451.5,-257.12"/>
<text text-anchor="middle" x="389.88" y="-243.62" font-family="Helvetica,sans-Serif" font-size="10.00">sgui/Resources/Layout.h</text>
</a>
</g>
</g>
<!-- Node1&#45;&gt;Node3 -->
<g id="edge2_Node000001_Node000003" class="edge">
<title>Node1&#45;&gt;Node3</title>
<g id="a_edge2_Node000001_Node000003"><a xlink:title=" ">
<path fill="none" stroke="#63b8ff" d="M803.39,-308.91C714.06,-295.86 555.86,-272.75 463.18,-259.21"/>
<polygon fill="#63b8ff" stroke="#63b8ff" points="463.84,-255.77 453.44,-257.79 462.82,-262.69 463.84,-255.77"/>
</a>
</g>
</g>
<!-- Node20 -->
<g id="Node000020" class="node">
<title>Node20</title>
<g id="a_Node000020"><a xlink:href="_texture_atlas_8h.html" target="_top" xlink:title=" ">
<polygon fill="white" stroke="#666666" points="846.25,-257.12 697.5,-257.12 697.5,-237.88 846.25,-237.88 846.25,-257.12"/>
<text text-anchor="middle" x="771.88" y="-243.62" font-family="Helvetica,sans-Serif" font-size="10.00">sgui/Resources/TextureAtlas.h</text>
</a>
</g>
</g>
<!-- Node1&#45;&gt;Node20 -->
<g id="edge23_Node000001_Node000020" class="edge">
<title>Node1&#45;&gt;Node20</title>
<g id="a_edge23_Node000001_Node000020"><a xlink:title=" ">
<path fill="none" stroke="#63b8ff" d="M841.53,-298.34C826.19,-287.36 807.54,-274.02 793.4,-263.9"/>
<polygon fill="#63b8ff" stroke="#63b8ff" points="795.83,-261.34 785.66,-258.37 791.76,-267.03 795.83,-261.34"/>
</a>
</g>
</g>
<!-- Node23 -->
<g id="Node000023" class="node">
<title>Node23</title>
<g id="a_Node000023"><a xlink:href="_serialize_s_f_m_l_8h.html" target="_top" xlink:title=" ">
<polygon fill="white" stroke="#666666" points="1086,-262.75 995.75,-262.75 995.75,-232.25 1086,-232.25 1086,-262.75"/>
<text text-anchor="start" x="1003.75" y="-249.25" font-family="Helvetica,sans-Serif" font-size="10.00">sgui/Serialization</text>
<text text-anchor="middle" x="1040.88" y="-238" font-family="Helvetica,sans-Serif" font-size="10.00">/SerializeSFML.h</text>
</a>
</g>
</g>
<!-- Node1&#45;&gt;Node23 -->
<g id="edge29_Node000001_Node000023" class="edge">
<title>Node1&#45;&gt;Node23</title>
<g id="a_edge29_Node000001_Node000023"><a xlink:title=" ">
<path fill="none" stroke="#63b8ff" d="M919.34,-298.34C943.01,-288.63 971.19,-277.08 994.46,-267.54"/>
<polygon fill="#63b8ff" stroke="#63b8ff" points="995.78,-270.78 1003.7,-263.74 993.12,-264.3 995.78,-270.78"/>
</a>
</g>
</g>
<!-- Node4 -->
<g id="Node000004" class="node">
<title>Node4</title>
<g id="a_Node000004"><a xlink:title=" ">
<polygon fill="#e0e0e0" stroke="#999999" points="475.88,-19.25 435.88,-19.25 435.88,0 475.88,0 475.88,-19.25"/>
<text text-anchor="middle" x="455.88" y="-5.75" font-family="Helvetica,sans-Serif" font-size="10.00">string</text>
</a>
</g>
</g>
<!-- Node3&#45;&gt;Node4 -->
<g id="edge3_Node000003_Node000004" class="edge">
<title>Node3&#45;&gt;Node4</title>
<g id="a_edge3_Node000003_Node000004"><a xlink:title=" ">
<path fill="none" stroke="#63b8ff" d="M395.92,-237.64C402.29,-227.91 412.18,-211.61 417.88,-196.25 439.38,-138.27 449.79,-65.35 453.81,-30.69"/>
<polygon fill="#63b8ff" stroke="#63b8ff" points="457.27,-31.22 454.88,-20.9 450.31,-30.46 457.27,-31.22"/>
</a>
</g>
</g>
<!-- Node5 -->
<g id="Node000005" class="node">
<title>Node5</title>
<g id="a_Node000005"><a xlink:title=" ">
<polygon fill="#e0e0e0" stroke="#999999" points="77.38,-190.62 34.38,-190.62 34.38,-171.38 77.38,-171.38 77.38,-190.62"/>
<text text-anchor="middle" x="55.88" y="-177.12" font-family="Helvetica,sans-Serif" font-size="10.00">vector</text>
</a>
</g>
</g>
<!-- Node3&#45;&gt;Node5 -->
<g id="edge4_Node000003_Node000005" class="edge">
<title>Node3&#45;&gt;Node5</title>
<g id="a_edge4_Node000003_Node000005"><a xlink:title=" ">
<path fill="none" stroke="#63b8ff" d="M327.85,-241.37C265.57,-235.03 167.42,-221.8 85.88,-196.25 84.91,-195.95 83.94,-195.62 82.97,-195.27"/>
<polygon fill="#63b8ff" stroke="#63b8ff" points="84.65,-192.18 74.07,-191.57 81.96,-198.65 84.65,-192.18"/>
</a>
</g>
</g>
<!-- Node6 -->
<g id="Node000006" class="node">
<title>Node6</title>
<g id="a_Node000006"><a xlink:title=" ">
<polygon fill="#e0e0e0" stroke="#999999" points="259.12,-190.62 220.62,-190.62 220.62,-171.38 259.12,-171.38 259.12,-190.62"/>
<text text-anchor="middle" x="239.88" y="-177.12" font-family="Helvetica,sans-Serif" font-size="10.00">utility</text>
</a>
</g>
</g>
<!-- Node3&#45;&gt;Node6 -->
<g id="edge5_Node000003_Node000006" class="edge">
<title>Node3&#45;&gt;Node6</title>
<g id="a_edge5_Node000003_Node000006"><a xlink:title=" ">
<path fill="none" stroke="#63b8ff" d="M366.25,-237.42C341.49,-227.75 301.59,-211.74 267.88,-196.25 267.77,-196.2 267.66,-196.15 267.55,-196.1"/>
<polygon fill="#63b8ff" stroke="#63b8ff" points="269.13,-192.98 258.61,-191.77 266.08,-199.28 269.13,-192.98"/>
</a>
</g>
</g>
<!-- Node7 -->
<g id="Node000007" class="node">
<title>Node7</title>
<g id="a_Node000007"><a xlink:title=" ">
<polygon fill="#e0e0e0" stroke="#999999" points="670.25,-190.62 587.5,-190.62 587.5,-171.38 670.25,-171.38 670.25,-190.62"/>
<text text-anchor="middle" x="628.88" y="-177.12" font-family="Helvetica,sans-Serif" font-size="10.00">unordered_map</text>
</a>
</g>
</g>
<!-- Node3&#45;&gt;Node7 -->
<g id="edge6_Node000003_Node000007" class="edge">
<title>Node3&#45;&gt;Node7</title>
<g id="a_edge6_Node000003_Node000007"><a xlink:title=" ">
<path fill="none" stroke="#63b8ff" d="M424.21,-237.45C461.93,-227.47 524.27,-210.9 577.88,-196.25 580.42,-195.55 583.03,-194.84 585.67,-194.11"/>
<polygon fill="#63b8ff" stroke="#63b8ff" points="586.36,-197.55 595.06,-191.51 584.48,-190.81 586.36,-197.55"/>
</a>
</g>
</g>
<!-- Node8 -->
<g id="Node000008" class="node">
<title>Node8</title>
<g id="a_Node000008"><a xlink:href="_style_8h.html" target="_top" xlink:title=" ">
<polygon fill="white" stroke="#666666" points="569.12,-190.62 464.62,-190.62 464.62,-171.38 569.12,-171.38 569.12,-190.62"/>
<text text-anchor="middle" x="516.88" y="-177.12" font-family="Helvetica,sans-Serif" font-size="10.00">sgui/Widgets/Style.h</text>
</a>
</g>
</g>
<!-- Node3&#45;&gt;Node8 -->
<g id="edge7_Node000003_Node000008" class="edge">
<title>Node3&#45;&gt;Node8</title>
<g id="a_edge7_Node000003_Node000008"><a xlink:title=" ">
<path fill="none" stroke="#63b8ff" d="M407.8,-237.4C428.89,-226.69 464.14,-208.78 488.84,-196.24"/>
<polygon fill="#63b8ff" stroke="#63b8ff" points="490.36,-199.39 497.69,-191.74 487.19,-193.15 490.36,-199.39"/>
</a>
</g>
</g>
<!-- Node11 -->
<g id="Node000011" class="node">
<title>Node11</title>
<g id="a_Node000011"><a xlink:href="_panel_8h.html" target="_top" xlink:title=" ">
<polygon fill="white" stroke="#666666" points="202.62,-190.62 95.12,-190.62 95.12,-171.38 202.62,-171.38 202.62,-190.62"/>
<text text-anchor="middle" x="148.88" y="-177.12" font-family="Helvetica,sans-Serif" font-size="10.00">sgui/Widgets/Panel.h</text>
</a>
</g>
</g>
<!-- Node3&#45;&gt;Node11 -->
<g id="edge11_Node000003_Node000011" class="edge">
<title>Node3&#45;&gt;Node11</title>
<g id="a_edge11_Node000003_Node000011"><a xlink:title=" ">
<path fill="none" stroke="#63b8ff" d="M355.86,-237.4C313.42,-226.04 240.75,-206.59 193.78,-194.02"/>
<polygon fill="#63b8ff" stroke="#63b8ff" points="194.75,-190.65 184.18,-191.45 192.94,-197.42 194.75,-190.65"/>
</a>
</g>
</g>
<!-- Node19 -->
<g id="Node000019" class="node">
<title>Node19</title>
<g id="a_Node000019"><a xlink:href="_layout_8tpp.html" target="_top" xlink:title=" ">
<polygon fill="white" stroke="#666666" points="408.62,-190.62 277.12,-190.62 277.12,-171.38 408.62,-171.38 408.62,-190.62"/>
<text text-anchor="middle" x="342.88" y="-177.12" font-family="Helvetica,sans-Serif" font-size="10.00">sgui/Resources/Layout.tpp</text>
</a>
</g>
</g>
<!-- Node3&#45;&gt;Node19 -->
<g id="edge22_Node000003_Node000019" class="edge">
<title>Node3&#45;&gt;Node19</title>
<g id="a_edge22_Node000003_Node000019"><a xlink:title=" ">
<path fill="none" stroke="#63b8ff" d="M383.34,-237.53C376.32,-227.9 364.99,-212.35 356.1,-200.15"/>
<polygon fill="#63b8ff" stroke="#63b8ff" points="358.96,-198.14 350.25,-192.12 353.31,-202.26 358.96,-198.14"/>
</a>
</g>
</g>
<!-- Node8&#45;&gt;Node4 -->
<g id="edge8_Node000008_Node000004" class="edge">
<title>Node8&#45;&gt;Node4</title>
<g id="a_edge8_Node000008_Node000004"><a xlink:title=" ">
<path fill="none" stroke="#63b8ff" d="M513.6,-170.89C504.04,-144.35 476.04,-66.61 462.87,-30.05"/>
<polygon fill="#63b8ff" stroke="#63b8ff" points="466.22,-29.01 459.54,-20.79 459.63,-31.39 466.22,-29.01"/>
</a>
</g>
</g>
<!-- Node9 -->
<g id="Node000009" class="node">
<title>Node9</title>
<g id="a_Node000009"><a xlink:title=" ">
<polygon fill="#e0e0e0" stroke="#999999" points="1100.12,-129.75 971.62,-129.75 971.62,-110.5 1100.12,-110.5 1100.12,-129.75"/>
<text text-anchor="middle" x="1035.88" y="-116.25" font-family="Helvetica,sans-Serif" font-size="10.00">SFML/Graphics/Color.hpp</text>
</a>
</g>
</g>
<!-- Node8&#45;&gt;Node9 -->
<g id="edge9_Node000008_Node000009" class="edge">
<title>Node8&#45;&gt;Node9</title>
<g id="a_edge9_Node000008_Node000009"><a xlink:title=" ">
<path fill="none" stroke="#63b8ff" d="M552.78,-170.92C561.3,-169 570.37,-167.14 578.88,-165.75 615.46,-159.78 840.13,-138.93 960.26,-127.97"/>
<polygon fill="#63b8ff" stroke="#63b8ff" points="960.4,-131.47 970.04,-127.08 959.77,-124.5 960.4,-131.47"/>
</a>
</g>
</g>
<!-- Node10 -->
<g id="Node000010" class="node">
<title>Node10</title>
<g id="a_Node000010"><a xlink:title=" ">
<polygon fill="#e0e0e0" stroke="#999999" points="133.75,-19.25 0,-19.25 0,0 133.75,0 133.75,-19.25"/>
<text text-anchor="middle" x="66.88" y="-5.75" font-family="Helvetica,sans-Serif" font-size="10.00">SFML/System/Vector2.hpp</text>
</a>
</g>
</g>
<!-- Node8&#45;&gt;Node10 -->
<g id="edge10_Node000008_Node000010" class="edge">
<title>Node8&#45;&gt;Node10</title>
<g id="a_edge10_Node000008_Node000010"><a xlink:title=" ">
<path fill="none" stroke="#63b8ff" d="M492.68,-170.89C417.74,-142.69 189.25,-56.68 101.6,-23.7"/>
<polygon fill="#63b8ff" stroke="#63b8ff" points="102.92,-20.45 92.33,-20.21 100.46,-27 102.92,-20.45"/>
</a>
</g>
</g>
<!-- Node11&#45;&gt;Node4 -->
<g id="edge12_Node000011_Node000004" class="edge">
<title>Node11&#45;&gt;Node4</title>
<g id="a_edge12_Node000011_Node000004"><a xlink:title=" ">
<path fill="none" stroke="#63b8ff" d="M174.28,-171C218.07,-154.92 309.81,-118.79 379.88,-74.5 401.83,-60.62 424.28,-40.94 439.03,-27.11"/>
<polygon fill="#63b8ff" stroke="#63b8ff" points="441.24,-29.84 446.05,-20.4 436.4,-24.78 441.24,-29.84"/>
</a>
</g>
</g>
<!-- Node12 -->
<g id="Node000012" class="node">
<title>Node12</title>
<g id="a_Node000012"><a xlink:title=" ">
<polygon fill="#e0e0e0" stroke="#999999" points="200.88,-129.75 142.88,-129.75 142.88,-110.5 200.88,-110.5 200.88,-129.75"/>
<text text-anchor="middle" x="171.88" y="-116.25" font-family="Helvetica,sans-Serif" font-size="10.00">functional</text>
</a>
</g>
</g>
<!-- Node11&#45;&gt;Node12 -->
<g id="edge13_Node000011_Node000012" class="edge">
<title>Node11&#45;&gt;Node12</title>
<g id="a_edge13_Node000011_Node000012"><a xlink:title=" ">
<path fill="none" stroke="#63b8ff" d="M152.37,-171.06C155.51,-163.02 160.23,-150.93 164.24,-140.66"/>
<polygon fill="#63b8ff" stroke="#63b8ff" points="167.42,-142.15 167.8,-131.56 160.9,-139.6 167.42,-142.15"/>
</a>
</g>
</g>
<!-- Node13 -->
<g id="Node000013" class="node">
<title>Node13</title>
<g id="a_Node000013"><a xlink:title=" ">
<polygon fill="#e0e0e0" stroke="#999999" points="931,-129.75 804.75,-129.75 804.75,-110.5 931,-110.5 931,-129.75"/>
<text text-anchor="middle" x="867.88" y="-116.25" font-family="Helvetica,sans-Serif" font-size="10.00">SFML/Graphics/Rect.hpp</text>
</a>
</g>
</g>
<!-- Node11&#45;&gt;Node13 -->
<g id="edge14_Node000011_Node000013" class="edge">
<title>Node11&#45;&gt;Node13</title>
<g id="a_edge14_Node000011_Node000013"><a xlink:title=" ">
<path fill="none" stroke="#63b8ff" d="M184.68,-170.9C193.52,-168.93 203,-167.05 211.88,-165.75 421.14,-135.15 671.1,-125.47 793.25,-122.45"/>
<polygon fill="#63b8ff" stroke="#63b8ff" points="793.24,-125.96 803.15,-122.22 793.07,-118.96 793.24,-125.96"/>
</a>
</g>
</g>
<!-- Node14 -->
<g id="Node000014" class="node">
<title>Node14</title>
<g id="a_Node000014"><a xlink:href="_options_8h.html" target="_top" xlink:title=" ">
<polygon fill="white" stroke="#666666" points="125.12,-129.75 8.62,-129.75 8.62,-110.5 125.12,-110.5 125.12,-129.75"/>
<text text-anchor="middle" x="66.88" y="-116.25" font-family="Helvetica,sans-Serif" font-size="10.00">sgui/Widgets/Options.h</text>
</a>
</g>
</g>
<!-- Node11&#45;&gt;Node14 -->
<g id="edge15_Node000011_Node000014" class="edge">
<title>Node11&#45;&gt;Node14</title>
<g id="a_edge15_Node000011_Node000014"><a xlink:title=" ">
<path fill="none" stroke="#63b8ff" d="M136.42,-171.06C123.78,-161.98 103.95,-147.74 88.69,-136.79"/>
<polygon fill="#63b8ff" stroke="#63b8ff" points="90.84,-134.02 80.68,-131.03 86.76,-139.71 90.84,-134.02"/>
</a>
</g>
</g>
<!-- Node15 -->
<g id="Node000015" class="node">
<title>Node15</title>
<g id="a_Node000015"><a xlink:href="_constraints_8h.html" target="_top" xlink:title=" ">
<polygon fill="white" stroke="#666666" points="133,-74.5 0.75,-74.5 0.75,-55.25 133,-55.25 133,-74.5"/>
<text text-anchor="middle" x="66.88" y="-61" font-family="Helvetica,sans-Serif" font-size="10.00">sgui/Widgets/Constraints.h</text>
</a>
</g>
</g>
<!-- Node14&#45;&gt;Node15 -->
<g id="edge16_Node000014_Node000015" class="edge">
<title>Node14&#45;&gt;Node15</title>
<g id="a_edge16_Node000014_Node000015"><a xlink:title=" ">
<path fill="none" stroke="#63b8ff" d="M66.88,-110.33C66.88,-103.82 66.88,-94.67 66.88,-86.37"/>
<polygon fill="#63b8ff" stroke="#63b8ff" points="70.38,-86.37 66.88,-76.37 63.38,-86.37 70.38,-86.37"/>
</a>
</g>
</g>
<!-- Node16 -->
<g id="Node000016" class="node">
<title>Node16</title>
<g id="a_Node000016"><a xlink:href="_aspect_8h.html" target="_top" xlink:title=" ">
<polygon fill="white" stroke="#666666" points="370.62,-74.5 257.12,-74.5 257.12,-55.25 370.62,-55.25 370.62,-74.5"/>
<text text-anchor="middle" x="313.88" y="-61" font-family="Helvetica,sans-Serif" font-size="10.00">sgui/Widgets/Aspect.h</text>
</a>
</g>
</g>
<!-- Node14&#45;&gt;Node16 -->
<g id="edge18_Node000014_Node000016" class="edge">
<title>Node14&#45;&gt;Node16</title>
<g id="a_edge18_Node000014_Node000016"><a xlink:title=" ">
<path fill="none" stroke="#63b8ff" d="M109.06,-110.03C150.97,-100.99 215.39,-87.11 260.77,-77.32"/>
<polygon fill="#63b8ff" stroke="#63b8ff" points="261.35,-80.78 270.39,-75.25 259.88,-73.94 261.35,-80.78"/>
</a>
</g>
</g>
<!-- Node15&#45;&gt;Node10 -->
<g id="edge17_Node000015_Node000010" class="edge">
<title>Node15&#45;&gt;Node10</title>
<g id="a_edge17_Node000015_Node000010"><a xlink:title=" ">
<path fill="none" stroke="#63b8ff" d="M66.88,-55.08C66.88,-48.57 66.88,-39.42 66.88,-31.12"/>
<polygon fill="#63b8ff" stroke="#63b8ff" points="70.38,-31.12 66.88,-21.12 63.38,-31.12 70.38,-31.12"/>
</a>
</g>
</g>
<!-- Node16&#45;&gt;Node4 -->
<g id="edge19_Node000016_Node000004" class="edge">
<title>Node16&#45;&gt;Node4</title>
<g id="a_edge19_Node000016_Node000004"><a xlink:title=" ">
<path fill="none" stroke="#63b8ff" d="M337.96,-54.84C362.06,-45.81 399.2,-31.88 425.34,-22.07"/>
<polygon fill="#63b8ff" stroke="#63b8ff" points="426.26,-25.47 434.39,-18.68 423.8,-18.92 426.26,-25.47"/>
</a>
</g>
</g>
<!-- Node17 -->
<g id="Node000017" class="node">
<title>Node17</title>
<g id="a_Node000017"><a xlink:href="_widgets_8h.html" target="_top" xlink:title=" ">
<polygon fill="white" stroke="#666666" points="417.88,-19.25 299.88,-19.25 299.88,0 417.88,0 417.88,-19.25"/>
<text text-anchor="middle" x="358.88" y="-5.75" font-family="Helvetica,sans-Serif" font-size="10.00">sgui/Widgets/Widgets.h</text>
</a>
</g>
</g>
<!-- Node16&#45;&gt;Node17 -->
<g id="edge20_Node000016_Node000017" class="edge">
<title>Node16&#45;&gt;Node17</title>
<g id="a_edge20_Node000016_Node000017"><a xlink:title=" ">
<path fill="none" stroke="#63b8ff" d="M321.31,-55.08C327.46,-47.8 336.39,-37.23 344,-28.23"/>
<polygon fill="#63b8ff" stroke="#63b8ff" points="346.52,-30.66 350.31,-20.77 341.18,-26.14 346.52,-30.66"/>
</a>
</g>
</g>
<!-- Node18 -->
<g id="Node000018" class="node">
<title>Node18</title>
<g id="a_Node000018"><a xlink:href="_item_states_8h.html" target="_top" xlink:title=" ">
<polygon fill="white" stroke="#666666" points="282.25,-19.25 151.5,-19.25 151.5,0 282.25,0 282.25,-19.25"/>
<text text-anchor="middle" x="216.88" y="-5.75" font-family="Helvetica,sans-Serif" font-size="10.00">sgui/Widgets/ItemStates.h</text>
</a>
</g>
</g>
<!-- Node16&#45;&gt;Node18 -->
<g id="edge21_Node000016_Node000018" class="edge">
<title>Node16&#45;&gt;Node18</title>
<g id="a_edge21_Node000016_Node000018"><a xlink:title=" ">
<path fill="none" stroke="#63b8ff" d="M297.42,-54.84C282.65,-46.73 260.7,-34.68 243.44,-25.21"/>
<polygon fill="#63b8ff" stroke="#63b8ff" points="245.19,-22.18 234.74,-20.43 241.82,-28.31 245.19,-22.18"/>
</a>
</g>
</g>
<!-- Node20&#45;&gt;Node4 -->
<g id="edge24_Node000020_Node000004" class="edge">
<title>Node20&#45;&gt;Node4</title>
<g id="a_edge24_Node000020_Node000004"><a xlink:title=" ">
<path fill="none" stroke="#63b8ff" d="M762.13,-237.42C745.51,-222.08 710.43,-190.31 678.88,-165.75 608.71,-111.14 520.95,-52.84 479.56,-25.89"/>
<polygon fill="#63b8ff" stroke="#63b8ff" points="481.64,-23.07 471.35,-20.56 477.83,-28.94 481.64,-23.07"/>
</a>
</g>
</g>
<!-- Node20&#45;&gt;Node7 -->
<g id="edge27_Node000020_Node000007" class="edge">
<title>Node20&#45;&gt;Node7</title>
<g id="a_edge27_Node000020_Node000007"><a xlink:title=" ">
<path fill="none" stroke="#63b8ff" d="M751.69,-237.4C727.63,-226.54 687.18,-208.3 659.32,-195.73"/>
<polygon fill="#63b8ff" stroke="#63b8ff" points="660.89,-192.6 650.34,-191.68 658.01,-198.98 660.89,-192.6"/>
</a>
</g>
</g>
<!-- Node20&#45;&gt;Node13 -->
<g id="edge28_Node000020_Node000013" class="edge">
<title>Node20&#45;&gt;Node13</title>
<g id="a_edge28_Node000020_Node000013"><a xlink:title=" ">
<path fill="none" stroke="#63b8ff" d="M794.09,-237.48C811.55,-229.27 835.15,-215.48 848.88,-196.25 860.47,-180.01 865.01,-157.36 866.77,-141.19"/>
<polygon fill="#63b8ff" stroke="#63b8ff" points="870.25,-141.61 867.56,-131.36 863.27,-141.05 870.25,-141.61"/>
</a>
</g>
</g>
<!-- Node21 -->
<g id="Node000021" class="node">
<title>Node21</title>
<g id="a_Node000021"><a xlink:title=" ">
<polygon fill="#e0e0e0" stroke="#999999" points="771.5,-190.62 726.25,-190.62 726.25,-171.38 771.5,-171.38 771.5,-190.62"/>
<text text-anchor="middle" x="748.88" y="-177.12" font-family="Helvetica,sans-Serif" font-size="10.00">cstdint</text>
</a>
</g>
</g>
<!-- Node20&#45;&gt;Node21 -->
<g id="edge25_Node000020_Node000021" class="edge">
<title>Node20&#45;&gt;Node21</title>
<g id="a_edge25_Node000020_Node000021"><a xlink:title=" ">
<path fill="none" stroke="#63b8ff" d="M768.68,-237.53C765.38,-228.29 760.14,-213.58 755.87,-201.63"/>
<polygon fill="#63b8ff" stroke="#63b8ff" points="759.21,-200.56 752.55,-192.32 752.62,-202.91 759.21,-200.56"/>
</a>
</g>
</g>
<!-- Node22 -->
<g id="Node000022" class="node">
<title>Node22</title>
<g id="a_Node000022"><a xlink:title=" ">
<polygon fill="#e0e0e0" stroke="#999999" points="839.75,-190.62 790,-190.62 790,-171.38 839.75,-171.38 839.75,-190.62"/>
<text text-anchor="middle" x="814.88" y="-177.12" font-family="Helvetica,sans-Serif" font-size="10.00">optional</text>
</a>
</g>
</g>
<!-- Node20&#45;&gt;Node22 -->
<g id="edge26_Node000020_Node000022" class="edge">
<title>Node20&#45;&gt;Node22</title>
<g id="a_edge26_Node000020_Node000022"><a xlink:title=" ">
<path fill="none" stroke="#63b8ff" d="M777.85,-237.53C784.27,-227.9 794.64,-212.35 802.78,-200.15"/>
<polygon fill="#63b8ff" stroke="#63b8ff" points="805.47,-202.41 808.11,-192.15 799.65,-198.53 805.47,-202.41"/>
</a>
</g>
</g>
<!-- Node23&#45;&gt;Node2 -->
<g id="edge30_Node000023_Node000002" class="edge">
<title>Node23&#45;&gt;Node2</title>
<g id="a_edge30_Node000023_Node000002"><a xlink:title=" ">
<path fill="none" stroke="#63b8ff" d="M1019.09,-231.86C1003.75,-221.56 983.26,-207.79 967.7,-197.33"/>
<polygon fill="#63b8ff" stroke="#63b8ff" points="969.79,-194.53 959.54,-191.85 965.89,-200.34 969.79,-194.53"/>
</a>
</g>
</g>
<!-- Node23&#45;&gt;Node9 -->
<g id="edge32_Node000023_Node000009" class="edge">
<title>Node23&#45;&gt;Node9</title>
<g id="a_edge32_Node000023_Node000009"><a xlink:title=" ">
<path fill="none" stroke="#63b8ff" d="M1040.3,-232.12C1039.41,-209.78 1037.69,-166.67 1036.68,-141.25"/>
<polygon fill="#63b8ff" stroke="#63b8ff" points="1040.19,-141.43 1036.29,-131.58 1033.19,-141.71 1040.19,-141.43"/>
</a>
</g>
</g>
<!-- Node23&#45;&gt;Node13 -->
<g id="edge31_Node000023_Node000013" class="edge">
<title>Node23&#45;&gt;Node13</title>
<g id="a_edge31_Node000023_Node000013"><a xlink:title=" ">
<path fill="none" stroke="#63b8ff" d="M1037.73,-231.83C1033.12,-213.8 1022.82,-183.42 1002.88,-165.75 985.09,-149.99 961.6,-139.78 939.2,-133.16"/>
<polygon fill="#63b8ff" stroke="#63b8ff" points="940.35,-129.85 929.78,-130.59 938.51,-136.6 940.35,-129.85"/>
</a>
</g>
</g>
<!-- Node24 -->
<g id="Node000024" class="node">
<title>Node24</title>
<g id="a_Node000024"><a xlink:title=" ">
<polygon fill="#e0e0e0" stroke="#999999" points="1221.75,-190.62 1088,-190.62 1088,-171.38 1221.75,-171.38 1221.75,-190.62"/>
<text text-anchor="middle" x="1154.88" y="-177.12" font-family="Helvetica,sans-Serif" font-size="10.00">SFML/System/Vector3.hpp</text>
</a>
</g>
</g>
<!-- Node23&#45;&gt;Node24 -->
<g id="edge33_Node000023_Node000024" class="edge">
<title>Node23&#45;&gt;Node24</title>
<g id="a_edge33_Node000023_Node000024"><a xlink:title=" ">
<path fill="none" stroke="#63b8ff" d="M1066.74,-231.86C1085.39,-221.31 1110.45,-207.13 1129.08,-196.59"/>
<polygon fill="#63b8ff" stroke="#63b8ff" points="1130.65,-199.73 1137.63,-191.76 1127.21,-193.63 1130.65,-199.73"/>
</a>
</g>
</g>
<!-- Node25 -->
<g id="Node000025" class="node">
<title>Node25</title>
<g id="a_Node000025"><a xlink:href="_macro_8h.html" target="_top" xlink:title=" ">
<polygon fill="white" stroke="#666666" points="1329.62,-196.25 1240.12,-196.25 1240.12,-165.75 1329.62,-165.75 1329.62,-196.25"/>
<text text-anchor="start" x="1248.12" y="-182.75" font-family="Helvetica,sans-Serif" font-size="10.00">sgui/Serialization</text>
<text text-anchor="middle" x="1284.88" y="-171.5" font-family="Helvetica,sans-Serif" font-size="10.00">/Macro.h</text>
</a>
</g>
</g>
<!-- Node23&#45;&gt;Node25 -->
<g id="edge34_Node000023_Node000025" class="edge">
<title>Node23&#45;&gt;Node25</title>
<g id="a_edge34_Node000023_Node000025"><a xlink:title=" ">
<path fill="none" stroke="#63b8ff" d="M1086.48,-234.44C1126.83,-223.78 1185.84,-208.18 1229.01,-196.77"/>
<polygon fill="#63b8ff" stroke="#63b8ff" points="1229.67,-200.21 1238.44,-194.27 1227.88,-193.45 1229.67,-200.21"/>
</a>
</g>
</g>
</g>
</svg>
