<?xml version="1.0" encoding="UTF-8" standalone="no"?>
<!DOCTYPE svg PUBLIC "-//W3C//DTD SVG 1.1//EN"
 "http://www.w3.org/Graphics/SVG/1.1/DTD/svg11.dtd">
<!-- Generated by graphviz version 12.2.1 (20241206.2353)
 -->
<!-- Title: /github/workspace/src/sgui/Serialization/SerializeSFML.h Pages: 1 -->
<svg width="655pt" height="116pt"
 viewBox="0.00 0.00 655.25 116.25" xmlns="http://www.w3.org/2000/svg" xmlns:xlink="http://www.w3.org/1999/xlink">
<g id="graph0" class="graph" transform="scale(1 1) rotate(0) translate(4 112.25)">
<title>/github/workspace/src/sgui/Serialization/SerializeSFML.h</title>
<!-- Node1 -->
<g id="Node000001" class="node">
<title>Node1</title>
<g id="a_Node000001"><a xlink:title=" ">
<polygon fill="#999999" stroke="#666666" points="389.62,-108.25 257.38,-108.25 257.38,-66.5 389.62,-66.5 389.62,-108.25"/>
<text text-anchor="start" x="265.38" y="-94.75" font-family="Helvetica,sans-Serif" font-size="10.00">/github/workspace/src</text>
<text text-anchor="start" x="265.38" y="-83.5" font-family="Helvetica,sans-Serif" font-size="10.00">/sgui/Serialization/Serialize</text>
<text text-anchor="middle" x="323.5" y="-72.25" font-family="Helvetica,sans-Serif" font-size="10.00">SFML.h</text>
</a>
</g>
</g>
<!-- Node2 -->
<g id="Node000002" class="node">
<title>Node2</title>
<g id="a_Node000002"><a xlink:title=" ">
<polygon fill="#e0e0e0" stroke="#999999" points="97,-24.88 0,-24.88 0,-5.63 97,-5.63 97,-24.88"/>
<text text-anchor="middle" x="48.5" y="-11.38" font-family="Helvetica,sans-Serif" font-size="10.00">nlohmann/json.hpp</text>
</a>
</g>
</g>
<!-- Node1&#45;&gt;Node2 -->
<g id="edge1_Node000001_Node000002" class="edge">
<title>Node1&#45;&gt;Node2</title>
<g id="a_edge1_Node000001_Node000002"><a xlink:title=" ">
<path fill="none" stroke="#63b8ff" d="M256.93,-69.4C206.92,-56.65 139.67,-39.5 95.25,-28.17"/>
<polygon fill="#63b8ff" stroke="#63b8ff" points="96.22,-24.81 85.66,-25.73 94.49,-31.59 96.22,-24.81"/>
</a>
</g>
</g>
<!-- Node3 -->
<g id="Node000003" class="node">
<title>Node3</title>
<g id="a_Node000003"><a xlink:title=" ">
<polygon fill="#e0e0e0" stroke="#999999" points="241.62,-24.88 115.38,-24.88 115.38,-5.63 241.62,-5.63 241.62,-24.88"/>
<text text-anchor="middle" x="178.5" y="-11.38" font-family="Helvetica,sans-Serif" font-size="10.00">SFML/Graphics/Rect.hpp</text>
</a>
</g>
</g>
<!-- Node1&#45;&gt;Node3 -->
<g id="edge2_Node000001_Node000003" class="edge">
<title>Node1&#45;&gt;Node3</title>
<g id="a_edge2_Node000001_Node000003"><a xlink:title=" ">
<path fill="none" stroke="#63b8ff" d="M281.56,-66.09C257.77,-54.59 228.61,-40.48 207.38,-30.22"/>
<polygon fill="#63b8ff" stroke="#63b8ff" points="208.97,-27.1 198.44,-25.89 205.92,-33.4 208.97,-27.1"/>
</a>
</g>
</g>
<!-- Node4 -->
<g id="Node000004" class="node">
<title>Node4</title>
<g id="a_Node000004"><a xlink:title=" ">
<polygon fill="#e0e0e0" stroke="#999999" points="387.75,-24.88 259.25,-24.88 259.25,-5.63 387.75,-5.63 387.75,-24.88"/>
<text text-anchor="middle" x="323.5" y="-11.38" font-family="Helvetica,sans-Serif" font-size="10.00">SFML/Graphics/Color.hpp</text>
</a>
</g>
</g>
<!-- Node1&#45;&gt;Node4 -->
<g id="edge3_Node000001_Node000004" class="edge">
<title>Node1&#45;&gt;Node4</title>
<g id="a_edge3_Node000001_Node000004"><a xlink:title=" ">
<path fill="none" stroke="#63b8ff" d="M323.5,-66.09C323.5,-56.75 323.5,-45.69 323.5,-36.37"/>
<polygon fill="#63b8ff" stroke="#63b8ff" points="327,-36.57 323.5,-26.57 320,-36.57 327,-36.57"/>
</a>
</g>
</g>
<!-- Node5 -->
<g id="Node000005" class="node">
<title>Node5</title>
<g id="a_Node000005"><a xlink:title=" ">
<polygon fill="#e0e0e0" stroke="#999999" points="539.38,-24.88 405.62,-24.88 405.62,-5.63 539.38,-5.63 539.38,-24.88"/>
<text text-anchor="middle" x="472.5" y="-11.38" font-family="Helvetica,sans-Serif" font-size="10.00">SFML/System/Vector3.hpp</text>
</a>
</g>
</g>
<!-- Node1&#45;&gt;Node5 -->
<g id="edge4_Node000001_Node000005" class="edge">
<title>Node1&#45;&gt;Node5</title>
<g id="a_edge4_Node000001_Node000005"><a xlink:title=" ">
<path fill="none" stroke="#63b8ff" d="M366.6,-66.09C391.15,-54.53 421.28,-40.35 443.12,-30.08"/>
<polygon fill="#63b8ff" stroke="#63b8ff" points="444.48,-33.3 452.04,-25.88 441.5,-26.97 444.48,-33.3"/>
</a>
</g>
</g>
<!-- Node6 -->
<g id="Node000006" class="node">
<title>Node6</title>
<g id="a_Node000006"><a xlink:href="_macro_8h.html" target="_top" xlink:title=" ">
<polygon fill="white" stroke="#666666" points="647.25,-30.5 557.75,-30.5 557.75,0 647.25,0 647.25,-30.5"/>
<text text-anchor="start" x="565.75" y="-17" font-family="Helvetica,sans-Serif" font-size="10.00">sgui/Serialization</text>
<text text-anchor="middle" x="602.5" y="-5.75" font-family="Helvetica,sans-Serif" font-size="10.00">/Macro.h</text>
</a>
</g>
</g>
<!-- Node1&#45;&gt;Node6 -->
<g id="edge5_Node000001_Node000006" class="edge">
<title>Node1&#45;&gt;Node6</title>
<g id="a_edge5_Node000001_Node000006"><a xlink:title=" ">
<path fill="none" stroke="#63b8ff" d="M390.02,-70.13C432.22,-59.76 488.25,-45.87 546.53,-30.99"/>
<polygon fill="#63b8ff" stroke="#63b8ff" points="547.15,-34.44 555.97,-28.57 545.41,-27.66 547.15,-34.44"/>
</a>
</g>
</g>
</g>
</svg>
