<?xml version="1.0" encoding="UTF-8" standalone="no"?>
<!DOCTYPE svg PUBLIC "-//W3C//DTD SVG 1.1//EN"
 "http://www.w3.org/Graphics/SVG/1.1/DTD/svg11.dtd">
<!-- Generated by graphviz version 12.2.1 (20241206.2353)
 -->
<!-- Title: /github/workspace/src/sgui/Serialization/SerializeGUI.h Pages: 1 -->
<svg width="1307pt" height="349pt"
 viewBox="0.00 0.00 1306.75 348.50" xmlns="http://www.w3.org/2000/svg" xmlns:xlink="http://www.w3.org/1999/xlink">
<g id="graph0" class="graph" transform="scale(1 1) rotate(0) translate(4 344.5)">
<title>/github/workspace/src/sgui/Serialization/SerializeGUI.h</title>
<!-- Node1 -->
<g id="Node000001" class="node">
<title>Node1</title>
<g id="a_Node000001"><a xlink:title=" ">
<polygon fill="#999999" stroke="#666666" points="786.12,-340.5 653.88,-340.5 653.88,-298.75 786.12,-298.75 786.12,-340.5"/>
<text text-anchor="start" x="661.88" y="-327" font-family="Helvetica,sans-Serif" font-size="10.00">/github/workspace/src</text>
<text text-anchor="start" x="661.88" y="-315.75" font-family="Helvetica,sans-Serif" font-size="10.00">/sgui/Serialization/Serialize</text>
<text text-anchor="middle" x="720" y="-304.5" font-family="Helvetica,sans-Serif" font-size="10.00">GUI.h</text>
</a>
</g>
</g>
<!-- Node2 -->
<g id="Node000002" class="node">
<title>Node2</title>
<g id="a_Node000002"><a xlink:title=" ">
<polygon fill="#e0e0e0" stroke="#999999" points="962.5,-190.62 865.5,-190.62 865.5,-171.38 962.5,-171.38 962.5,-190.62"/>
<text text-anchor="middle" x="914" y="-177.12" font-family="Helvetica,sans-Serif" font-size="10.00">nlohmann/json.hpp</text>
</a>
</g>
</g>
<!-- Node1&#45;&gt;Node2 -->
<g id="edge1_Node000001_Node000002" class="edge">
<title>Node1&#45;&gt;Node2</title>
<g id="a_edge1_Node000001_Node000002"><a xlink:title=" ">
<path fill="none" stroke="#63b8ff" d="M750.54,-298.45C766.3,-287.95 785.78,-274.8 803,-262.75 834.49,-240.71 870.36,-214.39 892.6,-197.93"/>
<polygon fill="#63b8ff" stroke="#63b8ff" points="894.62,-200.78 900.57,-192.01 890.45,-195.16 894.62,-200.78"/>
</a>
</g>
</g>
<!-- Node3 -->
<g id="Node000003" class="node">
<title>Node3</title>
<g id="a_Node000003"><a xlink:href="_panel_8h.html" target="_top" xlink:title=" ">
<polygon fill="white" stroke="#666666" points="110.75,-190.62 3.25,-190.62 3.25,-171.38 110.75,-171.38 110.75,-190.62"/>
<text text-anchor="middle" x="57" y="-177.12" font-family="Helvetica,sans-Serif" font-size="10.00">sgui/Widgets/Panel.h</text>
</a>
</g>
</g>
<!-- Node1&#45;&gt;Node3 -->
<g id="edge2_Node000001_Node000003" class="edge">
<title>Node1&#45;&gt;Node3</title>
<g id="a_edge2_Node000001_Node000003"><a xlink:title=" ">
<path fill="none" stroke="#63b8ff" d="M653.56,-317.86C557.94,-315.25 376.75,-304.62 229,-262.75 173.73,-247.09 114.06,-215.37 81.55,-196.68"/>
<polygon fill="#63b8ff" stroke="#63b8ff" points="83.7,-193.88 73.3,-191.87 80.18,-199.93 83.7,-193.88"/>
</a>
</g>
</g>
<!-- Node13 -->
<g id="Node000013" class="node">
<title>Node13</title>
<g id="a_Node000013"><a xlink:href="_layout_8h.html" target="_top" xlink:title=" ">
<polygon fill="white" stroke="#666666" points="361.62,-257.12 238.38,-257.12 238.38,-237.88 361.62,-237.88 361.62,-257.12"/>
<text text-anchor="middle" x="300" y="-243.62" font-family="Helvetica,sans-Serif" font-size="10.00">sgui/Resources/Layout.h</text>
</a>
</g>
</g>
<!-- Node1&#45;&gt;Node13 -->
<g id="edge14_Node000001_Node000013" class="edge">
<title>Node1&#45;&gt;Node13</title>
<g id="a_edge14_Node000001_Node000013"><a xlink:title=" ">
<path fill="none" stroke="#63b8ff" d="M653.45,-307.51C574.63,-294.35 444.18,-272.57 365.73,-259.47"/>
<polygon fill="#63b8ff" stroke="#63b8ff" points="366.47,-256.05 356.03,-257.86 365.32,-262.95 366.47,-256.05"/>
</a>
</g>
</g>
<!-- Node20 -->
<g id="Node000020" class="node">
<title>Node20</title>
<g id="a_Node000020"><a xlink:href="_texture_atlas_8h.html" target="_top" xlink:title=" ">
<polygon fill="white" stroke="#666666" points="794.38,-257.12 645.62,-257.12 645.62,-237.88 794.38,-237.88 794.38,-257.12"/>
<text text-anchor="middle" x="720" y="-243.62" font-family="Helvetica,sans-Serif" font-size="10.00">sgui/Resources/TextureAtlas.h</text>
</a>
</g>
</g>
<!-- Node1&#45;&gt;Node20 -->
<g id="edge25_Node000001_Node000020" class="edge">
<title>Node1&#45;&gt;Node20</title>
<g id="a_edge25_Node000001_Node000020"><a xlink:title=" ">
<path fill="none" stroke="#63b8ff" d="M720,-298.34C720,-289 720,-277.94 720,-268.62"/>
<polygon fill="#63b8ff" stroke="#63b8ff" points="723.5,-268.82 720,-258.82 716.5,-268.82 723.5,-268.82"/>
</a>
</g>
</g>
<!-- Node23 -->
<g id="Node000023" class="node">
<title>Node23</title>
<g id="a_Node000023"><a xlink:href="_serialize_s_f_m_l_8h.html" target="_top" xlink:title=" ">
<polygon fill="white" stroke="#666666" points="1055.12,-262.75 964.88,-262.75 964.88,-232.25 1055.12,-232.25 1055.12,-262.75"/>
<text text-anchor="start" x="972.88" y="-249.25" font-family="Helvetica,sans-Serif" font-size="10.00">sgui/Serialization</text>
<text text-anchor="middle" x="1010" y="-238" font-family="Helvetica,sans-Serif" font-size="10.00">/SerializeSFML.h</text>
</a>
</g>
</g>
<!-- Node1&#45;&gt;Node23 -->
<g id="edge31_Node000001_Node000023" class="edge">
<title>Node1&#45;&gt;Node23</title>
<g id="a_edge31_Node000001_Node000023"><a xlink:title=" ">
<path fill="none" stroke="#63b8ff" d="M786.53,-302.54C837,-290.33 905.62,-273.74 953.45,-262.17"/>
<polygon fill="#63b8ff" stroke="#63b8ff" points="954.17,-265.6 963.06,-259.85 952.52,-258.8 954.17,-265.6"/>
</a>
</g>
</g>
<!-- Node4 -->
<g id="Node000004" class="node">
<title>Node4</title>
<g id="a_Node000004"><a xlink:title=" ">
<polygon fill="#e0e0e0" stroke="#999999" points="296,-129.75 256,-129.75 256,-110.5 296,-110.5 296,-129.75"/>
<text text-anchor="middle" x="276" y="-116.25" font-family="Helvetica,sans-Serif" font-size="10.00">string</text>
</a>
</g>
</g>
<!-- Node3&#45;&gt;Node4 -->
<g id="edge3_Node000003_Node000004" class="edge">
<title>Node3&#45;&gt;Node4</title>
<g id="a_edge3_Node000003_Node000004"><a xlink:title=" ">
<path fill="none" stroke="#63b8ff" d="M92.81,-170.88C128.83,-161.62 186.23,-146.67 244.8,-130.31"/>
<polygon fill="#63b8ff" stroke="#63b8ff" points="245.6,-133.72 254.28,-127.64 243.71,-126.98 245.6,-133.72"/>
</a>
</g>
</g>
<!-- Node5 -->
<g id="Node000005" class="node">
<title>Node5</title>
<g id="a_Node000005"><a xlink:title=" ">
<polygon fill="#e0e0e0" stroke="#999999" points="58,-129.75 0,-129.75 0,-110.5 58,-110.5 58,-129.75"/>
<text text-anchor="middle" x="29" y="-116.25" font-family="Helvetica,sans-Serif" font-size="10.00">functional</text>
</a>
</g>
</g>
<!-- Node3&#45;&gt;Node5 -->
<g id="edge4_Node000003_Node000005" class="edge">
<title>Node3&#45;&gt;Node5</title>
<g id="a_edge4_Node000003_Node000005"><a xlink:title=" ">
<path fill="none" stroke="#63b8ff" d="M52.75,-171.06C48.88,-162.93 43.05,-150.67 38.13,-140.33"/>
<polygon fill="#63b8ff" stroke="#63b8ff" points="41.4,-139.05 33.94,-131.52 35.08,-142.05 41.4,-139.05"/>
</a>
</g>
</g>
<!-- Node6 -->
<g id="Node000006" class="node">
<title>Node6</title>
<g id="a_Node000006"><a xlink:title=" ">
<polygon fill="#e0e0e0" stroke="#999999" points="288.88,-19.25 155.12,-19.25 155.12,0 288.88,0 288.88,-19.25"/>
<text text-anchor="middle" x="222" y="-5.75" font-family="Helvetica,sans-Serif" font-size="10.00">SFML/System/Vector2.hpp</text>
</a>
</g>
</g>
<!-- Node3&#45;&gt;Node6 -->
<g id="edge5_Node000003_Node000006" class="edge">
<title>Node3&#45;&gt;Node6</title>
<g id="a_edge5_Node000003_Node000006"><a xlink:title=" ">
<path fill="none" stroke="#63b8ff" d="M59.42,-171.03C66.5,-145.38 87.75,-72.45 105,-55.25 120.46,-39.83 141.81,-29.64 162.03,-22.95"/>
<polygon fill="#63b8ff" stroke="#63b8ff" points="162.79,-26.38 171.34,-20.12 160.75,-19.68 162.79,-26.38"/>
</a>
</g>
</g>
<!-- Node7 -->
<g id="Node000007" class="node">
<title>Node7</title>
<g id="a_Node000007"><a xlink:title=" ">
<polygon fill="#e0e0e0" stroke="#999999" points="900.12,-129.75 773.88,-129.75 773.88,-110.5 900.12,-110.5 900.12,-129.75"/>
<text text-anchor="middle" x="837" y="-116.25" font-family="Helvetica,sans-Serif" font-size="10.00">SFML/Graphics/Rect.hpp</text>
</a>
</g>
</g>
<!-- Node3&#45;&gt;Node7 -->
<g id="edge6_Node000003_Node000007" class="edge">
<title>Node3&#45;&gt;Node7</title>
<g id="a_edge6_Node000003_Node000007"><a xlink:title=" ">
<path fill="none" stroke="#63b8ff" d="M111.17,-171.68C126.6,-169.52 143.44,-167.35 159,-165.75 377.77,-143.3 637.47,-129.88 762.47,-124.25"/>
<polygon fill="#63b8ff" stroke="#63b8ff" points="762.43,-127.75 772.26,-123.81 762.12,-120.76 762.43,-127.75"/>
</a>
</g>
</g>
<!-- Node8 -->
<g id="Node000008" class="node">
<title>Node8</title>
<g id="a_Node000008"><a xlink:href="_options_8h.html" target="_top" xlink:title=" ">
<polygon fill="white" stroke="#666666" points="238.25,-129.75 121.75,-129.75 121.75,-110.5 238.25,-110.5 238.25,-129.75"/>
<text text-anchor="middle" x="180" y="-116.25" font-family="Helvetica,sans-Serif" font-size="10.00">sgui/Widgets/Options.h</text>
</a>
</g>
</g>
<!-- Node3&#45;&gt;Node8 -->
<g id="edge7_Node000003_Node000008" class="edge">
<title>Node3&#45;&gt;Node8</title>
<g id="a_edge7_Node000003_Node000008"><a xlink:title=" ">
<path fill="none" stroke="#63b8ff" d="M75.95,-170.93C95.96,-161.35 127.76,-146.13 150.95,-135.03"/>
<polygon fill="#63b8ff" stroke="#63b8ff" points="152.36,-138.24 159.87,-130.76 149.33,-131.92 152.36,-138.24"/>
</a>
</g>
</g>
<!-- Node8&#45;&gt;Node6 -->
<g id="edge8_Node000008_Node000006" class="edge">
<title>Node8&#45;&gt;Node6</title>
<g id="a_edge8_Node000008_Node000006"><a xlink:title=" ">
<path fill="none" stroke="#63b8ff" d="M208.78,-110.1C225.48,-103.21 245.11,-91.89 255,-74.5 263.92,-58.81 252.23,-40.46 240.37,-27.46"/>
<polygon fill="#63b8ff" stroke="#63b8ff" points="242.98,-25.12 233.45,-20.5 238.01,-30.06 242.98,-25.12"/>
</a>
</g>
</g>
<!-- Node9 -->
<g id="Node000009" class="node">
<title>Node9</title>
<g id="a_Node000009"><a xlink:href="_constraints_8h.html" target="_top" xlink:title=" ">
<polygon fill="white" stroke="#666666" points="246.12,-74.5 113.88,-74.5 113.88,-55.25 246.12,-55.25 246.12,-74.5"/>
<text text-anchor="middle" x="180" y="-61" font-family="Helvetica,sans-Serif" font-size="10.00">sgui/Widgets/Constraints.h</text>
</a>
</g>
</g>
<!-- Node8&#45;&gt;Node9 -->
<g id="edge9_Node000008_Node000009" class="edge">
<title>Node8&#45;&gt;Node9</title>
<g id="a_edge9_Node000008_Node000009"><a xlink:title=" ">
<path fill="none" stroke="#63b8ff" d="M180,-110.33C180,-103.82 180,-94.67 180,-86.37"/>
<polygon fill="#63b8ff" stroke="#63b8ff" points="183.5,-86.37 180,-76.37 176.5,-86.37 183.5,-86.37"/>
</a>
</g>
</g>
<!-- Node10 -->
<g id="Node000010" class="node">
<title>Node10</title>
<g id="a_Node000010"><a xlink:href="_aspect_8h.html" target="_top" xlink:title=" ">
<polygon fill="white" stroke="#666666" points="465.75,-74.5 352.25,-74.5 352.25,-55.25 465.75,-55.25 465.75,-74.5"/>
<text text-anchor="middle" x="409" y="-61" font-family="Helvetica,sans-Serif" font-size="10.00">sgui/Widgets/Aspect.h</text>
</a>
</g>
</g>
<!-- Node8&#45;&gt;Node10 -->
<g id="edge11_Node000008_Node000010" class="edge">
<title>Node8&#45;&gt;Node10</title>
<g id="a_edge11_Node000008_Node000010"><a xlink:title=" ">
<path fill="none" stroke="#63b8ff" d="M219.11,-110.03C257.72,-101.05 316.93,-87.28 358.96,-77.51"/>
<polygon fill="#63b8ff" stroke="#63b8ff" points="359.63,-80.95 368.58,-75.27 358.05,-74.13 359.63,-80.95"/>
</a>
</g>
</g>
<!-- Node9&#45;&gt;Node6 -->
<g id="edge10_Node000009_Node000006" class="edge">
<title>Node9&#45;&gt;Node6</title>
<g id="a_edge10_Node000009_Node000006"><a xlink:title=" ">
<path fill="none" stroke="#63b8ff" d="M186.94,-55.08C192.62,-47.88 200.84,-37.46 207.89,-28.51"/>
<polygon fill="#63b8ff" stroke="#63b8ff" points="210.53,-30.82 213.98,-20.8 205.04,-26.48 210.53,-30.82"/>
</a>
</g>
</g>
<!-- Node11 -->
<g id="Node000011" class="node">
<title>Node11</title>
<g id="a_Node000011"><a xlink:href="_widgets_8h.html" target="_top" xlink:title=" ">
<polygon fill="white" stroke="#666666" points="446,-19.25 328,-19.25 328,0 446,0 446,-19.25"/>
<text text-anchor="middle" x="387" y="-5.75" font-family="Helvetica,sans-Serif" font-size="10.00">sgui/Widgets/Widgets.h</text>
</a>
</g>
</g>
<!-- Node10&#45;&gt;Node11 -->
<g id="edge12_Node000010_Node000011" class="edge">
<title>Node10&#45;&gt;Node11</title>
<g id="a_edge12_Node000010_Node000011"><a xlink:title=" ">
<path fill="none" stroke="#63b8ff" d="M405.37,-55.08C402.58,-48.34 398.63,-38.77 395.1,-30.24"/>
<polygon fill="#63b8ff" stroke="#63b8ff" points="398.34,-28.91 391.29,-21.01 391.87,-31.59 398.34,-28.91"/>
</a>
</g>
</g>
<!-- Node12 -->
<g id="Node000012" class="node">
<title>Node12</title>
<g id="a_Node000012"><a xlink:href="_item_states_8h.html" target="_top" xlink:title=" ">
<polygon fill="white" stroke="#666666" points="594.38,-19.25 463.62,-19.25 463.62,0 594.38,0 594.38,-19.25"/>
<text text-anchor="middle" x="529" y="-5.75" font-family="Helvetica,sans-Serif" font-size="10.00">sgui/Widgets/ItemStates.h</text>
</a>
</g>
</g>
<!-- Node10&#45;&gt;Node12 -->
<g id="edge13_Node000010_Node000012" class="edge">
<title>Node10&#45;&gt;Node12</title>
<g id="a_edge13_Node000010_Node000012"><a xlink:title=" ">
<path fill="none" stroke="#63b8ff" d="M429.36,-54.84C448.23,-46.47 476.59,-33.88 498.23,-24.28"/>
<polygon fill="#63b8ff" stroke="#63b8ff" points="499.44,-27.57 507.16,-20.32 496.6,-21.17 499.44,-27.57"/>
</a>
</g>
</g>
<!-- Node13&#45;&gt;Node3 -->
<g id="edge23_Node000013_Node000003" class="edge">
<title>Node13&#45;&gt;Node3</title>
<g id="a_edge23_Node000013_Node000003"><a xlink:title=" ">
<path fill="none" stroke="#63b8ff" d="M265.7,-237.4C222.82,-226.02 149.33,-206.51 101.98,-193.94"/>
<polygon fill="#63b8ff" stroke="#63b8ff" points="103.15,-190.63 92.59,-191.45 101.36,-197.39 103.15,-190.63"/>
</a>
</g>
</g>
<!-- Node13&#45;&gt;Node4 -->
<g id="edge15_Node000013_Node000004" class="edge">
<title>Node13&#45;&gt;Node4</title>
<g id="a_edge15_Node000013_Node000004"><a xlink:title=" ">
<path fill="none" stroke="#63b8ff" d="M238.12,-240.6C209.08,-234.37 176.97,-221.73 159,-196.25 151.19,-185.17 151.31,-176.91 159,-165.75 164.12,-158.32 211.76,-141.78 244.64,-131.05"/>
<polygon fill="#63b8ff" stroke="#63b8ff" points="245.69,-134.39 254.13,-127.99 243.54,-127.73 245.69,-134.39"/>
</a>
</g>
</g>
<!-- Node14 -->
<g id="Node000014" class="node">
<title>Node14</title>
<g id="a_Node000014"><a xlink:title=" ">
<polygon fill="#e0e0e0" stroke="#999999" points="210.5,-190.62 167.5,-190.62 167.5,-171.38 210.5,-171.38 210.5,-190.62"/>
<text text-anchor="middle" x="189" y="-177.12" font-family="Helvetica,sans-Serif" font-size="10.00">vector</text>
</a>
</g>
</g>
<!-- Node13&#45;&gt;Node14 -->
<g id="edge16_Node000013_Node000014" class="edge">
<title>Node13&#45;&gt;Node14</title>
<g id="a_edge16_Node000013_Node000014"><a xlink:title=" ">
<path fill="none" stroke="#63b8ff" d="M284.57,-237.53C266.44,-227 236.12,-209.38 214.49,-196.81"/>
<polygon fill="#63b8ff" stroke="#63b8ff" points="216.37,-193.86 205.97,-191.86 212.86,-199.91 216.37,-193.86"/>
</a>
</g>
</g>
<!-- Node15 -->
<g id="Node000015" class="node">
<title>Node15</title>
<g id="a_Node000015"><a xlink:title=" ">
<polygon fill="#e0e0e0" stroke="#999999" points="267.25,-190.62 228.75,-190.62 228.75,-171.38 267.25,-171.38 267.25,-190.62"/>
<text text-anchor="middle" x="248" y="-177.12" font-family="Helvetica,sans-Serif" font-size="10.00">utility</text>
</a>
</g>
</g>
<!-- Node13&#45;&gt;Node15 -->
<g id="edge17_Node000013_Node000015" class="edge">
<title>Node13&#45;&gt;Node15</title>
<g id="a_edge17_Node000013_Node000015"><a xlink:title=" ">
<path fill="none" stroke="#63b8ff" d="M292.77,-237.53C284.93,-227.81 272.22,-212.04 262.34,-199.78"/>
<polygon fill="#63b8ff" stroke="#63b8ff" points="265.12,-197.66 256.12,-192.07 259.67,-202.05 265.12,-197.66"/>
</a>
</g>
</g>
<!-- Node16 -->
<g id="Node000016" class="node">
<title>Node16</title>
<g id="a_Node000016"><a xlink:title=" ">
<polygon fill="#e0e0e0" stroke="#999999" points="517.38,-190.62 434.62,-190.62 434.62,-171.38 517.38,-171.38 517.38,-190.62"/>
<text text-anchor="middle" x="476" y="-177.12" font-family="Helvetica,sans-Serif" font-size="10.00">unordered_map</text>
</a>
</g>
</g>
<!-- Node13&#45;&gt;Node16 -->
<g id="edge18_Node000013_Node000016" class="edge">
<title>Node13&#45;&gt;Node16</title>
<g id="a_edge18_Node000013_Node000016"><a xlink:title=" ">
<path fill="none" stroke="#63b8ff" d="M324.84,-237.4C355.11,-226.3 406.45,-207.49 440.78,-194.91"/>
<polygon fill="#63b8ff" stroke="#63b8ff" points="441.68,-198.31 449.86,-191.58 439.27,-191.73 441.68,-198.31"/>
</a>
</g>
</g>
<!-- Node17 -->
<g id="Node000017" class="node">
<title>Node17</title>
<g id="a_Node000017"><a xlink:href="_style_8h.html" target="_top" xlink:title=" ">
<polygon fill="white" stroke="#666666" points="677.25,-190.62 572.75,-190.62 572.75,-171.38 677.25,-171.38 677.25,-190.62"/>
<text text-anchor="middle" x="625" y="-177.12" font-family="Helvetica,sans-Serif" font-size="10.00">sgui/Widgets/Style.h</text>
</a>
</g>
</g>
<!-- Node13&#45;&gt;Node17 -->
<g id="edge19_Node000013_Node000017" class="edge">
<title>Node13&#45;&gt;Node17</title>
<g id="a_edge19_Node000013_Node000017"><a xlink:title=" ">
<path fill="none" stroke="#63b8ff" d="M345.88,-237.4C404.23,-225.82 504.98,-205.82 568.14,-193.28"/>
<polygon fill="#63b8ff" stroke="#63b8ff" points="568.48,-196.78 577.61,-191.4 567.12,-189.92 568.48,-196.78"/>
</a>
</g>
</g>
<!-- Node19 -->
<g id="Node000019" class="node">
<title>Node19</title>
<g id="a_Node000019"><a xlink:href="_layout_8tpp.html" target="_top" xlink:title=" ">
<polygon fill="white" stroke="#666666" points="416.75,-190.62 285.25,-190.62 285.25,-171.38 416.75,-171.38 416.75,-190.62"/>
<text text-anchor="middle" x="351" y="-177.12" font-family="Helvetica,sans-Serif" font-size="10.00">sgui/Resources/Layout.tpp</text>
</a>
</g>
</g>
<!-- Node13&#45;&gt;Node19 -->
<g id="edge24_Node000013_Node000019" class="edge">
<title>Node13&#45;&gt;Node19</title>
<g id="a_edge24_Node000013_Node000019"><a xlink:title=" ">
<path fill="none" stroke="#63b8ff" d="M307.09,-237.53C314.78,-227.81 327.25,-212.04 336.94,-199.78"/>
<polygon fill="#63b8ff" stroke="#63b8ff" points="339.57,-202.09 343.03,-192.08 334.08,-197.75 339.57,-202.09"/>
</a>
</g>
</g>
<!-- Node17&#45;&gt;Node4 -->
<g id="edge20_Node000017_Node000004" class="edge">
<title>Node17&#45;&gt;Node4</title>
<g id="a_edge20_Node000017_Node000004"><a xlink:title=" ">
<path fill="none" stroke="#63b8ff" d="M584.95,-170.89C576.41,-169.08 567.42,-167.27 559,-165.75 448.95,-145.94 419.68,-151.53 310,-129.75 309.17,-129.59 308.33,-129.41 307.49,-129.24"/>
<polygon fill="#63b8ff" stroke="#63b8ff" points="308.42,-125.86 297.89,-127.02 306.85,-132.68 308.42,-125.86"/>
</a>
</g>
</g>
<!-- Node17&#45;&gt;Node6 -->
<g id="edge22_Node000017_Node000006" class="edge">
<title>Node17&#45;&gt;Node6</title>
<g id="a_edge22_Node000017_Node000006"><a xlink:title=" ">
<path fill="none" stroke="#63b8ff" d="M597.31,-170.96C546.23,-153.99 434.09,-115.38 343,-74.5 309.02,-59.25 271.27,-38.72 247.12,-25.1"/>
<polygon fill="#63b8ff" stroke="#63b8ff" points="249.09,-22.19 238.66,-20.29 245.63,-28.27 249.09,-22.19"/>
</a>
</g>
</g>
<!-- Node18 -->
<g id="Node000018" class="node">
<title>Node18</title>
<g id="a_Node000018"><a xlink:title=" ">
<polygon fill="#e0e0e0" stroke="#999999" points="1069.25,-129.75 940.75,-129.75 940.75,-110.5 1069.25,-110.5 1069.25,-129.75"/>
<text text-anchor="middle" x="1005" y="-116.25" font-family="Helvetica,sans-Serif" font-size="10.00">SFML/Graphics/Color.hpp</text>
</a>
</g>
</g>
<!-- Node17&#45;&gt;Node18 -->
<g id="edge21_Node000017_Node000018" class="edge">
<title>Node17&#45;&gt;Node18</title>
<g id="a_edge21_Node000017_Node000018"><a xlink:title=" ">
<path fill="none" stroke="#63b8ff" d="M661.34,-170.94C669.43,-169.09 677.98,-167.24 686,-165.75 768.59,-150.36 864.1,-137.66 928.93,-129.8"/>
<polygon fill="#63b8ff" stroke="#63b8ff" points="929.25,-133.29 938.76,-128.62 928.41,-126.34 929.25,-133.29"/>
</a>
</g>
</g>
<!-- Node20&#45;&gt;Node4 -->
<g id="edge26_Node000020_Node000004" class="edge">
<title>Node20&#45;&gt;Node4</title>
<g id="a_edge26_Node000020_Node000004"><a xlink:title=" ">
<path fill="none" stroke="#63b8ff" d="M677.94,-237.38C645.55,-229.33 600.33,-215.81 564,-196.25 544.93,-185.98 545.77,-174.6 526,-165.75 437.16,-126 405.25,-149.73 310,-129.75 309.17,-129.58 308.34,-129.4 307.49,-129.21"/>
<polygon fill="#63b8ff" stroke="#63b8ff" points="308.44,-125.84 297.91,-126.95 306.83,-132.65 308.44,-125.84"/>
</a>
</g>
</g>
<!-- Node20&#45;&gt;Node7 -->
<g id="edge30_Node000020_Node000007" class="edge">
<title>Node20&#45;&gt;Node7</title>
<g id="a_edge30_Node000020_Node000007"><a xlink:title=" ">
<path fill="none" stroke="#63b8ff" d="M752.79,-237.47C774.37,-229.88 801.57,-216.89 818,-196.25 830.55,-180.48 834.92,-157.44 836.38,-141.04"/>
<polygon fill="#63b8ff" stroke="#63b8ff" points="839.85,-141.72 836.94,-131.53 832.86,-141.31 839.85,-141.72"/>
</a>
</g>
</g>
<!-- Node20&#45;&gt;Node16 -->
<g id="edge29_Node000020_Node000016" class="edge">
<title>Node20&#45;&gt;Node16</title>
<g id="a_edge29_Node000020_Node000016"><a xlink:title=" ">
<path fill="none" stroke="#63b8ff" d="M685.56,-237.4C642.51,-226.02 568.71,-206.51 521.17,-193.94"/>
<polygon fill="#63b8ff" stroke="#63b8ff" points="522.29,-190.62 511.73,-191.44 520.5,-197.38 522.29,-190.62"/>
</a>
</g>
</g>
<!-- Node21 -->
<g id="Node000021" class="node">
<title>Node21</title>
<g id="a_Node000021"><a xlink:title=" ">
<polygon fill="#e0e0e0" stroke="#999999" points="808.62,-190.62 763.38,-190.62 763.38,-171.38 808.62,-171.38 808.62,-190.62"/>
<text text-anchor="middle" x="786" y="-177.12" font-family="Helvetica,sans-Serif" font-size="10.00">cstdint</text>
</a>
</g>
</g>
<!-- Node20&#45;&gt;Node21 -->
<g id="edge27_Node000020_Node000021" class="edge">
<title>Node20&#45;&gt;Node21</title>
<g id="a_edge27_Node000020_Node000021"><a xlink:title=" ">
<path fill="none" stroke="#63b8ff" d="M729.18,-237.53C739.42,-227.52 756.23,-211.1 768.91,-198.7"/>
<polygon fill="#63b8ff" stroke="#63b8ff" points="771.11,-201.44 775.82,-191.95 766.22,-196.44 771.11,-201.44"/>
</a>
</g>
</g>
<!-- Node22 -->
<g id="Node000022" class="node">
<title>Node22</title>
<g id="a_Node000022"><a xlink:title=" ">
<polygon fill="#e0e0e0" stroke="#999999" points="744.88,-190.62 695.12,-190.62 695.12,-171.38 744.88,-171.38 744.88,-190.62"/>
<text text-anchor="middle" x="720" y="-177.12" font-family="Helvetica,sans-Serif" font-size="10.00">optional</text>
</a>
</g>
</g>
<!-- Node20&#45;&gt;Node22 -->
<g id="edge28_Node000020_Node000022" class="edge">
<title>Node20&#45;&gt;Node22</title>
<g id="a_edge28_Node000020_Node000022"><a xlink:title=" ">
<path fill="none" stroke="#63b8ff" d="M720,-237.53C720,-228.48 720,-214.2 720,-202.38"/>
<polygon fill="#63b8ff" stroke="#63b8ff" points="723.5,-202.41 720,-192.41 716.5,-202.41 723.5,-202.41"/>
</a>
</g>
</g>
<!-- Node23&#45;&gt;Node2 -->
<g id="edge32_Node000023_Node000002" class="edge">
<title>Node23&#45;&gt;Node2</title>
<g id="a_edge32_Node000023_Node000002"><a xlink:title=" ">
<path fill="none" stroke="#63b8ff" d="M988.22,-231.86C972.88,-221.56 952.39,-207.79 936.82,-197.33"/>
<polygon fill="#63b8ff" stroke="#63b8ff" points="938.92,-194.53 928.67,-191.85 935.01,-200.34 938.92,-194.53"/>
</a>
</g>
</g>
<!-- Node23&#45;&gt;Node7 -->
<g id="edge33_Node000023_Node000007" class="edge">
<title>Node23&#45;&gt;Node7</title>
<g id="a_edge33_Node000023_Node000007"><a xlink:title=" ">
<path fill="none" stroke="#63b8ff" d="M1006.85,-231.83C1002.24,-213.8 991.95,-183.42 972,-165.75 954.22,-149.99 930.72,-139.78 908.33,-133.16"/>
<polygon fill="#63b8ff" stroke="#63b8ff" points="909.48,-129.85 898.91,-130.59 907.64,-136.6 909.48,-129.85"/>
</a>
</g>
</g>
<!-- Node23&#45;&gt;Node18 -->
<g id="edge34_Node000023_Node000018" class="edge">
<title>Node23&#45;&gt;Node18</title>
<g id="a_edge34_Node000023_Node000018"><a xlink:title=" ">
<path fill="none" stroke="#63b8ff" d="M1009.43,-232.12C1008.54,-209.78 1006.82,-166.67 1005.8,-141.25"/>
<polygon fill="#63b8ff" stroke="#63b8ff" points="1009.31,-141.43 1005.42,-131.58 1002.32,-141.71 1009.31,-141.43"/>
</a>
</g>
</g>
<!-- Node24 -->
<g id="Node000024" class="node">
<title>Node24</title>
<g id="a_Node000024"><a xlink:title=" ">
<polygon fill="#e0e0e0" stroke="#999999" points="1190.88,-190.62 1057.12,-190.62 1057.12,-171.38 1190.88,-171.38 1190.88,-190.62"/>
<text text-anchor="middle" x="1124" y="-177.12" font-family="Helvetica,sans-Serif" font-size="10.00">SFML/System/Vector3.hpp</text>
</a>
</g>
</g>
<!-- Node23&#45;&gt;Node24 -->
<g id="edge35_Node000023_Node000024" class="edge">
<title>Node23&#45;&gt;Node24</title>
<g id="a_edge35_Node000023_Node000024"><a xlink:title=" ">
<path fill="none" stroke="#63b8ff" d="M1035.87,-231.86C1054.52,-221.31 1079.58,-207.13 1098.21,-196.59"/>
<polygon fill="#63b8ff" stroke="#63b8ff" points="1099.78,-199.73 1106.76,-191.76 1096.33,-193.63 1099.78,-199.73"/>
</a>
</g>
</g>
<!-- Node25 -->
<g id="Node000025" class="node">
<title>Node25</title>
<g id="a_Node000025"><a xlink:href="_macro_8h.html" target="_top" xlink:title=" ">
<polygon fill="white" stroke="#666666" points="1298.75,-196.25 1209.25,-196.25 1209.25,-165.75 1298.75,-165.75 1298.75,-196.25"/>
<text text-anchor="start" x="1217.25" y="-182.75" font-family="Helvetica,sans-Serif" font-size="10.00">sgui/Serialization</text>
<text text-anchor="middle" x="1254" y="-171.5" font-family="Helvetica,sans-Serif" font-size="10.00">/Macro.h</text>
</a>
</g>
</g>
<!-- Node23&#45;&gt;Node25 -->
<g id="edge36_Node000023_Node000025" class="edge">
<title>Node23&#45;&gt;Node25</title>
<g id="a_edge36_Node000023_Node000025"><a xlink:title=" ">
<path fill="none" stroke="#63b8ff" d="M1055.61,-234.44C1095.96,-223.78 1154.97,-208.18 1198.14,-196.77"/>
<polygon fill="#63b8ff" stroke="#63b8ff" points="1198.79,-200.21 1207.56,-194.27 1197,-193.45 1198.79,-200.21"/>
</a>
</g>
</g>
</g>
</svg>
