<?xml version="1.0" encoding="UTF-8" standalone="no"?>
<!DOCTYPE svg PUBLIC "-//W3C//DTD SVG 1.1//EN"
 "http://www.w3.org/Graphics/SVG/1.1/DTD/svg11.dtd">
<!-- Generated by graphviz version 12.2.1 (20241206.2353)
 -->
<!-- Title: /github/workspace/src/sgui/Core/Shapes.h Pages: 1 -->
<svg width="390pt" height="394pt"
 viewBox="0.00 0.00 390.46 393.50" xmlns="http://www.w3.org/2000/svg" xmlns:xlink="http://www.w3.org/1999/xlink">
<g id="graph0" class="graph" transform="scale(1 1) rotate(0) translate(4 389.5)">
<title>/github/workspace/src/sgui/Core/Shapes.h</title>
<!-- Node1 -->
<g id="Node000001" class="node">
<title>Node1</title>
<g id="a_Node000001"><a xlink:title=" ">
<polygon fill="#999999" stroke="#666666" points="231.46,-385.5 119.46,-385.5 119.46,-355 231.46,-355 231.46,-385.5"/>
<text text-anchor="start" x="127.46" y="-372" font-family="Helvetica,sans-Serif" font-size="10.00">/github/workspace/src</text>
<text text-anchor="middle" x="175.46" y="-360.75" font-family="Helvetica,sans-Serif" font-size="10.00">/sgui/Core/Shapes.h</text>
</a>
</g>
</g>
<!-- Node2 -->
<g id="Node000002" class="node">
<title>Node2</title>
<g id="a_Node000002"><a xlink:href="_polygon_8h.html" target="_top" xlink:title=" ">
<polygon fill="white" stroke="#666666" points="310.46,-319 198.46,-319 198.46,-288.5 310.46,-288.5 310.46,-319"/>
<text text-anchor="start" x="206.46" y="-305.5" font-family="Helvetica,sans-Serif" font-size="10.00">/github/workspace/src</text>
<text text-anchor="middle" x="254.46" y="-294.25" font-family="Helvetica,sans-Serif" font-size="10.00">/sgui/Core/Polygon.h</text>
</a>
</g>
</g>
<!-- Node1&#45;&gt;Node2 -->
<g id="edge1_Node000001_Node000002" class="edge">
<title>Node1&#45;&gt;Node2</title>
<g id="a_edge1_Node000001_Node000002"><a xlink:title=" ">
<path fill="none" stroke="#63b8ff" d="M202.08,-347.52C213.45,-338.23 226.42,-327.65 236.6,-319.33"/>
<polygon fill="#63b8ff" stroke="#63b8ff" points="200.09,-344.62 194.56,-353.66 204.52,-350.04 200.09,-344.62"/>
</a>
</g>
</g>
<!-- Node10 -->
<g id="Node000010" class="node">
<title>Node10</title>
<g id="a_Node000010"><a xlink:href="_gui_render_8h.html" target="_top" xlink:title=" ">
<polygon fill="white" stroke="#666666" points="160.96,-319 33.96,-319 33.96,-288.5 160.96,-288.5 160.96,-319"/>
<text text-anchor="start" x="41.96" y="-305.5" font-family="Helvetica,sans-Serif" font-size="10.00">/github/workspace/src</text>
<text text-anchor="middle" x="97.46" y="-294.25" font-family="Helvetica,sans-Serif" font-size="10.00">/sgui/Render/GuiRender.h</text>
</a>
</g>
</g>
<!-- Node1&#45;&gt;Node10 -->
<g id="edge11_Node000001_Node000010" class="edge">
<title>Node1&#45;&gt;Node10</title>
<g id="a_edge11_Node000001_Node000010"><a xlink:title=" ">
<path fill="none" stroke="#63b8ff" d="M149.18,-347.52C137.95,-338.23 125.15,-327.65 115.09,-319.33"/>
<polygon fill="#63b8ff" stroke="#63b8ff" points="146.66,-349.97 156.59,-353.65 151.12,-344.58 146.66,-349.97"/>
</a>
</g>
</g>
<!-- Node3 -->
<g id="Node000003" class="node">
<title>Node3</title>
<g id="a_Node000003"><a xlink:href="_primitive_shape_render_8h.html" target="_top" xlink:title=" ">
<polygon fill="white" stroke="#666666" points="324.34,-252.5 184.59,-252.5 184.59,-210.75 324.34,-210.75 324.34,-252.5"/>
<text text-anchor="start" x="192.59" y="-239" font-family="Helvetica,sans-Serif" font-size="10.00">/github/workspace/src</text>
<text text-anchor="start" x="192.59" y="-227.75" font-family="Helvetica,sans-Serif" font-size="10.00">/sgui/Render/PrimitiveShape</text>
<text text-anchor="middle" x="254.46" y="-216.5" font-family="Helvetica,sans-Serif" font-size="10.00">Render.h</text>
</a>
</g>
</g>
<!-- Node2&#45;&gt;Node3 -->
<g id="edge2_Node000002_Node000003" class="edge">
<title>Node2&#45;&gt;Node3</title>
<g id="a_edge2_Node000002_Node000003"><a xlink:title=" ">
<path fill="none" stroke="#63b8ff" d="M254.46,-276.97C254.46,-269.06 254.46,-260.48 254.46,-252.99"/>
<polygon fill="#63b8ff" stroke="#63b8ff" points="250.96,-276.71 254.46,-286.71 257.96,-276.71 250.96,-276.71"/>
</a>
</g>
</g>
<!-- Node7 -->
<g id="Node000007" class="node">
<title>Node7</title>
<g id="a_Node000007"><a xlink:href="sgui_8h.html" target="_top" xlink:title=" ">
<polygon fill="white" stroke="#666666" points="382.46,-30.5 270.46,-30.5 270.46,0 382.46,0 382.46,-30.5"/>
<text text-anchor="start" x="278.46" y="-17" font-family="Helvetica,sans-Serif" font-size="10.00">/github/workspace/src</text>
<text text-anchor="middle" x="326.46" y="-5.75" font-family="Helvetica,sans-Serif" font-size="10.00">/sgui/sgui.h</text>
</a>
</g>
</g>
<!-- Node2&#45;&gt;Node7 -->
<g id="edge10_Node000002_Node000007" class="edge">
<title>Node2&#45;&gt;Node7</title>
<g id="a_edge10_Node000002_Node000007"><a xlink:title=" ">
<path fill="none" stroke="#63b8ff" d="M302.08,-282.49C314.36,-274.92 326.16,-265.02 333.46,-252.5 376.24,-179.12 345.26,-69.94 331.83,-30.84"/>
<polygon fill="#63b8ff" stroke="#63b8ff" points="300.51,-279.37 293.53,-287.34 303.96,-285.46 300.51,-279.37"/>
</a>
</g>
</g>
<!-- Node4 -->
<g id="Node000004" class="node">
<title>Node4</title>
<g id="a_Node000004"><a xlink:href="_plotter_8h.html" target="_top" xlink:title=" ">
<polygon fill="white" stroke="#666666" points="298.46,-169.12 186.46,-169.12 186.46,-138.62 298.46,-138.62 298.46,-169.12"/>
<text text-anchor="start" x="194.46" y="-155.62" font-family="Helvetica,sans-Serif" font-size="10.00">/github/workspace/src</text>
<text text-anchor="middle" x="242.46" y="-144.38" font-family="Helvetica,sans-Serif" font-size="10.00">/sgui/Render/Plotter.h</text>
</a>
</g>
</g>
<!-- Node3&#45;&gt;Node4 -->
<g id="edge3_Node000003_Node000004" class="edge">
<title>Node3&#45;&gt;Node4</title>
<g id="a_edge3_Node000003_Node000004"><a xlink:title=" ">
<path fill="none" stroke="#63b8ff" d="M249.46,-199.06C247.82,-188.69 246.07,-177.67 244.73,-169.23"/>
<polygon fill="#63b8ff" stroke="#63b8ff" points="245.99,-199.5 251.01,-208.83 252.9,-198.41 245.99,-199.5"/>
</a>
</g>
</g>
<!-- Node3&#45;&gt;Node7 -->
<g id="edge9_Node000003_Node000007" class="edge">
<title>Node3&#45;&gt;Node7</title>
<g id="a_edge9_Node000003_Node000007"><a xlink:title=" ">
<path fill="none" stroke="#63b8ff" d="M287.86,-202.36C295.49,-194.23 302.73,-184.81 307.46,-174.75 330.44,-125.83 329.43,-59.47 327.65,-30.63"/>
<polygon fill="#63b8ff" stroke="#63b8ff" points="285.54,-199.73 280.93,-209.27 290.48,-204.69 285.54,-199.73"/>
</a>
</g>
</g>
<!-- Node9 -->
<g id="Node000009" class="node">
<title>Node9</title>
<g id="a_Node000009"><a xlink:href="_primitive_shape_render_8cpp.html" target="_top" xlink:title=" ">
<polygon fill="white" stroke="#666666" points="168.34,-174.75 28.59,-174.75 28.59,-133 168.34,-133 168.34,-174.75"/>
<text text-anchor="start" x="36.59" y="-161.25" font-family="Helvetica,sans-Serif" font-size="10.00">/github/workspace/src</text>
<text text-anchor="start" x="36.59" y="-150" font-family="Helvetica,sans-Serif" font-size="10.00">/sgui/Render/PrimitiveShape</text>
<text text-anchor="middle" x="98.46" y="-138.75" font-family="Helvetica,sans-Serif" font-size="10.00">Render.cpp</text>
</a>
</g>
</g>
<!-- Node3&#45;&gt;Node9 -->
<g id="edge8_Node000003_Node000009" class="edge">
<title>Node3&#45;&gt;Node9</title>
<g id="a_edge8_Node000003_Node000009"><a xlink:title=" ">
<path fill="none" stroke="#63b8ff" d="M202.38,-205.34C182.22,-195.55 159.46,-184.49 140.38,-175.23"/>
<polygon fill="#63b8ff" stroke="#63b8ff" points="200.77,-208.44 211.29,-209.66 203.83,-202.15 200.77,-208.44"/>
</a>
</g>
</g>
<!-- Node5 -->
<g id="Node000005" class="node">
<title>Node5</title>
<g id="a_Node000005"><a xlink:href="_gui_8h.html" target="_top" xlink:title=" ">
<polygon fill="white" stroke="#666666" points="160.46,-97 48.46,-97 48.46,-66.5 160.46,-66.5 160.46,-97"/>
<text text-anchor="start" x="56.46" y="-83.5" font-family="Helvetica,sans-Serif" font-size="10.00">/github/workspace/src</text>
<text text-anchor="middle" x="104.46" y="-72.25" font-family="Helvetica,sans-Serif" font-size="10.00">/sgui/Gui.h</text>
</a>
</g>
</g>
<!-- Node4&#45;&gt;Node5 -->
<g id="edge4_Node000004_Node000005" class="edge">
<title>Node4&#45;&gt;Node5</title>
<g id="a_edge4_Node000004_Node000005"><a xlink:title=" ">
<path fill="none" stroke="#63b8ff" d="M203.38,-133.02C181.11,-121.7 153.68,-107.76 133.35,-97.43"/>
<polygon fill="#63b8ff" stroke="#63b8ff" points="201.68,-136.08 212.18,-137.49 204.85,-129.84 201.68,-136.08"/>
</a>
</g>
</g>
<!-- Node8 -->
<g id="Node000008" class="node">
<title>Node8</title>
<g id="a_Node000008"><a xlink:href="_plotter_8cpp.html" target="_top" xlink:title=" ">
<polygon fill="white" stroke="#666666" points="298.59,-97 178.34,-97 178.34,-66.5 298.59,-66.5 298.59,-97"/>
<text text-anchor="start" x="186.34" y="-83.5" font-family="Helvetica,sans-Serif" font-size="10.00">/github/workspace/src</text>
<text text-anchor="middle" x="238.46" y="-72.25" font-family="Helvetica,sans-Serif" font-size="10.00">/sgui/Render/Plotter.cpp</text>
</a>
</g>
</g>
<!-- Node4&#45;&gt;Node8 -->
<g id="edge7_Node000004_Node000008" class="edge">
<title>Node4&#45;&gt;Node8</title>
<g id="a_edge7_Node000004_Node000008"><a xlink:title=" ">
<path fill="none" stroke="#63b8ff" d="M240.98,-126.9C240.41,-116.89 239.78,-105.81 239.29,-97.26"/>
<polygon fill="#63b8ff" stroke="#63b8ff" points="237.48,-127.05 241.55,-136.83 244.47,-126.65 237.48,-127.05"/>
</a>
</g>
</g>
<!-- Node6 -->
<g id="Node000006" class="node">
<title>Node6</title>
<g id="a_Node000006"><a xlink:href="_gui_8cpp.html" target="_top" xlink:title=" ">
<polygon fill="white" stroke="#666666" points="160.46,-30.5 48.46,-30.5 48.46,0 160.46,0 160.46,-30.5"/>
<text text-anchor="start" x="56.46" y="-17" font-family="Helvetica,sans-Serif" font-size="10.00">/github/workspace/src</text>
<text text-anchor="middle" x="104.46" y="-5.75" font-family="Helvetica,sans-Serif" font-size="10.00">/sgui/Gui.cpp</text>
</a>
</g>
</g>
<!-- Node5&#45;&gt;Node6 -->
<g id="edge5_Node000005_Node000006" class="edge">
<title>Node5&#45;&gt;Node6</title>
<g id="a_edge5_Node000005_Node000006"><a xlink:title=" ">
<path fill="none" stroke="#63b8ff" d="M104.46,-54.81C104.46,-46.64 104.46,-37.91 104.46,-30.83"/>
<polygon fill="#63b8ff" stroke="#63b8ff" points="100.96,-54.6 104.46,-64.6 107.96,-54.6 100.96,-54.6"/>
</a>
</g>
</g>
<!-- Node5&#45;&gt;Node7 -->
<g id="edge6_Node000005_Node000007" class="edge">
<title>Node5&#45;&gt;Node7</title>
<g id="a_edge6_Node000005_Node000007"><a xlink:title=" ">
<path fill="none" stroke="#63b8ff" d="M166.05,-62.85C200.69,-52.79 243.39,-40.39 276.02,-30.9"/>
<polygon fill="#63b8ff" stroke="#63b8ff" points="165.19,-59.46 156.57,-65.61 167.15,-66.18 165.19,-59.46"/>
</a>
</g>
</g>
<!-- Node10&#45;&gt;Node5 -->
<g id="edge12_Node000010_Node000005" class="edge">
<title>Node10&#45;&gt;Node5</title>
<g id="a_edge12_Node000010_Node000005"><a xlink:title=" ">
<path fill="none" stroke="#63b8ff" d="M50.02,-282.61C37.89,-275.03 26.34,-265.11 19.46,-252.5 -5.97,-205.87 -6.86,-179.13 19.46,-133 28.72,-116.77 45.5,-105.25 61.73,-97.37"/>
<polygon fill="#63b8ff" stroke="#63b8ff" points="48.06,-285.52 58.48,-287.44 51.53,-279.44 48.06,-285.52"/>
</a>
</g>
</g>
<!-- Node11 -->
<g id="Node000011" class="node">
<title>Node11</title>
<g id="a_Node000011"><a xlink:href="_gui_render_8cpp.html" target="_top" xlink:title=" ">
<polygon fill="white" stroke="#666666" points="166.21,-246.88 28.71,-246.88 28.71,-216.38 166.21,-216.38 166.21,-246.88"/>
<text text-anchor="start" x="36.71" y="-233.38" font-family="Helvetica,sans-Serif" font-size="10.00">/github/workspace/src</text>
<text text-anchor="middle" x="97.46" y="-222.12" font-family="Helvetica,sans-Serif" font-size="10.00">/sgui/Render/GuiRender.cpp</text>
</a>
</g>
</g>
<!-- Node10&#45;&gt;Node11 -->
<g id="edge13_Node000010_Node000011" class="edge">
<title>Node10&#45;&gt;Node11</title>
<g id="a_edge13_Node000010_Node000011"><a xlink:title=" ">
<path fill="none" stroke="#63b8ff" d="M97.46,-276.77C97.46,-266.76 97.46,-255.69 97.46,-247.14"/>
<polygon fill="#63b8ff" stroke="#63b8ff" points="93.96,-276.71 97.46,-286.71 100.96,-276.71 93.96,-276.71"/>
</a>
</g>
</g>
</g>
</svg>
