<?xml version="1.0" encoding="UTF-8" standalone="no"?>
<!DOCTYPE svg PUBLIC "-//W3C//DTD SVG 1.1//EN"
 "http://www.w3.org/Graphics/SVG/1.1/DTD/svg11.dtd">
<!-- Generated by graphviz version 12.2.1 (20241206.2353)
 -->
<!-- Title: /github/workspace/src/sgui/Core/Shapes.tpp Pages: 1 -->
<svg width="476pt" height="460pt"
 viewBox="0.00 0.00 475.88 460.00" xmlns="http://www.w3.org/2000/svg" xmlns:xlink="http://www.w3.org/1999/xlink">
<g id="graph0" class="graph" transform="scale(1 1) rotate(0) translate(4 456)">
<title>/github/workspace/src/sgui/Core/Shapes.tpp</title>
<!-- Node1 -->
<g id="Node000001" class="node">
<title>Node1</title>
<g id="a_Node000001"><a xlink:title=" ">
<polygon fill="#999999" stroke="#666666" points="309.12,-452 197.12,-452 197.12,-421.5 309.12,-421.5 309.12,-452"/>
<text text-anchor="start" x="205.12" y="-438.5" font-family="Helvetica,sans-Serif" font-size="10.00">/github/workspace/src</text>
<text text-anchor="middle" x="253.12" y="-427.25" font-family="Helvetica,sans-Serif" font-size="10.00">/sgui/Core/Shapes.tpp</text>
</a>
</g>
</g>
<!-- Node2 -->
<g id="Node000002" class="node">
<title>Node2</title>
<g id="a_Node000002"><a xlink:href="_shapes_8h.html" target="_top" xlink:title=" ">
<polygon fill="white" stroke="#666666" points="309.12,-385.5 197.12,-385.5 197.12,-355 309.12,-355 309.12,-385.5"/>
<text text-anchor="start" x="205.12" y="-372" font-family="Helvetica,sans-Serif" font-size="10.00">/github/workspace/src</text>
<text text-anchor="middle" x="253.12" y="-360.75" font-family="Helvetica,sans-Serif" font-size="10.00">/sgui/Core/Shapes.h</text>
</a>
</g>
</g>
<!-- Node1&#45;&gt;Node2 -->
<g id="edge1_Node000001_Node000002" class="edge">
<title>Node1&#45;&gt;Node2</title>
<g id="a_edge1_Node000001_Node000002"><a xlink:title=" ">
<path fill="none" stroke="#63b8ff" d="M253.12,-409.81C253.12,-401.64 253.12,-392.91 253.12,-385.83"/>
<polygon fill="#63b8ff" stroke="#63b8ff" points="249.63,-409.6 253.13,-419.6 256.63,-409.6 249.63,-409.6"/>
</a>
</g>
</g>
<!-- Node3 -->
<g id="Node000003" class="node">
<title>Node3</title>
<g id="a_Node000003"><a xlink:href="_polygon_8h.html" target="_top" xlink:title=" ">
<polygon fill="white" stroke="#666666" points="240.12,-319 128.12,-319 128.12,-288.5 240.12,-288.5 240.12,-319"/>
<text text-anchor="start" x="136.12" y="-305.5" font-family="Helvetica,sans-Serif" font-size="10.00">/github/workspace/src</text>
<text text-anchor="middle" x="184.12" y="-294.25" font-family="Helvetica,sans-Serif" font-size="10.00">/sgui/Core/Polygon.h</text>
</a>
</g>
</g>
<!-- Node2&#45;&gt;Node3 -->
<g id="edge2_Node000002_Node000003" class="edge">
<title>Node2&#45;&gt;Node3</title>
<g id="a_edge2_Node000002_Node000003"><a xlink:title=" ">
<path fill="none" stroke="#63b8ff" d="M229.28,-346.96C219.5,-337.82 208.44,-327.48 199.72,-319.33"/>
<polygon fill="#63b8ff" stroke="#63b8ff" points="226.67,-349.31 236.36,-353.58 231.45,-344.19 226.67,-349.31"/>
</a>
</g>
</g>
<!-- Node11 -->
<g id="Node000011" class="node">
<title>Node11</title>
<g id="a_Node000011"><a xlink:href="_gui_render_8h.html" target="_top" xlink:title=" ">
<polygon fill="white" stroke="#666666" points="385.62,-319 258.62,-319 258.62,-288.5 385.62,-288.5 385.62,-319"/>
<text text-anchor="start" x="266.62" y="-305.5" font-family="Helvetica,sans-Serif" font-size="10.00">/github/workspace/src</text>
<text text-anchor="middle" x="322.12" y="-294.25" font-family="Helvetica,sans-Serif" font-size="10.00">/sgui/Render/GuiRender.h</text>
</a>
</g>
</g>
<!-- Node2&#45;&gt;Node11 -->
<g id="edge10_Node000002_Node000011" class="edge">
<title>Node2&#45;&gt;Node11</title>
<g id="a_edge10_Node000002_Node000011"><a xlink:title=" ">
<path fill="none" stroke="#63b8ff" d="M276.97,-346.96C286.75,-337.82 297.81,-327.48 306.53,-319.33"/>
<polygon fill="#63b8ff" stroke="#63b8ff" points="274.8,-344.19 269.89,-353.58 279.58,-349.31 274.8,-344.19"/>
</a>
</g>
</g>
<!-- Node4 -->
<g id="Node000004" class="node">
<title>Node4</title>
<g id="a_Node000004"><a xlink:href="_primitive_shape_render_8h.html" target="_top" xlink:title=" ">
<polygon fill="white" stroke="#666666" points="254,-252.5 114.25,-252.5 114.25,-210.75 254,-210.75 254,-252.5"/>
<text text-anchor="start" x="122.25" y="-239" font-family="Helvetica,sans-Serif" font-size="10.00">/github/workspace/src</text>
<text text-anchor="start" x="122.25" y="-227.75" font-family="Helvetica,sans-Serif" font-size="10.00">/sgui/Render/PrimitiveShape</text>
<text text-anchor="middle" x="184.12" y="-216.5" font-family="Helvetica,sans-Serif" font-size="10.00">Render.h</text>
</a>
</g>
</g>
<!-- Node3&#45;&gt;Node4 -->
<g id="edge3_Node000003_Node000004" class="edge">
<title>Node3&#45;&gt;Node4</title>
<g id="a_edge3_Node000003_Node000004"><a xlink:title=" ">
<path fill="none" stroke="#63b8ff" d="M184.12,-276.97C184.12,-269.06 184.12,-260.48 184.12,-252.99"/>
<polygon fill="#63b8ff" stroke="#63b8ff" points="180.63,-276.71 184.13,-286.71 187.63,-276.71 180.63,-276.71"/>
</a>
</g>
</g>
<!-- Node5 -->
<g id="Node000005" class="node">
<title>Node5</title>
<g id="a_Node000005"><a xlink:href="_plotter_8h.html" target="_top" xlink:title=" ">
<polygon fill="white" stroke="#666666" points="116.12,-169.12 4.13,-169.12 4.13,-138.62 116.12,-138.62 116.12,-169.12"/>
<text text-anchor="start" x="12.12" y="-155.62" font-family="Helvetica,sans-Serif" font-size="10.00">/github/workspace/src</text>
<text text-anchor="middle" x="60.12" y="-144.38" font-family="Helvetica,sans-Serif" font-size="10.00">/sgui/Render/Plotter.h</text>
</a>
</g>
</g>
<!-- Node4&#45;&gt;Node5 -->
<g id="edge4_Node000004_Node000005" class="edge">
<title>Node4&#45;&gt;Node5</title>
<g id="a_edge4_Node000004_Node000005"><a xlink:title=" ">
<path fill="none" stroke="#63b8ff" d="M141.17,-204.38C122.02,-192.69 100.19,-179.35 84.01,-169.46"/>
<polygon fill="#63b8ff" stroke="#63b8ff" points="139.25,-207.31 149.6,-209.54 142.89,-201.34 139.25,-207.31"/>
</a>
</g>
</g>
<!-- Node10 -->
<g id="Node000010" class="node">
<title>Node10</title>
<g id="a_Node000010"><a xlink:href="_primitive_shape_render_8cpp.html" target="_top" xlink:title=" ">
<polygon fill="white" stroke="#666666" points="274,-174.75 134.25,-174.75 134.25,-133 274,-133 274,-174.75"/>
<text text-anchor="start" x="142.25" y="-161.25" font-family="Helvetica,sans-Serif" font-size="10.00">/github/workspace/src</text>
<text text-anchor="start" x="142.25" y="-150" font-family="Helvetica,sans-Serif" font-size="10.00">/sgui/Render/PrimitiveShape</text>
<text text-anchor="middle" x="204.12" y="-138.75" font-family="Helvetica,sans-Serif" font-size="10.00">Render.cpp</text>
</a>
</g>
</g>
<!-- Node4&#45;&gt;Node10 -->
<g id="edge9_Node000004_Node000010" class="edge">
<title>Node4&#45;&gt;Node10</title>
<g id="a_edge9_Node000004_Node000010"><a xlink:title=" ">
<path fill="none" stroke="#63b8ff" d="M192.4,-199.28C194.55,-191.16 196.8,-182.62 198.75,-175.23"/>
<polygon fill="#63b8ff" stroke="#63b8ff" points="189.04,-198.3 189.87,-208.86 195.81,-200.09 189.04,-198.3"/>
</a>
</g>
</g>
<!-- Node6 -->
<g id="Node000006" class="node">
<title>Node6</title>
<g id="a_Node000006"><a xlink:href="_gui_8h.html" target="_top" xlink:title=" ">
<polygon fill="white" stroke="#666666" points="304.12,-97 192.12,-97 192.12,-66.5 304.12,-66.5 304.12,-97"/>
<text text-anchor="start" x="200.12" y="-83.5" font-family="Helvetica,sans-Serif" font-size="10.00">/github/workspace/src</text>
<text text-anchor="middle" x="248.12" y="-72.25" font-family="Helvetica,sans-Serif" font-size="10.00">/sgui/Gui.h</text>
</a>
</g>
</g>
<!-- Node5&#45;&gt;Node6 -->
<g id="edge5_Node000005_Node000006" class="edge">
<title>Node5&#45;&gt;Node6</title>
<g id="a_edge5_Node000005_Node000006"><a xlink:title=" ">
<path fill="none" stroke="#63b8ff" d="M110.09,-134.24C140.98,-122.71 180.08,-108.13 208.77,-97.43"/>
<polygon fill="#63b8ff" stroke="#63b8ff" points="109.1,-130.87 100.95,-137.65 111.55,-137.43 109.1,-130.87"/>
</a>
</g>
</g>
<!-- Node9 -->
<g id="Node000009" class="node">
<title>Node9</title>
<g id="a_Node000009"><a xlink:href="_plotter_8cpp.html" target="_top" xlink:title=" ">
<polygon fill="white" stroke="#666666" points="120.25,-97 0,-97 0,-66.5 120.25,-66.5 120.25,-97"/>
<text text-anchor="start" x="8" y="-83.5" font-family="Helvetica,sans-Serif" font-size="10.00">/github/workspace/src</text>
<text text-anchor="middle" x="60.12" y="-72.25" font-family="Helvetica,sans-Serif" font-size="10.00">/sgui/Render/Plotter.cpp</text>
</a>
</g>
</g>
<!-- Node5&#45;&gt;Node9 -->
<g id="edge8_Node000005_Node000009" class="edge">
<title>Node5&#45;&gt;Node9</title>
<g id="a_edge8_Node000005_Node000009"><a xlink:title=" ">
<path fill="none" stroke="#63b8ff" d="M60.12,-126.9C60.12,-116.89 60.12,-105.81 60.12,-97.26"/>
<polygon fill="#63b8ff" stroke="#63b8ff" points="56.63,-126.83 60.13,-136.83 63.63,-126.83 56.63,-126.83"/>
</a>
</g>
</g>
<!-- Node7 -->
<g id="Node000007" class="node">
<title>Node7</title>
<g id="a_Node000007"><a xlink:href="_gui_8cpp.html" target="_top" xlink:title=" ">
<polygon fill="white" stroke="#666666" points="239.12,-30.5 127.12,-30.5 127.12,0 239.12,0 239.12,-30.5"/>
<text text-anchor="start" x="135.12" y="-17" font-family="Helvetica,sans-Serif" font-size="10.00">/github/workspace/src</text>
<text text-anchor="middle" x="183.12" y="-5.75" font-family="Helvetica,sans-Serif" font-size="10.00">/sgui/Gui.cpp</text>
</a>
</g>
</g>
<!-- Node6&#45;&gt;Node7 -->
<g id="edge6_Node000006_Node000007" class="edge">
<title>Node6&#45;&gt;Node7</title>
<g id="a_edge6_Node000006_Node000007"><a xlink:title=" ">
<path fill="none" stroke="#63b8ff" d="M225.39,-58.19C216.24,-49.11 205.95,-38.9 197.82,-30.83"/>
<polygon fill="#63b8ff" stroke="#63b8ff" points="222.74,-60.49 232.3,-65.05 227.67,-55.52 222.74,-60.49"/>
</a>
</g>
</g>
<!-- Node8 -->
<g id="Node000008" class="node">
<title>Node8</title>
<g id="a_Node000008"><a xlink:href="sgui_8h.html" target="_top" xlink:title=" ">
<polygon fill="white" stroke="#666666" points="369.12,-30.5 257.12,-30.5 257.12,0 369.12,0 369.12,-30.5"/>
<text text-anchor="start" x="265.12" y="-17" font-family="Helvetica,sans-Serif" font-size="10.00">/github/workspace/src</text>
<text text-anchor="middle" x="313.12" y="-5.75" font-family="Helvetica,sans-Serif" font-size="10.00">/sgui/sgui.h</text>
</a>
</g>
</g>
<!-- Node6&#45;&gt;Node8 -->
<g id="edge7_Node000006_Node000008" class="edge">
<title>Node6&#45;&gt;Node8</title>
<g id="a_edge7_Node000006_Node000008"><a xlink:title=" ">
<path fill="none" stroke="#63b8ff" d="M270.86,-58.19C280.01,-49.11 290.3,-38.9 298.43,-30.83"/>
<polygon fill="#63b8ff" stroke="#63b8ff" points="268.58,-55.52 263.95,-65.05 273.51,-60.49 268.58,-55.52"/>
</a>
</g>
</g>
<!-- Node11&#45;&gt;Node6 -->
<g id="edge11_Node000011_Node000006" class="edge">
<title>Node11&#45;&gt;Node6</title>
<g id="a_edge11_Node000011_Node000006"><a xlink:title=" ">
<path fill="none" stroke="#63b8ff" d="M319.29,-276.8C314.86,-242.63 304.51,-181.26 283.12,-133 277.35,-119.98 268.03,-106.82 260.46,-97.24"/>
<polygon fill="#63b8ff" stroke="#63b8ff" points="315.8,-277.07 320.48,-286.57 322.74,-276.22 315.8,-277.07"/>
</a>
</g>
</g>
<!-- Node12 -->
<g id="Node000012" class="node">
<title>Node12</title>
<g id="a_Node000012"><a xlink:href="_gui_render_8cpp.html" target="_top" xlink:title=" ">
<polygon fill="white" stroke="#666666" points="467.88,-246.88 330.38,-246.88 330.38,-216.38 467.88,-216.38 467.88,-246.88"/>
<text text-anchor="start" x="338.38" y="-233.38" font-family="Helvetica,sans-Serif" font-size="10.00">/github/workspace/src</text>
<text text-anchor="middle" x="399.12" y="-222.12" font-family="Helvetica,sans-Serif" font-size="10.00">/sgui/Render/GuiRender.cpp</text>
</a>
</g>
</g>
<!-- Node11&#45;&gt;Node12 -->
<g id="edge12_Node000011_Node000012" class="edge">
<title>Node11&#45;&gt;Node12</title>
<g id="a_edge12_Node000011_Node000012"><a xlink:title=" ">
<path fill="none" stroke="#63b8ff" d="M346.37,-280.67C358.39,-269.73 372.56,-256.82 383.19,-247.14"/>
<polygon fill="#63b8ff" stroke="#63b8ff" points="344.24,-277.88 339.2,-287.2 348.95,-283.06 344.24,-277.88"/>
</a>
</g>
</g>
</g>
</svg>
