<?xml version="1.0" encoding="UTF-8" standalone="no"?>
<!DOCTYPE svg PUBLIC "-//W3C//DTD SVG 1.1//EN"
 "http://www.w3.org/Graphics/SVG/1.1/DTD/svg11.dtd">
<!-- Generated by graphviz version 12.2.1 (20241206.2353)
 -->
<!-- Title: /github/workspace/src/sgui/Core/Shapes.h Pages: 1 -->
<svg width="384pt" height="94pt"
 viewBox="0.00 0.00 384.00 93.75" xmlns="http://www.w3.org/2000/svg" xmlns:xlink="http://www.w3.org/1999/xlink">
<g id="graph0" class="graph" transform="scale(1 1) rotate(0) translate(4 89.75)">
<title>/github/workspace/src/sgui/Core/Shapes.h</title>
<!-- Node1 -->
<g id="Node000001" class="node">
<title>Node1</title>
<g id="a_Node000001"><a xlink:title=" ">
<polygon fill="#999999" stroke="#666666" points="185.5,-85.75 73.5,-85.75 73.5,-55.25 185.5,-55.25 185.5,-85.75"/>
<text text-anchor="start" x="81.5" y="-72.25" font-family="Helvetica,sans-Serif" font-size="10.00">/github/workspace/src</text>
<text text-anchor="middle" x="129.5" y="-61" font-family="Helvetica,sans-Serif" font-size="10.00">/sgui/Core/Shapes.h</text>
</a>
</g>
</g>
<!-- Node2 -->
<g id="Node000002" class="node">
<title>Node2</title>
<g id="a_Node000002"><a xlink:title=" ">
<polygon fill="#e0e0e0" stroke="#999999" points="37,-19.25 0,-19.25 0,0 37,0 37,-19.25"/>
<text text-anchor="middle" x="18.5" y="-5.75" font-family="Helvetica,sans-Serif" font-size="10.00">array</text>
</a>
</g>
</g>
<!-- Node1&#45;&gt;Node2 -->
<g id="edge1_Node000001_Node000002" class="edge">
<title>Node1&#45;&gt;Node2</title>
<g id="a_edge1_Node000001_Node000002"><a xlink:title=" ">
<path fill="none" stroke="#63b8ff" d="M101.78,-54.8C84.55,-45.66 62.51,-33.97 45.43,-24.91"/>
<polygon fill="#63b8ff" stroke="#63b8ff" points="47.33,-21.96 36.86,-20.36 44.05,-28.14 47.33,-21.96"/>
</a>
</g>
</g>
<!-- Node3 -->
<g id="Node000003" class="node">
<title>Node3</title>
<g id="a_Node000003"><a xlink:title=" ">
<polygon fill="#e0e0e0" stroke="#999999" points="98,-19.25 55,-19.25 55,0 98,0 98,-19.25"/>
<text text-anchor="middle" x="76.5" y="-5.75" font-family="Helvetica,sans-Serif" font-size="10.00">vector</text>
</a>
</g>
</g>
<!-- Node1&#45;&gt;Node3 -->
<g id="edge2_Node000001_Node000003" class="edge">
<title>Node1&#45;&gt;Node3</title>
<g id="a_edge2_Node000001_Node000003"><a xlink:title=" ">
<path fill="none" stroke="#63b8ff" d="M116.4,-54.95C109.11,-46.84 99.97,-36.7 92.29,-28.16"/>
<polygon fill="#63b8ff" stroke="#63b8ff" points="94.97,-25.92 85.68,-20.83 89.77,-30.6 94.97,-25.92"/>
</a>
</g>
</g>
<!-- Node4 -->
<g id="Node000004" class="node">
<title>Node4</title>
<g id="a_Node000004"><a xlink:title=" ">
<polygon fill="#e0e0e0" stroke="#999999" points="249.38,-19.25 115.62,-19.25 115.62,0 249.38,0 249.38,-19.25"/>
<text text-anchor="middle" x="182.5" y="-5.75" font-family="Helvetica,sans-Serif" font-size="10.00">SFML/System/Vector2.hpp</text>
</a>
</g>
</g>
<!-- Node1&#45;&gt;Node4 -->
<g id="edge3_Node000001_Node000004" class="edge">
<title>Node1&#45;&gt;Node4</title>
<g id="a_edge3_Node000001_Node000004"><a xlink:title=" ">
<path fill="none" stroke="#63b8ff" d="M142.6,-54.95C149.89,-46.84 159.03,-36.7 166.71,-28.16"/>
<polygon fill="#63b8ff" stroke="#63b8ff" points="169.23,-30.6 173.32,-20.83 164.03,-25.92 169.23,-30.6"/>
</a>
</g>
</g>
<!-- Node5 -->
<g id="Node000005" class="node">
<title>Node5</title>
<g id="a_Node000005"><a xlink:href="_shapes_8tpp.html" target="_top" xlink:title=" ">
<polygon fill="white" stroke="#666666" points="376,-19.25 267,-19.25 267,0 376,0 376,-19.25"/>
<text text-anchor="middle" x="321.5" y="-5.75" font-family="Helvetica,sans-Serif" font-size="10.00">sgui/Core/Shapes.tpp</text>
</a>
</g>
</g>
<!-- Node1&#45;&gt;Node5 -->
<g id="edge4_Node000001_Node000005" class="edge">
<title>Node1&#45;&gt;Node5</title>
<g id="a_edge4_Node000001_Node000005"><a xlink:title=" ">
<path fill="none" stroke="#63b8ff" d="M177.45,-54.8C209.27,-45.04 250.56,-32.38 280.78,-23.11"/>
<polygon fill="#63b8ff" stroke="#63b8ff" points="281.79,-26.46 290.33,-20.18 279.74,-19.77 281.79,-26.46"/>
</a>
</g>
</g>
</g>
</svg>
