<?xml version="1.0" encoding="UTF-8" standalone="no"?>
<!DOCTYPE svg PUBLIC "-//W3C//DTD SVG 1.1//EN"
 "http://www.w3.org/Graphics/SVG/1.1/DTD/svg11.dtd">
<!-- Generated by graphviz version 12.2.1 (20241206.2353)
 -->
<!-- Title: /github/workspace/src/sgui/Resources/SoundPlayer.h Pages: 1 -->
<svg width="365pt" height="172pt"
 viewBox="0.00 0.00 365.12 171.50" xmlns="http://www.w3.org/2000/svg" xmlns:xlink="http://www.w3.org/1999/xlink">
<g id="graph0" class="graph" transform="scale(1 1) rotate(0) translate(4 167.5)">
<title>/github/workspace/src/sgui/Resources/SoundPlayer.h</title>
<!-- Node1 -->
<g id="Node000001" class="node">
<title>Node1</title>
<g id="a_Node000001"><a xlink:title=" ">
<polygon fill="#999999" stroke="#666666" points="273.88,-163.5 122.12,-163.5 122.12,-133 273.88,-133 273.88,-163.5"/>
<text text-anchor="start" x="130.12" y="-150" font-family="Helvetica,sans-Serif" font-size="10.00">/github/workspace/src</text>
<text text-anchor="middle" x="198" y="-138.75" font-family="Helvetica,sans-Serif" font-size="10.00">/sgui/Resources/SoundPlayer.h</text>
</a>
</g>
</g>
<!-- Node2 -->
<g id="Node000002" class="node">
<title>Node2</title>
<g id="a_Node000002"><a xlink:href="_gui_8h.html" target="_top" xlink:title=" ">
<polygon fill="white" stroke="#666666" points="177,-97 65,-97 65,-66.5 177,-66.5 177,-97"/>
<text text-anchor="start" x="73" y="-83.5" font-family="Helvetica,sans-Serif" font-size="10.00">/github/workspace/src</text>
<text text-anchor="middle" x="121" y="-72.25" font-family="Helvetica,sans-Serif" font-size="10.00">/sgui/Gui.h</text>
</a>
</g>
</g>
<!-- Node1&#45;&gt;Node2 -->
<g id="edge1_Node000001_Node000002" class="edge">
<title>Node1&#45;&gt;Node2</title>
<g id="a_edge1_Node000001_Node000002"><a xlink:title=" ">
<path fill="none" stroke="#63b8ff" d="M171.73,-125.24C160.72,-116.03 148.24,-105.56 138.4,-97.33"/>
<polygon fill="#63b8ff" stroke="#63b8ff" points="169.45,-127.9 179.37,-131.64 173.95,-122.54 169.45,-127.9"/>
</a>
</g>
</g>
<!-- Node5 -->
<g id="Node000005" class="node">
<title>Node5</title>
<g id="a_Node000005"><a xlink:href="_sound_player_8cpp.html" target="_top" xlink:title=" ">
<polygon fill="white" stroke="#666666" points="357.12,-97 194.88,-97 194.88,-66.5 357.12,-66.5 357.12,-97"/>
<text text-anchor="start" x="202.88" y="-83.5" font-family="Helvetica,sans-Serif" font-size="10.00">/github/workspace/src</text>
<text text-anchor="middle" x="276" y="-72.25" font-family="Helvetica,sans-Serif" font-size="10.00">/sgui/Resources/SoundPlayer.cpp</text>
</a>
</g>
</g>
<!-- Node1&#45;&gt;Node5 -->
<g id="edge4_Node000001_Node000005" class="edge">
<title>Node1&#45;&gt;Node5</title>
<g id="a_edge4_Node000001_Node000005"><a xlink:title=" ">
<path fill="none" stroke="#63b8ff" d="M224.28,-125.52C235.51,-116.23 248.31,-105.65 258.37,-97.33"/>
<polygon fill="#63b8ff" stroke="#63b8ff" points="222.34,-122.58 216.87,-131.65 226.8,-127.97 222.34,-122.58"/>
</a>
</g>
</g>
<!-- Node3 -->
<g id="Node000003" class="node">
<title>Node3</title>
<g id="a_Node000003"><a xlink:href="_gui_8cpp.html" target="_top" xlink:title=" ">
<polygon fill="white" stroke="#666666" points="112,-30.5 0,-30.5 0,0 112,0 112,-30.5"/>
<text text-anchor="start" x="8" y="-17" font-family="Helvetica,sans-Serif" font-size="10.00">/github/workspace/src</text>
<text text-anchor="middle" x="56" y="-5.75" font-family="Helvetica,sans-Serif" font-size="10.00">/sgui/Gui.cpp</text>
</a>
</g>
</g>
<!-- Node2&#45;&gt;Node3 -->
<g id="edge2_Node000002_Node000003" class="edge">
<title>Node2&#45;&gt;Node3</title>
<g id="a_edge2_Node000002_Node000003"><a xlink:title=" ">
<path fill="none" stroke="#63b8ff" d="M98.26,-58.19C89.11,-49.11 78.83,-38.9 70.69,-30.83"/>
<polygon fill="#63b8ff" stroke="#63b8ff" points="95.61,-60.49 105.18,-65.05 100.54,-55.52 95.61,-60.49"/>
</a>
</g>
</g>
<!-- Node4 -->
<g id="Node000004" class="node">
<title>Node4</title>
<g id="a_Node000004"><a xlink:href="sgui_8h.html" target="_top" xlink:title=" ">
<polygon fill="white" stroke="#666666" points="242,-30.5 130,-30.5 130,0 242,0 242,-30.5"/>
<text text-anchor="start" x="138" y="-17" font-family="Helvetica,sans-Serif" font-size="10.00">/github/workspace/src</text>
<text text-anchor="middle" x="186" y="-5.75" font-family="Helvetica,sans-Serif" font-size="10.00">/sgui/sgui.h</text>
</a>
</g>
</g>
<!-- Node2&#45;&gt;Node4 -->
<g id="edge3_Node000002_Node000004" class="edge">
<title>Node2&#45;&gt;Node4</title>
<g id="a_edge3_Node000002_Node000004"><a xlink:title=" ">
<path fill="none" stroke="#63b8ff" d="M143.74,-58.19C152.89,-49.11 163.17,-38.9 171.31,-30.83"/>
<polygon fill="#63b8ff" stroke="#63b8ff" points="141.46,-55.52 136.82,-65.05 146.39,-60.49 141.46,-55.52"/>
</a>
</g>
</g>
</g>
</svg>
