<?xml version="1.0" encoding="UTF-8" standalone="no"?>
<!DOCTYPE svg PUBLIC "-//W3C//DTD SVG 1.1//EN"
 "http://www.w3.org/Graphics/SVG/1.1/DTD/svg11.dtd">
<!-- Generated by graphviz version 12.2.1 (20241206.2353)
 -->
<!-- Title: /github/workspace/src/sgui/Resources/SoundPlayer.h Pages: 1 -->
<svg width="1103pt" height="172pt"
 viewBox="0.00 0.00 1102.90 171.50" xmlns="http://www.w3.org/2000/svg" xmlns:xlink="http://www.w3.org/1999/xlink">
<g id="graph0" class="graph" transform="scale(1 1) rotate(0) translate(4 167.5)">
<title>/github/workspace/src/sgui/Resources/SoundPlayer.h</title>
<!-- Node1 -->
<g id="Node000001" class="node">
<title>Node1</title>
<g id="a_Node000001"><a xlink:title=" ">
<polygon fill="#999999" stroke="#666666" points="413.27,-163.5 261.52,-163.5 261.52,-133 413.27,-133 413.27,-163.5"/>
<text text-anchor="start" x="269.52" y="-150" font-family="Helvetica,sans-Serif" font-size="10.00">/github/workspace/src</text>
<text text-anchor="middle" x="337.4" y="-138.75" font-family="Helvetica,sans-Serif" font-size="10.00">/sgui/Resources/SoundPlayer.h</text>
</a>
</g>
</g>
<!-- Node2 -->
<g id="Node000002" class="node">
<title>Node2</title>
<g id="a_Node000002"><a xlink:title=" ">
<polygon fill="#e0e0e0" stroke="#999999" points="28.8,-91.38 0,-91.38 0,-72.12 28.8,-72.12 28.8,-91.38"/>
<text text-anchor="middle" x="14.4" y="-77.88" font-family="Helvetica,sans-Serif" font-size="10.00">list</text>
</a>
</g>
</g>
<!-- Node1&#45;&gt;Node2 -->
<g id="edge1_Node000001_Node000002" class="edge">
<title>Node1&#45;&gt;Node2</title>
<g id="a_edge1_Node000001_Node000002"><a xlink:title=" ">
<path fill="none" stroke="#63b8ff" d="M261.32,-142.68C199.38,-137.05 110.54,-124.56 37.4,-97 37.29,-96.96 37.18,-96.92 37.07,-96.87"/>
<polygon fill="#63b8ff" stroke="#63b8ff" points="38.93,-93.89 28.43,-92.5 35.77,-100.14 38.93,-93.89"/>
</a>
</g>
</g>
<!-- Node3 -->
<g id="Node000003" class="node">
<title>Node3</title>
<g id="a_Node000003"><a xlink:title=" ">
<polygon fill="#e0e0e0" stroke="#999999" points="180.28,-91.38 46.53,-91.38 46.53,-72.12 180.28,-72.12 180.28,-91.38"/>
<text text-anchor="middle" x="113.4" y="-77.88" font-family="Helvetica,sans-Serif" font-size="10.00">SFML/System/Vector2.hpp</text>
</a>
</g>
</g>
<!-- Node1&#45;&gt;Node3 -->
<g id="edge2_Node000001_Node000003" class="edge">
<title>Node1&#45;&gt;Node3</title>
<g id="a_edge2_Node000001_Node000003"><a xlink:title=" ">
<path fill="none" stroke="#63b8ff" d="M286.29,-132.53C246.86,-121.18 192.95,-105.66 155.87,-94.98"/>
<polygon fill="#63b8ff" stroke="#63b8ff" points="156.97,-91.65 146.39,-92.25 155.03,-98.38 156.97,-91.65"/>
</a>
</g>
</g>
<!-- Node4 -->
<g id="Node000004" class="node">
<title>Node4</title>
<g id="a_Node000004"><a xlink:title=" ">
<polygon fill="#e0e0e0" stroke="#999999" points="332.27,-91.38 198.52,-91.38 198.52,-72.12 332.27,-72.12 332.27,-91.38"/>
<text text-anchor="middle" x="265.4" y="-77.88" font-family="Helvetica,sans-Serif" font-size="10.00">SFML/System/Vector3.hpp</text>
</a>
</g>
</g>
<!-- Node1&#45;&gt;Node4 -->
<g id="edge3_Node000001_Node000004" class="edge">
<title>Node1&#45;&gt;Node4</title>
<g id="a_edge3_Node000001_Node000004"><a xlink:title=" ">
<path fill="none" stroke="#63b8ff" d="M321.06,-132.61C309.93,-122.64 295.18,-109.43 283.66,-99.11"/>
<polygon fill="#63b8ff" stroke="#63b8ff" points="286.16,-96.65 276.38,-92.58 281.49,-101.86 286.16,-96.65"/>
</a>
</g>
</g>
<!-- Node5 -->
<g id="Node000005" class="node">
<title>Node5</title>
<g id="a_Node000005"><a xlink:title=" ">
<polygon fill="#e0e0e0" stroke="#999999" points="470.15,-91.38 350.65,-91.38 350.65,-72.12 470.15,-72.12 470.15,-91.38"/>
<text text-anchor="middle" x="410.4" y="-77.88" font-family="Helvetica,sans-Serif" font-size="10.00">SFML/Audio/Sound.hpp</text>
</a>
</g>
</g>
<!-- Node1&#45;&gt;Node5 -->
<g id="edge4_Node000001_Node000005" class="edge">
<title>Node1&#45;&gt;Node5</title>
<g id="a_edge4_Node000001_Node000005"><a xlink:title=" ">
<path fill="none" stroke="#63b8ff" d="M353.96,-132.61C365.25,-122.64 380.2,-109.43 391.88,-99.11"/>
<polygon fill="#63b8ff" stroke="#63b8ff" points="394.1,-101.82 399.28,-92.57 389.47,-96.57 394.1,-101.82"/>
</a>
</g>
</g>
<!-- Node6 -->
<g id="Node000006" class="node">
<title>Node6</title>
<g id="a_Node000006"><a xlink:title=" ">
<polygon fill="#e0e0e0" stroke="#999999" points="632.9,-91.38 487.9,-91.38 487.9,-72.12 632.9,-72.12 632.9,-91.38"/>
<text text-anchor="middle" x="560.4" y="-77.88" font-family="Helvetica,sans-Serif" font-size="10.00">SFML/Audio/SoundBuffer.hpp</text>
</a>
</g>
</g>
<!-- Node1&#45;&gt;Node6 -->
<g id="edge5_Node000001_Node000006" class="edge">
<title>Node1&#45;&gt;Node6</title>
<g id="a_edge5_Node000001_Node000006"><a xlink:title=" ">
<path fill="none" stroke="#63b8ff" d="M388.28,-132.53C427.54,-121.18 481.2,-105.66 518.12,-94.98"/>
<polygon fill="#63b8ff" stroke="#63b8ff" points="518.92,-98.39 527.55,-92.25 516.97,-91.67 518.92,-98.39"/>
</a>
</g>
</g>
<!-- Node7 -->
<g id="Node000007" class="node">
<title>Node7</title>
<g id="a_Node000007"><a xlink:href="_resources_holder_8h.html" target="_top" xlink:title=" ">
<polygon fill="white" stroke="#666666" points="783.9,-97 650.9,-97 650.9,-66.5 783.9,-66.5 783.9,-97"/>
<text text-anchor="start" x="658.9" y="-83.5" font-family="Helvetica,sans-Serif" font-size="10.00">sgui/Resources/Resources</text>
<text text-anchor="middle" x="717.4" y="-72.25" font-family="Helvetica,sans-Serif" font-size="10.00">Holder.h</text>
</a>
</g>
</g>
<!-- Node1&#45;&gt;Node7 -->
<g id="edge6_Node000001_Node000007" class="edge">
<title>Node1&#45;&gt;Node7</title>
<g id="a_edge6_Node000001_Node000007"><a xlink:title=" ">
<path fill="none" stroke="#63b8ff" d="M413.63,-135.22C472.73,-125.77 556.98,-112.04 639.64,-97.47"/>
<polygon fill="#63b8ff" stroke="#63b8ff" points="640.03,-100.95 649.27,-95.76 638.81,-94.06 640.03,-100.95"/>
</a>
</g>
</g>
<!-- Node8 -->
<g id="Node000008" class="node">
<title>Node8</title>
<g id="a_Node000008"><a xlink:title=" ">
<polygon fill="#e0e0e0" stroke="#999999" points="548.9,-24.88 505.9,-24.88 505.9,-5.63 548.9,-5.63 548.9,-24.88"/>
<text text-anchor="middle" x="527.4" y="-11.38" font-family="Helvetica,sans-Serif" font-size="10.00">vector</text>
</a>
</g>
</g>
<!-- Node7&#45;&gt;Node8 -->
<g id="edge7_Node000007_Node000008" class="edge">
<title>Node7&#45;&gt;Node8</title>
<g id="a_edge7_Node000007_Node000008"><a xlink:title=" ">
<path fill="none" stroke="#63b8ff" d="M665.28,-66.07C633.96,-56.8 593.51,-44.06 558.4,-30.5 557.78,-30.26 557.15,-30.01 556.52,-29.76"/>
<polygon fill="#63b8ff" stroke="#63b8ff" points="558.22,-26.68 547.65,-25.97 555.47,-33.12 558.22,-26.68"/>
</a>
</g>
</g>
<!-- Node9 -->
<g id="Node000009" class="node">
<title>Node9</title>
<g id="a_Node000009"><a xlink:title=" ">
<polygon fill="#e0e0e0" stroke="#999999" points="617.65,-24.88 567.15,-24.88 567.15,-5.63 617.65,-5.63 617.65,-24.88"/>
<text text-anchor="middle" x="592.4" y="-11.38" font-family="Helvetica,sans-Serif" font-size="10.00">memory</text>
</a>
</g>
</g>
<!-- Node7&#45;&gt;Node9 -->
<g id="edge8_Node000007_Node000009" class="edge">
<title>Node7&#45;&gt;Node9</title>
<g id="a_edge8_Node000007_Node000009"><a xlink:title=" ">
<path fill="none" stroke="#63b8ff" d="M689.04,-66.11C668.3,-55.42 640.34,-40.99 619.83,-30.4"/>
<polygon fill="#63b8ff" stroke="#63b8ff" points="621.7,-27.43 611.21,-25.95 618.49,-33.65 621.7,-27.43"/>
</a>
</g>
</g>
<!-- Node10 -->
<g id="Node000010" class="node">
<title>Node10</title>
<g id="a_Node000010"><a xlink:title=" ">
<polygon fill="#e0e0e0" stroke="#999999" points="675.4,-24.88 635.4,-24.88 635.4,-5.63 675.4,-5.63 675.4,-24.88"/>
<text text-anchor="middle" x="655.4" y="-11.38" font-family="Helvetica,sans-Serif" font-size="10.00">string</text>
</a>
</g>
</g>
<!-- Node7&#45;&gt;Node10 -->
<g id="edge9_Node000007_Node000010" class="edge">
<title>Node7&#45;&gt;Node10</title>
<g id="a_edge9_Node000007_Node000010"><a xlink:title=" ">
<path fill="none" stroke="#63b8ff" d="M703.33,-66.11C693.94,-56.34 681.55,-43.45 671.72,-33.23"/>
<polygon fill="#63b8ff" stroke="#63b8ff" points="674.38,-30.95 664.93,-26.16 669.34,-35.8 674.38,-30.95"/>
</a>
</g>
</g>
<!-- Node11 -->
<g id="Node000011" class="node">
<title>Node11</title>
<g id="a_Node000011"><a xlink:title=" ">
<polygon fill="#e0e0e0" stroke="#999999" points="741.52,-24.88 693.27,-24.88 693.27,-5.63 741.52,-5.63 741.52,-24.88"/>
<text text-anchor="middle" x="717.4" y="-11.38" font-family="Helvetica,sans-Serif" font-size="10.00">cassert</text>
</a>
</g>
</g>
<!-- Node7&#45;&gt;Node11 -->
<g id="edge10_Node000007_Node000011" class="edge">
<title>Node7&#45;&gt;Node11</title>
<g id="a_edge10_Node000007_Node000011"><a xlink:title=" ">
<path fill="none" stroke="#63b8ff" d="M717.4,-66.11C717.4,-57.33 717.4,-46.02 717.4,-36.4"/>
<polygon fill="#63b8ff" stroke="#63b8ff" points="720.9,-36.59 717.4,-26.59 713.9,-36.59 720.9,-36.59"/>
</a>
</g>
</g>
<!-- Node12 -->
<g id="Node000012" class="node">
<title>Node12</title>
<g id="a_Node000012"><a xlink:title=" ">
<polygon fill="#e0e0e0" stroke="#999999" points="842.77,-24.88 760.02,-24.88 760.02,-5.63 842.77,-5.63 842.77,-24.88"/>
<text text-anchor="middle" x="801.4" y="-11.38" font-family="Helvetica,sans-Serif" font-size="10.00">unordered_map</text>
</a>
</g>
</g>
<!-- Node7&#45;&gt;Node12 -->
<g id="edge11_Node000007_Node000012" class="edge">
<title>Node7&#45;&gt;Node12</title>
<g id="a_edge11_Node000007_Node000012"><a xlink:title=" ">
<path fill="none" stroke="#63b8ff" d="M736.46,-66.11C749.7,-55.94 767.34,-42.41 780.89,-32"/>
<polygon fill="#63b8ff" stroke="#63b8ff" points="782.91,-34.86 788.71,-25.99 778.65,-29.31 782.91,-34.86"/>
</a>
</g>
</g>
<!-- Node13 -->
<g id="Node000013" class="node">
<title>Node13</title>
<g id="a_Node000013"><a xlink:title=" ">
<polygon fill="#e0e0e0" stroke="#999999" points="944.15,-24.88 860.65,-24.88 860.65,-5.63 944.15,-5.63 944.15,-24.88"/>
<text text-anchor="middle" x="902.4" y="-11.38" font-family="Helvetica,sans-Serif" font-size="10.00">spdlog/spdlog.h</text>
</a>
</g>
</g>
<!-- Node7&#45;&gt;Node13 -->
<g id="edge12_Node000007_Node000013" class="edge">
<title>Node7&#45;&gt;Node13</title>
<g id="a_edge12_Node000007_Node000013"><a xlink:title=" ">
<path fill="none" stroke="#63b8ff" d="M759.38,-66.11C791.38,-54.96 835.01,-39.75 865.64,-29.07"/>
<polygon fill="#63b8ff" stroke="#63b8ff" points="866.57,-32.45 874.86,-25.85 864.26,-25.84 866.57,-32.45"/>
</a>
</g>
</g>
<!-- Node14 -->
<g id="Node000014" class="node">
<title>Node14</title>
<g id="a_Node000014"><a xlink:href="_resources_holder_8tpp.html" target="_top" xlink:title=" ">
<polygon fill="white" stroke="#666666" points="1094.9,-30.5 961.9,-30.5 961.9,0 1094.9,0 1094.9,-30.5"/>
<text text-anchor="start" x="969.9" y="-17" font-family="Helvetica,sans-Serif" font-size="10.00">sgui/Resources/Resources</text>
<text text-anchor="middle" x="1028.4" y="-5.75" font-family="Helvetica,sans-Serif" font-size="10.00">Holder.tpp</text>
</a>
</g>
</g>
<!-- Node7&#45;&gt;Node14 -->
<g id="edge13_Node000007_Node000014" class="edge">
<title>Node7&#45;&gt;Node14</title>
<g id="a_edge13_Node000007_Node000014"><a xlink:title=" ">
<path fill="none" stroke="#63b8ff" d="M784.12,-66.91C832.92,-56.79 899.27,-43.03 950.5,-32.41"/>
<polygon fill="#63b8ff" stroke="#63b8ff" points="950.96,-35.88 960.04,-30.43 949.54,-29.03 950.96,-35.88"/>
</a>
</g>
</g>
</g>
</svg>
