<?xml version="1.0" encoding="UTF-8" standalone="no"?>
<!DOCTYPE svg PUBLIC "-//W3C//DTD SVG 1.1//EN"
 "http://www.w3.org/Graphics/SVG/1.1/DTD/svg11.dtd">
<!-- Generated by graphviz version 12.2.1 (20241206.2353)
 -->
<!-- Title: /github/workspace/src/sgui/Resources/SoundPlayer.cpp Pages: 1 -->
<svg width="1103pt" height="227pt"
 viewBox="0.00 0.00 1102.90 226.75" xmlns="http://www.w3.org/2000/svg" xmlns:xlink="http://www.w3.org/1999/xlink">
<g id="graph0" class="graph" transform="scale(1 1) rotate(0) translate(4 222.75)">
<title>/github/workspace/src/sgui/Resources/SoundPlayer.cpp</title>
<!-- Node1 -->
<g id="Node000001" class="node">
<title>Node1</title>
<g id="a_Node000001"><a xlink:title=" ">
<polygon fill="#999999" stroke="#666666" points="340.52,-218.75 178.27,-218.75 178.27,-188.25 340.52,-188.25 340.52,-218.75"/>
<text text-anchor="start" x="186.27" y="-205.25" font-family="Helvetica,sans-Serif" font-size="10.00">/github/workspace/src</text>
<text text-anchor="middle" x="259.4" y="-194" font-family="Helvetica,sans-Serif" font-size="10.00">/sgui/Resources/SoundPlayer.cpp</text>
</a>
</g>
</g>
<!-- Node2 -->
<g id="Node000002" class="node">
<title>Node2</title>
<g id="a_Node000002"><a xlink:title=" ">
<polygon fill="#e0e0e0" stroke="#999999" points="244.9,-152.25 117.9,-152.25 117.9,-133 244.9,-133 244.9,-152.25"/>
<text text-anchor="middle" x="181.4" y="-138.75" font-family="Helvetica,sans-Serif" font-size="10.00">SFML/Audio/Listener.hpp</text>
</a>
</g>
</g>
<!-- Node1&#45;&gt;Node2 -->
<g id="edge1_Node000001_Node000002" class="edge">
<title>Node1&#45;&gt;Node2</title>
<g id="a_edge1_Node000001_Node000002"><a xlink:title=" ">
<path fill="none" stroke="#63b8ff" d="M240.12,-187.95C228.7,-179.33 214.22,-168.4 202.5,-159.55"/>
<polygon fill="#63b8ff" stroke="#63b8ff" points="204.72,-156.84 194.63,-153.61 200.51,-162.43 204.72,-156.84"/>
</a>
</g>
</g>
<!-- Node3 -->
<g id="Node000003" class="node">
<title>Node3</title>
<g id="a_Node000003"><a xlink:href="_sound_player_8h.html" target="_top" xlink:title=" ">
<polygon fill="white" stroke="#666666" points="411.77,-152.25 263.02,-152.25 263.02,-133 411.77,-133 411.77,-152.25"/>
<text text-anchor="middle" x="337.4" y="-138.75" font-family="Helvetica,sans-Serif" font-size="10.00">sgui/Resources/SoundPlayer.h</text>
</a>
</g>
</g>
<!-- Node1&#45;&gt;Node3 -->
<g id="edge2_Node000001_Node000003" class="edge">
<title>Node1&#45;&gt;Node3</title>
<g id="a_edge2_Node000001_Node000003"><a xlink:title=" ">
<path fill="none" stroke="#63b8ff" d="M278.68,-187.95C290.1,-179.33 304.58,-168.4 316.3,-159.55"/>
<polygon fill="#63b8ff" stroke="#63b8ff" points="318.29,-162.43 324.17,-153.61 314.08,-156.84 318.29,-162.43"/>
</a>
</g>
</g>
<!-- Node4 -->
<g id="Node000004" class="node">
<title>Node4</title>
<g id="a_Node000004"><a xlink:title=" ">
<polygon fill="#e0e0e0" stroke="#999999" points="28.8,-91.38 0,-91.38 0,-72.12 28.8,-72.12 28.8,-91.38"/>
<text text-anchor="middle" x="14.4" y="-77.88" font-family="Helvetica,sans-Serif" font-size="10.00">list</text>
</a>
</g>
</g>
<!-- Node3&#45;&gt;Node4 -->
<g id="edge3_Node000003_Node000004" class="edge">
<title>Node3&#45;&gt;Node4</title>
<g id="a_edge3_Node000003_Node000004"><a xlink:title=" ">
<path fill="none" stroke="#63b8ff" d="M265.69,-132.51C183.81,-121.85 58.41,-104.7 37.4,-97 37.29,-96.96 37.18,-96.92 37.07,-96.88"/>
<polygon fill="#63b8ff" stroke="#63b8ff" points="38.92,-93.89 28.42,-92.54 35.79,-100.15 38.92,-93.89"/>
</a>
</g>
</g>
<!-- Node5 -->
<g id="Node000005" class="node">
<title>Node5</title>
<g id="a_Node000005"><a xlink:title=" ">
<polygon fill="#e0e0e0" stroke="#999999" points="180.28,-91.38 46.53,-91.38 46.53,-72.12 180.28,-72.12 180.28,-91.38"/>
<text text-anchor="middle" x="113.4" y="-77.88" font-family="Helvetica,sans-Serif" font-size="10.00">SFML/System/Vector2.hpp</text>
</a>
</g>
</g>
<!-- Node3&#45;&gt;Node5 -->
<g id="edge4_Node000003_Node000005" class="edge">
<title>Node3&#45;&gt;Node5</title>
<g id="a_edge4_Node000003_Node000005"><a xlink:title=" ">
<path fill="none" stroke="#63b8ff" d="M302.89,-132.55C264.25,-122.4 201.47,-105.9 158.86,-94.7"/>
<polygon fill="#63b8ff" stroke="#63b8ff" points="159.97,-91.37 149.41,-92.22 158.19,-98.14 159.97,-91.37"/>
</a>
</g>
</g>
<!-- Node6 -->
<g id="Node000006" class="node">
<title>Node6</title>
<g id="a_Node000006"><a xlink:title=" ">
<polygon fill="#e0e0e0" stroke="#999999" points="332.27,-91.38 198.52,-91.38 198.52,-72.12 332.27,-72.12 332.27,-91.38"/>
<text text-anchor="middle" x="265.4" y="-77.88" font-family="Helvetica,sans-Serif" font-size="10.00">SFML/System/Vector3.hpp</text>
</a>
</g>
</g>
<!-- Node3&#45;&gt;Node6 -->
<g id="edge5_Node000003_Node000006" class="edge">
<title>Node3&#45;&gt;Node6</title>
<g id="a_edge5_Node000003_Node000006"><a xlink:title=" ">
<path fill="none" stroke="#63b8ff" d="M326.46,-132.68C315.58,-123.78 298.61,-109.91 285.32,-99.04"/>
<polygon fill="#63b8ff" stroke="#63b8ff" points="287.57,-96.35 277.61,-92.73 283.14,-101.77 287.57,-96.35"/>
</a>
</g>
</g>
<!-- Node7 -->
<g id="Node000007" class="node">
<title>Node7</title>
<g id="a_Node000007"><a xlink:title=" ">
<polygon fill="#e0e0e0" stroke="#999999" points="470.15,-91.38 350.65,-91.38 350.65,-72.12 470.15,-72.12 470.15,-91.38"/>
<text text-anchor="middle" x="410.4" y="-77.88" font-family="Helvetica,sans-Serif" font-size="10.00">SFML/Audio/Sound.hpp</text>
</a>
</g>
</g>
<!-- Node3&#45;&gt;Node7 -->
<g id="edge6_Node000003_Node000007" class="edge">
<title>Node3&#45;&gt;Node7</title>
<g id="a_edge6_Node000003_Node000007"><a xlink:title=" ">
<path fill="none" stroke="#63b8ff" d="M348.49,-132.68C359.64,-123.69 377.06,-109.64 390.59,-98.73"/>
<polygon fill="#63b8ff" stroke="#63b8ff" points="392.44,-101.73 398.03,-92.73 388.05,-96.28 392.44,-101.73"/>
</a>
</g>
</g>
<!-- Node8 -->
<g id="Node000008" class="node">
<title>Node8</title>
<g id="a_Node000008"><a xlink:title=" ">
<polygon fill="#e0e0e0" stroke="#999999" points="632.9,-91.38 487.9,-91.38 487.9,-72.12 632.9,-72.12 632.9,-91.38"/>
<text text-anchor="middle" x="560.4" y="-77.88" font-family="Helvetica,sans-Serif" font-size="10.00">SFML/Audio/SoundBuffer.hpp</text>
</a>
</g>
</g>
<!-- Node3&#45;&gt;Node8 -->
<g id="edge7_Node000003_Node000008" class="edge">
<title>Node3&#45;&gt;Node8</title>
<g id="a_edge7_Node000003_Node000008"><a xlink:title=" ">
<path fill="none" stroke="#63b8ff" d="M371.76,-132.55C410.14,-122.42 472.45,-105.97 514.87,-94.77"/>
<polygon fill="#63b8ff" stroke="#63b8ff" points="515.77,-98.15 524.54,-92.22 513.98,-91.39 515.77,-98.15"/>
</a>
</g>
</g>
<!-- Node9 -->
<g id="Node000009" class="node">
<title>Node9</title>
<g id="a_Node000009"><a xlink:href="_resources_holder_8h.html" target="_top" xlink:title=" ">
<polygon fill="white" stroke="#666666" points="783.9,-97 650.9,-97 650.9,-66.5 783.9,-66.5 783.9,-97"/>
<text text-anchor="start" x="658.9" y="-83.5" font-family="Helvetica,sans-Serif" font-size="10.00">sgui/Resources/Resources</text>
<text text-anchor="middle" x="717.4" y="-72.25" font-family="Helvetica,sans-Serif" font-size="10.00">Holder.h</text>
</a>
</g>
</g>
<!-- Node3&#45;&gt;Node9 -->
<g id="edge8_Node000003_Node000009" class="edge">
<title>Node3&#45;&gt;Node9</title>
<g id="a_edge8_Node000003_Node000009"><a xlink:title=" ">
<path fill="none" stroke="#63b8ff" d="M405.37,-132.52C464.66,-124.39 553.3,-111.77 639.46,-97.45"/>
<polygon fill="#63b8ff" stroke="#63b8ff" points="639.99,-100.91 649.28,-95.81 638.84,-94.01 639.99,-100.91"/>
</a>
</g>
</g>
<!-- Node10 -->
<g id="Node000010" class="node">
<title>Node10</title>
<g id="a_Node000010"><a xlink:title=" ">
<polygon fill="#e0e0e0" stroke="#999999" points="548.9,-24.88 505.9,-24.88 505.9,-5.63 548.9,-5.63 548.9,-24.88"/>
<text text-anchor="middle" x="527.4" y="-11.38" font-family="Helvetica,sans-Serif" font-size="10.00">vector</text>
</a>
</g>
</g>
<!-- Node9&#45;&gt;Node10 -->
<g id="edge9_Node000009_Node000010" class="edge">
<title>Node9&#45;&gt;Node10</title>
<g id="a_edge9_Node000009_Node000010"><a xlink:title=" ">
<path fill="none" stroke="#63b8ff" d="M665.28,-66.07C633.96,-56.8 593.51,-44.06 558.4,-30.5 557.78,-30.26 557.15,-30.01 556.52,-29.76"/>
<polygon fill="#63b8ff" stroke="#63b8ff" points="558.22,-26.68 547.65,-25.97 555.47,-33.12 558.22,-26.68"/>
</a>
</g>
</g>
<!-- Node11 -->
<g id="Node000011" class="node">
<title>Node11</title>
<g id="a_Node000011"><a xlink:title=" ">
<polygon fill="#e0e0e0" stroke="#999999" points="617.65,-24.88 567.15,-24.88 567.15,-5.63 617.65,-5.63 617.65,-24.88"/>
<text text-anchor="middle" x="592.4" y="-11.38" font-family="Helvetica,sans-Serif" font-size="10.00">memory</text>
</a>
</g>
</g>
<!-- Node9&#45;&gt;Node11 -->
<g id="edge10_Node000009_Node000011" class="edge">
<title>Node9&#45;&gt;Node11</title>
<g id="a_edge10_Node000009_Node000011"><a xlink:title=" ">
<path fill="none" stroke="#63b8ff" d="M689.04,-66.11C668.3,-55.42 640.34,-40.99 619.83,-30.4"/>
<polygon fill="#63b8ff" stroke="#63b8ff" points="621.7,-27.43 611.21,-25.95 618.49,-33.65 621.7,-27.43"/>
</a>
</g>
</g>
<!-- Node12 -->
<g id="Node000012" class="node">
<title>Node12</title>
<g id="a_Node000012"><a xlink:title=" ">
<polygon fill="#e0e0e0" stroke="#999999" points="675.4,-24.88 635.4,-24.88 635.4,-5.63 675.4,-5.63 675.4,-24.88"/>
<text text-anchor="middle" x="655.4" y="-11.38" font-family="Helvetica,sans-Serif" font-size="10.00">string</text>
</a>
</g>
</g>
<!-- Node9&#45;&gt;Node12 -->
<g id="edge11_Node000009_Node000012" class="edge">
<title>Node9&#45;&gt;Node12</title>
<g id="a_edge11_Node000009_Node000012"><a xlink:title=" ">
<path fill="none" stroke="#63b8ff" d="M703.33,-66.11C693.94,-56.34 681.55,-43.45 671.72,-33.23"/>
<polygon fill="#63b8ff" stroke="#63b8ff" points="674.38,-30.95 664.93,-26.16 669.34,-35.8 674.38,-30.95"/>
</a>
</g>
</g>
<!-- Node13 -->
<g id="Node000013" class="node">
<title>Node13</title>
<g id="a_Node000013"><a xlink:title=" ">
<polygon fill="#e0e0e0" stroke="#999999" points="741.52,-24.88 693.27,-24.88 693.27,-5.63 741.52,-5.63 741.52,-24.88"/>
<text text-anchor="middle" x="717.4" y="-11.38" font-family="Helvetica,sans-Serif" font-size="10.00">cassert</text>
</a>
</g>
</g>
<!-- Node9&#45;&gt;Node13 -->
<g id="edge12_Node000009_Node000013" class="edge">
<title>Node9&#45;&gt;Node13</title>
<g id="a_edge12_Node000009_Node000013"><a xlink:title=" ">
<path fill="none" stroke="#63b8ff" d="M717.4,-66.11C717.4,-57.33 717.4,-46.02 717.4,-36.4"/>
<polygon fill="#63b8ff" stroke="#63b8ff" points="720.9,-36.59 717.4,-26.59 713.9,-36.59 720.9,-36.59"/>
</a>
</g>
</g>
<!-- Node14 -->
<g id="Node000014" class="node">
<title>Node14</title>
<g id="a_Node000014"><a xlink:title=" ">
<polygon fill="#e0e0e0" stroke="#999999" points="842.77,-24.88 760.02,-24.88 760.02,-5.63 842.77,-5.63 842.77,-24.88"/>
<text text-anchor="middle" x="801.4" y="-11.38" font-family="Helvetica,sans-Serif" font-size="10.00">unordered_map</text>
</a>
</g>
</g>
<!-- Node9&#45;&gt;Node14 -->
<g id="edge13_Node000009_Node000014" class="edge">
<title>Node9&#45;&gt;Node14</title>
<g id="a_edge13_Node000009_Node000014"><a xlink:title=" ">
<path fill="none" stroke="#63b8ff" d="M736.46,-66.11C749.7,-55.94 767.34,-42.41 780.89,-32"/>
<polygon fill="#63b8ff" stroke="#63b8ff" points="782.91,-34.86 788.71,-25.99 778.65,-29.31 782.91,-34.86"/>
</a>
</g>
</g>
<!-- Node15 -->
<g id="Node000015" class="node">
<title>Node15</title>
<g id="a_Node000015"><a xlink:title=" ">
<polygon fill="#e0e0e0" stroke="#999999" points="944.15,-24.88 860.65,-24.88 860.65,-5.63 944.15,-5.63 944.15,-24.88"/>
<text text-anchor="middle" x="902.4" y="-11.38" font-family="Helvetica,sans-Serif" font-size="10.00">spdlog/spdlog.h</text>
</a>
</g>
</g>
<!-- Node9&#45;&gt;Node15 -->
<g id="edge14_Node000009_Node000015" class="edge">
<title>Node9&#45;&gt;Node15</title>
<g id="a_edge14_Node000009_Node000015"><a xlink:title=" ">
<path fill="none" stroke="#63b8ff" d="M759.38,-66.11C791.38,-54.96 835.01,-39.75 865.64,-29.07"/>
<polygon fill="#63b8ff" stroke="#63b8ff" points="866.57,-32.45 874.86,-25.85 864.26,-25.84 866.57,-32.45"/>
</a>
</g>
</g>
<!-- Node16 -->
<g id="Node000016" class="node">
<title>Node16</title>
<g id="a_Node000016"><a xlink:href="_resources_holder_8tpp.html" target="_top" xlink:title=" ">
<polygon fill="white" stroke="#666666" points="1094.9,-30.5 961.9,-30.5 961.9,0 1094.9,0 1094.9,-30.5"/>
<text text-anchor="start" x="969.9" y="-17" font-family="Helvetica,sans-Serif" font-size="10.00">sgui/Resources/Resources</text>
<text text-anchor="middle" x="1028.4" y="-5.75" font-family="Helvetica,sans-Serif" font-size="10.00">Holder.tpp</text>
</a>
</g>
</g>
<!-- Node9&#45;&gt;Node16 -->
<g id="edge15_Node000009_Node000016" class="edge">
<title>Node9&#45;&gt;Node16</title>
<g id="a_edge15_Node000009_Node000016"><a xlink:title=" ">
<path fill="none" stroke="#63b8ff" d="M784.12,-66.91C832.92,-56.79 899.27,-43.03 950.5,-32.41"/>
<polygon fill="#63b8ff" stroke="#63b8ff" points="950.96,-35.88 960.04,-30.43 949.54,-29.03 950.96,-35.88"/>
</a>
</g>
</g>
</g>
</svg>
