<?xml version="1.0" encoding="UTF-8" standalone="no"?>
<!DOCTYPE svg PUBLIC "-//W3C//DTD SVG 1.1//EN"
 "http://www.w3.org/Graphics/SVG/1.1/DTD/svg11.dtd">
<!-- Generated by graphviz version 12.2.1 (20241206.2353)
 -->
<!-- Title: /github/workspace/src/sgui/Resources/TextContainer.cpp Pages: 1 -->
<svg width="707pt" height="282pt"
 viewBox="0.00 0.00 707.12 282.00" xmlns="http://www.w3.org/2000/svg" xmlns:xlink="http://www.w3.org/1999/xlink">
<g id="graph0" class="graph" transform="scale(1 1) rotate(0) translate(4 278)">
<title>/github/workspace/src/sgui/Resources/TextContainer.cpp</title>
<!-- Node1 -->
<g id="Node000001" class="node">
<title>Node1</title>
<g id="a_Node000001"><a xlink:title=" ">
<polygon fill="#999999" stroke="#666666" points="214.75,-274 47.25,-274 47.25,-243.5 214.75,-243.5 214.75,-274"/>
<text text-anchor="start" x="55.25" y="-260.5" font-family="Helvetica,sans-Serif" font-size="10.00">/github/workspace/src</text>
<text text-anchor="middle" x="131" y="-249.25" font-family="Helvetica,sans-Serif" font-size="10.00">/sgui/Resources/TextContainer.cpp</text>
</a>
</g>
</g>
<!-- Node2 -->
<g id="Node000002" class="node">
<title>Node2</title>
<g id="a_Node000002"><a xlink:title=" ">
<polygon fill="#e0e0e0" stroke="#999999" points="102.75,-201.88 19.25,-201.88 19.25,-182.62 102.75,-182.62 102.75,-201.88"/>
<text text-anchor="middle" x="61" y="-188.38" font-family="Helvetica,sans-Serif" font-size="10.00">spdlog/spdlog.h</text>
</a>
</g>
</g>
<!-- Node1&#45;&gt;Node2 -->
<g id="edge1_Node000001_Node000002" class="edge">
<title>Node1&#45;&gt;Node2</title>
<g id="a_edge1_Node000001_Node000002"><a xlink:title=" ">
<path fill="none" stroke="#63b8ff" d="M115.12,-243.11C104.29,-233.14 89.96,-219.93 78.76,-209.61"/>
<polygon fill="#63b8ff" stroke="#63b8ff" points="81.41,-207.3 71.69,-203.1 76.67,-212.45 81.41,-207.3"/>
</a>
</g>
</g>
<!-- Node3 -->
<g id="Node000003" class="node">
<title>Node3</title>
<g id="a_Node000003"><a xlink:href="_text_container_8h.html" target="_top" xlink:title=" ">
<polygon fill="white" stroke="#666666" points="154,-74.5 0,-74.5 0,-55.25 154,-55.25 154,-74.5"/>
<text text-anchor="middle" x="77" y="-61" font-family="Helvetica,sans-Serif" font-size="10.00">sgui/Resources/TextContainer.h</text>
</a>
</g>
</g>
<!-- Node1&#45;&gt;Node3 -->
<g id="edge2_Node000001_Node000003" class="edge">
<title>Node1&#45;&gt;Node3</title>
<g id="a_edge2_Node000001_Node000003"><a xlink:title=" ">
<path fill="none" stroke="#63b8ff" d="M127.89,-243.08C124.37,-226.84 118.3,-199.91 112,-177 103.13,-144.73 91.11,-107.76 83.71,-85.64"/>
<polygon fill="#63b8ff" stroke="#63b8ff" points="87.03,-84.53 80.52,-76.17 80.4,-86.77 87.03,-84.53"/>
</a>
</g>
</g>
<!-- Node7 -->
<g id="Node000007" class="node">
<title>Node7</title>
<g id="a_Node000007"><a xlink:href="_load_lookup_table_8h.html" target="_top" xlink:title=" ">
<polygon fill="white" stroke="#666666" points="316.25,-207.5 211.75,-207.5 211.75,-177 316.25,-177 316.25,-207.5"/>
<text text-anchor="start" x="219.75" y="-194" font-family="Helvetica,sans-Serif" font-size="10.00">sgui/Serialization</text>
<text text-anchor="middle" x="264" y="-182.75" font-family="Helvetica,sans-Serif" font-size="10.00">/LoadLookupTable.h</text>
</a>
</g>
</g>
<!-- Node1&#45;&gt;Node7 -->
<g id="edge6_Node000001_Node000007" class="edge">
<title>Node1&#45;&gt;Node7</title>
<g id="a_edge6_Node000001_Node000007"><a xlink:title=" ">
<path fill="none" stroke="#63b8ff" d="M161.18,-243.11C179.72,-234.13 203.68,-222.5 223.81,-212.74"/>
<polygon fill="#63b8ff" stroke="#63b8ff" points="225.11,-216 232.58,-208.49 222.05,-209.7 225.11,-216"/>
</a>
</g>
</g>
<!-- Node4 -->
<g id="Node000004" class="node">
<title>Node4</title>
<g id="a_Node000004"><a xlink:title=" ">
<polygon fill="#e0e0e0" stroke="#999999" points="97,-19.25 57,-19.25 57,0 97,0 97,-19.25"/>
<text text-anchor="middle" x="77" y="-5.75" font-family="Helvetica,sans-Serif" font-size="10.00">string</text>
</a>
</g>
</g>
<!-- Node3&#45;&gt;Node4 -->
<g id="edge3_Node000003_Node000004" class="edge">
<title>Node3&#45;&gt;Node4</title>
<g id="a_edge3_Node000003_Node000004"><a xlink:title=" ">
<path fill="none" stroke="#63b8ff" d="M77,-55.08C77,-48.57 77,-39.42 77,-31.12"/>
<polygon fill="#63b8ff" stroke="#63b8ff" points="80.5,-31.12 77,-21.12 73.5,-31.12 80.5,-31.12"/>
</a>
</g>
</g>
<!-- Node5 -->
<g id="Node000005" class="node">
<title>Node5</title>
<g id="a_Node000005"><a xlink:title=" ">
<polygon fill="#e0e0e0" stroke="#999999" points="259.5,-19.25 216.5,-19.25 216.5,0 259.5,0 259.5,-19.25"/>
<text text-anchor="middle" x="238" y="-5.75" font-family="Helvetica,sans-Serif" font-size="10.00">vector</text>
</a>
</g>
</g>
<!-- Node3&#45;&gt;Node5 -->
<g id="edge4_Node000003_Node000005" class="edge">
<title>Node3&#45;&gt;Node5</title>
<g id="a_edge4_Node000003_Node000005"><a xlink:title=" ">
<path fill="none" stroke="#63b8ff" d="M104.31,-54.84C132.31,-45.58 175.86,-31.18 205.59,-21.35"/>
<polygon fill="#63b8ff" stroke="#63b8ff" points="206.41,-24.76 214.81,-18.3 204.21,-18.11 206.41,-24.76"/>
</a>
</g>
</g>
<!-- Node6 -->
<g id="Node000006" class="node">
<title>Node6</title>
<g id="a_Node000006"><a xlink:title=" ">
<polygon fill="#e0e0e0" stroke="#999999" points="402.38,-19.25 319.62,-19.25 319.62,0 402.38,0 402.38,-19.25"/>
<text text-anchor="middle" x="361" y="-5.75" font-family="Helvetica,sans-Serif" font-size="10.00">unordered_map</text>
</a>
</g>
</g>
<!-- Node3&#45;&gt;Node6 -->
<g id="edge5_Node000003_Node000006" class="edge">
<title>Node3&#45;&gt;Node6</title>
<g id="a_edge5_Node000003_Node000006"><a xlink:title=" ">
<path fill="none" stroke="#63b8ff" d="M125.5,-54.78C176.27,-45.26 255.75,-30.36 308.11,-20.54"/>
<polygon fill="#63b8ff" stroke="#63b8ff" points="308.5,-24.03 317.69,-18.75 307.21,-17.15 308.5,-24.03"/>
</a>
</g>
</g>
<!-- Node8 -->
<g id="Node000008" class="node">
<title>Node8</title>
<g id="a_Node000008"><a xlink:href="_load_json_8h.html" target="_top" xlink:title=" ">
<polygon fill="white" stroke="#666666" points="308.75,-141 219.25,-141 219.25,-110.5 308.75,-110.5 308.75,-141"/>
<text text-anchor="start" x="227.25" y="-127.5" font-family="Helvetica,sans-Serif" font-size="10.00">sgui/Serialization</text>
<text text-anchor="middle" x="264" y="-116.25" font-family="Helvetica,sans-Serif" font-size="10.00">/LoadJson.h</text>
</a>
</g>
</g>
<!-- Node7&#45;&gt;Node8 -->
<g id="edge7_Node000007_Node000008" class="edge">
<title>Node7&#45;&gt;Node8</title>
<g id="a_edge7_Node000007_Node000008"><a xlink:title=" ">
<path fill="none" stroke="#63b8ff" d="M264,-176.61C264,-169.52 264,-160.79 264,-152.63"/>
<polygon fill="#63b8ff" stroke="#63b8ff" points="267.5,-152.84 264,-142.84 260.5,-152.84 267.5,-152.84"/>
</a>
</g>
</g>
<!-- Node12 -->
<g id="Node000012" class="node">
<title>Node12</title>
<g id="a_Node000012"><a xlink:href="_serialize_core_8h.html" target="_top" xlink:title=" ">
<polygon fill="white" stroke="#666666" points="446.75,-141 357.25,-141 357.25,-110.5 446.75,-110.5 446.75,-141"/>
<text text-anchor="start" x="365.25" y="-127.5" font-family="Helvetica,sans-Serif" font-size="10.00">sgui/Serialization</text>
<text text-anchor="middle" x="402" y="-116.25" font-family="Helvetica,sans-Serif" font-size="10.00">/SerializeCore.h</text>
</a>
</g>
</g>
<!-- Node7&#45;&gt;Node12 -->
<g id="edge11_Node000007_Node000012" class="edge">
<title>Node7&#45;&gt;Node12</title>
<g id="a_edge11_Node000007_Node000012"><a xlink:title=" ">
<path fill="none" stroke="#63b8ff" d="M295.31,-176.61C314.63,-167.58 339.64,-155.9 360.59,-146.11"/>
<polygon fill="#63b8ff" stroke="#63b8ff" points="361.86,-149.37 369.44,-141.97 358.9,-143.03 361.86,-149.37"/>
</a>
</g>
</g>
<!-- Node9 -->
<g id="Node000009" class="node">
<title>Node9</title>
<g id="a_Node000009"><a xlink:title=" ">
<polygon fill="#e0e0e0" stroke="#999999" points="221.88,-74.5 172.12,-74.5 172.12,-55.25 221.88,-55.25 221.88,-74.5"/>
<text text-anchor="middle" x="197" y="-61" font-family="Helvetica,sans-Serif" font-size="10.00">iomanip</text>
</a>
</g>
</g>
<!-- Node8&#45;&gt;Node9 -->
<g id="edge8_Node000008_Node000009" class="edge">
<title>Node8&#45;&gt;Node9</title>
<g id="a_edge8_Node000008_Node000009"><a xlink:title=" ">
<path fill="none" stroke="#63b8ff" d="M247.44,-110.2C237.83,-101.75 225.69,-91.08 215.73,-82.33"/>
<polygon fill="#63b8ff" stroke="#63b8ff" points="218.29,-79.92 208.47,-75.95 213.67,-85.18 218.29,-79.92"/>
</a>
</g>
</g>
<!-- Node10 -->
<g id="Node000010" class="node">
<title>Node10</title>
<g id="a_Node000010"><a xlink:title=" ">
<polygon fill="#e0e0e0" stroke="#999999" points="288.5,-74.5 239.5,-74.5 239.5,-55.25 288.5,-55.25 288.5,-74.5"/>
<text text-anchor="middle" x="264" y="-61" font-family="Helvetica,sans-Serif" font-size="10.00">fstream</text>
</a>
</g>
</g>
<!-- Node8&#45;&gt;Node10 -->
<g id="edge9_Node000008_Node000010" class="edge">
<title>Node8&#45;&gt;Node10</title>
<g id="a_edge9_Node000008_Node000010"><a xlink:title=" ">
<path fill="none" stroke="#63b8ff" d="M264,-110.2C264,-102.96 264,-94.09 264,-86.19"/>
<polygon fill="#63b8ff" stroke="#63b8ff" points="267.5,-86.46 264,-76.46 260.5,-86.46 267.5,-86.46"/>
</a>
</g>
</g>
<!-- Node11 -->
<g id="Node000011" class="node">
<title>Node11</title>
<g id="a_Node000011"><a xlink:title=" ">
<polygon fill="#e0e0e0" stroke="#999999" points="403.5,-74.5 306.5,-74.5 306.5,-55.25 403.5,-55.25 403.5,-74.5"/>
<text text-anchor="middle" x="355" y="-61" font-family="Helvetica,sans-Serif" font-size="10.00">nlohmann/json.hpp</text>
</a>
</g>
</g>
<!-- Node8&#45;&gt;Node11 -->
<g id="edge10_Node000008_Node000011" class="edge">
<title>Node8&#45;&gt;Node11</title>
<g id="a_edge10_Node000008_Node000011"><a xlink:title=" ">
<path fill="none" stroke="#63b8ff" d="M286.49,-110.2C300.22,-101.32 317.73,-89.99 331.61,-81.01"/>
<polygon fill="#63b8ff" stroke="#63b8ff" points="333.21,-84.14 339.7,-75.77 329.4,-78.27 333.21,-84.14"/>
</a>
</g>
</g>
<!-- Node12&#45;&gt;Node6 -->
<g id="edge12_Node000012_Node000006" class="edge">
<title>Node12&#45;&gt;Node6</title>
<g id="a_edge12_Node000012_Node000006"><a xlink:title=" ">
<path fill="none" stroke="#63b8ff" d="M408.92,-110.25C414.82,-95.72 421.16,-73.01 413,-55.25 407.54,-43.37 397.19,-33.47 387.15,-26.03"/>
<polygon fill="#63b8ff" stroke="#63b8ff" points="389.28,-23.25 379.04,-20.53 385.35,-29.04 389.28,-23.25"/>
</a>
</g>
</g>
<!-- Node12&#45;&gt;Node11 -->
<g id="edge13_Node000012_Node000011" class="edge">
<title>Node12&#45;&gt;Node11</title>
<g id="a_edge13_Node000012_Node000011"><a xlink:title=" ">
<path fill="none" stroke="#63b8ff" d="M390.38,-110.2C383.98,-102.18 375.99,-92.17 369.22,-83.69"/>
<polygon fill="#63b8ff" stroke="#63b8ff" points="372.16,-81.77 363.19,-76.13 366.69,-86.13 372.16,-81.77"/>
</a>
</g>
</g>
<!-- Node13 -->
<g id="Node000013" class="node">
<title>Node13</title>
<g id="a_Node000013"><a xlink:href="_object_pool_8h.html" target="_top" xlink:title=" ">
<polygon fill="white" stroke="#666666" points="575.88,-74.5 460.12,-74.5 460.12,-55.25 575.88,-55.25 575.88,-74.5"/>
<text text-anchor="middle" x="518" y="-61" font-family="Helvetica,sans-Serif" font-size="10.00">sgui/Core/ObjectPool.h</text>
</a>
</g>
</g>
<!-- Node12&#45;&gt;Node13 -->
<g id="edge14_Node000012_Node000013" class="edge">
<title>Node12&#45;&gt;Node13</title>
<g id="a_edge14_Node000012_Node000013"><a xlink:title=" ">
<path fill="none" stroke="#63b8ff" d="M430.97,-110.05C449.06,-100.86 472.23,-89.11 490.11,-80.03"/>
<polygon fill="#63b8ff" stroke="#63b8ff" points="491.53,-83.24 498.86,-75.59 488.36,-76.99 491.53,-83.24"/>
</a>
</g>
</g>
<!-- Node13&#45;&gt;Node5 -->
<g id="edge15_Node000013_Node000005" class="edge">
<title>Node13&#45;&gt;Node5</title>
<g id="a_edge15_Node000013_Node000005"><a xlink:title=" ">
<path fill="none" stroke="#63b8ff" d="M470.18,-54.78C413.48,-44 320.44,-26.3 271.11,-16.92"/>
<polygon fill="#63b8ff" stroke="#63b8ff" points="271.81,-13.49 261.34,-15.06 270.51,-20.37 271.81,-13.49"/>
</a>
</g>
</g>
<!-- Node13&#45;&gt;Node6 -->
<g id="edge18_Node000013_Node000006" class="edge">
<title>Node13&#45;&gt;Node6</title>
<g id="a_edge18_Node000013_Node000006"><a xlink:title=" ">
<path fill="none" stroke="#63b8ff" d="M491.37,-54.84C465.88,-46.2 427.19,-33.07 398.57,-23.37"/>
<polygon fill="#63b8ff" stroke="#63b8ff" points="399.79,-20.09 389.2,-20.19 397.54,-26.72 399.79,-20.09"/>
</a>
</g>
</g>
<!-- Node14 -->
<g id="Node000014" class="node">
<title>Node14</title>
<g id="a_Node000014"><a xlink:title=" ">
<polygon fill="#e0e0e0" stroke="#999999" points="699.12,-19.25 656.88,-19.25 656.88,0 699.12,0 699.12,-19.25"/>
<text text-anchor="middle" x="678" y="-5.75" font-family="Helvetica,sans-Serif" font-size="10.00">mutex</text>
</a>
</g>
</g>
<!-- Node13&#45;&gt;Node14 -->
<g id="edge16_Node000013_Node000014" class="edge">
<title>Node13&#45;&gt;Node14</title>
<g id="a_edge16_Node000013_Node000014"><a xlink:title=" ">
<path fill="none" stroke="#63b8ff" d="M545.14,-54.84C572.97,-45.58 616.24,-31.18 645.79,-21.35"/>
<polygon fill="#63b8ff" stroke="#63b8ff" points="646.56,-24.78 654.94,-18.3 644.35,-18.14 646.56,-24.78"/>
</a>
</g>
</g>
<!-- Node15 -->
<g id="Node000015" class="node">
<title>Node15</title>
<g id="a_Node000015"><a xlink:title=" ">
<polygon fill="#e0e0e0" stroke="#999999" points="497.38,-19.25 420.62,-19.25 420.62,0 497.38,0 497.38,-19.25"/>
<text text-anchor="middle" x="459" y="-5.75" font-family="Helvetica,sans-Serif" font-size="10.00">shared_mutex</text>
</a>
</g>
</g>
<!-- Node13&#45;&gt;Node15 -->
<g id="edge17_Node000013_Node000015" class="edge">
<title>Node13&#45;&gt;Node15</title>
<g id="a_edge17_Node000013_Node000015"><a xlink:title=" ">
<path fill="none" stroke="#63b8ff" d="M507.99,-54.84C499.63,-47.3 487.5,-36.35 477.4,-27.23"/>
<polygon fill="#63b8ff" stroke="#63b8ff" points="479.75,-24.64 469.98,-20.54 475.06,-29.84 479.75,-24.64"/>
</a>
</g>
</g>
<!-- Node16 -->
<g id="Node000016" class="node">
<title>Node16</title>
<g id="a_Node000016"><a xlink:href="_object_pool_8tpp.html" target="_top" xlink:title=" ">
<polygon fill="white" stroke="#666666" points="639,-19.25 515,-19.25 515,0 639,0 639,-19.25"/>
<text text-anchor="middle" x="577" y="-5.75" font-family="Helvetica,sans-Serif" font-size="10.00">sgui/Core/ObjectPool.tpp</text>
</a>
</g>
</g>
<!-- Node13&#45;&gt;Node16 -->
<g id="edge19_Node000013_Node000016" class="edge">
<title>Node13&#45;&gt;Node16</title>
<g id="a_edge19_Node000013_Node000016"><a xlink:title=" ">
<path fill="none" stroke="#63b8ff" d="M528.01,-54.84C536.37,-47.3 548.5,-36.35 558.6,-27.23"/>
<polygon fill="#63b8ff" stroke="#63b8ff" points="560.94,-29.84 566.02,-20.54 556.25,-24.64 560.94,-29.84"/>
</a>
</g>
</g>
</g>
</svg>
