<?xml version="1.0" encoding="UTF-8" standalone="no"?>
<!DOCTYPE svg PUBLIC "-//W3C//DTD SVG 1.1//EN"
 "http://www.w3.org/Graphics/SVG/1.1/DTD/svg11.dtd">
<!-- Generated by graphviz version 12.2.1 (20241206.2353)
 -->
<!-- Title: /github/workspace/src/sgui/Resources/TextureAtlas.h Pages: 1 -->
<svg width="1061pt" height="261pt"
 viewBox="0.00 0.00 1061.00 260.50" xmlns="http://www.w3.org/2000/svg" xmlns:xlink="http://www.w3.org/1999/xlink">
<g id="graph0" class="graph" transform="scale(1 1) rotate(0) translate(4 256.5)">
<title>/github/workspace/src/sgui/Resources/TextureAtlas.h</title>
<!-- Node1 -->
<g id="Node000001" class="node">
<title>Node1</title>
<g id="a_Node000001"><a xlink:title=" ">
<polygon fill="#999999" stroke="#666666" points="649.88,-252.5 498.12,-252.5 498.12,-222 649.88,-222 649.88,-252.5"/>
<text text-anchor="start" x="506.12" y="-239" font-family="Helvetica,sans-Serif" font-size="10.00">/github/workspace/src</text>
<text text-anchor="middle" x="574" y="-227.75" font-family="Helvetica,sans-Serif" font-size="10.00">/sgui/Resources/TextureAtlas.h</text>
</a>
</g>
</g>
<!-- Node2 -->
<g id="Node000002" class="node">
<title>Node2</title>
<g id="a_Node000002"><a xlink:href="_gui_render_8h.html" target="_top" xlink:title=" ">
<polygon fill="white" stroke="#666666" points="327.5,-180.38 200.5,-180.38 200.5,-149.88 327.5,-149.88 327.5,-180.38"/>
<text text-anchor="start" x="208.5" y="-166.88" font-family="Helvetica,sans-Serif" font-size="10.00">/github/workspace/src</text>
<text text-anchor="middle" x="264" y="-155.62" font-family="Helvetica,sans-Serif" font-size="10.00">/sgui/Render/GuiRender.h</text>
</a>
</g>
</g>
<!-- Node1&#45;&gt;Node2 -->
<g id="edge1_Node000001_Node000002" class="edge">
<title>Node1&#45;&gt;Node2</title>
<g id="a_edge1_Node000001_Node000002"><a xlink:title=" ">
<path fill="none" stroke="#63b8ff" d="M490.23,-219.2C445.53,-209.86 389.65,-197.82 340,-186 333.23,-184.39 326.15,-182.63 319.14,-180.85"/>
<polygon fill="#63b8ff" stroke="#63b8ff" points="489.36,-222.59 499.86,-221.2 490.79,-215.74 489.36,-222.59"/>
</a>
</g>
</g>
<!-- Node7 -->
<g id="Node000007" class="node">
<title>Node7</title>
<g id="a_Node000007"><a xlink:href="_texture_meshes_8cpp.html" target="_top" xlink:title=" ">
<polygon fill="white" stroke="#666666" points="863.25,-180.38 704.75,-180.38 704.75,-149.88 863.25,-149.88 863.25,-180.38"/>
<text text-anchor="start" x="712.75" y="-166.88" font-family="Helvetica,sans-Serif" font-size="10.00">/github/workspace/src</text>
<text text-anchor="middle" x="784" y="-155.62" font-family="Helvetica,sans-Serif" font-size="10.00">/sgui/Render/TextureMeshes.cpp</text>
</a>
</g>
</g>
<!-- Node1&#45;&gt;Node7 -->
<g id="edge6_Node000001_Node000007" class="edge">
<title>Node1&#45;&gt;Node7</title>
<g id="a_edge6_Node000001_Node000007"><a xlink:title=" ">
<path fill="none" stroke="#63b8ff" d="M628.91,-217.91C663.56,-206.34 707.71,-191.6 740.04,-180.81"/>
<polygon fill="#63b8ff" stroke="#63b8ff" points="627.84,-214.58 619.46,-221.07 630.05,-221.22 627.84,-214.58"/>
</a>
</g>
</g>
<!-- Node8 -->
<g id="Node000008" class="node">
<title>Node8</title>
<g id="a_Node000008"><a xlink:href="_texture_atlas_8cpp.html" target="_top" xlink:title=" ">
<polygon fill="white" stroke="#666666" points="513.12,-102.62 350.88,-102.62 350.88,-72.12 513.12,-72.12 513.12,-102.62"/>
<text text-anchor="start" x="358.88" y="-89.12" font-family="Helvetica,sans-Serif" font-size="10.00">/github/workspace/src</text>
<text text-anchor="middle" x="432" y="-77.88" font-family="Helvetica,sans-Serif" font-size="10.00">/sgui/Resources/TextureAtlas.cpp</text>
</a>
</g>
</g>
<!-- Node1&#45;&gt;Node8 -->
<g id="edge7_Node000001_Node000008" class="edge">
<title>Node1&#45;&gt;Node8</title>
<g id="a_edge7_Node000001_Node000008"><a xlink:title=" ">
<path fill="none" stroke="#63b8ff" d="M559.68,-212.13C547.4,-192.58 528.5,-164.99 508,-144.25 492.23,-128.29 471.57,-113.41 455.77,-103.03"/>
<polygon fill="#63b8ff" stroke="#63b8ff" points="556.61,-213.82 564.83,-220.51 562.57,-210.15 556.61,-213.82"/>
</a>
</g>
</g>
<!-- Node9 -->
<g id="Node000009" class="node">
<title>Node9</title>
<g id="a_Node000009"><a xlink:href="_texture_collage_8h.html" target="_top" xlink:title=" ">
<polygon fill="white" stroke="#666666" points="1044.75,-180.38 883.25,-180.38 883.25,-149.88 1044.75,-149.88 1044.75,-180.38"/>
<text text-anchor="start" x="891.25" y="-166.88" font-family="Helvetica,sans-Serif" font-size="10.00">/github/workspace/src</text>
<text text-anchor="middle" x="964" y="-155.62" font-family="Helvetica,sans-Serif" font-size="10.00">/sgui/Resources/TextureCollage.h</text>
</a>
</g>
</g>
<!-- Node1&#45;&gt;Node9 -->
<g id="edge8_Node000001_Node000009" class="edge">
<title>Node1&#45;&gt;Node9</title>
<g id="a_edge8_Node000001_Node000009"><a xlink:title=" ">
<path fill="none" stroke="#63b8ff" d="M661.35,-222.6C720.84,-213.04 801.33,-199.58 872,-186 880.34,-184.4 889.09,-182.62 897.74,-180.82"/>
<polygon fill="#63b8ff" stroke="#63b8ff" points="660.93,-219.12 651.61,-224.16 662.03,-226.03 660.93,-219.12"/>
</a>
</g>
</g>
<!-- Node11 -->
<g id="Node000011" class="node">
<title>Node11</title>
<g id="a_Node000011"><a xlink:href="_load_texture_atlas_8h.html" target="_top" xlink:title=" ">
<polygon fill="white" stroke="#666666" points="498.75,-186 349.25,-186 349.25,-144.25 498.75,-144.25 498.75,-186"/>
<text text-anchor="start" x="357.25" y="-172.5" font-family="Helvetica,sans-Serif" font-size="10.00">/github/workspace/src</text>
<text text-anchor="start" x="357.25" y="-161.25" font-family="Helvetica,sans-Serif" font-size="10.00">/sgui/Serialization/LoadTexture</text>
<text text-anchor="middle" x="424" y="-150" font-family="Helvetica,sans-Serif" font-size="10.00">Atlas.h</text>
</a>
</g>
</g>
<!-- Node1&#45;&gt;Node11 -->
<g id="edge10_Node000001_Node000011" class="edge">
<title>Node1&#45;&gt;Node11</title>
<g id="a_edge10_Node000001_Node000011"><a xlink:title=" ">
<path fill="none" stroke="#63b8ff" d="M532.38,-216.79C512.14,-207.33 487.82,-195.96 467.35,-186.39"/>
<polygon fill="#63b8ff" stroke="#63b8ff" points="530.64,-219.84 541.18,-220.91 533.61,-213.5 530.64,-219.84"/>
</a>
</g>
</g>
<!-- Node13 -->
<g id="Node000013" class="node">
<title>Node13</title>
<g id="a_Node000013"><a xlink:href="_serialize_g_u_i_8h.html" target="_top" xlink:title=" ">
<polygon fill="white" stroke="#666666" points="687.12,-186 554.88,-186 554.88,-144.25 687.12,-144.25 687.12,-186"/>
<text text-anchor="start" x="562.88" y="-172.5" font-family="Helvetica,sans-Serif" font-size="10.00">/github/workspace/src</text>
<text text-anchor="start" x="562.88" y="-161.25" font-family="Helvetica,sans-Serif" font-size="10.00">/sgui/Serialization/Serialize</text>
<text text-anchor="middle" x="621" y="-150" font-family="Helvetica,sans-Serif" font-size="10.00">GUI.h</text>
</a>
</g>
</g>
<!-- Node1&#45;&gt;Node13 -->
<g id="edge14_Node000001_Node000013" class="edge">
<title>Node1&#45;&gt;Node13</title>
<g id="a_edge14_Node000001_Node000013"><a xlink:title=" ">
<path fill="none" stroke="#63b8ff" d="M589.98,-212.41C595.62,-203.99 601.92,-194.6 607.35,-186.49"/>
<polygon fill="#63b8ff" stroke="#63b8ff" points="587.24,-210.21 584.58,-220.46 593.06,-214.1 587.24,-210.21"/>
</a>
</g>
</g>
<!-- Node3 -->
<g id="Node000003" class="node">
<title>Node3</title>
<g id="a_Node000003"><a xlink:href="_gui_8h.html" target="_top" xlink:title=" ">
<polygon fill="white" stroke="#666666" points="177,-102.62 65,-102.62 65,-72.12 177,-72.12 177,-102.62"/>
<text text-anchor="start" x="73" y="-89.12" font-family="Helvetica,sans-Serif" font-size="10.00">/github/workspace/src</text>
<text text-anchor="middle" x="121" y="-77.88" font-family="Helvetica,sans-Serif" font-size="10.00">/sgui/Gui.h</text>
</a>
</g>
</g>
<!-- Node2&#45;&gt;Node3 -->
<g id="edge2_Node000002_Node000003" class="edge">
<title>Node2&#45;&gt;Node3</title>
<g id="a_edge2_Node000002_Node000003"><a xlink:title=" ">
<path fill="none" stroke="#63b8ff" d="M226.42,-144.22C201.96,-131.26 170.62,-114.66 148.49,-102.94"/>
<polygon fill="#63b8ff" stroke="#63b8ff" points="224.62,-147.22 235.09,-148.81 227.89,-141.04 224.62,-147.22"/>
</a>
</g>
</g>
<!-- Node6 -->
<g id="Node000006" class="node">
<title>Node6</title>
<g id="a_Node000006"><a xlink:href="_gui_render_8cpp.html" target="_top" xlink:title=" ">
<polygon fill="white" stroke="#666666" points="332.75,-102.62 195.25,-102.62 195.25,-72.12 332.75,-72.12 332.75,-102.62"/>
<text text-anchor="start" x="203.25" y="-89.12" font-family="Helvetica,sans-Serif" font-size="10.00">/github/workspace/src</text>
<text text-anchor="middle" x="264" y="-77.88" font-family="Helvetica,sans-Serif" font-size="10.00">/sgui/Render/GuiRender.cpp</text>
</a>
</g>
</g>
<!-- Node2&#45;&gt;Node6 -->
<g id="edge5_Node000002_Node000006" class="edge">
<title>Node2&#45;&gt;Node6</title>
<g id="a_edge5_Node000002_Node000006"><a xlink:title=" ">
<path fill="none" stroke="#63b8ff" d="M264,-138.1C264,-126.34 264,-112.88 264,-102.94"/>
<polygon fill="#63b8ff" stroke="#63b8ff" points="260.5,-138.01 264,-148.01 267.5,-138.01 260.5,-138.01"/>
</a>
</g>
</g>
<!-- Node4 -->
<g id="Node000004" class="node">
<title>Node4</title>
<g id="a_Node000004"><a xlink:href="_gui_8cpp.html" target="_top" xlink:title=" ">
<polygon fill="white" stroke="#666666" points="112,-30.5 0,-30.5 0,0 112,0 112,-30.5"/>
<text text-anchor="start" x="8" y="-17" font-family="Helvetica,sans-Serif" font-size="10.00">/github/workspace/src</text>
<text text-anchor="middle" x="56" y="-5.75" font-family="Helvetica,sans-Serif" font-size="10.00">/sgui/Gui.cpp</text>
</a>
</g>
</g>
<!-- Node3&#45;&gt;Node4 -->
<g id="edge3_Node000003_Node000004" class="edge">
<title>Node3&#45;&gt;Node4</title>
<g id="a_edge3_Node000003_Node000004"><a xlink:title=" ">
<path fill="none" stroke="#63b8ff" d="M99.94,-63.66C89.93,-52.85 78.25,-40.25 69.45,-30.76"/>
<polygon fill="#63b8ff" stroke="#63b8ff" points="97.14,-65.78 106.5,-70.74 102.27,-61.02 97.14,-65.78"/>
</a>
</g>
</g>
<!-- Node5 -->
<g id="Node000005" class="node">
<title>Node5</title>
<g id="a_Node000005"><a xlink:href="sgui_8h.html" target="_top" xlink:title=" ">
<polygon fill="white" stroke="#666666" points="242,-30.5 130,-30.5 130,0 242,0 242,-30.5"/>
<text text-anchor="start" x="138" y="-17" font-family="Helvetica,sans-Serif" font-size="10.00">/github/workspace/src</text>
<text text-anchor="middle" x="186" y="-5.75" font-family="Helvetica,sans-Serif" font-size="10.00">/sgui/sgui.h</text>
</a>
</g>
</g>
<!-- Node3&#45;&gt;Node5 -->
<g id="edge4_Node000003_Node000005" class="edge">
<title>Node3&#45;&gt;Node5</title>
<g id="a_edge4_Node000003_Node000005"><a xlink:title=" ">
<path fill="none" stroke="#63b8ff" d="M142.06,-63.66C152.07,-52.85 163.75,-40.25 172.55,-30.76"/>
<polygon fill="#63b8ff" stroke="#63b8ff" points="139.73,-61.02 135.5,-70.74 144.86,-65.78 139.73,-61.02"/>
</a>
</g>
</g>
<!-- Node10 -->
<g id="Node000010" class="node">
<title>Node10</title>
<g id="a_Node000010"><a xlink:href="_texture_collage_8cpp.html" target="_top" xlink:title=" ">
<polygon fill="white" stroke="#666666" points="1053,-102.62 881,-102.62 881,-72.12 1053,-72.12 1053,-102.62"/>
<text text-anchor="start" x="889" y="-89.12" font-family="Helvetica,sans-Serif" font-size="10.00">/github/workspace/src</text>
<text text-anchor="middle" x="967" y="-77.88" font-family="Helvetica,sans-Serif" font-size="10.00">/sgui/Resources/TextureCollage.cpp</text>
</a>
</g>
</g>
<!-- Node9&#45;&gt;Node10 -->
<g id="edge9_Node000009_Node000010" class="edge">
<title>Node9&#45;&gt;Node10</title>
<g id="a_edge9_Node000009_Node000010"><a xlink:title=" ">
<path fill="none" stroke="#63b8ff" d="M965.03,-138.1C965.5,-126.34 966.03,-112.88 966.42,-102.94"/>
<polygon fill="#63b8ff" stroke="#63b8ff" points="961.54,-137.88 964.64,-148.01 968.53,-138.15 961.54,-137.88"/>
</a>
</g>
</g>
<!-- Node11&#45;&gt;Node6 -->
<g id="edge11_Node000011_Node000006" class="edge">
<title>Node11&#45;&gt;Node6</title>
<g id="a_edge11_Node000011_Node000006"><a xlink:title=" ">
<path fill="none" stroke="#63b8ff" d="M370.98,-139.02C345.81,-127.11 316.6,-113.28 295.07,-103.08"/>
<polygon fill="#63b8ff" stroke="#63b8ff" points="369.22,-142.06 379.75,-143.18 372.21,-135.74 369.22,-142.06"/>
</a>
</g>
</g>
<!-- Node11&#45;&gt;Node8 -->
<g id="edge12_Node000011_Node000008" class="edge">
<title>Node11&#45;&gt;Node8</title>
<g id="a_edge12_Node000011_Node000008"><a xlink:title=" ">
<path fill="none" stroke="#63b8ff" d="M427.33,-132.56C428.43,-122.19 429.59,-111.17 430.48,-102.73"/>
<polygon fill="#63b8ff" stroke="#63b8ff" points="423.87,-132.01 426.3,-142.32 430.83,-132.74 423.87,-132.01"/>
</a>
</g>
</g>
<!-- Node12 -->
<g id="Node000012" class="node">
<title>Node12</title>
<g id="a_Node000012"><a xlink:href="_load_texture_atlas_8cpp.html" target="_top" xlink:title=" ">
<polygon fill="white" stroke="#666666" points="680.75,-108.25 531.25,-108.25 531.25,-66.5 680.75,-66.5 680.75,-108.25"/>
<text text-anchor="start" x="539.25" y="-94.75" font-family="Helvetica,sans-Serif" font-size="10.00">/github/workspace/src</text>
<text text-anchor="start" x="539.25" y="-83.5" font-family="Helvetica,sans-Serif" font-size="10.00">/sgui/Serialization/LoadTexture</text>
<text text-anchor="middle" x="606" y="-72.25" font-family="Helvetica,sans-Serif" font-size="10.00">Atlas.cpp</text>
</a>
</g>
</g>
<!-- Node11&#45;&gt;Node12 -->
<g id="edge13_Node000011_Node000012" class="edge">
<title>Node11&#45;&gt;Node12</title>
<g id="a_edge13_Node000011_Node000012"><a xlink:title=" ">
<path fill="none" stroke="#63b8ff" d="M483.14,-139.51C507.06,-129.56 534.33,-118.21 557.09,-108.73"/>
<polygon fill="#63b8ff" stroke="#63b8ff" points="482.06,-136.17 474.17,-143.24 484.75,-142.63 482.06,-136.17"/>
</a>
</g>
</g>
<!-- Node13&#45;&gt;Node12 -->
<g id="edge16_Node000013_Node000012" class="edge">
<title>Node13&#45;&gt;Node12</title>
<g id="a_edge16_Node000013_Node000012"><a xlink:title=" ">
<path fill="none" stroke="#63b8ff" d="M614.79,-132.78C613.18,-124.66 611.49,-116.12 610.03,-108.73"/>
<polygon fill="#63b8ff" stroke="#63b8ff" points="611.31,-133.21 616.69,-142.34 618.18,-131.85 611.31,-133.21"/>
</a>
</g>
</g>
<!-- Node14 -->
<g id="Node000014" class="node">
<title>Node14</title>
<g id="a_Node000014"><a xlink:href="_load_layout_8cpp.html" target="_top" xlink:title=" ">
<polygon fill="white" stroke="#666666" points="863.25,-102.62 698.75,-102.62 698.75,-72.12 863.25,-72.12 863.25,-102.62"/>
<text text-anchor="start" x="706.75" y="-89.12" font-family="Helvetica,sans-Serif" font-size="10.00">/github/workspace/src</text>
<text text-anchor="middle" x="781" y="-77.88" font-family="Helvetica,sans-Serif" font-size="10.00">/sgui/Serialization/LoadLayout.cpp</text>
</a>
</g>
</g>
<!-- Node13&#45;&gt;Node14 -->
<g id="edge15_Node000013_Node000014" class="edge">
<title>Node13&#45;&gt;Node14</title>
<g id="a_edge15_Node000013_Node000014"><a xlink:title=" ">
<path fill="none" stroke="#63b8ff" d="M674.02,-139.02C699.19,-127.11 728.4,-113.28 749.93,-103.08"/>
<polygon fill="#63b8ff" stroke="#63b8ff" points="672.79,-135.74 665.25,-143.18 675.78,-142.06 672.79,-135.74"/>
</a>
</g>
</g>
</g>
</svg>
