<?xml version="1.0" encoding="UTF-8" standalone="no"?>
<!DOCTYPE svg PUBLIC "-//W3C//DTD SVG 1.1//EN"
 "http://www.w3.org/Graphics/SVG/1.1/DTD/svg11.dtd">
<!-- Generated by graphviz version 12.2.1 (20241206.2353)
 -->
<!-- Title: /github/workspace/src/sgui/Resources/TextureAtlas.h Pages: 1 -->
<svg width="1113pt" height="261pt"
 viewBox="0.00 0.00 1113.00 260.50" xmlns="http://www.w3.org/2000/svg" xmlns:xlink="http://www.w3.org/1999/xlink">
<g id="graph0" class="graph" transform="scale(1 1) rotate(0) translate(4 256.5)">
<title>/github/workspace/src/sgui/Resources/TextureAtlas.h</title>
<!-- Node1 -->
<g id="Node000001" class="node">
<title>Node1</title>
<g id="a_Node000001"><a xlink:title=" ">
<polygon fill="#999999" stroke="#666666" points="659.88,-252.5 508.12,-252.5 508.12,-222 659.88,-222 659.88,-252.5"/>
<text text-anchor="start" x="516.12" y="-239" font-family="Helvetica,sans-Serif" font-size="10.00">/github/workspace/src</text>
<text text-anchor="middle" x="584" y="-227.75" font-family="Helvetica,sans-Serif" font-size="10.00">/sgui/Resources/TextureAtlas.h</text>
</a>
</g>
</g>
<!-- Node2 -->
<g id="Node000002" class="node">
<title>Node2</title>
<g id="a_Node000002"><a xlink:href="_gui_render_8h.html" target="_top" xlink:title=" ">
<polygon fill="white" stroke="#666666" points="327.5,-180.38 200.5,-180.38 200.5,-149.88 327.5,-149.88 327.5,-180.38"/>
<text text-anchor="start" x="208.5" y="-166.88" font-family="Helvetica,sans-Serif" font-size="10.00">/github/workspace/src</text>
<text text-anchor="middle" x="264" y="-155.62" font-family="Helvetica,sans-Serif" font-size="10.00">/sgui/Render/GuiRender.h</text>
</a>
</g>
</g>
<!-- Node1&#45;&gt;Node2 -->
<g id="edge1_Node000001_Node000002" class="edge">
<title>Node1&#45;&gt;Node2</title>
<g id="a_edge1_Node000001_Node000002"><a xlink:title=" ">
<path fill="none" stroke="#63b8ff" d="M505.89,-219.13C451.27,-207.16 379.22,-191.37 327.99,-180.15"/>
<polygon fill="#63b8ff" stroke="#63b8ff" points="504.92,-222.5 515.44,-221.23 506.42,-215.67 504.92,-222.5"/>
</a>
</g>
</g>
<!-- Node7 -->
<g id="Node000007" class="node">
<title>Node7</title>
<g id="a_Node000007"><a xlink:href="_texture_meshes_8cpp.html" target="_top" xlink:title=" ">
<polygon fill="white" stroke="#666666" points="920.25,-180.38 761.75,-180.38 761.75,-149.88 920.25,-149.88 920.25,-180.38"/>
<text text-anchor="start" x="769.75" y="-166.88" font-family="Helvetica,sans-Serif" font-size="10.00">/github/workspace/src</text>
<text text-anchor="middle" x="841" y="-155.62" font-family="Helvetica,sans-Serif" font-size="10.00">/sgui/Render/TextureMeshes.cpp</text>
</a>
</g>
</g>
<!-- Node1&#45;&gt;Node7 -->
<g id="edge6_Node000001_Node000007" class="edge">
<title>Node1&#45;&gt;Node7</title>
<g id="a_edge6_Node000001_Node000007"><a xlink:title=" ">
<path fill="none" stroke="#63b8ff" d="M648.74,-218.59C691.49,-206.92 746.86,-191.81 787.2,-180.81"/>
<polygon fill="#63b8ff" stroke="#63b8ff" points="648.06,-215.14 639.34,-221.15 649.9,-221.9 648.06,-215.14"/>
</a>
</g>
</g>
<!-- Node8 -->
<g id="Node000008" class="node">
<title>Node8</title>
<g id="a_Node000008"><a xlink:href="_texture_atlas_8cpp.html" target="_top" xlink:title=" ">
<polygon fill="white" stroke="#666666" points="513.12,-102.62 350.88,-102.62 350.88,-72.12 513.12,-72.12 513.12,-102.62"/>
<text text-anchor="start" x="358.88" y="-89.12" font-family="Helvetica,sans-Serif" font-size="10.00">/github/workspace/src</text>
<text text-anchor="middle" x="432" y="-77.88" font-family="Helvetica,sans-Serif" font-size="10.00">/sgui/Resources/TextureAtlas.cpp</text>
</a>
</g>
</g>
<!-- Node1&#45;&gt;Node8 -->
<g id="edge7_Node000001_Node000008" class="edge">
<title>Node1&#45;&gt;Node8</title>
<g id="a_edge7_Node000001_Node000008"><a xlink:title=" ">
<path fill="none" stroke="#63b8ff" d="M496.39,-223.17C454.06,-214.88 409.7,-202.56 397,-186 377.5,-160.57 402.04,-123.3 418.8,-102.96"/>
<polygon fill="#63b8ff" stroke="#63b8ff" points="495.71,-226.6 506.18,-225.02 497,-219.72 495.71,-226.6"/>
</a>
</g>
</g>
<!-- Node9 -->
<g id="Node000009" class="node">
<title>Node9</title>
<g id="a_Node000009"><a xlink:href="_texture_collage_8h.html" target="_top" xlink:title=" ">
<polygon fill="white" stroke="#666666" points="1099.75,-180.38 938.25,-180.38 938.25,-149.88 1099.75,-149.88 1099.75,-180.38"/>
<text text-anchor="start" x="946.25" y="-166.88" font-family="Helvetica,sans-Serif" font-size="10.00">/github/workspace/src</text>
<text text-anchor="middle" x="1019" y="-155.62" font-family="Helvetica,sans-Serif" font-size="10.00">/sgui/Resources/TextureCollage.h</text>
</a>
</g>
</g>
<!-- Node1&#45;&gt;Node9 -->
<g id="edge8_Node000001_Node000009" class="edge">
<title>Node1&#45;&gt;Node9</title>
<g id="a_edge8_Node000001_Node000009"><a xlink:title=" ">
<path fill="none" stroke="#63b8ff" d="M671.7,-225.27C741.6,-216.08 841.86,-201.95 929,-186 937.5,-184.44 946.42,-182.66 955.2,-180.81"/>
<polygon fill="#63b8ff" stroke="#63b8ff" points="671.28,-221.79 661.82,-226.56 672.18,-228.73 671.28,-221.79"/>
</a>
</g>
</g>
<!-- Node11 -->
<g id="Node000011" class="node">
<title>Node11</title>
<g id="a_Node000011"><a xlink:href="_load_texture_atlas_8cpp.html" target="_top" xlink:title=" ">
<polygon fill="white" stroke="#666666" points="680.75,-108.25 531.25,-108.25 531.25,-66.5 680.75,-66.5 680.75,-108.25"/>
<text text-anchor="start" x="539.25" y="-94.75" font-family="Helvetica,sans-Serif" font-size="10.00">/github/workspace/src</text>
<text text-anchor="start" x="539.25" y="-83.5" font-family="Helvetica,sans-Serif" font-size="10.00">/sgui/Serialization/LoadTexture</text>
<text text-anchor="middle" x="606" y="-72.25" font-family="Helvetica,sans-Serif" font-size="10.00">Atlas.cpp</text>
</a>
</g>
</g>
<!-- Node1&#45;&gt;Node11 -->
<g id="edge10_Node000001_Node000011" class="edge">
<title>Node1&#45;&gt;Node11</title>
<g id="a_edge10_Node000001_Node000011"><a xlink:title=" ">
<path fill="none" stroke="#63b8ff" d="M587.86,-210.28C592.17,-181.32 599.05,-135.08 602.98,-108.66"/>
<polygon fill="#63b8ff" stroke="#63b8ff" points="584.42,-209.63 586.41,-220.03 591.35,-210.66 584.42,-209.63"/>
</a>
</g>
</g>
<!-- Node12 -->
<g id="Node000012" class="node">
<title>Node12</title>
<g id="a_Node000012"><a xlink:href="_load_texture_atlas_8h.html" target="_top" xlink:title=" ">
<polygon fill="white" stroke="#666666" points="555.75,-186 406.25,-186 406.25,-144.25 555.75,-144.25 555.75,-186"/>
<text text-anchor="start" x="414.25" y="-172.5" font-family="Helvetica,sans-Serif" font-size="10.00">/github/workspace/src</text>
<text text-anchor="start" x="414.25" y="-161.25" font-family="Helvetica,sans-Serif" font-size="10.00">/sgui/Serialization/LoadTexture</text>
<text text-anchor="middle" x="481" y="-150" font-family="Helvetica,sans-Serif" font-size="10.00">Atlas.h</text>
</a>
</g>
</g>
<!-- Node1&#45;&gt;Node12 -->
<g id="edge11_Node000001_Node000012" class="edge">
<title>Node1&#45;&gt;Node12</title>
<g id="a_edge11_Node000001_Node000012"><a xlink:title=" ">
<path fill="none" stroke="#63b8ff" d="M553.35,-215.39C539.93,-206.25 524.24,-195.56 510.91,-186.49"/>
<polygon fill="#63b8ff" stroke="#63b8ff" points="551.17,-218.13 561.41,-220.87 555.11,-212.35 551.17,-218.13"/>
</a>
</g>
</g>
<!-- Node13 -->
<g id="Node000013" class="node">
<title>Node13</title>
<g id="a_Node000013"><a xlink:href="_serialize_g_u_i_8h.html" target="_top" xlink:title=" ">
<polygon fill="white" stroke="#666666" points="744.12,-186 611.88,-186 611.88,-144.25 744.12,-144.25 744.12,-186"/>
<text text-anchor="start" x="619.88" y="-172.5" font-family="Helvetica,sans-Serif" font-size="10.00">/github/workspace/src</text>
<text text-anchor="start" x="619.88" y="-161.25" font-family="Helvetica,sans-Serif" font-size="10.00">/sgui/Serialization/Serialize</text>
<text text-anchor="middle" x="678" y="-150" font-family="Helvetica,sans-Serif" font-size="10.00">GUI.h</text>
</a>
</g>
</g>
<!-- Node1&#45;&gt;Node13 -->
<g id="edge15_Node000001_Node000013" class="edge">
<title>Node1&#45;&gt;Node13</title>
<g id="a_edge15_Node000001_Node000013"><a xlink:title=" ">
<path fill="none" stroke="#63b8ff" d="M612.68,-214.85C624.77,-205.83 638.77,-195.39 650.71,-186.49"/>
<polygon fill="#63b8ff" stroke="#63b8ff" points="610.61,-212.03 604.69,-220.82 614.8,-217.64 610.61,-212.03"/>
</a>
</g>
</g>
<!-- Node3 -->
<g id="Node000003" class="node">
<title>Node3</title>
<g id="a_Node000003"><a xlink:href="_gui_8h.html" target="_top" xlink:title=" ">
<polygon fill="white" stroke="#666666" points="177,-102.62 65,-102.62 65,-72.12 177,-72.12 177,-102.62"/>
<text text-anchor="start" x="73" y="-89.12" font-family="Helvetica,sans-Serif" font-size="10.00">/github/workspace/src</text>
<text text-anchor="middle" x="121" y="-77.88" font-family="Helvetica,sans-Serif" font-size="10.00">/sgui/Gui.h</text>
</a>
</g>
</g>
<!-- Node2&#45;&gt;Node3 -->
<g id="edge2_Node000002_Node000003" class="edge">
<title>Node2&#45;&gt;Node3</title>
<g id="a_edge2_Node000002_Node000003"><a xlink:title=" ">
<path fill="none" stroke="#63b8ff" d="M226.42,-144.22C201.96,-131.26 170.62,-114.66 148.49,-102.94"/>
<polygon fill="#63b8ff" stroke="#63b8ff" points="224.62,-147.22 235.09,-148.81 227.89,-141.04 224.62,-147.22"/>
</a>
</g>
</g>
<!-- Node6 -->
<g id="Node000006" class="node">
<title>Node6</title>
<g id="a_Node000006"><a xlink:href="_gui_render_8cpp.html" target="_top" xlink:title=" ">
<polygon fill="white" stroke="#666666" points="332.75,-102.62 195.25,-102.62 195.25,-72.12 332.75,-72.12 332.75,-102.62"/>
<text text-anchor="start" x="203.25" y="-89.12" font-family="Helvetica,sans-Serif" font-size="10.00">/github/workspace/src</text>
<text text-anchor="middle" x="264" y="-77.88" font-family="Helvetica,sans-Serif" font-size="10.00">/sgui/Render/GuiRender.cpp</text>
</a>
</g>
</g>
<!-- Node2&#45;&gt;Node6 -->
<g id="edge5_Node000002_Node000006" class="edge">
<title>Node2&#45;&gt;Node6</title>
<g id="a_edge5_Node000002_Node000006"><a xlink:title=" ">
<path fill="none" stroke="#63b8ff" d="M264,-138.1C264,-126.34 264,-112.88 264,-102.94"/>
<polygon fill="#63b8ff" stroke="#63b8ff" points="260.5,-138.01 264,-148.01 267.5,-138.01 260.5,-138.01"/>
</a>
</g>
</g>
<!-- Node4 -->
<g id="Node000004" class="node">
<title>Node4</title>
<g id="a_Node000004"><a xlink:href="_gui_8cpp.html" target="_top" xlink:title=" ">
<polygon fill="white" stroke="#666666" points="112,-30.5 0,-30.5 0,0 112,0 112,-30.5"/>
<text text-anchor="start" x="8" y="-17" font-family="Helvetica,sans-Serif" font-size="10.00">/github/workspace/src</text>
<text text-anchor="middle" x="56" y="-5.75" font-family="Helvetica,sans-Serif" font-size="10.00">/sgui/Gui.cpp</text>
</a>
</g>
</g>
<!-- Node3&#45;&gt;Node4 -->
<g id="edge3_Node000003_Node000004" class="edge">
<title>Node3&#45;&gt;Node4</title>
<g id="a_edge3_Node000003_Node000004"><a xlink:title=" ">
<path fill="none" stroke="#63b8ff" d="M99.94,-63.66C89.93,-52.85 78.25,-40.25 69.45,-30.76"/>
<polygon fill="#63b8ff" stroke="#63b8ff" points="97.14,-65.78 106.5,-70.74 102.27,-61.02 97.14,-65.78"/>
</a>
</g>
</g>
<!-- Node5 -->
<g id="Node000005" class="node">
<title>Node5</title>
<g id="a_Node000005"><a xlink:href="sgui_8h.html" target="_top" xlink:title=" ">
<polygon fill="white" stroke="#666666" points="242,-30.5 130,-30.5 130,0 242,0 242,-30.5"/>
<text text-anchor="start" x="138" y="-17" font-family="Helvetica,sans-Serif" font-size="10.00">/github/workspace/src</text>
<text text-anchor="middle" x="186" y="-5.75" font-family="Helvetica,sans-Serif" font-size="10.00">/sgui/sgui.h</text>
</a>
</g>
</g>
<!-- Node3&#45;&gt;Node5 -->
<g id="edge4_Node000003_Node000005" class="edge">
<title>Node3&#45;&gt;Node5</title>
<g id="a_edge4_Node000003_Node000005"><a xlink:title=" ">
<path fill="none" stroke="#63b8ff" d="M142.06,-63.66C152.07,-52.85 163.75,-40.25 172.55,-30.76"/>
<polygon fill="#63b8ff" stroke="#63b8ff" points="139.73,-61.02 135.5,-70.74 144.86,-65.78 139.73,-61.02"/>
</a>
</g>
</g>
<!-- Node10 -->
<g id="Node000010" class="node">
<title>Node10</title>
<g id="a_Node000010"><a xlink:href="_texture_collage_8cpp.html" target="_top" xlink:title=" ">
<polygon fill="white" stroke="#666666" points="1105,-102.62 933,-102.62 933,-72.12 1105,-72.12 1105,-102.62"/>
<text text-anchor="start" x="941" y="-89.12" font-family="Helvetica,sans-Serif" font-size="10.00">/github/workspace/src</text>
<text text-anchor="middle" x="1019" y="-77.88" font-family="Helvetica,sans-Serif" font-size="10.00">/sgui/Resources/TextureCollage.cpp</text>
</a>
</g>
</g>
<!-- Node9&#45;&gt;Node10 -->
<g id="edge9_Node000009_Node000010" class="edge">
<title>Node9&#45;&gt;Node10</title>
<g id="a_edge9_Node000009_Node000010"><a xlink:title=" ">
<path fill="none" stroke="#63b8ff" d="M1019,-138.1C1019,-126.34 1019,-112.88 1019,-102.94"/>
<polygon fill="#63b8ff" stroke="#63b8ff" points="1015.5,-138.01 1019,-148.01 1022.5,-138.01 1015.5,-138.01"/>
</a>
</g>
</g>
<!-- Node12&#45;&gt;Node6 -->
<g id="edge12_Node000012_Node000006" class="edge">
<title>Node12&#45;&gt;Node6</title>
<g id="a_edge12_Node000012_Node000006"><a xlink:title=" ">
<path fill="none" stroke="#63b8ff" d="M412.26,-140.13C377.43,-127.97 336.24,-113.59 306.14,-103.08"/>
<polygon fill="#63b8ff" stroke="#63b8ff" points="410.82,-143.34 421.42,-143.33 413.13,-136.73 410.82,-143.34"/>
</a>
</g>
</g>
<!-- Node12&#45;&gt;Node8 -->
<g id="edge13_Node000012_Node000008" class="edge">
<title>Node12&#45;&gt;Node8</title>
<g id="a_edge13_Node000012_Node000008"><a xlink:title=" ">
<path fill="none" stroke="#63b8ff" d="M461.66,-134.23C454.65,-123.38 447.04,-111.62 441.28,-102.73"/>
<polygon fill="#63b8ff" stroke="#63b8ff" points="458.68,-136.06 467.05,-142.55 464.55,-132.26 458.68,-136.06"/>
</a>
</g>
</g>
<!-- Node12&#45;&gt;Node11 -->
<g id="edge14_Node000012_Node000011" class="edge">
<title>Node12&#45;&gt;Node11</title>
<g id="a_edge14_Node000012_Node000011"><a xlink:title=" ">
<path fill="none" stroke="#63b8ff" d="M524.07,-138.03C539.88,-128.44 557.55,-117.74 572.41,-108.73"/>
<polygon fill="#63b8ff" stroke="#63b8ff" points="522.53,-134.87 515.79,-143.04 526.16,-140.85 522.53,-134.87"/>
</a>
</g>
</g>
<!-- Node13&#45;&gt;Node11 -->
<g id="edge17_Node000013_Node000011" class="edge">
<title>Node13&#45;&gt;Node11</title>
<g id="a_edge17_Node000013_Node000011"><a xlink:title=" ">
<path fill="none" stroke="#63b8ff" d="M650.85,-135.56C642.37,-126.64 633.18,-116.97 625.35,-108.73"/>
<polygon fill="#63b8ff" stroke="#63b8ff" points="648.24,-137.89 657.66,-142.73 653.31,-133.07 648.24,-137.89"/>
</a>
</g>
</g>
<!-- Node14 -->
<g id="Node000014" class="node">
<title>Node14</title>
<g id="a_Node000014"><a xlink:href="_load_layout_8cpp.html" target="_top" xlink:title=" ">
<polygon fill="white" stroke="#666666" points="863.25,-102.62 698.75,-102.62 698.75,-72.12 863.25,-72.12 863.25,-102.62"/>
<text text-anchor="start" x="706.75" y="-89.12" font-family="Helvetica,sans-Serif" font-size="10.00">/github/workspace/src</text>
<text text-anchor="middle" x="781" y="-77.88" font-family="Helvetica,sans-Serif" font-size="10.00">/sgui/Serialization/LoadLayout.cpp</text>
</a>
</g>
</g>
<!-- Node13&#45;&gt;Node14 -->
<g id="edge16_Node000013_Node000014" class="edge">
<title>Node13&#45;&gt;Node14</title>
<g id="a_edge16_Node000013_Node000014"><a xlink:title=" ">
<path fill="none" stroke="#63b8ff" d="M714.56,-137.24C730.25,-125.7 747.97,-112.67 761.16,-102.96"/>
<polygon fill="#63b8ff" stroke="#63b8ff" points="712.8,-134.18 706.82,-142.93 716.95,-139.82 712.8,-134.18"/>
</a>
</g>
</g>
</g>
</svg>
