<?xml version="1.0" encoding="UTF-8" standalone="no"?>
<!DOCTYPE svg PUBLIC "-//W3C//DTD SVG 1.1//EN"
 "http://www.w3.org/Graphics/SVG/1.1/DTD/svg11.dtd">
<!-- Generated by graphviz version 12.2.1 (20241206.2353)
 -->
<!-- Title: /github/workspace/src/sgui/Resources/TextContainer.h Pages: 1 -->
<svg width="390pt" height="172pt"
 viewBox="0.00 0.00 389.75 171.50" xmlns="http://www.w3.org/2000/svg" xmlns:xlink="http://www.w3.org/1999/xlink">
<g id="graph0" class="graph" transform="scale(1 1) rotate(0) translate(4 167.5)">
<title>/github/workspace/src/sgui/Resources/TextContainer.h</title>
<!-- Node1 -->
<g id="Node000001" class="node">
<title>Node1</title>
<g id="a_Node000001"><a xlink:title=" ">
<polygon fill="#999999" stroke="#666666" points="218.5,-163.5 61.5,-163.5 61.5,-133 218.5,-133 218.5,-163.5"/>
<text text-anchor="start" x="69.5" y="-150" font-family="Helvetica,sans-Serif" font-size="10.00">/github/workspace/src</text>
<text text-anchor="middle" x="140" y="-138.75" font-family="Helvetica,sans-Serif" font-size="10.00">/sgui/Resources/TextContainer.h</text>
</a>
</g>
</g>
<!-- Node2 -->
<g id="Node000002" class="node">
<title>Node2</title>
<g id="a_Node000002"><a xlink:href="_gui_8cpp.html" target="_top" xlink:title=" ">
<polygon fill="white" stroke="#666666" points="112,-30.5 0,-30.5 0,0 112,0 112,-30.5"/>
<text text-anchor="start" x="8" y="-17" font-family="Helvetica,sans-Serif" font-size="10.00">/github/workspace/src</text>
<text text-anchor="middle" x="56" y="-5.75" font-family="Helvetica,sans-Serif" font-size="10.00">/sgui/Gui.cpp</text>
</a>
</g>
</g>
<!-- Node1&#45;&gt;Node2 -->
<g id="edge1_Node000001_Node000002" class="edge">
<title>Node1&#45;&gt;Node2</title>
<g id="a_edge1_Node000001_Node000002"><a xlink:title=" ">
<path fill="none" stroke="#63b8ff" d="M103.96,-126.18C93.21,-118.28 82.34,-108.41 75,-97 61.83,-76.53 57.77,-47.9 56.53,-30.8"/>
<polygon fill="#63b8ff" stroke="#63b8ff" points="101.82,-128.95 112.04,-131.74 105.79,-123.19 101.82,-128.95"/>
</a>
</g>
</g>
<!-- Node3 -->
<g id="Node000003" class="node">
<title>Node3</title>
<g id="a_Node000003"><a xlink:href="_gui_8h.html" target="_top" xlink:title=" ">
<polygon fill="white" stroke="#666666" points="196,-97 84,-97 84,-66.5 196,-66.5 196,-97"/>
<text text-anchor="start" x="92" y="-83.5" font-family="Helvetica,sans-Serif" font-size="10.00">/github/workspace/src</text>
<text text-anchor="middle" x="140" y="-72.25" font-family="Helvetica,sans-Serif" font-size="10.00">/sgui/Gui.h</text>
</a>
</g>
</g>
<!-- Node1&#45;&gt;Node3 -->
<g id="edge2_Node000001_Node000003" class="edge">
<title>Node1&#45;&gt;Node3</title>
<g id="a_edge2_Node000001_Node000003"><a xlink:title=" ">
<path fill="none" stroke="#63b8ff" d="M140,-121.31C140,-113.14 140,-104.41 140,-97.33"/>
<polygon fill="#63b8ff" stroke="#63b8ff" points="136.5,-121.1 140,-131.1 143.5,-121.1 136.5,-121.1"/>
</a>
</g>
</g>
<!-- Node5 -->
<g id="Node000005" class="node">
<title>Node5</title>
<g id="a_Node000005"><a xlink:href="_text_container_8cpp.html" target="_top" xlink:title=" ">
<polygon fill="white" stroke="#666666" points="381.75,-97 214.25,-97 214.25,-66.5 381.75,-66.5 381.75,-97"/>
<text text-anchor="start" x="222.25" y="-83.5" font-family="Helvetica,sans-Serif" font-size="10.00">/github/workspace/src</text>
<text text-anchor="middle" x="298" y="-72.25" font-family="Helvetica,sans-Serif" font-size="10.00">/sgui/Resources/TextContainer.cpp</text>
</a>
</g>
</g>
<!-- Node1&#45;&gt;Node5 -->
<g id="edge5_Node000001_Node000005" class="edge">
<title>Node1&#45;&gt;Node5</title>
<g id="a_edge5_Node000001_Node000005"><a xlink:title=" ">
<path fill="none" stroke="#63b8ff" d="M186.22,-128.38C210.39,-118.51 239.54,-106.61 262.02,-97.44"/>
<polygon fill="#63b8ff" stroke="#63b8ff" points="185.19,-125.02 177.25,-132.04 187.84,-131.5 185.19,-125.02"/>
</a>
</g>
</g>
<!-- Node3&#45;&gt;Node2 -->
<g id="edge3_Node000003_Node000002" class="edge">
<title>Node3&#45;&gt;Node2</title>
<g id="a_edge3_Node000003_Node000002"><a xlink:title=" ">
<path fill="none" stroke="#63b8ff" d="M112.06,-59.29C99.88,-49.94 85.93,-39.23 74.99,-30.83"/>
<polygon fill="#63b8ff" stroke="#63b8ff" points="109.68,-61.88 119.74,-65.19 113.94,-56.33 109.68,-61.88"/>
</a>
</g>
</g>
<!-- Node4 -->
<g id="Node000004" class="node">
<title>Node4</title>
<g id="a_Node000004"><a xlink:href="sgui_8h.html" target="_top" xlink:title=" ">
<polygon fill="white" stroke="#666666" points="242,-30.5 130,-30.5 130,0 242,0 242,-30.5"/>
<text text-anchor="start" x="138" y="-17" font-family="Helvetica,sans-Serif" font-size="10.00">/github/workspace/src</text>
<text text-anchor="middle" x="186" y="-5.75" font-family="Helvetica,sans-Serif" font-size="10.00">/sgui/sgui.h</text>
</a>
</g>
</g>
<!-- Node3&#45;&gt;Node4 -->
<g id="edge4_Node000003_Node000004" class="edge">
<title>Node3&#45;&gt;Node4</title>
<g id="a_edge4_Node000003_Node000004"><a xlink:title=" ">
<path fill="none" stroke="#63b8ff" d="M157.09,-56.79C163.31,-48.07 170.14,-38.49 175.6,-30.83"/>
<polygon fill="#63b8ff" stroke="#63b8ff" points="154.27,-54.71 151.32,-64.88 159.97,-58.77 154.27,-54.71"/>
</a>
</g>
</g>
</g>
</svg>
