<?xml version="1.0" encoding="UTF-8" standalone="no"?>
<!DOCTYPE svg PUBLIC "-//W3C//DTD SVG 1.1//EN"
 "http://www.w3.org/Graphics/SVG/1.1/DTD/svg11.dtd">
<!-- Generated by graphviz version 12.2.1 (20241206.2353)
 -->
<!-- Title: /github/workspace/src/sgui/Render/TextureMeshes.cpp Pages: 1 -->
<svg width="693pt" height="149pt"
 viewBox="0.00 0.00 693.00 149.00" xmlns="http://www.w3.org/2000/svg" xmlns:xlink="http://www.w3.org/1999/xlink">
<g id="graph0" class="graph" transform="scale(1 1) rotate(0) translate(4 145)">
<title>/github/workspace/src/sgui/Render/TextureMeshes.cpp</title>
<!-- Node1 -->
<g id="Node000001" class="node">
<title>Node1</title>
<g id="a_Node000001"><a xlink:title=" ">
<polygon fill="#999999" stroke="#666666" points="473.75,-141 315.25,-141 315.25,-110.5 473.75,-110.5 473.75,-141"/>
<text text-anchor="start" x="323.25" y="-127.5" font-family="Helvetica,sans-Serif" font-size="10.00">/github/workspace/src</text>
<text text-anchor="middle" x="394.5" y="-116.25" font-family="Helvetica,sans-Serif" font-size="10.00">/sgui/Render/TextureMeshes.cpp</text>
</a>
</g>
</g>
<!-- Node2 -->
<g id="Node000002" class="node">
<title>Node2</title>
<g id="a_Node000002"><a xlink:href="_texture_meshes_8h.html" target="_top" xlink:title=" ">
<polygon fill="white" stroke="#666666" points="233,-74.5 88,-74.5 88,-55.25 233,-55.25 233,-74.5"/>
<text text-anchor="middle" x="160.5" y="-61" font-family="Helvetica,sans-Serif" font-size="10.00">sgui/Render/TextureMeshes.h</text>
</a>
</g>
</g>
<!-- Node1&#45;&gt;Node2 -->
<g id="edge1_Node000001_Node000002" class="edge">
<title>Node1&#45;&gt;Node2</title>
<g id="a_edge1_Node000001_Node000002"><a xlink:title=" ">
<path fill="none" stroke="#63b8ff" d="M336.06,-110.05C296.43,-100.08 244.73,-87.07 207.72,-77.75"/>
<polygon fill="#63b8ff" stroke="#63b8ff" points="208.75,-74.41 198.2,-75.36 207.04,-81.19 208.75,-74.41"/>
</a>
</g>
</g>
<!-- Node7 -->
<g id="Node000007" class="node">
<title>Node7</title>
<g id="a_Node000007"><a xlink:href="_mesh_functions_8h.html" target="_top" xlink:title=" ">
<polygon fill="white" stroke="#666666" points="635,-74.5 490,-74.5 490,-55.25 635,-55.25 635,-74.5"/>
<text text-anchor="middle" x="562.5" y="-61" font-family="Helvetica,sans-Serif" font-size="10.00">sgui/Render/MeshFunctions.h</text>
</a>
</g>
</g>
<!-- Node1&#45;&gt;Node7 -->
<g id="edge6_Node000001_Node000007" class="edge">
<title>Node1&#45;&gt;Node7</title>
<g id="a_edge6_Node000001_Node000007"><a xlink:title=" ">
<path fill="none" stroke="#63b8ff" d="M436.46,-110.05C464.01,-100.39 499.7,-87.88 526.06,-78.65"/>
<polygon fill="#63b8ff" stroke="#63b8ff" points="527.03,-82.01 535.31,-75.4 524.71,-75.41 527.03,-82.01"/>
</a>
</g>
</g>
<!-- Node10 -->
<g id="Node000010" class="node">
<title>Node10</title>
<g id="a_Node000010"><a xlink:href="_texture_atlas_8h.html" target="_top" xlink:title=" ">
<polygon fill="white" stroke="#666666" points="468.88,-74.5 320.12,-74.5 320.12,-55.25 468.88,-55.25 468.88,-74.5"/>
<text text-anchor="middle" x="394.5" y="-61" font-family="Helvetica,sans-Serif" font-size="10.00">sgui/Resources/TextureAtlas.h</text>
</a>
</g>
</g>
<!-- Node1&#45;&gt;Node10 -->
<g id="edge10_Node000001_Node000010" class="edge">
<title>Node1&#45;&gt;Node10</title>
<g id="a_edge10_Node000001_Node000010"><a xlink:title=" ">
<path fill="none" stroke="#63b8ff" d="M394.5,-110.2C394.5,-102.96 394.5,-94.09 394.5,-86.19"/>
<polygon fill="#63b8ff" stroke="#63b8ff" points="398,-86.46 394.5,-76.46 391,-86.46 398,-86.46"/>
</a>
</g>
</g>
<!-- Node3 -->
<g id="Node000003" class="node">
<title>Node3</title>
<g id="a_Node000003"><a xlink:title=" ">
<polygon fill="#e0e0e0" stroke="#999999" points="43,-19.25 0,-19.25 0,0 43,0 43,-19.25"/>
<text text-anchor="middle" x="21.5" y="-5.75" font-family="Helvetica,sans-Serif" font-size="10.00">vector</text>
</a>
</g>
</g>
<!-- Node2&#45;&gt;Node3 -->
<g id="edge2_Node000002_Node000003" class="edge">
<title>Node2&#45;&gt;Node3</title>
<g id="a_edge2_Node000002_Node000003"><a xlink:title=" ">
<path fill="none" stroke="#63b8ff" d="M136.92,-54.84C114.12,-46.11 79.37,-32.79 53.96,-23.06"/>
<polygon fill="#63b8ff" stroke="#63b8ff" points="55.36,-19.85 44.77,-19.54 52.86,-26.39 55.36,-19.85"/>
</a>
</g>
</g>
<!-- Node4 -->
<g id="Node000004" class="node">
<title>Node4</title>
<g id="a_Node000004"><a xlink:title=" ">
<polygon fill="#e0e0e0" stroke="#999999" points="101.5,-19.25 61.5,-19.25 61.5,0 101.5,0 101.5,-19.25"/>
<text text-anchor="middle" x="81.5" y="-5.75" font-family="Helvetica,sans-Serif" font-size="10.00">string</text>
</a>
</g>
</g>
<!-- Node2&#45;&gt;Node4 -->
<g id="edge3_Node000002_Node000004" class="edge">
<title>Node2&#45;&gt;Node4</title>
<g id="a_edge3_Node000002_Node000004"><a xlink:title=" ">
<path fill="none" stroke="#63b8ff" d="M147.1,-54.84C135.41,-46.96 118.2,-35.36 104.34,-26.02"/>
<polygon fill="#63b8ff" stroke="#63b8ff" points="106.47,-23.24 96.22,-20.55 102.56,-29.04 106.47,-23.24"/>
</a>
</g>
</g>
<!-- Node5 -->
<g id="Node000005" class="node">
<title>Node5</title>
<g id="a_Node000005"><a xlink:title=" ">
<polygon fill="#e0e0e0" stroke="#999999" points="201.88,-19.25 119.12,-19.25 119.12,0 201.88,0 201.88,-19.25"/>
<text text-anchor="middle" x="160.5" y="-5.75" font-family="Helvetica,sans-Serif" font-size="10.00">unordered_map</text>
</a>
</g>
</g>
<!-- Node2&#45;&gt;Node5 -->
<g id="edge4_Node000002_Node000005" class="edge">
<title>Node2&#45;&gt;Node5</title>
<g id="a_edge4_Node000002_Node000005"><a xlink:title=" ">
<path fill="none" stroke="#63b8ff" d="M160.5,-55.08C160.5,-48.57 160.5,-39.42 160.5,-31.12"/>
<polygon fill="#63b8ff" stroke="#63b8ff" points="164,-31.12 160.5,-21.12 157,-31.12 164,-31.12"/>
</a>
</g>
</g>
<!-- Node6 -->
<g id="Node000006" class="node">
<title>Node6</title>
<g id="a_Node000006"><a xlink:title=" ">
<polygon fill="#e0e0e0" stroke="#999999" points="353.38,-19.25 219.62,-19.25 219.62,0 353.38,0 353.38,-19.25"/>
<text text-anchor="middle" x="286.5" y="-5.75" font-family="Helvetica,sans-Serif" font-size="10.00">SFML/Graphics/Vertex.hpp</text>
</a>
</g>
</g>
<!-- Node2&#45;&gt;Node6 -->
<g id="edge5_Node000002_Node000006" class="edge">
<title>Node2&#45;&gt;Node6</title>
<g id="a_edge5_Node000002_Node000006"><a xlink:title=" ">
<path fill="none" stroke="#63b8ff" d="M181.87,-54.84C201.79,-46.43 231.74,-33.77 254.5,-24.15"/>
<polygon fill="#63b8ff" stroke="#63b8ff" points="255.78,-27.41 263.63,-20.29 253.05,-20.96 255.78,-27.41"/>
</a>
</g>
</g>
<!-- Node7&#45;&gt;Node6 -->
<g id="edge9_Node000007_Node000006" class="edge">
<title>Node7&#45;&gt;Node6</title>
<g id="a_edge9_Node000007_Node000006"><a xlink:title=" ">
<path fill="none" stroke="#63b8ff" d="M515.37,-54.78C468.13,-45.67 395.33,-31.62 344.56,-21.83"/>
<polygon fill="#63b8ff" stroke="#63b8ff" points="345.41,-18.43 334.92,-19.97 344.08,-25.3 345.41,-18.43"/>
</a>
</g>
</g>
<!-- Node8 -->
<g id="Node000008" class="node">
<title>Node8</title>
<g id="a_Node000008"><a xlink:title=" ">
<polygon fill="#e0e0e0" stroke="#999999" points="685,-19.25 648,-19.25 648,0 685,0 685,-19.25"/>
<text text-anchor="middle" x="666.5" y="-5.75" font-family="Helvetica,sans-Serif" font-size="10.00">array</text>
</a>
</g>
</g>
<!-- Node7&#45;&gt;Node8 -->
<g id="edge7_Node000007_Node000008" class="edge">
<title>Node7&#45;&gt;Node8</title>
<g id="a_edge7_Node000007_Node000008"><a xlink:title=" ">
<path fill="none" stroke="#63b8ff" d="M580.14,-54.84C596.13,-46.66 619.96,-34.46 638.54,-24.94"/>
<polygon fill="#63b8ff" stroke="#63b8ff" points="640.12,-28.07 647.42,-20.39 636.93,-21.83 640.12,-28.07"/>
</a>
</g>
</g>
<!-- Node9 -->
<g id="Node000009" class="node">
<title>Node9</title>
<g id="a_Node000009"><a xlink:title=" ">
<polygon fill="#e0e0e0" stroke="#999999" points="629.62,-19.25 503.38,-19.25 503.38,0 629.62,0 629.62,-19.25"/>
<text text-anchor="middle" x="566.5" y="-5.75" font-family="Helvetica,sans-Serif" font-size="10.00">SFML/Graphics/Rect.hpp</text>
</a>
</g>
</g>
<!-- Node7&#45;&gt;Node9 -->
<g id="edge8_Node000007_Node000009" class="edge">
<title>Node7&#45;&gt;Node9</title>
<g id="a_edge8_Node000007_Node000009"><a xlink:title=" ">
<path fill="none" stroke="#63b8ff" d="M563.16,-55.08C563.66,-48.49 564.35,-39.21 564.98,-30.82"/>
<polygon fill="#63b8ff" stroke="#63b8ff" points="568.45,-31.35 565.71,-21.12 561.47,-30.83 568.45,-31.35"/>
</a>
</g>
</g>
<!-- Node10&#45;&gt;Node4 -->
<g id="edge11_Node000010_Node000004" class="edge">
<title>Node10&#45;&gt;Node4</title>
<g id="a_edge11_Node000010_Node000004"><a xlink:title=" ">
<path fill="none" stroke="#63b8ff" d="M319.84,-54.91C264.96,-47.68 188.42,-36.29 112.83,-19.52"/>
<polygon fill="#63b8ff" stroke="#63b8ff" points="113.69,-16.12 103.17,-17.34 112.15,-22.95 113.69,-16.12"/>
</a>
</g>
</g>
<!-- Node10&#45;&gt;Node5 -->
<g id="edge14_Node000010_Node000005" class="edge">
<title>Node10&#45;&gt;Node5</title>
<g id="a_edge14_Node000010_Node000005"><a xlink:title=" ">
<path fill="none" stroke="#63b8ff" d="M354.54,-54.78C315,-45.78 254.32,-31.98 211.36,-22.2"/>
<polygon fill="#63b8ff" stroke="#63b8ff" points="212.3,-18.82 201.77,-20.02 210.75,-25.65 212.3,-18.82"/>
</a>
</g>
</g>
<!-- Node10&#45;&gt;Node9 -->
<g id="edge15_Node000010_Node000009" class="edge">
<title>Node10&#45;&gt;Node9</title>
<g id="a_edge15_Node000010_Node000009"><a xlink:title=" ">
<path fill="none" stroke="#63b8ff" d="M423.68,-54.84C451.97,-46.08 495.11,-32.73 526.58,-22.98"/>
<polygon fill="#63b8ff" stroke="#63b8ff" points="527.22,-26.45 535.73,-20.15 525.15,-19.76 527.22,-26.45"/>
</a>
</g>
</g>
<!-- Node11 -->
<g id="Node000011" class="node">
<title>Node11</title>
<g id="a_Node000011"><a xlink:title=" ">
<polygon fill="#e0e0e0" stroke="#999999" points="417.12,-19.25 371.88,-19.25 371.88,0 417.12,0 417.12,-19.25"/>
<text text-anchor="middle" x="394.5" y="-5.75" font-family="Helvetica,sans-Serif" font-size="10.00">cstdint</text>
</a>
</g>
</g>
<!-- Node10&#45;&gt;Node11 -->
<g id="edge12_Node000010_Node000011" class="edge">
<title>Node10&#45;&gt;Node11</title>
<g id="a_edge12_Node000010_Node000011"><a xlink:title=" ">
<path fill="none" stroke="#63b8ff" d="M394.5,-55.08C394.5,-48.57 394.5,-39.42 394.5,-31.12"/>
<polygon fill="#63b8ff" stroke="#63b8ff" points="398,-31.12 394.5,-21.12 391,-31.12 398,-31.12"/>
</a>
</g>
</g>
<!-- Node12 -->
<g id="Node000012" class="node">
<title>Node12</title>
<g id="a_Node000012"><a xlink:title=" ">
<polygon fill="#e0e0e0" stroke="#999999" points="485.38,-19.25 435.62,-19.25 435.62,0 485.38,0 485.38,-19.25"/>
<text text-anchor="middle" x="460.5" y="-5.75" font-family="Helvetica,sans-Serif" font-size="10.00">optional</text>
</a>
</g>
</g>
<!-- Node10&#45;&gt;Node12 -->
<g id="edge13_Node000010_Node000012" class="edge">
<title>Node10&#45;&gt;Node12</title>
<g id="a_edge13_Node000010_Node000012"><a xlink:title=" ">
<path fill="none" stroke="#63b8ff" d="M405.7,-54.84C415.24,-47.15 429.17,-35.9 440.61,-26.68"/>
<polygon fill="#63b8ff" stroke="#63b8ff" points="442.71,-29.48 448.29,-20.48 438.31,-24.03 442.71,-29.48"/>
</a>
</g>
</g>
</g>
</svg>
