<?xml version="1.0" encoding="UTF-8" standalone="no"?>
<!DOCTYPE svg PUBLIC "-//W3C//DTD SVG 1.1//EN"
 "http://www.w3.org/Graphics/SVG/1.1/DTD/svg11.dtd">
<!-- Generated by graphviz version 12.2.1 (20241206.2353)
 -->
<!-- Title: /github/workspace/src/sgui/Resources/TextureAtlas.h Pages: 1 -->
<svg width="425pt" height="94pt"
 viewBox="0.00 0.00 425.12 93.75" xmlns="http://www.w3.org/2000/svg" xmlns:xlink="http://www.w3.org/1999/xlink">
<g id="graph0" class="graph" transform="scale(1 1) rotate(0) translate(4 89.75)">
<title>/github/workspace/src/sgui/Resources/TextureAtlas.h</title>
<!-- Node1 -->
<g id="Node000001" class="node">
<title>Node1</title>
<g id="a_Node000001"><a xlink:title=" ">
<polygon fill="#999999" stroke="#666666" points="222.88,-85.75 71.12,-85.75 71.12,-55.25 222.88,-55.25 222.88,-85.75"/>
<text text-anchor="start" x="79.12" y="-72.25" font-family="Helvetica,sans-Serif" font-size="10.00">/github/workspace/src</text>
<text text-anchor="middle" x="147" y="-61" font-family="Helvetica,sans-Serif" font-size="10.00">/sgui/Resources/TextureAtlas.h</text>
</a>
</g>
</g>
<!-- Node2 -->
<g id="Node000002" class="node">
<title>Node2</title>
<g id="a_Node000002"><a xlink:title=" ">
<polygon fill="#e0e0e0" stroke="#999999" points="40,-19.25 0,-19.25 0,0 40,0 40,-19.25"/>
<text text-anchor="middle" x="20" y="-5.75" font-family="Helvetica,sans-Serif" font-size="10.00">string</text>
</a>
</g>
</g>
<!-- Node1&#45;&gt;Node2 -->
<g id="edge1_Node000001_Node000002" class="edge">
<title>Node1&#45;&gt;Node2</title>
<g id="a_edge1_Node000001_Node000002"><a xlink:title=" ">
<path fill="none" stroke="#63b8ff" d="M115.28,-54.8C95.2,-45.48 69.4,-33.52 49.71,-24.4"/>
<polygon fill="#63b8ff" stroke="#63b8ff" points="51.39,-21.32 40.85,-20.29 48.45,-27.67 51.39,-21.32"/>
</a>
</g>
</g>
<!-- Node3 -->
<g id="Node000003" class="node">
<title>Node3</title>
<g id="a_Node000003"><a xlink:title=" ">
<polygon fill="#e0e0e0" stroke="#999999" points="103.62,-19.25 58.38,-19.25 58.38,0 103.62,0 103.62,-19.25"/>
<text text-anchor="middle" x="81" y="-5.75" font-family="Helvetica,sans-Serif" font-size="10.00">cstdint</text>
</a>
</g>
</g>
<!-- Node1&#45;&gt;Node3 -->
<g id="edge2_Node000001_Node000003" class="edge">
<title>Node1&#45;&gt;Node3</title>
<g id="a_edge2_Node000001_Node000003"><a xlink:title=" ">
<path fill="none" stroke="#63b8ff" d="M130.69,-54.95C121.31,-46.59 109.5,-36.05 99.75,-27.35"/>
<polygon fill="#63b8ff" stroke="#63b8ff" points="102.1,-24.75 92.3,-20.71 97.44,-29.98 102.1,-24.75"/>
</a>
</g>
</g>
<!-- Node4 -->
<g id="Node000004" class="node">
<title>Node4</title>
<g id="a_Node000004"><a xlink:title=" ">
<polygon fill="#e0e0e0" stroke="#999999" points="171.88,-19.25 122.12,-19.25 122.12,0 171.88,0 171.88,-19.25"/>
<text text-anchor="middle" x="147" y="-5.75" font-family="Helvetica,sans-Serif" font-size="10.00">optional</text>
</a>
</g>
</g>
<!-- Node1&#45;&gt;Node4 -->
<g id="edge3_Node000001_Node000004" class="edge">
<title>Node1&#45;&gt;Node4</title>
<g id="a_edge3_Node000001_Node000004"><a xlink:title=" ">
<path fill="none" stroke="#63b8ff" d="M147,-54.95C147,-47.71 147,-38.84 147,-30.94"/>
<polygon fill="#63b8ff" stroke="#63b8ff" points="150.5,-31.21 147,-21.21 143.5,-31.21 150.5,-31.21"/>
</a>
</g>
</g>
<!-- Node5 -->
<g id="Node000005" class="node">
<title>Node5</title>
<g id="a_Node000005"><a xlink:title=" ">
<polygon fill="#e0e0e0" stroke="#999999" points="272.38,-19.25 189.62,-19.25 189.62,0 272.38,0 272.38,-19.25"/>
<text text-anchor="middle" x="231" y="-5.75" font-family="Helvetica,sans-Serif" font-size="10.00">unordered_map</text>
</a>
</g>
</g>
<!-- Node1&#45;&gt;Node5 -->
<g id="edge4_Node000001_Node000005" class="edge">
<title>Node1&#45;&gt;Node5</title>
<g id="a_edge4_Node000001_Node000005"><a xlink:title=" ">
<path fill="none" stroke="#63b8ff" d="M167.76,-54.95C180.18,-46.24 195.97,-35.18 208.66,-26.28"/>
<polygon fill="#63b8ff" stroke="#63b8ff" points="210.63,-29.18 216.81,-20.57 206.61,-23.44 210.63,-29.18"/>
</a>
</g>
</g>
<!-- Node6 -->
<g id="Node000006" class="node">
<title>Node6</title>
<g id="a_Node000006"><a xlink:title=" ">
<polygon fill="#e0e0e0" stroke="#999999" points="417.12,-19.25 290.88,-19.25 290.88,0 417.12,0 417.12,-19.25"/>
<text text-anchor="middle" x="354" y="-5.75" font-family="Helvetica,sans-Serif" font-size="10.00">SFML/Graphics/Rect.hpp</text>
</a>
</g>
</g>
<!-- Node1&#45;&gt;Node6 -->
<g id="edge5_Node000001_Node000006" class="edge">
<title>Node1&#45;&gt;Node6</title>
<g id="a_edge5_Node000001_Node000006"><a xlink:title=" ">
<path fill="none" stroke="#63b8ff" d="M198.7,-54.8C233.3,-44.95 278.31,-32.15 310.95,-22.87"/>
<polygon fill="#63b8ff" stroke="#63b8ff" points="311.83,-26.26 320.49,-20.15 309.92,-19.52 311.83,-26.26"/>
</a>
</g>
</g>
</g>
</svg>
