<?xml version="1.0" encoding="UTF-8" standalone="no"?>
<!DOCTYPE svg PUBLIC "-//W3C//DTD SVG 1.1//EN"
 "http://www.w3.org/Graphics/SVG/1.1/DTD/svg11.dtd">
<!-- Generated by graphviz version 12.2.1 (20241206.2353)
 -->
<!-- Title: /github/workspace/src/sgui/Resources/TextureAtlas.cpp Pages: 1 -->
<svg width="944pt" height="238pt"
 viewBox="0.00 0.00 944.12 238.00" xmlns="http://www.w3.org/2000/svg" xmlns:xlink="http://www.w3.org/1999/xlink">
<g id="graph0" class="graph" transform="scale(1 1) rotate(0) translate(4 234)">
<title>/github/workspace/src/sgui/Resources/TextureAtlas.cpp</title>
<!-- Node1 -->
<g id="Node000001" class="node">
<title>Node1</title>
<g id="a_Node000001"><a xlink:title=" ">
<polygon fill="#999999" stroke="#666666" points="432.75,-230 270.5,-230 270.5,-199.5 432.75,-199.5 432.75,-230"/>
<text text-anchor="start" x="278.5" y="-216.5" font-family="Helvetica,sans-Serif" font-size="10.00">/github/workspace/src</text>
<text text-anchor="middle" x="351.62" y="-205.25" font-family="Helvetica,sans-Serif" font-size="10.00">/sgui/Resources/TextureAtlas.cpp</text>
</a>
</g>
</g>
<!-- Node2 -->
<g id="Node000002" class="node">
<title>Node2</title>
<g id="a_Node000002"><a xlink:title=" ">
<polygon fill="#e0e0e0" stroke="#999999" points="323.38,-157.88 239.88,-157.88 239.88,-138.62 323.38,-138.62 323.38,-157.88"/>
<text text-anchor="middle" x="281.62" y="-144.38" font-family="Helvetica,sans-Serif" font-size="10.00">spdlog/spdlog.h</text>
</a>
</g>
</g>
<!-- Node1&#45;&gt;Node2 -->
<g id="edge1_Node000001_Node000002" class="edge">
<title>Node1&#45;&gt;Node2</title>
<g id="a_edge1_Node000001_Node000002"><a xlink:title=" ">
<path fill="none" stroke="#63b8ff" d="M335.74,-199.11C324.92,-189.14 310.58,-175.93 299.38,-165.61"/>
<polygon fill="#63b8ff" stroke="#63b8ff" points="302.04,-163.3 292.31,-159.1 297.3,-168.45 302.04,-163.3"/>
</a>
</g>
</g>
<!-- Node3 -->
<g id="Node000003" class="node">
<title>Node3</title>
<g id="a_Node000003"><a xlink:href="_texture_atlas_8h.html" target="_top" xlink:title=" ">
<polygon fill="white" stroke="#666666" points="326,-91.38 177.25,-91.38 177.25,-72.12 326,-72.12 326,-91.38"/>
<text text-anchor="middle" x="251.62" y="-77.88" font-family="Helvetica,sans-Serif" font-size="10.00">sgui/Resources/TextureAtlas.h</text>
</a>
</g>
</g>
<!-- Node1&#45;&gt;Node3 -->
<g id="edge2_Node000001_Node000003" class="edge">
<title>Node1&#45;&gt;Node3</title>
<g id="a_edge2_Node000001_Node000003"><a xlink:title=" ">
<path fill="none" stroke="#63b8ff" d="M351.47,-199.26C350.61,-181.97 346.92,-152.88 332.62,-133 321.06,-116.91 302.58,-104.87 286.2,-96.62"/>
<polygon fill="#63b8ff" stroke="#63b8ff" points="287.73,-93.48 277.2,-92.39 284.75,-99.81 287.73,-93.48"/>
</a>
</g>
</g>
<!-- Node9 -->
<g id="Node000009" class="node">
<title>Node9</title>
<g id="a_Node000009"><a xlink:href="_load_texture_atlas_8h.html" target="_top" xlink:title=" ">
<polygon fill="white" stroke="#666666" points="556.12,-163.5 453.12,-163.5 453.12,-133 556.12,-133 556.12,-163.5"/>
<text text-anchor="start" x="461.12" y="-150" font-family="Helvetica,sans-Serif" font-size="10.00">sgui/Serialization</text>
<text text-anchor="middle" x="504.62" y="-138.75" font-family="Helvetica,sans-Serif" font-size="10.00">/LoadTextureAtlas.h</text>
</a>
</g>
</g>
<!-- Node1&#45;&gt;Node9 -->
<g id="edge8_Node000001_Node000009" class="edge">
<title>Node1&#45;&gt;Node9</title>
<g id="a_edge8_Node000001_Node000009"><a xlink:title=" ">
<path fill="none" stroke="#63b8ff" d="M386.34,-199.11C407.98,-189.99 436.05,-178.16 459.42,-168.31"/>
<polygon fill="#63b8ff" stroke="#63b8ff" points="460.53,-171.64 468.39,-164.53 457.81,-165.19 460.53,-171.64"/>
</a>
</g>
</g>
<!-- Node4 -->
<g id="Node000004" class="node">
<title>Node4</title>
<g id="a_Node000004"><a xlink:title=" ">
<polygon fill="#e0e0e0" stroke="#999999" points="271.62,-24.88 231.62,-24.88 231.62,-5.63 271.62,-5.63 271.62,-24.88"/>
<text text-anchor="middle" x="251.62" y="-11.38" font-family="Helvetica,sans-Serif" font-size="10.00">string</text>
</a>
</g>
</g>
<!-- Node3&#45;&gt;Node4 -->
<g id="edge3_Node000003_Node000004" class="edge">
<title>Node3&#45;&gt;Node4</title>
<g id="a_edge3_Node000003_Node000004"><a xlink:title=" ">
<path fill="none" stroke="#63b8ff" d="M251.62,-71.78C251.62,-62.73 251.62,-48.45 251.62,-36.63"/>
<polygon fill="#63b8ff" stroke="#63b8ff" points="255.13,-36.66 251.63,-26.66 248.13,-36.66 255.13,-36.66"/>
</a>
</g>
</g>
<!-- Node5 -->
<g id="Node000005" class="node">
<title>Node5</title>
<g id="a_Node000005"><a xlink:title=" ">
<polygon fill="#e0e0e0" stroke="#999999" points="45.25,-24.88 0,-24.88 0,-5.63 45.25,-5.63 45.25,-24.88"/>
<text text-anchor="middle" x="22.62" y="-11.38" font-family="Helvetica,sans-Serif" font-size="10.00">cstdint</text>
</a>
</g>
</g>
<!-- Node3&#45;&gt;Node5 -->
<g id="edge4_Node000003_Node000005" class="edge">
<title>Node3&#45;&gt;Node5</title>
<g id="a_edge4_Node000003_Node000005"><a xlink:title=" ">
<path fill="none" stroke="#63b8ff" d="M207.18,-71.67C166.83,-62.9 105.97,-48.34 54.62,-30.5 53.67,-30.17 52.7,-29.82 51.73,-29.46"/>
<polygon fill="#63b8ff" stroke="#63b8ff" points="53.35,-26.34 42.76,-25.8 50.7,-32.82 53.35,-26.34"/>
</a>
</g>
</g>
<!-- Node6 -->
<g id="Node000006" class="node">
<title>Node6</title>
<g id="a_Node000006"><a xlink:title=" ">
<polygon fill="#e0e0e0" stroke="#999999" points="113.5,-24.88 63.75,-24.88 63.75,-5.63 113.5,-5.63 113.5,-24.88"/>
<text text-anchor="middle" x="88.62" y="-11.38" font-family="Helvetica,sans-Serif" font-size="10.00">optional</text>
</a>
</g>
</g>
<!-- Node3&#45;&gt;Node6 -->
<g id="edge5_Node000003_Node000006" class="edge">
<title>Node3&#45;&gt;Node6</title>
<g id="a_edge5_Node000003_Node000006"><a xlink:title=" ">
<path fill="none" stroke="#63b8ff" d="M227.78,-71.67C201.83,-61.74 159.17,-45.27 122.62,-30.5 121.85,-30.19 121.06,-29.87 120.26,-29.54"/>
<polygon fill="#63b8ff" stroke="#63b8ff" points="121.79,-26.38 111.21,-25.8 119.12,-32.86 121.79,-26.38"/>
</a>
</g>
</g>
<!-- Node7 -->
<g id="Node000007" class="node">
<title>Node7</title>
<g id="a_Node000007"><a xlink:title=" ">
<polygon fill="#e0e0e0" stroke="#999999" points="214,-24.88 131.25,-24.88 131.25,-5.63 214,-5.63 214,-24.88"/>
<text text-anchor="middle" x="172.62" y="-11.38" font-family="Helvetica,sans-Serif" font-size="10.00">unordered_map</text>
</a>
</g>
</g>
<!-- Node3&#45;&gt;Node7 -->
<g id="edge6_Node000003_Node000007" class="edge">
<title>Node3&#45;&gt;Node7</title>
<g id="a_edge6_Node000003_Node000007"><a xlink:title=" ">
<path fill="none" stroke="#63b8ff" d="M240.64,-71.78C228.21,-61.63 207.72,-44.9 192.47,-32.45"/>
<polygon fill="#63b8ff" stroke="#63b8ff" points="194.9,-29.92 184.94,-26.31 190.48,-35.34 194.9,-29.92"/>
</a>
</g>
</g>
<!-- Node8 -->
<g id="Node000008" class="node">
<title>Node8</title>
<g id="a_Node000008"><a xlink:title=" ">
<polygon fill="#e0e0e0" stroke="#999999" points="415.75,-24.88 289.5,-24.88 289.5,-5.63 415.75,-5.63 415.75,-24.88"/>
<text text-anchor="middle" x="352.62" y="-11.38" font-family="Helvetica,sans-Serif" font-size="10.00">SFML/Graphics/Rect.hpp</text>
</a>
</g>
</g>
<!-- Node3&#45;&gt;Node8 -->
<g id="edge7_Node000003_Node000008" class="edge">
<title>Node3&#45;&gt;Node8</title>
<g id="a_edge7_Node000003_Node000008"><a xlink:title=" ">
<path fill="none" stroke="#63b8ff" d="M265.67,-71.78C282.01,-61.35 309.25,-43.95 328.89,-31.4"/>
<polygon fill="#63b8ff" stroke="#63b8ff" points="330.56,-34.5 337.1,-26.16 326.79,-28.6 330.56,-34.5"/>
</a>
</g>
</g>
<!-- Node9&#45;&gt;Node3 -->
<g id="edge10_Node000009_Node000003" class="edge">
<title>Node9&#45;&gt;Node3</title>
<g id="a_edge10_Node000009_Node000003"><a xlink:title=" ">
<path fill="none" stroke="#63b8ff" d="M452.82,-134.04C407.33,-122.45 341.78,-105.73 298,-94.57"/>
<polygon fill="#63b8ff" stroke="#63b8ff" points="299.11,-91.24 288.55,-92.16 297.38,-98.03 299.11,-91.24"/>
</a>
</g>
</g>
<!-- Node10 -->
<g id="Node000010" class="node">
<title>Node10</title>
<g id="a_Node000010"><a xlink:title=" ">
<polygon fill="#e0e0e0" stroke="#999999" points="936.12,-24.88 839.12,-24.88 839.12,-5.63 936.12,-5.63 936.12,-24.88"/>
<text text-anchor="middle" x="887.62" y="-11.38" font-family="Helvetica,sans-Serif" font-size="10.00">nlohmann/json.hpp</text>
</a>
</g>
</g>
<!-- Node9&#45;&gt;Node10 -->
<g id="edge9_Node000009_Node000010" class="edge">
<title>Node9&#45;&gt;Node10</title>
<g id="a_edge9_Node000009_Node000010"><a xlink:title=" ">
<path fill="none" stroke="#63b8ff" d="M547.45,-132.6C623.04,-106.75 778.91,-53.43 850.36,-29"/>
<polygon fill="#63b8ff" stroke="#63b8ff" points="851.32,-32.37 859.65,-25.82 849.05,-25.74 851.32,-32.37"/>
</a>
</g>
</g>
<!-- Node11 -->
<g id="Node000011" class="node">
<title>Node11</title>
<g id="a_Node000011"><a xlink:href="_serialize_s_f_m_l_8h.html" target="_top" xlink:title=" ">
<polygon fill="white" stroke="#666666" points="586.75,-97 496.5,-97 496.5,-66.5 586.75,-66.5 586.75,-97"/>
<text text-anchor="start" x="504.5" y="-83.5" font-family="Helvetica,sans-Serif" font-size="10.00">sgui/Serialization</text>
<text text-anchor="middle" x="541.62" y="-72.25" font-family="Helvetica,sans-Serif" font-size="10.00">/SerializeSFML.h</text>
</a>
</g>
</g>
<!-- Node9&#45;&gt;Node11 -->
<g id="edge11_Node000009_Node000011" class="edge">
<title>Node9&#45;&gt;Node11</title>
<g id="a_edge11_Node000009_Node000011"><a xlink:title=" ">
<path fill="none" stroke="#63b8ff" d="M513.02,-132.61C517.33,-125.11 522.68,-115.77 527.59,-107.21"/>
<polygon fill="#63b8ff" stroke="#63b8ff" points="530.57,-109.06 532.51,-98.64 524.5,-105.57 530.57,-109.06"/>
</a>
</g>
</g>
<!-- Node11&#45;&gt;Node8 -->
<g id="edge13_Node000011_Node000008" class="edge">
<title>Node11&#45;&gt;Node8</title>
<g id="a_edge13_Node000011_Node000008"><a xlink:title=" ">
<path fill="none" stroke="#63b8ff" d="M498.74,-66.11C466.05,-54.96 421.47,-39.75 390.18,-29.07"/>
<polygon fill="#63b8ff" stroke="#63b8ff" points="391.33,-25.76 380.73,-25.84 389.07,-32.39 391.33,-25.76"/>
</a>
</g>
</g>
<!-- Node11&#45;&gt;Node10 -->
<g id="edge12_Node000011_Node000010" class="edge">
<title>Node11&#45;&gt;Node10</title>
<g id="a_edge12_Node000011_Node000010"><a xlink:title=" ">
<path fill="none" stroke="#63b8ff" d="M587.12,-73.89C644.22,-65.04 745.05,-48.61 830.62,-30.5 834.38,-29.71 838.27,-28.84 842.16,-27.93"/>
<polygon fill="#63b8ff" stroke="#63b8ff" points="842.67,-31.41 851.58,-25.67 841.04,-24.6 842.67,-31.41"/>
</a>
</g>
</g>
<!-- Node12 -->
<g id="Node000012" class="node">
<title>Node12</title>
<g id="a_Node000012"><a xlink:title=" ">
<polygon fill="#e0e0e0" stroke="#999999" points="669.88,-24.88 541.38,-24.88 541.38,-5.63 669.88,-5.63 669.88,-24.88"/>
<text text-anchor="middle" x="605.62" y="-11.38" font-family="Helvetica,sans-Serif" font-size="10.00">SFML/Graphics/Color.hpp</text>
</a>
</g>
</g>
<!-- Node11&#45;&gt;Node12 -->
<g id="edge14_Node000011_Node000012" class="edge">
<title>Node11&#45;&gt;Node12</title>
<g id="a_edge14_Node000011_Node000012"><a xlink:title=" ">
<path fill="none" stroke="#63b8ff" d="M556.15,-66.11C565.85,-56.34 578.63,-43.45 588.78,-33.23"/>
<polygon fill="#63b8ff" stroke="#63b8ff" points="591.25,-35.71 595.8,-26.15 586.28,-30.78 591.25,-35.71"/>
</a>
</g>
</g>
<!-- Node13 -->
<g id="Node000013" class="node">
<title>Node13</title>
<g id="a_Node000013"><a xlink:title=" ">
<polygon fill="#e0e0e0" stroke="#999999" points="821.5,-24.88 687.75,-24.88 687.75,-5.63 821.5,-5.63 821.5,-24.88"/>
<text text-anchor="middle" x="754.62" y="-11.38" font-family="Helvetica,sans-Serif" font-size="10.00">SFML/System/Vector3.hpp</text>
</a>
</g>
</g>
<!-- Node11&#45;&gt;Node13 -->
<g id="edge15_Node000011_Node000013" class="edge">
<title>Node11&#45;&gt;Node13</title>
<g id="a_edge15_Node000011_Node000013"><a xlink:title=" ">
<path fill="none" stroke="#63b8ff" d="M587.06,-66.99C624.7,-55.59 677.73,-39.54 713.98,-28.56"/>
<polygon fill="#63b8ff" stroke="#63b8ff" points="714.66,-32.01 723.21,-25.76 712.63,-25.31 714.66,-32.01"/>
</a>
</g>
</g>
<!-- Node14 -->
<g id="Node000014" class="node">
<title>Node14</title>
<g id="a_Node000014"><a xlink:href="_macro_8h.html" target="_top" xlink:title=" ">
<polygon fill="white" stroke="#666666" points="523.38,-30.5 433.88,-30.5 433.88,0 523.38,0 523.38,-30.5"/>
<text text-anchor="start" x="441.88" y="-17" font-family="Helvetica,sans-Serif" font-size="10.00">sgui/Serialization</text>
<text text-anchor="middle" x="478.62" y="-5.75" font-family="Helvetica,sans-Serif" font-size="10.00">/Macro.h</text>
</a>
</g>
</g>
<!-- Node11&#45;&gt;Node14 -->
<g id="edge16_Node000011_Node000014" class="edge">
<title>Node11&#45;&gt;Node14</title>
<g id="a_edge16_Node000011_Node000014"><a xlink:title=" ">
<path fill="none" stroke="#63b8ff" d="M527.33,-66.11C519.52,-58.11 509.67,-48.03 500.87,-39.03"/>
<polygon fill="#63b8ff" stroke="#63b8ff" points="503.41,-36.62 493.92,-31.91 498.41,-41.51 503.41,-36.62"/>
</a>
</g>
</g>
</g>
</svg>
