<?xml version="1.0" encoding="UTF-8" standalone="no"?>
<!DOCTYPE svg PUBLIC "-//W3C//DTD SVG 1.1//EN"
 "http://www.w3.org/Graphics/SVG/1.1/DTD/svg11.dtd">
<!-- Generated by graphviz version 12.2.1 (20241206.2353)
 -->
<!-- Title: /github/workspace/src/sgui/Resources/TextureCollage.cpp Pages: 1 -->
<svg width="626pt" height="204pt"
 viewBox="0.00 0.00 625.88 204.25" xmlns="http://www.w3.org/2000/svg" xmlns:xlink="http://www.w3.org/1999/xlink">
<g id="graph0" class="graph" transform="scale(1 1) rotate(0) translate(4 200.25)">
<title>/github/workspace/src/sgui/Resources/TextureCollage.cpp</title>
<!-- Node1 -->
<g id="Node000001" class="node">
<title>Node1</title>
<g id="a_Node000001"><a xlink:title=" ">
<polygon fill="#999999" stroke="#666666" points="191.75,-196.25 19.75,-196.25 19.75,-165.75 191.75,-165.75 191.75,-196.25"/>
<text text-anchor="start" x="27.75" y="-182.75" font-family="Helvetica,sans-Serif" font-size="10.00">/github/workspace/src</text>
<text text-anchor="middle" x="105.75" y="-171.5" font-family="Helvetica,sans-Serif" font-size="10.00">/sgui/Resources/TextureCollage.cpp</text>
</a>
</g>
</g>
<!-- Node2 -->
<g id="Node000002" class="node">
<title>Node2</title>
<g id="a_Node000002"><a xlink:title=" ">
<polygon fill="#e0e0e0" stroke="#999999" points="59.5,-129.75 0,-129.75 0,-110.5 59.5,-110.5 59.5,-129.75"/>
<text text-anchor="middle" x="29.75" y="-116.25" font-family="Helvetica,sans-Serif" font-size="10.00">filesystem</text>
</a>
</g>
</g>
<!-- Node1&#45;&gt;Node2 -->
<g id="edge1_Node000001_Node000002" class="edge">
<title>Node1&#45;&gt;Node2</title>
<g id="a_edge1_Node000001_Node000002"><a xlink:title=" ">
<path fill="none" stroke="#63b8ff" d="M86.96,-165.45C75.84,-156.83 61.73,-145.9 50.31,-137.05"/>
<polygon fill="#63b8ff" stroke="#63b8ff" points="52.71,-134.49 42.66,-131.13 48.42,-140.02 52.71,-134.49"/>
</a>
</g>
</g>
<!-- Node3 -->
<g id="Node000003" class="node">
<title>Node3</title>
<g id="a_Node000003"><a xlink:title=" ">
<polygon fill="#e0e0e0" stroke="#999999" points="133.62,-129.75 77.88,-129.75 77.88,-110.5 133.62,-110.5 133.62,-129.75"/>
<text text-anchor="middle" x="105.75" y="-116.25" font-family="Helvetica,sans-Serif" font-size="10.00">algorithm</text>
</a>
</g>
</g>
<!-- Node1&#45;&gt;Node3 -->
<g id="edge2_Node000001_Node000003" class="edge">
<title>Node1&#45;&gt;Node3</title>
<g id="a_edge2_Node000001_Node000003"><a xlink:title=" ">
<path fill="none" stroke="#63b8ff" d="M105.75,-165.45C105.75,-158.21 105.75,-149.34 105.75,-141.44"/>
<polygon fill="#63b8ff" stroke="#63b8ff" points="109.25,-141.71 105.75,-131.71 102.25,-141.71 109.25,-141.71"/>
</a>
</g>
</g>
<!-- Node4 -->
<g id="Node000004" class="node">
<title>Node4</title>
<g id="a_Node000004"><a xlink:href="_texture_collage_8h.html" target="_top" xlink:title=" ">
<polygon fill="white" stroke="#666666" points="310,-129.75 151.5,-129.75 151.5,-110.5 310,-110.5 310,-129.75"/>
<text text-anchor="middle" x="230.75" y="-116.25" font-family="Helvetica,sans-Serif" font-size="10.00">sgui/Resources/TextureCollage.h</text>
</a>
</g>
</g>
<!-- Node1&#45;&gt;Node4 -->
<g id="edge3_Node000001_Node000004" class="edge">
<title>Node1&#45;&gt;Node4</title>
<g id="a_edge3_Node000001_Node000004"><a xlink:title=" ">
<path fill="none" stroke="#63b8ff" d="M136.97,-165.3C156.65,-156.03 181.9,-144.13 201.24,-135.02"/>
<polygon fill="#63b8ff" stroke="#63b8ff" points="202.66,-138.23 210.21,-130.8 199.67,-131.89 202.66,-138.23"/>
</a>
</g>
</g>
<!-- Node5 -->
<g id="Node000005" class="node">
<title>Node5</title>
<g id="a_Node000005"><a xlink:title=" ">
<polygon fill="#e0e0e0" stroke="#999999" points="219.75,-19.25 179.75,-19.25 179.75,0 219.75,0 219.75,-19.25"/>
<text text-anchor="middle" x="199.75" y="-5.75" font-family="Helvetica,sans-Serif" font-size="10.00">string</text>
</a>
</g>
</g>
<!-- Node4&#45;&gt;Node5 -->
<g id="edge4_Node000004_Node000005" class="edge">
<title>Node4&#45;&gt;Node5</title>
<g id="a_edge4_Node000004_Node000005"><a xlink:title=" ">
<path fill="none" stroke="#63b8ff" d="M201.97,-110.1C185.27,-103.21 165.64,-91.89 155.75,-74.5 146.01,-57.38 161.77,-38.96 177.07,-26.33"/>
<polygon fill="#63b8ff" stroke="#63b8ff" points="178.82,-29.4 184.62,-20.53 174.56,-23.84 178.82,-29.4"/>
</a>
</g>
</g>
<!-- Node6 -->
<g id="Node000006" class="node">
<title>Node6</title>
<g id="a_Node000006"><a xlink:title=" ">
<polygon fill="#e0e0e0" stroke="#999999" points="297.25,-74.5 164.25,-74.5 164.25,-55.25 297.25,-55.25 297.25,-74.5"/>
<text text-anchor="middle" x="230.75" y="-61" font-family="Helvetica,sans-Serif" font-size="10.00">SFML/Graphics/Image.hpp</text>
</a>
</g>
</g>
<!-- Node4&#45;&gt;Node6 -->
<g id="edge5_Node000004_Node000006" class="edge">
<title>Node4&#45;&gt;Node6</title>
<g id="a_edge5_Node000004_Node000006"><a xlink:title=" ">
<path fill="none" stroke="#63b8ff" d="M230.75,-110.33C230.75,-103.82 230.75,-94.67 230.75,-86.37"/>
<polygon fill="#63b8ff" stroke="#63b8ff" points="234.25,-86.37 230.75,-76.37 227.25,-86.37 234.25,-86.37"/>
</a>
</g>
</g>
<!-- Node7 -->
<g id="Node000007" class="node">
<title>Node7</title>
<g id="a_Node000007"><a xlink:href="_texture_atlas_8h.html" target="_top" xlink:title=" ">
<polygon fill="white" stroke="#666666" points="464.12,-74.5 315.38,-74.5 315.38,-55.25 464.12,-55.25 464.12,-74.5"/>
<text text-anchor="middle" x="389.75" y="-61" font-family="Helvetica,sans-Serif" font-size="10.00">sgui/Resources/TextureAtlas.h</text>
</a>
</g>
</g>
<!-- Node4&#45;&gt;Node7 -->
<g id="edge6_Node000004_Node000007" class="edge">
<title>Node4&#45;&gt;Node7</title>
<g id="a_edge6_Node000004_Node000007"><a xlink:title=" ">
<path fill="none" stroke="#63b8ff" d="M257.72,-110.09C283.65,-101.41 323.06,-88.21 352.08,-78.49"/>
<polygon fill="#63b8ff" stroke="#63b8ff" points="352.84,-81.93 361.21,-75.43 350.62,-75.29 352.84,-81.93"/>
</a>
</g>
</g>
<!-- Node7&#45;&gt;Node5 -->
<g id="edge7_Node000007_Node000005" class="edge">
<title>Node7&#45;&gt;Node5</title>
<g id="a_edge7_Node000007_Node000005"><a xlink:title=" ">
<path fill="none" stroke="#63b8ff" d="M357.52,-54.84C322.23,-44.95 266.02,-29.2 231.09,-19.41"/>
<polygon fill="#63b8ff" stroke="#63b8ff" points="232.15,-16.07 221.58,-16.74 230.26,-22.81 232.15,-16.07"/>
</a>
</g>
</g>
<!-- Node8 -->
<g id="Node000008" class="node">
<title>Node8</title>
<g id="a_Node000008"><a xlink:title=" ">
<polygon fill="#e0e0e0" stroke="#999999" points="304.38,-19.25 259.12,-19.25 259.12,0 304.38,0 304.38,-19.25"/>
<text text-anchor="middle" x="281.75" y="-5.75" font-family="Helvetica,sans-Serif" font-size="10.00">cstdint</text>
</a>
</g>
</g>
<!-- Node7&#45;&gt;Node8 -->
<g id="edge8_Node000007_Node000008" class="edge">
<title>Node7&#45;&gt;Node8</title>
<g id="a_edge8_Node000007_Node000008"><a xlink:title=" ">
<path fill="none" stroke="#63b8ff" d="M371.43,-54.84C354.67,-46.58 329.62,-34.23 310.25,-24.68"/>
<polygon fill="#63b8ff" stroke="#63b8ff" points="312.03,-21.65 301.52,-20.37 308.94,-27.93 312.03,-21.65"/>
</a>
</g>
</g>
<!-- Node9 -->
<g id="Node000009" class="node">
<title>Node9</title>
<g id="a_Node000009"><a xlink:title=" ">
<polygon fill="#e0e0e0" stroke="#999999" points="372.62,-19.25 322.88,-19.25 322.88,0 372.62,0 372.62,-19.25"/>
<text text-anchor="middle" x="347.75" y="-5.75" font-family="Helvetica,sans-Serif" font-size="10.00">optional</text>
</a>
</g>
</g>
<!-- Node7&#45;&gt;Node9 -->
<g id="edge9_Node000007_Node000009" class="edge">
<title>Node7&#45;&gt;Node9</title>
<g id="a_edge9_Node000007_Node000009"><a xlink:title=" ">
<path fill="none" stroke="#63b8ff" d="M382.81,-55.08C377.13,-47.88 368.91,-37.46 361.86,-28.51"/>
<polygon fill="#63b8ff" stroke="#63b8ff" points="364.71,-26.48 355.77,-20.8 359.22,-30.82 364.71,-26.48"/>
</a>
</g>
</g>
<!-- Node10 -->
<g id="Node000010" class="node">
<title>Node10</title>
<g id="a_Node000010"><a xlink:title=" ">
<polygon fill="#e0e0e0" stroke="#999999" points="473.12,-19.25 390.38,-19.25 390.38,0 473.12,0 473.12,-19.25"/>
<text text-anchor="middle" x="431.75" y="-5.75" font-family="Helvetica,sans-Serif" font-size="10.00">unordered_map</text>
</a>
</g>
</g>
<!-- Node7&#45;&gt;Node10 -->
<g id="edge10_Node000007_Node000010" class="edge">
<title>Node7&#45;&gt;Node10</title>
<g id="a_edge10_Node000007_Node000010"><a xlink:title=" ">
<path fill="none" stroke="#63b8ff" d="M396.69,-55.08C402.37,-47.88 410.59,-37.46 417.64,-28.51"/>
<polygon fill="#63b8ff" stroke="#63b8ff" points="420.28,-30.82 423.73,-20.8 414.79,-26.48 420.28,-30.82"/>
</a>
</g>
</g>
<!-- Node11 -->
<g id="Node000011" class="node">
<title>Node11</title>
<g id="a_Node000011"><a xlink:title=" ">
<polygon fill="#e0e0e0" stroke="#999999" points="617.88,-19.25 491.62,-19.25 491.62,0 617.88,0 617.88,-19.25"/>
<text text-anchor="middle" x="554.75" y="-5.75" font-family="Helvetica,sans-Serif" font-size="10.00">SFML/Graphics/Rect.hpp</text>
</a>
</g>
</g>
<!-- Node7&#45;&gt;Node11 -->
<g id="edge11_Node000007_Node000011" class="edge">
<title>Node7&#45;&gt;Node11</title>
<g id="a_edge11_Node000007_Node000011"><a xlink:title=" ">
<path fill="none" stroke="#63b8ff" d="M417.74,-54.84C444.76,-46.12 485.91,-32.84 516.06,-23.11"/>
<polygon fill="#63b8ff" stroke="#63b8ff" points="516.74,-26.57 525.18,-20.17 514.59,-19.91 516.74,-26.57"/>
</a>
</g>
</g>
</g>
</svg>
