<?xml version="1.0" encoding="UTF-8" standalone="no"?>
<!DOCTYPE svg PUBLIC "-//W3C//DTD SVG 1.1//EN"
 "http://www.w3.org/Graphics/SVG/1.1/DTD/svg11.dtd">
<!-- Generated by graphviz version 12.2.1 (20241206.2353)
 -->
<!-- Title: /github/workspace/src/sgui/Resources/TextureCollage.h Pages: 1 -->
<svg width="476pt" height="149pt"
 viewBox="0.00 0.00 475.88 149.00" xmlns="http://www.w3.org/2000/svg" xmlns:xlink="http://www.w3.org/1999/xlink">
<g id="graph0" class="graph" transform="scale(1 1) rotate(0) translate(4 145)">
<title>/github/workspace/src/sgui/Resources/TextureCollage.h</title>
<!-- Node1 -->
<g id="Node000001" class="node">
<title>Node1</title>
<g id="a_Node000001"><a xlink:title=" ">
<polygon fill="#999999" stroke="#666666" points="161.5,-141 0,-141 0,-110.5 161.5,-110.5 161.5,-141"/>
<text text-anchor="start" x="8" y="-127.5" font-family="Helvetica,sans-Serif" font-size="10.00">/github/workspace/src</text>
<text text-anchor="middle" x="80.75" y="-116.25" font-family="Helvetica,sans-Serif" font-size="10.00">/sgui/Resources/TextureCollage.h</text>
</a>
</g>
</g>
<!-- Node2 -->
<g id="Node000002" class="node">
<title>Node2</title>
<g id="a_Node000002"><a xlink:title=" ">
<polygon fill="#e0e0e0" stroke="#999999" points="69.75,-19.25 29.75,-19.25 29.75,0 69.75,0 69.75,-19.25"/>
<text text-anchor="middle" x="49.75" y="-5.75" font-family="Helvetica,sans-Serif" font-size="10.00">string</text>
</a>
</g>
</g>
<!-- Node1&#45;&gt;Node2 -->
<g id="edge1_Node000001_Node000002" class="edge">
<title>Node1&#45;&gt;Node2</title>
<g id="a_edge1_Node000001_Node000002"><a xlink:title=" ">
<path fill="none" stroke="#63b8ff" d="M44.89,-110.07C29.96,-101.95 14.16,-90.26 5.75,-74.5 -3.39,-57.38 11.7,-39.3 26.64,-26.76"/>
<polygon fill="#63b8ff" stroke="#63b8ff" points="28.75,-29.55 34.51,-20.65 24.46,-24.02 28.75,-29.55"/>
</a>
</g>
</g>
<!-- Node3 -->
<g id="Node000003" class="node">
<title>Node3</title>
<g id="a_Node000003"><a xlink:title=" ">
<polygon fill="#e0e0e0" stroke="#999999" points="147.25,-74.5 14.25,-74.5 14.25,-55.25 147.25,-55.25 147.25,-74.5"/>
<text text-anchor="middle" x="80.75" y="-61" font-family="Helvetica,sans-Serif" font-size="10.00">SFML/Graphics/Image.hpp</text>
</a>
</g>
</g>
<!-- Node1&#45;&gt;Node3 -->
<g id="edge2_Node000001_Node000003" class="edge">
<title>Node1&#45;&gt;Node3</title>
<g id="a_edge2_Node000001_Node000003"><a xlink:title=" ">
<path fill="none" stroke="#63b8ff" d="M80.75,-110.2C80.75,-102.96 80.75,-94.09 80.75,-86.19"/>
<polygon fill="#63b8ff" stroke="#63b8ff" points="84.25,-86.46 80.75,-76.46 77.25,-86.46 84.25,-86.46"/>
</a>
</g>
</g>
<!-- Node4 -->
<g id="Node000004" class="node">
<title>Node4</title>
<g id="a_Node000004"><a xlink:href="_texture_atlas_8h.html" target="_top" xlink:title=" ">
<polygon fill="white" stroke="#666666" points="314.12,-74.5 165.38,-74.5 165.38,-55.25 314.12,-55.25 314.12,-74.5"/>
<text text-anchor="middle" x="239.75" y="-61" font-family="Helvetica,sans-Serif" font-size="10.00">sgui/Resources/TextureAtlas.h</text>
</a>
</g>
</g>
<!-- Node1&#45;&gt;Node4 -->
<g id="edge3_Node000001_Node000004" class="edge">
<title>Node1&#45;&gt;Node4</title>
<g id="a_edge3_Node000001_Node000004"><a xlink:title=" ">
<path fill="none" stroke="#63b8ff" d="M120.46,-110.05C146.31,-100.48 179.71,-88.11 204.59,-78.89"/>
<polygon fill="#63b8ff" stroke="#63b8ff" points="205.78,-82.18 213.95,-75.43 203.35,-75.62 205.78,-82.18"/>
</a>
</g>
</g>
<!-- Node4&#45;&gt;Node2 -->
<g id="edge4_Node000004_Node000002" class="edge">
<title>Node4&#45;&gt;Node2</title>
<g id="a_edge4_Node000004_Node000002"><a xlink:title=" ">
<path fill="none" stroke="#63b8ff" d="M207.52,-54.84C172.23,-44.95 116.02,-29.2 81.09,-19.41"/>
<polygon fill="#63b8ff" stroke="#63b8ff" points="82.15,-16.07 71.58,-16.74 80.26,-22.81 82.15,-16.07"/>
</a>
</g>
</g>
<!-- Node5 -->
<g id="Node000005" class="node">
<title>Node5</title>
<g id="a_Node000005"><a xlink:title=" ">
<polygon fill="#e0e0e0" stroke="#999999" points="154.38,-19.25 109.12,-19.25 109.12,0 154.38,0 154.38,-19.25"/>
<text text-anchor="middle" x="131.75" y="-5.75" font-family="Helvetica,sans-Serif" font-size="10.00">cstdint</text>
</a>
</g>
</g>
<!-- Node4&#45;&gt;Node5 -->
<g id="edge5_Node000004_Node000005" class="edge">
<title>Node4&#45;&gt;Node5</title>
<g id="a_edge5_Node000004_Node000005"><a xlink:title=" ">
<path fill="none" stroke="#63b8ff" d="M221.43,-54.84C204.67,-46.58 179.62,-34.23 160.25,-24.68"/>
<polygon fill="#63b8ff" stroke="#63b8ff" points="162.03,-21.65 151.52,-20.37 158.94,-27.93 162.03,-21.65"/>
</a>
</g>
</g>
<!-- Node6 -->
<g id="Node000006" class="node">
<title>Node6</title>
<g id="a_Node000006"><a xlink:title=" ">
<polygon fill="#e0e0e0" stroke="#999999" points="222.62,-19.25 172.88,-19.25 172.88,0 222.62,0 222.62,-19.25"/>
<text text-anchor="middle" x="197.75" y="-5.75" font-family="Helvetica,sans-Serif" font-size="10.00">optional</text>
</a>
</g>
</g>
<!-- Node4&#45;&gt;Node6 -->
<g id="edge6_Node000004_Node000006" class="edge">
<title>Node4&#45;&gt;Node6</title>
<g id="a_edge6_Node000004_Node000006"><a xlink:title=" ">
<path fill="none" stroke="#63b8ff" d="M232.81,-55.08C227.13,-47.88 218.91,-37.46 211.86,-28.51"/>
<polygon fill="#63b8ff" stroke="#63b8ff" points="214.71,-26.48 205.77,-20.8 209.22,-30.82 214.71,-26.48"/>
</a>
</g>
</g>
<!-- Node7 -->
<g id="Node000007" class="node">
<title>Node7</title>
<g id="a_Node000007"><a xlink:title=" ">
<polygon fill="#e0e0e0" stroke="#999999" points="323.12,-19.25 240.38,-19.25 240.38,0 323.12,0 323.12,-19.25"/>
<text text-anchor="middle" x="281.75" y="-5.75" font-family="Helvetica,sans-Serif" font-size="10.00">unordered_map</text>
</a>
</g>
</g>
<!-- Node4&#45;&gt;Node7 -->
<g id="edge7_Node000004_Node000007" class="edge">
<title>Node4&#45;&gt;Node7</title>
<g id="a_edge7_Node000004_Node000007"><a xlink:title=" ">
<path fill="none" stroke="#63b8ff" d="M246.69,-55.08C252.37,-47.88 260.59,-37.46 267.64,-28.51"/>
<polygon fill="#63b8ff" stroke="#63b8ff" points="270.28,-30.82 273.73,-20.8 264.79,-26.48 270.28,-30.82"/>
</a>
</g>
</g>
<!-- Node8 -->
<g id="Node000008" class="node">
<title>Node8</title>
<g id="a_Node000008"><a xlink:title=" ">
<polygon fill="#e0e0e0" stroke="#999999" points="467.88,-19.25 341.62,-19.25 341.62,0 467.88,0 467.88,-19.25"/>
<text text-anchor="middle" x="404.75" y="-5.75" font-family="Helvetica,sans-Serif" font-size="10.00">SFML/Graphics/Rect.hpp</text>
</a>
</g>
</g>
<!-- Node4&#45;&gt;Node8 -->
<g id="edge8_Node000004_Node000008" class="edge">
<title>Node4&#45;&gt;Node8</title>
<g id="a_edge8_Node000004_Node000008"><a xlink:title=" ">
<path fill="none" stroke="#63b8ff" d="M267.74,-54.84C294.76,-46.12 335.91,-32.84 366.06,-23.11"/>
<polygon fill="#63b8ff" stroke="#63b8ff" points="366.74,-26.57 375.18,-20.17 364.59,-19.91 366.74,-26.57"/>
</a>
</g>
</g>
</g>
</svg>
