<?xml version="1.0" encoding="UTF-8" standalone="no"?>
<!DOCTYPE svg PUBLIC "-//W3C//DTD SVG 1.1//EN"
 "http://www.w3.org/Graphics/SVG/1.1/DTD/svg11.dtd">
<!-- Generated by graphviz version 12.2.1 (20241206.2353)
 -->
<!-- Title: sgui::GuiRender Pages: 1 -->
<svg width="186pt" height="83pt"
 viewBox="0.00 0.00 186.12 82.50" xmlns="http://www.w3.org/2000/svg" xmlns:xlink="http://www.w3.org/1999/xlink">
<g id="graph0" class="graph" transform="scale(1 1) rotate(0) translate(4 78.5)">
<title>sgui::GuiRender</title>
<!-- Node1 -->
<g id="Node000001" class="node">
<title>Node1</title>
<g id="a_Node000001"><a xlink:title="Handle rendering for the gui.">
<polygon fill="#999999" stroke="#666666" points="125.75,-19.25 41.5,-19.25 41.5,0 125.75,0 125.75,-19.25"/>
<text text-anchor="middle" x="83.62" y="-5.75" font-family="Helvetica,sans-Serif" font-size="10.00">sgui::GuiRender</text>
</a>
</g>
</g>
<!-- Node2 -->
<g id="Node000002" class="node">
<title>Node2</title>
<g id="a_Node000002"><a xlink:title=" ">
<polygon fill="white" stroke="#666666" points="69.25,-74.5 0,-74.5 0,-55.25 69.25,-55.25 69.25,-74.5"/>
<text text-anchor="middle" x="34.62" y="-61" font-family="Helvetica,sans-Serif" font-size="10.00">sf::Drawable</text>
</a>
</g>
</g>
<!-- Node2&#45;&gt;Node1 -->
<g id="edge1_Node000001_Node000002" class="edge">
<title>Node2&#45;&gt;Node1</title>
<g id="a_edge1_Node000001_Node000002"><a xlink:title=" ">
<path fill="none" stroke="#63b8ff" d="M50.34,-46.79C58.66,-37.75 68.54,-27.02 75.36,-19.61"/>
<polygon fill="#63b8ff" stroke="#63b8ff" points="47.94,-44.24 43.74,-53.97 53.09,-48.98 47.94,-44.24"/>
</a>
</g>
</g>
<!-- Node3 -->
<g id="Node000003" class="node">
<title>Node3</title>
<g id="a_Node000003"><a xlink:title=" ">
<polygon fill="white" stroke="#666666" points="178.12,-74.5 87.12,-74.5 87.12,-55.25 178.12,-55.25 178.12,-74.5"/>
<text text-anchor="middle" x="132.62" y="-61" font-family="Helvetica,sans-Serif" font-size="10.00">sf::Transformable</text>
</a>
</g>
</g>
<!-- Node3&#45;&gt;Node1 -->
<g id="edge2_Node000001_Node000003" class="edge">
<title>Node3&#45;&gt;Node1</title>
<g id="a_edge2_Node000001_Node000003"><a xlink:title=" ">
<path fill="none" stroke="#63b8ff" d="M116.91,-46.79C108.59,-37.75 98.71,-27.02 91.89,-19.61"/>
<polygon fill="#63b8ff" stroke="#63b8ff" points="114.16,-48.98 123.51,-53.97 119.31,-44.24 114.16,-48.98"/>
</a>
</g>
</g>
</g>
</svg>
