<?xml version="1.0" encoding="UTF-8" standalone="no"?>
<!DOCTYPE svg PUBLIC "-//W3C//DTD SVG 1.1//EN"
 "http://www.w3.org/Graphics/SVG/1.1/DTD/svg11.dtd">
<!-- Generated by graphviz version 12.2.1 (20241206.2353)
 -->
<!-- Title: /github/workspace/src/sgui Pages: 1 -->
<svg width="224pt" height="316pt"
 viewBox="0.00 0.00 224.00 315.50" xmlns="http://www.w3.org/2000/svg" xmlns:xlink="http://www.w3.org/1999/xlink">
<g id="graph0" class="graph" transform="scale(1 1) rotate(0) translate(4 311.5)">
<title>/github/workspace/src/sgui</title>
<g id="clust1" class="cluster">
<title>clusterdir_68267d1309a1af8e8297ef4c3efbcdba</title>
<g id="a_clust1"><a xlink:href="dir_68267d1309a1af8e8297ef4c3efbcdba.html" target="_top" xlink:title="src">
<polygon fill="#daedff" stroke="#404040" stroke-dasharray="5,2" points="8,-8 8,-299.5 208,-299.5 208,-8 8,-8"/>
<text text-anchor="middle" x="108" y="-286" font-family="Helvetica,sans-Serif" font-size="10.00">src</text>
</a>
</g>
</g>
<g id="clust2" class="cluster">
<title>clusterdir_802669d86a09d692f423ad15444f4210</title>
<g id="a_clust2"><a xlink:href="dir_802669d86a09d692f423ad15444f4210.html" target="_top">
<polygon fill="#daedff" stroke="#404040" stroke-width="2" points="16,-16 16,-272.25 200,-272.25 200,-16 16,-16"/>
</a>
</g>
</g>
<!-- dir_802669d86a09d692f423ad15444f4210 -->
<g id="node1" class="node">
<title>dir_802669d86a09d692f423ad15444f4210</title>
<text text-anchor="middle" x="97" y="-250.75" font-family="Helvetica,sans-Serif" font-size="10.00">sgui</text>
</g>
<!-- dir_192f27c06696059490b8ed376012eed2 -->
<g id="node2" class="node">
<title>dir_192f27c06696059490b8ed376012eed2</title>
<g id="a_node2"><a xlink:href="dir_192f27c06696059490b8ed376012eed2.html" target="_top" xlink:title="Core">
<polygon fill="#4ea9ff" stroke="#404040" points="63.12,-43.25 26.88,-43.25 26.88,-24 63.12,-24 63.12,-43.25"/>
<text text-anchor="middle" x="45" y="-29.75" font-family="Helvetica,sans-Serif" font-size="10.00">Core</text>
</a>
</g>
</g>
<!-- dir_802669d86a09d692f423ad15444f4210&#45;&gt;dir_192f27c06696059490b8ed376012eed2 -->
<g id="edge2" class="edge">
<title>dir_802669d86a09d692f423ad15444f4210&#45;&gt;dir_192f27c06696059490b8ed376012eed2</title>
<g id="a_edge2"><a xlink:href="dir_000004_000000.html" target="_top">
<path fill="none" stroke="#63b8ff" d="M80.67,-245.12C68.05,-237.53 51.51,-225.14 44,-209 20.11,-157.64 31.67,-88.21 39.63,-54.56"/>
<polygon fill="#63b8ff" stroke="#63b8ff" points="42.99,-55.55 42.05,-44.99 36.2,-53.83 42.99,-55.55"/>
</a>
</g>
<g id="a_edge2&#45;headlabel"><a xlink:href="dir_000004_000000.html" target="_top" xlink:title="9">
<text text-anchor="middle" x="45.23" y="-54.39" font-family="Helvetica,sans-Serif" font-size="10.00" fill="#63b8ff">9</text>
</a>
</g>
</g>
<!-- dir_c9b371ffe1bb5d8bb2c84dbe3295c730 -->
<g id="node3" class="node">
<title>dir_c9b371ffe1bb5d8bb2c84dbe3295c730</title>
<g id="a_node3"><a xlink:href="dir_c9b371ffe1bb5d8bb2c84dbe3295c730.html" target="_top" xlink:title="Render">
<polygon fill="#4ea9ff" stroke="#404040" points="99.38,-209 52.62,-209 52.62,-189.75 99.38,-189.75 99.38,-209"/>
<text text-anchor="middle" x="76" y="-195.5" font-family="Helvetica,sans-Serif" font-size="10.00">Render</text>
</a>
</g>
</g>
<!-- dir_802669d86a09d692f423ad15444f4210&#45;&gt;dir_c9b371ffe1bb5d8bb2c84dbe3295c730 -->
<g id="edge4" class="edge">
<title>dir_802669d86a09d692f423ad15444f4210&#45;&gt;dir_c9b371ffe1bb5d8bb2c84dbe3295c730</title>
<g id="a_edge4"><a xlink:href="dir_000004_000001.html" target="_top">
<path fill="none" stroke="#63b8ff" d="M93.72,-245.3C91.02,-238.47 87.1,-228.52 83.63,-219.72"/>
<polygon fill="#63b8ff" stroke="#63b8ff" points="86.95,-218.59 80.02,-210.58 80.44,-221.16 86.95,-218.59"/>
</a>
</g>
<g id="a_edge4&#45;headlabel"><a xlink:href="dir_000004_000001.html" target="_top" xlink:title="3">
<text text-anchor="middle" x="90.35" y="-215.61" font-family="Helvetica,sans-Serif" font-size="10.00" fill="#63b8ff">3</text>
</a>
</g>
</g>
<!-- dir_668b4af8e996aac2de436b71d9910aa6 -->
<g id="node4" class="node">
<title>dir_668b4af8e996aac2de436b71d9910aa6</title>
<g id="a_node4"><a xlink:href="dir_668b4af8e996aac2de436b71d9910aa6.html" target="_top" xlink:title="Resources">
<polygon fill="#4ea9ff" stroke="#404040" points="149.25,-153.75 86.75,-153.75 86.75,-134.5 149.25,-134.5 149.25,-153.75"/>
<text text-anchor="middle" x="118" y="-140.25" font-family="Helvetica,sans-Serif" font-size="10.00">Resources</text>
</a>
</g>
</g>
<!-- dir_802669d86a09d692f423ad15444f4210&#45;&gt;dir_668b4af8e996aac2de436b71d9910aa6 -->
<g id="edge3" class="edge">
<title>dir_802669d86a09d692f423ad15444f4210&#45;&gt;dir_668b4af8e996aac2de436b71d9910aa6</title>
<g id="a_edge3"><a xlink:href="dir_000004_000002.html" target="_top">
<path fill="none" stroke="#63b8ff" d="M99.33,-245.12C101.72,-236.18 105.45,-221.67 108,-209 110.95,-194.31 113.55,-177.57 115.35,-164.91"/>
<polygon fill="#63b8ff" stroke="#63b8ff" points="118.77,-165.73 116.67,-155.35 111.84,-164.77 118.77,-165.73"/>
</a>
</g>
<g id="a_edge3&#45;headlabel"><a xlink:href="dir_000004_000002.html" target="_top" xlink:title="14">
<text text-anchor="middle" x="121.3" y="-164.3" font-family="Helvetica,sans-Serif" font-size="10.00" fill="#63b8ff">14</text>
</a>
</g>
</g>
<!-- dir_0f7010bffa885d45b6abbb18e1a85448 -->
<g id="node6" class="node">
<title>dir_0f7010bffa885d45b6abbb18e1a85448</title>
<g id="a_node6"><a xlink:href="dir_0f7010bffa885d45b6abbb18e1a85448.html" target="_top" xlink:title="Widgets">
<polygon fill="#4ea9ff" stroke="#404040" points="183.62,-43.25 132.38,-43.25 132.38,-24 183.62,-24 183.62,-43.25"/>
<text text-anchor="middle" x="158" y="-29.75" font-family="Helvetica,sans-Serif" font-size="10.00">Widgets</text>
</a>
</g>
</g>
<!-- dir_802669d86a09d692f423ad15444f4210&#45;&gt;dir_0f7010bffa885d45b6abbb18e1a85448 -->
<g id="edge1" class="edge">
<title>dir_802669d86a09d692f423ad15444f4210&#45;&gt;dir_0f7010bffa885d45b6abbb18e1a85448</title>
<g id="a_edge1"><a xlink:href="dir_000004_000006.html" target="_top">
<path fill="none" stroke="#63b8ff" d="M105.19,-245.13C120.3,-228.89 152.35,-191.67 167,-153.75 178.98,-122.73 179.7,-112.02 174,-79.25 172.52,-70.74 169.57,-61.71 166.59,-54.02"/>
<polygon fill="#63b8ff" stroke="#63b8ff" points="169.92,-52.89 162.84,-45 163.45,-55.58 169.92,-52.89"/>
</a>
</g>
<g id="a_edge1&#45;headlabel"><a xlink:href="dir_000004_000006.html" target="_top" xlink:title="7">
<text text-anchor="middle" x="173.34" y="-49.84" font-family="Helvetica,sans-Serif" font-size="10.00" fill="#63b8ff">7</text>
</a>
</g>
</g>
<!-- dir_c9b371ffe1bb5d8bb2c84dbe3295c730&#45;&gt;dir_192f27c06696059490b8ed376012eed2 -->
<g id="edge6" class="edge">
<title>dir_c9b371ffe1bb5d8bb2c84dbe3295c730&#45;&gt;dir_192f27c06696059490b8ed376012eed2</title>
<g id="a_edge6"><a xlink:href="dir_000001_000000.html" target="_top">
<path fill="none" stroke="#63b8ff" d="M73.93,-189.32C69.97,-171.82 61.16,-132.14 55,-98.5 52.33,-83.93 49.75,-67.4 47.89,-54.81"/>
<polygon fill="#63b8ff" stroke="#63b8ff" points="51.4,-54.64 46.49,-45.24 44.47,-55.64 51.4,-54.64"/>
</a>
</g>
<g id="a_edge6&#45;headlabel"><a xlink:href="dir_000001_000000.html" target="_top" xlink:title="4">
<text text-anchor="middle" x="54.51" y="-52.41" font-family="Helvetica,sans-Serif" font-size="10.00" fill="#63b8ff">4</text>
</a>
</g>
</g>
<!-- dir_c9b371ffe1bb5d8bb2c84dbe3295c730&#45;&gt;dir_668b4af8e996aac2de436b71d9910aa6 -->
<g id="edge8" class="edge">
<title>dir_c9b371ffe1bb5d8bb2c84dbe3295c730&#45;&gt;dir_668b4af8e996aac2de436b71d9910aa6</title>
<g id="a_edge8"><a xlink:href="dir_000001_000002.html" target="_top">
<path fill="none" stroke="#63b8ff" d="M82.94,-189.58C88.62,-182.38 96.84,-171.96 103.89,-163.01"/>
<polygon fill="#63b8ff" stroke="#63b8ff" points="106.53,-165.32 109.98,-155.3 101.04,-160.98 106.53,-165.32"/>
</a>
</g>
<g id="a_edge8&#45;headlabel"><a xlink:href="dir_000001_000002.html" target="_top" xlink:title="2">
<text text-anchor="middle" x="107.47" y="-164.83" font-family="Helvetica,sans-Serif" font-size="10.00" fill="#63b8ff">2</text>
</a>
</g>
</g>
<!-- dir_438b27afc7c9416aca39677d6327d4e6 -->
<g id="node5" class="node">
<title>dir_438b27afc7c9416aca39677d6327d4e6</title>
<g id="a_node5"><a xlink:href="dir_438b27afc7c9416aca39677d6327d4e6.html" target="_top" xlink:title="Serialization">
<polygon fill="#4ea9ff" stroke="#404040" points="132.25,-98.5 63.75,-98.5 63.75,-79.25 132.25,-79.25 132.25,-98.5"/>
<text text-anchor="middle" x="98" y="-85" font-family="Helvetica,sans-Serif" font-size="10.00">Serialization</text>
</a>
</g>
</g>
<!-- dir_c9b371ffe1bb5d8bb2c84dbe3295c730&#45;&gt;dir_438b27afc7c9416aca39677d6327d4e6 -->
<g id="edge7" class="edge">
<title>dir_c9b371ffe1bb5d8bb2c84dbe3295c730&#45;&gt;dir_438b27afc7c9416aca39677d6327d4e6</title>
<g id="a_edge7"><a xlink:href="dir_000001_000003.html" target="_top">
<path fill="none" stroke="#63b8ff" d="M75.21,-189.56C74.33,-177.11 73.57,-153.75 78,-134.5 80.02,-125.72 83.81,-116.55 87.54,-108.82"/>
<polygon fill="#63b8ff" stroke="#63b8ff" points="90.58,-110.57 92.08,-100.08 84.36,-107.35 90.58,-110.57"/>
</a>
</g>
<g id="a_edge7&#45;headlabel"><a xlink:href="dir_000001_000003.html" target="_top" xlink:title="1">
<text text-anchor="middle" x="92.14" y="-109.85" font-family="Helvetica,sans-Serif" font-size="10.00" fill="#63b8ff">1</text>
</a>
</g>
</g>
<!-- dir_c9b371ffe1bb5d8bb2c84dbe3295c730&#45;&gt;dir_0f7010bffa885d45b6abbb18e1a85448 -->
<g id="edge5" class="edge">
<title>dir_c9b371ffe1bb5d8bb2c84dbe3295c730&#45;&gt;dir_0f7010bffa885d45b6abbb18e1a85448</title>
<g id="a_edge5"><a xlink:href="dir_000001_000006.html" target="_top">
<path fill="none" stroke="#63b8ff" d="M99.76,-192.63C119.21,-186.53 145.5,-174.79 158,-153.75 176.26,-123.03 169.87,-79.5 163.78,-54.46"/>
<polygon fill="#63b8ff" stroke="#63b8ff" points="167.21,-53.71 161.24,-44.96 160.45,-55.52 167.21,-53.71"/>
</a>
</g>
<g id="a_edge5&#45;headlabel"><a xlink:href="dir_000001_000006.html" target="_top" xlink:title="2">
<text text-anchor="middle" x="170.49" y="-51.11" font-family="Helvetica,sans-Serif" font-size="10.00" fill="#63b8ff">2</text>
</a>
</g>
</g>
<!-- dir_668b4af8e996aac2de436b71d9910aa6&#45;&gt;dir_438b27afc7c9416aca39677d6327d4e6 -->
<g id="edge10" class="edge">
<title>dir_668b4af8e996aac2de436b71d9910aa6&#45;&gt;dir_438b27afc7c9416aca39677d6327d4e6</title>
<g id="a_edge10"><a xlink:href="dir_000002_000003.html" target="_top">
<path fill="none" stroke="#63b8ff" d="M109.53,-134.33C105.6,-127.67 101.6,-118.24 98.92,-109.78"/>
<polygon fill="#63b8ff" stroke="#63b8ff" points="102.38,-109.17 96.54,-100.33 95.59,-110.88 102.38,-109.17"/>
</a>
</g>
<g id="a_edge10&#45;headlabel"><a xlink:href="dir_000002_000003.html" target="_top" xlink:title="3">
<text text-anchor="middle" x="105.64" y="-106.62" font-family="Helvetica,sans-Serif" font-size="10.00" fill="#63b8ff">3</text>
</a>
</g>
</g>
<!-- dir_668b4af8e996aac2de436b71d9910aa6&#45;&gt;dir_0f7010bffa885d45b6abbb18e1a85448 -->
<g id="edge9" class="edge">
<title>dir_668b4af8e996aac2de436b71d9910aa6&#45;&gt;dir_0f7010bffa885d45b6abbb18e1a85448</title>
<g id="a_edge9"><a xlink:href="dir_000002_000006.html" target="_top">
<path fill="none" stroke="#63b8ff" d="M123.35,-134.16C128.45,-125.34 136.05,-111.35 141,-98.5 146.51,-84.21 150.9,-67.45 153.83,-54.69"/>
<polygon fill="#63b8ff" stroke="#63b8ff" points="157.24,-55.49 155.95,-44.97 150.4,-54 157.24,-55.49"/>
</a>
</g>
<g id="a_edge9&#45;headlabel"><a xlink:href="dir_000002_000006.html" target="_top" xlink:title="2">
<text text-anchor="middle" x="159.57" y="-54.25" font-family="Helvetica,sans-Serif" font-size="10.00" fill="#63b8ff">2</text>
</a>
</g>
</g>
<!-- dir_438b27afc7c9416aca39677d6327d4e6&#45;&gt;dir_192f27c06696059490b8ed376012eed2 -->
<g id="edge12" class="edge">
<title>dir_438b27afc7c9416aca39677d6327d4e6&#45;&gt;dir_192f27c06696059490b8ed376012eed2</title>
<g id="a_edge12"><a xlink:href="dir_000003_000000.html" target="_top">
<path fill="none" stroke="#63b8ff" d="M89.25,-79.08C81.85,-71.65 71.04,-60.79 61.95,-51.66"/>
<polygon fill="#63b8ff" stroke="#63b8ff" points="64.54,-49.3 55.01,-44.68 59.58,-54.24 64.54,-49.3"/>
</a>
</g>
<g id="a_edge12&#45;headlabel"><a xlink:href="dir_000003_000000.html" target="_top" xlink:title="1">
<text text-anchor="middle" x="68.03" y="-44.9" font-family="Helvetica,sans-Serif" font-size="10.00" fill="#63b8ff">1</text>
</a>
</g>
</g>
<!-- dir_438b27afc7c9416aca39677d6327d4e6&#45;&gt;dir_668b4af8e996aac2de436b71d9910aa6 -->
<g id="edge13" class="edge">
<title>dir_438b27afc7c9416aca39677d6327d4e6&#45;&gt;dir_668b4af8e996aac2de436b71d9910aa6</title>
<g id="a_edge13"><a xlink:href="dir_000003_000002.html" target="_top">
<path fill="none" stroke="#63b8ff" d="M106.58,-98.86C110.47,-105.5 114.41,-114.8 117.06,-123.17"/>
<polygon fill="#63b8ff" stroke="#63b8ff" points="113.67,-124.02 119.5,-132.86 120.46,-122.31 113.67,-124.02"/>
</a>
</g>
<g id="a_edge13&#45;headlabel"><a xlink:href="dir_000003_000002.html" target="_top" xlink:title="4">
<text text-anchor="middle" x="110.41" y="-118.81" font-family="Helvetica,sans-Serif" font-size="10.00" fill="#63b8ff">4</text>
</a>
</g>
</g>
<!-- dir_438b27afc7c9416aca39677d6327d4e6&#45;&gt;dir_0f7010bffa885d45b6abbb18e1a85448 -->
<g id="edge11" class="edge">
<title>dir_438b27afc7c9416aca39677d6327d4e6&#45;&gt;dir_0f7010bffa885d45b6abbb18e1a85448</title>
<g id="a_edge11"><a xlink:href="dir_000003_000006.html" target="_top">
<path fill="none" stroke="#63b8ff" d="M108.18,-78.84C116.76,-71.22 129.27,-60.12 139.6,-50.95"/>
<polygon fill="#63b8ff" stroke="#63b8ff" points="141.68,-53.79 146.84,-44.53 137.04,-48.55 141.68,-53.79"/>
</a>
</g>
<g id="a_edge11&#45;headlabel"><a xlink:href="dir_000003_000006.html" target="_top" xlink:title="1">
<text text-anchor="middle" x="142.01" y="-53.41" font-family="Helvetica,sans-Serif" font-size="10.00" fill="#63b8ff">1</text>
</a>
</g>
</g>
</g>
</svg>
