<?xml version="1.0" encoding="UTF-8" standalone="no"?>
<!DOCTYPE svg PUBLIC "-//W3C//DTD SVG 1.1//EN"
 "http://www.w3.org/Graphics/SVG/1.1/DTD/svg11.dtd">
<!-- Generated by graphviz version 12.2.1 (20241206.2353)
 -->
<!-- Title: /github/workspace/src/sgui Pages: 1 -->
<svg width="234pt" height="316pt"
 viewBox="0.00 0.00 234.00 315.50" xmlns="http://www.w3.org/2000/svg" xmlns:xlink="http://www.w3.org/1999/xlink">
<g id="graph0" class="graph" transform="scale(1 1) rotate(0) translate(4 311.5)">
<title>/github/workspace/src/sgui</title>
<g id="clust1" class="cluster">
<title>clusterdir_68267d1309a1af8e8297ef4c3efbcdba</title>
<g id="a_clust1"><a xlink:href="dir_68267d1309a1af8e8297ef4c3efbcdba.html" target="_top" xlink:title="src">
<polygon fill="#daedff" stroke="#404040" stroke-dasharray="5,2" points="8,-8 8,-299.5 218,-299.5 218,-8 8,-8"/>
<text text-anchor="middle" x="113" y="-286" font-family="Helvetica,sans-Serif" font-size="10.00">src</text>
</a>
</g>
</g>
<g id="clust2" class="cluster">
<title>clusterdir_802669d86a09d692f423ad15444f4210</title>
<g id="a_clust2"><a xlink:href="dir_802669d86a09d692f423ad15444f4210.html" target="_top">
<polygon fill="#daedff" stroke="#404040" stroke-width="2" points="16,-16 16,-272.25 210,-272.25 210,-16 16,-16"/>
</a>
</g>
</g>
<!-- dir_802669d86a09d692f423ad15444f4210 -->
<g id="node1" class="node">
<title>dir_802669d86a09d692f423ad15444f4210</title>
<text text-anchor="middle" x="94" y="-250.75" font-family="Helvetica,sans-Serif" font-size="10.00">sgui</text>
</g>
<!-- dir_192f27c06696059490b8ed376012eed2 -->
<g id="node2" class="node">
<title>dir_192f27c06696059490b8ed376012eed2</title>
<g id="a_node2"><a xlink:href="dir_192f27c06696059490b8ed376012eed2.html" target="_top" xlink:title="Core">
<polygon fill="#4ea9ff" stroke="#404040" points="63.12,-43.25 26.88,-43.25 26.88,-24 63.12,-24 63.12,-43.25"/>
<text text-anchor="middle" x="45" y="-29.75" font-family="Helvetica,sans-Serif" font-size="10.00">Core</text>
</a>
</g>
</g>
<!-- dir_802669d86a09d692f423ad15444f4210&#45;&gt;dir_192f27c06696059490b8ed376012eed2 -->
<g id="edge2" class="edge">
<title>dir_802669d86a09d692f423ad15444f4210&#45;&gt;dir_192f27c06696059490b8ed376012eed2</title>
<g id="a_edge2"><a xlink:href="dir_000004_000000.html" target="_top">
<path fill="none" stroke="#63b8ff" d="M77.67,-245.12C65.05,-237.53 48.51,-225.14 41,-209 17.1,-157.63 30.27,-88.21 39.09,-54.56"/>
<polygon fill="#63b8ff" stroke="#63b8ff" points="42.45,-55.56 41.77,-44.98 35.71,-53.67 42.45,-55.56"/>
</a>
</g>
<g id="a_edge2&#45;headlabel"><a xlink:href="dir_000004_000000.html" target="_top" xlink:title="7">
<text text-anchor="middle" x="44.62" y="-54.45" font-family="Helvetica,sans-Serif" font-size="10.00" fill="#63b8ff">7</text>
</a>
</g>
</g>
<!-- dir_c9b371ffe1bb5d8bb2c84dbe3295c730 -->
<g id="node3" class="node">
<title>dir_c9b371ffe1bb5d8bb2c84dbe3295c730</title>
<g id="a_node3"><a xlink:href="dir_c9b371ffe1bb5d8bb2c84dbe3295c730.html" target="_top" xlink:title="Render">
<polygon fill="#4ea9ff" stroke="#404040" points="96.38,-209 49.62,-209 49.62,-189.75 96.38,-189.75 96.38,-209"/>
<text text-anchor="middle" x="73" y="-195.5" font-family="Helvetica,sans-Serif" font-size="10.00">Render</text>
</a>
</g>
</g>
<!-- dir_802669d86a09d692f423ad15444f4210&#45;&gt;dir_c9b371ffe1bb5d8bb2c84dbe3295c730 -->
<g id="edge4" class="edge">
<title>dir_802669d86a09d692f423ad15444f4210&#45;&gt;dir_c9b371ffe1bb5d8bb2c84dbe3295c730</title>
<g id="a_edge4"><a xlink:href="dir_000004_000001.html" target="_top">
<path fill="none" stroke="#63b8ff" d="M90.72,-245.3C88.02,-238.47 84.1,-228.52 80.63,-219.72"/>
<polygon fill="#63b8ff" stroke="#63b8ff" points="83.95,-218.59 77.02,-210.58 77.44,-221.16 83.95,-218.59"/>
</a>
</g>
<g id="a_edge4&#45;headlabel"><a xlink:href="dir_000004_000001.html" target="_top" xlink:title="2">
<text text-anchor="middle" x="87.35" y="-215.61" font-family="Helvetica,sans-Serif" font-size="10.00" fill="#63b8ff">2</text>
</a>
</g>
</g>
<!-- dir_668b4af8e996aac2de436b71d9910aa6 -->
<g id="node4" class="node">
<title>dir_668b4af8e996aac2de436b71d9910aa6</title>
<g id="a_node4"><a xlink:href="dir_668b4af8e996aac2de436b71d9910aa6.html" target="_top" xlink:title="Resources">
<polygon fill="#4ea9ff" stroke="#404040" points="146.25,-153.75 83.75,-153.75 83.75,-134.5 146.25,-134.5 146.25,-153.75"/>
<text text-anchor="middle" x="115" y="-140.25" font-family="Helvetica,sans-Serif" font-size="10.00">Resources</text>
</a>
</g>
</g>
<!-- dir_802669d86a09d692f423ad15444f4210&#45;&gt;dir_668b4af8e996aac2de436b71d9910aa6 -->
<g id="edge3" class="edge">
<title>dir_802669d86a09d692f423ad15444f4210&#45;&gt;dir_668b4af8e996aac2de436b71d9910aa6</title>
<g id="a_edge3"><a xlink:href="dir_000004_000002.html" target="_top">
<path fill="none" stroke="#63b8ff" d="M96.33,-245.12C98.72,-236.18 102.45,-221.67 105,-209 107.95,-194.31 110.55,-177.57 112.35,-164.91"/>
<polygon fill="#63b8ff" stroke="#63b8ff" points="115.77,-165.73 113.67,-155.35 108.84,-164.77 115.77,-165.73"/>
</a>
</g>
<g id="a_edge3&#45;headlabel"><a xlink:href="dir_000004_000002.html" target="_top" xlink:title="12">
<text text-anchor="middle" x="118.3" y="-164.3" font-family="Helvetica,sans-Serif" font-size="10.00" fill="#63b8ff">12</text>
</a>
</g>
</g>
<!-- dir_0f7010bffa885d45b6abbb18e1a85448 -->
<g id="node6" class="node">
<title>dir_0f7010bffa885d45b6abbb18e1a85448</title>
<g id="a_node6"><a xlink:href="dir_0f7010bffa885d45b6abbb18e1a85448.html" target="_top" xlink:title="Widgets">
<polygon fill="#4ea9ff" stroke="#404040" points="201.62,-98.5 150.38,-98.5 150.38,-79.25 201.62,-79.25 201.62,-98.5"/>
<text text-anchor="middle" x="176" y="-85" font-family="Helvetica,sans-Serif" font-size="10.00">Widgets</text>
</a>
</g>
</g>
<!-- dir_802669d86a09d692f423ad15444f4210&#45;&gt;dir_0f7010bffa885d45b6abbb18e1a85448 -->
<g id="edge1" class="edge">
<title>dir_802669d86a09d692f423ad15444f4210&#45;&gt;dir_0f7010bffa885d45b6abbb18e1a85448</title>
<g id="a_edge1"><a xlink:href="dir_000004_000006.html" target="_top">
<path fill="none" stroke="#63b8ff" d="M102.32,-245.14C117.7,-228.91 150.4,-191.71 166,-153.75 171.7,-139.89 174.17,-123.12 175.24,-110.23"/>
<polygon fill="#63b8ff" stroke="#63b8ff" points="178.72,-110.6 175.81,-100.42 171.73,-110.19 178.72,-110.6"/>
</a>
</g>
<g id="a_edge1&#45;headlabel"><a xlink:href="dir_000004_000006.html" target="_top" xlink:title="5">
<text text-anchor="middle" x="181.43" y="-108.97" font-family="Helvetica,sans-Serif" font-size="10.00" fill="#63b8ff">5</text>
</a>
</g>
</g>
<!-- dir_c9b371ffe1bb5d8bb2c84dbe3295c730&#45;&gt;dir_192f27c06696059490b8ed376012eed2 -->
<g id="edge6" class="edge">
<title>dir_c9b371ffe1bb5d8bb2c84dbe3295c730&#45;&gt;dir_192f27c06696059490b8ed376012eed2</title>
<g id="a_edge6"><a xlink:href="dir_000001_000000.html" target="_top">
<path fill="none" stroke="#63b8ff" d="M71.29,-189.3C68.01,-171.77 60.65,-132.03 55,-98.5 52.54,-83.89 49.96,-67.36 48.03,-54.78"/>
<polygon fill="#63b8ff" stroke="#63b8ff" points="51.55,-54.59 46.59,-45.23 44.62,-55.64 51.55,-54.59"/>
</a>
</g>
<g id="a_edge6&#45;headlabel"><a xlink:href="dir_000001_000000.html" target="_top" xlink:title="4">
<text text-anchor="middle" x="54.66" y="-52.35" font-family="Helvetica,sans-Serif" font-size="10.00" fill="#63b8ff">4</text>
</a>
</g>
</g>
<!-- dir_c9b371ffe1bb5d8bb2c84dbe3295c730&#45;&gt;dir_668b4af8e996aac2de436b71d9910aa6 -->
<g id="edge8" class="edge">
<title>dir_c9b371ffe1bb5d8bb2c84dbe3295c730&#45;&gt;dir_668b4af8e996aac2de436b71d9910aa6</title>
<g id="a_edge8"><a xlink:href="dir_000001_000002.html" target="_top">
<path fill="none" stroke="#63b8ff" d="M79.94,-189.58C85.62,-182.38 93.84,-171.96 100.89,-163.01"/>
<polygon fill="#63b8ff" stroke="#63b8ff" points="103.53,-165.32 106.98,-155.3 98.04,-160.98 103.53,-165.32"/>
</a>
</g>
<g id="a_edge8&#45;headlabel"><a xlink:href="dir_000001_000002.html" target="_top" xlink:title="2">
<text text-anchor="middle" x="104.47" y="-164.83" font-family="Helvetica,sans-Serif" font-size="10.00" fill="#63b8ff">2</text>
</a>
</g>
</g>
<!-- dir_438b27afc7c9416aca39677d6327d4e6 -->
<g id="node5" class="node">
<title>dir_438b27afc7c9416aca39677d6327d4e6</title>
<g id="a_node5"><a xlink:href="dir_438b27afc7c9416aca39677d6327d4e6.html" target="_top" xlink:title="Serialization">
<polygon fill="#4ea9ff" stroke="#404040" points="132.25,-98.5 63.75,-98.5 63.75,-79.25 132.25,-79.25 132.25,-98.5"/>
<text text-anchor="middle" x="98" y="-85" font-family="Helvetica,sans-Serif" font-size="10.00">Serialization</text>
</a>
</g>
</g>
<!-- dir_c9b371ffe1bb5d8bb2c84dbe3295c730&#45;&gt;dir_438b27afc7c9416aca39677d6327d4e6 -->
<g id="edge7" class="edge">
<title>dir_c9b371ffe1bb5d8bb2c84dbe3295c730&#45;&gt;dir_438b27afc7c9416aca39677d6327d4e6</title>
<g id="a_edge7"><a xlink:href="dir_000001_000003.html" target="_top">
<path fill="none" stroke="#63b8ff" d="M72.06,-189.52C71.01,-177.03 70.05,-153.62 75,-134.5 77.32,-125.55 81.66,-116.36 85.96,-108.67"/>
<polygon fill="#63b8ff" stroke="#63b8ff" points="88.86,-110.63 91,-100.26 82.85,-107.03 88.86,-110.63"/>
</a>
</g>
<g id="a_edge7&#45;headlabel"><a xlink:href="dir_000001_000003.html" target="_top" xlink:title="1">
<text text-anchor="middle" x="90.22" y="-110" font-family="Helvetica,sans-Serif" font-size="10.00" fill="#63b8ff">1</text>
</a>
</g>
</g>
<!-- dir_c9b371ffe1bb5d8bb2c84dbe3295c730&#45;&gt;dir_0f7010bffa885d45b6abbb18e1a85448 -->
<g id="edge5" class="edge">
<title>dir_c9b371ffe1bb5d8bb2c84dbe3295c730&#45;&gt;dir_0f7010bffa885d45b6abbb18e1a85448</title>
<g id="a_edge5"><a xlink:href="dir_000001_000006.html" target="_top">
<path fill="none" stroke="#63b8ff" d="M96.64,-190.95C114.97,-184.05 139.74,-172.05 155,-153.75 165.42,-141.26 170.72,-123.44 173.38,-109.8"/>
<polygon fill="#63b8ff" stroke="#63b8ff" points="176.79,-110.63 174.92,-100.21 169.88,-109.52 176.79,-110.63"/>
</a>
</g>
<g id="a_edge5&#45;headlabel"><a xlink:href="dir_000001_000006.html" target="_top" xlink:title="1">
<text text-anchor="middle" x="179.27" y="-109.26" font-family="Helvetica,sans-Serif" font-size="10.00" fill="#63b8ff">1</text>
</a>
</g>
</g>
<!-- dir_668b4af8e996aac2de436b71d9910aa6&#45;&gt;dir_438b27afc7c9416aca39677d6327d4e6 -->
<g id="edge10" class="edge">
<title>dir_668b4af8e996aac2de436b71d9910aa6&#45;&gt;dir_438b27afc7c9416aca39677d6327d4e6</title>
<g id="a_edge10"><a xlink:href="dir_000002_000003.html" target="_top">
<path fill="none" stroke="#63b8ff" d="M107.03,-134.33C103.51,-127.74 100.08,-118.46 97.88,-110.07"/>
<polygon fill="#63b8ff" stroke="#63b8ff" points="101.33,-109.48 95.95,-100.34 94.46,-110.83 101.33,-109.48"/>
</a>
</g>
<g id="a_edge10&#45;headlabel"><a xlink:href="dir_000002_000003.html" target="_top" xlink:title="3">
<text text-anchor="middle" x="104.51" y="-107.09" font-family="Helvetica,sans-Serif" font-size="10.00" fill="#63b8ff">3</text>
</a>
</g>
</g>
<!-- dir_668b4af8e996aac2de436b71d9910aa6&#45;&gt;dir_0f7010bffa885d45b6abbb18e1a85448 -->
<g id="edge9" class="edge">
<title>dir_668b4af8e996aac2de436b71d9910aa6&#45;&gt;dir_0f7010bffa885d45b6abbb18e1a85448</title>
<g id="a_edge9"><a xlink:href="dir_000002_000006.html" target="_top">
<path fill="none" stroke="#63b8ff" d="M125.35,-134.09C134.08,-126.47 146.79,-115.37 157.3,-106.2"/>
<polygon fill="#63b8ff" stroke="#63b8ff" points="159.43,-108.98 164.66,-99.77 154.83,-103.71 159.43,-108.98"/>
</a>
</g>
<g id="a_edge9&#45;headlabel"><a xlink:href="dir_000002_000006.html" target="_top" xlink:title="2">
<text text-anchor="middle" x="159.73" y="-108.62" font-family="Helvetica,sans-Serif" font-size="10.00" fill="#63b8ff">2</text>
</a>
</g>
</g>
<!-- dir_438b27afc7c9416aca39677d6327d4e6&#45;&gt;dir_192f27c06696059490b8ed376012eed2 -->
<g id="edge11" class="edge">
<title>dir_438b27afc7c9416aca39677d6327d4e6&#45;&gt;dir_192f27c06696059490b8ed376012eed2</title>
<g id="a_edge11"><a xlink:href="dir_000003_000000.html" target="_top">
<path fill="none" stroke="#63b8ff" d="M89.25,-79.08C81.85,-71.65 71.04,-60.79 61.95,-51.66"/>
<polygon fill="#63b8ff" stroke="#63b8ff" points="64.54,-49.3 55.01,-44.68 59.58,-54.24 64.54,-49.3"/>
</a>
</g>
<g id="a_edge11&#45;headlabel"><a xlink:href="dir_000003_000000.html" target="_top" xlink:title="1">
<text text-anchor="middle" x="68.03" y="-44.9" font-family="Helvetica,sans-Serif" font-size="10.00" fill="#63b8ff">1</text>
</a>
</g>
</g>
<!-- dir_438b27afc7c9416aca39677d6327d4e6&#45;&gt;dir_668b4af8e996aac2de436b71d9910aa6 -->
<g id="edge12" class="edge">
<title>dir_438b27afc7c9416aca39677d6327d4e6&#45;&gt;dir_668b4af8e996aac2de436b71d9910aa6</title>
<g id="a_edge12"><a xlink:href="dir_000003_000002.html" target="_top">
<path fill="none" stroke="#63b8ff" d="M106.07,-98.86C109.59,-105.5 113.01,-114.8 115.19,-123.17"/>
<polygon fill="#63b8ff" stroke="#63b8ff" points="111.72,-123.7 117.07,-132.85 118.6,-122.36 111.72,-123.7"/>
</a>
</g>
<g id="a_edge12&#45;headlabel"><a xlink:href="dir_000003_000002.html" target="_top" xlink:title="3">
<text text-anchor="middle" x="108.54" y="-118.32" font-family="Helvetica,sans-Serif" font-size="10.00" fill="#63b8ff">3</text>
</a>
</g>
</g>
</g>
</svg>
