<?xml version="1.0" encoding="UTF-8" standalone="no"?>
<!DOCTYPE svg PUBLIC "-//W3C//DTD SVG 1.1//EN"
 "http://www.w3.org/Graphics/SVG/1.1/DTD/svg11.dtd">
<!-- Generated by graphviz version 12.2.1 (20241206.2353)
 -->
<!-- Title: Graphical Class Hierarchy Pages: 1 -->
<svg width="270pt" height="138pt"
 viewBox="0.00 0.00 270.25 138.25" xmlns="http://www.w3.org/2000/svg" xmlns:xlink="http://www.w3.org/1999/xlink">
<g id="graph0" class="graph" transform="scale(1 1) rotate(0) translate(4 134.25)">
<title>Graphical Class Hierarchy</title>
<!-- Node0 -->
<g id="Node000000" class="node">
<title>Node0</title>
<g id="a_Node000000"><a xlink:title=" ">
<polygon fill="#e0e0e0" stroke="#999999" points="80.12,-93.25 10.88,-93.25 10.88,-74 80.12,-74 80.12,-93.25"/>
<text text-anchor="middle" x="45.5" y="-79.75" font-family="Helvetica,sans-Serif" font-size="10.00">sf::Drawable</text>
</a>
</g>
</g>
<!-- Node1 -->
<g id="Node000001" class="node">
<title>Node1</title>
<g id="a_Node000001"><a xlink:href="classsgui_1_1_gui.html" target="_top" xlink:title="implement gui following the immediate gui principles, like dear&#45;imgui, but with more control over the...">
<polygon fill="white" stroke="#666666" points="221.38,-56.25 167.88,-56.25 167.88,-37 221.38,-37 221.38,-56.25"/>
<text text-anchor="middle" x="194.62" y="-42.75" font-family="Helvetica,sans-Serif" font-size="10.00">sgui::Gui</text>
</a>
</g>
</g>
<!-- Node0&#45;&gt;Node1 -->
<g id="edge1_Node000000_Node000001" class="edge">
<title>Node0&#45;&gt;Node1</title>
<g id="a_edge1_Node000000_Node000001"><a xlink:title=" ">
<path fill="none" stroke="#63b8ff" d="M91.64,-72.27C116.5,-66.02 146.49,-58.48 167.49,-53.2"/>
<polygon fill="#63b8ff" stroke="#63b8ff" points="90.94,-68.84 82.09,-74.67 92.64,-75.63 90.94,-68.84"/>
</a>
</g>
</g>
<!-- Node3 -->
<g id="Node000003" class="node">
<title>Node3</title>
<g id="a_Node000003"><a xlink:href="classsgui_1_1_gui_render.html" target="_top" xlink:title="Handle rendering for the gui.">
<polygon fill="white" stroke="#666666" points="236.75,-19.25 152.5,-19.25 152.5,0 236.75,0 236.75,-19.25"/>
<text text-anchor="middle" x="194.62" y="-5.75" font-family="Helvetica,sans-Serif" font-size="10.00">sgui::GuiRender</text>
</a>
</g>
</g>
<!-- Node0&#45;&gt;Node3 -->
<g id="edge2_Node000000_Node000003" class="edge">
<title>Node0&#45;&gt;Node3</title>
<g id="a_edge2_Node000000_Node000003"><a xlink:title=" ">
<path fill="none" stroke="#63b8ff" d="M86.72,-68.33C88.19,-67.47 89.62,-66.56 91,-65.62 110.22,-52.52 107.02,-39.55 127,-27.62 134.61,-23.08 143.39,-19.66 152.03,-17.09"/>
<polygon fill="#63b8ff" stroke="#63b8ff" points="85.26,-65.14 77.96,-72.82 88.45,-71.37 85.26,-65.14"/>
</a>
</g>
</g>
<!-- Node4 -->
<g id="Node000004" class="node">
<title>Node4</title>
<g id="a_Node000004"><a xlink:href="classsgui_1_1_plotter.html" target="_top" xlink:title="plot function in a given range and level of sampling.">
<polygon fill="white" stroke="#666666" points="228.12,-130.25 161.12,-130.25 161.12,-111 228.12,-111 228.12,-130.25"/>
<text text-anchor="middle" x="194.62" y="-116.75" font-family="Helvetica,sans-Serif" font-size="10.00">sgui::Plotter</text>
</a>
</g>
</g>
<!-- Node0&#45;&gt;Node4 -->
<g id="edge3_Node000000_Node000004" class="edge">
<title>Node0&#45;&gt;Node4</title>
<g id="a_edge3_Node000000_Node000004"><a xlink:title=" ">
<path fill="none" stroke="#63b8ff" d="M91.53,-94.95C113.85,-100.56 140.31,-107.22 160.7,-112.34"/>
<polygon fill="#63b8ff" stroke="#63b8ff" points="92.64,-91.62 82.09,-92.58 90.94,-98.41 92.64,-91.62"/>
</a>
</g>
</g>
<!-- Node5 -->
<g id="Node000005" class="node">
<title>Node5</title>
<g id="a_Node000005"><a xlink:href="classsgui_1_1_primitive_shape_render.html" target="_top" xlink:title="render primitive shapes using vertex array.">
<polygon fill="white" stroke="#666666" points="262.25,-93.25 127,-93.25 127,-74 262.25,-74 262.25,-93.25"/>
<text text-anchor="middle" x="194.62" y="-79.75" font-family="Helvetica,sans-Serif" font-size="10.00">sgui::PrimitiveShapeRender</text>
</a>
</g>
</g>
<!-- Node0&#45;&gt;Node5 -->
<g id="edge4_Node000000_Node000005" class="edge">
<title>Node0&#45;&gt;Node5</title>
<g id="a_edge4_Node000000_Node000005"><a xlink:title=" ">
<path fill="none" stroke="#63b8ff" d="M92.08,-83.62C103.04,-83.62 114.97,-83.62 126.68,-83.62"/>
<polygon fill="#63b8ff" stroke="#63b8ff" points="92.14,-80.13 82.14,-83.63 92.14,-87.13 92.14,-80.13"/>
</a>
</g>
</g>
<!-- Node2 -->
<g id="Node000002" class="node">
<title>Node2</title>
<g id="a_Node000002"><a xlink:title=" ">
<polygon fill="#e0e0e0" stroke="#999999" points="91,-56.25 0,-56.25 0,-37 91,-37 91,-56.25"/>
<text text-anchor="middle" x="45.5" y="-42.75" font-family="Helvetica,sans-Serif" font-size="10.00">sf::Transformable</text>
</a>
</g>
</g>
<!-- Node2&#45;&gt;Node1 -->
<g id="edge5_Node000002_Node000001" class="edge">
<title>Node2&#45;&gt;Node1</title>
<g id="a_edge5_Node000002_Node000001"><a xlink:title=" ">
<path fill="none" stroke="#63b8ff" d="M102.88,-46.62C125.23,-46.62 149.83,-46.62 167.77,-46.62"/>
<polygon fill="#63b8ff" stroke="#63b8ff" points="102.96,-43.13 92.96,-46.63 102.96,-50.13 102.96,-43.13"/>
</a>
</g>
</g>
<!-- Node2&#45;&gt;Node3 -->
<g id="edge6_Node000002_Node000003" class="edge">
<title>Node2&#45;&gt;Node3</title>
<g id="a_edge6_Node000002_Node000003"><a xlink:title=" ">
<path fill="none" stroke="#63b8ff" d="M97.76,-33.73C116.01,-29.14 136.29,-24.05 153.47,-19.72"/>
<polygon fill="#63b8ff" stroke="#63b8ff" points="97.01,-30.31 88.17,-36.15 98.72,-37.1 97.01,-30.31"/>
</a>
</g>
</g>
<!-- Node2&#45;&gt;Node4 -->
<g id="edge7_Node000002_Node000004" class="edge">
<title>Node2&#45;&gt;Node4</title>
<g id="a_edge7_Node000002_Node000004"><a xlink:title=" ">
<path fill="none" stroke="#63b8ff" d="M86.72,-61.92C88.19,-62.78 89.62,-63.69 91,-64.62 110.22,-77.73 107.02,-90.7 127,-102.62 137.19,-108.7 149.46,-112.77 160.68,-115.48"/>
<polygon fill="#63b8ff" stroke="#63b8ff" points="88.45,-58.88 77.96,-57.43 85.26,-65.11 88.45,-58.88"/>
</a>
</g>
</g>
<!-- Node2&#45;&gt;Node5 -->
<g id="edge8_Node000002_Node000005" class="edge">
<title>Node2&#45;&gt;Node5</title>
<g id="a_edge8_Node000002_Node000005"><a xlink:title=" ">
<path fill="none" stroke="#63b8ff" d="M97.76,-59.52C116.01,-64.11 136.29,-69.2 153.47,-73.53"/>
<polygon fill="#63b8ff" stroke="#63b8ff" points="98.72,-56.15 88.17,-57.1 97.01,-62.94 98.72,-56.15"/>
</a>
</g>
</g>
</g>
</svg>
